<svg width="40" height="41" viewBox="0 0 40 41" fill="none" xmlns="http://www.w3.org/2000/svg">
<g id="edit_FILL0_wght400_GRAD0_opsz24 1">
<path id="Vector" d="M8.33333 32.1667H10.7083L27 15.875L24.625 13.5L8.33333 29.7917V32.1667ZM5 35.5V28.4167L27 6.45833C27.3333 6.15278 27.7014 5.91667 28.1042 5.75C28.5069 5.58333 28.9306 5.5 29.375 5.5C29.8194 5.5 30.25 5.58333 30.6667 5.75C31.0833 5.91667 31.4444 6.16667 31.75 6.5L34.0417 8.83333C34.375 9.13889 34.6181 9.5 34.7708 9.91667C34.9236 10.3333 35 10.75 35 11.1667C35 11.6111 34.9236 12.0347 34.7708 12.4375C34.6181 12.8403 34.375 13.2083 34.0417 13.5417L12.0833 35.5H5ZM25.7917 14.7083L24.625 13.5L27 15.875L25.7917 14.7083Z" fill="#01474F"/>
</g>
</svg>
