<svg width="30" height="30" viewBox="0 0 30 30" fill="none" xmlns="http://www.w3.org/2000/svg">
<g clip-path="url(#clip0_78267_40012)">
<path d="M30 27.6562C30 28.9512 28.9512 30 27.6562 30H2.34375C1.04883 30 0 28.9512 0 27.6562V2.34375C0 1.04883 1.04883 0 2.34375 0H27.6562C28.9512 0 30 1.04883 30 2.34375V27.6562Z" fill="#172537"/>
<path d="M24.1907 11.5585L11.4083 24.7425C10.955 25.2101 10.193 24.8315 10.2486 24.1645L10.9441 16.3006C10.9706 15.9897 11.1851 15.7223 11.4756 15.6409L15.4692 14.5214C16.2151 14.3123 16.6495 13.4948 16.4232 12.7217C16.2057 11.9832 15.4481 11.5664 14.7286 11.7681C14.0091 11.9698 10.7746 12.8764 10.7746 12.8764C10.4841 12.9579 10.1706 12.8385 9.99902 12.5831L5.62982 6.13155C5.25809 5.59175 5.74189 4.85654 6.35795 5.02436L23.7289 9.75591C24.5049 9.96775 24.7614 10.9692 24.1907 11.5585Z" fill="#3BB900"/>
</g>
<defs>
<clipPath id="clip0_78267_40012">
<rect width="30" height="30" fill="white"/>
</clipPath>
</defs>
</svg>
