<svg width="24" height="24" viewBox="0 0 24 24" fill="none" xmlns="http://www.w3.org/2000/svg">
<path d="M17.8333 17.8334H6.16667V8.66671H17.8333V17.8334ZM15.3333 2.83337V4.50004H8.66667V2.83337H7V4.50004H6.16667C5.24167 4.50004 4.5 5.24171 4.5 6.16671V17.8334C4.5 18.2754 4.67559 18.6993 4.98816 19.0119C5.30072 19.3244 5.72464 19.5 6.16667 19.5H17.8333C18.2754 19.5 18.6993 19.3244 19.0118 19.0119C19.3244 18.6993 19.5 18.2754 19.5 17.8334V6.16671C19.5 5.72468 19.3244 5.30076 19.0118 4.9882C18.6993 4.67564 18.2754 4.50004 17.8333 4.50004H17V2.83337H15.3333ZM16.1667 12H12V16.1667H16.1667V12Z" fill="#AABBC3"/>
</svg>
