<svg width="136" height="72" viewBox="0 0 136 72" fill="none" xmlns="http://www.w3.org/2000/svg">
<path d="M75.6528 15.7946C73.5268 16.9184 72.768 18.7712 72.768 23.9036C72.768 23.9036 73.831 22.8704 75.4106 22.2942C76.5643 21.8993 77.5366 21.261 78.1128 20.8363C79.9047 19.5299 80.1481 17.8585 80.1481 15.0346C80.1481 15.0346 77.2324 14.9428 75.6528 15.7946Z" fill="#FFCB29"/>
<path d="M63.2017 17.0093C61.5004 18.528 60.9839 20.9272 60.9839 20.9272L55.2741 42.8561L50.5664 24.876C50.1107 22.9934 49.26 20.5942 47.9537 19.0135C46.3144 17.0093 42.9429 16.8876 42.5779 16.8876C42.2129 16.8876 38.8127 17.0093 37.1413 19.0445C35.835 20.6539 34.9854 23.0233 34.5298 24.9059L29.8221 42.886L24.172 20.9272C24.172 20.9272 23.6864 18.497 21.9565 17.0093C19.1613 14.5492 15 15.0658 15 15.0658L25.8434 56.1881C25.8434 56.1881 29.4272 56.4614 31.2192 55.5201C33.5574 54.3354 34.7111 53.3941 36.1392 47.775C37.4146 42.7942 40.9685 28.1546 41.3026 27.0916C41.4541 26.575 41.6665 25.3306 42.5779 25.3306C43.5192 25.3306 43.7029 26.5451 43.8533 27.0916C44.1874 28.1247 47.7103 42.7952 49.0166 47.775C50.4447 53.3642 51.5685 54.2746 53.9378 55.5201C55.7286 56.4614 59.3136 56.1881 59.3136 56.1881L70.1558 15.0957C70.1558 15.0957 65.9957 14.5791 63.2017 17.0093ZM80.1486 21.7778C80.1486 21.7778 79.4805 22.8109 77.9319 23.7212C76.9297 24.2688 75.9874 24.6625 74.9553 25.1493C73.2541 25.9689 72.7685 26.9102 72.7685 28.3072V56.1905C72.7685 56.1905 75.5316 56.5234 77.2937 55.6429C79.601 54.4583 80.1176 53.3356 80.1486 48.2021V21.7778ZM107.241 35.7183L121 15.1863C121 15.1863 115.198 14.1842 112.314 16.8279C110.461 18.497 108.395 21.5046 108.395 21.5046L103.353 28.8547C103.08 29.2187 102.807 29.6446 102.29 29.6446C101.773 29.6446 101.44 29.2497 101.227 28.8547L96.1244 21.5344C96.1244 21.5344 94.0902 18.5268 92.2065 16.8577C89.3516 14.2152 83.5201 15.2162 83.5201 15.2162L97.3091 35.6884L83.5201 56.1285C83.5201 56.1285 89.5949 56.9182 92.4498 54.2758C94.3027 52.6054 96.0945 49.8413 96.0945 49.8413L101.136 42.5221C101.409 42.1571 101.683 41.7322 102.199 41.7322C102.716 41.7322 103.049 42.1272 103.262 42.5221L108.304 49.8413C108.304 49.8413 110.187 52.5446 112.009 54.2758C114.864 56.9182 120.849 56.1285 120.849 56.1285L107.241 35.7183Z" fill="#2E3133"/>
</svg>
