<svg width="140" height="44" viewBox="0 0 140 44" fill="none" xmlns="http://www.w3.org/2000/svg">
<g clip-path="url(#clip0_1686_220)">
<path d="M30.0818 9.10458C30.0589 8.8987 29.8759 8.8072 29.7386 8.8072C29.6014 8.8072 26.6046 8.57844 26.6046 8.57844C26.6046 8.57844 24.5229 6.49674 24.2713 6.29086C24.0426 6.0621 23.6079 6.13073 23.4249 6.17648C23.402 6.17648 22.9674 6.31373 22.2582 6.54249C21.5491 4.50654 20.3367 2.6536 18.1635 2.6536H17.9576C17.3628 1.87582 16.585 1.50981 15.9445 1.50981C10.9118 1.50981 8.487 7.80066 7.7321 11.0033C5.76478 11.6209 4.36935 12.0327 4.20922 12.1013C3.11118 12.4445 3.08831 12.4673 2.95105 13.4967C2.83667 14.2745 -0.0228043 36.3954 -0.0228043 36.3954L22.2354 40.5588L34.3138 37.951C34.3367 37.9052 30.1046 9.31046 30.0818 9.10458ZM21.0229 6.86275C20.4739 7.02288 19.8105 7.22877 19.1471 7.45752V7.04576C19.1471 5.81046 18.987 4.80393 18.6896 4.00327C19.8334 4.14053 20.5426 5.3987 21.0229 6.86275ZM17.2942 4.25491C17.5916 5.03269 17.7975 6.13072 17.7975 7.64053V7.86929C16.5622 8.25817 15.2582 8.64706 13.9086 9.0817C14.6635 6.19935 16.1046 4.78105 17.2942 4.25491ZM15.8301 2.83661C16.0589 2.83661 16.2877 2.92811 16.4707 3.06536C14.8465 3.82027 13.1308 5.71896 12.4216 9.5621C11.3465 9.90523 10.3171 10.2026 9.3334 10.5229C10.1569 7.59478 12.2158 2.83661 15.8301 2.83661Z" fill="#95BF47"/>
<path d="M29.7386 8.76145C29.6013 8.76145 26.6046 8.53269 26.6046 8.53269C26.6046 8.53269 24.5229 6.45099 24.2712 6.24511C24.1797 6.1536 24.0654 6.10785 23.9739 6.10785L22.3039 40.5588L34.3824 37.951C34.3824 37.951 30.1503 9.31047 30.1275 9.10458C30.0359 8.8987 29.8758 8.8072 29.7386 8.76145Z" fill="#5E8E3E"/>
<path d="M18.1633 15.4412L16.6993 19.8562C16.6993 19.8562 15.3725 19.1471 13.794 19.1471C11.4378 19.1471 11.3235 20.634 11.3235 21C11.3235 23.0131 16.5849 23.7909 16.5849 28.5261C16.5849 32.2549 14.2287 34.6569 11.0489 34.6569C7.20581 34.6569 5.28424 32.2778 5.28424 32.2778L6.31365 28.8922C6.31365 28.8922 8.32672 30.6307 10.0195 30.6307C11.1404 30.6307 11.598 29.7614 11.598 29.1209C11.598 26.4902 7.29731 26.3758 7.29731 22.0294C7.29731 18.3922 9.90515 14.8693 15.1895 14.8693C17.1568 14.8464 18.1633 15.4412 18.1633 15.4412Z" fill="white"/>
<path d="M48.4052 23.7451C47.1927 23.1046 46.5751 22.5327 46.5751 21.7778C46.5751 20.817 47.4444 20.1994 48.7941 20.1994C50.3725 20.1994 51.7679 20.8399 51.7679 20.8399L52.8659 17.4771C52.8659 17.4771 51.8594 16.6994 48.8856 16.6994C44.745 16.6994 41.8627 19.0784 41.8627 22.4183C41.8627 24.317 43.2123 25.7582 44.9967 26.7876C46.4607 27.5883 46.964 28.183 46.964 29.0523C46.964 29.9445 46.232 30.6765 44.8823 30.6765C42.8921 30.6765 40.9934 29.6471 40.9934 29.6471L39.8267 33.0098C39.8267 33.0098 41.5653 34.1765 44.4934 34.1765C48.7483 34.1765 51.8365 32.0719 51.8365 28.2974C51.7908 26.2386 50.2581 24.8203 48.4052 23.7451ZM65.379 16.6536C63.2744 16.6536 61.6274 17.6601 60.3692 19.1699L60.3235 19.1471L62.1535 9.63073H57.4182L52.7973 33.8791H57.5326L59.111 25.5981C59.7287 22.4641 61.3529 20.5196 62.8627 20.5196C63.9378 20.5196 64.3496 21.2516 64.3496 22.2811C64.3496 22.9216 64.3039 23.7451 64.1437 24.3856L62.3594 33.8791H67.0947L68.9476 24.0882C69.1535 23.0588 69.2908 21.8235 69.2908 20.9771C69.2679 18.2549 67.8725 16.6536 65.379 16.6536ZM79.9967 16.6536C74.2777 16.6536 70.5032 21.8007 70.5032 27.5425C70.5032 31.2026 72.7679 34.1765 77.0228 34.1765C82.6274 34.1765 86.4019 29.1667 86.4019 23.2876C86.4248 19.8791 84.4575 16.6536 79.9967 16.6536ZM77.6633 30.5621C76.0392 30.5621 75.3758 29.1896 75.3758 27.451C75.3758 24.7288 76.7712 20.3137 79.3561 20.3137C81.0261 20.3137 81.598 21.7778 81.598 23.1732C81.598 26.0784 80.1568 30.5621 77.6633 30.5621ZM98.549 16.6536C95.3463 16.6536 93.5392 19.4902 93.5392 19.4902H93.4934L93.7679 16.951H89.5588C89.3529 18.6667 88.964 21.2974 88.598 23.2418L85.3267 40.6046H90.062L91.3888 33.5817H91.5032C91.5032 33.5817 92.4869 34.1994 94.2712 34.1994C99.8529 34.1994 103.49 28.4804 103.49 22.7157C103.467 19.5131 102.026 16.6536 98.549 16.6536ZM94.0196 30.6079C92.7843 30.6079 92.0522 29.8987 92.0522 29.8987L92.83 25.4837C93.379 22.5098 94.9346 20.5654 96.5816 20.5654C98.0457 20.5654 98.4803 21.915 98.4803 23.1732C98.5032 26.2386 96.6731 30.6079 94.0196 30.6079ZM110.239 9.85949C108.729 9.85949 107.516 11.0719 107.516 12.6046C107.516 14 108.408 14.9837 109.758 14.9837H109.804C111.291 14.9837 112.549 13.9771 112.572 12.2386C112.595 10.8432 111.657 9.85949 110.239 9.85949ZM103.605 33.8562H108.34L111.542 17.0196H106.784L103.605 33.8562ZM123.621 16.9967H120.327L120.487 16.219C120.761 14.5948 121.722 13.1765 123.323 13.1765C124.17 13.1765 124.833 13.4281 124.833 13.4281L125.748 9.69936C125.748 9.69936 124.948 9.2876 123.163 9.2876C121.493 9.2876 119.801 9.76799 118.52 10.866C116.895 12.2386 116.14 14.2288 115.774 16.2418L115.637 17.0196H113.418L112.709 20.6111H114.928L112.412 33.8791H117.147L119.663 20.6111H122.935L123.621 16.9967ZM135.036 17.0196C135.036 17.0196 132.062 24.5 130.758 28.5948H130.712C130.621 27.268 129.546 17.0196 129.546 17.0196H124.559L127.418 32.4379C127.464 32.7811 127.441 32.9869 127.304 33.2157C126.755 34.2909 125.817 35.3203 124.719 36.0752C123.827 36.7157 122.82 37.1503 122.02 37.4249L123.346 41.451C124.307 41.2451 126.32 40.4445 127.99 38.866C130.14 36.853 132.154 33.719 134.212 29.4641L140 16.9967H135.036V17.0196Z" fill="black"/>
</g>
<defs>
<clipPath id="clip0_1686_220">
<rect width="140" height="43.9216" fill="white"/>
</clipPath>
</defs>
</svg>
