<?xml version="1.0" encoding="utf-8"?>
<!-- Generator: Adobe Illustrator 25.4.1, SVG Export Plug-In . SVG Version: 6.00 Build 0)  -->
<svg version="1.1" id="Layer_1" xmlns="http://www.w3.org/2000/svg" xmlns:xlink="http://www.w3.org/1999/xlink" x="0px" y="0px"
	 width="40px" height="40px" viewBox="0 0 40 40" style="enable-background:new 0 0 40 40;" xml:space="preserve">
<style type="text/css">
	.st0{fill:#FFFFFF;stroke:#231F20;stroke-linejoin:round;stroke-miterlimit:10;}
	.st1{fill:#231F20;}
	.st2{fill:#708C9A;}
	.st3{fill:#FFFFFF;stroke:#708C9A;stroke-linejoin:round;stroke-miterlimit:10;}
	.st4{fill:none;stroke:#FFFFFF;stroke-linecap:round;stroke-miterlimit:10;}
	.st5{opacity:0.7;fill:#708C9A;}
	.st6{fill:#FFFFFF;stroke:#708C9A;stroke-linecap:round;stroke-linejoin:round;stroke-miterlimit:10;}
	.st7{opacity:0.7;fill:none;stroke:#708C9A;stroke-linecap:round;stroke-linejoin:round;stroke-miterlimit:10;}
	.st8{opacity:0.7;}
	.st9{fill:none;stroke:#708C9A;stroke-linecap:round;stroke-linejoin:round;stroke-miterlimit:10;}
	.st10{opacity:0.7;fill:#708C9A;stroke:#708C9A;stroke-linecap:round;stroke-linejoin:round;stroke-miterlimit:10;}
	.st11{fill:#FFFFFF;}
	.st12{fill:#FFFFFF;stroke:#708C9A;stroke-linecap:square;stroke-miterlimit:10;}
	.st13{fill:none;stroke:#708C9A;stroke-linecap:round;stroke-miterlimit:10;}
	.st14{fill:#FFFFFF;stroke:#708C9A;stroke-miterlimit:10;}
</style>
<path class="st2" d="M38.98,19.78V7.89c0-0.2-6.46-7.72-6.46-7.72C32.42,0.06,32.28,0,32.13,0H7.51C7.36,0,7.22,0.07,7.12,0.18
	L1.1,7.58C0.97,7.73,1.04,8.11,1.04,8.12v28.56c0,0.28,0.22,0.5,0.5,0.5h24.94l3.93,2.58c0.49,0.32,1.11,0.32,1.6,0l7.14-4.75
	c0.53-0.35,0.85-0.95,0.85-1.6V21.13C40,20.48,39.56,19.94,38.98,19.78z M26.66,30.19c0.16-0.23,0.47-0.29,0.69-0.13l3.55,2.41
	l3.99-8.19c0.12-0.25,0.42-0.35,0.67-0.23c0.25,0.12,0.35,0.42,0.23,0.67l-4.5,9.23l-4.51-3.05C26.57,30.73,26.51,30.42,26.66,30.19
	z M31.9,1l5.44,6.39H25.87L23.61,1H31.9z M7.75,1h8.65l-2.27,6.39H2.54L7.75,1z M2.04,36.18V8.39h12v5.71l6.07-1.87l5.83,1.85
	l0.01-5.69h12.02v11.33H23.82c-0.77,0-1.39,0.63-1.39,1.41v12.34c0,0.65,0.32,1.25,0.86,1.6l1.68,1.1H2.04z"/>
</svg>
