<?xml version="1.0" encoding="UTF-8"?>
<svg width="48px" height="63px" viewBox="0 0 48 63" version="1.1" xmlns="http://www.w3.org/2000/svg" xmlns:xlink="http://www.w3.org/1999/xlink">
    <!-- Generator: sketchtool 55.2 (78181) - https://sketchapp.com -->
    <title>A168CB79-141A-4635-A25A-B8449A00BACC</title>
    <desc>Created with sketchtool.</desc>
    <g id="Page-1" stroke="none" stroke-width="1" fill="none" fill-rule="evenodd">
        <g id="All-label-formats" transform="translate(-678.000000, -331.000000)">
            <rect fill="#FFFFFF" x="0" y="0" width="1280" height="1457"></rect>
            <g id="Group-4-Copy" transform="translate(702.000000, 362.500000) rotate(-270.000000) translate(-702.000000, -362.500000) translate(671.000000, 339.000000)">
                <g id="Group-2-Copy-11" transform="translate(-0.000000, 0.000000)">
                    <g id="Group-6">
                        <rect id="Rectangle" stroke="#BCC2C8" fill="#FFFFFF" x="0.5" y="0.5" width="61" height="46" rx="2"></rect>
                        <rect id="Rectangle-Copy-4" stroke="#BCC2C8" fill="#FFFFFF" x="4.5" y="8.5" width="22" height="30" rx="1"></rect>
                        <rect id="Rectangle" fill="#BCC2C8" x="8" y="15" width="1" height="5"></rect>
                        <rect id="Rectangle" fill="#BCC2C8" x="10" y="15" width="1" height="5"></rect>
                        <rect id="Rectangle" fill="#BCC2C8" x="17" y="15" width="1" height="5"></rect>
                        <rect id="Rectangle" fill="#BCC2C8" x="19" y="15" width="3" height="5"></rect>
                        <rect id="Rectangle" fill="#BCC2C8" x="12" y="15" width="4" height="5"></rect>
                        <path d="M31.5,4 L31.5,44" id="Line" stroke="#BCC2C8" stroke-linecap="square" stroke-dasharray="2,2"></path>
                        <rect id="Rectangle" fill="#BCC2C8" x="44" y="15" width="10" height="2"></rect>
                        <rect id="Rectangle-Copy-6" fill="#BCC2C8" x="44" y="21" width="10" height="2"></rect>
                        <rect id="Rectangle" fill="#BCC2C8" x="39" y="15" width="3" height="2"></rect>
                        <rect id="Rectangle-Copy-7" fill="#BCC2C8" x="39" y="21" width="3" height="2"></rect>
                        <rect id="Rectangle" fill="#BCC2C8" x="44" y="18" width="8" height="2"></rect>
                        <rect id="Rectangle-Copy-8" fill="#BCC2C8" x="44" y="24" width="8" height="2"></rect>
                        <rect id="Rectangle" fill="#BCC2C8" x="39" y="18" width="3" height="2"></rect>
                        <rect id="Rectangle-Copy-9" fill="#BCC2C8" x="39" y="24" width="3" height="2"></rect>
                    </g>
                </g>
            </g>
        </g>
    </g>
</svg>