<svg width="140" height="72" viewBox="0 0 140 72" fill="none" xmlns="http://www.w3.org/2000/svg">
<path d="M68.901 51.4214C68.901 53.6275 68.901 55.6652 68.901 57.7029C68.901 59.2017 68.1937 60.0549 66.9868 60.0802C65.7097 60.1055 64.9996 59.2578 64.9968 57.658C64.9968 50.9976 64.9771 44.3372 64.9968 37.6767C65.0164 32.9895 68.6596 29.3407 73.2486 29.3435C77.8376 29.3463 81.4191 33.026 81.4387 37.7301C81.4387 39.9053 81.3629 42.0833 81.4527 44.2558C81.7362 50.7337 74.6155 55.1684 68.901 51.4214ZM68.901 41.0364C68.901 42.2321 68.8841 43.4306 68.901 44.6291C68.8918 45.7495 69.3176 46.8297 70.0887 47.6427C70.8597 48.4556 71.916 48.9378 73.0353 48.9879C74.1368 49.0488 75.2187 48.6781 76.0514 47.9544C76.8841 47.2307 77.402 46.2111 77.4952 45.1118C77.7179 42.4142 77.7132 39.7027 77.4812 37.0059C77.2707 34.71 75.2358 33.127 72.9343 33.2533C71.8601 33.3151 70.8486 33.7792 70.1012 34.5531C69.3538 35.3271 68.9253 36.3541 68.901 37.4298C68.8729 38.6282 68.9038 39.8267 68.901 41.0252V41.0364Z" fill="#0B7BBD"/>
<path d="M127.685 42.1759C126.131 42.1759 124.576 42.2068 123.021 42.1759C122.254 42.1534 122.052 42.4425 122.024 43.1807C121.864 47.2701 124.693 49.7878 128.362 48.7774C129.221 48.5229 129.996 48.0432 130.607 47.388C131.519 46.473 132.446 46.4309 133.321 47.1747C134.197 47.9185 134.259 48.9374 133.451 50.0067C131.404 52.7096 126.658 53.6864 123.203 52.0557C120.189 50.6214 118.35 48.2778 118.224 44.89C118.107 42.2272 118.124 39.5603 118.274 36.8992C118.513 32.9108 121.48 29.9301 125.507 29.3996C129.128 28.9196 132.746 31.2268 134.166 34.7324C134.924 36.5905 134.865 38.4822 134.728 40.3656C134.646 41.5416 133.72 42.1815 132.482 42.1843C130.885 42.1787 129.285 42.1759 127.685 42.1759ZM126.406 38.3419C127.556 38.3419 128.707 38.3082 129.855 38.3419C130.534 38.3671 130.801 38.1679 130.778 37.4493C130.732 36.3314 130.259 35.2738 129.457 34.4938C128.655 33.7138 127.584 33.2707 126.466 33.2556C125.347 33.2406 124.265 33.6546 123.442 34.4127C122.619 35.1707 122.118 36.2152 122.041 37.3315C121.996 38.0388 122.137 38.4064 122.956 38.3643C124.101 38.2998 125.255 38.3419 126.406 38.3419Z" fill="#0B7BBD"/>
<path d="M108.605 42.176C107.05 42.176 105.495 42.176 103.94 42.176C103.345 42.176 102.964 42.2461 102.905 43.018C102.7 45.6647 103.556 47.4948 105.577 48.4883C107.598 49.4819 109.632 49.0497 111.533 47.3095C112.439 46.4675 113.396 46.4534 114.258 47.245C115.064 47.9859 115.1 49.002 114.331 49.99C112.086 52.8977 107.019 53.7734 103.491 51.7722C100.659 50.164 99.037 47.7754 99.0791 44.4017C99.1072 42.0918 99.0791 39.7818 99.0791 37.4719C99.1047 35.4191 99.8989 33.4506 101.305 31.9548C102.711 30.459 104.627 29.5448 106.674 29.3925C108.721 29.2402 110.751 29.861 112.363 31.1323C113.975 32.4036 115.052 34.233 115.381 36.2593C115.552 37.5374 115.594 38.8293 115.507 40.1158C115.448 41.5051 114.704 42.1647 113.262 42.1844C111.715 42.1928 110.16 42.176 108.605 42.176ZM107.202 38.3419C108.353 38.3419 109.506 38.2886 110.651 38.3588C111.535 38.4121 111.693 38.036 111.631 37.2642C111.538 36.1501 111.023 35.1137 110.19 34.3674C109.358 33.6212 108.272 33.2216 107.154 33.2505C106.061 33.2987 105.024 33.7467 104.24 34.5095C103.456 35.2723 102.98 36.2966 102.902 37.3876C102.851 38.182 103.152 38.3869 103.884 38.3532C104.982 38.3083 106.09 38.3419 107.196 38.3419H107.202Z" fill="#0B7BBD"/>
<path d="M23.3081 44.5027C21.2648 44.5027 19.2215 44.4747 17.181 44.5027C15.6962 44.528 14.7728 43.8712 14.2451 42.4903C13.4031 40.2449 12.4095 38.0613 11.6124 35.8018C11.2475 34.7633 10.7002 34.3984 9.6477 34.55C9.16592 34.6052 8.67898 34.5967 8.19941 34.5248C7.57222 34.4655 6.99262 34.1647 6.58307 33.686C6.17351 33.2073 5.96606 32.5882 6.00454 31.9594C6.00662 31.3542 6.24055 30.7727 6.65821 30.3347C7.07587 29.8967 7.6455 29.6354 8.24994 29.6045C9.80207 29.5231 11.3598 29.5344 12.9119 29.6045C14.1048 29.6522 14.8233 30.4016 15.25 31.4878C16.1565 33.8006 17.1221 36.0909 17.9978 38.4177C18.3037 39.2345 18.691 39.6022 19.6257 39.5741C22.0676 39.5011 24.5094 39.5152 26.9513 39.5741C27.7933 39.5909 28.2256 39.3383 28.5287 38.5328C29.4325 36.1246 30.3849 33.7342 31.386 31.3615C32.1494 29.5568 34.0411 29.0319 35.3968 30.1967C36.2388 30.9321 36.5504 31.8808 36.1238 32.9586C34.8046 36.3014 33.477 39.6415 32.1157 42.9675C31.661 44.0901 30.7123 44.5112 29.5504 44.5055C27.4818 44.4943 25.3936 44.5027 23.3081 44.5027Z" fill="#0B7BBD"/>
<path d="M20.7652 23.744C20.7652 20.1598 20.7652 16.5784 20.7652 12.9969C20.7652 11.3915 21.4136 10.3923 22.5896 10.0976C24.3382 9.65411 25.7612 10.76 25.7781 12.6489C25.809 15.9356 25.7781 19.2195 25.7781 22.5062V24.1089C26.9822 22.9441 27.914 21.9617 28.9329 21.0776C29.3649 20.6829 29.9245 20.4569 30.5095 20.441C31.0944 20.425 31.6656 20.6201 32.1185 20.9906C33.0251 21.7512 33.3591 22.7251 32.8848 23.8478C32.6909 24.2446 32.4232 24.6009 32.0961 24.8976C29.8001 27.1879 27.4958 29.4679 25.183 31.7376C23.9481 32.9445 22.6794 32.9894 21.4416 31.7909C19.0204 29.4407 16.6253 27.0634 14.2564 24.659C13.2431 23.6373 13.2347 22.3041 14.1245 21.3077C14.3354 21.0628 14.5926 20.862 14.8814 20.7168C15.1701 20.5716 15.4847 20.4849 15.8071 20.4617C16.1295 20.4385 16.4533 20.4792 16.7598 20.5816C17.0664 20.6839 17.3498 20.8458 17.5936 21.0579C18.1039 21.4854 18.5876 21.9438 19.0419 22.4304C19.5022 22.9048 19.9316 23.41 20.3751 23.9012L20.7652 23.744Z" fill="#8BC441"/>
<path d="M54.5893 52.8696C52.0436 52.7124 49.7477 52.137 48.1338 50.0797C47.0953 48.7549 47.7746 47.054 49.3492 46.8407C50.1435 46.734 50.6767 47.1719 51.2072 47.6827C51.9035 48.3757 52.7973 48.836 53.7658 49.0003C54.7343 49.1647 55.7299 49.025 56.6158 48.6005C57.6375 48.1093 58.356 47.3543 58.4458 46.1699C58.5356 44.9854 57.8845 44.2473 56.9919 43.6438C55.9422 42.9561 54.7634 42.5492 53.6098 42.0917C52.4113 41.6145 51.2128 41.1402 50.1659 40.3683C49.3648 39.7831 48.7229 39.0067 48.2987 38.1098C47.8745 37.213 47.6816 36.2242 47.7374 35.2337C47.7932 34.2432 48.096 33.2824 48.6182 32.4389C49.1405 31.5953 49.8655 30.8959 50.7273 30.4044C54.0224 28.493 58.5637 29.3154 60.8624 32.2372C61.7045 33.3122 61.7045 34.4601 60.8624 35.2123C59.9643 36.0123 58.8051 35.8607 57.8817 34.7324C57.4378 34.1436 56.8377 33.691 56.1496 33.4261C55.4615 33.1611 54.7128 33.0945 53.9887 33.2336C52.8464 33.4048 51.9847 33.9746 51.7068 35.1646C51.4289 36.3547 52.1194 37.0115 53.0007 37.5475C54.5248 38.4738 56.265 38.9228 57.862 39.6947C60.2646 40.8567 62.1086 42.4706 62.3079 45.3559C62.5633 49.0664 60.2421 51.9125 56.3632 52.6535C55.757 52.7685 55.1339 52.8078 54.5893 52.8696Z" fill="#0B7BBD"/>
<path d="M84.6805 43.6438C84.6805 41.5106 84.6328 39.3747 84.6945 37.2444C84.8152 32.9585 87.2823 29.9468 91.0855 29.4248C92.1693 29.2674 93.2744 29.3459 94.3251 29.655C95.3758 29.964 96.3473 30.4963 97.1733 31.2155C98.1781 32.0575 98.296 33.155 97.5887 34.0222C96.8814 34.8895 95.8233 35.0243 94.7595 34.272C91.7002 32.1108 88.8064 33.3823 88.638 37.1405C88.4443 41.4433 88.5482 45.7601 88.537 50.0684C88.537 50.8487 88.5061 51.6037 87.7848 52.0893C87.4953 52.3009 87.1534 52.4292 86.7962 52.4604C86.439 52.4915 86.08 52.4244 85.7583 52.2661C84.9864 51.9012 84.6805 51.2669 84.6833 50.4361C84.6861 48.1767 84.6805 45.9116 84.6805 43.6438Z" fill="#0B7BBD"/>
<path d="M23.2015 62C20.3485 61.9089 17.6187 60.8158 15.4914 58.9126C14.189 57.7506 14.0431 56.4006 15.0479 55.3144C15.9853 54.2983 17.3494 54.3208 18.5928 55.3705C21.5539 57.8741 25.0343 57.846 27.9842 55.2947C29.2079 54.2366 30.5832 54.2366 31.5347 55.2947C32.4188 56.2771 32.3431 57.6917 31.2905 58.747C29.0704 60.9671 26.3114 61.8681 23.2015 62Z" fill="#8BC441"/>
<path d="M28.728 52.3251C28.0163 52.3139 27.3383 52.0205 26.843 51.5094C26.3476 50.9983 26.0757 50.3114 26.0868 49.5997C26.098 48.8881 26.3914 48.21 26.9025 47.7147C27.4136 47.2194 28.1005 46.9474 28.8122 46.9586C29.1677 46.9593 29.5195 47.0305 29.8473 47.1681C30.1751 47.3056 30.4723 47.5068 30.7219 47.76C30.9714 48.0132 31.1682 48.3133 31.301 48.6431C31.4338 48.9729 31.4999 49.3257 31.4954 49.6811C31.4763 50.3978 31.1747 51.0779 30.6563 51.5731C30.1379 52.0684 29.4448 52.3387 28.728 52.3251Z" fill="#0B7BBD"/>
<path d="M20.5491 49.625C20.5586 50.1629 20.4078 50.6915 20.1159 51.1435C19.8241 51.5955 19.4043 51.9504 18.9101 52.1631C18.416 52.3758 17.8696 52.4367 17.3408 52.338C16.8119 52.2393 16.3243 51.9854 15.9401 51.6088C15.5559 51.2321 15.2925 50.7497 15.1833 50.2229C15.0741 49.696 15.1242 49.1486 15.327 48.6503C15.5299 48.152 15.8764 47.7253 16.3225 47.4246C16.7687 47.1238 17.2942 46.9626 17.8322 46.9614C18.187 46.952 18.5402 47.014 18.8706 47.1439C19.2009 47.2737 19.5018 47.4687 19.7553 47.7172C20.0088 47.9657 20.2097 48.2627 20.3461 48.5904C20.4824 48.9182 20.5515 49.27 20.5491 49.625Z" fill="#0B7BBD"/>
</svg>
