<svg width="140" height="72" viewBox="0 0 140 72" fill="none" xmlns="http://www.w3.org/2000/svg">
<g clip-path="url(#clip0)">
<path fill-rule="evenodd" clip-rule="evenodd" d="M86.8537 47.9935C78.718 53.9901 66.9259 57.1895 56.7731 57.1895C42.5373 57.1895 29.7214 51.9242 20.0256 43.167C19.2639 42.4783 19.9464 41.5398 20.8605 42.0761C31.3241 48.1641 44.2619 51.8267 57.6263 51.8267C66.6395 51.8267 76.5546 49.9619 85.6714 46.0921C87.0487 45.5071 88.2005 46.9941 86.8537 47.9935Z" fill="#FF9900"/>
<path fill-rule="evenodd" clip-rule="evenodd" d="M90.2357 44.1238C89.1997 42.7953 83.3615 43.4961 80.7411 43.8069C79.9427 43.9044 79.8209 43.2097 80.54 42.7099C85.1898 39.4374 92.8196 40.382 93.7093 41.4789C94.599 42.582 93.4777 50.2301 89.1083 53.8804C88.4379 54.4411 87.798 54.1425 88.0966 53.399C89.0778 50.9492 91.2778 45.4584 90.2357 44.1238Z" fill="#FF9900"/>
<path fill-rule="evenodd" clip-rule="evenodd" d="M80.9234 19.6071V16.426C80.9234 15.9446 81.2891 15.6216 81.7279 15.6216H95.9698C96.4269 15.6216 96.7925 15.9507 96.7925 16.426V19.1501C96.7864 19.6071 96.4025 20.2044 95.7199 21.1489L88.34 31.6857C91.0823 31.6186 93.977 32.0269 96.4634 33.4286C97.0241 33.7455 97.1764 34.2086 97.2191 34.6657V38.0601C97.2191 38.5233 96.7072 39.0656 96.1709 38.7853C91.7892 36.4878 85.9694 36.238 81.1245 38.8097C80.6309 39.0778 80.1129 38.5415 80.1129 38.0784V34.8546C80.1129 34.3366 80.119 33.4529 80.637 32.6668L89.187 20.4055H81.7461C81.2891 20.4055 80.9234 20.0825 80.9234 19.6071Z" fill="black"/>
<path fill-rule="evenodd" clip-rule="evenodd" d="M28.9714 39.4557H24.6385C24.2241 39.4253 23.895 39.1145 23.8645 38.7184V16.481C23.8645 16.0361 24.2363 15.6826 24.6994 15.6826H28.7398C29.1603 15.7009 29.4955 16.0239 29.526 16.4261V19.333H29.6052C30.6595 16.5236 32.6401 15.2134 35.3093 15.2134C38.0212 15.2134 39.7153 16.5236 40.9342 19.333C41.9823 16.5236 44.3651 15.2134 46.9186 15.2134C48.7346 15.2134 50.7213 15.963 51.934 17.6449C53.3052 19.5158 53.0249 22.2338 53.0249 24.6166L53.0188 38.6513C53.0188 39.0962 52.647 39.4557 52.1839 39.4557H47.8571C47.4244 39.4253 47.077 39.0779 47.077 38.6513V26.8653C47.077 25.9268 47.1623 23.5867 46.9551 22.6969C46.6322 21.2039 45.6632 20.7834 44.4078 20.7834C43.3596 20.7834 42.2627 21.4842 41.8178 22.6055C41.3729 23.7269 41.4156 25.6038 41.4156 26.8653V38.6513C41.4156 39.0962 41.0438 39.4557 40.5807 39.4557H36.2539C35.8151 39.4253 35.4738 39.0779 35.4738 38.6513L35.4677 26.8653C35.4677 24.385 35.876 20.7346 32.7985 20.7346C29.6844 20.7346 29.8063 24.2936 29.8063 26.8653V38.6513C29.8063 39.0962 29.4346 39.4557 28.9714 39.4557" fill="black"/>
<path fill-rule="evenodd" clip-rule="evenodd" d="M109.054 15.2134C115.484 15.2134 118.963 20.7346 118.963 27.7551C118.963 34.5378 115.118 39.9189 109.054 39.9189C102.741 39.9189 99.3038 34.3976 99.3038 27.5174C99.3038 20.5945 102.784 15.2134 109.054 15.2134ZM109.091 19.7535C105.898 19.7535 105.697 24.1047 105.697 26.8166C105.697 29.5345 105.654 35.3361 109.054 35.3361C112.412 35.3361 112.571 30.6559 112.571 27.8038C112.571 25.9268 112.491 23.6842 111.925 21.9047C111.437 20.3568 110.468 19.7535 109.091 19.7535Z" fill="black"/>
<path fill-rule="evenodd" clip-rule="evenodd" d="M127.3 39.4557H122.985C122.553 39.4253 122.205 39.0779 122.205 38.6513L122.199 16.4078C122.236 15.9995 122.595 15.6826 123.034 15.6826H127.05C127.428 15.7009 127.739 15.9569 127.824 16.3042V19.7047H127.903C129.116 16.6638 130.816 15.2134 133.809 15.2134C135.753 15.2134 137.648 15.9142 138.867 17.8338C140 19.6133 140 22.6055 140 24.7568V38.7549C139.951 39.1449 139.592 39.4557 139.165 39.4557H134.82C134.424 39.4253 134.095 39.1328 134.052 38.7549V26.6764C134.052 24.2449 134.333 20.6859 131.34 20.6859C130.286 20.6859 129.317 21.3928 128.836 22.4654C128.226 23.8244 128.147 25.1773 128.147 26.6764V38.6513C128.141 39.0962 127.763 39.4557 127.3 39.4557" fill="black"/>
<path fill-rule="evenodd" clip-rule="evenodd" d="M69.5702 28.8336C69.5702 30.5217 69.6129 31.9294 68.7597 33.4286C68.0711 34.6474 66.9742 35.397 65.7614 35.397C64.0977 35.397 63.1227 34.1294 63.1227 32.2585C63.1227 28.5655 66.4318 27.8951 69.5702 27.8951V28.8336ZM73.9397 39.3947C73.6533 39.6507 73.2389 39.669 72.9159 39.4983C71.4777 38.3039 71.2157 37.7493 70.4295 36.6097C68.0528 39.0352 66.3647 39.7604 63.2872 39.7604C59.6368 39.7604 56.8031 37.5116 56.8031 33.0081C56.8031 29.4918 58.7044 27.0968 61.4224 25.9267C63.7747 24.8907 67.0595 24.7079 69.5702 24.4215V23.8608C69.5702 22.8309 69.6495 21.6121 69.0401 20.7224C68.516 19.924 67.5043 19.595 66.6085 19.595C64.957 19.595 63.4883 20.442 63.1288 22.1971C63.0556 22.5872 62.7692 22.9711 62.3731 22.9894L58.1742 22.5384C57.8208 22.4592 57.4247 22.1728 57.5283 21.6304C58.4911 16.5357 63.0983 15 67.2179 15C69.3265 15 72.081 15.5607 73.7447 17.1573C75.8533 19.1257 75.6522 21.7523 75.6522 24.6104V31.3627C75.6522 33.392 76.4932 34.2818 77.2854 35.3787C77.5596 35.7687 77.6206 36.238 77.2671 36.5305C76.3835 37.2679 74.8112 38.6391 73.9458 39.4069L73.9397 39.3947" fill="black"/>
<path fill-rule="evenodd" clip-rule="evenodd" d="M12.7672 28.8339C12.7672 30.5219 12.8098 31.9297 11.9566 33.4288C11.268 34.6477 10.1772 35.3972 8.95834 35.3972C7.29465 35.3972 6.32569 34.1297 6.32569 32.2588C6.32569 28.5657 9.63479 27.8954 12.7672 27.8954V28.8339ZM17.1366 39.395C16.8502 39.6509 16.4358 39.6692 16.1128 39.4986C14.6746 38.3041 14.4187 37.7496 13.6264 36.61C11.2497 39.0354 9.56775 39.7606 6.48413 39.7606C2.83985 39.7606 0 37.5119 0 33.0083C0 29.492 1.90746 27.0971 4.61933 25.927C6.97166 24.891 10.2564 24.7082 12.7672 24.4217V23.8611C12.7672 22.8312 12.8464 21.6124 12.2431 20.7226C11.7129 19.9243 10.7013 19.5952 9.81152 19.5952C8.16002 19.5952 6.68524 20.4423 6.32569 22.1974C6.25255 22.5874 5.96613 22.9713 5.57611 22.9896L1.37117 22.5387C1.01772 22.4594 0.627692 22.173 0.725198 21.6306C1.69416 16.536 6.29521 15.0002 10.4148 15.0002C12.5234 15.0002 15.2779 15.5609 16.9416 17.1576C19.0502 19.126 18.8491 21.7525 18.8491 24.6107V31.3629C18.8491 33.3923 19.6901 34.282 20.4823 35.379C20.7626 35.769 20.8236 36.2382 20.4701 36.5307C19.5865 37.2681 18.0142 38.6393 17.1488 39.4072L17.1366 39.395" fill="black"/>
</g>
<defs>
<clipPath id="clip0">
<rect y="15" width="140" height="42.1896" fill="white"/>
</clipPath>
</defs>
</svg>
