<svg width="24" height="24" viewBox="0 0 24 24" fill="none" xmlns="http://www.w3.org/2000/svg">
<path d="M22 12C22 6.47671 17.5233 2 12 2C6.47671 2 2 6.47671 2 12C2 16.9918 5.65479 21.1288 10.4384 21.8795V14.8932H7.90137V12H10.4384V9.79726C10.4384 7.29315 11.9288 5.90685 14.2137 5.90685C15.3096 5.90685 16.4548 6.10411 16.4548 6.10411V8.56438H15.1945C13.9507 8.56438 13.5671 9.33699 13.5671 10.126V12H16.3397L15.8959 14.8932H13.5671V21.8795C18.3452 21.1288 22 16.9918 22 12Z" fill="#1877F2"/>
<path d="M15.8904 14.8931L16.3342 12H13.5616V10.126C13.5616 9.33697 13.9507 8.56436 15.189 8.56436H16.4493V6.10409C16.4493 6.10409 15.3041 5.90683 14.2082 5.90683C11.9233 5.90683 10.4329 7.29313 10.4329 9.79724V12H7.89587V14.8931H10.4329V21.8794C10.9424 21.9616 11.463 22 11.9945 22C12.526 22 13.0466 21.9561 13.5561 21.8794V14.8931H15.8904Z" fill="white"/>
</svg>
