<svg xmlns="http://www.w3.org/2000/svg" xmlns:xlink="http://www.w3.org/1999/xlink" viewBox="-100 -100 1200 700">
    <defs>
        <style>.cls-1,.cls-6{fill:#4cbb17;}.cls-1,.cls-2,.cls-3,.cls-4{fill-rule:evenodd;}.cls-1{opacity:0.28;}.cls-2{fill:url(#linear-gradient);}.cls-3{fill:url(#linear-gradient-2);}.cls-4{fill:url(#linear-gradient-3);}.cls-5{fill:#1a2266;}</style>
        <linearGradient id="linear-gradient" x1="149.79" y1="368.72" x2="365.99" y2="368.72" gradientUnits="userSpaceOnUse">
            <stop offset="0" stop-color="#4cbb17"/>
            <stop offset="1" stop-color="#badeb5"/>
        </linearGradient>
        <linearGradient id="linear-gradient-2" x1="144.99" y1="146.96" x2="361.28" y2="146.96" xlink:href="#linear-gradient"/>
        <linearGradient id="linear-gradient-3" x1="108.88" y1="257.84" x2="401.99" y2="257.84" xlink:href="#linear-gradient"/>
    </defs>
    <g id="Design">
        <path class="cls-1" d="M255.55,404.4a146.13,146.13,0,0,1-107-46.46c-8.5-9.09-.23-21.76,10.26-23.89,45.16-9.2,104.23,47.82,161.85,41.43,10.67-1.19,21.28-4.62,32.58-11.35,2.78-1.66,5.95-3.43,8.08-4.81A146.13,146.13,0,0,1,255.55,404.4Z"/>
        <path class="cls-2" d="M255.43,404.4a146.13,146.13,0,0,0,107-46.46c8.51-9.1.21-21.76-10.26-23.89-35.26-7.18-79,26-123.89,37.85-25.76,6.8-57.35,5.3-78.53-12.61A146,146,0,0,0,255.43,404.4Z"/>
        <path class="cls-1" d="M255.43,111.29a146.13,146.13,0,0,1,107,46.46c8.51,9.09.21,21.76-10.26,23.89C307,190.83,248,133.81,190.36,140.21c-10.67,1.18-21.28,4.62-32.58,11.35-2.79,1.65-5.95,3.42-8.08,4.81a146.09,146.09,0,0,1,105.73-45.08Z"/>
        <path class="cls-3" d="M255.55,111.29a146.13,146.13,0,0,0-107,46.46c-8.51,9.09-.21,21.76,10.26,23.89,45.16,9.19,104.23-47.83,161.85-41.43,10.67,1.18,21.28,4.62,32.58,11.35,2.78,1.65,5.95,3.42,8.08,4.81a146.09,146.09,0,0,0-105.73-45.08Z"/>
        <path class="cls-1" d="M111.08,283.28c23.4-87.88,265.39,99.78,288.14,3a147.53,147.53,0,0,0,.58-53.78C381.19,303,229.89,201.52,153.36,200c-22.2-.44-39.18,13.73-42.81,35.62a148.41,148.41,0,0,0,.53,47.66Z"/>
        <path class="cls-4" d="M399.78,283.28c-21.71-81.53-226.2,71.17-278.6,22.69-4.66-4.31-7.64-11.63-9.54-19.7a147.81,147.81,0,0,1-.57-53.78c22.14,83.91,232.4-75.89,280.61-20.58,4.38,5,7.06,14.22,8.63,23.71a147.65,147.65,0,0,1-.53,47.66Z"/>
    </g>
    <g id="Outlined">
        <path class="cls-5" d="M539.15,295.67V115.82q14.33-1,23.66-1.4T577,114q19.44,0,30.45,6t15.47,19.06q4.49,13.05,4.48,34,0,33.26-10.87,48.35t-34.41,15.1c-4.1,0-7.29,0-9.6-.13s-5.5-.3-9.59-.64v59.86ZM563.2,136.54v78c2.55.18,4.86.3,6.9.39s4.44.13,7.17.13q14.33,0,20.21-9.6t5.88-33.13q0-19.44-4.86-28.14t-19.7-8.7c-2,0-4.26.09-6.65.26S566.78,136.21,563.2,136.54Z"/>
        <path class="cls-5" d="M635.85,226.6q0-24.56,3.84-40.3t13-23.4q9.21-7.68,25.84-7.68,16.36,0,25.71,7.68t13,23.4Q721.05,202,721,226.6q0,37.1-8.95,54.36t-33.51,17.27q-24.57,0-33.65-17.27T635.85,226.6Zm24.56,0q0,20.47,1.79,31.34T668,272.78q4,4,10.62,4a14,14,0,0,0,10.36-4q4-4,5.88-14.84t1.92-31.34q0-20.21-1.79-31.09t-5.76-14.83q-4-4-10.61-4a14.77,14.77,0,0,0-10.75,4q-4.1,4-5.75,14.83T660.41,226.6Z"/>
        <path class="cls-5" d="M730,291.58l3.32-19.7a56.77,56.77,0,0,0,13.82,4,90.52,90.52,0,0,0,15.35,1.4q9.21,0,14.33-4.35t5.11-12.53a18.34,18.34,0,0,0-6.78-14.84,94.47,94.47,0,0,0-17.27-11A59.52,59.52,0,0,1,739,218.92q-7.17-9.21-7.16-24.56,0-18.15,10.23-28.65t29.17-10.49q16.37,0,28.14,5.63l-3.84,20.21a77.6,77.6,0,0,0-11.51-3.2,63.72,63.72,0,0,0-12.28-1.15q-17.4,0-17.4,15.1,0,8.7,5.76,13.81a75.86,75.86,0,0,0,15,10,113.33,113.33,0,0,1,14.59,9.46,38.25,38.25,0,0,1,10.74,13.18q4.1,8.06,4.1,20.85,0,19.44-11.26,29.29T763,298.23Q744.07,298.23,730,291.58Z"/>
        <path class="cls-5" d="M852.54,298.23q-16.38,0-23.15-10.61t-6.78-29.81V177.48H808.28V159.57l14.33-1.79,3.32-31.21h20.22v31.21H873v19.7H846.15v78q0,11.5,3.45,16.11t10.87,4.61a43.76,43.76,0,0,0,12.28-1.79l3.58,19.44a55.12,55.12,0,0,1-12.53,3.46A79.47,79.47,0,0,1,852.54,298.23Z"/>
        <path class="cls-6" d="M486.24,299.23q-18.71,0-27.95-13T449,243.94q0-22.6,4.52-35.66t13.15-18.7q8.64-5.66,20.76-5.65,16.65,0,24.46,11.51t7.81,38c0,1.1,0,2.88-.1,5.34s-.1,4.46-.1,6q-4.93.63-12.75,1.55T490,247.85q-8.94.61-17.36.82v3.08q0,14.38,4.21,20.35t14.69,6a63.84,63.84,0,0,0,11.62-1.13,117.5,117.5,0,0,0,12.23-3l3.08,19.32A84.67,84.67,0,0,1,486.24,299.23Zm-13.36-67q7,0,14.08-.52t10-.92q0-16.44-2.67-22.51T486,202.22a9.42,9.42,0,0,0-6.27,2.36q-2.77,2.37-4.63,8.84T472.88,232.23Z"/>
        <path class="cls-6" d="M638.22,361.89q0-24,6.31-35t19.79-11a51.49,51.49,0,0,1,8.25.69,41.47,41.47,0,0,1,7.36,1.81l-2.12,10.49a41.58,41.58,0,0,0-12.24-1.87q-8.24,0-12,8.3t-3.74,27.17q0,17.61,3.24,25.16t10.12,7.56a24.68,24.68,0,0,0,7.87-1V368.89H661V358.27h20.86v43.46a29.31,29.31,0,0,1-8.62,3.13,53.37,53.37,0,0,1-10.61,1q-12.63,0-18.49-10.61T638.22,361.89Z"/>
        <path class="cls-6" d="M702,312.19v74.68c0,3.25.39,5.37,1.19,6.37a3.72,3.72,0,0,0,3.06,1.5A12.23,12.23,0,0,0,710,394l1,9.87a29.15,29.15,0,0,1-3.68,1.37,14.68,14.68,0,0,1-4.31.62c-4.16,0-7.29-1.26-9.37-3.81s-3.12-7.13-3.12-13.79V312.19Z"/>
        <path class="cls-6" d="M713.28,370.88a85.2,85.2,0,0,1,1.87-19.67q1.88-7.68,6.37-11.42T734.14,336q8,0,12.55,3.75t6.37,11.42a88.52,88.52,0,0,1,1.81,19.67q0,18.12-4.37,26.54t-16.36,8.43q-12,0-16.43-8.43T713.28,370.88Zm12,0a101.13,101.13,0,0,0,.87,15.3q.87,5.31,2.81,7.25a7,7,0,0,0,5.19,1.93,6.82,6.82,0,0,0,5.05-1.93q1.93-1.94,2.88-7.25a94.7,94.7,0,0,0,.93-15.3,100.19,100.19,0,0,0-.87-15.17q-.87-5.31-2.81-7.24a7,7,0,0,0-5.18-1.94,7.22,7.22,0,0,0-5.25,1.94q-2,1.93-2.81,7.24A107.51,107.51,0,0,0,725.27,370.88Z"/>
        <path class="cls-6" d="M762.86,403.11V312.19h11.49v27.72a24.89,24.89,0,0,1,5.74-2.81,18.81,18.81,0,0,1,6-1.06q16.49,0,16.49,33.1,0,13.37-2.32,21.41t-7.36,11.68q-5.07,3.63-13.3,3.62A59.32,59.32,0,0,1,762.86,403.11Zm11.49-7.5a21.71,21.71,0,0,0,5.74,1,8.08,8.08,0,0,0,6.06-2.37q2.31-2.37,3.31-8.12a97.19,97.19,0,0,0,1-15.86q0-12.24-2.06-17.86t-6.18-5.62a14.74,14.74,0,0,0-7.87,2.75Z"/>
        <path class="cls-6" d="M806.7,388.12q0-7.5,3.18-11.87a19.39,19.39,0,0,1,9.31-6.61,73.59,73.59,0,0,1,14.73-3.5v-9.62a8.87,8.87,0,0,0-2.49-6.74,9.59,9.59,0,0,0-6.87-2.37,40.31,40.31,0,0,0-5.31.43,38.86,38.86,0,0,0-7.18,1.81l-2.37-10.49a46,46,0,0,1,8.18-2.31,42.54,42.54,0,0,1,7.8-.81q10.62,0,15.18,5.25t4.55,14.86v34a6.59,6.59,0,0,0,.63,3.43,2,2,0,0,0,1.75.94,5.48,5.48,0,0,0,1.37-.19,7,7,0,0,0,1.5-.56l1.12,10a14.25,14.25,0,0,1-3.49,1.56,15.11,15.11,0,0,1-4.37.56q-7.24,0-9.12-6.24a26.59,26.59,0,0,1-6.31,4.56,17,17,0,0,1-7.8,1.68q-6.87,0-10.43-5T806.7,388.12Zm11.49-1.25q0,4.75,1.75,7.18a5.51,5.51,0,0,0,4.74,2.44,10.11,10.11,0,0,0,5.12-1.44,14.59,14.59,0,0,0,4.12-3.43V374.13a51.23,51.23,0,0,0-8,2,12.34,12.34,0,0,0-5.68,3.75A10.69,10.69,0,0,0,818.19,386.87Z"/>
        <path class="cls-6" d="M868,312.19v74.68c0,3.25.39,5.37,1.19,6.37a3.72,3.72,0,0,0,3.06,1.5A12.34,12.34,0,0,0,876,394l1,9.87a29.15,29.15,0,0,1-3.68,1.37,14.68,14.68,0,0,1-4.31.62c-4.17,0-7.29-1.26-9.37-3.81s-3.12-7.13-3.12-13.79V312.19Z"/>
    </g>
</svg>