<svg width="14" height="14" viewBox="0 0 14 14" fill="none" xmlns="http://www.w3.org/2000/svg">
<path d="M6.33337 3.66658H7.66671V4.99992H6.33337V3.66658ZM6.33337 6.33325H7.66671V10.3333H6.33337V6.33325ZM7.00004 0.333252C3.32004 0.333252 0.333374 3.31992 0.333374 6.99992C0.333374 10.6799 3.32004 13.6666 7.00004 13.6666C10.68 13.6666 13.6667 10.6799 13.6667 6.99992C13.6667 3.31992 10.68 0.333252 7.00004 0.333252ZM7.00004 12.3333C4.06004 12.3333 1.66671 9.93992 1.66671 6.99992C1.66671 4.05992 4.06004 1.66659 7.00004 1.66659C9.94004 1.66659 12.3334 4.05992 12.3334 6.99992C12.3334 9.93992 9.94004 12.3333 7.00004 12.3333Z" fill="#3D5560"/>
</svg>
