<svg width="8" height="11" viewBox="0 0 8 11" fill="none" xmlns="http://www.w3.org/2000/svg">
<path d="M7.4375 11H0.745117V9.8584L4.06055 6.24219C4.53906 5.70898 4.87858 5.26465 5.0791 4.90918C5.28418 4.54915 5.38672 4.18913 5.38672 3.8291C5.38672 3.35514 5.25228 2.97233 4.9834 2.68066C4.71908 2.389 4.36133 2.24316 3.91016 2.24316C3.3724 2.24316 2.9554 2.40723 2.65918 2.73535C2.36296 3.06348 2.21484 3.51237 2.21484 4.08203H0.553711C0.553711 3.47591 0.69043 2.93132 0.963867 2.44824C1.24186 1.96061 1.63607 1.58236 2.14648 1.31348C2.66146 1.0446 3.25391 0.910156 3.92383 0.910156C4.88997 0.910156 5.65104 1.15397 6.20703 1.6416C6.76758 2.12467 7.04785 2.7946 7.04785 3.65137C7.04785 4.14811 6.90658 4.66992 6.62402 5.2168C6.34603 5.75911 5.88802 6.37663 5.25 7.06934L2.81641 9.67383H7.4375V11Z" fill="black"/>
</svg>
