<svg width="13" height="16" viewBox="0 0 13 16" fill="none" xmlns="http://www.w3.org/2000/svg">
<path d="M8.89474 0H1.36842C0.615789 0 0 0.654545 0 1.45455V10.9091C0 11.3091 0.307895 11.6364 0.684211 11.6364C1.06053 11.6364 1.36842 11.3091 1.36842 10.9091V2.18182C1.36842 1.78182 1.67632 1.45455 2.05263 1.45455H8.89474C9.27105 1.45455 9.57895 1.12727 9.57895 0.727273C9.57895 0.327273 9.27105 0 8.89474 0ZM11.6316 2.90909H4.10526C3.35263 2.90909 2.73684 3.56364 2.73684 4.36364V14.5455C2.73684 15.3455 3.35263 16 4.10526 16H11.6316C12.3842 16 13 15.3455 13 14.5455V4.36364C13 3.56364 12.3842 2.90909 11.6316 2.90909ZM10.9474 14.5455H4.78947C4.41316 14.5455 4.10526 14.2182 4.10526 13.8182V5.09091C4.10526 4.69091 4.41316 4.36364 4.78947 4.36364H10.9474C11.3237 4.36364 11.6316 4.69091 11.6316 5.09091V13.8182C11.6316 14.2182 11.3237 14.5455 10.9474 14.5455Z" fill="#AABBC3"/>
</svg>
