<svg width="260" height="160" viewBox="0 0 260 160" fill="none" xmlns="http://www.w3.org/2000/svg">
<rect width="260" height="160" fill="#2A2444"/>
<path d="M168.662 67.74H172.134V78.3329H185.333V67.7368H188.918V93.4119H185.447V81.7844H172.156V93.4087H168.662V67.74Z" fill="white"/>
<path d="M87.021 93.4971C87.2703 92.845 87.4376 92.3654 87.6522 91.8983C90.9725 84.2898 94.3339 76.697 97.591 69.0603C98.1055 67.8503 98.7935 67.6245 99.9645 67.6183C101.135 67.612 101.713 67.8847 102.193 69.0196C105.447 76.7127 108.799 84.365 112.113 92.0331C112.296 92.4531 112.428 92.892 112.649 93.4939C111.557 93.5411 110.463 93.5275 109.373 93.4532C109.143 93.3982 108.927 93.2944 108.74 93.1488C108.554 93.0033 108.402 92.8194 108.294 92.6099C107.614 91.1978 107.008 89.7517 106.479 88.2774C106.163 87.3777 105.649 87.13 104.73 87.1426C101.418 87.1927 98.1065 87.1927 94.7947 87.1426C93.9393 87.1426 93.4564 87.3495 93.1661 88.2022C92.7305 89.4844 92.0614 90.6913 91.6606 91.9829C91.2913 93.1804 90.6727 93.704 89.3913 93.5159C88.6685 93.4093 87.93 93.4971 87.021 93.4971ZM104.614 83.9105C103.007 79.9009 101.457 76.0387 99.7751 71.8379C98.0676 76.092 96.5274 79.9354 94.9335 83.9105H104.614Z" fill="white"/>
<path d="M235.724 85.8851H221.972C222.234 88.2018 223.292 89.7943 225.289 90.6063C228.168 91.7725 230.633 90.9793 232.744 88.5749L235.036 90.39C232.441 93.9795 227.145 95.0422 223.042 92.8979C219.081 90.832 217.361 85.882 219.069 81.3645C220.647 77.1543 225.04 74.9223 229.711 75.9599C233.824 76.8722 236.226 80.7062 235.724 85.8851ZM232.252 83.2549C232.006 80.0385 230.229 78.4083 227.325 78.4177C224.945 78.4177 221.96 80.5714 222.171 83.2549H232.252Z" fill="white"/>
<path d="M162.615 85.9133H149.188C149.071 87.9604 150.255 89.7348 152.247 90.6157C154.715 91.7066 157.233 91.0577 159.761 88.5843L162.021 90.3524C159.537 93.9732 154.09 95.0547 149.952 92.8603C145.972 90.7348 144.306 85.6249 146.127 81.1388C147.831 76.9411 152.512 74.7686 157.069 76.0571C161.049 77.1857 163.448 81.3175 162.615 85.9133ZM159.124 83.2455C159.225 80.3331 157.356 78.4428 154.491 78.4302C151.549 78.4302 149.166 80.54 149.182 83.2455H159.124Z" fill="white"/>
<path d="M114.082 93.3371C116.074 90.7445 117.92 88.2272 119.893 85.8133C120.716 84.8038 120.839 84.1235 119.937 83.0545C118.141 80.9573 116.525 78.7064 114.811 76.49C117.607 75.6686 118.728 76.0323 120.274 78.1891C121.177 79.4431 122.089 80.6971 123.115 82.1141C124.119 80.7347 125.195 79.6061 125.851 78.28C127.041 75.8661 128.973 75.9821 131.331 76.3552C129.528 78.7032 127.859 80.9761 126.085 83.1329C125.286 84.0953 125.359 84.7223 126.117 85.6408C128.124 88.108 130.021 90.6567 132.186 93.4782C130.702 93.4782 129.519 93.5597 128.361 93.4343C127.947 93.3904 127.508 92.9076 127.218 92.522C125.845 90.6787 124.516 88.804 123.049 86.7694C121.897 88.3369 120.618 89.6724 119.81 91.2524C118.542 93.7446 116.563 93.7352 114.082 93.3371Z" fill="white"/>
<path d="M139.663 93.44H136.491V66H139.673L139.663 93.44Z" fill="white"/>
<path d="M209.667 93.4154H206.224V76.2736H209.272C209.342 77.0919 209.405 77.8411 209.497 78.9477C211.204 76.584 213.243 75.2955 216.241 75.8912C216.194 76.91 216.15 77.8724 216.102 78.9226C215.787 78.9226 215.582 78.9226 215.386 78.9226C211.914 78.6781 209.787 80.5277 209.686 84.0451C209.594 87.1142 209.667 90.2021 209.667 93.4154Z" fill="white"/>
<path d="M199.236 93.4052H195.979V76.2822H199.236V93.4052Z" fill="white"/>
<path d="M197.614 72.1202C197.033 72.1202 196.476 71.8933 196.062 71.4885C195.649 71.0838 195.412 70.5336 195.404 69.9571C195.393 69.6576 195.446 69.3593 195.558 69.0812C195.671 68.8031 195.84 68.5514 196.056 68.3424C196.273 68.1333 196.53 67.9715 196.813 67.8674C197.096 67.7632 197.398 67.719 197.699 67.7375C197.989 67.7431 198.275 67.8053 198.541 67.9208C198.807 68.0362 199.047 68.2025 199.248 68.4102C199.45 68.6179 199.608 68.8629 199.714 69.1313C199.819 69.3997 199.871 69.6861 199.865 69.9743C199.86 70.2625 199.797 70.5467 199.681 70.8109C199.565 71.075 199.397 71.3138 199.188 71.5136C198.979 71.7135 198.732 71.8704 198.462 71.9756C198.192 72.0807 197.904 72.132 197.614 72.1264V72.1202Z" fill="white"/>
<path fill-rule="evenodd" clip-rule="evenodd" d="M49.2903 70.9678L33.0322 87.2258C37.3044 85.1165 42.7823 82.8108 49.2903 80.8944V70.9678Z" fill="white"/>
<path fill-rule="evenodd" clip-rule="evenodd" d="M52.869 63.7291V80.4191C55.9981 79.5943 59.3374 78.8722 62.8692 78.3069V67.3727H65.9469V67.7338H66.1713V77.8343C70.5229 77.2856 75.1449 76.9952 80 77.0438C78.378 62.9452 66.5073 52 52.0985 52C36.5799 52 24 64.6897 24 80.3462C24 84.0539 24.7125 87.5915 25.9963 90.8387L52.869 63.7291Z" fill="white"/>
<path fill-rule="evenodd" clip-rule="evenodd" d="M65.9948 80.8386V94.6289H65.7707V94.8401H62.696V81.326C59.1644 81.9076 55.8263 82.6506 52.71 83.49V94.6289H49.6353V84.3695C39.1629 87.5409 31.516 91.6709 27.6128 94.0461C32.4582 102.384 41.5337 108 51.9405 108C67.4365 108 79.9999 95.5506 79.9999 80.1941C79.9999 80.1313 79.9966 80.0695 79.9966 80.0056C75.079 79.9537 70.3943 80.2634 65.9948 80.8386Z" fill="white"/>
</svg>
