<svg width="24" height="24" viewBox="0 0 24 24" fill="none" xmlns="http://www.w3.org/2000/svg">
<g clip-path="url(#clip0)">
<path d="M4.58613 9.74951C3.17546 9.74951 1.99994 10.3479 1.99994 12.1535C1.99994 13.5839 2.7904 14.4847 4.62249 14.4847C6.77899 14.4847 6.91722 13.0641 6.91722 13.0641H5.87232C5.87232 13.0641 5.6483 13.829 4.55878 13.829C3.67139 13.829 3.03316 13.2296 3.03316 12.3894H7.02656V11.8621C7.02656 11.0309 6.49887 9.74951 4.58613 9.74951ZM4.54964 10.4234C5.39434 10.4234 5.97019 10.9408 5.97019 11.7164H3.05624C3.05624 10.893 3.80794 10.4234 4.54964 10.4234Z" fill="#E53238"/>
<path d="M7.02576 8.00122V13.5781C7.02576 13.8947 7.00314 14.3392 7.00314 14.3392H7.99974C7.99974 14.3392 8.03556 14.0199 8.03556 13.7281C8.03556 13.7281 8.52796 14.4985 9.86685 14.4985C11.2767 14.4985 12.2344 13.5196 12.2344 12.1173C12.2344 10.8126 11.3548 9.76327 9.86912 9.76327C8.47793 9.76327 8.04564 10.5145 8.04564 10.5145V8.00122H7.02576ZM9.61188 10.4531C10.5693 10.4531 11.1782 11.1637 11.1782 12.1173C11.1782 13.1398 10.475 13.8087 9.61875 13.8087C8.59687 13.8087 8.04564 13.0108 8.04564 12.1263C8.04564 11.3022 8.54024 10.4531 9.61188 10.4531Z" fill="#0064D2"/>
<path d="M14.7112 9.74951C12.5889 9.74951 12.4528 10.9115 12.4528 11.0972H13.5092C13.5092 11.0972 13.5645 10.4188 14.6383 10.4188C15.3361 10.4188 15.8768 10.7382 15.8768 11.3522V11.5707H14.6383C12.9942 11.5707 12.125 12.0517 12.125 13.0278C12.125 13.9883 12.9281 14.5109 14.0134 14.5109C15.4926 14.5109 15.9691 13.6936 15.9691 13.6936C15.9691 14.0187 15.9941 14.3391 15.9941 14.3391H16.9331C16.9331 14.3391 16.8968 13.942 16.8968 13.688V11.4922C16.8968 10.0524 15.7354 9.74951 14.7112 9.74951ZM15.8768 12.2264V12.5178C15.8768 12.8978 15.6422 13.8427 14.2615 13.8427C13.5055 13.8427 13.1813 13.4654 13.1813 13.0277C13.1813 12.2315 14.273 12.2264 15.8768 12.2264Z" fill="#F5AF02"/>
<path d="M16.3277 9.93188H17.516L19.2215 13.3487L20.923 9.93188H21.9995L18.9002 16.0149H17.771L18.6653 14.3191L16.3277 9.93188Z" fill="#86B817"/>
</g>
<defs>
<clipPath id="clip0">
<rect x="2" y="8" width="20" height="8.016" fill="white"/>
</clipPath>
</defs>
</svg>
