<?xml version="1.0" encoding="UTF-8"?>
<svg xmlns="http://www.w3.org/2000/svg" xmlns:xlink="http://www.w3.org/1999/xlink" width="260px" height="164px" viewBox="0 0 260 164" version="1.1">
<defs>
<clipPath id="clip1">
  <path d="M 0 2.757812 L 260 2.757812 L 260 162.757812 L 0 162.757812 Z M 0 2.757812 "/>
</clipPath>
</defs>
<g id="surface1">
<g clip-path="url(#clip1)" clip-rule="nonzero">
<path style=" stroke:none;fill-rule:nonzero;fill:rgb(96.470588%,97.254902%,99.607843%);fill-opacity:1;" d="M 260 2.757812 L 0 2.757812 L 0 162.757812 L 260 162.757812 Z M 260 2.757812 "/>
</g>
<path style=" stroke:none;fill-rule:nonzero;fill:rgb(36.078431%,55.294118%,74.117647%);fill-opacity:1;" d="M 28.71875 46.957031 C 29.503906 46.695312 30.417969 47.21875 30.546875 48.132812 C 30.808594 48.917969 30.289062 49.832031 29.371094 49.964844 C 29.109375 49.964844 28.847656 49.964844 28.589844 49.964844 C 27.804688 49.832031 27.28125 48.917969 27.410156 48.132812 C 27.410156 48.003906 27.410156 48.003906 27.542969 47.871094 C 27.933594 47.480469 28.328125 47.089844 28.71875 46.957031 Z M 73.8125 47.351562 C 74.597656 47.089844 75.511719 47.613281 75.773438 48.394531 C 75.773438 48.65625 75.90625 48.789062 75.773438 49.050781 C 75.644531 49.832031 74.859375 50.488281 73.945312 50.355469 C 73.160156 50.226562 72.507812 49.441406 72.636719 48.527344 C 72.898438 48.003906 73.289062 47.480469 73.8125 47.351562 Z M 19.699219 48.917969 C 20.746094 48.65625 21.792969 49.179688 22.054688 50.226562 C 22.183594 50.488281 22.183594 50.75 22.183594 51.011719 C 22.054688 51.925781 21.136719 52.710938 20.222656 52.578125 C 20.09375 52.578125 19.960938 52.578125 19.832031 52.449219 C 19.046875 52.1875 18.523438 51.53125 18.523438 50.617188 C 18.523438 49.832031 19.046875 49.179688 19.699219 48.917969 Z M 83.09375 50.226562 C 84.007812 49.832031 85.054688 50.226562 85.445312 51.140625 C 85.445312 51.140625 85.445312 51.269531 85.578125 51.269531 C 85.839844 52.316406 85.183594 53.363281 84.269531 53.625 L 84.140625 53.625 C 83.222656 53.886719 82.308594 53.363281 82.046875 52.449219 C 81.785156 51.664062 82.179688 50.75 83.09375 50.226562 Z M 67.539062 51.792969 C 68.453125 51.402344 69.628906 51.925781 70.023438 52.839844 C 70.023438 52.96875 70.023438 52.96875 70.023438 53.101562 C 70.285156 54.148438 69.761719 55.0625 68.714844 55.324219 C 67.671875 55.585938 66.625 55.0625 66.363281 54.015625 C 66.230469 53.230469 66.753906 52.1875 67.539062 51.792969 Z M 34.601562 51.925781 C 35.644531 51.664062 36.691406 52.1875 36.953125 53.230469 C 36.953125 53.363281 36.953125 53.492188 37.085938 53.625 C 37.214844 54.667969 36.429688 55.585938 35.386719 55.714844 C 34.339844 55.847656 33.425781 55.0625 33.292969 54.015625 C 33.292969 52.96875 33.816406 52.1875 34.601562 51.925781 Z M 25.972656 54.800781 C 26.757812 54.539062 27.671875 54.800781 28.457031 55.324219 C 29.371094 56.109375 29.894531 57.285156 29.503906 58.460938 C 29.109375 59.898438 27.671875 60.683594 26.234375 60.550781 C 24.929688 60.421875 24.011719 59.375 23.753906 58.199219 C 23.492188 56.628906 24.40625 55.191406 25.972656 54.800781 Z M 75.90625 55.453125 C 76.949219 55.191406 77.996094 55.324219 78.78125 56.109375 C 79.695312 56.890625 79.957031 58.066406 79.695312 59.113281 C 79.304688 60.683594 77.605469 61.464844 76.164062 61.074219 C 74.859375 60.683594 74.074219 59.636719 73.945312 58.199219 C 73.8125 56.890625 74.597656 55.847656 75.90625 55.453125 Z M 60.351562 56.628906 C 61.265625 56.367188 62.3125 56.628906 62.964844 57.285156 C 64.011719 58.199219 64.273438 59.636719 63.75 60.8125 C 63.226562 61.859375 62.179688 62.511719 60.875 62.382812 C 59.304688 62.25 58.257812 60.945312 58.128906 59.507812 C 58.128906 58.199219 59.042969 57.023438 60.351562 56.628906 Z M 41.136719 57.152344 C 42.703125 56.761719 44.273438 57.546875 44.796875 59.113281 C 44.796875 59.113281 44.796875 59.113281 44.796875 59.246094 C 45.1875 60.8125 44.140625 62.382812 42.574219 62.773438 C 41.527344 63.164062 40.351562 62.773438 39.699219 61.988281 C 38.652344 60.683594 38.914062 58.851562 40.089844 57.808594 C 40.484375 57.546875 40.742188 57.414062 41.136719 57.152344 Z M 16.695312 58.589844 C 17.476562 58.328125 18.132812 58.722656 18.523438 59.375 C 18.914062 60.160156 18.523438 61.074219 17.871094 61.464844 C 17.085938 61.859375 16.171875 61.464844 15.777344 60.8125 C 15.648438 60.550781 15.648438 60.289062 15.648438 60.160156 C 15.648438 59.375 16.039062 58.851562 16.695312 58.589844 Z M 85.316406 59.375 C 86.097656 59.113281 87.015625 59.507812 87.277344 60.289062 C 87.277344 60.421875 87.277344 60.421875 87.277344 60.550781 C 87.40625 61.207031 87.144531 61.988281 86.492188 62.25 C 85.707031 62.644531 84.792969 62.25 84.402344 61.464844 L 84.402344 61.335938 C 84.269531 60.421875 84.660156 59.636719 85.316406 59.375 Z M 33.03125 61.859375 C 34.863281 61.335938 36.824219 62.25 37.605469 63.949219 C 38.261719 65.386719 38 66.957031 37.085938 68.132812 C 35.644531 69.703125 33.164062 69.832031 31.59375 68.394531 C 31.59375 68.394531 31.59375 68.394531 31.464844 68.261719 C 30.027344 66.824219 30.027344 64.734375 31.203125 63.164062 C 31.726562 62.644531 32.378906 62.121094 33.03125 61.859375 Z M 67.539062 62.25 C 69.628906 61.597656 71.851562 62.773438 72.375 64.863281 C 72.898438 66.957031 71.589844 69.046875 69.5 69.570312 C 68.191406 69.832031 66.886719 69.570312 65.839844 68.523438 C 64.664062 67.21875 64.402344 65.257812 65.449219 63.6875 C 65.972656 63.035156 66.625 62.511719 67.539062 62.25 Z M 50.546875 63.820312 C 51.984375 63.558594 53.421875 63.949219 54.335938 65.125 C 55.515625 66.5625 55.515625 68.785156 54.207031 70.222656 C 52.636719 71.792969 50.15625 71.792969 48.585938 70.222656 C 47.28125 68.65625 47.410156 66.304688 48.847656 64.863281 C 49.371094 64.210938 50.023438 63.949219 50.546875 63.820312 Z M 21.269531 64.34375 C 22.183594 63.949219 23.230469 64.34375 23.753906 65.257812 C 24.144531 66.171875 23.753906 67.347656 22.835938 67.742188 C 21.921875 68.132812 20.746094 67.742188 20.355469 66.824219 C 20.222656 66.5625 20.222656 66.433594 20.222656 66.171875 C 19.960938 65.519531 20.484375 64.734375 21.269531 64.34375 Z M 80.085938 64.996094 C 81.132812 64.734375 82.179688 65.386719 82.441406 66.433594 L 82.441406 66.5625 C 82.570312 67.609375 81.785156 68.523438 80.742188 68.65625 C 80.609375 68.65625 80.609375 68.65625 80.480469 68.65625 C 79.695312 68.65625 78.910156 68.003906 78.78125 67.21875 C 78.648438 66.171875 79.171875 65.257812 80.085938 64.996094 Z M 59.304688 69.046875 C 61.394531 68.65625 63.488281 69.832031 64.402344 71.660156 C 65.316406 73.359375 65.1875 75.320312 64.011719 76.890625 C 62.703125 78.589844 60.613281 79.242188 58.519531 78.71875 C 56.296875 78.066406 54.859375 76.105469 54.992188 73.753906 C 55.253906 71.402344 56.953125 69.441406 59.304688 69.046875 Z M 41.398438 69.441406 C 44.011719 69.046875 46.363281 70.617188 47.019531 73.097656 C 47.671875 75.453125 46.496094 77.804688 44.273438 78.851562 C 42.183594 79.765625 39.566406 79.113281 38.261719 77.28125 C 36.5625 75.191406 36.953125 72.054688 39.042969 70.355469 C 39.828125 69.960938 40.484375 69.570312 41.398438 69.441406 Z M 27.152344 70.484375 C 28.589844 69.960938 30.15625 70.746094 30.679688 72.054688 C 31.203125 73.359375 30.679688 74.796875 29.632812 75.582031 C 28.71875 76.238281 27.671875 76.367188 26.628906 75.84375 C 25.191406 75.191406 24.667969 73.359375 25.320312 71.921875 C 25.710938 71.269531 26.367188 70.746094 27.152344 70.484375 Z M 73.289062 70.878906 C 74.859375 70.355469 76.558594 71.140625 77.082031 72.707031 C 77.605469 74.277344 76.820312 75.976562 75.25 76.496094 L 75.121094 76.496094 C 73.550781 76.890625 71.851562 75.84375 71.460938 74.144531 L 71.460938 74.015625 C 71.199219 72.707031 71.984375 71.402344 73.289062 70.878906 Z M 50.023438 77.675781 C 52.636719 77.019531 55.382812 78.195312 56.691406 80.679688 C 57.734375 82.511719 57.605469 84.863281 56.429688 86.691406 C 54.992188 88.914062 52.378906 89.828125 49.894531 89.175781 C 47.019531 88.261719 45.1875 85.386719 45.582031 82.378906 C 46.101562 80.027344 47.800781 78.195312 50.023438 77.675781 Z M 33.816406 79.894531 C 35.125 79.636719 36.429688 79.894531 37.476562 80.941406 C 38.785156 82.378906 38.914062 84.339844 37.867188 85.910156 C 37.214844 86.824219 36.167969 87.476562 34.992188 87.476562 C 33.6875 87.609375 32.507812 87.085938 31.726562 86.039062 C 31.070312 85.253906 30.808594 84.210938 30.941406 83.164062 C 31.070312 81.464844 32.246094 80.15625 33.816406 79.894531 Z M 65.972656 79.894531 C 67.929688 79.503906 69.761719 80.417969 70.546875 82.25 C 71.070312 83.425781 70.808594 84.863281 70.023438 85.910156 C 69.238281 86.953125 68.0625 87.609375 66.753906 87.476562 C 65.578125 87.476562 64.53125 86.953125 63.878906 86.039062 C 62.964844 84.730469 62.832031 83.03125 63.617188 81.726562 C 64.140625 80.8125 65.054688 80.027344 65.972656 79.894531 Z M 40.089844 86.824219 C 42.703125 86.039062 45.449219 87.609375 46.234375 90.222656 L 46.234375 90.351562 C 46.757812 92.574219 45.710938 94.796875 43.75 95.84375 C 41.660156 96.886719 39.175781 96.367188 37.605469 94.535156 C 36.167969 92.835938 36.167969 90.351562 37.476562 88.523438 C 38.128906 87.738281 39.042969 87.085938 40.089844 86.824219 Z M 58.78125 88.261719 C 61.003906 87.738281 63.355469 88.914062 64.402344 91.007812 C 65.316406 92.96875 64.792969 95.1875 63.226562 96.625 C 62.050781 97.671875 60.480469 98.066406 59.042969 97.804688 C 56.429688 97.28125 54.597656 94.796875 54.992188 92.050781 C 55.382812 90.222656 56.820312 88.652344 58.78125 88.261719 Z M 26.890625 89.570312 C 28.457031 89.175781 30.15625 89.960938 30.546875 91.660156 C 30.546875 91.789062 30.546875 91.921875 30.679688 91.921875 C 30.941406 93.226562 30.15625 94.535156 28.980469 95.058594 C 27.410156 95.582031 25.710938 94.925781 25.191406 93.359375 C 24.535156 91.789062 25.320312 90.222656 26.890625 89.570312 Z M 73.683594 89.960938 C 75.121094 89.570312 76.6875 90.484375 77.082031 91.921875 C 77.472656 93.488281 76.6875 95.1875 75.121094 95.582031 C 75.121094 95.582031 75.121094 95.582031 74.988281 95.582031 C 73.421875 95.972656 71.851562 95.058594 71.460938 93.621094 L 71.460938 93.488281 C 71.070312 91.921875 72.113281 90.351562 73.683594 89.960938 Z M 49.371094 96.105469 C 50.808594 95.84375 52.246094 96.367188 53.160156 97.410156 C 54.335938 98.71875 54.335938 100.679688 53.292969 102.117188 C 52.378906 103.421875 50.679688 104.078125 48.980469 103.554688 C 47.148438 102.902344 46.101562 101.070312 46.363281 99.242188 C 46.625 97.671875 47.800781 96.367188 49.371094 96.105469 Z M 32.902344 96.625 C 34.207031 96.234375 35.515625 96.496094 36.5625 97.410156 C 37.476562 98.324219 38 99.632812 37.738281 100.808594 C 37.476562 102.902344 35.515625 104.339844 33.425781 104.078125 C 31.59375 103.816406 30.15625 102.378906 30.027344 100.546875 C 30.027344 98.71875 31.070312 97.148438 32.902344 96.625 Z M 67.671875 96.757812 C 69.761719 96.234375 71.851562 97.542969 72.375 99.632812 C 72.769531 101.59375 71.460938 103.554688 69.628906 104.078125 C 68.0625 104.46875 66.492188 103.945312 65.449219 102.640625 C 64.402344 101.070312 64.53125 99.109375 65.839844 97.671875 C 66.230469 97.148438 66.886719 96.886719 67.671875 96.757812 Z M 21.269531 97.671875 C 22.183594 97.410156 23.230469 97.933594 23.492188 98.847656 C 23.882812 99.894531 23.359375 100.941406 22.3125 101.332031 L 22.183594 101.332031 C 21.136719 101.59375 20.09375 100.941406 19.832031 99.894531 C 19.832031 99.765625 19.832031 99.632812 19.832031 99.632812 C 19.832031 98.585938 20.355469 97.804688 21.269531 97.671875 Z M 79.695312 98.066406 C 80.609375 97.671875 81.785156 98.066406 82.179688 99.109375 C 82.570312 100.023438 82.179688 101.203125 81.132812 101.59375 C 80.871094 101.722656 80.480469 101.722656 80.21875 101.722656 C 79.171875 101.59375 78.386719 100.679688 78.519531 99.632812 C 78.648438 98.847656 79.042969 98.324219 79.695312 98.066406 Z M 40.613281 103.164062 C 42.183594 102.640625 43.882812 103.554688 44.402344 105.121094 C 44.402344 105.253906 44.535156 105.382812 44.535156 105.515625 C 44.796875 107.082031 43.75 108.519531 42.183594 108.78125 C 42.050781 108.78125 41.921875 108.78125 41.789062 108.78125 C 40.484375 108.78125 39.175781 107.867188 38.785156 106.5625 C 38.390625 105.253906 39.175781 103.683594 40.613281 103.164062 Z M 60.21875 103.683594 C 61.003906 103.421875 61.917969 103.683594 62.574219 104.207031 C 63.878906 105.253906 64.011719 107.082031 62.964844 108.390625 L 62.832031 108.519531 C 61.789062 109.699219 59.828125 109.828125 58.652344 108.652344 C 58.257812 108.261719 57.867188 107.738281 57.734375 107.082031 C 57.605469 105.515625 58.652344 104.078125 60.21875 103.683594 Z M 16.300781 103.945312 C 17.085938 103.683594 18 104.078125 18.261719 104.863281 C 18.65625 105.644531 18.261719 106.5625 17.476562 106.820312 C 16.695312 107.082031 15.777344 106.820312 15.515625 106.039062 C 14.996094 105.253906 15.386719 104.339844 16.300781 103.945312 Z M 85.183594 104.46875 C 85.96875 104.339844 86.882812 104.863281 87.015625 105.644531 C 87.144531 106.429688 86.621094 107.34375 85.839844 107.476562 C 85.054688 107.605469 84.140625 107.082031 84.007812 106.300781 C 84.007812 105.90625 84.007812 105.644531 84.140625 105.253906 C 84.402344 104.863281 84.792969 104.46875 85.183594 104.46875 Z M 25.453125 105.253906 C 27.019531 104.863281 28.71875 105.90625 28.980469 107.605469 C 29.242188 109.175781 28.195312 110.742188 26.628906 111.003906 C 26.628906 111.003906 26.628906 111.003906 26.496094 111.003906 C 24.796875 111.265625 23.359375 110.089844 23.097656 108.390625 L 23.097656 108.261719 C 23.097656 106.820312 24.011719 105.515625 25.453125 105.253906 Z M 75.644531 105.515625 C 77.210938 105.121094 78.78125 106.039062 79.171875 107.605469 C 79.171875 107.738281 79.304688 107.867188 79.304688 108.128906 C 79.433594 109.828125 78.125 111.265625 76.425781 111.265625 C 76.296875 111.265625 76.035156 111.265625 75.90625 111.265625 C 74.46875 111.003906 73.421875 109.699219 73.421875 108.261719 C 73.550781 106.953125 74.46875 105.90625 75.644531 105.515625 Z M 34.078125 110.351562 C 35.125 110.089844 36.167969 110.613281 36.429688 111.527344 C 36.429688 111.660156 36.429688 111.660156 36.429688 111.789062 C 36.5625 112.835938 35.90625 113.878906 34.863281 114.011719 C 34.730469 114.011719 34.601562 114.011719 34.601562 114.011719 C 33.554688 114.011719 32.769531 113.226562 32.640625 112.179688 C 32.640625 111.398438 33.164062 110.613281 34.078125 110.351562 Z M 67.148438 111.003906 C 68.191406 110.613281 69.238281 111.136719 69.5 112.179688 L 69.5 112.3125 C 69.761719 113.359375 69.109375 114.402344 68.191406 114.664062 C 67.148438 114.925781 66.101562 114.273438 65.839844 113.359375 C 65.839844 113.097656 65.710938 112.835938 65.839844 112.703125 C 65.972656 111.789062 66.492188 111.265625 67.148438 111.003906 Z M 82.441406 112.964844 C 83.484375 112.574219 84.53125 113.097656 84.921875 114.140625 C 84.921875 114.273438 85.054688 114.402344 85.054688 114.664062 C 85.183594 115.578125 84.53125 116.496094 83.484375 116.625 C 82.441406 116.757812 81.523438 115.972656 81.394531 114.925781 L 81.394531 114.796875 C 81.261719 114.011719 81.785156 113.226562 82.441406 112.964844 Z M 19.308594 113.097656 C 20.222656 112.835938 21.136719 113.359375 21.53125 114.273438 C 21.792969 115.316406 21.269531 116.363281 20.222656 116.625 C 20.09375 116.625 19.960938 116.625 19.832031 116.757812 C 18.785156 116.757812 18 115.972656 18 115.058594 C 18 114.925781 18 114.796875 18 114.796875 C 18 113.878906 18.65625 113.359375 19.308594 113.097656 Z M 27.933594 115.839844 C 28.71875 115.578125 29.632812 115.972656 29.894531 116.757812 C 30.15625 117.539062 29.765625 118.457031 28.980469 118.714844 L 28.847656 118.714844 C 28.066406 118.847656 27.152344 118.457031 27.019531 117.539062 C 26.757812 116.886719 27.28125 116.101562 27.933594 115.839844 Z M 73.160156 116.234375 C 73.945312 115.972656 74.859375 116.363281 75.121094 117.148438 C 75.382812 117.933594 74.988281 118.847656 74.207031 119.109375 C 73.421875 119.371094 72.507812 118.976562 72.246094 118.195312 C 72.246094 118.0625 72.113281 117.800781 72.113281 117.671875 C 72.113281 117.015625 72.507812 116.363281 73.160156 116.234375 Z M 73.160156 116.234375 "/>
<path style=" stroke:none;fill-rule:nonzero;fill:rgb(30.588235%,30.588235%,30.588235%);fill-opacity:1;" d="M 213.015625 59.898438 C 214.976562 57.808594 217.589844 56.628906 220.335938 56.5 C 223.34375 56.109375 226.347656 56.761719 228.964844 58.328125 C 229.355469 58.589844 229.617188 59.113281 229.355469 59.507812 C 228.832031 60.683594 228.308594 61.859375 227.785156 63.035156 C 227.527344 63.558594 226.742188 63.558594 226.347656 63.296875 C 224.386719 62.121094 222.035156 61.859375 219.945312 62.644531 C 218.507812 63.164062 217.332031 64.210938 216.808594 65.519531 C 216.546875 66.695312 216.414062 67.871094 216.546875 69.046875 L 216.546875 73.621094 L 222.949219 73.621094 C 223.210938 73.621094 223.734375 73.621094 223.867188 74.015625 C 223.996094 74.40625 223.996094 74.796875 223.996094 75.191406 C 223.996094 76.367188 223.996094 77.414062 223.996094 78.589844 C 223.996094 78.980469 223.605469 79.242188 223.210938 79.242188 L 216.675781 79.242188 L 216.675781 100.15625 C 216.675781 100.546875 216.414062 101.070312 216.023438 101.203125 C 215.238281 101.332031 214.453125 101.203125 213.539062 101.203125 C 212.753906 101.332031 211.972656 101.203125 211.316406 100.808594 C 210.792969 100.289062 210.402344 99.503906 210.535156 98.847656 L 210.535156 79.113281 C 209.226562 79.113281 207.917969 79.113281 206.480469 79.113281 C 206.21875 79.113281 205.828125 78.980469 205.828125 78.589844 C 205.828125 77.675781 205.828125 76.757812 205.828125 75.84375 C 205.695312 75.320312 205.828125 74.667969 206.089844 74.144531 C 206.351562 73.753906 206.875 73.492188 207.394531 73.492188 C 208.441406 73.492188 209.488281 73.492188 210.535156 73.492188 L 210.535156 66.957031 C 210.402344 64.34375 211.316406 61.726562 213.015625 59.898438 Z M 237.722656 65.257812 C 237.851562 64.605469 238.636719 64.734375 239.160156 64.863281 C 239.679688 64.996094 239.421875 65.386719 239.550781 65.648438 L 239.550781 73.492188 C 241.511719 73.492188 243.472656 73.492188 245.433594 73.492188 C 245.957031 73.492188 246.347656 73.882812 246.347656 74.40625 C 246.347656 75.714844 246.347656 77.019531 246.347656 78.328125 C 246.347656 78.851562 245.957031 79.242188 245.5625 79.242188 C 245.5625 79.242188 245.5625 79.242188 245.433594 79.242188 C 244.386719 79.242188 243.339844 79.242188 242.296875 79.242188 C 241.378906 79.242188 240.464844 79.242188 239.550781 79.113281 C 239.550781 83.035156 239.550781 86.953125 239.550781 90.875 C 239.550781 91.921875 239.679688 93.097656 240.074219 94.011719 C 240.335938 94.667969 240.988281 95.191406 241.773438 95.320312 C 242.820312 95.449219 243.863281 95.449219 244.910156 95.191406 C 245.300781 95.058594 245.695312 95.058594 246.085938 95.191406 C 246.476562 95.449219 246.476562 95.84375 246.609375 96.105469 C 246.871094 97.148438 247 98.066406 247.261719 99.109375 C 247.394531 99.632812 246.871094 100.027344 246.476562 100.289062 C 245.300781 100.808594 243.863281 101.070312 242.558594 101.203125 C 240.859375 101.332031 239.027344 101.070312 237.460938 100.417969 C 236.023438 99.632812 234.84375 98.328125 234.324219 96.757812 C 233.667969 94.011719 233.40625 91.269531 233.539062 88.523438 L 233.539062 79.375 C 232.363281 79.375 231.316406 79.375 230.140625 79.375 C 229.746094 79.375 229.355469 78.980469 229.355469 78.589844 C 229.355469 77.804688 229.226562 77.019531 229.878906 76.496094 C 230.792969 75.84375 231.578125 75.058594 232.363281 74.144531 C 234.582031 71.53125 236.542969 68.523438 237.722656 65.257812 Z M 111.457031 73.230469 C 114.332031 72.96875 117.207031 73.359375 119.820312 74.667969 C 120.605469 75.058594 121.261719 75.453125 122.042969 75.84375 C 122.4375 76.105469 122.828125 76.367188 122.828125 76.890625 C 122.566406 77.414062 122.304688 77.9375 121.914062 78.328125 C 121.390625 79.113281 121 79.894531 120.476562 80.550781 C 120.082031 80.941406 119.5625 80.941406 119.167969 80.679688 C 117.078125 79.503906 114.59375 78.980469 112.109375 79.113281 C 111.066406 79.113281 110.019531 79.765625 109.367188 80.679688 C 108.972656 81.464844 109.105469 82.378906 109.757812 82.902344 C 110.804688 83.6875 111.847656 84.210938 113.15625 84.472656 C 115.769531 84.992188 118.382812 86.039062 120.738281 87.476562 C 122.042969 88.261719 123.089844 89.570312 123.742188 91.007812 C 124.527344 93.097656 124.265625 95.582031 122.960938 97.410156 C 121.652344 99.242188 119.691406 100.417969 117.46875 101.070312 C 113.417969 102.117188 108.972656 101.59375 105.3125 99.632812 C 104.527344 99.242188 103.746094 98.847656 103.089844 98.328125 C 102.699219 98.066406 102.699219 97.671875 102.828125 97.28125 C 103.484375 96.234375 104.136719 95.1875 104.789062 94.273438 C 105.050781 94.011719 105.3125 93.621094 105.707031 93.75 C 106.097656 93.882812 106.621094 94.273438 107.011719 94.40625 C 109.367188 95.582031 111.847656 96.105469 114.464844 95.84375 C 115.507812 95.84375 116.421875 95.320312 117.078125 94.667969 C 117.730469 93.882812 117.730469 92.707031 116.945312 91.921875 C 116.421875 91.53125 115.902344 91.136719 115.378906 90.875 C 113.285156 90.089844 111.066406 89.832031 108.972656 88.914062 C 106.882812 88.132812 105.183594 86.824219 104.007812 84.992188 C 102.828125 82.773438 102.828125 80.15625 104.007812 78.066406 C 105.574219 75.191406 108.320312 73.492188 111.457031 73.230469 Z M 128.1875 73.882812 C 128.449219 73.621094 128.839844 73.621094 129.234375 73.621094 C 130.671875 73.621094 131.976562 73.621094 133.414062 73.621094 C 133.9375 73.621094 134.332031 73.882812 134.59375 74.40625 C 136.683594 80.027344 138.644531 85.648438 140.734375 91.136719 C 143.089844 85.648438 145.441406 80.027344 147.792969 74.539062 C 147.925781 74.015625 148.578125 73.882812 149.101562 73.882812 C 149.625 73.882812 150.539062 73.753906 150.800781 74.539062 C 153.152344 80.027344 155.503906 85.648438 157.859375 91.136719 L 164 74.40625 C 164.132812 73.882812 164.65625 73.621094 165.046875 73.621094 C 166.617188 73.621094 168.183594 73.621094 169.882812 73.621094 C 170.40625 73.621094 170.535156 74.277344 170.277344 74.667969 C 166.878906 83.164062 163.480469 91.660156 160.082031 100.289062 C 159.949219 100.679688 159.820312 100.941406 159.425781 101.070312 C 158.640625 101.464844 157.726562 101.070312 157.335938 100.417969 C 154.589844 94.929688 151.976562 89.308594 149.363281 83.816406 C 146.878906 89.046875 144.265625 94.273438 141.78125 99.503906 C 141.519531 100.027344 141.390625 100.417969 140.996094 100.941406 C 140.472656 101.332031 139.953125 101.332031 139.429688 101.203125 C 139.035156 101.070312 138.644531 100.808594 138.644531 100.417969 C 135.246094 91.921875 131.847656 83.425781 128.449219 74.929688 C 128.1875 74.539062 128.058594 74.144531 128.1875 73.882812 Z M 173.414062 74.144531 C 173.542969 73.621094 174.066406 73.621094 174.457031 73.621094 C 176.027344 73.621094 177.59375 73.621094 179.164062 73.621094 C 179.6875 73.621094 180.078125 73.882812 180.210938 74.40625 C 182.953125 79.894531 185.570312 85.386719 188.3125 90.875 C 190.535156 86.039062 192.757812 81.335938 194.980469 76.496094 C 195.371094 75.714844 195.761719 74.929688 196.15625 74.144531 C 196.417969 73.753906 196.941406 73.621094 197.332031 73.621094 C 198.769531 73.621094 200.339844 73.621094 201.777344 73.621094 C 202.167969 73.621094 202.558594 73.882812 202.558594 74.277344 C 202.429688 74.667969 202.296875 75.058594 202.039062 75.453125 L 193.148438 93.75 C 189.621094 101.070312 186.089844 108.261719 181.253906 114.664062 C 180.472656 115.839844 179.554688 116.886719 178.511719 117.800781 C 178.117188 118.195312 177.464844 118.0625 177.074219 117.671875 C 176.289062 116.886719 175.503906 116.101562 174.71875 115.320312 C 174.457031 115.058594 174.066406 114.796875 174.066406 114.273438 C 174.066406 113.878906 174.195312 113.488281 174.457031 113.226562 C 178.773438 108.261719 182.300781 102.640625 185.046875 96.628906 C 181.386719 89.4375 177.59375 82.25 173.804688 75.058594 C 173.675781 74.796875 173.542969 74.40625 173.414062 74.144531 Z M 173.414062 74.144531 "/>
</g>
</svg>
