<svg width="260" height="160" viewBox="0 0 260 160" fill="none" xmlns="http://www.w3.org/2000/svg">
<rect width="260" height="160" fill="#E9EEF2"/>
<path d="M56.8624 48.0154C57.7692 48.3431 58.7308 48.3077 59.6627 48.4615C62.7692 49.0185 65.7382 49.9908 68.4201 51.7554C72.2766 54.2985 74.7973 57.88 75.9556 62.4615C77.0991 66.98 77.0503 71.5015 75.5754 75.9262C73.5163 82.0969 69.1672 85.7723 63.2973 87.6754C60.213 88.68 57.0355 89.0169 53.8195 89.0385C51.824 89.0523 49.8254 89.06 47.8299 89.0385C47.2899 89.0308 47.0725 89.1246 47.0754 89.7708C47.1036 95.8446 47.0947 101.917 47.0962 107.991C42.25 107.991 37.4038 107.982 32.5577 108.003C32.0888 108 32 107.871 32 107.405C32.0187 100.678 32.0232 93.9538 32.0133 87.2308C32.2722 87.3277 32.4911 87.1785 32.7204 87.1031C36.9611 85.6903 40.8157 83.2439 43.963 79.9677C45.9822 77.8923 48.0074 75.8462 50.2885 74.0923C50.6243 73.8323 50.8284 73.7938 51.176 74.0662C52.3491 75.0015 53.571 75.8708 54.7263 76.8262C55.2175 77.2323 55.4216 77.1723 55.7722 76.6492C59.287 71.3959 62.8185 66.1538 66.3669 60.9231C66.5148 60.7046 66.7485 60.5246 66.7441 60.1538L40.0828 65.2631C41.9467 66.7262 43.6864 68.0631 45.3935 69.4462C45.8151 69.7892 46.1464 69.8508 46.6479 69.6431C49.4822 68.4785 52.3314 67.3492 55.182 66.2215C55.4098 66.1308 55.6376 65.9015 55.9349 66.0677C55.8121 66.3308 55.5562 66.3938 55.3521 66.5185C53.6731 67.54 52.0444 68.6723 50.2959 69.5385C48.3047 70.5262 46.929 71.8985 46.5858 74.2323C46.5459 74.5062 46.392 74.76 46.3343 75.0338C46.2145 75.6077 45.8831 75.9246 45.3683 76.1708C41.1756 78.183 36.6298 79.2769 32.0133 79.3846C32.0133 69.1477 32.0089 58.9103 32 48.6723C32 48.1292 32.0947 48 32.6376 48C40.7135 48.0226 48.7885 48.0277 56.8624 48.0154Z" fill="#01E696"/>
<path d="M170.114 92.0763C170.114 94.0332 170.076 96.004 170.134 97.9702C170.156 98.7394 169.919 98.9579 169.225 98.8717C168.759 98.814 168.289 98.814 167.823 98.8717C167.134 98.9548 166.901 98.7517 166.915 97.9732C166.965 94.9517 166.935 91.9271 166.935 88.904C166.935 84.0102 166.944 79.1163 166.922 74.2225C166.922 73.6486 167.052 73.444 167.614 73.5025C168.13 73.5517 168.649 73.5517 169.165 73.5025C169.848 73.4409 170.348 73.5209 170.111 74.5517C171.367 73.9587 172.689 73.5343 174.048 73.2886C179.289 72.3933 184.472 76.2117 185.233 81.5456C186.052 87.304 182.382 92.4809 176.926 93.1902C174.836 93.4607 172.715 93.1452 170.781 92.2763C170.602 92.1979 170.421 92.1225 170.24 92.0517C170.221 92.0456 170.193 92.0609 170.114 92.0763ZM170.114 83.1856C170.114 84.6194 170.139 86.0533 170.101 87.484C170.088 87.9902 170.264 88.2779 170.651 88.5394C172.286 89.6682 174.246 90.1752 176.199 89.9748C178.749 89.7363 180.648 88.4086 181.743 85.9933C182.824 83.6086 182.526 81.3071 181.042 79.1963C178.416 75.4625 173.202 75.8794 170.379 78.1471C170.117 78.3563 170.113 78.6086 170.113 78.8871C170.116 80.3209 170.116 81.7538 170.114 83.1856Z" fill="#2A2A2A"/>
<path d="M93.0753 80.6416C93.0753 76.697 93.0872 72.7509 93.0605 68.8063C93.0605 68.2247 93.2085 68.0878 93.7543 68.0939C97.0088 68.1355 100.263 68.077 103.518 68.1678C105.777 68.2324 107.876 68.937 109.348 70.8432C111.527 73.657 111.68 76.8709 110.544 80.1293C109.454 83.257 106.958 84.6063 103.957 85.0693C101.632 85.4278 99.2824 85.2063 96.9452 85.2232C96.3387 85.2232 96.2203 85.4201 96.2277 86.0001C96.2588 88.177 96.2277 90.3555 96.2514 92.5324C96.2514 93.0416 96.1182 93.2047 95.633 93.1739C94.9928 93.1285 94.3502 93.1285 93.71 93.1739C93.1656 93.2155 93.0679 92.9893 93.0709 92.4755C93.0827 88.5324 93.0753 84.5863 93.0753 80.6416ZM96.2336 76.6539C96.2336 78.2416 96.2499 79.8309 96.2218 81.4232C96.2144 81.8847 96.3313 82.0386 96.7943 82.0386C98.2233 82.0078 99.6537 82.0186 101.084 82.0293C102.22 82.0293 103.353 82.017 104.454 81.6847C105.957 81.2232 107.089 80.3432 107.614 78.7416C107.896 77.8755 107.941 76.9893 107.91 76.0893C107.812 73.5755 106.506 71.9355 104.111 71.5539C101.617 71.1524 99.0916 71.4601 96.5813 71.3816C96.1212 71.3678 96.244 71.7216 96.2425 71.9739C96.2292 73.5263 96.2336 75.0893 96.2336 76.6539Z" fill="#2A2A2A"/>
<path d="M196.957 73.1974C202.448 73.2066 206.731 77.1743 207.053 82.8713C207.259 86.502 205.636 89.4128 202.771 91.4866C197.263 95.4574 188.558 92.7066 186.975 85.2082C185.864 79.9451 189.54 74.4205 194.826 73.3805C195.53 73.255 196.243 73.1938 196.957 73.1974V73.1974ZM197.031 76.6974C193.851 76.6405 190.94 78.939 190.157 82.1374C190.036 82.6313 189.928 83.1297 190.009 83.6559C190.503 87.0205 193.289 89.6159 196.629 89.8097C199.84 89.9959 202.882 87.7128 203.729 84.4789C203.929 83.8174 203.964 83.1139 203.831 82.4343C203.487 80.82 202.628 79.3742 201.393 78.3325C200.159 77.2908 198.621 76.7145 197.031 76.6974V76.6974Z" fill="#2A2A2A"/>
<path d="M127.119 91.9416C125.25 92.8958 123.182 93.347 121.102 93.2539C119.781 93.1935 118.485 92.8519 117.295 92.2501C116.106 91.6483 115.047 90.7991 114.186 89.755C113.324 88.711 112.678 87.4942 112.287 86.18C111.895 84.8658 111.767 83.4821 111.91 82.1144C112.054 80.7466 112.465 79.424 113.119 78.2282C113.774 77.0325 114.657 75.989 115.714 75.1623C116.772 74.3356 117.981 73.7432 119.267 73.4219C120.553 73.1005 121.889 73.0569 123.193 73.2939C124.386 73.4733 125.548 73.8281 126.645 74.3477C127.027 74.5369 127.203 74.5093 127.141 74.04C127.079 73.5708 127.323 73.4969 127.703 73.5108C128.367 73.5339 129.034 73.5477 129.697 73.5108C130.154 73.4831 130.28 73.6308 130.272 74.1062C130.246 75.9523 130.262 77.7985 130.262 79.6354C130.262 83.9123 130.25 88.1877 130.275 92.4616C130.275 93.0416 130.127 93.2308 129.576 93.1816C129.011 93.1331 128.443 93.1331 127.877 93.1816C127.318 93.2262 127.031 93.0723 127.138 92.4354C127.146 92.2705 127.14 92.1052 127.119 91.9416V91.9416ZM127.144 83.2293C127.144 81.7954 127.126 80.3616 127.154 78.9216C127.169 78.7347 127.133 78.5471 127.05 78.3809C126.966 78.2146 126.839 78.0767 126.682 77.9831C125.012 76.8 123.172 76.3431 121.164 76.4308C119.843 76.4936 118.569 76.9636 117.504 77.781C116.44 78.5984 115.633 79.7263 115.187 81.0216C114.315 83.5739 115.08 86.4262 117.042 88.2846C119.744 90.8446 124.369 90.357 126.906 88.3446C127.184 88.1246 127.141 87.8677 127.142 87.597C127.15 86.1539 127.147 84.6877 127.147 83.2308L127.144 83.2293Z" fill="#2A2A2A"/>
<path d="M140.837 93.3351C138.025 93.3126 135.25 92.6752 132.691 91.4643C132.306 91.2843 132.219 91.1289 132.421 90.732C132.718 90.1442 132.983 89.5403 133.217 88.9228C133.395 88.4612 133.581 88.3243 134.078 88.5443C136.084 89.4289 138.17 90.0028 140.365 90.0505C141.556 90.0766 142.732 89.9643 143.806 89.372C144.584 88.9459 145.044 88.2951 145.053 87.3566C145.062 86.4182 144.441 86.0197 143.759 85.6736C142.279 84.9259 140.661 84.6997 139.087 84.3089C137.769 83.9828 136.469 83.5966 135.288 82.8828C132.411 81.1459 132.034 77.5597 134.475 75.2013C135.734 73.9859 137.273 73.4013 138.952 73.2505C141.787 72.9951 144.476 73.6274 147.065 74.8105C147.374 74.952 147.472 75.0997 147.325 75.4428C147.037 76.092 146.781 76.756 146.558 77.432C146.41 77.9228 146.21 77.9105 145.818 77.7105C143.796 76.6779 141.54 76.243 139.297 76.4536C138.322 76.5382 137.404 76.8197 136.661 77.5151C135.673 78.4382 135.797 79.5259 136.972 80.1782C138.381 80.9628 139.957 81.1782 141.489 81.5289C142.622 81.7664 143.73 82.1157 144.799 82.572C147.131 83.6105 148.189 85.1612 148.149 87.4597C148.108 89.8043 146.782 91.7243 144.599 92.6182C143.268 93.1597 141.879 93.3105 140.837 93.3351Z" fill="#2A2A2A"/>
<path d="M156.816 73.203C159.13 73.203 161.37 73.8291 163.54 74.7968C163.876 74.9506 163.984 75.0783 163.812 75.4645C163.464 76.226 163.368 77.3106 162.811 77.7106C162.253 78.1106 161.432 77.2491 160.695 77.0306C158.799 76.4568 156.893 76.1937 154.938 76.5983C154.254 76.7269 153.619 77.0526 153.105 77.5383C152.173 78.4383 152.293 79.5383 153.401 80.1691C154.606 80.8537 155.947 81.0922 157.271 81.3829C158.576 81.6368 159.858 82.01 161.101 82.4983C163.442 83.4645 164.66 85.1352 164.651 87.3552C164.64 89.7737 163.257 91.7752 160.953 92.6599C158.356 93.6599 155.722 93.4291 153.09 92.8552C151.713 92.5552 150.41 92.0214 149.118 91.4445C148.741 91.2768 148.711 91.1214 148.882 90.7752C149.259 90.006 149.42 88.8845 150.015 88.5245C150.586 88.1799 151.476 88.9768 152.245 89.2152C154.464 89.8999 156.695 90.3383 159.012 89.8599C159.595 89.7503 160.15 89.5133 160.639 89.1645C161.929 88.2106 161.856 86.6045 160.491 85.8076C159.38 85.1629 158.148 84.8968 156.922 84.6245C155.501 84.3168 154.081 83.9937 152.745 83.3937C151.083 82.6153 149.688 81.5706 149.43 79.5106C149.167 77.4091 150.032 75.8183 151.639 74.646C153.166 73.5276 154.907 73.1506 156.816 73.203Z" fill="#2A2A2A"/>
<path d="M221.185 77.3089C221.185 73.9243 221.195 70.5397 221.173 67.155C221.173 66.6227 221.296 66.4381 221.822 66.4766C222.486 66.5227 223.152 66.5227 223.816 66.4766C224.297 66.4458 224.392 66.6458 224.387 67.092C224.367 68.9873 224.398 70.8843 224.367 72.7843C224.358 73.3427 224.478 73.5381 225.053 73.5243C226.803 73.4827 228.555 73.5243 230.303 73.4981C230.781 73.4904 230.963 73.6135 230.929 74.1335C230.882 74.7726 230.882 75.4144 230.929 76.0535C230.972 76.5981 230.75 76.6858 230.296 76.6796C228.571 76.6581 226.844 76.6935 225.118 76.6596C224.563 76.6489 224.353 76.772 224.361 77.4058C224.395 80.3781 224.373 83.352 224.378 86.3289C224.378 86.995 224.399 87.6627 224.596 88.3058C224.921 89.3745 225.628 89.9427 226.714 90.0104C227.898 90.1047 229.087 89.9477 230.21 89.5489C230.788 89.3335 230.938 89.5043 230.886 90.1027C230.827 90.6384 230.827 91.1794 230.886 91.715C230.994 92.5089 230.642 92.7704 229.957 92.9104C228.478 93.2104 226.985 93.4458 225.488 93.112C222.874 92.5258 221.223 90.3658 221.198 87.452C221.162 84.0673 221.198 80.6827 221.198 77.2981L221.185 77.3089Z" fill="#2A2A2A"/>
<path d="M212.491 75.2129C213.979 73.8806 215.52 73.1914 217.334 73.2206C217.766 73.2206 217.951 73.316 217.926 73.8145C217.881 74.5545 217.903 75.3006 217.926 76.0422C217.926 76.3791 217.862 76.5314 217.482 76.5668C214.565 76.8391 212.945 78.5191 212.6 81.5806C212.381 83.5468 212.522 85.5222 212.495 87.4929C212.473 89.1852 212.479 90.8775 212.495 92.5699C212.495 92.9883 212.409 93.1652 211.97 93.1422C211.258 93.1052 210.541 93.1083 209.828 93.1422C209.42 93.1622 209.344 92.9883 209.346 92.6114C209.357 86.4381 209.357 80.2637 209.346 74.0883C209.346 73.6591 209.449 73.5099 209.874 73.5314C210.538 73.576 211.204 73.576 211.868 73.5314C212.411 73.4899 212.56 73.7022 212.495 74.2191C212.476 74.55 212.475 74.8818 212.491 75.2129V75.2129Z" fill="#2A2A2A"/>
</svg>
