<svg width="30" height="30" viewBox="0 0 30 30" fill="none" xmlns="http://www.w3.org/2000/svg">
<g clip-path="url(#clip0)">
<path d="M26.2895 17.9957C25.5894 18.0085 24.9082 17.9157 24.2702 17.6354C23.1749 17.1544 22.5998 16.3357 22.548 15.2197C22.4652 13.4441 23.5752 12.2595 25.4751 12.0474C26.3946 11.9456 27.2953 11.9867 28.1624 12.3163C29.3309 12.7604 29.9816 13.669 29.9994 14.8461C30.0156 15.9309 29.6494 16.84 28.6379 17.4531C28.0421 17.8139 27.3679 17.9508 26.6694 17.9929C26.5435 18.0024 26.4159 17.9957 26.2895 17.9957ZM26.2422 16.9858C27.5183 17.0066 28.4098 16.2311 28.4297 15.0838C28.4505 13.9001 27.6021 13.0568 26.3646 13.0322C25.0723 13.0066 24.1386 13.7983 24.1142 14.9408C24.0878 16.1837 24.8996 16.964 26.2422 16.9858Z" fill="#4A4545"/>
<path d="M17.7542 12.0024C18.7347 12.0024 19.455 12.0971 20.121 12.4285C20.5033 12.6172 20.8294 12.8913 21.07 13.2263C21.1436 13.3277 21.1284 13.3684 20.9999 13.3973C20.6063 13.4831 20.2137 13.5729 19.8218 13.6667C19.7502 13.6837 19.6994 13.6956 19.6496 13.625C19.3956 13.2685 19.0049 13.1369 18.5777 13.0715C18.1283 12.9995 17.6685 13.0054 17.2214 13.089C17.0711 13.1147 16.9297 13.1734 16.8089 13.2604C16.4853 13.501 16.5356 13.9295 16.9145 14.0829C17.3448 14.2571 17.8142 14.2827 18.2683 14.367C18.7728 14.4579 19.2844 14.5142 19.7791 14.6511C20.5869 14.8722 21.0217 15.3144 21.0695 15.9583C21.1284 16.7486 20.7647 17.3414 19.9945 17.6629C19.1614 18.0128 18.277 18.0327 17.3865 17.9716C16.888 17.9442 16.4002 17.8251 15.9514 17.6212C15.442 17.383 15.0182 17.0115 14.7321 16.5521C14.6488 16.4228 14.6839 16.3835 14.8251 16.3523C15.1893 16.2723 15.545 16.1842 15.9056 16.0976C15.9707 16.0815 16.0336 16.0455 16.0819 16.1226C16.4883 16.7671 17.168 16.8954 17.8843 16.9427C18.2896 16.9759 18.6977 16.9275 19.0811 16.8007C19.4525 16.6724 19.6359 16.4385 19.6049 16.1591C19.5775 15.9138 19.3854 15.7524 18.9917 15.6856C18.2953 15.5672 17.5958 15.465 16.8978 15.3542C16.6063 15.3083 16.3232 15.2248 16.0565 15.1061C15.4875 14.8509 15.134 14.4432 15.1101 13.8423C15.0867 13.2552 15.3509 12.7893 15.8807 12.4692C16.5229 12.0753 17.2503 12.0081 17.7542 12.0024Z" fill="#4A4545"/>
<path d="M8.71217 14.9773C8.71217 14.1203 8.71674 13.2628 8.70811 12.4058C8.70811 12.2377 8.74011 12.169 8.94026 12.178C9.30247 12.1941 9.6667 12.1941 10.0289 12.178C10.2321 12.169 10.2621 12.2405 10.2616 12.4077C10.255 13.7756 10.2616 15.1444 10.2519 16.5123C10.2519 16.7306 10.3149 16.7827 10.5425 16.7793C11.4965 16.767 12.4505 16.7793 13.4046 16.7704C13.5854 16.7704 13.6372 16.8177 13.6256 16.9801C13.6106 17.1999 13.6106 17.4204 13.6256 17.6401C13.6357 17.7926 13.5748 17.8205 13.4224 17.8201C11.9197 17.8153 10.4169 17.8153 8.91385 17.8201C8.74163 17.8201 8.70506 17.7685 8.70608 17.6193C8.71573 16.7386 8.71217 15.8579 8.71217 14.9773Z" fill="#4A4545"/>
<path d="M3.91628 12.1823C5.14971 12.1823 6.38313 12.1866 7.61656 12.178C7.80503 12.178 7.87056 12.2202 7.8538 12.3992C7.83475 12.5951 7.83475 12.7922 7.8538 12.9882C7.87564 13.1979 7.78115 13.2282 7.58151 13.2249C6.28052 13.2169 4.97953 13.2207 3.67854 13.2207C2.60564 13.2207 1.53274 13.2164 0.460349 13.2254C0.278485 13.2254 0.206349 13.1757 0.181456 13.0114C0.147745 12.7946 0.09473 12.5808 0.0229601 12.3722C-0.040032 12.1956 0.0300722 12.1795 0.1906 12.1799C1.43266 12.1842 2.67473 12.1823 3.91628 12.1823Z" fill="#037C92"/>
<path d="M4.80017 13.7074C5.74606 13.7074 6.69145 13.7107 7.63735 13.7046C7.79636 13.7046 7.86494 13.7354 7.85325 13.8978C7.83649 14.1096 7.83649 14.3223 7.85325 14.5341C7.86951 14.7178 7.79686 14.7519 7.61297 14.7515C5.89999 14.7463 4.18599 14.7463 2.472 14.7463C1.9772 14.7463 1.9772 14.7463 1.869 14.3002C1.84665 14.2084 1.82785 14.116 1.80601 14.0242C1.72727 13.7074 1.72727 13.7074 2.06458 13.7074H4.80017Z" fill="#037C92"/>
<path d="M5.67178 15.252C6.32101 15.252 6.97074 15.2596 7.61996 15.2473C7.81504 15.2435 7.86634 15.2984 7.85364 15.4712C7.84145 15.6909 7.84145 15.9111 7.85364 16.1308C7.85771 16.2501 7.81961 16.2951 7.68346 16.2946C6.42667 16.2902 5.16988 16.2902 3.91308 16.2946C3.78405 16.2946 3.73935 16.2473 3.71496 16.1388C3.66382 15.9011 3.60388 15.6644 3.53513 15.4286C3.49195 15.2804 3.5397 15.2454 3.69921 15.2473C4.35555 15.2567 5.01392 15.252 5.67178 15.252Z" fill="#037C92"/>
<path d="M6.66885 17.8168C6.34018 17.8168 6.0115 17.8111 5.68333 17.8196C5.55836 17.8229 5.5035 17.7827 5.48013 17.6724C5.42476 17.4195 5.36888 17.1662 5.29674 16.9176C5.25864 16.7865 5.313 16.7756 5.4278 16.7756C6.17762 16.7784 6.92743 16.7798 7.67673 16.7756C7.80576 16.7756 7.85707 16.8064 7.8525 16.9332C7.84336 17.1761 7.84285 17.4195 7.8525 17.6624C7.85758 17.7884 7.81084 17.8234 7.68029 17.8206C7.34297 17.812 7.00566 17.8168 6.66885 17.8168Z" fill="#037C92"/>
</g>
<defs>
<clipPath id="clip0">
<rect width="30" height="6" fill="white" transform="translate(0 12)"/>
</clipPath>
</defs>
</svg>
