<svg width="260" height="160" viewBox="0 0 260 160" fill="none" xmlns="http://www.w3.org/2000/svg">
<path d="M260 0H0V160H260V0Z" fill="#FFCC01"/>
<path d="M74.8949 115.997C76.473 115.997 77.8363 115.708 78.9847 115.13C79.6644 114.794 80.4925 114.192 81.4691 113.325L81.5628 115.54H83.0628L85.0199 106.329H77.4613L77.0394 108.263H82.43C81.9847 110.278 81.1566 111.737 79.9457 112.64C78.7347 113.542 77.3519 113.993 75.7972 113.993C73.766 113.993 72.4359 113.351 71.807 112.065C71.1781 110.78 71.0824 109.114 71.5199 107.067C72.0277 104.7 72.9535 102.919 74.2972 101.724C75.641 100.528 77.1097 99.9307 78.7035 99.9307C80.0472 99.9307 81.098 100.218 81.8558 100.792C82.6136 101.366 83.0003 102.282 83.016 103.54H85.3246C85.4183 101.29 84.7074 99.7158 83.1918 98.8174C82.1449 98.1924 80.8128 97.8799 79.1957 97.8799C76.8363 97.8799 74.7425 98.6924 72.9144 100.317C70.9847 102.021 69.7152 104.313 69.1058 107.196C68.4886 110.087 68.805 112.36 70.055 114.017C71.2425 115.337 72.8558 115.997 74.8949 115.997ZM99.6214 115.54L100.055 113.489H89.6019L90.8441 107.653H100.348L100.77 105.661H91.266L92.3675 100.435H102.645L103.102 98.3252H90.5511L86.8949 115.54H99.6214ZM105.293 115.54L106.852 108.157H112.161C113.114 108.157 113.793 108.263 114.2 108.474C114.895 108.856 115.153 109.61 114.973 110.735L114.504 113.606C114.387 114.278 114.328 114.731 114.328 114.966C114.328 115.2 114.352 115.392 114.399 115.54H117.258L117.34 115.153C117.012 114.997 116.836 114.646 116.813 114.099C116.789 113.778 116.836 113.29 116.953 112.634L117.364 110.325C117.536 109.325 117.5 108.603 117.258 108.157C117.016 107.712 116.586 107.353 115.969 107.079C116.821 106.681 117.53 106.153 118.096 105.497C118.662 104.841 119.055 103.997 119.274 102.966C119.688 100.989 119.164 99.6338 117.703 98.8994C116.938 98.5166 115.899 98.3252 114.586 98.3252H106.618L102.961 115.54H105.293ZM112.664 106.212H107.274L108.516 100.329H114.211C115.008 100.329 115.621 100.446 116.051 100.681C116.848 101.126 117.118 101.962 116.86 103.188C116.618 104.329 116.131 105.118 115.401 105.556C114.67 105.993 113.758 106.212 112.664 106.212ZM122.18 115.54L124.336 105.38C124.422 104.974 124.547 104.339 124.711 103.476C124.875 102.612 125 101.97 125.086 101.548L125.203 101.021L127.067 115.54H129.375L137.368 101.021C137.172 101.95 136.979 102.821 136.787 103.634C136.596 104.446 136.465 105.028 136.395 105.38L134.239 115.54H136.453L140.11 98.3252H136.805L128.801 112.88L126.95 98.3252H123.61L119.953 115.54H122.18ZM140.918 115.54L143.871 110.384H150.68L151.336 115.54H153.891L151.301 98.3252H148.664L138.528 115.54H140.918ZM150.328 108.485H144.938L149.332 100.88L150.328 108.485ZM158.239 115.54L161.192 101.606L167.063 115.54H169.676L173.332 98.3252H171.118L168.153 112.271L162.422 98.3252H159.668L156.012 115.54H158.239ZM180.844 115.54L182.309 108.603L191.004 98.3252H188.274L181.571 106.599L178.383 98.3252H175.664L179.977 108.603L178.512 115.54H180.844Z" fill="#D72036"/>
<path d="M50.9104 44L43.1147 54.7642C43.1147 54.7642 83.5281 54.7642 85.6013 54.7642C87.7489 54.7642 87.7205 55.5936 86.6708 57.0389C85.6047 58.506 83.8208 61.0575 82.7349 62.5479C82.184 63.3042 81.1877 64.6821 84.4892 64.6821C87.9796 64.6821 101.863 64.6821 101.863 64.6821C101.863 64.6821 104.664 60.8086 107.011 57.5708C110.205 53.1663 107.288 44.0004 95.8712 44.0004C85.6525 44 50.9104 44 50.9104 44Z" fill="#D2002E"/>
<path d="M39.9595 79.0751L55.6174 57.4521C55.6174 57.4521 72.9754 57.4521 75.0477 57.4521C77.1953 57.4521 77.1673 58.2815 76.1176 59.7268C75.0516 61.1939 73.2383 63.7183 72.1525 65.2086C71.6011 65.9649 70.6052 67.345 73.9063 67.345C77.3972 67.345 99.937 67.345 99.937 67.345C97.7722 70.3593 90.75 79.0751 78.1409 79.0751C67.9222 79.0751 39.9595 79.0751 39.9595 79.0751Z" fill="#D2002E"/>
<path d="M129.635 67.3389L121.144 79.0716H98.7456C98.7456 79.0716 107.232 67.3415 107.239 67.3415L129.635 67.3389Z" fill="#D2002E"/>
<path d="M163.944 64.6821H109.159L124.141 44H146.532L137.945 55.8591H147.94L156.531 44H178.92L163.944 64.6821Z" fill="#D2002E"/>
<path d="M162.022 67.3408L153.527 79.0709H131.137C131.137 79.0709 139.623 67.3408 139.63 67.3408H162.022Z" fill="#D2002E"/>
<path d="M8 71.9648H40.9969L39.1945 74.4569H8V71.9648Z" fill="#D2002E"/>
<path d="M8 67.3408H44.3492L42.5433 69.8293H8V67.3408Z" fill="#D2002E"/>
<path d="M8 76.5898H37.6464L35.8525 79.0666H8V76.5898Z" fill="#D2002E"/>
<path d="M251.996 74.4564H219.127L220.93 71.9648H251.996V74.4564Z" fill="#D2002E"/>
<path d="M251.997 79.0665L215.786 79.07L217.579 76.5898H251.997V79.0665Z" fill="#D2002E"/>
<path d="M224.282 67.3408H252V69.8307L222.48 69.8328L224.282 67.3408Z" fill="#D2002E"/>
<path d="M209.932 44L194.953 64.6816H171.227C171.227 64.6816 186.209 44 186.217 44H209.932Z" fill="#D2002E"/>
<path d="M169.305 67.3408C169.305 67.3408 167.669 69.6141 166.874 70.7068C164.061 74.5702 166.547 79.0709 175.726 79.0709C186.326 79.0709 211.686 79.0709 211.686 79.0709L220.18 67.3408H169.305V67.3408Z" fill="#D2002E"/>
</svg>
