<svg width="30" height="30" viewBox="0 0 30 30" fill="none" xmlns="http://www.w3.org/2000/svg">
<rect width="30" height="30" rx="2" fill="#CF2028"/>
<path fill-rule="evenodd" clip-rule="evenodd" d="M2.68384 12.9199H3.67407L3.05884 15.2695L5.03345 15.2871L4.54126 16.0195H1.91626C2.16235 14.9824 2.40259 13.9336 2.68384 12.9199Z" fill="white"/>
<path fill-rule="evenodd" clip-rule="evenodd" d="M5.54309 12.9199H6.5802C6.70325 13.6055 6.82629 14.2969 6.97278 14.9648C6.65637 15.0059 6.26379 14.9707 5.91809 14.9824C5.87707 14.7656 5.81262 14.5664 5.78332 14.3379C5.6427 14.4785 5.4552 14.7656 5.27356 14.9824H4.04895C4.52942 14.2793 5.03918 13.6055 5.54309 12.9199ZM10.2657 12.9199C10.2657 12.9199 10.1251 13.5 10.0431 13.7695C9.50402 13.7813 8.91809 13.7461 8.40832 13.7871C8.32629 13.8457 8.27356 13.9219 8.29114 14.0449C8.34387 14.4609 9.10559 14.127 9.56848 14.3027C9.83215 14.4023 9.72668 14.625 9.7384 14.9824C8.7716 14.9824 7.61145 15.1641 7.23645 14.4727C6.85559 13.7754 7.42395 12.9902 8.08606 12.9199H10.2657Z" fill="white"/>
<path fill-rule="evenodd" clip-rule="evenodd" d="M20.5898 12.9199H21.5625C21.4805 13.3477 21.3691 13.752 21.2754 14.1621H21.9727C22.1191 13.7812 22.1953 13.3301 22.3125 12.9199H23.3203C23.1621 13.6172 22.9687 14.2852 22.8105 14.9824H20.0684C20.2441 14.3027 20.3789 13.5762 20.5898 12.9199ZM24.832 12.9199C24.6562 13.6055 24.4863 14.3027 24.3047 14.9824H23.3145C23.4902 14.2969 23.6484 13.5879 23.8418 12.9199H24.832ZM25.3066 12.9199H27.5391C28.3594 12.9199 28.1309 14.3672 27.6738 14.7773C27.3633 15.0586 26.8535 14.9707 26.2617 14.9824C26.1621 14.7305 26.0566 14.4785 25.9746 14.2148H27.0644C27.1816 14.1563 27.2637 13.9453 27.1816 13.8574C27.0117 13.6758 26.3613 13.7812 26.0391 13.7695C25.916 14.1562 25.834 14.584 25.7168 14.9766H24.7793C24.9434 14.2852 25.3066 12.9199 25.3066 12.9199Z" fill="black"/>
<path fill-rule="evenodd" clip-rule="evenodd" d="M13.0547 12.9199C12.9961 13.1953 12.9258 13.4766 12.8848 13.7695H11.5723C11.4961 13.875 11.4961 14.0566 11.4551 14.1973C11.8652 14.2383 12.3457 14.2031 12.7852 14.2148C12.7324 14.4727 12.6797 14.7305 12.6152 14.9824H10.1953C10.3535 14.3086 10.4824 13.582 10.6582 12.9199H13.0547ZM13.7871 12.9199H16.1016C16.1367 12.9199 16.3652 12.9902 16.4004 13.0195C16.875 13.4004 16.541 14.4199 16.1484 14.7773C15.8145 15.082 15.293 14.9531 14.7363 14.9824C14.6426 14.7246 14.5371 14.4785 14.4492 14.2148H15.5566C15.6563 14.1563 15.7734 14.0215 15.6563 13.8223C15.3047 13.7578 14.9414 13.7695 14.5137 13.7695C14.3848 14.1504 14.3027 14.584 14.1914 14.9766H13.2539C13.4297 14.2969 13.5938 13.582 13.7871 12.9199Z" fill="white"/>
<path fill-rule="evenodd" clip-rule="evenodd" d="M20.9824 15.2756L20.7949 16.0197H19.8047L19.9922 15.2756H20.9824ZM22.6992 15.2756C22.6465 15.5275 22.5762 15.7678 22.5293 16.0256H21.5215L21.7266 15.2756H22.6992ZM24.2344 15.2756C24.1875 15.5392 24.1113 15.7736 24.0469 16.0256H23.0566C23.127 15.7795 23.1855 15.5334 23.2441 15.2756H24.2344Z" fill="black"/>
<path fill-rule="evenodd" clip-rule="evenodd" d="M9.66809 15.2872C9.53333 15.586 9.37512 16.0489 9.02356 16.0489H6.16418C6.11145 15.8204 6.02356 15.4981 6.01184 15.2872H9.66809Z" fill="white"/>
<path fill-rule="evenodd" clip-rule="evenodd" d="M20.3909 12.9199C20.3909 12.9199 20.2502 13.5 20.1682 13.7695C19.6292 13.7813 19.0432 13.7461 18.5334 13.7871C18.4514 13.8457 18.3987 13.9219 18.4163 14.0449C18.469 14.4609 19.2893 14.1621 19.6936 14.3027C19.9573 14.3965 19.928 14.6016 19.8635 14.9824C18.8967 14.9824 17.7366 15.1641 17.3616 14.4727C16.9807 13.7754 17.5491 12.9902 18.2112 12.9199H20.3909ZM19.7932 15.2871C19.6584 15.5859 19.5002 16.0488 19.1428 16.0488H16.4182L16.1252 15.2871H19.7932Z" fill="black"/>
<path fill-rule="evenodd" clip-rule="evenodd" d="M10.1426 15.2872H14.1152C14.0742 15.545 13.9805 15.7559 13.9453 16.0196H9.96094C10.0078 15.7676 10.0605 15.5157 10.1426 15.2872ZM14.8652 15.2872H15.8203C16.043 15.8848 16.5 17.0743 16.5 17.0743H15.5449C15.5449 17.0801 15.0879 15.8907 14.8652 15.2872Z" fill="white"/>
<path fill-rule="evenodd" clip-rule="evenodd" d="M25.6291 15.2872L25.4592 16.0196H24.5042L24.7092 15.2872H25.6291Z" fill="black"/>
</svg>
