<svg width="24" height="24" viewBox="0 0 24 24" fill="none" xmlns="http://www.w3.org/2000/svg">
<g clip-path="url(#clip0)">
<path d="M12.5375 13.3861H15.0604C15.7779 13.3861 16.2319 12.9913 16.2319 12.357C16.2319 11.7588 15.7779 11.3279 15.0604 11.3279H12.5375C12.454 11.3279 12.3825 11.3994 12.3825 11.4718V13.2422C12.3937 13.3258 12.4532 13.3861 12.5375 13.3861ZM12.5375 17.4655H15.144C15.9451 17.4655 16.4231 17.0587 16.4231 16.3407C16.4231 15.7184 15.9692 15.216 15.144 15.216H12.5375C12.454 15.216 12.3825 15.2875 12.3825 15.3599V17.3103C12.3937 17.406 12.4532 17.4655 12.5375 17.4655Z" fill="#34313F"/>
<path d="M21.7677 2.04422L14.3067 9.48593H15.5264C17.4274 9.48593 18.5514 10.6823 18.5514 11.9863C18.5514 13.0154 17.858 13.7688 17.1164 14.104C16.9967 14.1523 16.9967 14.3195 17.1285 14.3669C17.989 14.7022 18.5988 15.5995 18.5988 16.6519C18.5988 18.1352 17.6065 19.3195 15.6814 19.3195H10.397C10.3134 19.3195 10.2419 19.248 10.2419 19.1756V13.5404L2.05134 21.7009C1.94367 21.8087 2.01518 22 2.17105 22H21.8633C21.9348 22 21.9951 21.9405 21.9951 21.8682V2.15196C22.0305 2.0201 21.8633 1.94855 21.7677 2.04422Z" fill="#34313F"/>
</g>
<defs>
<clipPath id="clip0">
<rect x="2" y="2" width="20" height="20" fill="white"/>
</clipPath>
</defs>
</svg>
