<svg width="260" height="160" viewBox="0 0 260 160" fill="none" xmlns="http://www.w3.org/2000/svg">
<rect width="260" height="160" fill="#F2F2F2"/>
<path d="M50.3635 53.9291C50.0669 53.9291 49.7999 53.9884 49.5627 54.107L29.1271 65.2591L52.0244 78.5764C52.232 78.695 52.41 78.9619 52.41 79.2289V98.656C52.41 98.923 52.2617 99.1602 52.0244 99.3085L50.7787 99.9907C50.6601 100.05 50.5414 100.08 50.4228 100.08H50.3931C50.2448 100.08 50.1262 100.05 50.0076 99.9907L48.7618 99.3085C48.5246 99.1602 48.4059 98.923 48.3763 98.656V81.3051C48.3466 81.1568 48.2873 81.0381 48.1687 80.9788L28 69.2335V92.2199C28 92.7241 28.3559 93.3766 28.8008 93.6139L49.5627 105.863C49.7999 105.982 50.0965 106.071 50.3635 106.071C50.6304 106.071 50.927 106.012 51.1643 105.863L71.9261 93.6139C72.4007 93.2876 72.6973 92.7834 72.727 92.2199V69.2335L59.0538 77.1823C58.8165 77.301 58.5496 77.301 58.3123 77.1823L57.1259 76.4705C57.0073 76.4112 56.9183 76.2926 56.859 76.2036V76.1739C56.77 76.0553 56.7403 75.9366 56.7403 75.7883L56.7107 74.3647C56.7107 74.0977 56.859 73.8605 57.0666 73.7122L71.6295 65.2295L51.194 54.107C50.927 53.9884 50.6601 53.9291 50.3635 53.9291Z" fill="url(#paint0_linear_76786_30193)"/>
<path d="M124.988 65.4073V85.576C124.988 91.0631 128.072 92.8723 132.848 92.902V88.3937H132.818C130.979 88.2454 130.03 87.1776 130.03 85.2497V65.4073H124.988ZM137.712 66.3861C136.318 66.3861 135.191 67.5132 135.191 68.9072C135.191 70.3012 136.318 71.4283 137.712 71.4283C139.106 71.4283 140.233 70.3012 140.233 68.9072C140.233 67.5132 139.106 66.3861 137.712 66.3861ZM176.833 66.3861C175.439 66.3861 174.312 67.5132 174.312 68.9072C174.312 70.3012 175.439 71.4283 176.833 71.4283C178.227 71.4283 179.354 70.3012 179.354 68.9072C179.354 67.5132 178.227 66.3861 176.833 66.3861ZM150.228 73.2969C146.194 73.2969 143.08 75.1951 143.08 79.3178C143.08 82.7287 144.86 84.3896 149.101 85.1608C151.177 85.576 151.948 86.0506 151.948 87.1776C151.948 88.364 150.91 88.8089 149.338 88.8089C147.499 88.8089 145.127 88.0081 143.377 86.7031V91.3597C144.889 92.3384 147.203 92.8723 149.457 92.8723C153.817 92.8723 156.902 91.0334 156.902 86.9404C156.902 83.5888 155.27 81.7202 150.436 80.8304C148.656 80.4152 148.004 79.911 148.004 78.9322C148.004 78.0424 148.716 77.3306 150.406 77.3306C152.334 77.3306 153.965 77.9534 155.745 79.1398V74.6909C154.084 73.7714 152.453 73.2969 150.228 73.2969ZM165.444 73.2969C161.41 73.2969 158.296 75.1951 158.296 79.3178C158.296 82.7287 160.075 84.3896 164.317 85.1608C166.393 85.576 167.164 86.0506 167.164 87.1776C167.164 88.364 166.126 88.8089 164.554 88.8089C162.715 88.8089 160.342 88.0081 158.592 86.7031V91.3597C160.105 92.3384 162.418 92.8723 164.672 92.8723C169.032 92.8723 172.117 91.0334 172.117 86.9404C172.117 83.5888 170.486 81.7202 165.651 80.8304C163.872 80.4152 163.219 79.911 163.219 78.9322C163.219 78.0424 163.931 77.3306 165.622 77.3306C167.549 77.3306 169.181 77.9534 170.96 79.1398V74.6909C169.299 73.7714 167.668 73.2969 165.444 73.2969ZM96.6033 73.5045C90.8789 73.5045 86.7266 77.4196 86.7266 83.3515C86.7266 89.2835 90.5823 93.1096 96.6626 93.1096C98.5905 93.1096 100.459 92.724 102.12 91.7156V86.97C100.696 88.0674 99.1244 88.6606 97.3744 88.6606C93.9635 88.6606 91.828 86.4658 91.828 83.2625C91.828 80.0593 94.0525 77.9534 97.1668 77.9534C98.8871 77.9534 100.4 78.428 101.972 79.6737V74.8985C100.34 73.9494 98.7684 73.5045 96.6033 73.5045V73.5045ZM113.242 73.5045C107.637 73.5045 103.455 77.4492 103.455 83.2922C103.455 89.1352 107.666 93.0799 113.242 93.0799C118.818 93.0799 123.089 89.1352 123.089 83.2922C123.089 77.4492 118.818 73.5045 113.242 73.5045V73.5045ZM222.153 73.5045C216.547 73.5045 212.365 77.4492 212.365 83.2922C212.365 89.1352 216.577 93.0799 222.153 93.0799C227.729 93.0799 232 89.1352 232 83.2922C232 77.4492 227.729 73.5045 222.153 73.5045ZM191.515 73.5341C188.727 73.5341 185.672 74.157 183.062 75.1654V92.6943H188.104V78.4577C189.112 78.1611 190.032 77.9831 191.248 77.9831C193.176 77.9831 194.095 78.9915 194.095 80.9787V92.6943H199.167V80.6228C199.167 79.733 198.959 79.1102 198.781 78.6949C199.612 78.2797 200.976 77.9831 202.281 77.9831C204.268 77.9831 205.128 78.9915 205.128 80.9787V92.6943H210.2V80.7711C210.2 75.2544 207.383 73.5341 202.934 73.5341C200.205 73.5341 198.277 74.246 196.586 75.0171C195.519 74.068 193.68 73.5341 191.515 73.5341V73.5341ZM135.191 73.89V92.6943H140.262V73.89H135.191V73.89ZM174.312 73.89V92.6943H179.384V73.89H174.312V73.89ZM113.242 77.8941C115.971 77.8941 117.958 79.9703 117.958 83.3219C117.958 86.6734 115.971 88.7496 113.242 88.7496C110.514 88.7496 108.527 86.6734 108.527 83.3219C108.527 79.9703 110.514 77.8941 113.242 77.8941ZM222.153 77.8941C224.882 77.8941 226.869 79.9703 226.869 83.3219C226.869 86.6734 224.882 88.7496 222.153 88.7496C219.424 88.7496 217.437 86.6734 217.437 83.3219C217.437 79.9703 219.424 77.8941 222.153 77.8941Z" fill="#393536"/>
<defs>
<linearGradient id="paint0_linear_76786_30193" x1="28.9741" y1="80.035" x2="73.6783" y2="80.035" gradientUnits="userSpaceOnUse">
<stop stop-color="#F25C19"/>
<stop offset="0.38" stop-color="#F25C19"/>
<stop offset="1" stop-color="#FAB217"/>
</linearGradient>
</defs>
</svg>
