<svg width="140" height="72" viewBox="0 0 140 72" fill="none" xmlns="http://www.w3.org/2000/svg">
<g clip-path="url(#clip0)">
<path fill-rule="evenodd" clip-rule="evenodd" d="M40.9596 38.7414C40.4113 37.9981 39.4792 37.3902 38.3502 37.3902C36.2593 37.3902 34.7514 38.9852 34.7514 41.1457C34.7514 43.3069 36.2593 44.9017 38.3502 44.9017C39.3271 44.9017 40.2402 44.4853 40.7177 44.0705C40.7498 44.0426 40.7662 44.0024 40.7662 43.96V42.7881C40.7662 42.7147 40.7067 42.6547 40.6329 42.6547H37.9437C37.8368 42.6547 37.7501 42.5679 37.7501 42.4612V40.7222C37.7501 40.6151 37.8368 40.5283 37.9437 40.5283H42.7655V37.9472L41.2087 38.7995C41.1257 38.845 41.0157 38.8174 40.9596 38.7414ZM18.3248 39.9626H21.197C22.0195 39.9626 22.5337 39.4992 22.5337 38.7621C22.5337 38.0586 22.0195 37.5616 21.197 37.5616H18.3248C18.2262 37.5616 18.1468 37.6415 18.1468 37.7398V39.7845C18.1468 39.8827 18.2262 39.9626 18.3248 39.9626ZM30.002 46.6972C30.002 46.7855 29.9306 46.8566 29.8427 46.8566H27.7281C27.6399 46.8566 27.5684 46.7855 27.5684 46.6972V35.5777C27.5684 35.4897 27.6399 35.4182 27.7281 35.4182H29.8427C29.9306 35.4182 30.002 35.4897 30.002 35.5777V46.6972ZM42.1577 20.0744L21.1868 35.4182H21.7282C23.9047 35.4182 25.0183 36.8069 25.0183 38.3331C25.0183 39.5206 24.3983 40.3976 23.5662 40.7853C23.4279 40.8499 23.4329 41.0457 23.5742 41.1034C24.5442 41.5006 25.2414 42.5393 25.2414 43.7524C25.2414 45.4847 24.1102 46.8566 21.9169 46.8566H15.8914C15.7928 46.8566 15.713 46.777 15.713 46.6784V39.4231L0.157147 50.8051C-0.140843 51.0234 0.0131183 51.496 0.382932 51.496H42.3835C42.5944 51.496 42.7655 51.3246 42.7655 51.1136V45.357C41.6416 46.4057 40.1638 47.0626 38.3499 47.0626C34.9914 47.0626 32.2495 44.7477 32.2495 41.1458C32.2495 37.5272 34.9914 35.2294 38.3499 35.2294C40.4618 35.2294 41.8765 36.1868 42.7655 37.3563V20.3829C42.7655 20.0701 42.4102 19.8897 42.1577 20.0744ZM18.3248 44.7127H21.2997C22.2078 44.7127 22.7561 44.2326 22.7561 43.4095C22.7561 42.6896 22.2426 42.1061 21.2997 42.1061H18.3248C18.2262 42.1061 18.1468 42.1861 18.1468 42.2843V44.5347C18.1468 44.6329 18.2262 44.7127 18.3248 44.7127ZM54.9546 44.3658L53.6438 43.6856C53.5593 43.6417 53.4528 43.6738 53.4016 43.7541C52.8472 44.6239 51.8245 45.2697 50.7132 45.2697C48.5313 45.2697 46.9115 43.5205 46.9115 41.1364C46.9115 38.7186 48.5313 37.0035 50.7132 37.0035C51.8237 37.0035 52.8461 37.6331 53.4008 38.5148C53.4524 38.597 53.5601 38.6287 53.6457 38.5825L54.9465 37.8733C55.0455 37.8194 55.0802 37.6958 55.0195 37.6003C54.1966 36.3042 52.8339 35.22 50.7132 35.22C47.4567 35.22 44.9276 37.6041 44.9276 41.1364C44.9276 44.6522 47.4567 47.0531 50.7132 47.0531C52.8316 47.0531 54.1786 45.9402 55.0294 44.6434C55.094 44.5451 55.0585 44.4197 54.9546 44.3658ZM61.7869 45.2697C59.5532 45.2697 58.1301 43.4862 58.1301 41.1365C58.1301 38.7703 59.5532 37.0036 61.7869 37.0036C64.0039 37.0036 65.4434 38.7703 65.4434 41.1365C65.4434 43.4862 64.0039 45.2697 61.7869 45.2697ZM60.2244 35.4201C57.7667 36.0773 56.1446 38.2909 56.1446 41.1365C56.1446 44.5495 58.4777 47.0533 61.7869 47.0533C64.6049 47.0533 66.732 45.2192 67.2868 42.5506C68.1903 38.2048 64.3779 34.3098 60.2244 35.4201ZM81.1557 35.4089H78.6472C78.5356 35.4089 78.4355 35.4769 78.3947 35.5809L75.3609 43.4296L72.3099 35.5801C72.2691 35.4769 72.169 35.4089 72.0574 35.4089H69.5486C69.4744 35.4089 69.4141 35.4693 69.4141 35.5435V46.7129C69.4141 46.7871 69.4744 46.8475 69.5486 46.8475H71.2849C71.359 46.8475 71.4194 46.7871 71.4194 46.7129V38.0155L74.9086 46.7867C74.9231 46.8234 74.9586 46.8475 74.998 46.8475H75.7238C75.7632 46.8475 75.7987 46.8234 75.8132 46.7867L79.2852 38.0155V46.7129C79.2852 46.7871 79.3452 46.8475 79.4197 46.8475H81.1557C81.2301 46.8475 81.2901 46.7871 81.2901 46.7129V35.5435C81.2901 35.4693 81.2301 35.4089 81.1557 35.4089ZM106.797 35.4089H99.3788C99.2645 35.4089 99.1721 35.5014 99.1721 35.6157V46.6407C99.1721 46.7551 99.2645 46.8475 99.3788 46.8475H106.797C106.911 46.8475 107.004 46.7551 107.004 46.6407V45.2881C107.004 45.1738 106.911 45.0812 106.797 45.0812H101.384C101.27 45.0812 101.177 44.9887 101.177 44.8744V42.098C101.177 41.9837 101.27 41.8911 101.384 41.8911H106.678C106.791 41.8911 106.884 41.7982 106.884 41.6843V40.3316C106.884 40.2173 106.791 40.1248 106.678 40.1248H101.384C101.27 40.1248 101.177 40.0323 101.177 39.918V37.3821C101.177 37.2678 101.27 37.1752 101.384 37.1752H106.797C106.911 37.1752 107.004 37.0823 107.004 36.9684V35.6157C107.004 35.5014 106.911 35.4089 106.797 35.4089ZM114.618 40.8108H112.063C111.95 40.8108 111.859 40.7191 111.859 40.6059V37.3799C111.859 37.2667 111.95 37.175 112.063 37.175H114.618C115.748 37.175 116.571 37.8785 116.571 38.9761C116.571 40.0906 115.748 40.8108 114.618 40.8108ZM116.191 42.2949C117.47 41.9723 118.627 40.8758 118.627 38.9929C118.627 36.8665 117.137 35.4091 114.875 35.4091H110.058C109.945 35.4091 109.853 35.5009 109.853 35.614V46.6424C109.853 46.7556 109.945 46.8477 110.058 46.8477H111.654C111.767 46.8477 111.859 46.7556 111.859 46.6424V42.782C111.859 42.6689 111.95 42.5772 112.063 42.5772H113.747C113.819 42.5772 113.886 42.6154 113.923 42.6777L116.323 46.7467C116.36 46.809 116.427 46.8477 116.5 46.8477H118.343C118.504 46.8477 118.603 46.6714 118.518 46.5349C117.989 45.6888 116.536 43.3659 116.058 42.6016C115.982 42.4808 116.053 42.3297 116.191 42.2949ZM134.375 37.175H139.799C139.91 37.175 140 37.0848 140 36.9732V35.6107C140 35.4994 139.91 35.4088 139.799 35.4088H132.37C132.259 35.4088 132.168 35.4994 132.168 35.6107V46.6455C132.168 46.7572 132.259 46.8474 132.37 46.8474H139.799C139.91 46.8474 140 46.7572 140 46.6455V45.2829C140 45.1716 139.91 45.0814 139.799 45.0814H134.375C134.264 45.0814 134.174 44.9908 134.174 44.8795V42.0929C134.174 41.9813 134.264 41.8911 134.375 41.8911H139.679C139.79 41.8911 139.88 41.8008 139.88 41.6892V40.3266C139.88 40.2153 139.79 40.1247 139.679 40.1247H134.375C134.264 40.1247 134.174 40.0345 134.174 39.9228V37.3769C134.174 37.2653 134.264 37.175 134.375 37.175ZM130.122 44.3183L128.812 43.6382C128.727 43.5942 128.621 43.6263 128.569 43.7066C128.015 44.5764 126.992 45.2221 125.881 45.2221C123.699 45.2221 122.079 43.473 122.079 41.0889C122.079 38.6711 123.699 36.956 125.881 36.956C126.992 36.956 128.014 37.5857 128.569 38.4673C128.62 38.5495 128.728 38.5812 128.813 38.535L130.114 37.8257C130.213 37.7718 130.248 37.648 130.187 37.5528C129.364 36.2567 128.002 35.1724 125.881 35.1724C122.624 35.1724 120.095 37.5566 120.095 41.0889C120.095 44.6047 122.624 47.0057 125.881 47.0057C127.999 47.0057 129.346 45.8927 130.197 44.5959C130.262 44.4976 130.226 44.3722 130.122 44.3183ZM95.9599 35.4089H93.4515C93.3399 35.4089 93.2398 35.4769 93.1989 35.5809L90.1652 43.4296L87.1142 35.5801C87.0733 35.4769 86.9732 35.4089 86.8617 35.4089H84.3528C84.2787 35.4089 84.2183 35.4693 84.2183 35.5435V46.7129C84.2183 46.7871 84.2787 46.8475 84.3528 46.8475H86.0892C86.1633 46.8475 86.2237 46.7871 86.2237 46.7129V38.0155L89.7128 46.7867C89.7273 46.8234 89.7629 46.8475 89.8022 46.8475H90.5281C90.5674 46.8475 90.603 46.8234 90.6175 46.7867L94.0895 38.0155V46.7129C94.0895 46.7871 94.1494 46.8475 94.2239 46.8475H95.9599C96.0344 46.8475 96.0944 46.7871 96.0944 46.7129V35.5435C96.0944 35.4693 96.0344 35.4089 95.9599 35.4089Z" fill="#34313F"/>
</g>
<defs>
<clipPath id="clip0">
<rect y="20" width="140" height="31.8025" fill="white"/>
</clipPath>
</defs>
</svg>
