<svg width="30" height="30" viewBox="0 0 30 30" fill="none" xmlns="http://www.w3.org/2000/svg">
<path d="M30 27.6562C30 28.9512 28.9512 30 27.6562 30H2.34375C1.04883 30 0 28.9512 0 27.6562V2.34375C0 1.04883 1.04883 0 2.34375 0H27.6562C28.9512 0 30 1.04883 30 2.34375V27.6562Z" fill="#4B2682"/>
<path d="M10.1286 13.7815C10.1286 13.7815 4.65757 12.4212 2.83389 13.6168C0.862954 14.9101 8.12936 17.7834 11.25 18.125C11.25 18.125 3.62679 16.1424 3.88732 14.3489C4.09687 12.8726 9.88507 13.8181 10.1286 13.7815Z" fill="#005996"/>
<path d="M11.4108 14.8729C11.4108 14.8729 6.73802 13.8651 5.22706 14.7171C3.59858 15.6366 11.1758 17.886 13.75 18.125C13.75 18.125 5.91539 16.3795 6.12804 15.1015C6.30712 14.0521 11.2093 14.8989 11.4108 14.8729Z" fill="#669BC0"/>
<path d="M14.2509 15.7248H11.9377L11.2353 16.7928H10L13.3002 11.9572H14.6324L15.583 16.7928H14.4446L14.2509 15.7248ZM14.1055 14.9208L13.7664 12.9724L12.3555 14.9208H14.1055ZM17.5208 16.7928H16.3157L17.5389 11.9572H19.9126C20.3365 11.9572 20.6695 11.9982 20.9118 12.0804C21.16 12.1626 21.3538 12.2975 21.4931 12.4912C21.6384 12.679 21.7111 12.9079 21.7111 13.1719C21.7111 13.4184 21.6566 13.6532 21.5415 13.882C21.4265 14.1109 21.2872 14.2987 21.1237 14.4337C20.9602 14.5745 20.7785 14.6802 20.5908 14.7506C20.3971 14.821 20.1427 14.8738 19.8157 14.9149C19.628 14.9384 19.2768 14.9501 18.7561 14.9501H17.987L17.5208 16.7928ZM18.1808 14.1461H18.5502C19.186 14.1461 19.6099 14.1109 19.8218 14.0464C20.0337 13.9818 20.2033 13.8762 20.3244 13.7295C20.4455 13.5827 20.5061 13.4243 20.5061 13.2482C20.5061 13.1309 20.4758 13.037 20.4152 12.9607C20.3547 12.8844 20.2638 12.8316 20.1548 12.7964C20.0398 12.7611 19.7915 12.7435 19.3979 12.7435H18.5381L18.1808 14.1461ZM25.9862 15.0499L27.1972 15.2025C26.9611 15.7482 26.6038 16.159 26.1315 16.4466C25.6592 16.7342 25.1081 16.875 24.4723 16.875C23.7578 16.875 23.2007 16.6989 22.795 16.341C22.3893 15.983 22.1894 15.4665 22.1894 14.7917C22.1894 14.24 22.3227 13.7412 22.5952 13.2835C22.8616 12.8257 23.237 12.4795 23.7154 12.2388C24.1938 11.9982 24.7145 11.875 25.2777 11.875C25.9074 11.875 26.4221 12.0158 26.8097 12.2975C27.1972 12.5792 27.4273 12.9607 27.5 13.4419L26.3495 13.5358C26.2829 13.2541 26.1618 13.0487 25.9801 12.9255C25.7984 12.7964 25.5562 12.7377 25.2535 12.7377C24.9204 12.7377 24.6116 12.8198 24.3209 12.99C24.0303 13.1543 23.8002 13.4184 23.6306 13.7764C23.455 14.1344 23.3702 14.4865 23.3702 14.8386C23.3702 15.2259 23.4853 15.5252 23.7093 15.7365C23.9334 15.9478 24.2119 16.0534 24.545 16.0534C24.8538 16.0534 25.1384 15.9712 25.3988 15.8011C25.6652 15.625 25.859 15.3785 25.9862 15.0499Z" fill="white"/>
</svg>
