<svg width="260" height="160" viewBox="0 0 260 160" fill="none" xmlns="http://www.w3.org/2000/svg">
<rect width="260" height="160" fill="#E6E7E8"/>
<path d="M53.9171 77.6866H53.363L52.3936 77.1258C52.2431 77.1283 52.119 77.0092 52.1165 76.8587C52.1165 76.8546 52.1165 76.8504 52.1165 76.8455V75.3021C52.1165 75.1152 52.2089 74.9282 52.3936 74.7413L64.0358 67.4496L47.1258 58.0563H46.0167L28.9694 67.4521L48.0952 78.6692C48.3723 78.6692 48.3722 78.9496 48.3722 79.23V95.4957C48.3722 95.6826 48.2799 95.8695 48.0952 96.0565L47.1258 96.6172H46.5717L45.6023 96.0565C45.3252 96.0565 45.3252 95.7761 45.3252 95.4957V81.0521C45.3285 80.9007 45.2086 80.775 45.0581 80.7717C45.0548 80.7717 45.0515 80.7717 45.0481 80.7717L28 70.8167V90.1667C28.0645 90.6307 28.2564 91.0682 28.5542 91.4297L45.7396 101.663C46.0167 101.663 46.0167 101.944 46.2938 101.944C46.5708 101.944 46.8479 101.944 46.8479 101.663L64.0334 91.428C64.4064 91.117 64.6115 90.6497 64.5875 90.165V70.8167L53.9163 77.6866H53.9171Z" fill="url(#paint0_linear_76786_30257)"/>
<path d="M176.848 96.1962H172.421V74.4634C174.626 73.5652 176.965 73.0433 179.343 72.92C184.647 72.92 188.351 76.2648 188.351 81.0529C188.351 86.4886 185.068 89.6067 179.343 89.6067V86.1007C180.574 86.1544 181.766 85.6648 182.603 84.7608C183.431 83.7079 183.849 82.3903 183.777 81.0529C184 78.7999 182.354 76.7933 180.101 76.57C179.849 76.5452 179.596 76.5435 179.343 76.5659C178.471 76.4344 177.581 76.6345 176.848 77.1266V96.1962V96.1962ZM85.2378 90.5877C80.7483 90.7696 76.961 87.2776 76.7791 82.7881C76.7692 82.5375 76.77 82.2861 76.7832 82.0346C76.5491 77.5468 79.9981 73.719 84.4868 73.4849C84.7374 73.4717 84.988 73.47 85.2386 73.4808C86.7861 73.2856 88.3535 73.633 89.6744 74.4634V78.6684C88.5859 77.651 87.1434 77.0977 85.6538 77.1266C83.3983 76.9306 81.4108 78.6005 81.2156 80.856C81.1941 81.1083 81.195 81.3622 81.2198 81.6137C80.9973 83.8667 82.6432 85.8732 84.8962 86.0965C85.1485 86.1213 85.4016 86.123 85.6538 86.1007C86.4718 86.075 87.2849 85.9675 88.0814 85.7797H88.1037C88.619 85.6532 89.1442 85.5746 89.6744 85.5457V89.6125L89.2707 89.7358L89.1781 89.7647L89.0466 89.8061C87.8241 90.2568 86.5405 90.5198 85.2395 90.5868L85.2378 90.5877ZM228.54 90.1658C223.94 90.1658 221.611 87.9476 221.611 83.5764V67.4513H226.045V73.4816H231.589V76.9877H226.045V83.5772C226.045 85.1569 227.185 86.1015 229.089 86.1015C230.094 86.2165 231.109 86.0204 232 85.5407V89.6076C230.895 90.0236 229.719 90.2138 228.54 90.1667V90.1658ZM213.156 90.1658C211.474 90.1137 209.833 89.6315 208.39 88.7639H208.719V84.6987C210.087 85.9402 211.862 86.6383 213.708 86.6614C214.669 86.7723 215.538 86.0825 215.649 85.1214V85.1181C215.649 84.5201 214.973 84.104 213.156 83.5764C209.611 83.0024 208.166 81.5392 208.166 78.5286C208.073 77.0506 208.699 75.6188 209.847 74.6826C211.101 73.8207 212.605 73.3964 214.125 73.4742C215.669 73.341 217.216 73.6843 218.559 74.4568V78.5286C217.277 77.5675 215.727 77.029 214.125 76.9869C212.819 76.9869 212.185 77.4914 212.185 78.5286C212.185 79.0414 212.505 79.4773 214.125 80.0703C215.676 80.1604 217.166 80.7096 218.404 81.6484C219.317 82.5615 219.779 83.8311 219.668 85.1181C219.675 88.8408 216.31 90.1658 213.156 90.1658V90.1658ZM198.187 90.0261C193.698 90.208 189.91 86.716 189.728 82.2265C189.718 81.9759 189.719 81.7245 189.732 81.473C189.732 76.8033 193.518 73.0185 198.187 73.0185C202.856 73.0185 206.642 76.8041 206.642 81.473C206.876 85.9601 203.428 89.787 198.94 90.0211C198.691 90.0343 198.441 90.036 198.191 90.0252H198.186L198.187 90.0261ZM198.187 76.9869C195.558 76.9869 194.168 78.5385 194.168 81.4739C193.947 83.7194 195.588 85.7202 197.834 85.941C197.951 85.9526 198.07 85.9592 198.187 85.9601C200.816 85.9601 202.206 84.4084 202.206 81.473C202.211 78.6204 200.746 76.986 198.192 76.986H198.187V76.9869ZM162.433 90.0261C157.944 90.2072 154.157 86.7152 153.975 82.2249C153.965 81.9743 153.967 81.7237 153.98 81.473C153.915 76.8041 157.649 72.9672 162.318 72.9027C166.986 72.8381 170.823 76.5717 170.888 81.2406C170.889 81.3184 170.889 81.3953 170.888 81.473C171.122 85.9601 167.674 89.7879 163.186 90.0211C162.935 90.0343 162.684 90.036 162.432 90.0252L162.433 90.0261ZM162.433 76.9869C159.806 76.9869 158.416 78.5385 158.416 81.4739C158.194 83.7194 159.836 85.7202 162.082 85.9419C162.198 85.9534 162.316 85.9601 162.433 85.9609C165.063 85.9609 166.452 84.4092 166.452 81.4739C166.63 79.1795 164.915 77.1754 162.621 76.9968C162.558 76.9918 162.496 76.9885 162.433 76.9869V76.9869ZM127.508 90.0261C123.019 90.208 119.232 86.716 119.05 82.2265C119.04 81.9759 119.04 81.7245 119.054 81.473C118.82 76.9852 122.269 73.1574 126.757 72.9233C127.008 72.9101 127.259 72.9084 127.509 72.9192C131.999 72.7381 135.787 76.2309 135.969 80.722C135.979 80.9727 135.977 81.2233 135.965 81.4739C136.199 85.9609 132.75 89.7887 128.263 90.0219C128.012 90.0352 127.761 90.0368 127.509 90.0261H127.508ZM127.508 76.9869C124.879 76.9869 123.489 78.5385 123.489 81.4739C123.268 83.7194 124.91 85.7202 127.155 85.941C127.273 85.9526 127.391 85.9592 127.508 85.9601C130.138 85.9601 131.527 84.4084 131.527 81.473C131.527 78.5377 130.062 76.986 127.508 76.986V76.9869ZM141.923 89.6084H138.041V74.4634C140.402 73.4295 142.953 72.9035 145.53 72.92C147.353 72.7521 149.175 73.2509 150.658 74.3236C151.998 75.6999 152.657 77.6006 152.459 79.5112V89.6067H148.025V79.5112C148.025 77.9314 146.886 76.9869 144.981 76.9869C143.934 76.8868 142.879 77.0803 141.936 77.546V89.6067L141.924 89.6084H141.923ZM113.51 89.6084H109.075V79.5128C108.903 77.5758 109.623 75.6668 111.032 74.3253C112.472 73.2897 114.23 72.7927 115.999 72.9217C116.511 72.9424 117.018 73.0251 117.51 73.1682C118.192 73.3625 118.895 73.4709 119.603 73.4891V77.5468C118.652 77.106 117.604 76.9141 116.558 76.9877C114.334 76.9877 113.514 77.6717 113.514 79.512V89.6076L113.51 89.6092V89.6084ZM102.706 89.6084V79.5128C102.706 77.9331 101.566 76.9885 99.6616 76.9885C98.6145 76.8884 97.5599 77.082 96.617 77.5476V89.6084H92.1672V65.9095H97.1555V73.4816C97.6765 73.456 98.1943 73.3799 98.7005 73.2542H98.7418C99.5383 73.0673 100.351 72.9597 101.169 72.9333C104.49 72.9473 107.171 75.6503 107.157 78.9711C107.157 79.1555 107.147 79.3408 107.129 79.5244V89.62L102.706 89.6084V89.6084Z" fill="#3C3C3B"/>
<defs>
<linearGradient id="paint0_linear_76786_30257" x1="27.5164" y1="80.1732" x2="64.8382" y2="80.1732" gradientUnits="userSpaceOnUse">
<stop stop-color="#006CAF"/>
<stop offset="0.33" stop-color="#0081C5"/>
<stop offset="0.73" stop-color="#0095DA"/>
<stop offset="1" stop-color="#009CE1"/>
</linearGradient>
</defs>
</svg>
