<svg width="260" height="160" viewBox="0 0 260 160" fill="none" xmlns="http://www.w3.org/2000/svg">
<rect width="260" height="160" fill="#EE3124"/>
<path d="M166.908 86.564C166.759 86.9149 166.558 87.2626 166.308 87.5772C165.304 88.8334 163.754 89.639 162.449 89.639C161.244 89.639 160.442 88.8676 161.294 87.0915C162.499 84.5053 165.456 83.7724 168.213 83.7724L166.908 86.564ZM170.819 72.8438C167.359 72.8438 164.251 73.7885 162.548 74.5193L160.595 78.781C162.498 77.9068 165.054 77.0337 167.66 77.0337C170.363 77.0337 170.516 78.3958 169.913 79.6862L169.713 80.0382C163.447 80.0382 157.483 82.4125 155.028 87.6842C153.477 91.0696 154.629 93.8633 158.436 93.8633C160.64 93.8633 162.948 93.0223 164.954 91.4516H165.102L164.502 93.4396H170.013C170.363 92.2177 171.118 90.4779 171.918 88.6611L175.277 81.4324C177.33 76.9631 177.531 72.8438 170.819 72.8438Z" fill="white"/>
<path d="M107.326 73.2295L101.614 85.6572C101.311 86.251 100.959 86.7753 100.608 87.1605C99.8568 88.0325 98.5565 89.0072 97.1012 89.0072C95.1481 89.0072 95.1481 87.2632 96.4505 84.4342L101.662 73.2295H95.4984L89.9374 85.2709C87.1786 91.1761 88.4301 93.8638 92.5932 93.8638C95.6481 93.8638 98.255 92.2193 99.7581 90.9289H99.8568L99.0055 93.4412H104.468C104.818 92.2193 105.52 90.441 106.374 88.6627C107.173 86.9155 113.488 73.2295 113.488 73.2295H107.326V73.2295Z" fill="white"/>
<path d="M130.525 93.8643C135.089 93.8643 141.551 91.0353 145.21 83.2159C148.066 76.963 146.263 72.8447 140.499 72.8447C134.837 72.8447 128.823 76.6153 125.665 83.4567C122.658 89.9878 124.864 93.8643 130.525 93.8643ZM132.581 89.5362C130.177 89.5362 130.326 86.7757 131.932 83.3186C133.283 80.4201 135.64 77.1749 138.345 77.1749C140.803 77.1749 140.201 80.4201 138.846 83.3186C137.292 86.673 134.886 89.5362 132.632 89.5362" fill="white"/>
<path d="M195.722 93.8643C200.233 93.8643 206.751 91.0353 210.358 83.2159C213.211 76.963 211.459 72.8447 205.644 72.8447C200.033 72.8447 194.017 76.6153 190.861 83.4567C187.805 89.9878 190.009 93.8643 195.673 93.8643H195.722ZM197.729 89.5362C195.32 89.5362 195.523 86.7757 197.076 83.3186C198.429 80.4201 200.837 77.1749 203.49 77.1749C205.995 77.1749 205.344 80.4201 203.991 83.3186C202.488 86.673 200.035 89.5362 197.777 89.5362" fill="white"/>
<path d="M230 72.9497C229.601 72.8438 229.297 72.8438 228.747 72.8438C226.894 72.8438 224.186 74.0314 221.93 76.6518H221.781L223.085 73.23H217.819C217.071 75.0447 216.167 77.1076 215.017 79.653L208.603 93.4417H211.908C213.761 93.4417 215.215 92.467 216.067 90.6512L219.527 83.2171C219.825 82.5516 220.176 81.962 220.478 81.5415C221.929 79.5182 224.034 78.505 225.89 78.505C226.542 78.505 226.94 78.5381 227.343 78.6077L230 72.9497Z" fill="white"/>
<path d="M184.847 88.9736C183.244 88.9736 182.842 88.0652 183.945 85.6931L187.754 77.526H191.413L193.413 73.229H189.709L192.213 67.8535H189.006C187.153 67.8535 185.7 68.8668 184.847 70.6836L183.645 73.2301H180.989L179.034 77.5271H181.642L177.581 86.3565C176.177 89.3599 175.976 91.1424 176.631 92.2595C177.228 93.2674 178.582 93.827 180.489 93.827C182.142 93.827 183.645 93.6184 184.596 93.3423L186.701 88.8035C186.102 88.9394 185.7 88.9736 184.847 88.9736Z" fill="white"/>
<path d="M158.19 67.8535C156.334 67.8535 154.831 68.8668 154.03 70.6836L143.457 93.4407H146.766C148.617 93.4407 150.068 92.466 150.922 90.6503L161.496 67.8535H158.19V67.8535Z" fill="white"/>
<path d="M129.575 72.9497C129.223 72.8438 128.922 72.8438 128.321 72.8438C126.518 72.8438 123.762 74.0314 121.556 76.6518H121.357L122.709 73.23H117.398C116.647 75.0447 115.794 77.1076 114.59 79.653L108.227 93.4417H111.483C113.387 93.4417 114.842 92.467 115.694 90.6512L119.101 83.2171C119.401 82.5516 119.75 81.962 120.053 81.5415C121.504 79.5182 123.609 78.505 125.465 78.505C126.115 78.505 126.569 78.5381 126.968 78.6077L129.575 72.9497Z" fill="white"/>
<path d="M79.4123 78.7444C78.7595 78.7444 78.2606 78.7444 77.8583 78.6417L81.7189 70.2949C82.3196 70.1943 82.9693 70.2264 83.9734 70.2264C86.9317 70.2264 87.6822 71.765 86.4774 74.4549C85.2769 77.1747 82.6179 78.7444 79.4123 78.7444ZM92.5415 74.4848C94.1454 70.5056 94.1454 66 85.4255 66H77.6099L64.8809 93.4404H68.0854C69.9907 93.4404 71.445 92.4657 72.2962 90.6499L75.7046 83.3196C76.1536 83.356 76.7544 83.3902 77.4072 83.3902C80.564 83.3902 84.1241 83.0724 87.0793 81.1197C89.4357 79.5843 91.34 77.4176 92.5415 74.4848Z" fill="white"/>
<path d="M71.897 66.001H61.4734L48.791 93.4403H56.2584C58.1637 93.4403 59.619 92.4656 60.4692 90.6498C61.3205 88.8341 71.897 66.001 71.897 66.001Z" fill="#1C3F94"/>
<path d="M58.1125 66.001L45.4355 93.4403H40.626L52.0526 68.7947C52.9029 67.0174 54.3549 66.001 56.2093 66.001H58.1125V66.001Z" fill="white"/>
<path d="M43.0815 80.9805H31.2547C30.5509 80.9805 30 81.539 30 82.2366C30 82.5501 30.1518 82.8658 30.3524 83.1097L38.3707 91.1377L43.0815 80.9805Z" fill="#1C3F94"/>
</svg>
