<svg width="260" height="160" viewBox="0 0 260 160" fill="none" xmlns="http://www.w3.org/2000/svg">
<path d="M260 0H0V160H260V0Z" fill="#FFF200"/>
<path d="M44 92.7998H47.8633C48.8133 92.7998 49.5733 93.0519 50.0167 93.5561C50.3967 93.9343 50.5867 94.3755 50.5867 94.9428C50.5867 95.8882 50.08 96.3924 49.51 96.7076C50.46 97.0857 51.0933 97.653 51.0933 98.7245C51.0933 100.237 49.8267 100.993 47.99 100.993H44.0633V92.7998H44ZM47.61 96.4554C48.4333 96.4554 48.94 96.2033 48.94 95.573C48.94 95.0058 48.4967 94.6907 47.7367 94.6907H45.9V96.4554H47.61ZM48.1167 99.6069C48.94 99.6069 49.3833 99.2917 49.3833 98.7245C49.3833 98.1572 48.94 97.8421 48.0533 97.8421H45.9V99.6699H48.1167V99.6069Z" fill="black"/>
<path d="M54.7668 97.8421L51.6001 92.7998H53.7534L55.7168 96.1403L57.7434 92.7998H59.8334L56.6668 97.779V101.057H54.8301V97.8421H54.7668Z" fill="black"/>
<path d="M64.2666 92.7998H66.1033V99.4178H70.2199V101.057H64.2666V92.7998Z" fill="black"/>
<path d="M74.2101 92.7998H75.8568L79.4034 101.12H77.5034L76.7434 99.2917H73.1968L72.4368 101.12H70.6001L74.2101 92.7998ZM76.5534 98.0312L75.4768 95.3209L74.4001 98.0312H76.5534Z" fill="black"/>
<path d="M84.5332 92.7998H87.9532C89.9165 92.7998 91.1199 93.9973 91.1199 95.6361C91.1199 97.5269 89.5999 98.5354 87.7632 98.5354H86.3699V100.993H84.5332V92.7998ZM87.8265 97.2118C88.7132 97.2118 89.2832 96.6445 89.2832 95.9512C89.2832 95.1319 88.7132 94.6907 87.8265 94.6907H86.4332V97.2118H87.8265Z" fill="black"/>
<path d="M92.1333 97.0857C92.1333 94.6907 93.97 92.7998 96.5666 92.7998C99.1633 92.7998 101 94.6907 101 97.0857C101 99.4178 99.1633 101.372 96.5666 101.372C93.97 101.309 92.1333 99.4178 92.1333 97.0857ZM99.0366 97.3378C99.0366 95.8882 97.96 94.6907 96.5033 94.6907C95.0466 94.6907 94.0333 95.8252 94.0333 97.2748C94.0333 98.7245 95.11 99.859 96.5666 99.859C98.0233 99.922 99.0366 98.7245 99.0366 97.3378Z" fill="black"/>
<path d="M102.267 99.922L103.343 98.6614C104.103 99.2917 104.863 99.6699 105.813 99.6699C106.573 99.6699 107.017 99.3548 107.017 98.9136C107.017 98.4724 106.7 98.2202 105.37 97.8421C103.723 97.4009 102.583 96.9597 102.583 95.3209C102.583 93.8083 103.787 92.7998 105.497 92.7998C106.7 92.7998 107.713 93.178 108.6 93.8713L107.65 95.2579C106.89 94.7537 106.193 94.4385 105.497 94.4385C104.8 94.4385 104.42 94.7537 104.42 95.1319C104.42 95.6991 104.8 95.8252 106.193 96.2033C107.903 96.6445 108.853 97.2748 108.853 98.6614C108.853 100.3 107.587 101.246 105.813 101.246C104.547 101.246 103.28 100.804 102.267 99.922Z" fill="black"/>
<path d="M111.767 94.5016H109.233V92.7998H116.137V94.5016H113.603V101.12H111.767V94.5016Z" fill="black"/>
<path d="M117.467 92.7998H123.737V94.4385H119.303V96.1403H123.23V97.779H119.303V99.5438H123.8V101.183H117.467V92.7998Z" fill="black"/>
<path d="M134.06 100.363C133.363 100.93 132.603 101.309 131.653 101.309C130.07 101.309 128.867 100.363 128.867 98.9135C128.867 97.8421 129.437 97.0857 130.513 96.6445C130.133 96.0773 129.943 95.5731 129.943 95.0058C129.943 93.8713 130.83 92.7998 132.477 92.7998C133.87 92.7998 134.82 93.7452 134.82 94.8797C134.82 96.0142 134.123 96.6445 133.047 97.0227L134.123 98.0942C134.377 97.653 134.693 97.2118 134.947 96.6445L136.277 97.4009C135.96 97.9681 135.58 98.5984 135.2 99.1657L136.403 100.363L135.073 101.309L134.06 100.363ZM133.11 99.4808L131.527 97.8421C130.957 98.1572 130.767 98.5354 130.767 98.9135C130.767 99.4808 131.273 99.859 131.907 99.859C132.35 99.922 132.73 99.7329 133.11 99.4808ZM132.983 94.8797C132.983 94.3755 132.667 94.0604 132.223 94.0604C131.717 94.0604 131.4 94.3755 131.4 94.8797C131.4 95.2579 131.527 95.51 131.907 95.8882C132.603 95.6991 132.983 95.384 132.983 94.8797Z" fill="black"/>
<path d="M140.267 99.922L141.343 98.6614C142.103 99.2917 142.863 99.6699 143.813 99.6699C144.573 99.6699 145.017 99.3548 145.017 98.9136C145.017 98.4724 144.7 98.2202 143.37 97.8421C141.723 97.4009 140.583 96.9597 140.583 95.3209C140.583 93.8083 141.787 92.7998 143.497 92.7998C144.7 92.7998 145.713 93.178 146.6 93.8713L145.65 95.2579C144.89 94.7537 144.193 94.4385 143.497 94.4385C142.8 94.4385 142.42 94.7537 142.42 95.1319C142.42 95.6991 142.8 95.8252 144.193 96.2033C145.903 96.6445 146.853 97.2748 146.853 98.6614C146.853 100.3 145.587 101.246 143.813 101.246C142.547 101.246 141.28 100.804 140.267 99.922Z" fill="black"/>
<path d="M147.867 92.7998H149.83L151.54 98.4093L153.377 92.7998H154.96L156.797 98.4093L158.507 92.7998H160.407L157.557 101.12H156.1L154.2 95.6991L152.3 101.12H150.717L147.867 92.7998Z" fill="black"/>
<path d="M161.8 92.7998H163.637V101.057H161.8V92.7998Z" fill="black"/>
<path d="M164.967 99.922L166.043 98.6614C166.803 99.2917 167.563 99.6699 168.513 99.6699C169.273 99.6699 169.717 99.3548 169.717 98.9136C169.717 98.4724 169.4 98.2202 168.07 97.8421C166.423 97.4009 165.283 96.9597 165.283 95.3209C165.283 93.8083 166.487 92.7998 168.197 92.7998C169.4 92.7998 170.413 93.178 171.3 93.8713L170.35 95.2579C169.59 94.7537 168.893 94.4385 168.197 94.4385C167.5 94.4385 167.12 94.7537 167.12 95.1319C167.12 95.6991 167.5 95.8252 168.893 96.2033C170.603 96.6445 171.553 97.2748 171.553 98.6614C171.553 100.3 170.287 101.246 168.513 101.246C167.247 101.246 165.98 100.804 164.967 99.922Z" fill="black"/>
<path d="M172.567 99.922L173.644 98.6614C174.404 99.2917 175.164 99.6699 176.114 99.6699C176.874 99.6699 177.317 99.3548 177.317 98.9136C177.317 98.4724 177 98.2202 175.67 97.8421C174.024 97.4009 172.884 96.9597 172.884 95.3209C172.884 93.8083 174.087 92.7998 175.797 92.7998C177 92.7998 178.014 93.178 178.9 93.8713L177.95 95.2579C177.19 94.7537 176.494 94.4385 175.797 94.4385C175.1 94.4385 174.72 94.7537 174.72 95.1319C174.72 95.6991 175.1 95.8252 176.494 96.2033C178.204 96.6445 179.154 97.2748 179.154 98.6614C179.154 100.3 177.887 101.246 176.114 101.246C174.847 101.246 173.58 100.804 172.567 99.922Z" fill="black"/>
<path d="M184.6 92.7998H188.02C189.983 92.7998 191.187 93.9973 191.187 95.6361C191.187 97.5269 189.667 98.5354 187.83 98.5354H186.437V100.993H184.6V92.7998ZM187.893 97.2118C188.78 97.2118 189.35 96.6445 189.35 95.9512C189.35 95.1319 188.78 94.6907 187.893 94.6907H186.5V97.2118H187.893Z" fill="black"/>
<path d="M192.2 97.0857C192.2 94.6907 194.037 92.7998 196.634 92.7998C199.23 92.7998 201.067 94.6907 201.067 97.0857C201.067 99.4178 199.23 101.372 196.634 101.372C194.037 101.372 192.2 99.4178 192.2 97.0857ZM199.104 97.3378C199.104 95.8882 198.027 94.6907 196.57 94.6907C195.114 94.6907 194.1 95.8252 194.1 97.2748C194.1 98.7245 195.177 99.859 196.634 99.859C198.09 99.922 199.104 98.7245 199.104 97.3378Z" fill="black"/>
<path d="M201.7 99.922L202.777 98.6614C203.537 99.2917 204.297 99.6699 205.247 99.6699C206.007 99.6699 206.45 99.3548 206.45 98.9136C206.45 98.4724 206.134 98.2202 204.804 97.8421C203.157 97.4009 202.017 96.9597 202.017 95.3209C202.017 93.8083 203.22 92.7998 204.93 92.7998C206.134 92.7998 207.147 93.178 208.034 93.8713L207.084 95.2579C206.324 94.7537 205.627 94.4385 204.93 94.4385C204.234 94.4385 203.854 94.7537 203.854 95.1319C203.854 95.6991 204.234 95.8252 205.627 96.2033C207.337 96.6445 208.287 97.2748 208.287 98.6614C208.287 100.3 207.02 101.246 205.247 101.246C203.98 101.246 202.65 100.804 201.7 99.922Z" fill="black"/>
<path d="M211.833 94.5016H209.3V92.7998H216.203V94.5016H213.67V101.12H211.833V94.5016Z" fill="black"/>
<path d="M70.6001 79.3747L74.5268 74.7106C76.9968 76.6645 79.7834 77.736 82.7601 77.736C84.6601 77.736 85.6734 77.1057 85.6734 76.0342V75.9712C85.6734 74.8997 84.8501 74.3325 81.4301 73.5761C76.0468 72.3786 71.8668 70.8659 71.8668 65.6346V65.5715C71.8668 60.9074 75.6034 57.5039 81.6834 57.5039C85.9901 57.5039 89.3468 58.6384 92.0701 60.8444L88.5868 65.7606C86.2434 64.1219 83.7734 63.3025 81.4934 63.3025C79.7834 63.3025 78.9601 63.9958 78.9601 64.9413V65.0043C78.9601 66.1388 79.8468 66.643 83.3301 67.4624C89.1568 68.723 92.7668 70.6138 92.7668 75.2779V75.3409C92.7668 80.5093 88.7134 83.5346 82.5701 83.5346C77.9468 83.5346 73.7034 82.148 70.6001 79.3747Z" fill="black"/>
<path d="M96.6302 58.1343H116.96V64.0589H103.534V67.8406H115.694V73.3241H103.534V77.2949H117.087V83.2196H96.5669V58.1343H96.6302Z" fill="black"/>
<path d="M121.9 58.1343H128.423L138.873 71.4333V58.1343H145.84V83.2826H139.697L128.867 69.4794V83.2826H121.9V58.1343Z" fill="black"/>
<path d="M151.73 58.1343H161.483C170.54 58.1343 175.733 63.3026 175.733 70.5509V70.6139C175.733 77.8622 170.413 83.2826 161.293 83.2826H151.667V58.1343H151.73ZM161.483 76.6016C165.663 76.6016 168.45 74.2695 168.45 70.2357V70.1727C168.45 66.1389 165.663 63.8068 161.483 63.8068H158.633V76.6016H161.483Z" fill="black"/>
<path d="M179.533 58.1343H186.563V83.2826H179.533V58.1343Z" fill="black"/>
<path d="M55.7167 57.5039C48.6233 57.5039 44 61.0335 44 69.0381V83.0934H51.03V76.3494H60.2767V83.0934H67.3067V68.912C67.3067 61.0965 62.81 57.5039 55.7167 57.5039ZM50.9667 70.929V68.912C50.9667 65.4455 52.8033 63.8067 55.59 63.8067C58.3767 63.8067 60.2133 65.5085 60.2133 69.1011V70.929H50.9667Z" fill="black"/>
<path d="M204.55 57.5039C197.456 57.5039 192.833 61.0335 192.833 69.0381V83.0934H199.863V76.3494H209.11V83.0934H216.14V68.912C216.076 61.0965 211.643 57.5039 204.55 57.5039ZM199.8 70.929V68.912C199.8 65.4455 201.636 63.8067 204.423 63.8067C207.21 63.8067 209.046 65.5085 209.046 69.1011V70.929H199.8Z" fill="black"/>
</svg>
