<svg xmlns="http://www.w3.org/2000/svg" width="40" height="41" viewBox="0 0 40 41" fill="none">
  <path d="M18.3333 32.1667H21.6667V25.2084L24.3333 27.875L26.6667 25.5L20 18.8334L13.3333 25.5L15.7083 27.8334L18.3333 25.2084V32.1667ZM9.99999 37.1667C9.08332 37.1667 8.2986 36.8403 7.64582 36.1875C6.99305 35.5348 6.66666 34.75 6.66666 33.8334V7.16671C6.66666 6.25004 6.99305 5.46532 7.64582 4.81254C8.2986 4.15976 9.08332 3.83337 9.99999 3.83337H23.3333L33.3333 13.8334V33.8334C33.3333 34.75 33.0069 35.5348 32.3542 36.1875C31.7014 36.8403 30.9167 37.1667 30 37.1667H9.99999ZM21.6667 15.5V7.16671H9.99999V33.8334H30V15.5H21.6667Z" fill="#01474F"/>
</svg>
