<svg width="136" height="72" viewBox="0 0 136 72" fill="none" xmlns="http://www.w3.org/2000/svg">
<g id="logos/squarespace">
<g id="Layer 1">
<g id="Group">
<g id="Group_2">
<g id="Group_3">
<path id="Vector" d="M56.6422 24.7104L69.1345 12.218C69.9457 11.4068 71.0814 10.9201 72.2171 10.9201C73.3527 10.9201 74.4884 11.4068 75.2996 12.218L76.273 13.1915L78.2199 11.2446L77.2465 10.2712C75.9486 8.97325 74.1639 8.3243 72.2171 8.3243C70.2702 8.3243 68.4856 9.13549 67.1877 10.4334L54.6953 22.9258L56.6422 24.7104Z" fill="#040404"/>
<path id="Vector_2" d="M73.192 16.4364L71.2451 14.4896L58.7527 26.9819C56.9681 28.7666 54.2101 28.7666 52.4254 26.9819C50.6408 25.1973 50.6408 22.4392 52.4254 20.6546L63.1332 9.94688L61.1863 8.00002L50.6408 18.5455C47.8828 21.3036 47.8828 26.0085 50.6408 28.7666C51.9387 30.0645 53.8856 30.8757 55.6702 30.8757C57.6171 30.8757 59.4017 30.0645 60.6996 28.7666L73.192 16.4364Z" fill="#040404"/>
<path id="Vector_3" d="M85.5219 18.5455C84.224 17.2476 82.2771 16.4364 80.4925 16.4364C78.5456 16.4364 76.761 17.2476 75.4631 18.5455L62.9707 31.0379L64.9176 32.9847L77.4099 20.4924C79.1946 18.7077 81.9526 18.7077 83.7372 20.4924C84.5484 21.3036 85.0352 22.4392 85.0352 23.5749C85.0352 24.7106 84.5484 25.8462 83.7372 26.6574L72.8673 37.5274L74.8141 39.4743L85.5219 28.7665C88.4422 26.0085 88.4422 21.4658 85.5219 18.5455Z" fill="#040404"/>
<path id="Vector_4" d="M79.5188 22.764L67.0264 35.2564C65.2418 37.041 62.4837 37.041 60.6991 35.2564L59.7257 34.2829L57.7788 36.2298L58.7522 37.2032C60.2124 38.5012 61.997 39.1501 63.9439 39.1501C65.8907 39.1501 67.6754 38.3389 68.9733 37.041L81.4656 24.5486L79.5188 22.764Z" fill="#040404"/>
</g>
</g>
<g id="Group_4">
<path id="Vector_5" d="M2.30075 58.8467C2.42857 59.4858 2.68421 59.997 3.19549 60.2527C3.70677 60.6361 4.21805 60.764 4.98496 60.764C5.75188 60.764 6.26316 60.6361 6.77444 60.2527C7.15789 59.8692 7.41353 59.4858 7.41353 58.8467C7.41353 58.591 7.41353 58.3354 7.28572 58.2076C7.1579 58.0798 7.03007 57.8241 6.77444 57.6963C6.64662 57.5685 6.39098 57.4407 6.00752 57.3128C5.75188 57.185 5.36842 57.185 4.98496 57.0572L4.21804 56.9294C3.70677 56.8016 3.19549 56.5459 2.68421 56.4181C2.30075 56.1625 1.91729 55.9068 1.53384 55.6512C1.2782 55.3955 1.02255 55.0121 0.766915 54.6286C0.639096 54.2452 0.51128 53.8617 0.51128 53.3504C0.51128 52.8392 0.639096 52.3279 0.766915 51.9444C1.02255 51.561 1.27819 51.1775 1.66165 50.794C2.04511 50.5384 2.55639 50.2828 3.06767 50.0271C3.57895 49.8993 4.21804 49.7715 4.85714 49.7715C6.13534 49.7715 7.1579 50.0271 7.92481 50.6662C8.69173 51.3053 9.07519 52.0722 9.20301 53.0948L7.15789 53.2226C7.03007 52.7113 6.77444 52.3279 6.39098 52.0722C6.00752 51.8166 5.49624 51.6888 4.85714 51.6888C4.21804 51.6888 3.70676 51.8166 3.32331 52.0722C2.93985 52.3279 2.81203 52.7113 2.81203 53.2226C2.81203 53.4783 2.81203 53.7339 2.93985 53.8617C3.06767 53.9895 3.19549 54.2452 3.32331 54.373C3.45113 54.5008 3.70677 54.6286 4.09023 54.7564C4.34587 54.8843 4.72933 55.0121 4.98496 55.1399L5.8797 55.3955C6.39098 55.5234 6.90225 55.779 7.41353 55.9068C7.92481 56.0346 8.18045 56.2903 8.56391 56.5459C8.81955 56.8016 9.07519 57.185 9.33083 57.4407C9.45865 57.8241 9.58647 58.2076 9.58647 58.8467C9.58647 59.358 9.45865 59.9971 9.20301 60.3805C8.94737 60.8918 8.69173 61.2752 8.18045 61.6587C7.79699 62.0422 7.28572 62.2978 6.64662 62.4256C6.13534 62.5534 5.49624 62.6813 4.72932 62.6813C3.45113 62.6813 2.42857 62.4256 1.53384 61.7865C0.639099 61.1474 0.12782 60.2527 0 59.1023L2.30075 58.8467Z" fill="#010101"/>
<path id="Vector_6" d="M18.4057 49.8993C19.3005 49.8993 20.1952 50.0271 20.9621 50.4106C21.729 50.6662 22.3681 51.1775 22.8794 51.6888C23.3907 52.2001 23.7742 52.967 24.1576 53.7339C24.4133 54.5008 24.5411 55.3955 24.5411 56.2903C24.5411 57.3128 24.4133 58.2076 24.0298 58.9745C23.6463 59.7414 23.2629 60.5083 22.6238 61.0196L24.2854 62.9369V63.576H22.2403L21.0899 62.17C20.7065 62.2978 20.1952 62.5534 19.8118 62.5534C19.3005 62.6813 18.917 62.6813 18.2779 62.6813C17.3832 62.6813 16.4884 62.5534 15.7215 62.17C14.9546 61.9143 14.3155 61.4031 13.8042 60.8918C13.293 60.3805 12.9095 59.6136 12.526 58.8467C12.2704 58.0798 12.1426 57.185 12.1426 56.2903C12.1426 55.3955 12.2704 54.5008 12.526 53.7339C12.7817 52.967 13.293 52.3279 13.8042 51.6888C14.3155 51.1775 14.9546 50.6662 15.7215 50.4106C16.7441 50.0271 17.511 49.8993 18.4057 49.8993ZM18.4057 51.6888C17.7666 51.6888 17.2554 51.8166 16.7441 52.0722C16.2328 52.3279 15.8493 52.5835 15.4659 52.967C15.0824 53.3504 14.8268 53.8617 14.699 54.373C14.5711 54.8843 14.4433 55.5234 14.4433 56.1625C14.4433 56.8016 14.5711 57.4407 14.699 57.9519C14.8268 58.4632 15.0824 58.9745 15.4659 59.358C15.8493 59.7414 16.2328 60.1249 16.7441 60.3805C17.2554 60.6362 17.7666 60.764 18.4057 60.764C19.0448 60.764 19.5561 60.6362 20.0674 60.3805C20.5787 60.1249 20.9621 59.8692 21.3456 59.4858C21.729 59.1023 21.9847 58.591 22.1125 58.0798C22.2403 57.5685 22.3681 56.9294 22.3681 56.1625C22.3681 55.5234 22.2403 54.8843 22.1125 54.373C21.9847 53.8617 21.729 53.3504 21.3456 52.967C20.9621 52.5835 20.5787 52.2001 20.0674 52.0722C19.5561 51.8166 19.0448 51.6888 18.4057 51.6888Z" fill="#010101"/>
<path id="Vector_7" d="M32.8487 61.0197C33.7435 61.0197 34.3826 60.764 34.8938 60.2527C35.4051 59.7415 35.6608 58.8467 35.6608 57.6964V50.155H37.8337V57.6964C37.8337 58.5911 37.7059 59.358 37.4502 59.9971C37.1946 60.6362 36.939 61.1475 36.4277 61.5309C36.0442 61.9144 35.5329 62.2979 34.8938 62.4257C34.2547 62.5535 33.6157 62.6813 32.8487 62.6813C32.0818 62.6813 31.3149 62.5535 30.8036 62.4257C30.1645 62.2979 29.6532 61.9144 29.2698 61.5309C28.8863 61.1475 28.5029 60.6362 28.2472 59.9971C27.9916 59.358 27.8638 58.5911 27.8638 57.6964V50.155H30.0367V57.6964C30.0367 58.8467 30.2923 59.6136 30.8036 60.2527C31.3149 60.6362 31.954 61.0197 32.8487 61.0197Z" fill="#010101"/>
<path id="Vector_8" d="M40.0067 61.7863L44.3526 50.0269H47.5481L51.8939 61.7863V62.4254H49.8488L48.5706 58.8465H43.2022L41.924 62.4254H39.8789L40.0067 61.7863ZM43.9691 57.057H48.0594L47.2924 55.1397C47.0368 54.3728 46.7812 53.7337 46.6533 53.2224C46.5255 52.7111 46.3977 52.3277 46.2699 51.9442H45.7586C45.7586 52.072 45.6308 52.3277 45.503 52.5833C45.503 52.7111 45.3751 52.9668 45.2473 53.2224C45.1195 53.478 45.1195 53.7337 44.9917 53.9893C44.8639 54.245 44.7361 54.6284 44.6082 55.0119L43.9691 57.057Z" fill="#010101"/>
<path id="Vector_9" d="M64.1652 62.4254H62.1201L58.2855 57.5683H56.8795V62.4254H54.7065V50.0269H58.7968C59.4359 50.0269 60.075 50.0269 60.5862 50.1547C61.0975 50.2826 61.6088 50.4104 62.1201 50.7938C63.1426 51.4329 63.5261 52.4555 63.5261 53.7337C63.5261 54.245 63.3983 54.7562 63.2704 55.2675C63.1426 55.651 62.887 56.0344 62.6314 56.2901C62.3757 56.5457 61.9923 56.8014 61.7366 57.057C61.3532 57.1848 60.9697 57.3126 60.5862 57.4404L64.1652 61.9141V62.4254ZM56.8795 55.7788H58.7968C59.5637 55.7788 60.3306 55.651 60.7141 55.2675C61.2253 55.0119 61.481 54.5006 61.481 53.7337C61.481 53.0946 61.2253 52.5833 60.7141 52.3277C60.2028 52.072 59.5637 51.9442 58.7968 51.9442H56.8795V55.7788Z" fill="#010101"/>
<path id="Vector_10" d="M66.8491 50.0269H74.9017V51.9442H69.022V55.1397H74.5183V57.057H69.022V60.5081H75.0296V62.4254H66.8491V50.0269Z" fill="#010101"/>
<path id="Vector_11" d="M79.7602 58.8467C79.888 59.4858 80.1437 59.997 80.655 60.2527C81.1662 60.6361 81.6775 60.764 82.4444 60.764C83.2114 60.764 83.7226 60.6361 84.2339 60.2527C84.6174 59.8692 84.873 59.4858 84.873 58.8467C84.873 58.591 84.873 58.3354 84.7452 58.2076C84.6174 58.0797 84.4896 57.8241 84.2339 57.6963C84.1061 57.5685 83.8505 57.4406 83.467 57.3128C83.2114 57.185 82.8279 57.185 82.4444 57.0572L81.6775 56.9294C81.1662 56.8015 80.655 56.5459 80.1437 56.4181C79.7602 56.1624 79.3768 55.9068 78.9933 55.6512C78.7377 55.3955 78.482 55.0121 78.2264 54.6286C78.0986 54.2452 77.9708 53.8617 77.9708 53.3504C77.9708 52.8391 78.0986 52.3279 78.2264 51.9444C78.482 51.5609 78.7377 51.1775 79.1211 50.794C79.5046 50.5384 80.0159 50.2827 80.5271 50.0271C81.0384 49.8993 81.6775 49.7715 82.3166 49.7715C83.5948 49.7715 84.6174 50.0271 85.3843 50.6662C86.1512 51.3053 86.5347 52.0722 86.6625 53.0948L84.6174 53.2226C84.4895 52.7113 84.2339 52.3279 83.8505 52.0722C83.467 51.8166 82.9557 51.6888 82.3166 51.6888C81.6775 51.6888 81.1662 51.8166 80.7828 52.0722C80.3993 52.3279 80.2715 52.7113 80.2715 53.2226C80.2715 53.4782 80.2715 53.7339 80.3993 53.8617C80.5271 53.9895 80.655 54.2452 80.7828 54.373C80.9106 54.5008 81.1662 54.6286 81.5497 54.7564C81.8053 54.8843 82.1888 55.0121 82.4444 55.1399L83.3392 55.3955C83.8504 55.5233 84.3617 55.779 84.873 55.9068C85.3843 56.0346 85.6399 56.2903 86.0234 56.5459C86.279 56.8015 86.5347 57.185 86.7903 57.4406C86.9181 57.8241 87.0459 58.2076 87.0459 58.8467C87.0459 59.3579 86.9181 59.997 86.6625 60.3805C86.4068 60.8918 86.1512 61.2752 85.6399 61.6587C85.2565 62.0421 84.7452 62.2978 84.1061 62.4256C83.5948 62.5534 82.9557 62.6812 82.1888 62.6812C80.9106 62.6812 79.888 62.4256 78.9933 61.7865C78.0986 61.1474 77.5873 60.2527 77.4595 59.1023L79.7602 58.8467Z" fill="#010101"/>
<path id="Vector_12" d="M90.2402 50.0269H94.7139C95.6087 50.0269 96.2478 50.1547 96.759 50.2826C97.2703 50.4104 97.7816 50.7938 98.1651 51.0495C98.5485 51.4329 98.8041 51.8164 98.932 52.3277C99.0598 52.8389 99.1876 53.3502 99.1876 53.8615C99.1876 54.5006 99.0598 55.0119 98.932 55.5232C98.8041 56.0344 98.4207 56.4179 98.0372 56.6735C97.6538 56.9292 97.1425 57.1848 96.6312 57.3126C96.1199 57.4405 95.353 57.5683 94.7139 57.5683H92.541V62.2976H90.3681L90.2402 50.0269ZM92.4132 55.7788H94.4583C94.8417 55.7788 95.2252 55.7788 95.4808 55.651C95.7365 55.651 96.1199 55.5232 96.2478 55.3953C96.5034 55.2675 96.6312 55.0119 96.759 54.7562C96.8868 54.5006 96.8869 54.245 96.8869 53.8615C96.8869 53.478 96.8868 53.2224 96.759 52.9668C96.6312 52.7111 96.5034 52.4555 96.2478 52.3277C95.9921 52.1998 95.7365 52.072 95.4808 52.072C95.2252 52.072 94.8417 51.9442 94.4583 51.9442H92.4132V55.7788Z" fill="#010101"/>
<path id="Vector_13" d="M99.8279 61.7863L104.174 50.0269H107.369L111.715 61.7863V62.4254H109.542L108.264 58.8465H102.896L101.617 62.4254H99.5723V61.7863H99.8279ZM103.79 57.057H107.881L107.241 55.1397C106.986 54.3728 106.73 53.7337 106.602 53.2224C106.475 52.7111 106.347 52.3277 106.219 51.9442H105.708C105.708 52.072 105.58 52.3277 105.452 52.5833C105.452 52.7111 105.324 52.9668 105.196 53.2224C105.069 53.478 105.069 53.7337 104.941 53.9893C104.813 54.245 104.685 54.6284 104.557 55.0119L103.79 57.057Z" fill="#010101"/>
<path id="Vector_14" d="M124.88 59.2301C124.752 59.7414 124.497 60.1249 124.113 60.6361C123.858 61.0196 123.474 61.4031 122.963 61.7865C122.579 62.0422 121.94 62.2978 121.429 62.5534C120.79 62.6813 120.151 62.8091 119.512 62.8091C118.617 62.8091 117.722 62.6813 116.955 62.2978C116.188 62.0422 115.549 61.5309 115.038 61.0196C114.527 60.5083 114.143 59.7414 113.76 58.9745C113.504 58.2076 113.376 57.3128 113.376 56.4181C113.376 55.5234 113.504 54.6286 113.76 53.8617C114.016 53.0948 114.399 52.3279 115.038 51.8166C115.677 51.3053 116.188 50.794 116.955 50.4106C117.722 50.0271 118.617 49.8993 119.512 49.8993C120.918 49.8993 121.94 50.1549 122.963 50.794C123.858 51.4331 124.497 52.3279 124.88 53.3504L122.707 53.7339C122.452 53.0948 121.94 52.5835 121.429 52.2001C120.918 51.8166 120.279 51.6888 119.512 51.6888C118.873 51.6888 118.361 51.8166 117.85 52.0722C117.339 52.3279 116.955 52.5835 116.7 53.0948C116.316 53.4783 116.188 53.9895 115.933 54.5008C115.677 55.0121 115.677 55.6512 115.677 56.2903C115.677 56.9294 115.805 57.5685 115.933 58.0798C116.061 58.591 116.316 59.1023 116.7 59.4858C117.083 59.8692 117.467 60.2527 117.978 60.3805C118.489 60.6362 119.001 60.764 119.64 60.764C120.407 60.764 121.173 60.6361 121.685 60.1249C122.196 59.7414 122.579 59.2301 122.963 58.7189L124.88 59.2301Z" fill="#010101"/>
<path id="Vector_15" d="M127.819 50.0269H135.872V51.9442H129.992V55.1397H135.489V57.057H129.992V60.5081H136V62.4254H127.819V50.0269Z" fill="#010101"/>
</g>
</g>
</g>
</g>
</svg>
