<?xml version="1.0" encoding="UTF-8"?>
<svg width="40px" height="34px" viewBox="0 0 40 34" version="1.1" xmlns="http://www.w3.org/2000/svg" xmlns:xlink="http://www.w3.org/1999/xlink">
    <!-- Generator: sketchtool 55.2 (78181) - https://sketchapp.com -->
    <title>B2DF0C81-E41D-42EC-A125-477007A5D299</title>
    <desc>Created with sketchtool.</desc>
    <g id="Page-1" stroke="none" stroke-width="1" fill="none" fill-rule="evenodd">
        <g id="All-label-formats" transform="translate(-483.000000, -821.000000)">
            <rect fill="#FFFFFF" x="0" y="0" width="1280" height="1457"></rect>
            <g id="Group-7-Copy-11" transform="translate(503.000000, 838.000000) rotate(-270.000000) translate(-503.000000, -838.000000) translate(486.000000, 818.000000)">
                <g id="Group-9">
                    <rect id="Rectangle" stroke="#BCC2C8" fill="#FFFFFF" x="0.5" y="0.5" width="33" height="39" rx="2"></rect>
                    <rect id="Rectangle" fill="#BCC2C8" x="10" y="7" width="16" height="2"></rect>
                    <rect id="Rectangle" fill="#BCC2C8" x="5" y="7" width="3" height="2"></rect>
                    <rect id="Rectangle" fill="#BCC2C8" x="10" y="10" width="18" height="2"></rect>
                    <rect id="Rectangle-Copy" fill="#BCC2C8" x="10" y="13" width="12" height="2"></rect>
                    <rect id="Rectangle-Copy-3" fill="#BCC2C8" x="10" y="16" width="16" height="2"></rect>
                    <rect id="Rectangle" fill="#BCC2C8" x="5" y="10" width="3" height="2"></rect>
                    <rect id="Rectangle-Copy-2" fill="#BCC2C8" x="5" y="13" width="3" height="2"></rect>
                    <rect id="Rectangle-Copy-5" fill="#BCC2C8" x="5" y="16" width="3" height="2"></rect>
                    <rect id="Rectangle" fill="#BCC2C8" x="23" y="19" width="10" height="20"></rect>
                    <text id="PNG" transform="translate(28.500000, 28.500000) rotate(270.000000) translate(-28.500000, -28.500000) " font-family="Roboto-Medium, Roboto" font-size="8" font-weight="400" fill="#FFFFFF">
                        <tspan x="20.3808594" y="31">PNG</tspan>
                    </text>
                </g>
            </g>
            <g id="format-copy" transform="translate(484.000000, 844.000000)"></g>
        </g>
    </g>
</svg>