<?xml version="1.0" encoding="UTF-8"?>
<svg width="50px" height="50px" viewBox="0 0 50 50" version="1.1" xmlns="http://www.w3.org/2000/svg" xmlns:xlink="http://www.w3.org/1999/xlink">
    <g id="Logos" stroke="none" stroke-width="1" fill="none" fill-rule="evenodd">
        <g id="Logo---Shopify">
            <g id="shopify" transform="translate(5.000000, 2.000000)">
                <path d="M34.9646875,8.959375 C34.9332812,8.73125 34.7334375,8.605 34.5682812,8.59109375 C34.4034375,8.57734375 30.9146875,8.31875 30.9146875,8.31875 C30.9146875,8.31875 28.4917187,5.91328125 28.2257812,5.64703125 C27.9596875,5.3809375 27.44,5.461875 27.2382812,5.52125 C27.2085937,5.53 26.7089062,5.68421875 25.8823437,5.94 C25.0729687,3.6109375 23.6445312,1.470625 21.1315625,1.470625 C21.0621875,1.470625 20.9907812,1.4734375 20.919375,1.4775 C20.2046875,0.53234375 19.319375,0.12171875 18.5546875,0.12171875 C12.7007812,0.12171875 9.9040625,7.4396875 9.0271875,11.1584375 C6.7525,11.8632812 5.1365625,12.364375 4.93015625,12.4292187 C3.66046875,12.8275 3.6203125,12.8675 3.45359375,14.0639063 C3.328125,14.9696875 0.0059375,40.6617188 0.0059375,40.6617188 L25.893125,45.5120313 L39.9196875,42.4776563 C39.9196875,42.4776563 34.9957812,9.1875 34.9648437,8.959375 L34.9646875,8.959375 Z M24.4515625,6.3825 L22.2610937,7.06046875 C22.261875,6.90609375 22.2626562,6.75421875 22.2626562,6.588125 C22.2626562,5.140625 22.0617187,3.97515625 21.739375,3.05125 C23.0342187,3.21375 23.8965625,4.68703125 24.4515625,6.3825 Z M20.133125,3.33828125 C20.493125,4.2403125 20.7271875,5.53484375 20.7271875,7.28171875 C20.7271875,7.37109375 20.7264062,7.4528125 20.725625,7.53546875 C19.3010937,7.97671875 17.753125,8.45578125 16.2017187,8.93640625 C17.0728125,5.57453125 18.705625,3.95078125 20.133125,3.33828125 L20.133125,3.33828125 Z M18.3939062,1.691875 C18.6465625,1.691875 18.9010937,1.77765625 19.1446875,1.9453125 C17.2685937,2.828125 15.2576562,5.0515625 14.4084375,9.49171875 L10.8325,10.5992187 C11.8271875,7.2125 14.1890625,1.691875 18.39375,1.691875 L18.3939062,1.691875 Z" id="Shape" fill="#95BF46"></path>
                <path d="M34.5682812,8.59109375 C34.4034375,8.57734375 30.9146875,8.31875 30.9146875,8.31875 C30.9146875,8.31875 28.4917187,5.91328125 28.2257812,5.64703125 C28.12625,5.54796875 27.9920312,5.4971875 27.8517187,5.4753125 L25.894375,45.5117188 L39.9196875,42.4776562 C39.9196875,42.4776562 34.995625,9.1875 34.9646875,8.959375 C34.9332812,8.73125 34.7334375,8.605 34.5682812,8.59109375" id="Shape" fill="#5E8E3E"></path>
                <path d="M21.1315625,16.3414062 L19.4020312,21.4860937 C19.4020312,21.4860937 17.8867187,20.6773437 16.0292187,20.6773437 C13.3060937,20.6773437 13.1690625,22.38625 13.1690625,22.816875 C13.1690625,25.1665625 19.2940625,26.066875 19.2940625,31.570625 C19.2940625,35.9007812 16.5476562,38.6890625 12.8445312,38.6890625 C8.40078125,38.6890625 6.12828125,35.9234375 6.12828125,35.9234375 L7.318125,31.9921875 C7.318125,31.9921875 9.6540625,33.9976562 11.6251562,33.9976562 C12.913125,33.9976562 13.4370312,32.9835937 13.4370312,32.2426563 C13.4370312,29.1776562 8.41203125,29.0409375 8.41203125,24.0045313 C8.41203125,19.765625 11.4545312,15.6635938 17.5960937,15.6635938 C19.9625,15.6635938 21.1315625,16.3414063 21.1315625,16.3414063" id="Shape" fill="#FFFFFF"></path>
            </g>
        </g>
    </g>
</svg>
