<svg width="116" height="47" viewBox="0 0 116 47" fill="none" xmlns="http://www.w3.org/2000/svg">
<g id="ebay_icon" clip-path="url(#clip0_1899_276)">
<path id="Vector" d="M14.9999 10.1475C6.81796 10.1475 -4.19617e-05 13.6182 -4.19617e-05 24.0907C-4.19617e-05 32.3871 4.58463 37.6114 15.2107 37.6114C27.7185 37.6114 28.5202 29.3722 28.5202 29.3722H22.4598C22.4598 29.3722 21.1605 33.8087 14.8412 33.8087C9.69435 33.8087 5.99265 30.3318 5.99265 25.4588H29.1543V22.4006C29.1543 17.5795 26.0938 10.1475 14.9999 10.1475ZM14.7882 14.0558C19.6875 14.0558 23.0274 17.0572 23.0274 21.5556H6.12652C6.12652 16.7797 10.4864 14.0558 14.7882 14.0558Z" fill="#E53238"/>
<path id="Vector_2" d="M29.15 0.00683594V32.3526C29.15 34.1886 29.0189 36.7667 29.0189 36.7667H34.7991C34.7991 36.7667 35.0069 34.9152 35.0069 33.2228C35.0069 33.2228 37.8628 37.691 45.6284 37.691C53.8056 37.691 59.3603 32.0133 59.3603 23.8797C59.3603 16.3126 54.2583 10.2267 45.6415 10.2267C37.5726 10.2267 35.0653 14.5839 35.0653 14.5839V0.00683594H29.15ZM44.1495 14.2275C49.7027 14.2275 53.2342 18.349 53.2342 23.8797C53.2342 29.8105 49.1556 33.6902 44.1894 33.6902C38.2625 33.6902 35.0653 29.0622 35.0653 23.9323C35.0653 19.1523 37.934 14.2275 44.1495 14.2275Z" fill="#0064D2"/>
<path id="Vector_3" d="M73.7263 10.1475C61.4174 10.1475 60.6281 16.8869 60.6281 17.9641H66.7547C66.7547 17.9641 67.0758 14.0295 73.3038 14.0295C77.3507 14.0295 80.4867 15.8821 80.4867 19.4429V20.7105H73.3038C63.768 20.7105 58.7267 23.5002 58.7267 29.1613C58.7267 34.7323 63.3846 37.7634 69.6795 37.7634C78.2584 37.7634 81.0218 33.0232 81.0218 33.0232C81.0218 34.9087 81.1669 36.7667 81.1669 36.7667H86.6133C86.6133 36.7667 86.4024 34.4638 86.4024 32.9903V20.2551C86.4024 11.9045 79.6668 10.1475 73.7263 10.1475ZM80.4867 24.5132V26.2033C80.4867 28.4076 79.1263 33.888 71.1184 33.888C66.7334 33.888 64.8533 31.6996 64.8533 29.1609C64.8533 24.543 71.1846 24.5132 80.4867 24.5132Z" fill="#F5AF02"/>
<path id="Vector_4" d="M83.1029 11.2046H89.9952L99.8869 31.0221L109.756 11.2046H116L98.0235 46.4859H91.474L96.6611 36.6507L83.1029 11.2046Z" fill="#86B817"/>
</g>
<defs>
<clipPath id="clip0_1899_276">
<rect width="116" height="46.4928" fill="white"/>
</clipPath>
</defs>
</svg>
