<?xml version="1.0" encoding="UTF-8"?>
<svg width="28px" height="28px" viewBox="0 0 28 28" version="1.1" xmlns="http://www.w3.org/2000/svg" xmlns:xlink="http://www.w3.org/1999/xlink">
    <!-- Generator: Sketch 55 (78076) - https://sketchapp.com -->
    <title>Group</title>
    <desc>Created with Sketch.</desc>
    <g id="Page-1" stroke="none" stroke-width="1" fill="none" fill-rule="evenodd">
        <g id="Upgrade-confirmation" transform="translate(-425.000000, -177.000000)">
            <g id="Group-9" transform="translate(392.000000, 146.000000)">
                <g id="Group" transform="translate(33.000000, 31.000000)">
                    <path d="M14,28 C21.7319865,28 28,21.7319865 28,14 C28,6.2680135 21.7319865,0 14,0 C6.2680135,0 0,6.2680135 0,14 C0,21.7319865 6.2680135,28 14,28 Z" id="Oval-Copy" fill="#FFFFFF"></path>
                    <path d="M12.008708,20.3246471 L7.34211929,15.6580981 C6.88596024,15.2019429 6.88596024,14.4646282 7.34211929,14.008473 C7.79827833,13.5523179 8.53559935,13.5523179 8.9917584,14.008473 L12.7075297,17.7242127 L18.9000929,9.4667542 C19.2874198,8.95226717 20.0177409,8.84610318 20.533399,9.23342675 C21.049057,9.61958368 21.1528886,10.3510652 20.7667284,10.8667189 L13.7668453,20.1998169 C13.5638487,20.4704767 13.2535205,20.6396391 12.9163595,20.6641385 C12.88836,20.6653052 12.8603604,20.6664718 12.8335276,20.6664718 C12.5255327,20.6664718 12.2280377,20.5451415 12.008708,20.3246471 Z" id="success" fill="#98BF50"></path>
                </g>
            </g>
        </g>
    </g>
</svg>