<svg width="133" height="31" viewBox="0 0 133 31" fill="none" xmlns="http://www.w3.org/2000/svg">
<g clip-path="url(#clip0_1863_176)">
<path fill-rule="evenodd" clip-rule="evenodd" d="M38.6524 18.2059C38.1351 17.4839 37.2554 16.8934 36.1901 16.8934C34.217 16.8934 32.794 18.4428 32.794 20.5415C32.794 22.641 34.217 24.1902 36.1901 24.1902C37.1119 24.1902 37.9736 23.7857 38.4242 23.3828C38.4545 23.3557 38.47 23.3166 38.47 23.2754V22.137C38.47 22.0657 38.4138 22.0074 38.3442 22.0074H35.8065C35.7056 22.0074 35.6237 21.9231 35.6237 21.8195V20.1301C35.6237 20.0261 35.7056 19.9418 35.8065 19.9418H40.3566V17.4344L38.8875 18.2623C38.8093 18.3065 38.7054 18.2798 38.6524 18.2059ZM17.2926 19.3922H20.003C20.7792 19.3922 21.2645 18.9421 21.2645 18.226C21.2645 17.5426 20.7792 17.0598 20.003 17.0598H17.2926C17.1996 17.0598 17.1246 17.1375 17.1246 17.2329V19.2192C17.1246 19.3147 17.1996 19.3922 17.2926 19.3922ZM28.3121 25.9344C28.3121 26.0202 28.2447 26.0892 28.1618 26.0892H26.1663C26.083 26.0892 26.0156 26.0202 26.0156 25.9344V15.1326C26.0156 15.0472 26.083 14.9777 26.1663 14.9777H28.1618C28.2447 14.9777 28.3121 15.0472 28.3121 15.1326V25.9344ZM39.7831 0.0722357L19.9935 14.9777H20.5043C22.5582 14.9777 23.6091 16.3267 23.6091 17.8093C23.6091 18.9629 23.024 19.8148 22.2388 20.1914C22.1083 20.2542 22.113 20.4443 22.2463 20.5004C23.1617 20.8863 23.8197 21.8953 23.8197 23.0738C23.8197 24.7566 22.7522 26.0892 20.6824 26.0892H14.9963C14.9033 26.0892 14.8279 26.012 14.8279 25.9161V18.8681L0.148295 29.925C-0.13291 30.137 0.0123794 30.5961 0.361362 30.5961H39.9962C40.1952 30.5961 40.3567 30.4297 40.3567 30.2246V24.6326C39.296 25.6513 37.9016 26.2894 36.1898 26.2894C33.0205 26.2894 30.433 24.0406 30.433 20.5417C30.433 17.0264 33.0205 14.7943 36.1898 14.7943C38.1828 14.7943 39.5178 15.7243 40.3567 16.8604V0.371922C40.3567 0.0681222 40.0214 -0.107144 39.7831 0.0722357ZM17.2926 24.0067H20.1C20.9569 24.0067 21.4743 23.5403 21.4743 22.7407C21.4743 22.0413 20.9898 21.4745 20.1 21.4745H17.2926C17.1996 21.4745 17.1246 21.5522 17.1246 21.6476V23.8337C17.1246 23.9291 17.1996 24.0067 17.2926 24.0067ZM51.8591 23.6696L50.6222 23.0089C50.5425 22.9662 50.4419 22.9974 50.3936 23.0754C49.8705 23.9203 48.9054 24.5477 47.8567 24.5477C45.7977 24.5477 44.2691 22.8485 44.2691 20.5325C44.2691 18.1838 45.7977 16.5176 47.8567 16.5176C48.9047 16.5176 49.8694 17.1293 50.3929 17.9858C50.4416 18.0656 50.5433 18.0965 50.624 18.0515L51.8516 17.3626C51.9449 17.3103 51.9778 17.1903 51.9204 17.0974C51.1439 15.8384 49.8579 14.7851 47.8567 14.7851C44.7836 14.7851 42.3969 17.1012 42.3969 20.5325C42.3969 23.9478 44.7836 26.2802 47.8567 26.2802C49.8557 26.2802 51.1269 25.199 51.9298 23.9393C51.9907 23.8438 51.9572 23.722 51.8591 23.6696ZM58.3067 24.5477C56.1987 24.5477 54.8558 22.8152 54.8558 20.5326C54.8558 18.234 56.1987 16.5178 58.3067 16.5178C60.3988 16.5178 61.7572 18.234 61.7572 20.5326C61.7572 22.8152 60.3988 24.5477 58.3067 24.5477ZM56.8322 14.9795C54.5129 15.6179 52.9822 17.7683 52.9822 20.5326C52.9822 23.8481 55.1839 26.2803 58.3067 26.2803C60.9659 26.2803 62.9732 24.4987 63.4967 21.9063C64.3493 17.6847 60.7517 13.901 56.8322 14.9795ZM76.5844 14.9687H74.2172C74.112 14.9687 74.0175 15.0347 73.9789 15.1357L71.1161 22.7601L68.237 15.135C68.1984 15.0347 68.1039 14.9687 67.9986 14.9687H65.6311C65.5612 14.9687 65.5042 15.0274 65.5042 15.0994V25.9497C65.5042 26.0218 65.5612 26.0804 65.6311 26.0804H67.2697C67.3396 26.0804 67.3966 26.0218 67.3966 25.9497V17.5008L70.6892 26.0214C70.7029 26.057 70.7364 26.0804 70.7736 26.0804H71.4585C71.4957 26.0804 71.5292 26.057 71.5429 26.0214L74.8193 17.5008V25.9497C74.8193 26.0218 74.8759 26.0804 74.9462 26.0804H76.5844C76.6547 26.0804 76.7113 26.0218 76.7113 25.9497V15.0994C76.7113 15.0274 76.6547 14.9687 76.5844 14.9687ZM100.782 14.9687H93.7811C93.6733 14.9687 93.5861 15.0585 93.5861 15.1696V25.8796C93.5861 25.9906 93.6733 26.0804 93.7811 26.0804H100.782C100.889 26.0804 100.977 25.9906 100.977 25.8796V24.5655C100.977 24.4545 100.889 24.3645 100.782 24.3645H95.6735C95.5657 24.3645 95.4784 24.2747 95.4784 24.1637V21.4666C95.4784 21.3556 95.5657 21.2656 95.6735 21.2656H100.669C100.776 21.2656 100.864 21.1754 100.864 21.0647V19.7507C100.864 19.6397 100.776 19.5498 100.669 19.5498H95.6735C95.5657 19.5498 95.4784 19.46 95.4784 19.3489V16.8855C95.4784 16.7744 95.5657 16.6845 95.6735 16.6845H100.782C100.889 16.6845 100.977 16.5942 100.977 16.4836V15.1696C100.977 15.0585 100.889 14.9687 100.782 14.9687ZM108.162 20.2162H105.751C105.645 20.2162 105.558 20.1271 105.558 20.0172V16.8833C105.558 16.7734 105.645 16.6843 105.751 16.6843H108.162C109.229 16.6843 110.005 17.3676 110.005 18.4339C110.005 19.5165 109.229 20.2162 108.162 20.2162ZM109.646 21.6579C110.854 21.3445 111.945 20.2794 111.945 18.4503C111.945 16.3846 110.539 14.9688 108.404 14.9688H103.859C103.752 14.9688 103.666 15.058 103.666 15.1679V25.8812C103.666 25.9911 103.752 26.0806 103.859 26.0806H105.364C105.471 26.0806 105.558 25.9911 105.558 25.8812V22.1311C105.558 22.0212 105.645 21.9321 105.751 21.9321H107.34C107.408 21.9321 107.471 21.9692 107.506 22.0298L109.771 25.9825C109.806 26.0431 109.869 26.0806 109.938 26.0806H111.678C111.829 26.0806 111.923 25.9093 111.842 25.7767C111.343 24.9548 109.972 22.6983 109.521 21.9559C109.449 21.8385 109.516 21.6917 109.646 21.6579ZM126.806 16.6843H131.924C132.029 16.6843 132.114 16.5967 132.114 16.4882V15.1647C132.114 15.0566 132.029 14.9685 131.924 14.9685H124.914C124.809 14.9685 124.724 15.0566 124.724 15.1647V25.8842C124.724 25.9927 124.809 26.0803 124.914 26.0803H131.924C132.029 26.0803 132.114 25.9927 132.114 25.8842V24.5605C132.114 24.4525 132.029 24.3648 131.924 24.3648H126.806C126.701 24.3648 126.616 24.2768 126.616 24.1687V21.4617C126.616 21.3533 126.701 21.2656 126.806 21.2656H131.811C131.916 21.2656 132.001 21.178 132.001 21.0695V19.7458C132.001 19.6377 131.916 19.5497 131.811 19.5497H126.806C126.701 19.5497 126.616 19.462 126.616 19.3536V16.8804C126.616 16.772 126.701 16.6843 126.806 16.6843ZM122.793 23.6235L121.556 22.9628C121.476 22.9201 121.376 22.9513 121.327 23.0293C120.804 23.8742 119.839 24.5014 118.79 24.5014C116.732 24.5014 115.203 22.8024 115.203 20.4863C115.203 18.1376 116.732 16.4715 118.79 16.4715C119.839 16.4715 120.803 17.0832 121.327 17.9396C121.375 18.0195 121.477 18.0503 121.558 18.0054L122.785 17.3164C122.879 17.264 122.912 17.1437 122.854 17.0513C122.078 15.7922 120.792 14.7389 118.79 14.7389C115.717 14.7389 113.331 17.055 113.331 20.4863C113.331 23.9017 115.717 26.2341 118.79 26.2341C120.789 26.2341 122.061 25.1529 122.864 23.8931C122.925 23.7977 122.891 23.6759 122.793 23.6235ZM90.5548 14.9687H88.1876C88.0824 14.9687 87.9879 15.0347 87.9493 15.1357L85.0865 22.7601L82.2073 15.135C82.1688 15.0347 82.0743 14.9687 81.969 14.9687H79.6015C79.5316 14.9687 79.4746 15.0274 79.4746 15.0994V25.9497C79.4746 26.0218 79.5316 26.0804 79.6015 26.0804H81.2401C81.31 26.0804 81.367 26.0218 81.367 25.9497V17.5008L84.6596 26.0214C84.6733 26.057 84.7068 26.0804 84.744 26.0804H85.4289C85.4661 26.0804 85.4996 26.057 85.5133 26.0214L88.7897 17.5008V25.9497C88.7897 26.0218 88.8463 26.0804 88.9166 26.0804H90.5548C90.6251 26.0804 90.6817 26.0218 90.6817 25.9497V15.0994C90.6817 15.0274 90.6251 14.9687 90.5548 14.9687Z" fill="#34313F"/>
</g>
<defs>
<clipPath id="clip0_1863_176">
<rect width="132.114" height="30.8938" fill="white"/>
</clipPath>
</defs>
</svg>
