<svg width="260" height="160" viewBox="0 0 65 40" fill="none" xmlns="http://www.w3.org/2000/svg">
<path d="M65 0H0V40H65V0Z" fill="#001652"/>
<path fill-rule="evenodd" clip-rule="evenodd" d="M44.0809 10.9261L42.2457 20.3377H46.6558L47.0897 17.9884H45.098L46.485 10.9261H44.0809Z" fill="white"/>
<path fill-rule="evenodd" clip-rule="evenodd" d="M52.2111 13.0074C52.6095 13.0074 53.1714 13.1061 53.5199 13.219L53.9325 11.06C53.4275 10.9754 52.8869 10.9189 52.2822 10.9189C49.6576 10.9189 48.427 12.4711 48.427 14.2138C48.427 16.4856 50.7601 16.4573 50.7601 17.4239C50.7601 17.9107 50.4115 18.1788 49.6646 18.1788C49.1596 18.1788 48.434 18.0589 48.0144 17.9036L47.5662 20.2318C48.0499 20.3235 48.7329 20.3871 49.4299 20.3871C51.763 20.3871 53.4132 18.8419 53.4132 16.9723C53.4132 14.764 51.0659 14.7288 51.0659 13.7482C51.073 13.3177 51.3647 13.0074 52.2111 13.0074Z" fill="white"/>
<path fill-rule="evenodd" clip-rule="evenodd" d="M40.3464 10.9261C36.7329 10.9261 34.4211 13.6 34.4211 16.8878C34.4211 18.9409 35.5166 20.366 38.2622 20.366C39.3577 20.366 40.5029 20.1755 41.4276 19.7804L42.3097 15.2298H39.8912L39.3719 18.0025C39.1585 18.059 38.9024 18.0731 38.7104 18.0731C37.494 18.0731 37.0601 17.4028 37.0601 16.535C37.0601 14.8982 38.0702 13.205 40.133 13.205C40.7092 13.205 41.3494 13.3108 41.9185 13.4942C41.9753 13.5084 42.0393 13.5295 42.1033 13.5436C42.3097 13.6142 42.4732 13.6988 42.6084 13.7553L43.0921 11.2929C42.2598 11.0673 41.2569 10.9261 40.3464 10.9261Z" fill="white"/>
<mask id="mask0" mask-type="alpha" maskUnits="userSpaceOnUse" x="11" y="9" width="24" height="12">
<path d="M11.25 9H34.1082V20.3911H11.25V9Z" fill="white"/>
</mask>
<g mask="url(#mask0)">
<path fill-rule="evenodd" clip-rule="evenodd" d="M22.2292 10.9469L21.5819 14.0794H26.0632C22.3431 19.5261 14.981 18.6089 13.0319 16.3512C11.3603 14.404 12.8043 11.0669 17.7764 8.99963C12.847 10.4812 10.0942 14.3899 11.716 17.0144C13.5583 19.9917 19.2915 21.2334 24.3845 19.7871C27.7917 18.5947 29.2356 16.9298 29.7763 16.0338L28.9369 20.3585H32.2872L34.1081 10.9469H22.2292Z" fill="#FEBE10"/>
</g>
<path d="M13.7734 25.8517H14.6904V28.506C14.6904 28.8029 14.7256 29.0197 14.7959 29.1564C14.9053 29.3986 15.1436 29.5197 15.5107 29.5197C15.876 29.5197 16.1133 29.3986 16.2227 29.1564C16.293 29.0197 16.3281 28.8029 16.3281 28.506V25.8517H17.2451V28.506C17.2451 28.965 17.1738 29.3224 17.0312 29.5782C16.7656 30.047 16.2588 30.2814 15.5107 30.2814C14.7627 30.2814 14.2549 30.047 13.9873 29.5782C13.8447 29.3224 13.7734 28.965 13.7734 28.506V25.8517Z" fill="white"/>
<path d="M19.8115 26.9005C20.1416 26.9005 20.4111 26.9874 20.6201 27.1613C20.8311 27.3331 20.9365 27.6193 20.9365 28.0197V30.17H20.0811V28.2277C20.0811 28.0597 20.0586 27.9308 20.0137 27.8409C19.9316 27.6769 19.7754 27.5948 19.5449 27.5948C19.2617 27.5948 19.0674 27.715 18.9619 27.9552C18.9072 28.0822 18.8799 28.2443 18.8799 28.4415V30.17H18.0479V26.9825H18.8535V27.4484C18.9609 27.2843 19.0625 27.1661 19.1582 27.0939C19.3301 26.965 19.5479 26.9005 19.8115 26.9005Z" fill="white"/>
<path d="M22.5684 26.5958H21.7217V25.8253H22.5684V26.5958ZM21.7217 26.9767H22.5684V30.17H21.7217V26.9767Z" fill="white"/>
<path d="M23.0518 27.6007V27.006H23.4971V26.1154H24.3232V27.006H24.8418V27.6007H24.3232V29.2882C24.3232 29.4191 24.3398 29.5011 24.373 29.5343C24.4062 29.5656 24.5078 29.5812 24.6777 29.5812C24.7031 29.5812 24.7295 29.5812 24.7568 29.5812C24.7861 29.5792 24.8145 29.5773 24.8418 29.5753V30.1993L24.4463 30.214C24.0518 30.2277 23.7822 30.1593 23.6377 30.0089C23.5439 29.9132 23.4971 29.7657 23.4971 29.5665V27.6007H23.0518Z" fill="white"/>
<path d="M26.6377 27.5802C26.4443 27.5802 26.2939 27.6407 26.1865 27.7618C26.0811 27.8829 26.0146 28.047 25.9873 28.254H27.2852C27.2715 28.0333 27.2041 27.8663 27.083 27.7531C26.9639 27.6378 26.8154 27.5802 26.6377 27.5802ZM26.6377 26.8917C26.9033 26.8917 27.1426 26.9415 27.3555 27.0411C27.5684 27.1407 27.7441 27.298 27.8828 27.5128C28.0078 27.7023 28.0889 27.922 28.126 28.172C28.1475 28.3185 28.1562 28.5294 28.1523 28.8048H25.9668C25.9785 29.1251 26.0791 29.3497 26.2686 29.4786C26.3838 29.5587 26.5225 29.5988 26.6846 29.5988C26.8564 29.5988 26.9961 29.5499 27.1035 29.4523C27.1621 29.3995 27.2139 29.3263 27.2588 29.2325H28.1113C28.0898 29.422 27.9912 29.6144 27.8154 29.8097C27.542 30.1202 27.1592 30.2755 26.667 30.2755C26.2607 30.2755 25.9023 30.1447 25.5918 29.8829C25.2812 29.6212 25.126 29.1954 25.126 28.6056C25.126 28.0529 25.2656 27.629 25.5449 27.3341C25.8262 27.0392 26.1904 26.8917 26.6377 26.8917Z" fill="white"/>
<path d="M29.8955 26.9005C30.0889 26.9005 30.2607 26.9435 30.4111 27.0294C30.5615 27.1134 30.6836 27.2306 30.7773 27.381V25.8575H31.624V30.17H30.8125V29.7277C30.6934 29.9171 30.5576 30.0548 30.4053 30.1407C30.2529 30.2267 30.0635 30.2697 29.8369 30.2697C29.4639 30.2697 29.1494 30.1193 28.8936 29.8185C28.6396 29.5157 28.5127 29.1281 28.5127 28.6554C28.5127 28.1105 28.6377 27.6818 28.8877 27.3693C29.1396 27.0568 29.4756 26.9005 29.8955 26.9005ZM30.0771 29.5665C30.3135 29.5665 30.4932 29.4786 30.6162 29.3029C30.7393 29.1271 30.8008 28.8995 30.8008 28.6202C30.8008 28.2296 30.7021 27.9503 30.5049 27.7823C30.3838 27.6808 30.2432 27.63 30.083 27.63C29.8389 27.63 29.6592 27.7228 29.5439 27.9083C29.4307 28.0919 29.374 28.3204 29.374 28.5939C29.374 28.8888 29.4316 29.1251 29.5469 29.3029C29.6641 29.4786 29.8408 29.5665 30.0771 29.5665Z" fill="white"/>
<path d="M34.7764 28.837C34.8037 29.0343 34.8574 29.1818 34.9375 29.2794C35.084 29.4572 35.335 29.546 35.6904 29.546C35.9033 29.546 36.0762 29.5226 36.209 29.4757C36.4609 29.3859 36.5869 29.2189 36.5869 28.9747C36.5869 28.8322 36.5244 28.7218 36.3994 28.6437C36.2744 28.5675 36.0781 28.5001 35.8105 28.4415L35.3535 28.339C34.9043 28.2374 34.5938 28.1271 34.4219 28.0079C34.1309 27.8087 33.9854 27.4972 33.9854 27.0734C33.9854 26.6866 34.126 26.3654 34.4072 26.1095C34.6885 25.8536 35.1016 25.7257 35.6465 25.7257C36.1016 25.7257 36.4893 25.8468 36.8096 26.089C37.1318 26.3292 37.3008 26.6788 37.3164 27.1378H36.4492C36.4336 26.8781 36.3203 26.6935 36.1094 26.5841C35.9688 26.5118 35.7939 26.4757 35.585 26.4757C35.3525 26.4757 35.167 26.5226 35.0283 26.6163C34.8896 26.7101 34.8203 26.8409 34.8203 27.0089C34.8203 27.1632 34.8887 27.2784 35.0254 27.3546C35.1133 27.4054 35.3008 27.465 35.5879 27.5333L36.332 27.712C36.6582 27.7902 36.9043 27.8947 37.0703 28.0255C37.3281 28.2286 37.457 28.5226 37.457 28.9073C37.457 29.3019 37.3057 29.63 37.0029 29.8917C36.7021 30.1515 36.2764 30.2814 35.7256 30.2814C35.1631 30.2814 34.7207 30.1534 34.3984 29.8976C34.0762 29.6398 33.915 29.2863 33.915 28.837H34.7764Z" fill="white"/>
<path d="M37.7295 27.6007V27.006H38.1748V26.1154H39.001V27.006H39.5195V27.6007H39.001V29.2882C39.001 29.4191 39.0176 29.5011 39.0508 29.5343C39.084 29.5656 39.1855 29.5812 39.3555 29.5812C39.3809 29.5812 39.4072 29.5812 39.4346 29.5812C39.4639 29.5792 39.4922 29.5773 39.5195 29.5753V30.1993L39.124 30.214C38.7295 30.2277 38.46 30.1593 38.3154 30.0089C38.2217 29.9132 38.1748 29.7657 38.1748 29.5665V27.6007H37.7295Z" fill="white"/>
<path d="M41.8164 28.6173C41.7637 28.6505 41.71 28.6779 41.6553 28.6993C41.6025 28.7189 41.5293 28.7374 41.4355 28.755L41.248 28.7902C41.0723 28.8214 40.9463 28.8595 40.8701 28.9044C40.7412 28.9806 40.6768 29.0988 40.6768 29.2589C40.6768 29.4015 40.7158 29.505 40.7939 29.5695C40.874 29.632 40.9707 29.6632 41.084 29.6632C41.2637 29.6632 41.4287 29.6105 41.5791 29.505C41.7314 29.3995 41.8105 29.2072 41.8164 28.9279V28.6173ZM41.3096 28.2277C41.4639 28.2081 41.5742 28.1837 41.6406 28.1544C41.7598 28.1036 41.8193 28.0245 41.8193 27.9171C41.8193 27.7863 41.7734 27.6964 41.6816 27.6476C41.5918 27.5968 41.459 27.5714 41.2832 27.5714C41.0859 27.5714 40.9463 27.6202 40.8643 27.7179C40.8057 27.7902 40.7666 27.8878 40.7471 28.0109H39.9414C39.959 27.7316 40.0371 27.5021 40.1758 27.3224C40.3965 27.0411 40.7754 26.9005 41.3125 26.9005C41.6621 26.9005 41.9727 26.9698 42.2441 27.1085C42.5156 27.2472 42.6514 27.5089 42.6514 27.8937V29.3585C42.6514 29.4601 42.6533 29.5831 42.6572 29.7277C42.6631 29.837 42.6797 29.9113 42.707 29.9503C42.7344 29.9894 42.7754 30.0216 42.8301 30.047V30.17H41.9219C41.8965 30.1056 41.8789 30.045 41.8691 29.9884C41.8594 29.9318 41.8516 29.8673 41.8457 29.795C41.7305 29.92 41.5977 30.0265 41.4473 30.1144C41.2676 30.2179 41.0645 30.2697 40.8379 30.2697C40.5488 30.2697 40.3096 30.1876 40.1201 30.0236C39.9326 29.8575 39.8389 29.6232 39.8389 29.3204C39.8389 28.9279 39.9902 28.6437 40.293 28.4679C40.459 28.3722 40.7031 28.3038 41.0254 28.2628L41.3096 28.2277Z" fill="white"/>
<path d="M43.0674 27.6007V27.006H43.5127V26.1154H44.3389V27.006H44.8574V27.6007H44.3389V29.2882C44.3389 29.4191 44.3555 29.5011 44.3887 29.5343C44.4219 29.5656 44.5234 29.5812 44.6934 29.5812C44.7188 29.5812 44.7451 29.5812 44.7725 29.5812C44.8018 29.5792 44.8301 29.5773 44.8574 29.5753V30.1993L44.4619 30.214C44.0674 30.2277 43.7979 30.1593 43.6533 30.0089C43.5596 29.9132 43.5127 29.7657 43.5127 29.5665V27.6007H43.0674Z" fill="white"/>
<path d="M46.6533 27.5802C46.46 27.5802 46.3096 27.6407 46.2021 27.7618C46.0967 27.8829 46.0303 28.047 46.0029 28.254H47.3008C47.2871 28.0333 47.2197 27.8663 47.0986 27.7531C46.9795 27.6378 46.8311 27.5802 46.6533 27.5802ZM46.6533 26.8917C46.9189 26.8917 47.1582 26.9415 47.3711 27.0411C47.584 27.1407 47.7598 27.298 47.8984 27.5128C48.0234 27.7023 48.1045 27.922 48.1416 28.172C48.1631 28.3185 48.1719 28.5294 48.168 28.8048H45.9824C45.9941 29.1251 46.0947 29.3497 46.2842 29.4786C46.3994 29.5587 46.5381 29.5988 46.7002 29.5988C46.8721 29.5988 47.0117 29.5499 47.1191 29.4523C47.1777 29.3995 47.2295 29.3263 47.2744 29.2325H48.127C48.1055 29.422 48.0068 29.6144 47.8311 29.8097C47.5576 30.1202 47.1748 30.2755 46.6826 30.2755C46.2764 30.2755 45.918 30.1447 45.6074 29.8829C45.2969 29.6212 45.1416 29.1954 45.1416 28.6056C45.1416 28.0529 45.2812 27.629 45.5605 27.3341C45.8418 27.0392 46.2061 26.8917 46.6533 26.8917Z" fill="white"/>
<path d="M49.3838 29.1505C49.4014 29.299 49.4395 29.4044 49.498 29.4669C49.6016 29.5782 49.793 29.6339 50.0723 29.6339C50.2363 29.6339 50.3662 29.6095 50.4619 29.5607C50.5596 29.5118 50.6084 29.4386 50.6084 29.3409C50.6084 29.2472 50.5693 29.1759 50.4912 29.1271C50.4131 29.0782 50.123 28.9943 49.6211 28.8751C49.2598 28.7853 49.0049 28.673 48.8564 28.5382C48.708 28.4054 48.6338 28.214 48.6338 27.964C48.6338 27.6691 48.749 27.4161 48.9795 27.2052C49.2119 26.9923 49.5381 26.8859 49.958 26.8859C50.3564 26.8859 50.6807 26.9659 50.9307 27.1261C51.1826 27.2843 51.3271 27.5587 51.3643 27.9493H50.5293C50.5176 27.8419 50.4873 27.757 50.4385 27.6945C50.3467 27.5812 50.1904 27.5245 49.9697 27.5245C49.7881 27.5245 49.6582 27.5529 49.5801 27.6095C49.5039 27.6661 49.4658 27.7325 49.4658 27.8087C49.4658 27.9044 49.5068 27.9738 49.5889 28.0167C49.6709 28.0616 49.9609 28.1388 50.459 28.2482C50.791 28.3263 51.04 28.4445 51.2061 28.6027C51.3701 28.7628 51.4521 28.963 51.4521 29.2032C51.4521 29.5197 51.334 29.7784 51.0977 29.9796C50.8633 30.1788 50.5 30.2784 50.0078 30.2784C49.5059 30.2784 49.1348 30.173 48.8945 29.962C48.6562 29.7491 48.5371 29.4786 48.5371 29.1505H49.3838Z" fill="white"/>
</svg>
