<?xml version="1.0" encoding="UTF-8"?>
<svg width="16px" height="16px" viewBox="0 0 16 16" version="1.1" xmlns="http://www.w3.org/2000/svg" xmlns:xlink="http://www.w3.org/1999/xlink">
    <!-- Generator: sketchtool 57.1 (101010) - https://sketch.com -->
    <title>E7B64CB7-519D-445F-B613-42EB7C556091</title>
    <desc>Created with sketchtool.</desc>
    <g id="Errors" stroke="none" stroke-width="1" fill="none" fill-rule="evenodd">
        <g id="Zero-state---package-info-dropdown" transform="translate(-345.000000, -476.000000)" fill="#718087" fill-rule="nonzero">
            <g id="Group-7" transform="translate(292.000000, 165.000000)">
                <g id="Group-5" transform="translate(25.000000, 248.000000)">
                    <g id="Group-6">
                        <path d="M43,74 L41,74 L41,67 C41,66.4 40.6,66 40,66 L33,66 L33,64 C33,63.4 32.6,63 32,63 C31.4,63 31,63.4 31,64 L31,66 L29,66 C28.4,66 28,66.4 28,67 C28,67.6 28.4,68 29,68 L39,68 L39,74 L33,74 L33,71 C33,70.4 32.6,70 32,70 C31.4,70 31,70.4 31,71 L31,75 C31,75.6 31.4,76 32,76 L39,76 L39,78 C39,78.6 39.4,79 40,79 C40.6,79 41,78.6 41,78 L41,76 L43,76 C43.6,76 44,75.6 44,75 C44,74.4 43.6,74 43,74 Z" id="icon/16_customsdimensions"></path>
                    </g>
                </g>
            </g>
        </g>
    </g>
</svg>