<?xml version="1.0" encoding="UTF-8"?>
<svg width="16px" height="16px" viewBox="0 0 16 16" version="1.1" xmlns="http://www.w3.org/2000/svg" xmlns:xlink="http://www.w3.org/1999/xlink">
    <!-- Generator: sketchtool 56.2 (101010) - https://sketch.com -->
    <title>68479D3D-6766-4610-A89C-2B5D412DD824</title>
    <desc>Created with sketchtool.</desc>
    <g id="Errors" stroke="none" stroke-width="1" fill="none" fill-rule="evenodd">
        <g id="Zero-state---Parcel-info-added" transform="translate(-314.000000, -442.000000)" fill="#98BF50">
            <g id="Group-13" transform="translate(293.000000, 420.000000)">
                <g id="icon/16_success" transform="translate(21.000000, 22.000000)">
                    <path d="M8,16 C3.581722,16 0,12.418278 0,8 C0,3.581722 3.581722,0 8,0 C12.418278,0 16,3.581722 16,8 C16,12.418278 12.418278,16 8,16 Z M7.33333333,11.6496222 C7.6,11.6496222 7.73333333,11.5162889 7.86666667,11.3829555 L11.8666667,6.04962221 C12.0666667,5.78295554 12,5.31628888 11.7333333,5.11628888 C11.4666667,4.91628888 11,4.98295554 10.8,5.24962221 L7.26666667,9.98295554 L5.13333333,7.84962221 C4.86666667,7.58295554 4.46666667,7.58295554 4.2,7.84962221 C3.93333333,8.11628888 3.93333333,8.51628888 4.2,8.78295554 L6.86666667,11.4496222 C7,11.5829555 7.13333333,11.6496222 7.33333333,11.6496222 Z"></path>
                </g>
            </g>
        </g>
    </g>
</svg>