<svg width="140" height="72" viewBox="0 0 140 72" fill="none" xmlns="http://www.w3.org/2000/svg">
<path d="M22.7305 30.4172C22.7305 29.1937 23.7083 28.7229 25.328 28.7229C27.65 28.7229 30.5833 29.4448 32.9055 30.7311V23.3578C30.3695 22.3224 27.864 21.9145 25.328 21.9145C19.125 21.9145 15 25.2404 15 30.794C15 39.4533 26.611 38.0729 26.611 41.8067C26.611 43.2497 25.389 43.7205 23.6778 43.7205C21.1417 43.7205 17.9028 42.6536 15.336 41.2104V48.6778C18.1778 49.9328 21.05 50.466 23.6778 50.466C30.0333 50.466 34.4028 47.2346 34.4028 41.6183C34.3722 32.2685 22.7305 33.9313 22.7305 30.4172ZM43.386 15.6396L35.9305 17.271L35.9 42.4026C35.9 47.0464 39.2917 50.466 43.814 50.466C46.3195 50.466 48.1528 49.9955 49.161 49.4307V43.0615C48.1835 43.4694 43.3555 44.9127 43.3555 40.2691V29.1308H49.161V22.448H43.3555L43.386 15.6396ZM58.664 24.7696L58.175 22.448H51.575V49.9013H59.214V31.2959C61.0165 28.88 64.0722 29.3192 65.0195 29.6643V22.448C64.0417 22.0714 60.4667 21.3811 58.664 24.7696ZM66.8833 22.448H74.5528V49.9013H66.8833V22.448ZM66.8833 20.0634L74.5528 18.3692V12L66.8833 13.6629V20.0634ZM90.5028 21.9145C87.5083 21.9145 85.5833 23.3578 84.514 24.362L84.1165 22.4166H77.3945V59L85.0333 57.3373L85.064 48.458C86.164 49.2739 87.7833 50.4347 90.4722 50.4347C95.9417 50.4347 100.922 45.9166 100.922 35.9708C100.892 26.8718 95.85 21.9145 90.5028 21.9145ZM88.6695 43.5321C86.8667 43.5321 85.797 42.8734 85.064 42.0576L85.0333 30.4172C85.8278 29.5074 86.9278 28.88 88.6695 28.88C91.45 28.88 93.375 32.0801 93.375 36.1903C93.375 40.3946 91.4805 43.5321 88.6695 43.5321ZM125 36.2845C125 28.2524 121.211 21.9145 113.969 21.9145C106.697 21.9145 102.297 28.2526 102.297 36.2218C102.297 45.6656 107.492 50.4347 114.947 50.4347C118.583 50.4347 121.333 49.5876 123.411 48.3954V42.1202C121.333 43.1871 118.95 43.846 115.925 43.846C112.961 43.846 110.333 42.7792 109.997 39.0769H124.939C124.939 38.6688 125 37.0374 125 36.2845ZM109.906 33.3039C109.906 29.7585 112.014 28.2837 113.939 28.2837C115.803 28.2837 117.789 29.7585 117.789 33.3039H109.906Z" fill="#6772E5"/>
</svg>
