<svg width="24" height="24" viewBox="0 0 24 24" fill="none" xmlns="http://www.w3.org/2000/svg">
<path d="M5.05273 4L22 6.13244L10.1369 9.14029L5.05273 4Z" fill="#B5BF34"/>
<path d="M2 8.91596L22 6.13257L6.74747 12.1371L2 8.91596Z" fill="#169ED9"/>
<path d="M8.94727 7.93953L22 6.13257L10.1369 9.14042L8.94727 7.93953Z" fill="#7B9A4B"/>
<path d="M22 6.13257L4.44671 13.0461C4.44671 13.0461 4.42427 21.4861 4.44671 21.4524C4.44671 21.3851 22 6.13257 22 6.13257Z" fill="#ED7A23"/>
<path d="M6.74747 12.1371L8.16161 13.0461L22 6.13257L6.74747 12.1371Z" fill="#BA7432"/>
<path d="M22 6.13257L11.147 12.9451L12.6397 19.724L22 6.13257Z" fill="#C03F97"/>
<path d="M22 6.13257L11.147 12.9451L11.6296 15.1561L22 6.13257Z" fill="#AD3A73"/>
<path d="M22 6.13257L15.614 12.586L15.7935 20.4087L22 6.13257Z" fill="#F8E010"/>
<path d="M22 6.13257L15.614 12.485L15.6701 15.3245L22 6.13257Z" fill="#D79B29"/>
</svg>
