<svg width="48" height="40" viewBox="0 0 48 40" fill="none" xmlns="http://www.w3.org/2000/svg">
<g clip-path="url(#clip0_364_2665)">
<path d="M35.4417 12.6552V29.8966C35.4409 30.3367 35.3223 30.7679 35.0995 31.1423C34.8766 31.5167 34.5581 31.8195 34.1793 32.0173L20.2255 39.2586C19.9297 39.4071 19.607 39.4894 19.2786 39.5V19.4483L35.0098 11.2759C35.2927 11.6756 35.4442 12.1592 35.4417 12.6552Z" fill="#C9E698"/>
<path d="M35.0098 11.2758L19.2785 19.4482L1.22192 12.431C1.43692 12.0613 1.76414 11.7763 2.15217 11.6206L17.2187 4.31029C17.5075 4.18223 17.8184 4.11621 18.1324 4.11621C18.4465 4.11621 18.7572 4.18223 19.046 4.31029L33.9963 10.5172C34.3925 10.6731 34.7422 10.9348 35.0098 11.2758Z" fill="#D8EDB5"/>
<path d="M19.2785 19.4483V39.569C18.9368 39.585 18.596 39.5201 18.2819 39.3794L2.21857 32.2414C1.79896 32.0603 1.44068 31.7538 1.18927 31.3608C0.937866 30.9679 0.804714 30.5062 0.806634 30.0345V13.8104C0.80183 13.3274 0.947492 12.8557 1.22192 12.4656L19.2785 19.4483Z" fill="#C9E698"/>
<path d="M35.4417 12.6552V29.8966C35.4409 30.3367 35.3223 30.7679 35.0995 31.1423C34.8766 31.5167 34.5581 31.8195 34.1793 32.0173L20.2255 39.2586C19.9297 39.4071 19.607 39.4894 19.2786 39.5V19.4483L35.0098 11.2759C35.2927 11.6756 35.4442 12.1592 35.4417 12.6552V12.6552Z" stroke="#80BD28" stroke-linecap="round" stroke-linejoin="round"/>
<path d="M35.0098 11.2758L19.2785 19.4482L1.22192 12.431C1.43692 12.0613 1.76414 11.7763 2.15217 11.6206L17.2187 4.31029C17.5075 4.18223 17.8184 4.11621 18.1324 4.11621C18.4465 4.11621 18.7572 4.18223 19.046 4.31029L33.9963 10.5172C34.3925 10.6731 34.7422 10.9348 35.0098 11.2758Z" stroke="#80BD28" stroke-linecap="round" stroke-linejoin="round"/>
<path d="M19.2785 19.4483V39.569C18.9368 39.585 18.596 39.5201 18.2819 39.3794L2.21857 32.2414C1.79896 32.0603 1.44068 31.7538 1.18927 31.3608C0.937866 30.9679 0.804714 30.5062 0.806634 30.0345V13.8104C0.80183 13.3274 0.947492 12.8557 1.22192 12.4656L19.2785 19.4483Z" stroke="#80BD28" stroke-linecap="round" stroke-linejoin="round"/>
<path d="M19.2786 39.5679V39.5518" stroke="#80BD28" stroke-width="0.5" stroke-linecap="round" stroke-linejoin="round"/>
<path d="M26.7371 15.5345L9.69385 7.91382" stroke="#80BD28" stroke-linecap="round" stroke-linejoin="round"/>
<path d="M36.3054 23.1035C38.4687 23.1069 40.5842 22.444 42.3843 21.1987C44.1843 19.9534 45.588 18.1818 46.4173 16.1081C47.2467 14.0344 47.4645 11.7519 47.0433 9.54961C46.6221 7.34732 45.5808 5.32428 44.0511 3.73664C42.5215 2.149 40.5722 1.06817 38.4504 0.630976C36.3286 0.193783 34.1294 0.419885 32.1314 1.28068C30.1335 2.14148 28.4267 3.59825 27.2269 5.46654C26.0271 7.33483 25.3885 9.53063 25.3917 11.7759C25.3917 14.7802 26.5416 17.6614 28.5883 19.7857C30.635 21.91 33.4109 23.1035 36.3054 23.1035Z" fill="#D8EDB5"/>
<path d="M36.3053 0.431163C34.0878 0.440441 31.9255 1.14953 30.1054 2.46432C28.2853 3.77911 26.8936 5.63739 26.115 7.79245C25.3363 9.94751 25.2077 12.2974 25.7461 14.5302C26.2845 16.7629 27.4644 18.7729 29.1293 20.2932L44.5282 4.31047C43.5052 3.09042 42.2416 2.11265 40.823 1.44337C39.4044 0.774094 37.8636 0.428918 36.3053 0.431163Z" fill="white"/>
<path d="M36.3054 23.1035C38.4687 23.1069 40.5842 22.444 42.3843 21.1987C44.1843 19.9534 45.588 18.1818 46.4173 16.1081C47.2467 14.0344 47.4645 11.7519 47.0433 9.54961C46.6221 7.34732 45.5808 5.32428 44.0511 3.73664C42.5215 2.149 40.5722 1.06817 38.4504 0.630976C36.3286 0.193783 34.1294 0.419885 32.1314 1.28068C30.1335 2.14148 28.4267 3.59825 27.2269 5.46654C26.0271 7.33483 25.3885 9.53063 25.3917 11.7759C25.3917 14.7802 26.5416 17.6614 28.5883 19.7857C30.635 21.91 33.4109 23.1035 36.3054 23.1035V23.1035Z" stroke="#80BD28" stroke-linecap="round" stroke-linejoin="round"/>
<path d="M36.3053 3.4656C37.1117 3.46333 37.9105 3.62623 38.6561 3.94494C39.4017 4.26364 40.0795 4.73191 40.6504 5.32291C41.2214 5.91391 41.6744 6.61602 41.9835 7.38903C42.2926 8.16204 42.4517 8.99074 42.4517 9.82767C42.4517 12.707 38.3653 18.3104 36.8703 20.2759C36.7504 20.4243 36.5803 20.5194 36.395 20.5419C36.2097 20.5643 36.023 20.5124 35.8734 20.3966L35.7572 20.2759C34.2622 18.3104 30.1758 12.707 30.1758 9.82767C30.1758 8.14035 30.8216 6.52213 31.9712 5.32901C33.1207 4.13589 34.6796 3.4656 36.3053 3.4656Z" fill="#C9E698"/>
<path d="M36.3053 20.5171C36.2002 20.5148 36.097 20.4889 36.0024 20.4413C35.9078 20.3937 35.8241 20.3254 35.7572 20.2413C34.2622 18.2757 30.1758 12.6723 30.1758 9.79298C30.1758 8.10566 30.8216 6.48744 31.9712 5.29432C33.1207 4.1012 34.6797 3.43091 36.3053 3.43091V20.5171Z" fill="#D8EDB5"/>
<path d="M36.3053 3.4656C37.1117 3.46333 37.9105 3.62623 38.6561 3.94494C39.4017 4.26364 40.0795 4.73191 40.6504 5.32291C41.2214 5.91391 41.6744 6.61602 41.9835 7.38903C42.2926 8.16204 42.4517 8.99074 42.4517 9.82767C42.4517 12.707 38.3653 18.3104 36.8703 20.2759C36.7504 20.4243 36.5803 20.5194 36.395 20.5419C36.2097 20.5643 36.023 20.5124 35.8734 20.3966L35.7572 20.2759C34.2622 18.3104 30.1758 12.707 30.1758 9.82767C30.1758 8.14035 30.8216 6.52213 31.9712 5.32901C33.1207 4.13589 34.6796 3.4656 36.3053 3.4656V3.4656Z" stroke="#80BD28" stroke-linecap="round" stroke-linejoin="round"/>
<path d="M38.6643 9.7932C38.6676 10.2679 38.535 10.7329 38.2833 11.1293C38.0316 11.5257 37.6721 11.8356 37.2505 12.0196C36.8289 12.2036 36.364 12.2535 35.915 12.163C35.466 12.0725 35.0532 11.8456 34.7286 11.5112C34.404 11.1767 34.1823 10.7497 34.0919 10.2844C34.0014 9.81903 34.0462 9.33627 34.2204 8.89735C34.3947 8.45843 34.6906 8.08311 35.0707 7.819C35.4507 7.55489 35.8979 7.41389 36.3553 7.41388C36.6577 7.41161 36.9577 7.47149 37.2378 7.59004C37.5178 7.70859 37.7724 7.88349 37.987 8.10466C38.2017 8.32582 38.372 8.58887 38.4883 8.87867C38.6045 9.16847 38.6643 9.47929 38.6643 9.7932Z" fill="white" stroke="#80BD28" stroke-linecap="round" stroke-linejoin="round"/>
</g>
<defs>
<clipPath id="clip0_364_2665">
<rect width="48" height="40" fill="white"/>
</clipPath>
</defs>
</svg>
