<svg width="40" height="40" viewBox="0 0 40 40" fill="none" xmlns="http://www.w3.org/2000/svg">
<g clip-path="url(#clip0_364_2685)">
<path d="M24.2166 20.5104V7.90406C24.2307 7.66025 24.1715 7.41781 24.0464 7.20801H0.525994C0.400949 7.41781 0.341685 7.66025 0.355804 7.90406V24.2536C0.355804 24.7049 0.535263 25.1376 0.854474 25.4567C1.17369 25.7758 1.60665 25.9551 2.05808 25.9551H19.7756C20.5626 23.6708 22.1367 21.7409 24.2166 20.5104Z" fill="#C9E698"/>
<path d="M24.0773 7.20807H0.556885C0.620657 7.02151 0.726666 6.85214 0.866476 6.71309L6.70016 0.881679C7.02442 0.568575 7.45617 0.391473 7.90698 0.386719H16.7272C17.178 0.391473 17.6098 0.568575 17.934 0.881679L23.7677 6.71309C23.9075 6.85214 24.0135 7.02151 24.0773 7.20807Z" fill="#D8EDB5"/>
<path d="M14.0194 25.9552H2.08888C1.63745 25.9552 1.20467 25.7759 0.885462 25.4568C0.566252 25.1377 0.386792 24.7049 0.386792 24.2537V7.91958C0.382378 7.69531 0.424022 7.47252 0.509193 7.265C0.594364 7.05747 0.721355 6.86963 0.882062 6.71309L6.70026 0.881679C7.02452 0.568575 7.45626 0.391473 7.90708 0.386719H16.7273C17.1781 0.391473 17.6099 0.568575 17.9341 0.881679L23.7523 6.71309C23.913 6.86963 24.04 7.05747 24.1252 7.265C24.2104 7.47252 24.252 7.69531 24.2476 7.91958V14.0294" stroke="#80BD28" stroke-linecap="round" stroke-linejoin="round"/>
<path d="M24.1085 7.20801H0.526123" stroke="#80BD28" stroke-linecap="round" stroke-linejoin="round"/>
<path d="M12.3173 0.386719V7.20807" stroke="#80BD28" stroke-linecap="round" stroke-linejoin="round"/>
<path d="M29.3539 37.0455C30.8841 37.0455 32.3801 36.592 33.6525 35.7421C34.9248 34.8923 35.9165 33.6845 36.5021 32.2713C37.0877 30.8581 37.2407 29.303 36.9422 27.8028C36.6436 26.3025 35.9069 24.9245 34.8249 23.8429C33.7429 22.7612 32.3641 22.0247 30.8633 21.7262C29.3625 21.4278 27.807 21.581 26.3932 22.1664C24.9795 22.7517 23.771 23.743 22.9209 25.0149C22.0707 26.2867 21.6169 27.782 21.6169 29.3116C21.6169 31.3628 22.4321 33.3299 23.8831 34.7803C25.334 36.2307 27.3019 37.0455 29.3539 37.0455Z" fill="#D8EDB5"/>
<path d="M25.114 31.075H19.1411V37.0456" stroke="#80BD28" stroke-linecap="round" stroke-linejoin="round"/>
<path d="M38.6074 33.1786C37.9079 35.2296 36.5277 36.9797 34.6961 38.1386C32.8644 39.2976 30.6914 39.7955 28.5377 39.5499C26.3839 39.3043 24.3789 38.3298 22.8555 36.7882C21.3321 35.2467 20.3818 33.2307 20.1625 31.075" stroke="#80BD28" stroke-linecap="round" stroke-linejoin="round"/>
<path d="M33.6401 27.6565H39.5975V21.7014" stroke="#80BD28" stroke-linecap="round" stroke-linejoin="round"/>
<path d="M20.1315 25.5529C20.831 23.5019 22.2112 21.7518 24.0428 20.5928C25.8745 19.4339 28.0475 18.936 30.2012 19.1816C32.355 19.4272 34.36 20.4017 35.8834 21.9433C37.4068 23.4848 38.357 25.5008 38.5764 27.6565" stroke="#80BD28" stroke-linecap="round" stroke-linejoin="round"/>
</g>
<defs>
<clipPath id="clip0_364_2685">
<rect width="40" height="40" fill="white"/>
</clipPath>
</defs>
</svg>
