<?xml version="1.0" encoding="UTF-8"?>
<svg width="16px" height="16px" viewBox="0 0 16 16" version="1.1" xmlns="http://www.w3.org/2000/svg" xmlns:xlink="http://www.w3.org/1999/xlink">
    <!-- Generator: sketchtool 57.1 (101010) - https://sketch.com -->
    <title>60166BF0-CAB8-4FDB-8D03-A7697A2D3517</title>
    <desc>Created with sketchtool.</desc>
    <g id="Errors" stroke="none" stroke-width="1" fill="none" fill-rule="evenodd">
        <g id="Zero-state---package-info-dropdown" transform="translate(-345.000000, -508.000000)" fill="#718087" fill-rule="nonzero">
            <g id="Group-7" transform="translate(292.000000, 165.000000)">
                <g id="Group-5" transform="translate(25.000000, 248.000000)">
                    <g id="Group-6">
                        <path d="M36,95 C31.6,95 28,98.6 28,103 C28,107.4 31.6,111 36,111 C40.4,111 44,107.4 44,103 C44,98.6 40.4,95 36,95 Z M41.9,102 L40,102 C39.9,100.4 39.6,99 39.1,97.8 C40.5,98.7 41.6,100.2 41.9,102 Z M36,109 C35.5,109 34.3,107.2 34,104 L38,104 C37.7,107.2 36.5,109 36,109 Z M34,102 C34.2,98.8 35.5,97 36,97 C36.5,97 37.7,98.8 38,102 L34,102 Z M32.9,97.8 C32.5,99 32.1,100.4 32,102 L30.1,102 C30.4,100.2 31.5,98.7 32.9,97.8 Z M30.1,104 L32,104 C32.1,105.6 32.4,107 32.9,108.2 C31.5,107.3 30.4,105.8 30.1,104 Z M39.1,108.2 C39.5,107 39.9,105.6 40,104 L41.9,104 C41.6,105.8 40.5,107.3 39.1,108.2 Z" id="icon/16_carrierparcels"></path>
                    </g>
                </g>
            </g>
        </g>
    </g>
</svg>