<svg width="131" height="31" viewBox="0 0 131 31" fill="none" xmlns="http://www.w3.org/2000/svg">
<path d="M75.5649 16.4968C75.5649 13.4354 74.2447 10.7305 69.7798 10.7305C67.489 10.7305 65.6693 11.3786 64.6827 11.9458L65.4059 14.4019C66.3142 13.8363 67.7636 13.3704 69.1316 13.3704C71.3921 13.3672 71.7624 14.6365 71.7624 15.4525V15.649C66.8282 15.6411 63.709 17.3334 63.709 20.7799C63.709 22.8858 65.2925 24.8602 68.0606 24.8602C69.7495 24.8602 71.1765 24.1836 72.029 23.1156H72.112C72.112 23.1156 72.674 25.4497 75.7819 24.5575C75.6239 23.5799 75.5649 22.5499 75.5649 21.2981V16.4968ZM71.8838 19.7293C71.8838 19.9765 71.863 20.2332 71.7896 20.4535C71.5054 21.3963 70.5253 22.1854 69.3057 22.1854C68.2761 22.1854 67.4683 21.6071 67.4683 20.3948C67.4683 18.5409 69.5307 18.0306 71.8838 18.0433" fill="#0071CE"/>
<path d="M0.0224609 6.56519C0.0224609 6.56519 3.2454 19.6538 3.75785 21.774C4.36124 24.2523 5.44195 25.1682 8.56118 24.5581L10.5757 16.4419C11.085 14.4311 11.4313 12.9891 11.7602 10.9402H11.816C12.0443 13.0097 12.3732 14.4311 12.7898 16.4482C12.7898 16.4482 13.6119 20.1356 14.0382 22.0672C14.4532 23.9988 15.6217 25.2173 18.6819 24.5581L23.4772 6.56519H19.6061L17.9603 14.3487C17.5245 16.6035 17.1286 18.3798 16.8205 20.4461H16.7646C16.4869 18.402 16.1341 16.6986 15.6808 14.4897L13.9759 6.56519H9.93721L8.11738 14.2869C7.59856 16.6447 7.1133 18.5351 6.80838 20.5365H6.75572C6.44126 18.6587 6.01505 16.2676 5.56326 13.9985C5.56326 13.9985 4.48254 8.46986 4.10105 6.56519" fill="#0071CE"/>
<path d="M34.2653 16.4968C34.2653 13.4354 32.9419 10.7305 28.477 10.7305C26.1927 10.7305 24.3697 11.3786 23.3832 11.9458L24.1063 14.4019C25.0114 13.8363 26.4593 13.3704 27.8321 13.3704C30.0925 13.3672 30.4628 14.6365 30.4628 15.4525V15.649C25.5286 15.6411 22.4062 17.3334 22.4062 20.7799C22.4062 22.8858 23.9962 24.8602 26.7514 24.8602C28.4562 24.8602 29.8706 24.1836 30.7231 23.1156H30.8092C30.8092 23.1156 31.3743 25.4497 34.4792 24.5575C34.3196 23.5799 34.2653 22.5499 34.2653 21.2981V16.4968ZM30.581 19.7293C30.581 19.9765 30.5603 20.2332 30.49 20.4535C30.2026 21.3963 29.2225 22.1854 27.9998 22.1854C26.9765 22.1854 26.1656 21.6071 26.1656 20.3948C26.1656 18.5409 28.2279 18.0306 30.581 18.0433" fill="#0071CE"/>
<path d="M36.2739 6.56519V24.5518H39.9582V20.7377V6.56519H36.2739Z" fill="#0071CE"/>
<path d="M86.8726 6.56519V19.8361C86.8726 21.6679 87.2189 22.945 87.9644 23.7278C88.6189 24.4139 89.69 24.8608 90.9655 24.8608C92.0606 24.8608 93.1317 24.6516 93.6377 24.4694L93.593 21.6124C93.2147 21.6995 92.7821 21.774 92.1882 21.774C90.9304 21.774 90.5153 20.9833 90.5153 19.3385V14.2583H93.724V10.8214H90.5153V6.56519" fill="#0071CE"/>
<path d="M77.3501 11.0428V24.5577H81.1589V17.6362C81.1589 17.2638 81.1828 16.9422 81.2419 16.6443C81.526 15.1849 82.6418 14.2611 84.2493 14.2611C84.6979 14.2611 85.0028 14.3102 85.3413 14.3625V10.8193C85.057 10.7686 84.8639 10.7417 84.5143 10.7417C83.0888 10.7417 81.4733 11.6402 80.7917 13.5971H80.6976V11.0428" fill="#0071CE"/>
<path d="M42.0977 11.0428V24.5577H45.809V16.6253C45.809 16.2529 45.8505 15.8726 45.983 15.5287C46.2848 14.7253 47.0334 13.7952 48.2355 13.7952C49.7296 13.7952 50.4352 15.047 50.4352 16.8534V24.5577H54.1371V16.5302C54.1371 16.18 54.1866 15.7506 54.2903 15.44C54.5872 14.5289 55.3982 13.7952 56.5188 13.7952C58.0289 13.7952 58.76 15.0201 58.76 17.1498V24.5577H62.4586V16.5888C62.4586 12.4023 60.3132 10.7417 57.8772 10.7417C56.8061 10.7417 55.9537 11.0032 55.1874 11.4722C54.5393 11.8668 53.9711 12.4229 53.4618 13.1503H53.406C52.8201 11.6956 51.4441 10.7417 49.6466 10.7417C47.3415 10.7417 46.2943 11.8969 45.6782 12.873H45.6222V11.0428" fill="#0071CE"/>
<path d="M113.657 10.4361C114.385 10.4361 114.998 10.0589 115.078 9.57405L115.8 1.46099C115.8 0.657604 114.847 0 113.657 0C112.462 0 111.515 0.657604 111.515 1.46099L112.243 9.57405C112.32 10.0589 112.929 10.4361 113.657 10.4361Z" fill="#FFC220"/>
<path d="M109.23 12.9747C109.591 12.3408 109.57 11.6373 109.181 11.3235L102.444 6.64743C101.743 6.24178 100.694 6.72508 100.094 7.74872C99.4956 8.77077 99.6169 9.91801 100.303 10.3157L107.761 13.7479C108.239 13.9254 108.863 13.5958 109.23 12.9683" fill="#FFC220"/>
<path d="M118.084 12.9681C118.465 13.5956 119.089 13.9252 119.554 13.7573L127.012 10.3156C127.704 9.9099 127.808 8.77375 127.222 7.7517C126.624 6.72806 125.569 6.24793 124.869 6.64566L118.131 11.317C117.758 11.6355 117.731 12.3422 118.091 12.9745" fill="#FFC220"/>
<path d="M113.657 20.5703C114.385 20.5703 114.998 20.9474 115.078 21.4323L115.8 29.5454C115.8 30.3488 114.847 31 113.657 31C112.462 31 111.515 30.3488 111.515 29.5454L112.243 21.4323C112.32 20.9474 112.929 20.5703 113.657 20.5703Z" fill="#FFC220"/>
<path d="M118.084 18.0387C118.465 17.4096 119.089 17.0737 119.554 17.2559L127.012 20.6913C127.704 21.089 127.808 22.2347 127.222 23.2583C126.624 24.274 125.569 24.7573 124.869 24.3596L118.131 19.6819C117.758 19.3666 117.731 18.663 118.091 18.0387" fill="#FFC220"/>
<path d="M109.23 18.0317C109.591 18.6639 109.57 19.3659 109.181 19.6828L102.444 24.3526C101.743 24.7583 100.694 24.2734 100.094 23.2577C99.4956 22.2356 99.6169 21.0884 100.303 20.6906L107.761 17.2553C108.239 17.0746 108.863 17.4074 109.23 18.0317Z" fill="#FFC220"/>
<path d="M129.194 23.6477H129.287C129.413 23.6477 129.464 23.6873 129.478 23.7871C129.505 23.898 129.52 23.9725 129.547 24.0042H129.786C129.765 23.9804 129.738 23.9202 129.724 23.7808C129.697 23.6604 129.635 23.5922 129.547 23.5684V23.5463C129.668 23.5193 129.738 23.4385 129.738 23.3387C129.738 23.2484 129.697 23.1834 129.655 23.1422C129.576 23.1042 129.499 23.0741 129.33 23.0741C129.18 23.0741 129.069 23.0867 128.982 23.1073V24.0042H129.194V23.6477ZM129.2 23.2389L129.309 23.2246C129.437 23.2246 129.505 23.2832 129.505 23.3656C129.505 23.4575 129.413 23.5003 129.295 23.5003H129.2V23.2389ZM129.336 22.6304C128.813 22.6304 128.397 23.036 128.397 23.5336C128.397 24.0438 128.813 24.4495 129.336 24.4495C129.866 24.4495 130.268 24.0438 130.268 23.5336C130.268 23.036 129.866 22.6304 129.336 22.6304ZM129.336 22.8126C129.738 22.8126 130.037 23.1359 130.037 23.5336C130.037 23.9345 129.738 24.2672 129.336 24.2609C128.934 24.2609 128.629 23.9345 128.629 23.5336C128.629 23.1359 128.934 22.8126 129.33 22.8126" fill="#FFC220"/>
</svg>
