<?xml version="1.0" encoding="UTF-8"?>
<svg xmlns="http://www.w3.org/2000/svg" xmlns:xlink="http://www.w3.org/1999/xlink" width="260px" height="160px" viewBox="0 0 260 160" version="1.1">
<g id="surface1">
<path style=" stroke:none;fill-rule:evenodd;fill:rgb(58.039216%,61.176471%,67.45098%);fill-opacity:1;" d="M 135.632812 33.230469 C 135.632812 33.480469 135.6875 33.738281 135.753906 33.808594 C 135.816406 33.878906 135.941406 34.195312 136.027344 34.511719 C 136.113281 34.832031 136.269531 35.34375 136.378906 35.648438 C 136.597656 36.261719 136.980469 37.402344 137.601562 39.28125 C 137.679688 39.523438 137.800781 39.847656 137.867188 40 C 137.9375 40.152344 138.15625 40.804688 138.355469 41.445312 C 138.75 42.703125 138.847656 42.992188 139.113281 43.703125 C 139.210938 43.957031 139.433594 44.625 139.613281 45.1875 C 139.789062 45.746094 140.027344 46.464844 140.140625 46.789062 C 140.347656 47.378906 141.019531 49.375 141.410156 50.554688 C 141.527344 50.914062 141.710938 51.453125 141.816406 51.757812 C 142.121094 52.617188 142.925781 54.972656 143.109375 55.53125 C 143.199219 55.804688 143.5625 56.890625 143.921875 57.9375 C 144.707031 60.242188 144.753906 60.382812 145.78125 63.46875 L 146.597656 65.917969 L 146.179688 67.167969 C 145.949219 67.855469 145.6875 68.640625 145.601562 68.914062 C 145.421875 69.464844 144.636719 71.757812 144.277344 72.777344 C 144.15625 73.132812 143.902344 73.882812 143.722656 74.445312 C 143.542969 75.003906 143.179688 76.085938 142.914062 76.851562 C 142.648438 77.617188 142.332031 78.53125 142.210938 78.890625 C 142.09375 79.246094 141.902344 79.785156 141.792969 80.09375 C 141.683594 80.398438 141.515625 80.898438 141.425781 81.203125 C 141.335938 81.507812 141.140625 82.09375 140.992188 82.5 C 140.84375 82.90625 140.675781 83.40625 140.617188 83.609375 C 140.558594 83.8125 140.390625 84.3125 140.238281 84.722656 C 140.089844 85.128906 139.910156 85.671875 139.835938 85.925781 C 139.765625 86.179688 139.648438 86.511719 139.578125 86.667969 C 139.507812 86.820312 139.296875 87.445312 139.105469 88.054688 C 138.917969 88.667969 138.671875 89.417969 138.566406 89.722656 C 138.460938 90.027344 138.269531 90.589844 138.140625 90.972656 C 138.011719 91.355469 137.804688 91.980469 137.675781 92.359375 C 137.546875 92.742188 137.355469 93.304688 137.25 93.609375 C 136.894531 94.617188 136.121094 96.933594 136.078125 97.125 C 136.054688 97.230469 135.945312 97.511719 135.832031 97.757812 C 135.277344 98.980469 134.410156 98.890625 146.777344 98.890625 L 157.925781 98.890625 L 158.125 98.378906 C 158.234375 98.101562 158.378906 97.703125 158.445312 97.5 C 158.511719 97.296875 158.679688 96.796875 158.816406 96.390625 C 158.953125 95.980469 159.210938 95.191406 159.390625 94.628906 C 159.566406 94.070312 159.769531 93.484375 159.832031 93.332031 C 159.980469 92.992188 160.152344 92.480469 160.640625 90.925781 C 160.847656 90.261719 161.175781 89.304688 161.367188 88.796875 C 161.5625 88.285156 161.859375 87.425781 162.027344 86.882812 C 162.199219 86.339844 162.441406 85.589844 162.570312 85.214844 C 162.699219 84.84375 162.875 84.328125 162.960938 84.074219 C 163.042969 83.820312 163.214844 83.308594 163.339844 82.941406 C 163.460938 82.574219 163.628906 82.074219 163.707031 81.832031 C 163.789062 81.585938 163.910156 81.261719 163.972656 81.109375 C 164.039062 80.957031 164.242188 80.375 164.417969 79.8125 C 164.757812 78.753906 165.117188 77.671875 165.414062 76.8125 C 166.480469 73.738281 168.351562 68.121094 168.351562 67.984375 C 168.351562 67.886719 168.390625 67.78125 168.4375 67.746094 C 168.484375 67.714844 168.652344 67.28125 168.8125 66.789062 L 169.105469 65.894531 L 168.863281 65.1875 C 168.464844 64.027344 167.449219 60.988281 166.625 58.519531 C 166.203125 57.246094 165.8125 56.078125 165.757812 55.925781 C 165.703125 55.773438 165.078125 53.957031 164.375 51.886719 C 163.671875 49.816406 163.003906 47.859375 162.890625 47.535156 C 162.777344 47.210938 162.535156 46.484375 162.355469 45.925781 C 162.175781 45.367188 161.894531 44.53125 161.730469 44.074219 C 161.566406 43.617188 161.277344 42.742188 161.085938 42.128906 C 160.894531 41.519531 160.679688 40.894531 160.605469 40.742188 C 160.527344 40.585938 160.433594 40.277344 160.394531 40.046875 C 160.351562 39.816406 160.277344 39.628906 160.226562 39.628906 C 160.171875 39.628906 160.097656 39.449219 160.054688 39.226562 C 160.015625 39.003906 159.734375 38.109375 159.429688 37.234375 C 158.648438 34.996094 158.582031 34.804688 158.230469 33.734375 L 157.914062 32.777344 L 135.632812 32.777344 L 135.632812 33.230469 "/>
<path style=" stroke:none;fill-rule:evenodd;fill:rgb(26.666667%,58.039216%,95.686275%);fill-opacity:1;" d="M 123.847656 1.4375 C 123.59375 2.226562 123.261719 3.203125 123.113281 3.609375 C 122.96875 4.019531 122.800781 4.519531 122.742188 4.722656 C 122.683594 4.925781 122.515625 5.425781 122.363281 5.832031 C 122.214844 6.242188 122.035156 6.78125 121.960938 7.035156 C 121.890625 7.292969 121.679688 7.917969 121.492188 8.425781 C 121.308594 8.9375 121.125 9.476562 121.085938 9.628906 C 121.046875 9.78125 120.890625 10.242188 120.738281 10.648438 C 120.589844 11.054688 120.40625 11.597656 120.328125 11.851562 C 120.203125 12.285156 119.175781 15.3125 118.949219 15.925781 C 118.894531 16.078125 118.613281 16.914062 118.328125 17.777344 C 118.046875 18.644531 117.753906 19.519531 117.679688 19.722656 C 117.609375 19.925781 117.488281 20.300781 117.417969 20.554688 C 117.34375 20.808594 117.226562 21.144531 117.152344 21.296875 C 117.082031 21.449219 116.886719 22.011719 116.714844 22.550781 C 116.542969 23.085938 116.304688 23.808594 116.1875 24.15625 C 115.695312 25.585938 114.660156 28.632812 114.507812 29.097656 C 114.339844 29.613281 113.539062 31.960938 113.152344 33.070312 C 113.035156 33.414062 112.773438 34.214844 112.570312 34.855469 C 112.367188 35.496094 112.171875 36.058594 112.132812 36.109375 C 112.097656 36.164062 112.003906 36.414062 111.929688 36.667969 C 111.851562 36.921875 111.730469 37.296875 111.65625 37.5 C 111.582031 37.703125 111.386719 38.285156 111.226562 38.796875 C 111.0625 39.304688 110.839844 39.972656 110.730469 40.277344 C 110.457031 41.035156 110.097656 42.117188 109.710938 43.332031 C 109.53125 43.894531 109.332031 44.476562 109.265625 44.628906 C 109.199219 44.78125 109.082031 45.105469 109 45.351562 C 108.566406 46.660156 108.390625 47.183594 108.210938 47.6875 C 108.101562 47.992188 107.953125 48.449219 107.878906 48.703125 C 107.808594 48.957031 107.691406 49.292969 107.625 49.445312 C 107.554688 49.597656 107.335938 50.222656 107.140625 50.832031 C 106.769531 51.984375 106.632812 52.398438 106.238281 53.550781 C 105.800781 54.824219 103.890625 60.503906 103.71875 61.042969 C 103.515625 61.671875 103.265625 62.40625 102.558594 64.449219 C 102.140625 65.65625 102.0625 66.007812 102.167969 66.21875 C 102.296875 66.488281 102.339844 66.613281 103.011719 68.75 C 103.210938 69.386719 103.441406 70.039062 103.527344 70.199219 C 103.605469 70.359375 103.675781 70.582031 103.675781 70.695312 C 103.675781 70.808594 103.738281 71.011719 103.816406 71.144531 C 103.894531 71.277344 104.035156 71.640625 104.125 71.945312 C 104.464844 73.082031 105.007812 74.730469 105.132812 75 C 105.203125 75.152344 105.316406 75.488281 105.386719 75.742188 C 105.460938 75.996094 105.609375 76.453125 105.71875 76.757812 C 105.898438 77.261719 106.078125 77.785156 106.507812 79.09375 C 106.589844 79.335938 106.707031 79.664062 106.773438 79.8125 C 106.839844 79.96875 107.039062 80.550781 107.21875 81.109375 C 107.589844 82.269531 107.949219 83.355469 108.234375 84.167969 C 108.34375 84.472656 108.628906 85.304688 108.875 86.019531 C 109.117188 86.730469 109.363281 87.441406 109.417969 87.59375 C 109.476562 87.746094 110.089844 89.578125 110.785156 91.667969 C 111.476562 93.753906 112.308594 96.234375 112.632812 97.175781 L 113.222656 98.890625 L 124.425781 98.890625 C 132.476562 98.890625 135.632812 98.832031 135.632812 98.6875 C 135.632812 98.574219 135.542969 98.261719 135.433594 97.992188 C 135.324219 97.722656 135.203125 97.375 135.164062 97.222656 C 135.128906 97.070312 134.972656 96.609375 134.824219 96.203125 C 134.550781 95.449219 134.191406 94.417969 133.898438 93.535156 C 133.808594 93.265625 133.449219 92.171875 133.097656 91.105469 C 132.742188 90.039062 132.414062 89.140625 132.363281 89.105469 C 132.316406 89.070312 132.273438 88.890625 132.273438 88.699219 C 132.273438 88.511719 132.230469 88.308594 132.171875 88.246094 C 132.085938 88.15625 131.644531 86.898438 130.976562 84.839844 C 130.777344 84.226562 129.601562 80.777344 129.273438 79.847656 C 129.144531 79.472656 128.996094 79.039062 128.949219 78.886719 C 128.824219 78.480469 127.96875 75.941406 127.703125 75.1875 C 127.578125 74.828125 127.304688 73.996094 127.09375 73.332031 C 126.882812 72.671875 126.675781 72.085938 126.628906 72.035156 C 126.585938 71.980469 126.492188 71.730469 126.425781 71.476562 C 126.359375 71.226562 126.25 70.851562 126.175781 70.648438 C 126.105469 70.445312 125.828125 69.609375 125.566406 68.796875 C 125.300781 67.980469 125.054688 67.273438 125.015625 67.222656 C 124.6875 66.789062 124.597656 65.890625 124.820312 65.222656 C 124.945312 64.84375 125.195312 64.078125 125.375 63.519531 C 125.554688 62.957031 125.792969 62.300781 125.902344 62.058594 C 126.011719 61.816406 126.101562 61.511719 126.101562 61.386719 C 126.101562 61.261719 126.171875 61.050781 126.261719 60.925781 C 126.351562 60.800781 126.425781 60.539062 126.425781 60.347656 C 126.425781 60.15625 126.464844 60 126.511719 60 C 126.5625 60 126.683594 59.730469 126.78125 59.398438 C 126.878906 59.066406 127.082031 58.464844 127.230469 58.054688 C 127.378906 57.648438 127.59375 57.023438 127.703125 56.667969 C 127.917969 55.980469 128.277344 54.898438 128.601562 53.980469 C 128.707031 53.675781 128.863281 53.21875 128.949219 52.964844 C 129.03125 52.707031 129.203125 52.1875 129.332031 51.804688 C 129.5625 51.128906 129.832031 50.316406 130.125 49.421875 C 130.207031 49.179688 130.324219 48.855469 130.390625 48.703125 C 130.457031 48.550781 130.671875 47.925781 130.867188 47.3125 C 131.25 46.125 131.402344 45.667969 131.769531 44.601562 C 132.164062 43.457031 132.78125 41.613281 133.03125 40.832031 C 133.160156 40.425781 133.359375 39.84375 133.472656 39.535156 C 133.585938 39.230469 133.8125 38.5625 133.972656 38.054688 C 134.136719 37.546875 134.332031 36.964844 134.40625 36.757812 C 134.480469 36.554688 134.601562 36.179688 134.679688 35.925781 C 134.753906 35.671875 134.84375 35.421875 134.878906 35.371094 C 134.914062 35.320312 135.113281 34.734375 135.316406 34.074219 C 135.519531 33.414062 135.714844 32.828125 135.75 32.777344 C 135.789062 32.726562 135.886719 32.464844 135.96875 32.191406 C 136.113281 31.714844 136.84375 29.570312 137.25 28.425781 C 137.535156 27.617188 137.894531 26.53125 138.265625 25.371094 C 138.441406 24.808594 138.648438 24.226562 138.722656 24.074219 C 138.796875 23.921875 138.875 23.710938 138.898438 23.605469 C 138.9375 23.414062 139.730469 21.027344 140.128906 19.898438 C 140.429688 19.046875 141.148438 16.875 141.351562 16.203125 C 141.445312 15.898438 141.550781 15.605469 141.589844 15.554688 C 141.632812 15.503906 141.738281 15.214844 141.824219 14.90625 C 141.914062 14.601562 142.089844 14.050781 142.214844 13.683594 C 142.335938 13.3125 142.503906 12.8125 142.582031 12.570312 C 142.664062 12.328125 142.785156 12.003906 142.847656 11.851562 C 142.914062 11.699219 143.117188 11.117188 143.292969 10.554688 C 143.652344 9.429688 144.019531 8.320312 144.289062 7.5625 C 144.566406 6.769531 145.746094 3.300781 145.925781 2.746094 C 146.015625 2.46875 146.246094 1.78125 146.441406 1.214844 C 146.632812 0.652344 146.792969 0.148438 146.792969 0.09375 C 146.792969 0.0429688 141.734375 0 135.550781 0.00390625 L 124.3125 0.00390625 L 123.847656 1.4375 M 98.53125 76.34375 C 98.304688 77.082031 98.078125 77.730469 98.03125 77.785156 C 97.984375 77.835938 97.90625 78.046875 97.855469 78.246094 C 97.777344 78.578125 97.164062 80.441406 96.5625 82.191406 C 96.433594 82.566406 96.257812 83.078125 96.175781 83.332031 C 95.785156 84.5 95.503906 85.320312 95.324219 85.832031 C 95.214844 86.140625 95.0625 86.597656 94.976562 86.851562 C 94.894531 87.105469 94.722656 87.628906 94.59375 88.007812 C 94.464844 88.390625 94.253906 89.015625 94.125 89.398438 C 94 89.78125 93.804688 90.34375 93.695312 90.648438 C 93.582031 90.953125 93.433594 91.414062 93.363281 91.667969 C 93.292969 91.921875 93.175781 92.253906 93.101562 92.40625 C 93.03125 92.558594 92.835938 93.125 92.664062 93.664062 C 92.492188 94.199219 92.246094 94.949219 92.113281 95.328125 C 91.980469 95.707031 91.808594 96.226562 91.734375 96.480469 C 91.660156 96.738281 91.464844 97.3125 91.300781 97.769531 C 91.136719 98.21875 91 98.65625 91 98.738281 C 91 98.820312 94.632812 98.890625 99.070312 98.890625 C 103.511719 98.890625 107.140625 98.839844 107.140625 98.78125 C 107.140625 98.71875 106.957031 98.128906 106.734375 97.460938 C 106.511719 96.796875 106.160156 95.730469 105.949219 95.09375 C 105.742188 94.457031 105.515625 93.820312 105.449219 93.679688 C 105.382812 93.539062 105.292969 93.238281 105.25 93.007812 C 105.210938 92.78125 105.136719 92.59375 105.082031 92.59375 C 105.03125 92.59375 104.957031 92.417969 104.917969 92.207031 C 104.84375 91.796875 103.820312 88.6875 103.402344 87.59375 C 103.269531 87.234375 103.035156 86.570312 102.890625 86.109375 C 102.742188 85.652344 102.519531 84.984375 102.394531 84.628906 C 102.269531 84.273438 102.089844 83.730469 102 83.425781 C 101.910156 83.121094 101.710938 82.535156 101.5625 82.128906 C 101.410156 81.722656 101.242188 81.222656 101.183594 81.019531 C 101.125 80.8125 100.957031 80.3125 100.808594 79.90625 C 100.660156 79.5 100.300781 78.417969 100.003906 77.5 C 99.046875 74.519531 99.085938 74.550781 98.53125 76.34375 "/>
<path style=" stroke:none;fill-rule:evenodd;fill:rgb(29.019608%,36.078431%,42.352941%);fill-opacity:1;" d="M 41.863281 124.8125 C 41.863281 126.902344 41.878906 127.757812 41.898438 126.714844 C 41.917969 125.667969 41.917969 123.960938 41.898438 122.917969 C 41.878906 121.871094 41.863281 122.726562 41.863281 124.8125 M 152.449219 140.140625 C 152.464844 150.605469 152.488281 156.082031 152.503906 152.3125 C 152.578125 134.296875 152.578125 121.109375 152.507812 121.109375 C 152.460938 121.109375 152.4375 129.671875 152.449219 140.140625 M 82.574219 140.035156 C 82.5625 150.394531 82.585938 158.90625 82.632812 158.953125 C 82.703125 159.03125 82.703125 145.714844 82.628906 127.964844 C 82.613281 124.246094 82.589844 129.679688 82.574219 140.035156 M 68.085938 143.890625 C 68.085938 152.191406 68.097656 155.585938 68.113281 151.4375 C 68.132812 147.285156 68.132812 140.492188 68.113281 136.34375 C 68.097656 132.191406 68.085938 135.585938 68.085938 143.890625 M 109.28125 146.804688 C 109.773438 146.839844 110.578125 146.839844 111.070312 146.804688 C 111.558594 146.769531 111.15625 146.742188 110.175781 146.742188 C 109.191406 146.742188 108.789062 146.769531 109.28125 146.804688 M 158.363281 146.804688 C 158.855469 146.839844 159.636719 146.839844 160.09375 146.804688 C 160.554688 146.769531 160.148438 146.742188 159.195312 146.742188 C 158.242188 146.742188 157.867188 146.769531 158.363281 146.804688 "/>
<path style=" stroke:none;fill-rule:evenodd;fill:rgb(29.803922%,32.941176%,42.352941%);fill-opacity:1;" d="M 249.824219 119.808594 C 249.746094 119.890625 249.53125 119.933594 249.34375 119.90625 C 249.15625 119.878906 248.960938 119.902344 248.90625 119.957031 C 248.792969 120.070312 248.144531 120.226562 247.785156 120.226562 C 247.652344 120.222656 247.566406 120.292969 247.597656 120.371094 C 247.625 120.453125 247.550781 120.476562 247.433594 120.425781 C 247.3125 120.371094 247.214844 120.398438 247.214844 120.488281 C 247.214844 120.574219 247.066406 120.667969 246.878906 120.6875 C 246.695312 120.710938 246.46875 120.832031 246.382812 120.957031 C 246.292969 121.085938 246.144531 121.207031 246.050781 121.230469 C 245.960938 121.253906 245.84375 121.382812 245.792969 121.515625 C 245.746094 121.648438 245.703125 121.691406 245.703125 121.609375 C 245.695312 121.179688 244.074219 123.058594 244.074219 123.496094 C 244.070312 123.757812 244.058594 123.761719 243.964844 123.519531 C 243.878906 123.285156 243.859375 123.300781 243.859375 123.59375 C 243.859375 123.792969 243.828125 123.898438 243.792969 123.839844 C 243.589844 123.492188 242.144531 127.015625 242.308594 127.460938 C 242.34375 127.5625 242.328125 127.597656 242.269531 127.539062 C 242.175781 127.441406 241.957031 128.601562 241.90625 129.445312 C 241.765625 131.789062 241.882812 134.816406 242.117188 134.960938 C 242.164062 134.988281 242.179688 135.210938 242.152344 135.449219 C 242.121094 135.722656 242.179688 136.023438 242.3125 136.242188 C 242.425781 136.4375 242.5 136.6875 242.480469 136.796875 C 242.457031 136.90625 242.511719 137.117188 242.601562 137.269531 C 242.691406 137.421875 242.734375 137.601562 242.699219 137.664062 C 242.660156 137.726562 242.683594 137.777344 242.75 137.777344 C 242.816406 137.777344 242.902344 137.949219 242.941406 138.164062 C 242.980469 138.375 243.03125 138.515625 243.054688 138.476562 C 243.074219 138.4375 243.375 138.859375 243.71875 139.414062 C 244.28125 140.320312 244.71875 140.777344 244.984375 140.726562 C 245.035156 140.714844 245.117188 140.8125 245.164062 140.9375 C 245.25 141.183594 245.960938 141.691406 246.269531 141.722656 C 246.371094 141.738281 246.457031 141.792969 246.457031 141.851562 C 246.457031 141.910156 246.578125 141.972656 246.722656 141.992188 C 247.128906 142.050781 247.265625 142.117188 247.339844 142.285156 C 247.375 142.371094 247.644531 142.46875 247.933594 142.496094 C 248.222656 142.527344 248.546875 142.613281 248.648438 142.683594 C 248.75 142.753906 248.898438 142.773438 248.972656 142.726562 C 249.050781 142.679688 249.191406 142.710938 249.289062 142.800781 C 249.386719 142.882812 249.730469 142.996094 250.046875 143.042969 C 251.441406 143.257812 251.941406 143.355469 252.109375 143.441406 C 252.210938 143.492188 252.378906 143.570312 252.488281 143.609375 C 252.867188 143.761719 253.664062 144.285156 253.765625 144.457031 C 253.820312 144.550781 253.957031 144.628906 254.070312 144.628906 C 254.179688 144.628906 254.246094 144.703125 254.214844 144.789062 C 254.179688 144.878906 254.253906 145.101562 254.371094 145.285156 C 255.1875 146.550781 255.28125 149.515625 254.527344 150.40625 C 254.46875 150.476562 254.277344 150.726562 254.105469 150.960938 C 253.929688 151.195312 253.746094 151.398438 253.699219 151.414062 C 253.648438 151.425781 253.570312 151.445312 253.519531 151.457031 C 253.472656 151.472656 253.324219 151.652344 253.195312 151.859375 C 253.066406 152.066406 252.957031 152.144531 252.957031 152.03125 C 252.957031 151.828125 252.53125 151.960938 252.417969 152.199219 C 252.246094 152.558594 249.285156 152.488281 249.074219 152.125 C 249.050781 152.082031 248.9375 152.132812 248.828125 152.234375 C 248.675781 152.375 248.625 152.355469 248.625 152.167969 C 248.625 152.019531 248.523438 151.929688 248.382812 151.949219 C 248.246094 151.964844 248.113281 151.929688 248.082031 151.863281 C 248.054688 151.800781 247.664062 151.507812 247.214844 151.21875 C 246.769531 150.925781 246.320312 150.5625 246.214844 150.40625 C 246.109375 150.253906 246.023438 150.203125 246.023438 150.296875 C 246.023438 150.386719 245.984375 150.378906 245.941406 150.277344 C 245.746094 149.816406 244.746094 148.542969 244.675781 148.664062 C 244.632812 148.734375 244.613281 148.707031 244.632812 148.597656 C 244.6875 148.3125 243.984375 146.996094 243.855469 147.132812 C 243.796875 147.195312 243.777344 147.335938 243.820312 147.449219 C 243.859375 147.558594 243.84375 147.597656 243.78125 147.535156 C 243.644531 147.390625 243.175781 148.21875 243.289062 148.410156 C 243.335938 148.488281 243.324219 148.523438 243.261719 148.488281 C 243.113281 148.410156 242.550781 149.277344 242.621094 149.472656 C 242.652344 149.558594 242.636719 149.628906 242.589844 149.628906 C 242.539062 149.628906 242.339844 149.878906 242.140625 150.1875 C 241.945312 150.492188 241.820312 150.742188 241.863281 150.742188 C 241.902344 150.742188 241.714844 151.097656 241.441406 151.53125 C 241.167969 151.964844 240.957031 152.457031 240.972656 152.625 C 241.035156 153.359375 242.699219 156.386719 242.925781 156.171875 C 242.992188 156.105469 243.011719 156.117188 242.96875 156.195312 C 242.886719 156.355469 243.132812 156.851562 243.296875 156.851562 C 243.351562 156.851562 243.460938 156.980469 243.535156 157.132812 C 243.609375 157.289062 243.695312 157.375 243.726562 157.328125 C 243.753906 157.277344 243.933594 157.441406 244.125 157.691406 C 244.316406 157.941406 244.503906 158.089844 244.546875 158.023438 C 244.585938 157.957031 244.617188 158 244.617188 158.117188 C 244.617188 158.234375 244.667969 158.332031 244.730469 158.332031 C 244.792969 158.332031 244.816406 158.230469 244.777344 158.101562 C 244.738281 157.972656 244.777344 158.015625 244.863281 158.191406 C 244.949219 158.367188 245.046875 158.457031 245.085938 158.390625 C 245.125 158.324219 245.160156 158.359375 245.160156 158.46875 C 245.160156 158.675781 246.324219 159.386719 246.503906 159.292969 C 246.558594 159.261719 246.628906 159.316406 246.664062 159.414062 C 246.699219 159.507812 246.925781 159.632812 247.164062 159.6875 C 247.40625 159.746094 247.746094 159.886719 247.917969 160 C 248.09375 160.113281 248.359375 160.183594 248.511719 160.15625 C 248.664062 160.128906 248.839844 160.160156 248.902344 160.230469 C 249.054688 160.390625 252.414062 160.339844 252.472656 160.175781 C 252.5 160.105469 252.648438 160.09375 252.808594 160.144531 C 253.027344 160.214844 253.078125 160.179688 253.011719 159.996094 C 252.953125 159.835938 252.96875 159.800781 253.054688 159.894531 C 253.171875 160.019531 254.054688 159.769531 254.476562 159.496094 C 254.648438 159.378906 254.769531 159.332031 254.996094 159.289062 C 255.074219 159.273438 255.101562 159.164062 255.0625 159.046875 C 255.015625 158.917969 255.03125 158.882812 255.101562 158.957031 C 255.234375 159.09375 255.726562 158.773438 256.039062 158.34375 C 256.152344 158.1875 256.210938 158.160156 256.167969 158.285156 C 256.066406 158.574219 257.300781 157.453125 257.464844 157.105469 C 257.53125 156.964844 257.636719 156.851562 257.699219 156.851562 C 257.816406 156.851562 257.988281 156.3125 257.957031 156.050781 C 257.945312 155.964844 257.988281 155.953125 258.050781 156.019531 C 258.199219 156.175781 258.726562 155.226562 258.636719 154.972656 C 258.601562 154.875 258.671875 154.746094 258.796875 154.6875 C 258.921875 154.632812 258.996094 154.511719 258.964844 154.421875 C 258.929688 154.332031 258.953125 154.257812 259.015625 154.257812 C 259.078125 154.257812 259.09375 154.121094 259.058594 153.949219 C 259.015625 153.765625 259.03125 153.6875 259.097656 153.757812 C 259.15625 153.820312 259.316406 153.441406 259.449219 152.910156 C 259.582031 152.378906 259.757812 151.671875 259.84375 151.335938 C 260.035156 150.585938 260.042969 150.1875 259.863281 150.183594 C 259.761719 150.179688 259.757812 150.148438 259.859375 150.039062 C 260.304688 149.558594 259.820312 143.351562 259.257812 142.28125 C 259.160156 142.097656 259.078125 141.820312 259.078125 141.667969 C 259.078125 141.511719 259.015625 141.414062 258.9375 141.441406 C 258.855469 141.46875 258.820312 141.414062 258.855469 141.316406 C 258.890625 141.21875 258.789062 140.96875 258.632812 140.753906 C 258.472656 140.542969 258.382812 140.371094 258.425781 140.371094 C 258.472656 140.371094 258.449219 140.246094 258.375 140.09375 C 258.300781 139.941406 258.199219 139.863281 258.152344 139.914062 C 258.101562 139.96875 257.976562 139.796875 257.878906 139.535156 C 257.777344 139.277344 257.671875 139.101562 257.648438 139.144531 C 257.601562 139.222656 257.339844 138.90625 257.007812 138.367188 C 256.925781 138.230469 256.859375 138.191406 256.855469 138.273438 C 256.855469 138.359375 256.820312 138.339844 256.773438 138.238281 C 256.707031 138.078125 256.164062 137.570312 255.992188 137.507812 C 255.960938 137.496094 255.828125 137.382812 255.695312 137.253906 C 255.558594 137.128906 255.449219 137.078125 255.449219 137.144531 C 255.449219 137.210938 255.375 137.164062 255.285156 137.035156 C 255.195312 136.90625 255.089844 136.851562 255.050781 136.917969 C 255.011719 136.984375 254.867188 136.914062 254.734375 136.761719 C 254.597656 136.609375 254.277344 136.453125 254.019531 136.410156 C 253.765625 136.367188 253.394531 136.230469 253.199219 136.109375 C 253.007812 135.988281 252.777344 135.933594 252.6875 135.992188 C 252.601562 136.050781 252.503906 136.015625 252.46875 135.917969 C 252.375 135.65625 251.875 135.703125 251.875 135.972656 C 251.871094 136.144531 251.847656 136.140625 251.777344 135.953125 C 251.726562 135.8125 251.433594 135.671875 251.101562 135.628906 C 250.394531 135.539062 249.671875 135.40625 249.601562 135.351562 C 249.570312 135.332031 249.496094 135.300781 249.4375 135.285156 C 248.867188 135.136719 248.460938 134.921875 248.039062 134.535156 C 247.765625 134.285156 247.503906 134.078125 247.457031 134.078125 C 247.414062 134.074219 247.378906 133.988281 247.378906 133.882812 C 247.378906 133.777344 247.328125 133.632812 247.265625 133.558594 C 246.859375 133.085938 246.652344 131.132812 246.917969 130.277344 C 247.011719 129.972656 247.167969 129.472656 247.261719 129.167969 C 247.355469 128.859375 247.433594 128.734375 247.433594 128.882812 C 247.433594 129.0625 247.492188 129.015625 247.601562 128.742188 C 247.695312 128.511719 247.8125 128.367188 247.863281 128.421875 C 247.910156 128.472656 248.011719 128.390625 248.085938 128.238281 C 248.15625 128.085938 248.285156 127.964844 248.367188 127.964844 C 248.449219 127.964844 248.515625 127.882812 248.515625 127.785156 C 248.515625 127.683594 248.585938 127.652344 248.671875 127.707031 C 248.761719 127.765625 248.894531 127.742188 248.972656 127.660156 C 249.339844 127.269531 250.992188 127.125 251.820312 127.410156 C 252.179688 127.535156 252.570312 127.65625 252.6875 127.683594 C 252.878906 127.722656 253.234375 127.929688 253.714844 128.277344 C 253.804688 128.339844 253.90625 128.402344 253.941406 128.410156 C 254.113281 128.453125 255.234375 129.542969 255.234375 129.664062 C 255.234375 130.203125 255.929688 130.40625 256.152344 129.929688 C 256.277344 129.664062 256.425781 129.441406 256.484375 129.441406 C 256.539062 129.441406 256.835938 129.046875 257.140625 128.5625 C 257.441406 128.078125 257.960938 127.28125 258.292969 126.789062 C 258.625 126.296875 258.886719 125.785156 258.875 125.652344 C 258.847656 125.339844 257.960938 123.820312 257.640625 123.535156 C 257.503906 123.414062 257.421875 123.234375 257.457031 123.140625 C 257.515625 122.980469 257.367188 122.890625 257.242188 123.007812 C 257.214844 123.035156 257.125 122.890625 257.039062 122.691406 C 256.953125 122.492188 256.71875 122.234375 256.519531 122.113281 C 256.316406 121.996094 256.167969 121.804688 256.179688 121.6875 C 256.195312 121.574219 256.113281 121.480469 255.996094 121.480469 C 255.882812 121.480469 255.753906 121.390625 255.714844 121.285156 C 255.675781 121.175781 255.574219 121.132812 255.488281 121.1875 C 255.402344 121.246094 255.359375 121.214844 255.390625 121.121094 C 255.453125 120.949219 255.117188 120.6875 254.945312 120.773438 C 254.894531 120.800781 254.746094 120.714844 254.613281 120.589844 C 254.476562 120.464844 254.152344 120.328125 253.890625 120.292969 C 253.628906 120.261719 253.363281 120.179688 253.300781 120.113281 C 253.058594 119.855469 250.027344 119.59375 249.824219 119.808594 M 208.800781 120.359375 C 208.769531 120.417969 208.632812 120.46875 208.503906 120.472656 C 208 120.496094 206.917969 120.796875 206.917969 120.910156 C 206.917969 120.976562 206.824219 121.042969 206.710938 121.058594 C 206.464844 121.089844 205.738281 121.507812 205.128906 121.964844 C 204.890625 122.144531 204.660156 122.277344 204.613281 122.257812 C 204.570312 122.238281 204.535156 122.304688 204.535156 122.40625 C 204.535156 122.507812 204.464844 122.59375 204.382812 122.59375 C 204.300781 122.59375 204.175781 122.714844 204.101562 122.867188 C 204.027344 123.019531 203.925781 123.097656 203.871094 123.042969 C 203.820312 122.988281 203.773438 123.015625 203.773438 123.101562 C 203.773438 123.191406 203.59375 123.441406 203.367188 123.65625 C 202.824219 124.179688 201.8125 125.742188 201.886719 125.949219 C 201.917969 126.039062 201.878906 126.109375 201.796875 126.109375 C 201.714844 126.109375 201.53125 126.320312 201.390625 126.574219 C 201.25 126.828125 201.164062 127.035156 201.199219 127.035156 C 201.234375 127.035156 201.128906 127.285156 200.960938 127.585938 C 200.796875 127.886719 200.597656 128.40625 200.519531 128.742188 C 200.441406 129.078125 200.3125 129.417969 200.234375 129.5 C 200.15625 129.582031 200.089844 129.722656 200.089844 129.816406 C 200.089844 129.90625 199.941406 130.414062 199.761719 130.941406 C 199.582031 131.464844 199.457031 131.941406 199.488281 131.996094 C 199.523438 132.050781 199.492188 132.207031 199.425781 132.34375 C 199.359375 132.480469 199.335938 132.59375 199.371094 132.59375 C 199.410156 132.59375 199.34375 132.875 199.230469 133.222656 C 199.117188 133.566406 199.039062 134.003906 199.054688 134.195312 C 199.074219 134.382812 199.015625 134.777344 198.929688 135.066406 C 198.84375 135.359375 198.796875 135.753906 198.828125 135.949219 C 198.855469 136.140625 198.84375 136.257812 198.800781 136.214844 C 198.648438 136.050781 198.585938 142.601562 198.726562 144.167969 C 198.875 145.855469 199 146.675781 199.160156 147.027344 C 199.253906 147.234375 199.246094 147.261719 199.132812 147.144531 C 199.011719 147.015625 199.011719 147.0625 199.128906 147.429688 C 199.207031 147.671875 199.277344 147.914062 199.285156 147.964844 C 199.292969 148.011719 199.335938 148.195312 199.378906 148.367188 C 199.421875 148.535156 199.472656 148.785156 199.488281 148.921875 C 199.535156 149.332031 199.691406 149.902344 199.785156 150.007812 C 199.832031 150.0625 199.886719 150.289062 199.90625 150.507812 C 199.925781 150.730469 200.023438 151.066406 200.125 151.257812 C 200.226562 151.445312 200.308594 151.6875 200.308594 151.792969 C 200.308594 151.894531 200.394531 152.152344 200.496094 152.363281 C 200.601562 152.574219 200.785156 152.984375 200.902344 153.269531 C 201.296875 154.222656 202.914062 156.777344 203.066406 156.6875 C 203.117188 156.65625 203.203125 156.769531 203.257812 156.933594 C 203.3125 157.09375 203.402344 157.183594 203.457031 157.121094 C 203.511719 157.0625 203.558594 157.117188 203.558594 157.242188 C 203.558594 157.367188 203.589844 157.417969 203.625 157.351562 C 203.664062 157.285156 203.816406 157.398438 203.964844 157.597656 C 204.117188 157.800781 204.304688 157.964844 204.386719 157.964844 C 204.464844 157.964844 204.535156 158.046875 204.535156 158.148438 C 204.535156 158.25 204.570312 158.320312 204.613281 158.304688 C 204.660156 158.285156 204.84375 158.382812 205.019531 158.515625 C 205.199219 158.648438 205.417969 158.78125 205.507812 158.808594 C 205.785156 158.902344 205.980469 159.007812 206.320312 159.246094 C 207.160156 159.835938 211.363281 160.433594 211.527344 159.984375 C 211.558594 159.890625 211.707031 159.863281 211.851562 159.925781 C 211.996094 159.988281 212.34375 159.949219 212.628906 159.835938 C 212.914062 159.726562 213.339844 159.597656 213.578125 159.554688 C 214.0625 159.464844 214.390625 159.28125 214.390625 159.101562 C 214.390625 159.035156 214.535156 158.964844 214.714844 158.941406 C 215.066406 158.902344 216.175781 158.074219 216.476562 157.628906 C 216.582031 157.476562 216.667969 157.425781 216.667969 157.519531 C 216.667969 157.609375 216.707031 157.597656 216.75 157.488281 C 216.792969 157.382812 217.003906 157.15625 217.21875 156.984375 C 217.433594 156.8125 217.820312 156.328125 218.074219 155.902344 C 218.332031 155.480469 218.503906 155.25 218.460938 155.390625 C 218.414062 155.53125 218.507812 155.378906 218.664062 155.054688 C 218.824219 154.726562 218.953125 154.40625 218.957031 154.34375 C 218.972656 154.082031 218.25 152.800781 218.152344 152.90625 C 218.089844 152.96875 218.074219 152.933594 218.113281 152.828125 C 218.148438 152.722656 217.972656 152.253906 217.722656 151.785156 C 217.46875 151.320312 217.199219 150.808594 217.121094 150.652344 C 217.042969 150.492188 216.925781 150.417969 216.859375 150.488281 C 216.789062 150.5625 216.773438 150.527344 216.816406 150.40625 C 216.9375 150.070312 215.902344 148.296875 215.726562 148.542969 C 215.648438 148.65625 215.613281 148.820312 215.644531 148.910156 C 215.679688 149 215.609375 149.074219 215.492188 149.074219 C 215.371094 149.074219 215.261719 149.140625 215.242188 149.222656 C 215.1875 149.4375 214.015625 150.742188 213.875 150.742188 C 213.8125 150.742188 213.621094 150.859375 213.453125 151.007812 C 213.023438 151.382812 212.734375 151.546875 212.578125 151.503906 C 212.503906 151.480469 212.441406 151.535156 212.441406 151.617188 C 212.441406 151.703125 212.355469 151.785156 212.253906 151.796875 C 212.148438 151.808594 211.867188 151.875 211.628906 151.941406 C 210.996094 152.121094 209.78125 152.078125 208.976562 151.847656 C 208.585938 151.734375 208.183594 151.644531 208.082031 151.644531 C 207.976562 151.644531 207.890625 151.566406 207.890625 151.46875 C 207.890625 151.375 207.804688 151.296875 207.703125 151.296875 C 207.484375 151.292969 206.652344 150.601562 206.179688 150.023438 C 206 149.808594 205.800781 149.628906 205.734375 149.628906 C 205.671875 149.628906 205.617188 149.511719 205.617188 149.367188 C 205.617188 149.222656 205.476562 148.90625 205.304688 148.65625 C 205.132812 148.410156 204.960938 148.027344 204.917969 147.808594 C 204.878906 147.585938 204.796875 147.40625 204.742188 147.40625 C 204.6875 147.40625 204.5625 147.074219 204.464844 146.667969 C 204.371094 146.257812 204.25 145.925781 204.195312 145.925781 C 204.144531 145.925781 204.109375 145.863281 204.125 145.785156 C 204.160156 145.570312 203.75 143.148438 203.675781 143.148438 C 203.609375 143.148438 203.605469 142.96875 203.585938 140.464844 C 203.570312 138.355469 203.601562 137.617188 203.695312 137.714844 C 203.738281 137.761719 203.773438 137.65625 203.773438 137.476562 C 203.773438 137.042969 203.972656 136.042969 204.304688 134.8125 C 204.453125 134.253906 204.566406 133.691406 204.550781 133.5625 C 204.535156 133.433594 204.585938 133.351562 204.664062 133.375 C 204.742188 133.402344 204.804688 133.304688 204.804688 133.15625 C 204.804688 133.003906 204.957031 132.628906 205.144531 132.320312 C 206.117188 130.707031 206.734375 129.746094 206.664062 129.949219 C 206.605469 130.109375 206.632812 130.144531 206.75 130.070312 C 206.839844 130.011719 206.917969 129.898438 206.917969 129.824219 C 206.917969 129.75 207.125 129.578125 207.378906 129.4375 C 207.628906 129.300781 207.929688 129.085938 208.039062 128.960938 C 208.152344 128.835938 208.308594 128.777344 208.390625 128.828125 C 208.472656 128.882812 208.542969 128.839844 208.542969 128.730469 C 208.542969 128.621094 208.609375 128.574219 208.691406 128.628906 C 208.777344 128.683594 208.871094 128.65625 208.902344 128.570312 C 208.933594 128.480469 209.476562 128.429688 210.105469 128.449219 C 210.789062 128.472656 211.277344 128.410156 211.316406 128.296875 C 211.363281 128.171875 211.410156 128.171875 211.457031 128.304688 C 211.496094 128.414062 211.695312 128.535156 211.902344 128.578125 C 212.109375 128.625 212.449219 128.769531 212.660156 128.90625 C 212.867188 129.042969 213.078125 129.136719 213.125 129.109375 C 213.171875 129.085938 213.425781 129.285156 213.691406 129.550781 C 213.957031 129.816406 214.175781 129.972656 214.175781 129.890625 C 214.175781 129.8125 214.292969 129.941406 214.4375 130.171875 C 214.59375 130.421875 214.753906 130.535156 214.832031 130.453125 C 214.910156 130.371094 214.9375 130.390625 214.898438 130.5 C 214.863281 130.601562 214.953125 130.863281 215.101562 131.082031 C 215.386719 131.511719 215.582031 131.597656 215.582031 131.296875 C 215.582031 131.195312 215.625 131.132812 215.675781 131.15625 C 215.8125 131.226562 217.160156 128.863281 217.117188 128.628906 C 217.097656 128.515625 217.117188 128.484375 217.15625 128.554688 C 217.238281 128.695312 218.617188 126.394531 218.617188 126.117188 C 218.617188 126.019531 218.3125 125.507812 217.941406 124.980469 C 217.566406 124.453125 217.230469 123.9375 217.195312 123.839844 C 217.15625 123.738281 217.070312 123.714844 217.003906 123.785156 C 216.9375 123.851562 216.882812 123.816406 216.882812 123.703125 C 216.882812 123.589844 216.832031 123.550781 216.773438 123.613281 C 216.710938 123.679688 216.675781 123.621094 216.691406 123.484375 C 216.707031 123.351562 216.660156 123.261719 216.585938 123.285156 C 216.511719 123.3125 216.449219 123.25 216.449219 123.148438 C 216.449219 123.046875 216.351562 122.964844 216.234375 122.964844 C 216.113281 122.964844 216.015625 122.875 216.015625 122.769531 C 216.015625 122.570312 215.382812 122.105469 215.222656 122.1875 C 215.175781 122.210938 215.160156 122.15625 215.191406 122.070312 C 215.226562 121.980469 215.128906 121.808594 214.976562 121.691406 C 214.816406 121.566406 214.730469 121.554688 214.769531 121.664062 C 214.808594 121.769531 214.664062 121.679688 214.457031 121.464844 C 214.246094 121.253906 214.023438 121.132812 213.960938 121.199219 C 213.898438 121.265625 213.851562 121.238281 213.851562 121.140625 C 213.851562 121.046875 213.691406 120.925781 213.496094 120.878906 C 213.304688 120.828125 212.78125 120.652344 212.335938 120.480469 C 211.796875 120.277344 211.511719 120.238281 211.484375 120.363281 C 211.464844 120.472656 211.390625 120.496094 211.320312 120.421875 C 211.175781 120.261719 208.890625 120.203125 208.800781 120.359375 M 0 140.082031 L 0 159.078125 L 6.335938 159.070312 C 9.824219 159.066406 12.675781 159.003906 12.675781 158.929688 C 12.675781 158.855469 12.90625 158.816406 13.191406 158.839844 C 13.472656 158.859375 13.777344 158.828125 13.867188 158.761719 C 13.957031 158.699219 14.148438 158.613281 14.292969 158.570312 C 14.4375 158.53125 14.644531 158.414062 14.753906 158.3125 C 14.863281 158.214844 15.003906 158.179688 15.058594 158.242188 C 15.117188 158.304688 15.171875 158.203125 15.175781 158.019531 C 15.179688 157.8125 15.207031 157.777344 15.238281 157.925781 C 15.277344 158.082031 15.339844 158.101562 15.421875 157.988281 C 15.488281 157.890625 15.570312 157.820312 15.601562 157.839844 C 16.15625 158.144531 19.050781 153.535156 18.753906 152.816406 C 18.742188 152.789062 18.808594 152.636719 18.898438 152.480469 C 18.992188 152.324219 19.074219 151.992188 19.082031 151.746094 C 19.097656 151.132812 19.109375 151.058594 19.226562 150.742188 C 19.414062 150.234375 19.402344 146.851562 19.207031 145.742188 C 19.109375 145.179688 19.042969 144.609375 19.054688 144.472656 C 19.070312 144.335938 19.039062 144.265625 18.988281 144.320312 C 18.9375 144.375 18.828125 144.050781 18.75 143.601562 C 18.675781 143.148438 18.566406 142.828125 18.511719 142.882812 C 18.460938 142.9375 18.417969 142.867188 18.417969 142.71875 C 18.417969 142.3125 16.921875 139.8125 16.675781 139.8125 C 16.402344 139.8125 15.957031 139.15625 16.089844 138.945312 C 16.164062 138.824219 16.257812 138.777344 16.292969 138.835938 C 16.328125 138.898438 16.359375 138.808594 16.359375 138.632812 C 16.359375 138.457031 16.402344 138.359375 16.457031 138.417969 C 16.511719 138.472656 16.628906 138.398438 16.714844 138.25 C 16.804688 138.101562 16.894531 138.019531 16.921875 138.0625 C 16.972656 138.148438 17.09375 137.953125 17.683594 136.824219 C 18.035156 136.148438 18.605469 133.964844 18.484375 133.753906 C 18.449219 133.695312 18.476562 133.527344 18.546875 133.382812 C 18.710938 133.042969 18.710938 129.394531 18.546875 129.300781 C 18.480469 129.265625 18.457031 129.117188 18.488281 128.96875 C 18.574219 128.59375 18.429688 127.738281 18.304688 127.871094 C 18.246094 127.9375 18.234375 127.847656 18.273438 127.664062 C 18.3125 127.488281 18.300781 127.394531 18.246094 127.453125 C 18.191406 127.511719 18.136719 127.339844 18.128906 127.074219 C 18.121094 126.8125 18.046875 126.503906 17.964844 126.394531 C 17.886719 126.285156 17.742188 125.949219 17.648438 125.644531 C 17.554688 125.339844 17.417969 125.113281 17.351562 125.140625 C 17.28125 125.164062 17.238281 125.105469 17.253906 125.007812 C 17.296875 124.71875 16.390625 123.433594 15.699219 122.796875 C 15.347656 122.476562 15.058594 122.265625 15.058594 122.332031 C 15.058594 122.398438 14.984375 122.351562 14.898438 122.222656 C 14.808594 122.097656 14.664062 122.042969 14.582031 122.097656 C 14.496094 122.15625 14.367188 122.082031 14.296875 121.9375 C 14.175781 121.6875 14.042969 121.625 13.054688 121.363281 C 12.816406 121.300781 9.78125 121.214844 6.308594 121.167969 L 0 121.085938 L 0 140.082031 M 23.039062 121.234375 C 23 121.300781 22.964844 129.84375 22.964844 140.214844 L 22.964844 159.074219 L 39.976562 159.074219 L 39.976562 151.109375 L 27.949219 151.109375 L 27.949219 143.703125 L 33.339844 143.683594 C 36.304688 143.671875 38.761719 143.667969 38.800781 143.675781 C 38.84375 143.6875 38.882812 141.988281 38.886719 139.902344 L 38.898438 136.109375 L 27.949219 136.109375 L 27.949219 129.074219 L 39.542969 129.074219 L 39.542969 121.109375 L 31.324219 121.109375 C 26.808594 121.109375 23.078125 121.167969 23.039062 121.234375 M 41.925781 124.707031 C 41.925781 126.683594 41.894531 128.433594 41.859375 128.59375 C 41.800781 128.859375 42.136719 128.890625 45.164062 128.890625 L 48.535156 128.890625 L 48.535156 159.074219 L 53.515625 159.074219 L 53.515625 128.890625 L 60.339844 128.890625 L 60.339844 121.117188 L 51.132812 121.113281 L 41.925781 121.105469 L 41.925781 124.707031 M 61.207031 125 L 61.207031 128.890625 L 68.144531 128.890625 L 68.117188 143.980469 L 68.085938 159.074219 L 73.015625 159.074219 L 73.015625 128.890625 L 79.734375 128.890625 L 79.734375 121.109375 L 61.207031 121.109375 L 61.207031 125 M 82.605469 140.085938 L 82.605469 159.066406 L 91.136719 159.070312 L 99.667969 159.078125 L 99.667969 151.109375 L 87.640625 151.109375 L 87.640625 143.703125 L 98.589844 143.703125 L 98.527344 136.203125 L 93.085938 136.15625 L 87.640625 136.109375 L 87.640625 129.074219 L 99.128906 129.074219 L 99.101562 125.140625 L 99.070312 121.203125 L 90.835938 121.15625 L 82.605469 121.109375 L 82.605469 140.085938 M 103.351562 140.085938 L 103.351562 159.074219 L 108.441406 159.074219 L 108.441406 146.667969 L 111.871094 146.667969 L 112.160156 147.222656 C 112.320312 147.527344 112.464844 147.839844 112.476562 147.914062 C 112.492188 147.992188 112.542969 148.03125 112.59375 148.003906 C 112.640625 147.976562 112.65625 148.023438 112.625 148.109375 C 112.570312 148.265625 113.460938 150.285156 113.910156 151.019531 C 114.035156 151.222656 114.136719 151.441406 114.132812 151.503906 C 114.132812 151.566406 114.261719 151.902344 114.425781 152.246094 C 114.589844 152.589844 114.808594 153.0625 114.914062 153.296875 C 115.019531 153.527344 115.238281 153.96875 115.402344 154.273438 C 115.566406 154.578125 115.699219 154.953125 115.699219 155.109375 C 115.699219 155.265625 115.75 155.339844 115.808594 155.277344 C 115.867188 155.214844 115.917969 155.265625 115.917969 155.390625 C 115.917969 155.511719 116.074219 155.851562 116.261719 156.144531 C 116.453125 156.433594 116.617188 156.785156 116.628906 156.929688 C 116.640625 157.070312 116.742188 157.359375 116.851562 157.570312 C 116.964844 157.785156 117.175781 158.207031 117.324219 158.511719 L 117.597656 159.066406 L 120.386719 159.070312 C 123.339844 159.074219 123.527344 159.011719 123.046875 158.1875 C 122.972656 158.0625 122.949219 157.964844 122.992188 157.964844 C 123.03125 157.964844 122.957031 157.777344 122.824219 157.546875 C 122.6875 157.316406 122.53125 157.15625 122.472656 157.191406 C 122.410156 157.226562 122.398438 157.191406 122.441406 157.117188 C 122.546875 156.941406 121.882812 155.523438 121.757812 155.65625 C 121.703125 155.714844 121.6875 155.636719 121.722656 155.484375 C 121.757812 155.320312 121.691406 155.109375 121.558594 154.964844 C 121.433594 154.835938 121.332031 154.617188 121.332031 154.488281 C 121.332031 154.355469 121.265625 154.203125 121.179688 154.148438 C 121.097656 154.09375 121.003906 153.878906 120.972656 153.671875 C 120.941406 153.464844 120.863281 153.351562 120.800781 153.417969 C 120.734375 153.484375 120.683594 153.453125 120.683594 153.347656 C 120.683594 153.128906 120.453125 152.601562 120.011719 151.808594 C 119.847656 151.519531 119.710938 151.222656 119.703125 151.148438 C 119.699219 151.078125 119.511719 150.679688 119.292969 150.269531 C 119.074219 149.855469 118.753906 149.210938 118.582031 148.839844 C 118.410156 148.464844 118.21875 148.210938 118.160156 148.277344 C 118.097656 148.339844 118.082031 148.296875 118.125 148.179688 C 118.167969 148.0625 118.078125 147.738281 117.925781 147.457031 C 117.773438 147.179688 117.648438 146.886719 117.648438 146.8125 C 117.648438 146.738281 117.519531 146.5625 117.363281 146.421875 L 117.078125 146.167969 L 117.335938 145.859375 C 117.476562 145.691406 117.648438 145.554688 117.71875 145.554688 C 117.785156 145.554688 117.871094 145.433594 117.90625 145.28125 C 117.9375 145.128906 118.03125 145.050781 118.109375 145.101562 C 118.1875 145.152344 118.359375 145.023438 118.492188 144.8125 C 118.625 144.601562 118.734375 144.515625 118.734375 144.621094 C 118.734375 144.726562 119.046875 144.425781 119.433594 143.953125 C 119.820312 143.476562 120.109375 143.019531 120.078125 142.933594 C 120.046875 142.847656 120.097656 142.777344 120.191406 142.777344 C 120.28125 142.777344 120.359375 142.679688 120.359375 142.5625 C 120.359375 142.441406 120.390625 142.398438 120.425781 142.464844 C 120.578125 142.722656 121.585938 140.136719 121.585938 139.492188 C 121.585938 139.363281 121.617188 139.257812 121.65625 139.257812 C 121.84375 139.257812 122.214844 135.59375 122.210938 133.796875 C 122.207031 132.054688 121.855469 129.257812 121.640625 129.257812 C 121.578125 129.257812 121.550781 129.148438 121.582031 129.011719 C 121.648438 128.714844 121.15625 127.003906 120.945312 126.796875 C 120.859375 126.714844 120.792969 126.542969 120.792969 126.414062 C 120.792969 126.105469 120.210938 125 120.050781 125 C 119.980469 125 119.9375 124.894531 119.953125 124.769531 C 119.96875 124.640625 119.894531 124.5625 119.789062 124.59375 C 119.675781 124.625 119.609375 124.546875 119.625 124.40625 C 119.640625 124.273438 119.589844 124.191406 119.511719 124.21875 C 119.433594 124.246094 119.394531 124.191406 119.429688 124.097656 C 119.488281 123.9375 119.078125 123.363281 118.933594 123.40625 C 118.894531 123.417969 118.773438 123.289062 118.664062 123.125 C 118.421875 122.761719 117.757812 122.171875 117.757812 122.316406 C 117.757812 122.375 117.648438 122.3125 117.515625 122.183594 C 117.378906 122.054688 117.222656 121.933594 117.164062 121.921875 C 117.101562 121.90625 117.015625 121.875 116.972656 121.851562 C 116.929688 121.824219 116.855469 121.789062 116.808594 121.769531 C 116.765625 121.75 116.527344 121.632812 116.28125 121.511719 C 116.035156 121.390625 115.757812 121.339844 115.667969 121.398438 C 115.578125 121.457031 115.476562 121.425781 115.4375 121.324219 C 115.398438 121.207031 113.1875 121.132812 109.363281 121.121094 L 103.351562 121.097656 L 103.351562 140.085938 M 131.082031 125 L 131.082031 128.890625 L 137.691406 128.890625 L 137.691406 159.074219 L 142.785156 159.074219 L 142.757812 143.9375 L 142.730469 128.796875 L 146.160156 128.835938 L 149.59375 128.878906 L 149.605469 125.109375 C 149.613281 121.800781 149.59375 121.328125 149.441406 121.226562 C 149.34375 121.164062 145.175781 121.109375 140.175781 121.109375 L 131.082031 121.109375 L 131.082031 125 M 152.609375 121.230469 C 152.566406 121.300781 152.535156 129.84375 152.535156 140.214844 L 152.535156 159.074219 L 157.515625 159.074219 L 157.515625 146.644531 L 159.332031 146.703125 L 161.144531 146.757812 L 161.308594 147.347656 C 161.398438 147.671875 161.558594 148.089844 161.660156 148.273438 C 161.765625 148.460938 162.070312 149.132812 162.339844 149.769531 C 162.605469 150.40625 162.875 150.925781 162.9375 150.925781 C 163.003906 150.925781 163.03125 150.992188 163 151.078125 C 162.96875 151.160156 163.125 151.5625 163.34375 151.972656 C 163.566406 152.378906 163.757812 152.816406 163.773438 152.941406 C 163.792969 153.070312 163.925781 153.367188 164.074219 153.597656 C 164.222656 153.832031 164.339844 154.113281 164.339844 154.222656 C 164.339844 154.328125 164.433594 154.46875 164.546875 154.53125 C 164.65625 154.589844 164.742188 154.746094 164.734375 154.875 C 164.71875 155.121094 165.167969 156.164062 165.667969 157.054688 C 165.832031 157.34375 165.96875 157.644531 165.96875 157.726562 C 165.96875 157.804688 166.105469 158.136719 166.273438 158.460938 L 166.578125 159.050781 L 169.296875 159.066406 C 171.148438 159.078125 172.039062 159.019531 172.089844 158.882812 C 172.207031 158.5625 172.046875 157.777344 171.863281 157.777344 C 171.769531 157.777344 171.726562 157.695312 171.761719 157.59375 C 171.800781 157.492188 171.789062 157.40625 171.738281 157.40625 C 171.691406 157.40625 171.554688 157.113281 171.441406 156.753906 C 171.296875 156.292969 171.210938 156.167969 171.148438 156.335938 C 171.0625 156.570312 171.003906 156.292969 171.046875 155.863281 C 171.058594 155.777344 170.964844 155.664062 170.847656 155.609375 C 170.726562 155.558594 170.65625 155.433594 170.691406 155.335938 C 170.726562 155.238281 170.664062 155.003906 170.554688 154.820312 C 170.445312 154.636719 170.207031 154.191406 170.03125 153.832031 C 169.851562 153.472656 169.664062 153.226562 169.609375 153.285156 C 169.554688 153.34375 169.539062 153.304688 169.578125 153.199219 C 169.65625 152.976562 169.242188 152.105469 169.089844 152.179688 C 169.03125 152.207031 169.015625 152.144531 169.050781 152.042969 C 169.089844 151.9375 169.070312 151.851562 169.007812 151.851562 C 168.945312 151.851562 168.902344 151.789062 168.917969 151.707031 C 168.933594 151.632812 168.882812 151.441406 168.808594 151.292969 C 168.394531 150.472656 168.242188 150.113281 168.242188 149.984375 C 168.242188 149.90625 168.148438 149.789062 168.035156 149.730469 C 167.925781 149.667969 167.804688 149.445312 167.773438 149.234375 C 167.734375 148.992188 167.667969 148.902344 167.582031 148.992188 C 167.503906 149.074219 167.476562 149.054688 167.519531 148.9375 C 167.601562 148.707031 167.179688 147.734375 167.050781 147.867188 C 167.003906 147.917969 166.9375 147.832031 166.898438 147.675781 C 166.855469 147.480469 166.878906 147.433594 166.96875 147.527344 C 167.058594 147.617188 167.054688 147.558594 166.957031 147.351562 C 166.875 147.179688 166.738281 147.035156 166.652344 147.035156 C 166.566406 147.035156 166.527344 146.949219 166.566406 146.835938 C 166.605469 146.726562 166.527344 146.460938 166.394531 146.246094 C 166.207031 145.949219 166.183594 145.835938 166.300781 145.78125 C 166.386719 145.742188 166.527344 145.671875 166.617188 145.621094 C 166.707031 145.570312 166.785156 145.558594 166.796875 145.589844 C 166.804688 145.621094 166.90625 145.503906 167.019531 145.324219 C 167.136719 145.144531 167.261719 145.054688 167.304688 145.125 C 167.34375 145.191406 167.375 145.148438 167.375 145.03125 C 167.375 144.914062 167.453125 144.8125 167.546875 144.8125 C 167.726562 144.8125 168.375 144.109375 168.441406 143.847656 C 168.460938 143.769531 168.546875 143.703125 168.636719 143.703125 C 168.722656 143.703125 168.765625 143.621094 168.730469 143.519531 C 168.691406 143.417969 168.734375 143.332031 168.824219 143.332031 C 168.910156 143.332031 169.128906 143.082031 169.308594 142.777344 C 169.488281 142.472656 169.613281 142.222656 169.59375 142.222656 C 169.570312 142.222656 169.675781 142.011719 169.824219 141.757812 C 169.972656 141.5 170.0625 141.199219 170.019531 141.082031 C 169.972656 140.953125 169.988281 140.917969 170.0625 140.996094 C 170.132812 141.070312 170.253906 140.886719 170.351562 140.5625 C 170.445312 140.253906 170.488281 140 170.445312 140 C 170.402344 140 170.445312 139.894531 170.539062 139.769531 C 170.730469 139.515625 171.210938 136.566406 171.109375 136.285156 C 171.074219 136.191406 171.097656 136.109375 171.160156 136.109375 C 171.320312 136.109375 171.304688 135.5 171.140625 135.195312 C 171.039062 135.007812 171.035156 134.976562 171.136719 135.074219 C 171.300781 135.230469 171.300781 133.917969 171.136719 133.5625 C 171.066406 133.410156 171.074219 133.242188 171.167969 133.058594 C 171.246094 132.894531 171.273438 132.570312 171.234375 132.269531 C 171.195312 131.988281 171.140625 131.511719 171.113281 131.203125 C 171.085938 130.898438 171.011719 130.621094 170.953125 130.585938 C 170.890625 130.550781 170.863281 130.457031 170.894531 130.375 C 170.925781 130.292969 170.875 129.925781 170.785156 129.558594 C 170.695312 129.1875 170.648438 128.890625 170.683594 128.890625 C 170.71875 128.890625 170.644531 128.640625 170.515625 128.332031 C 170.390625 128.027344 170.308594 127.777344 170.339844 127.777344 C 170.371094 127.777344 170.222656 127.339844 170.011719 126.804688 C 169.648438 125.882812 168.457031 123.699219 168.457031 123.953125 C 168.457031 124.019531 168.363281 123.929688 168.25 123.75 C 167.78125 123.019531 167.699219 122.9375 167.699219 123.175781 C 167.699219 123.300781 167.5625 123.175781 167.394531 122.898438 C 167.226562 122.625 166.992188 122.367188 166.878906 122.328125 C 166.765625 122.289062 166.441406 122.085938 166.160156 121.878906 C 165.882812 121.671875 165.566406 121.507812 165.457031 121.511719 C 165.351562 121.519531 165.015625 121.433594 164.714844 121.328125 C 164.097656 121.109375 152.734375 121.019531 152.609375 121.230469 M 174.964844 132.578125 C 174.96875 138.882812 175.003906 144.089844 175.039062 144.148438 C 175.074219 144.210938 175.113281 144.65625 175.128906 145.140625 C 175.15625 146 175.210938 146.542969 175.335938 147.21875 C 175.371094 147.402344 175.421875 147.792969 175.445312 148.082031 C 175.511719 148.824219 175.859375 150.4375 175.988281 150.597656 C 176.046875 150.671875 176.054688 150.738281 176.007812 150.738281 C 175.957031 150.738281 176.023438 150.992188 176.148438 151.296875 C 176.277344 151.601562 176.351562 151.851562 176.3125 151.851562 C 176.273438 151.851562 176.34375 152.09375 176.46875 152.390625 C 176.589844 152.6875 176.691406 152.984375 176.691406 153.058594 C 176.691406 153.273438 177.203125 154.246094 177.265625 154.140625 C 177.296875 154.089844 177.355469 154.21875 177.394531 154.429688 C 177.433594 154.640625 177.535156 154.8125 177.621094 154.8125 C 177.707031 154.8125 177.773438 154.902344 177.773438 155.007812 C 177.773438 155.269531 178.746094 156.824219 178.988281 156.957031 C 179.097656 157.015625 179.183594 157.136719 179.183594 157.230469 C 179.183594 157.320312 179.269531 157.34375 179.371094 157.28125 C 179.476562 157.214844 179.527344 157.230469 179.480469 157.316406 C 179.40625 157.457031 179.960938 158.152344 180.210938 158.226562 C 180.269531 158.242188 180.417969 158.351562 180.539062 158.464844 C 180.65625 158.574219 180.777344 158.671875 180.808594 158.671875 C 180.835938 158.675781 181.007812 158.773438 181.1875 158.894531 C 181.367188 159.011719 181.617188 159.125 181.746094 159.140625 C 181.875 159.15625 181.953125 159.242188 181.917969 159.335938 C 181.886719 159.425781 181.964844 159.457031 182.089844 159.398438 C 182.21875 159.339844 182.296875 159.367188 182.265625 159.460938 C 182.230469 159.554688 182.28125 159.628906 182.378906 159.628906 C 182.492188 159.628906 182.523438 159.546875 182.472656 159.398438 C 182.410156 159.21875 182.425781 159.214844 182.546875 159.382812 C 182.714844 159.613281 183.84375 160.011719 184.28125 159.988281 C 184.425781 159.984375 184.847656 160.011719 185.21875 160.058594 C 185.589844 160.101562 185.871094 160.074219 185.847656 160.003906 C 185.820312 159.929688 186.0625 159.890625 186.390625 159.914062 C 186.714844 159.941406 186.960938 159.90625 186.9375 159.839844 C 186.914062 159.769531 187.097656 159.699219 187.34375 159.683594 C 188.421875 159.609375 188.5 159.589844 188.429688 159.394531 C 188.382812 159.269531 188.421875 159.238281 188.539062 159.316406 C 188.640625 159.382812 188.984375 159.238281 189.308594 158.992188 C 189.628906 158.75 189.917969 158.601562 189.953125 158.660156 C 189.988281 158.71875 190.015625 158.667969 190.015625 158.550781 C 190.015625 158.429688 190.132812 158.332031 190.273438 158.332031 C 190.410156 158.332031 190.65625 158.125 190.820312 157.871094 C 190.980469 157.617188 191.207031 157.40625 191.324219 157.40625 C 191.441406 157.40625 191.535156 157.28125 191.535156 157.117188 C 191.535156 156.960938 191.574219 156.871094 191.621094 156.921875 C 191.671875 156.976562 191.777344 156.859375 191.859375 156.667969 C 191.941406 156.472656 192.035156 156.34375 192.070312 156.382812 C 192.105469 156.417969 192.367188 156.039062 192.660156 155.539062 C 192.949219 155.039062 193.148438 154.628906 193.101562 154.628906 C 193.058594 154.628906 193.148438 154.457031 193.304688 154.246094 C 193.464844 154.035156 193.589844 153.742188 193.589844 153.597656 C 193.589844 153.453125 193.644531 153.332031 193.710938 153.332031 C 193.777344 153.332031 193.804688 153.210938 193.769531 153.0625 C 193.738281 152.914062 193.765625 152.730469 193.828125 152.664062 C 193.90625 152.578125 193.917969 152.621094 193.863281 152.777344 C 193.804688 152.941406 193.816406 152.976562 193.902344 152.882812 C 193.980469 152.804688 194.003906 152.585938 193.964844 152.367188 C 193.921875 152.136719 193.933594 152.035156 194.003906 152.105469 C 194.09375 152.199219 194.195312 151.980469 194.296875 151.480469 C 194.304688 151.429688 194.371094 151.160156 194.441406 150.878906 C 194.707031 149.796875 194.804688 149.339844 194.839844 148.980469 C 194.859375 148.777344 194.921875 148.335938 194.984375 148 C 195.046875 147.664062 195.070312 147.265625 195.035156 147.117188 C 195.003906 146.972656 195.027344 146.851562 195.089844 146.851562 C 195.246094 146.851562 195.238281 147.558594 195.253906 133.703125 L 195.269531 121.203125 L 192.804688 121.15625 L 190.335938 121.105469 L 190.339844 132.265625 C 190.34375 138.402344 190.300781 143.882812 190.246094 144.445312 C 190.191406 145.003906 190.167969 145.523438 190.195312 145.597656 C 190.222656 145.671875 190.164062 145.9375 190.066406 146.191406 C 189.96875 146.445312 189.910156 146.761719 189.9375 146.890625 C 189.96875 147.023438 189.890625 147.414062 189.765625 147.765625 C 189.617188 148.1875 189.59375 148.347656 189.699219 148.246094 C 189.785156 148.160156 189.71875 148.335938 189.554688 148.640625 C 189.390625 148.941406 189.257812 149.253906 189.257812 149.335938 C 189.257812 149.519531 188.640625 150.511719 188.371094 150.757812 C 188.261719 150.859375 188.203125 151.035156 188.242188 151.148438 C 188.285156 151.265625 188.265625 151.300781 188.199219 151.230469 C 188.136719 151.164062 188.011719 151.230469 187.921875 151.382812 C 187.835938 151.535156 187.550781 151.710938 187.292969 151.777344 C 187.03125 151.847656 186.757812 151.984375 186.683594 152.085938 C 186.511719 152.320312 184.488281 152.378906 184.574219 152.148438 C 184.609375 152.050781 184.488281 152.03125 184.292969 152.09375 C 184.105469 152.160156 183.949219 152.148438 183.949219 152.070312 C 183.949219 151.996094 183.863281 151.921875 183.757812 151.90625 C 183.425781 151.863281 183.253906 151.765625 183.105469 151.527344 C 182.980469 151.328125 182.875 151.28125 182.59375 151.300781 C 182.5625 151.300781 182.433594 151.140625 182.308594 150.9375 C 182.179688 150.734375 182.027344 150.621094 181.96875 150.683594 C 181.90625 150.75 181.890625 150.707031 181.9375 150.582031 C 181.980469 150.460938 181.9375 150.320312 181.84375 150.257812 C 181.636719 150.121094 180.617188 147.542969 180.523438 146.929688 C 180.488281 146.683594 180.425781 146.480469 180.382812 146.480469 C 180.339844 146.480469 180.3125 146.292969 180.324219 146.0625 C 180.335938 145.835938 180.296875 145.484375 180.234375 145.285156 C 180.085938 144.792969 180.09375 145.210938 180.070312 132.453125 L 180.050781 121.109375 L 174.949219 121.109375 L 174.964844 132.578125 M 221.867188 140.089844 L 221.867188 159.074219 L 226.957031 159.074219 L 226.984375 151.277344 L 227.011719 143.484375 L 227.414062 144.148438 C 227.632812 144.515625 227.785156 144.8125 227.753906 144.8125 C 227.71875 144.8125 227.75 144.9375 227.824219 145.089844 C 227.898438 145.242188 228 145.320312 228.054688 145.265625 C 228.105469 145.207031 228.148438 145.289062 228.148438 145.441406 C 228.148438 145.597656 228.261719 145.914062 228.398438 146.148438 C 228.53125 146.382812 228.726562 146.78125 228.832031 147.035156 C 228.9375 147.292969 229.082031 147.503906 229.152344 147.507812 C 229.226562 147.511719 229.273438 147.617188 229.261719 147.738281 C 229.246094 147.863281 229.289062 147.964844 229.359375 147.964844 C 229.429688 147.964844 229.460938 148.011719 229.425781 148.066406 C 229.390625 148.125 229.46875 148.355469 229.597656 148.582031 C 229.726562 148.808594 230.074219 149.46875 230.371094 150.050781 C 230.667969 150.632812 230.976562 151.109375 231.054688 151.109375 C 231.132812 151.109375 231.167969 151.183594 231.136719 151.273438 C 231.105469 151.359375 231.175781 151.632812 231.292969 151.875 C 231.804688 152.917969 231.917969 153.148438 232.484375 154.261719 C 232.8125 154.90625 233.261719 155.757812 233.484375 156.148438 C 233.707031 156.542969 233.894531 156.925781 233.894531 156.996094 C 233.894531 157.070312 234.128906 157.5625 234.417969 158.089844 L 234.941406 159.050781 L 237.976562 159.066406 L 241.011719 159.085938 L 240.960938 158.617188 C 240.929688 158.359375 240.875 158.148438 240.835938 158.148438 C 240.796875 158.148438 240.671875 157.886719 240.5625 157.566406 C 240.3125 156.84375 240 156.296875 239.832031 156.296875 C 239.761719 156.296875 239.738281 156.242188 239.777344 156.175781 C 239.816406 156.109375 239.726562 155.863281 239.578125 155.628906 C 239.429688 155.394531 239.308594 155.148438 239.308594 155.082031 C 239.308594 155.015625 239.136719 154.671875 238.929688 154.3125 C 238.71875 153.957031 238.550781 153.585938 238.550781 153.488281 C 238.550781 153.390625 238.5 153.363281 238.441406 153.425781 C 238.382812 153.488281 238.332031 153.453125 238.332031 153.347656 C 238.332031 153.027344 237.976562 152.417969 237.863281 152.539062 C 237.804688 152.601562 237.792969 152.554688 237.835938 152.429688 C 237.886719 152.292969 237.648438 151.75 237.222656 151.015625 C 236.839844 150.355469 236.550781 149.777344 236.582031 149.722656 C 236.609375 149.671875 236.578125 149.628906 236.507812 149.628906 C 236.441406 149.628906 236.382812 149.546875 236.382812 149.445312 C 236.382812 149.203125 235.921875 148.414062 235.816406 148.472656 C 235.769531 148.496094 235.746094 148.453125 235.761719 148.375 C 235.773438 148.296875 235.675781 147.996094 235.542969 147.703125 C 235.410156 147.410156 235.300781 147.246094 235.300781 147.335938 C 235.300781 147.425781 235.203125 147.226562 235.082031 146.890625 C 234.960938 146.554688 234.816406 146.328125 234.757812 146.390625 C 234.699219 146.453125 234.648438 146.390625 234.648438 146.25 C 234.648438 145.894531 234.101562 144.800781 233.984375 144.925781 C 233.929688 144.980469 233.898438 144.957031 233.914062 144.875 C 233.945312 144.703125 233.6875 144.125 233.167969 143.191406 C 232.976562 142.851562 232.808594 142.515625 232.796875 142.445312 C 232.75 142.136719 231.5625 140 231.4375 140 C 231.234375 140 231.476562 138.949219 231.761719 138.609375 C 231.886719 138.457031 231.964844 138.332031 231.929688 138.332031 C 231.898438 138.332031 232.082031 137.953125 232.34375 137.492188 C 232.601562 137.027344 232.78125 136.558594 232.742188 136.445312 C 232.699219 136.324219 232.714844 136.292969 232.785156 136.363281 C 232.847656 136.433594 232.964844 136.332031 233.042969 136.144531 C 233.195312 135.777344 234.175781 133.8125 234.414062 133.398438 C 234.492188 133.261719 234.535156 133.148438 234.507812 133.148438 C 234.457031 133.148438 235 132.046875 235.523438 131.105469 C 235.671875 130.828125 235.777344 130.488281 235.75 130.347656 C 235.722656 130.207031 235.738281 130.148438 235.78125 130.214844 C 235.882812 130.375 236.382812 129.636719 236.382812 129.328125 C 236.382812 129.199219 236.484375 128.972656 236.613281 128.820312 C 236.757812 128.648438 236.808594 128.457031 236.757812 128.300781 C 236.710938 128.167969 236.714844 128.117188 236.765625 128.195312 C 236.859375 128.347656 237.359375 127.644531 237.359375 127.355469 C 237.359375 127.261719 237.542969 126.851562 237.765625 126.441406 C 238.644531 124.832031 238.722656 124.671875 238.6875 124.492188 C 238.664062 124.390625 238.75 124.261719 238.871094 124.207031 C 238.992188 124.152344 239.125 123.957031 239.164062 123.769531 C 239.207031 123.578125 239.3125 123.335938 239.398438 123.222656 C 239.488281 123.109375 239.527344 122.929688 239.488281 122.820312 C 239.445312 122.710938 239.558594 122.519531 239.734375 122.382812 C 239.992188 122.1875 240.285156 121.566406 240.285156 121.207031 C 240.285156 121.164062 238.894531 121.125 237.203125 121.117188 L 234.121094 121.101562 L 233.859375 121.753906 C 233.71875 122.113281 233.574219 122.359375 233.539062 122.300781 C 233.507812 122.242188 233.445312 122.367188 233.40625 122.582031 C 233.367188 122.796875 233.195312 123.230469 233.023438 123.554688 C 232.851562 123.875 232.734375 124.207031 232.769531 124.296875 C 232.796875 124.382812 232.777344 124.429688 232.71875 124.402344 C 232.609375 124.347656 232.050781 125.359375 232.050781 125.613281 C 232.050781 125.695312 231.902344 125.976562 231.71875 126.238281 C 231.539062 126.5 231.414062 126.753906 231.445312 126.808594 C 231.476562 126.859375 231.378906 127.0625 231.234375 127.261719 C 231.085938 127.460938 230.992188 127.699219 231.027344 127.792969 C 231.058594 127.886719 231.042969 127.964844 230.988281 127.964844 C 230.867188 127.964844 229.871094 130.105469 229.941406 130.222656 C 229.96875 130.269531 229.875 130.417969 229.730469 130.546875 C 229.585938 130.679688 229.4375 130.996094 229.398438 131.25 C 229.363281 131.503906 229.300781 131.660156 229.265625 131.597656 C 229.230469 131.535156 229.050781 131.839844 228.867188 132.269531 C 228.6875 132.703125 228.484375 133.117188 228.425781 133.191406 C 228.363281 133.265625 228.347656 133.328125 228.390625 133.328125 C 228.4375 133.332031 228.328125 133.570312 228.148438 133.863281 C 227.96875 134.152344 227.824219 134.480469 227.824219 134.59375 C 227.824219 134.703125 227.726562 134.910156 227.609375 135.050781 C 227.492188 135.195312 227.417969 135.355469 227.449219 135.40625 C 227.480469 135.460938 227.382812 135.644531 227.234375 135.8125 L 226.960938 136.117188 L 226.933594 128.660156 L 226.902344 121.203125 L 224.386719 121.15625 L 221.867188 121.105469 L 221.867188 140.089844 M 11.84375 128.730469 C 12.183594 128.84375 12.457031 129.015625 12.457031 129.109375 C 12.457031 129.203125 12.507812 129.226562 12.570312 129.164062 C 12.628906 129.097656 12.820312 129.300781 12.988281 129.609375 C 13.15625 129.917969 13.335938 130.113281 13.382812 130.039062 C 13.429688 129.964844 13.433594 130.007812 13.390625 130.132812 C 13.351562 130.257812 13.394531 130.570312 13.492188 130.824219 C 13.6875 131.332031 13.800781 133.519531 13.632812 133.519531 C 13.574219 133.519531 13.554688 133.59375 13.589844 133.683594 C 13.621094 133.777344 13.570312 133.902344 13.472656 133.964844 C 13.375 134.03125 13.324219 134.136719 13.363281 134.199219 C 13.457031 134.359375 12.828125 135.070312 12.324219 135.382812 C 12.101562 135.519531 11.917969 135.695312 11.917969 135.777344 C 11.917969 135.859375 11.863281 135.925781 11.800781 135.925781 C 11.738281 135.925781 11.722656 135.832031 11.761719 135.722656 C 11.8125 135.578125 11.753906 135.558594 11.578125 135.648438 C 11.4375 135.722656 11.296875 135.785156 11.265625 135.785156 C 11.238281 135.785156 9.8125 135.773438 8.097656 135.761719 L 4.984375 135.742188 L 4.984375 128.519531 L 8.105469 128.519531 C 10.011719 128.519531 11.46875 128.601562 11.84375 128.730469 M 114.902344 128.796875 C 115.117188 128.945312 115.339844 129.019531 115.402344 128.949219 C 115.46875 128.882812 115.484375 128.921875 115.4375 129.046875 C 115.394531 129.164062 115.425781 129.257812 115.503906 129.257812 C 115.691406 129.257812 116.707031 130.808594 116.734375 131.136719 C 116.746094 131.277344 116.84375 131.722656 116.949219 132.128906 C 117.054688 132.535156 117.132812 132.945312 117.117188 133.039062 C 117.105469 133.132812 117.152344 133.441406 117.222656 133.730469 C 117.324219 134.15625 117.316406 134.398438 117.171875 135.007812 C 117.074219 135.425781 117.019531 135.835938 117.054688 135.921875 C 117.085938 136.011719 117.046875 136.191406 116.972656 136.328125 C 116.898438 136.464844 116.738281 136.890625 116.621094 137.28125 C 116.5 137.671875 116.332031 138.085938 116.242188 138.207031 C 116.109375 138.386719 116.097656 138.375 116.1875 138.140625 C 116.246094 137.980469 116.203125 138.023438 116.09375 138.230469 C 115.980469 138.441406 115.816406 138.585938 115.730469 138.550781 C 115.632812 138.515625 115.601562 138.578125 115.644531 138.703125 C 115.6875 138.824219 115.660156 138.898438 115.574219 138.882812 C 115.359375 138.832031 114.9375 139.09375 114.988281 139.242188 C 115.015625 139.3125 114.78125 139.355469 114.472656 139.339844 C 114.164062 139.320312 112.679688 139.296875 111.175781 139.285156 L 108.441406 139.257812 L 108.441406 128.519531 L 111.476562 128.519531 C 113.925781 128.519531 114.589844 128.570312 114.902344 128.796875 M 164.015625 128.738281 C 164.015625 128.84375 164.09375 128.878906 164.183594 128.816406 C 164.28125 128.753906 164.324219 128.785156 164.285156 128.890625 C 164.25 128.992188 164.300781 129.074219 164.402344 129.074219 C 164.65625 129.074219 165.859375 131.226562 165.859375 131.683594 C 165.859375 131.890625 165.90625 132.007812 165.964844 131.945312 C 166.027344 131.882812 166.046875 131.957031 166.007812 132.121094 C 165.972656 132.277344 165.996094 132.40625 166.058594 132.40625 C 166.125 132.40625 166.144531 132.546875 166.109375 132.714844 C 166.070312 132.886719 166.082031 132.976562 166.136719 132.917969 C 166.191406 132.859375 166.246094 133.011719 166.261719 133.257812 C 166.273438 133.503906 166.289062 133.808594 166.296875 133.9375 C 166.386719 135.609375 165.480469 137.9375 164.367188 138.890625 C 163.847656 139.339844 163.953125 139.328125 160.253906 139.289062 L 157.515625 139.257812 L 157.515625 128.503906 L 160.765625 128.527344 C 162.910156 128.542969 164.015625 128.613281 164.015625 128.738281 M 11.808594 143.207031 C 11.984375 143.3125 12.542969 143.519531 12.75 143.558594 C 12.824219 143.570312 12.910156 143.695312 12.941406 143.839844 C 12.972656 143.980469 13.042969 144.050781 13.09375 143.996094 C 13.148438 143.9375 13.320312 144.175781 13.472656 144.523438 C 13.628906 144.871094 13.828125 145.277344 13.914062 145.425781 C 14 145.574219 14.042969 145.746094 14.007812 145.808594 C 13.972656 145.867188 13.992188 146.023438 14.046875 146.152344 C 14.285156 146.695312 14.011719 149.628906 13.726562 149.628906 C 13.671875 149.628906 13.65625 149.757812 13.691406 149.917969 C 13.726562 150.074219 13.714844 150.160156 13.660156 150.105469 C 13.539062 149.972656 13.304688 150.457031 13.402344 150.628906 C 13.445312 150.699219 13.398438 150.707031 13.292969 150.636719 C 13.191406 150.570312 13.109375 150.601562 13.109375 150.707031 C 13.109375 150.882812 12.503906 151.222656 12.324219 151.148438 C 12.277344 151.125 12.242188 151.191406 12.242188 151.285156 C 12.242188 151.382812 12.144531 151.429688 12.027344 151.390625 C 11.910156 151.351562 11.792969 151.375 11.765625 151.445312 C 11.742188 151.515625 10.203125 151.550781 8.351562 151.523438 L 4.984375 151.472656 L 4.984375 143.15625 L 7.988281 143.105469 C 11.261719 143.050781 11.566406 143.058594 11.808594 143.207031 "/>
</g>
</svg>
