<svg width="140" height="72" viewBox="0 0 140 72" fill="none" xmlns="http://www.w3.org/2000/svg">
<path d="M92.1101 62.0088C89.2676 63.9906 86.445 63.8305 84.5233 61.6285C82.6416 59.4865 82.7417 55.7231 84.7034 53.6212C86.6052 51.5994 89.4077 51.5594 92.1702 53.6012C92.1702 52.7604 92.1702 52.0198 92.1702 51.2791C92.1702 48.977 92.1902 46.6749 92.1502 44.3728C92.1502 43.7523 92.2903 43.412 92.9709 43.5121C93.1911 43.5521 93.4514 43.5521 93.6716 43.5121C94.4723 43.392 94.6925 43.7323 94.6925 44.513C94.6725 50.3182 94.6725 56.1035 94.6725 61.9087C94.6725 62.4092 94.8927 63.0698 93.9318 63.0898C92.2503 63.1298 92.2503 63.1699 92.1101 62.0088ZM88.8872 54.2418C86.9455 54.2618 85.6643 55.6631 85.6843 57.765C85.6843 59.8068 87.0656 61.2882 88.9473 61.2882C90.869 61.2882 92.2903 59.7668 92.3103 57.7249C92.3303 55.6831 90.889 54.2218 88.8872 54.2418Z" fill="#8E8E8E"/>
<path d="M13.2388 53.2808C14.2196 52.4801 15.1405 52.0797 16.2014 52.0597C18.8839 51.9996 20.3452 53.3208 20.4253 56.0032C20.4853 58.1452 20.4253 60.2671 20.4453 62.409C20.4653 63.0496 20.185 63.0897 19.6646 63.0897C17.943 63.1097 17.963 63.1297 17.943 61.4482C17.943 59.6866 17.943 57.905 17.8629 56.1434C17.8029 54.8222 17.3225 54.3417 16.1614 54.2216C14.7401 54.0615 13.8193 54.5619 13.4389 55.683C13.2388 56.2635 13.2187 56.864 13.2187 57.4646C13.2187 59.066 13.1987 60.6675 13.2187 62.2689C13.2388 62.8294 13.1387 63.0897 12.4781 63.0897C10.6764 63.0897 10.6764 63.1297 10.6764 61.3281C10.6764 55.763 10.6965 50.178 10.6564 44.6129C10.6564 43.6521 10.9567 43.3718 11.8175 43.5119C12.0377 43.552 12.2779 43.532 12.5181 43.5119C13.1186 43.4319 13.2388 43.7321 13.2187 44.2726C13.1987 46.875 13.2187 49.4773 13.2187 52.0797C13.2388 52.4 13.2388 52.7403 13.2388 53.2808Z" fill="#080808"/>
<path d="M30.2742 53.461C30.5945 53.1608 30.054 52.4801 30.6545 52.38C31.2951 52.28 31.9757 52.32 32.6363 52.38C32.9366 52.4001 32.8365 52.7404 32.8365 52.9606C32.8365 56.1234 32.8365 59.2863 32.8365 62.4492C32.8365 62.9096 32.7164 63.1298 32.2159 63.0897C31.9557 63.0697 31.6754 63.0697 31.4152 63.0897C30.7346 63.1098 30.034 63.2099 30.4944 61.7685C29.0331 63.0297 27.6918 63.5702 26.0904 63.39C24.509 63.2099 23.2478 62.5292 22.367 61.188C20.7856 58.8459 21.0658 55.4628 22.9676 53.5411C24.9093 51.6194 27.3115 51.5993 30.2742 53.461ZM23.8684 57.7249C23.8684 59.8068 25.2897 61.3081 27.2114 61.2881C29.1732 61.2681 30.5144 59.7868 30.4944 57.6849C30.4744 55.663 29.0931 54.2217 27.1514 54.2217C25.2496 54.2017 23.8684 55.683 23.8684 57.7249Z" fill="#080808"/>
<path d="M62.0029 58.2852C60.8418 58.2852 59.6607 58.3052 58.4997 58.2652C57.8992 58.2452 57.8391 58.4854 57.9992 58.9658C58.3996 60.1669 59.1603 60.9876 60.4214 61.2078C61.7426 61.428 62.8436 60.9676 63.6844 59.9067C63.8645 59.6664 63.9646 59.146 64.365 59.3061C65.0056 59.5663 65.6662 59.8266 66.1666 60.327C66.3068 60.4672 66.0866 60.6874 65.9865 60.8475C64.6453 62.9894 61.4624 63.9703 58.88 63.0695C56.5379 62.2488 55.1166 59.8266 55.3969 57.1842C55.6171 55.0423 56.3978 53.2807 58.5197 52.4799C60.6016 51.6992 62.6434 51.7593 64.4451 53.2406C65.8463 54.4017 66.1666 56.0231 66.2267 57.7247C66.2467 58.2051 65.9865 58.2652 65.6061 58.2452C64.405 58.2652 63.204 58.2852 62.0029 58.2852ZM60.8218 56.3434C61.5625 56.3434 62.2831 56.3034 63.0238 56.3434C63.7044 56.3835 63.6644 56.0632 63.4241 55.6428C62.8837 54.6419 62.0029 54.1414 60.9019 54.1615C59.7208 54.1815 58.82 54.7019 58.2395 55.7829C57.9792 56.2834 58.1994 56.3434 58.6198 56.3434C59.3605 56.3234 60.1011 56.3434 60.8218 56.3434Z" fill="#080808"/>
<path d="M80.0992 61.8689C78.4778 63.2702 76.8363 63.7306 75.0146 63.2502C73.9337 62.9699 72.9928 62.4094 72.3122 61.4886C70.6507 59.3066 70.6707 55.9035 72.3522 53.9618C74.354 51.6397 76.476 51.4995 79.9992 53.4213C80.2794 53.121 79.859 52.4804 80.3395 52.4004C80.98 52.2802 81.6607 52.3203 82.3213 52.3803C82.6015 52.4004 82.5415 52.7607 82.5415 52.9809C82.5415 56.1237 82.5415 59.2466 82.5615 62.3894C82.5615 62.8899 82.4414 63.1501 81.9009 63.09C81.7007 63.07 81.5005 63.07 81.3003 63.09C80.5597 63.1501 79.9191 63.1501 80.0992 61.8689ZM80.1593 57.7852C80.1793 55.7033 78.8181 54.222 76.8563 54.182C75.0347 54.162 73.5533 55.7234 73.5333 57.7052C73.5133 59.6669 74.9546 61.2684 76.7762 61.2884C78.758 61.3084 80.1393 59.8871 80.1593 57.7852Z" fill="#8E8E8E"/>
<path d="M125.861 52.0801C129.224 52.0801 131.906 54.5423 131.926 57.6852C131.946 60.828 129.264 63.4504 126.001 63.4704C122.558 63.4904 119.815 60.9881 119.795 57.7652C119.775 54.5423 122.418 52.0801 125.861 52.0801ZM122.358 57.7252C122.358 59.6469 123.879 61.1283 125.881 61.1283C127.843 61.1283 129.404 59.5869 129.404 57.6852C129.384 55.8635 127.782 54.3221 125.901 54.3021C123.959 54.3221 122.358 55.8435 122.358 57.7252Z" fill="#8E8E8E"/>
<path d="M36.3997 53.4208C37.5607 52.3799 38.6617 52.0196 39.9029 52.0596C42.1449 52.1197 43.5462 53.3608 43.6663 55.6228C43.7864 57.9249 43.7063 60.227 43.7463 62.5291C43.7463 62.9495 43.6262 63.0896 43.1858 63.1096C41.2641 63.2297 41.2641 63.2497 41.2641 61.3881C41.2641 59.7866 41.3041 58.1852 41.2441 56.5837C41.184 54.6219 40.2231 53.9213 38.3014 54.3016C37.4606 54.4618 36.9602 55.0023 36.72 55.783C36.5398 56.3635 36.4798 56.964 36.4998 57.5646C36.5198 58.8257 36.4998 60.1069 36.4998 61.368C36.4998 63.1496 36.4998 63.1296 34.7182 63.1096C34.1577 63.1096 33.9775 62.9495 33.9775 62.389C33.9975 59.2862 33.9975 56.1833 33.9775 53.0805C33.9775 52.54 34.1176 52.2598 34.6981 52.3399C34.9984 52.3799 35.2987 52.3599 35.599 52.3399C36.2195 52.2798 36.78 52.2798 36.3997 53.4208Z" fill="#080808"/>
<path d="M47.2695 53.441C48.5307 52.2799 49.7918 51.9797 51.1731 52.0998C53.0748 52.2599 54.3159 53.421 54.4961 55.3227C54.7363 57.7048 54.5561 60.107 54.5962 62.5092C54.5962 62.9096 54.4961 63.0697 54.0357 63.1097C52.0739 63.2499 52.0739 63.2699 52.0739 61.3281C52.0739 59.6866 52.0939 58.0652 52.0739 56.4237C52.0539 54.8823 51.4934 54.3018 50.0921 54.2217C48.5907 54.1416 47.6699 54.8022 47.4697 56.2035C47.1695 58.2253 47.3096 60.2672 47.3296 62.289C47.3296 62.9696 47.1294 63.1097 46.4888 63.1097C44.8674 63.0697 44.8674 63.1097 44.8674 61.4883C44.8674 58.6857 44.8874 55.8832 44.8474 53.1007C44.8474 52.4801 45.0075 52.2399 45.6281 52.34C45.8883 52.38 46.1685 52.38 46.4288 52.34C47.1094 52.2399 47.5098 52.4 47.2695 53.441Z" fill="#080808"/>
<path d="M9.31518 59.6064C9.31518 60.267 9.31518 60.7675 9.31518 61.2479C9.31518 62.8494 9.29516 62.8694 7.7938 63.2497C4.83112 63.9704 1.68828 62.6092 0.507207 60.0669C-1.11426 56.5637 1.32795 52.52 5.33157 52.0996C5.43167 52.0796 5.53176 52.0796 5.63185 52.0796C8.97487 51.8794 9.49534 52.3999 9.25513 55.843C8.35431 55.0223 7.4535 54.3217 6.23239 54.3016C4.97125 54.2816 3.95032 54.722 3.20965 55.7429C2.16871 57.1442 2.36889 59.146 3.63003 60.267C5.17143 61.6483 7.19326 61.4681 9.31518 59.6064Z" fill="#080808"/>
<path d="M115.111 52.0799C116.372 52.0599 117.373 52.5604 118.094 53.6013C118.354 53.9816 118.354 54.2419 117.873 54.422C117.133 54.7023 116.492 55.503 115.671 54.4421C115.371 54.0617 114.61 54.0817 114.27 54.6222C113.89 55.2027 114.27 55.6432 114.791 55.9034C115.471 56.2437 116.192 56.544 116.873 56.8643C118.794 57.7851 119.495 59.0662 119.014 60.7278C118.534 62.4293 116.752 63.6104 114.931 63.4302C113.469 63.2901 112.228 62.7496 111.428 61.4284C111.167 60.988 111.187 60.7077 111.708 60.5476C112.028 60.4475 112.348 60.3274 112.629 60.1672C113.089 59.907 113.349 60.0071 113.67 60.4475C114.27 61.3083 115.151 61.4884 115.952 61.048C116.853 60.5676 116.873 59.6067 115.992 59.0863C115.191 58.6058 114.33 58.2255 113.51 57.7851C111.948 56.9243 111.428 55.9034 111.808 54.4621C112.168 53.0608 113.55 52.0599 115.111 52.0799Z" fill="#8E8E8E"/>
<path d="M101.078 58.5254C101.979 56.6837 102.84 54.9622 103.701 53.2406C104.081 52.4799 105.903 51.9194 106.603 52.3598C107.004 52.6 106.663 52.9003 106.543 53.1205C105.082 55.9631 103.621 58.8057 102.139 61.6282C101.819 62.2288 101.599 62.9094 101.038 63.5099C100.558 62.6091 100.117 61.7683 99.677 60.9076C98.3558 58.3252 97.0546 55.7429 95.7134 53.1806C95.3931 52.56 95.3331 52.3598 96.1939 52.2797C97.6352 52.1396 98.4359 52.6 98.9564 53.9813C99.4969 55.5027 100.298 56.944 101.078 58.5254Z" fill="#8E8E8E"/>
<path d="M67.2877 53.321C67.2877 50.3583 67.3077 47.3956 67.2677 44.4329C67.2476 43.6522 67.4879 43.4921 68.2085 43.5121C69.7499 43.5521 69.7499 43.5121 69.7499 45.1135C69.7499 50.7787 69.7299 56.4438 69.7699 62.0889C69.7699 62.9497 69.5297 63.23 68.729 63.0898C68.5088 63.0498 68.2486 63.0498 68.0284 63.0898C67.3878 63.1899 67.2677 62.8896 67.2677 62.3091C67.3077 59.3064 67.2877 56.3037 67.2877 53.321Z" fill="#080808"/>
<path d="M135.389 53.2806C136.51 52.2397 137.691 51.8594 139.013 52.1596C139.393 52.2397 140.074 52.2998 139.994 52.8002C139.893 53.5008 139.513 54.1815 138.953 54.6619C138.872 54.742 138.552 54.5218 138.332 54.4617C137.171 54.0614 136.01 54.6018 135.59 55.7429C135.269 56.6437 135.349 57.5845 135.329 58.5054C135.309 59.7265 135.289 60.9676 135.329 62.1887C135.349 62.8893 135.089 63.1696 134.388 63.0695C134.328 63.0695 134.248 63.0695 134.188 63.0695C132.627 63.0495 132.787 63.2697 132.787 61.7083C132.787 58.9458 132.827 56.1833 132.767 53.4208C132.747 52.4599 133.087 52.1796 133.948 52.2998C134.569 52.3998 135.409 51.9795 135.389 53.2806Z" fill="#8E8E8E"/>
<path d="M107.564 57.7051C107.564 56.1437 107.584 54.5823 107.564 53.0209C107.564 52.5004 107.724 52.3403 108.245 52.3203C110.126 52.2402 110.126 52.2202 110.126 54.1219C110.126 56.7843 110.106 59.4467 110.146 62.1091C110.166 62.8898 109.946 63.2301 109.146 63.11C108.885 63.07 108.605 63.07 108.345 63.11C107.724 63.1901 107.544 62.9098 107.564 62.3093C107.584 60.7679 107.564 59.2465 107.564 57.7051Z" fill="#8E8E8E"/>
<path d="M108.685 49.3172C107.784 49.2771 107.104 48.5565 107.164 47.7157C107.224 46.8749 107.944 46.2544 108.865 46.2744C109.786 46.2944 110.427 46.955 110.407 47.8558C110.407 48.7967 109.726 49.3772 108.685 49.3172Z" fill="#8E8E8E"/>
<path d="M108.545 8L138.772 11.8034L117.613 17.1683L108.545 8Z" fill="#B5BF34"/>
<path d="M103.1 16.768L138.772 11.8035L111.568 22.5132L103.1 16.768Z" fill="#169ED9"/>
<path d="M115.491 15.0264L138.772 11.8035L117.613 17.1683L115.491 15.0264Z" fill="#7B9A4B"/>
<path d="M138.772 11.8035L107.464 24.1346C107.464 24.1346 107.424 39.1883 107.464 39.1282C107.464 39.0081 138.772 11.8035 138.772 11.8035Z" fill="#ED7A23"/>
<path d="M111.568 22.5132L114.09 24.1346L138.772 11.8035L111.568 22.5132Z" fill="#BA7432"/>
<path d="M138.772 11.8035L119.415 23.9545L122.077 36.0454L138.772 11.8035Z" fill="#C03F97"/>
<path d="M138.772 11.8035L119.415 23.9545L120.276 27.898L138.772 11.8035Z" fill="#AD3A73"/>
<path d="M138.772 11.8035L127.382 23.3139L127.702 37.2665L138.772 11.8035Z" fill="#F8E010"/>
<path d="M138.772 11.8035L127.382 23.1337L127.482 28.1983L138.772 11.8035Z" fill="#D79B29"/>
</svg>
