<svg width="260" height="160" viewBox="0 0 260 160" fill="none" xmlns="http://www.w3.org/2000/svg">
<path d="M260 0H0V160H260V0Z" fill="#304C9C"/>
<path fill-rule="evenodd" clip-rule="evenodd" d="M249.855 93.2617C249.855 95.8248 247.868 97.8208 245.295 97.8208C242.722 97.8208 240.736 95.826 240.736 93.2617C240.736 90.706 242.722 88.7051 245.295 88.7051C247.868 88.7051 249.855 90.706 249.855 93.2617ZM241.446 93.2617C241.446 95.4434 243.088 97.1695 245.295 97.1695C247.496 97.1695 249.139 95.4422 249.139 93.2617C249.139 91.0812 247.497 89.3539 245.295 89.3539C243.088 89.3539 241.446 91.0812 241.446 93.2617ZM244.29 95.9003H243.64V90.6305H245.662C246.857 90.6305 247.374 91.1431 247.374 92.0891C247.374 93.0178 246.768 93.4388 246.061 93.5601L247.626 95.9016H246.862L245.382 93.5601H244.291V95.9003H244.29V95.9003ZM245.146 93.0054C245.944 93.0054 246.727 92.9831 246.727 92.0891C246.727 91.3536 246.115 91.1827 245.481 91.1827H244.289V93.0066H245.146V93.0054Z" fill="white"/>
<path fill-rule="evenodd" clip-rule="evenodd" d="M72.481 98.7998L80.7721 59.7998H26.49L18.2002 98.7998H72.481Z" fill="white"/>
<path fill-rule="evenodd" clip-rule="evenodd" d="M27.6224 61.4121C27.6224 61.4121 57.8039 67.6168 58.4019 67.7183C65.3359 68.9417 65.1217 70.2814 65.1217 70.2814C69.9767 70.2542 70.5748 70.4523 71.4242 71.1593C73.9811 73.2952 69.8257 79.5791 69.8257 79.5791C69.2326 80.0224 24.335 97.3624 24.335 97.3624H71.3066L78.9897 61.2412L27.6521 61.2462L27.6224 61.4121V61.4121Z" fill="#304C9C"/>
<path fill-rule="evenodd" clip-rule="evenodd" d="M62.7611 73.1133C62.0801 73.4501 60.2983 73.6321 59.4699 73.7064C58.6651 73.7745 58.4496 73.8537 58.4373 74.1608C58.4249 74.4357 58.5561 74.5942 59.704 74.5942C62.3413 74.5942 67.0899 73.5974 68.52 74.0531C69.2741 74.292 68.6637 75.6429 68.0507 77.4086C67.8118 78.0921 68.2811 78.0475 68.5535 77.7442C68.8283 77.4482 70.0579 75.1922 70.1916 74.0419C70.3798 72.4112 68.9868 72.166 67.0527 72.166H63.9845C63.8272 72.166 63.6922 72.275 63.5028 72.5263C63.3344 72.7492 63.1957 72.8916 62.7611 73.1133Z" fill="#304C9C"/>
<path fill-rule="evenodd" clip-rule="evenodd" d="M25.8776 69.593L19.9824 97.3711C19.9824 97.3711 38.0455 88.5054 40.2495 87.3712C44.7789 85.0496 51.0343 81.9714 56.818 80.0001C57.9213 79.625 62.6463 78.1713 65.3914 77.6822C66.4625 77.489 66.9095 77.312 66.8958 77.1139C66.8575 76.5431 65.7889 76.5109 63.9724 76.5951C58.4364 76.8576 47.8236 81.0799 44.7739 82.692L41.3255 72.0087H63.3521C64.3377 69.2339 50.3162 69.6202 49.8741 69.593H25.8776ZM91.8892 75.0275C88.3207 75.0275 86.186 73.5924 86.8856 70.4189C88.0544 64.9274 88.8296 61.2412 88.8296 61.2412H91.8149C91.8149 61.2412 89.9836 69.723 90.0405 69.5125C89.5712 71.6088 90.0405 72.8718 92.325 72.8953C94.513 72.8953 95.6323 71.6323 96.0818 69.5125L97.8561 61.2412H100.841C98.8355 70.4189 100.841 61.2412 98.8591 70.4189C98.1756 73.5924 95.4614 75.0275 91.8892 75.0275ZM112.733 74.7823H108.98L105.632 64.7392H105.575L103.483 74.7823H100.834L103.707 61.2412H107.579L110.792 71.3983H110.828L112.964 61.2412H115.607L112.733 74.7823ZM118.586 74.7823H115.607L118.474 61.2412H121.461L118.586 74.7823ZM134.395 63.3957H130.182L127.766 74.7823H124.78L127.198 63.3957H122.987L123.46 61.2412H134.844L134.395 63.3957ZM146.201 63.3957H139.378L138.624 66.9271H144.571L144.138 68.9256H138.191L137.417 72.6278H144.232L143.778 74.7823H133.962L136.851 61.2412H146.65L146.201 63.3957ZM152.077 74.7823H145.959L148.832 61.2412H155.403C159.498 61.2412 160.879 63.9628 160.291 67.4162C159.481 72.2923 155.853 74.7823 152.077 74.7823ZM154.419 63.3957H151.377L149.415 72.6291H151.549C154.928 72.6291 156.874 70.4201 157.402 67.3827C157.781 65.2283 156.893 63.3957 154.419 63.3957ZM174.81 63.3957H171.613C169.988 63.3957 169.255 63.7375 169.105 64.3974C168.651 66.5519 174.487 68.2668 173.937 71.5914C173.635 73.4438 172.011 74.7836 168.273 74.7836H163.706L164.155 72.6291H167.841C168.97 72.6291 170.371 72.6873 170.635 71.5518C171.07 69.6041 165.326 67.6849 165.758 64.4383C166.022 62.4881 167.761 61.2412 171.275 61.2412H175.279L174.81 63.3957ZM187.747 63.3957H183.531L181.117 74.7823H178.133L180.551 63.3957H176.339L176.816 61.2412H188.201L187.747 63.3957ZM188.288 74.7823L189.459 72.6278H193.725L192.537 63.9257L186.583 74.7823H183.604L191.362 61.2412H194.931L197.044 74.7823H188.288ZM209.159 63.3957H204.945L202.535 74.7823H199.551L201.964 63.3957H197.756L198.226 61.2412H209.614L209.159 63.3957ZM220.946 63.3957H214.131L213.379 66.9271H219.326L218.893 68.9256H212.938L212.167 72.6278H218.987L218.53 74.7823H208.708L211.603 61.2412H221.405L220.946 63.3957ZM231.5 63.3957H228.306C226.682 63.3957 225.946 63.7375 225.796 64.3974C225.344 66.5519 231.175 68.2668 230.63 71.5914C230.325 73.4438 228.702 74.7836 224.964 74.7836H220.396L220.845 72.6291H224.532C225.663 72.6291 227.059 72.6873 227.327 71.5518C227.761 69.6041 222.017 67.6849 222.454 64.4383C222.723 62.4881 224.454 61.2412 227.973 61.2412H231.972L231.5 63.3957ZM87.8328 92.1854C87.3635 92.1854 86.8509 92.1124 86.4212 92.0715L86.2702 90.1052C86.6466 90.1411 87.1394 90.1968 87.5876 90.1968C89.6294 90.1968 90.3674 88.8014 90.5358 87.9916C90.8553 86.5169 90.1024 85.9696 89.0066 85.9696H86.5698L84.1541 97.3574H81.1712L84.0401 83.8163H90.516C93.4456 83.8163 93.7836 86.3683 93.4246 88.0584C92.8785 90.6376 90.5172 92.1854 87.8328 92.1854ZM100.016 97.6026C95.8465 97.6026 93.4989 94.4303 94.3111 90.5794C95.3351 85.7591 98.8281 83.5712 103.018 83.5712C107.174 83.5712 109.572 86.5577 108.703 90.5794C107.645 95.5063 104.248 97.6026 100.016 97.6026ZM102.549 85.7257C99.8447 85.7257 98.0542 87.5198 97.3571 90.5794C96.7665 93.2057 97.6952 95.4506 100.489 95.4506C103.189 95.4506 105.001 93.6391 105.644 90.5794C106.23 87.8393 105.304 85.7257 102.549 85.7257ZM119.531 85.9708H116.34C114.716 85.9708 113.978 86.3064 113.827 86.9676C113.377 89.127 119.214 90.842 118.663 94.1666C118.362 96.0115 116.736 97.3587 112.998 97.3587H108.43L108.88 95.2067H112.56C113.695 95.2067 115.095 95.2624 115.36 94.1282C115.789 92.1866 110.053 90.2612 110.486 87.0134C110.747 85.0644 112.484 83.8188 116.001 83.8188H120.004L119.531 85.9708ZM132.469 85.9708H128.255L125.842 97.3587H122.861L125.278 85.9708H121.061L121.534 83.8176H132.925L132.469 85.9708ZM133.031 97.3587L134.201 95.2067H138.472L137.282 86.4995L131.33 97.3587H128.348L136.105 83.8176H139.676L141.789 97.3587H133.031ZM152.506 97.3587H143.347L146.218 83.8176H149.221L146.805 95.2067H152.975L152.506 97.3587ZM168.651 85.9708H165.459C163.836 85.9708 163.099 86.3064 162.947 86.9676C162.5 89.127 168.333 90.842 167.783 94.1666C167.481 96.0115 165.858 97.3587 162.117 97.3587H157.55L157.997 95.2067H161.681C162.815 95.2067 164.213 95.2624 164.479 94.1282C164.908 92.1866 159.171 90.2612 159.608 87.0134C159.87 85.0644 161.608 83.8188 165.12 83.8188H169.124L168.651 85.9708ZM181.054 85.9708H174.235L173.482 89.5034H179.43L178.999 91.5007H173.05L172.271 95.2067H179.093L178.636 97.3587H168.818L171.708 83.8176H181.507L181.054 85.9708ZM189.637 91.518L191.867 97.3587H188.602L186.146 89.9368C186.521 89.9925 186.995 89.9752 187.28 89.9752C188.805 89.9752 190.203 89.3313 190.53 87.7266C190.697 86.8772 190.543 85.9485 188.886 85.9485H186.201L183.786 97.3587H180.802L183.677 83.8176H189.979C192.623 83.8176 193.679 85.0075 193.513 87.2685C193.324 89.8229 191.619 91.2394 189.637 91.518ZM200.658 97.3587H197.132L195.091 83.8176H198.071L199.47 94.6742L205.415 83.8176H208.363L200.658 97.3587ZM210.278 97.3587H207.297L210.162 83.8176H213.149L210.278 97.3587ZM225.251 86.159C224.404 85.9126 223.462 85.7257 222.076 85.7257C219.374 85.7257 217.075 87.5198 216.434 90.5794C215.79 93.6391 217.316 95.4506 220.019 95.4506C221.438 95.4506 222.569 95.2376 223.647 94.9763L222.909 97.3005C221.816 97.4701 220.72 97.6026 219.563 97.6026C215.412 97.6026 212.334 95.4258 213.374 90.5794C214.392 85.7256 218.397 83.5712 222.549 83.5712C223.553 83.5712 224.554 83.7036 225.516 83.8733L225.251 86.159ZM237.283 85.9708H230.463L229.705 89.5034H235.662L235.222 91.5007H229.278L228.499 95.2067H235.316L234.861 97.3587H225.043L227.93 83.8176H237.732L237.283 85.9708Z" fill="white"/>
<path fill-rule="evenodd" clip-rule="evenodd" d="M238.59 79.8054L238.798 78.8037H85.1043L84.8926 79.8054H238.59Z" fill="#CC262D"/>
<path fill-rule="evenodd" clip-rule="evenodd" d="M25.9158 69.5546L20.0205 97.3333C20.0205 97.3333 38.084 88.4674 40.288 87.3332C44.8175 85.0115 51.0731 81.9332 56.8569 79.962C57.9602 79.5868 62.6853 78.1331 65.4305 77.644C66.5016 77.4508 66.9486 77.2737 66.935 77.0756C66.8966 76.5048 65.828 76.4726 64.0115 76.5568C58.4753 76.8193 47.8624 81.0417 44.8126 82.6539L41.3641 71.9704H63.3911C64.3768 69.1955 50.3549 69.5818 49.9129 69.5546H25.9158Z" fill="#304C9C"/>
</svg>
