<?xml version="1.0" encoding="UTF-8"?>
<svg width="44px" height="28px" viewBox="0 0 44 28" version="1.1" xmlns="http://www.w3.org/2000/svg" xmlns:xlink="http://www.w3.org/1999/xlink">
    <!-- Generator: sketchtool 55.2 (78181) - https://sketchapp.com -->
    <title>E7EFE37E-BCCA-4265-9833-0DF3006A49BD</title>
    <desc>Created with sketchtool.</desc>
    <g id="Page-1" stroke="none" stroke-width="1" fill="none" fill-rule="evenodd">
        <g id="All-label-formats" transform="translate(-639.000000, -1150.000000)">
            <rect fill="#FFFFFF" x="0" y="0" width="1280" height="1457"></rect>
            <g id="Group-7-Copy-18" transform="translate(661.000000, 1164.000000) rotate(-270.000000) translate(-661.000000, -1164.000000) translate(647.000000, 1142.000000)">
                <g id="Group-2-Copy" transform="translate(0.000000, 0.000000)">
                    <g id="Group-6" transform="translate(0.000000, 0.000000)">
                        <g id="Group-7">
                            <rect id="Rectangle" stroke="#BCC2C8" fill="#FFFFFF" x="0.5" y="0.5" width="27" height="43" rx="2"></rect>
                            <rect id="Rectangle-Copy-4" stroke="#BCC2C8" fill="#FFFFFF" x="3.5" y="7.5" width="21" height="29" rx="1"></rect>
                            <rect id="Rectangle" fill="#BCC2C8" x="7" y="14" width="1" height="5"></rect>
                            <rect id="Rectangle" fill="#BCC2C8" x="9" y="14" width="1" height="5"></rect>
                            <rect id="Rectangle" fill="#BCC2C8" x="16" y="14" width="1" height="5"></rect>
                            <rect id="Rectangle" fill="#BCC2C8" x="18" y="14" width="3" height="5"></rect>
                            <rect id="Rectangle" fill="#BCC2C8" x="11" y="14" width="4" height="5"></rect>
                            <rect id="Rectangle" fill="#BCC2C8" x="17" y="23" width="10" height="20"></rect>
                            <text id="PNG" transform="translate(22.500000, 32.500000) rotate(270.000000) translate(-22.500000, -32.500000) " font-family="Roboto-Medium, Roboto" font-size="8" font-weight="400" fill="#FFFFFF">
                                <tspan x="14.3808594" y="35">PNG</tspan>
                            </text>
                        </g>
                        <g id="Group" transform="translate(3.000000, 7.000000)"></g>
                    </g>
                </g>
            </g>
            <g id="format-copy" transform="translate(640.000000, 1167.000000)"></g>
        </g>
    </g>
</svg>