<svg width="260" height="160" viewBox="0 0 260 160" fill="none" xmlns="http://www.w3.org/2000/svg">
<path d="M260 0H0V160H260V0Z" fill="#4B2682"/>
<path d="M96.5962 65.2528C96.5962 65.2528 54.0462 55.5069 39.8629 64.0728C24.5343 73.338 81.0474 93.9224 105.318 96.3699C105.318 96.3699 46.0295 82.1662 48.0557 69.3173C49.6855 58.741 94.7022 65.5151 96.5962 65.2528Z" fill="#005996"/>
<path d="M102.146 69.0112C102.146 69.0112 65.3666 60.5327 53.4737 67.7001C40.6559 75.4357 100.296 94.3594 120.558 96.3697C120.558 96.3697 58.8916 81.6853 60.5654 70.9342C61.9749 62.106 100.561 69.2297 102.146 69.0112Z" fill="#669BC0"/>
<path d="M123.686 78.8884H106.859L101.75 86.8424H92.7642L116.77 50.8306H126.461L133.376 86.8424H125.095L123.686 78.8884ZM122.628 72.901L120.162 58.3913L109.899 72.901H122.628ZM147.471 86.8424H138.706L147.603 50.8306H164.87C167.953 50.8306 170.376 51.1365 172.138 51.7484C173.944 52.3602 175.353 53.3654 176.367 54.8076C177.424 56.2062 177.952 57.9106 177.952 59.8773C177.952 61.7128 177.556 63.461 176.719 65.1654C175.882 66.8699 174.869 68.2684 173.68 69.2736C172.49 70.3224 171.169 71.1091 169.803 71.6336C168.394 72.158 166.544 72.5513 164.165 72.8573C162.8 73.0321 160.245 73.1195 156.457 73.1195H150.863L147.471 86.8424ZM152.272 67.1321H154.959C159.584 67.1321 162.668 66.8699 164.209 66.3891C165.751 65.9084 166.984 65.1217 167.865 64.0291C168.746 62.9365 169.187 61.7565 169.187 60.4454C169.187 59.5713 168.967 58.8721 168.526 58.3039C168.086 57.7358 167.425 57.3425 166.632 57.0802C165.795 56.818 163.989 56.6869 161.126 56.6869H154.871L152.272 67.1321ZM209.05 73.8624L217.859 74.9987C216.142 79.0632 213.543 82.1224 210.107 84.2639C206.671 86.4054 202.663 87.4543 198.038 87.4543C192.84 87.4543 188.788 86.1432 185.837 83.4773C182.886 80.8113 181.432 76.9654 181.432 71.9395C181.432 67.8313 182.401 64.1165 184.383 60.7076C186.321 57.2987 189.052 54.7202 192.532 52.9284C196.012 51.1365 199.8 50.2188 203.896 50.2188C208.477 50.2188 212.221 51.2676 215.04 53.3654C217.859 55.4632 219.533 58.3039 220.062 61.8876L211.693 62.5869C211.208 60.4891 210.327 58.9595 209.006 58.0417C207.684 57.0802 205.922 56.6432 203.72 56.6432C201.297 56.6432 199.051 57.255 196.937 58.5225C194.822 59.7462 193.149 61.7128 191.915 64.3787C190.638 67.0447 190.021 69.6669 190.021 72.2891C190.021 75.1736 190.858 77.4024 192.488 78.9758C194.118 80.5491 196.144 81.3358 198.567 81.3358C200.813 81.3358 202.883 80.7239 204.777 79.4565C206.715 78.1454 208.125 76.3099 209.05 73.8624Z" fill="white"/>
<path d="M93.2485 108.563V99.9534H96.9926C97.8735 99.9534 98.5343 99.9971 98.9307 100.128C99.5033 100.259 99.9438 100.565 100.296 100.959C100.649 101.352 100.825 101.876 100.825 102.444C100.825 103.231 100.56 103.843 99.9878 104.324C99.4152 104.804 98.4902 105.067 97.1247 105.067H94.614V108.563H93.2485ZM94.57 104.062H97.1247C97.9176 104.062 98.5342 103.93 98.8866 103.668C99.239 103.406 99.4592 103.013 99.4592 102.488C99.4592 102.139 99.3712 101.876 99.195 101.614C99.0188 101.352 98.7985 101.221 98.5342 101.133C98.27 101.046 97.7854 101.002 97.1247 101.002H94.614V104.062H94.57ZM102.102 104.367C102.102 102.882 102.543 101.789 103.468 101.002C104.393 100.216 105.494 99.8223 106.859 99.8223C107.74 99.8223 108.533 99.9971 109.238 100.347C109.943 100.696 110.515 101.221 110.956 101.876C111.396 102.532 111.572 103.362 111.572 104.28C111.572 105.547 111.176 106.596 110.339 107.383C109.458 108.257 108.269 108.694 106.815 108.694C105.362 108.694 104.172 108.257 103.291 107.339C102.499 106.509 102.102 105.547 102.102 104.367ZM103.468 104.411C103.468 105.46 103.776 106.29 104.437 106.859C105.097 107.427 105.89 107.733 106.815 107.733C107.784 107.733 108.577 107.427 109.238 106.859C109.899 106.247 110.207 105.416 110.207 104.236C110.207 103.493 110.031 102.838 109.722 102.27C109.458 101.833 109.062 101.483 108.577 101.177C108.093 100.871 107.476 100.784 106.859 100.784C105.89 100.784 105.053 101.09 104.437 101.658C103.776 102.27 103.468 103.144 103.468 104.411ZM112.762 105.81L113.995 105.722C114.039 106.203 114.215 106.553 114.435 106.815C114.656 107.077 115.008 107.296 115.449 107.47C115.889 107.645 116.374 107.689 116.902 107.689C117.695 107.689 118.268 107.558 118.708 107.296C119.149 107.033 119.369 106.684 119.369 106.247C119.369 105.984 119.281 105.766 119.149 105.591C119.016 105.416 118.752 105.242 118.444 105.11C118.135 104.979 117.431 104.804 116.418 104.586C115.493 104.367 114.832 104.193 114.435 103.974C114.039 103.756 113.731 103.537 113.51 103.231C113.29 102.925 113.202 102.576 113.202 102.182C113.202 101.483 113.51 100.915 114.127 100.478C114.744 100.041 115.625 99.8223 116.682 99.8223C117.431 99.8223 118.047 99.9097 118.62 100.128C119.193 100.347 119.589 100.653 119.897 101.002C120.206 101.396 120.382 101.833 120.382 102.357L119.104 102.444C119.06 101.876 118.796 101.483 118.4 101.221C118.003 100.959 117.431 100.827 116.682 100.827C115.933 100.827 115.36 100.959 115.008 101.177C114.656 101.396 114.435 101.702 114.435 102.095C114.435 102.444 114.568 102.707 114.876 102.925C115.14 103.1 115.801 103.319 116.814 103.493C117.783 103.668 118.488 103.843 118.884 103.974C119.501 104.193 119.941 104.499 120.25 104.848C120.558 105.198 120.69 105.635 120.69 106.116C120.69 106.596 120.514 107.077 120.206 107.47C119.897 107.864 119.457 108.17 118.884 108.388C118.312 108.607 117.651 108.694 116.858 108.694C115.625 108.694 114.656 108.432 113.951 107.907C113.158 107.383 112.806 106.684 112.762 105.81ZM124.963 108.563V101.002H121.703V99.9971H129.544V101.002H126.284V108.563H124.963ZM128.751 108.563L132.539 99.9534H133.949L138.001 108.563H136.503L135.358 105.941H131.218L130.16 108.563H128.751ZM131.57 105.023H134.918L133.904 102.663C133.596 101.92 133.376 101.352 133.2 100.871C133.068 101.439 132.891 101.964 132.671 102.532L131.57 105.023ZM138.97 108.563V99.9534H140.291V107.514H145.137V108.519H138.97V108.563ZM149.982 108.563V99.9534H151.303V107.514H156.149V108.519H149.982V108.563ZM157.382 104.367C157.382 102.882 157.822 101.789 158.747 101.002C159.672 100.216 160.774 99.8223 162.139 99.8223C163.02 99.8223 163.813 99.9971 164.518 100.347C165.222 100.696 165.795 101.221 166.235 101.876C166.676 102.532 166.852 103.362 166.852 104.28C166.852 105.547 166.456 106.596 165.619 107.383C164.738 108.257 163.549 108.694 162.095 108.694C160.641 108.694 159.452 108.257 158.571 107.339C157.778 106.509 157.382 105.547 157.382 104.367ZM158.703 104.411C158.703 105.46 159.012 106.29 159.672 106.859C160.333 107.427 161.126 107.733 162.051 107.733C163.02 107.733 163.813 107.427 164.474 106.859C165.134 106.29 165.443 105.416 165.443 104.236C165.443 103.493 165.266 102.838 164.958 102.27C164.694 101.833 164.297 101.483 163.813 101.177C163.284 100.915 162.712 100.784 162.095 100.784C161.126 100.784 160.289 101.09 159.672 101.658C159.012 102.27 158.703 103.144 158.703 104.411ZM173.107 105.198V104.193H177.291V107.383C176.631 107.82 175.97 108.17 175.309 108.388C174.604 108.607 173.9 108.738 173.195 108.738C172.226 108.738 171.389 108.563 170.596 108.213C169.847 107.864 169.231 107.383 168.79 106.684C168.35 106.028 168.129 105.242 168.129 104.28C168.129 103.362 168.35 102.532 168.79 101.833C169.231 101.133 169.803 100.609 170.552 100.303C171.257 99.9534 172.138 99.8223 173.107 99.8223C173.812 99.8223 174.472 99.9097 175.001 100.128C175.529 100.347 175.97 100.609 176.322 100.959C176.675 101.308 176.939 101.789 177.115 102.401L175.926 102.663C175.75 102.182 175.574 101.833 175.309 101.57C175.089 101.308 174.737 101.133 174.34 101.002C173.944 100.871 173.503 100.784 173.019 100.784C172.314 100.784 171.697 100.915 171.169 101.177C170.64 101.439 170.244 101.833 169.935 102.357C169.627 102.882 169.451 103.537 169.451 104.28C169.451 105.416 169.803 106.29 170.464 106.859C171.125 107.427 172.006 107.733 173.107 107.733C173.635 107.733 174.164 107.645 174.693 107.47C175.221 107.296 175.662 107.077 175.97 106.859V105.242H173.107V105.198ZM179.45 108.563V99.9534H180.771V108.563H179.45ZM182.621 105.81L183.854 105.722C183.899 106.203 184.075 106.553 184.295 106.815C184.515 107.077 184.868 107.296 185.308 107.47C185.749 107.645 186.233 107.689 186.762 107.689C187.554 107.689 188.127 107.558 188.568 107.296C189.008 107.033 189.228 106.684 189.228 106.247C189.228 105.984 189.14 105.766 189.008 105.591C188.876 105.416 188.612 105.242 188.303 105.11C187.995 104.979 187.29 104.804 186.277 104.586C185.352 104.367 184.691 104.193 184.295 103.974C183.899 103.756 183.59 103.537 183.37 103.231C183.15 102.925 183.062 102.576 183.062 102.182C183.062 101.483 183.37 100.915 183.987 100.478C184.603 100.041 185.484 99.8223 186.541 99.8223C187.29 99.8223 187.907 99.9097 188.479 100.128C189.052 100.347 189.449 100.653 189.757 101.002C190.065 101.396 190.241 101.833 190.241 102.357L188.964 102.444C188.92 101.876 188.656 101.483 188.259 101.221C187.863 100.959 187.29 100.827 186.541 100.827C185.793 100.827 185.22 100.959 184.868 101.177C184.515 101.396 184.295 101.702 184.295 102.095C184.295 102.444 184.427 102.707 184.735 102.925C185.044 103.144 185.66 103.319 186.674 103.493C187.643 103.668 188.347 103.843 188.744 103.974C189.36 104.193 189.801 104.499 190.109 104.848C190.418 105.198 190.55 105.635 190.55 106.116C190.55 106.596 190.374 107.077 190.065 107.47C189.757 107.864 189.316 108.17 188.744 108.388C188.171 108.607 187.51 108.694 186.718 108.694C185.484 108.694 184.515 108.432 183.81 107.907C183.018 107.383 182.621 106.684 182.621 105.81ZM194.778 108.563V101.002H191.519V99.9971H199.359V101.002H196.1V108.563H194.778ZM200.945 108.563V99.9534H202.266V108.563H200.945ZM211.516 105.547L212.838 105.853C212.529 106.815 212.045 107.558 211.296 107.995C210.591 108.476 209.666 108.694 208.653 108.694C207.728 108.694 206.935 108.519 206.319 108.213C205.702 107.907 205.129 107.383 204.733 106.684C204.337 105.984 204.116 105.154 204.116 104.193C204.116 103.231 204.337 102.444 204.733 101.789C205.129 101.133 205.702 100.653 206.407 100.303C207.112 99.9534 207.904 99.8223 208.785 99.8223C209.754 99.8223 210.547 100.041 211.252 100.478C211.957 100.915 212.397 101.527 212.706 102.357L211.428 102.619C210.988 101.439 210.107 100.827 208.785 100.827C208.125 100.827 207.552 100.959 207.068 101.177C206.583 101.396 206.187 101.789 205.922 102.313C205.614 102.838 205.482 103.45 205.482 104.236C205.482 105.416 205.79 106.29 206.363 106.902C206.935 107.47 207.728 107.776 208.697 107.776C209.402 107.776 210.019 107.602 210.547 107.252C211.032 106.815 211.34 106.29 211.516 105.547ZM214.027 105.81L215.26 105.722C215.304 106.203 215.481 106.553 215.701 106.815C215.921 107.077 216.274 107.296 216.714 107.47C217.154 107.645 217.639 107.689 218.168 107.689C218.96 107.689 219.533 107.558 219.974 107.296C220.414 107.033 220.634 106.684 220.634 106.247C220.634 105.984 220.546 105.766 220.414 105.591C220.282 105.416 220.018 105.242 219.709 105.11C219.401 104.979 218.696 104.804 217.683 104.586C216.758 104.367 216.097 104.193 215.701 103.974C215.304 103.756 214.996 103.537 214.776 103.231C214.556 102.925 214.468 102.576 214.468 102.182C214.468 101.483 214.776 100.915 215.393 100.478C216.009 100.041 216.89 99.8223 217.947 99.8223C218.696 99.8223 219.313 99.9097 219.885 100.128C220.458 100.347 220.854 100.653 221.163 101.002C221.471 101.396 221.647 101.833 221.647 102.357L220.37 102.444C220.326 101.876 220.062 101.483 219.665 101.221C219.269 100.959 218.696 100.827 217.947 100.827C217.199 100.827 216.626 100.959 216.274 101.177C215.921 101.396 215.701 101.702 215.701 102.095C215.701 102.444 215.833 102.707 216.141 102.925C216.45 103.144 217.066 103.319 218.079 103.493C219.049 103.668 219.753 103.843 220.15 103.974C220.766 104.193 221.207 104.499 221.515 104.848C221.824 105.198 221.956 105.635 221.956 106.116C221.956 106.596 221.779 107.077 221.471 107.47C221.163 107.864 220.722 108.17 220.15 108.388C219.577 108.607 218.916 108.694 218.124 108.694C216.89 108.694 215.921 108.432 215.216 107.907C214.424 107.383 214.071 106.684 214.027 105.81Z" fill="white"/>
</svg>
