<svg width="30" height="30" viewBox="0 0 30 30" fill="none" xmlns="http://www.w3.org/2000/svg">
<rect width="30" height="30" rx="2" fill="#231F20"/>
<path d="M14.9297 16.787C14.4844 16.787 14.0566 16.8163 13.6348 16.8749L13.5352 15.5858L10.1133 18.1874L13.9043 20.3553L13.8047 19.078C13.8574 19.0721 13.9102 19.0663 13.957 19.0604C14.2031 19.037 14.4492 19.0194 14.707 19.0194C16.9805 19.0194 18.8262 20.0565 18.8262 21.328C18.8262 22.6053 16.9805 23.6366 14.707 23.6366C12.4336 23.6366 10.5879 22.5995 10.5879 21.328C10.5879 20.9706 10.7344 20.6366 10.9863 20.3319L8.9707 19.2655C8.50781 19.8807 8.25 20.578 8.25 21.3163C8.25 23.8182 11.2383 25.8456 14.918 25.8456C18.6035 25.8456 21.5859 23.8182 21.5859 21.3163C21.5977 18.8143 18.6094 16.787 14.9297 16.787Z" fill="#67D100"/>
<path d="M18.5447 8.91199C18.7849 9.29285 18.9197 9.7323 18.9197 10.201C18.9197 11.6659 17.5896 12.8553 15.949 12.8553C14.3083 12.8553 12.9783 11.6659 12.9783 10.201C12.9783 8.74207 14.2966 7.55847 15.9255 7.54675V8.88855L17.4607 7.92175L17.4665 7.92761L19.6404 6.49792C19.4705 6.37488 19.2888 6.26355 19.1013 6.16394L15.9197 4.16003V5.36707C12.7146 5.36707 10.1189 7.55847 10.1189 10.2538C10.1189 12.955 12.7146 15.1405 15.9197 15.1405C19.1248 15.1405 21.7205 12.9491 21.7205 10.2538C21.7205 9.25183 21.3572 8.31433 20.7419 7.54089L18.5447 8.91199Z" fill="#00B1E1"/>
</svg>
