<?xml version="1.0" encoding="UTF-8"?>
<svg width="16px" height="16px" viewBox="0 0 16 16" version="1.1" xmlns="http://www.w3.org/2000/svg" xmlns:xlink="http://www.w3.org/1999/xlink">
    <!-- Generator: sketchtool 56.2 (101010) - https://sketch.com -->
    <title>2E79C0FD-77D4-4E49-93B4-027C12422DFF</title>
    <desc>Created with sketchtool.</desc>
    <g id="Errors" stroke="none" stroke-width="1" fill="none" fill-rule="evenodd">
        <g id="Zero-state---Order-details" transform="translate(-314.000000, -799.000000)" fill="#E84155">
            <g id="Group-14" transform="translate(292.000000, 779.000000)">
                <g id="icon/16_error-copy" transform="translate(22.000000, 20.000000)">
                    <path d="M8,16 C3.581722,16 0,12.418278 0,8 C0,3.581722 3.581722,0 8,0 C12.418278,0 16,3.581722 16,8 C16,12.418278 12.418278,16 8,16 Z M8,4 C7.632,4 7.33333333,4.1489669 7.33333333,4.33325928 L7.33333333,9.66674072 C7.33333333,9.8510331 7.632,10 8,10 C8.368,10 8.66666667,9.8510331 8.66666667,9.66674072 L8.66666667,4.33325928 C8.66666667,4.1489669 8.368,4 8,4 Z M8,10.6666667 C7.63133333,10.6666667 7.33333333,10.9651841 7.33333333,11.3330002 C7.33333333,11.7014826 7.63133333,12 8,12 C8.368,12 8.66666667,11.7014826 8.66666667,11.3330002 C8.66666667,10.9651841 8.368,10.6666667 8,10.6666667 Z" id="icon/16_error"></path>
                </g>
            </g>
        </g>
    </g>
</svg>