<svg xmlns="http://www.w3.org/2000/svg" width="60" height="60" viewBox="0 0 60 60" fill="none">
<path d="M21.9299 8.40532V28.39C21.9299 28.39 28.9718 28.39 32.7405 28.104C35.7043 27.5851 36.2498 27.299 36.7954 24.3352L37.8864 19.9943H41.1096L40.5641 29.4811L40.8502 39.2007H37.6003L36.7954 35.4053C35.9904 32.7043 34.8993 32.1555 32.7405 31.896C30.0395 31.61 21.9299 31.61 21.9299 31.61V48.3714C21.9299 51.5947 23.5665 52.9718 27.3352 52.9718H38.6914C42.2007 52.9718 45.7067 52.6857 47.8921 47.5665L50.8292 41.0701H53.5569C53.2708 42.4206 51.9203 54.3223 51.6608 57C51.6608 57 41.3957 56.7406 37.0814 56.7406H17.6156L6 57V54.0628L9.76876 53.2312C12.4964 52.6857 13.3013 51.8807 13.3013 49.7219C13.3013 49.7219 13.5874 42.4206 13.5874 30.2561C13.5874 18.1216 13.3013 10.8169 13.3013 10.8169C13.3013 8.39867 12.4964 7.85315 9.76876 7.30763L6 6.5093V3.54552L17.3562 3.77837H38.9775C43.2917 3.77837 50.5665 3 50.5665 3C50.5665 3 50.307 7.57373 50.0209 18.3844H47.0572L45.9661 14.589C44.9017 9.72921 43.2884 7.31095 40.3013 7.31095H23.307C21.9299 7.31428 21.9299 7.57373 21.9299 8.40532Z" fill="#F45800"/>
</svg>
