<svg width="106" height="51" viewBox="0 0 106 51" fill="none" xmlns="http://www.w3.org/2000/svg">
<path d="M11.3678 18.233V3.97057C11.3678 3.44209 11.4203 3.12513 12.3154 3.12513H24.3663C26.4717 3.12513 27.6294 4.92146 28.4717 8.30199L29.1557 10.9965H31.208C31.5759 3.33727 31.8914 0.00915527 31.8914 0.00915527C31.8914 0.00915527 26.7343 0.590045 23.682 0.590045H8.26353L0 0.325805V2.54455L2.78974 3.07272C4.73689 3.44272 5.20961 3.86481 5.36875 5.66146C5.36875 5.66146 5.52695 10.9438 5.52695 19.6603C5.52695 28.3755 5.36875 33.6057 5.36875 33.6057C5.36875 35.1902 4.73689 35.7711 2.78974 36.1421L0 36.6705V38.888L8.26353 38.6244H22.0515C25.1564 38.6244 32.366 38.888 32.366 38.888C32.5233 36.9859 33.5766 28.3755 33.7344 27.4259H31.7873L29.7348 32.1273C28.1031 35.8242 25.7354 36.0887 23.1036 36.0887H15.2618C12.6302 36.0887 11.3672 35.0321 11.3672 32.7609V20.7166C11.3672 20.7166 17.1033 20.7166 19.1026 20.8754C20.5764 20.9815 21.4706 21.4039 21.9449 23.4638L22.5767 26.2107H24.8384L24.6812 19.29L24.9966 12.3177H22.7343L21.998 15.3813C21.5238 17.3885 21.2086 17.7591 19.1558 17.9697C16.8406 18.2346 11.3668 18.1815 11.3668 18.1815V18.2339H11.3678V18.233ZM42.5748 5.44994C41.8379 8.72503 41.101 11.2604 38.5223 12.951C36.9437 14.007 35.3646 14.3764 34.734 14.4294V16.4367H39.4174V32.6536C39.4174 37.1971 42.4175 39.4162 46.4166 39.4162C49.5218 39.4162 52.7314 38.0956 53.8369 35.3481L52.7314 33.9218C52.2049 34.8202 50.5219 36.1405 48.4166 36.1405C46.1014 36.1405 44.8384 34.5554 44.8384 30.5415V16.2264L52.6276 16.8079L53.0481 13.2149L44.8387 13.5322V5.50236L42.5748 5.44994ZM59.205 30.394L57.2054 30.4468C57.3104 31.6085 57.3636 33.0882 57.3636 34.4615C57.3636 35.8879 57.311 37.2084 57.2054 37.8421C57.2054 37.8421 61.205 39.3199 65.2572 39.3199C70.7304 39.3199 75.0987 36.6787 75.0987 31.5018C75.0987 22.6284 61.8369 23.9493 61.8369 17.9791C61.8369 15.4968 64.047 14.5455 66.4678 14.5455C68.3624 14.5455 69.941 15.2322 70.2567 16.2368L71.5727 20.1985L73.5201 20.093C73.6783 17.9797 73.7831 15.5498 74.0991 13.5956C72.4146 12.8559 68.8883 12.4326 66.6798 12.4326C61.5211 12.4326 57.3645 14.7043 57.3645 19.7758C57.3645 28.5971 70.3099 26.8011 70.3099 33.2994C70.3099 35.6227 68.8883 37.2605 65.679 37.2605C62.7326 37.2605 61.2585 35.7291 60.6807 34.1964L59.205 30.394ZM90.9238 36.4967C87.8771 45.0393 84.1476 47.2524 80.786 47.2524C79.3669 47.2524 78.6847 46.6191 78.4737 45.619L77.6858 41.505L75.4792 41.6105C75.059 44.0363 74.6388 46.7265 74.0616 48.9405C75.3751 49.941 77.5801 50.4695 79.3144 50.4695C82.9398 50.4695 88.4549 49.994 93.4969 37.9726L101.955 17.9364C102.638 16.3014 102.9 16.1432 104.896 15.3518L106 14.9309V13.0853L101.009 13.3489L95.6511 13.0853V14.9309L97.0161 15.3518C98.3814 15.7745 99.0129 16.3014 99.0129 17.2507C99.0129 17.7249 98.8547 18.1997 98.5915 18.9372C97.8036 20.9422 92.9182 32.8582 91.6064 35.3898L92.9179 34.9144C90.6062 29.1673 87.0883 19.5699 86.5624 17.9367C86.4574 17.6201 86.4049 17.3565 86.4049 17.0916C86.4049 16.2484 86.9826 15.5627 88.2435 15.2994L89.9772 14.9312V13.0856L82.7797 13.3492L77.0543 13.0856V14.9312L78 15.2473C79.3131 15.669 79.6286 16.0384 80.4165 17.8837C84.775 27.9026 86.8251 33.3854 89.6079 40.5573L90.9238 36.4967Z" fill="#F27224"/>
</svg>
