<?xml version="1.0" encoding="UTF-8"?>
<svg id="Layer_1" data-name="Layer 1" xmlns="http://www.w3.org/2000/svg" viewBox="0 0 1632.47 4650.47">
  <defs>
    <style>
      .cls-1 {
        fill: none;
        stroke: #30e096;
        stroke-miterlimit: 10;
        stroke-width: 2px;
      }
    </style>
  </defs>
  <line class="cls-1" x1="69.39" y1=".88" x2="69.39" y2="4650.19"/>
  <line class="cls-1" x1="140.01" y1=".88" x2="140.01" y2="4650.19"/>
  <line class="cls-1" x1=".81" y1=".88" x2=".81" y2="4650.19"/>
  <line class="cls-1" x1="210.63" y1=".88" x2="210.63" y2="4650.19"/>
  <line class="cls-1" x1="281.25" y1=".88" x2="281.25" y2="4650.19"/>
  <line class="cls-1" x1="351.86" y1=".88" x2="351.86" y2="4650.19"/>
  <line class="cls-1" x1="422.48" y1=".88" x2="422.48" y2="4650.19"/>
  <line class="cls-1" x1="493.1" y1=".88" x2="493.1" y2="4650.19"/>
  <line class="cls-1" x1="563.72" y1=".88" x2="563.72" y2="4650.19"/>
  <line class="cls-1" x1="637.14" y1=".88" x2="637.14" y2="4650.19"/>
  <line class="cls-1" x1="707.76" y1=".88" x2="707.76" y2="4650.19"/>
  <line class="cls-1" x1="778.38" y1=".88" x2="778.38" y2="4650.19"/>
  <line class="cls-1" x1="848.99" y1=".88" x2="848.99" y2="4650.19"/>
  <line class="cls-1" x1="919.61" y1=".88" x2="919.61" y2="4650.19"/>
  <line class="cls-1" x1="990.23" y1=".88" x2="990.23" y2="4650.19"/>
  <line class="cls-1" x1="1060.85" y1=".88" x2="1060.85" y2="4650.19"/>
  <line class="cls-1" x1="1131.46" y1=".88" x2="1131.46" y2="4650.19"/>
  <line class="cls-1" x1="1204.89" y1=".88" x2="1204.89" y2="4650.19"/>
  <line class="cls-1" x1="1275.51" y1=".88" x2="1275.51" y2="4650.19"/>
  <line class="cls-1" x1="1346.12" y1=".88" x2="1346.12" y2="4650.19"/>
  <line class="cls-1" x1="1417.01" y1=".88" x2="1417.01" y2="4650.19"/>
  <line class="cls-1" x1="1490.43" y1=".88" x2="1490.43" y2="4650.19"/>
  <line class="cls-1" x1="1561.05" y1=".88" x2="1561.05" y2="4650.19"/>
  <line class="cls-1" x1="1631.67" y1=".88" x2="1631.67" y2="4650.19"/>
  <line class="cls-1" x1="1631.67" y1=".88" x2=".81" y2=".88"/>
  <line class="cls-1" x1="1631.67" y1="71.43" x2=".81" y2="71.43"/>
  <line class="cls-1" x1="1631.67" y1="141.99" x2=".81" y2="141.99"/>
  <line class="cls-1" x1="1631.67" y1="212.54" x2=".81" y2="212.54"/>
  <line class="cls-1" x1="1631.67" y1="283.1" x2=".81" y2="283.1"/>
  <line class="cls-1" x1="1631.67" y1="353.65" x2=".81" y2="353.65"/>
  <line class="cls-1" x1="1631.67" y1="424.21" x2=".81" y2="424.21"/>
  <line class="cls-1" x1="1631.67" y1="494.76" x2=".81" y2="494.76"/>
  <line class="cls-1" x1="1631.67" y1="565.32" x2=".81" y2="565.32"/>
  <line class="cls-1" x1="1631.67" y1="635.87" x2=".81" y2="635.87"/>
  <line class="cls-1" x1="1631.67" y1="706.43" x2=".81" y2="706.43"/>
  <line class="cls-1" x1="1631.67" y1="776.98" x2=".81" y2="776.98"/>
  <line class="cls-1" x1="1631.67" y1="847.54" x2=".81" y2="847.54"/>
  <line class="cls-1" x1="1631.67" y1="918.09" x2=".81" y2="918.09"/>
  <line class="cls-1" x1="1631.67" y1="988.65" x2=".81" y2="988.65"/>
  <line class="cls-1" x1="1631.67" y1="1059.2" x2=".81" y2="1059.2"/>
  <line class="cls-1" x1="1631.67" y1="1129.76" x2=".81" y2="1129.76"/>
  <line class="cls-1" x1="1631.67" y1="1200.31" x2=".81" y2="1200.31"/>
  <line class="cls-1" x1="1631.67" y1="1270.87" x2=".81" y2="1270.87"/>
  <line class="cls-1" x1="1631.67" y1="1341.42" x2=".81" y2="1341.42"/>
  <line class="cls-1" x1="1631.67" y1="1411.98" x2=".81" y2="1411.98"/>
  <line class="cls-1" x1="1631.67" y1="1482.53" x2=".81" y2="1482.53"/>
  <line class="cls-1" x1="1631.67" y1="1549.21" x2=".81" y2="1549.21"/>
  <line class="cls-1" x1="1631.67" y1="1619.77" x2=".81" y2="1619.77"/>
  <line class="cls-1" x1="1631.67" y1="1690.32" x2=".81" y2="1690.32"/>
  <line class="cls-1" x1="1631.67" y1="1760.87" x2=".81" y2="1760.87"/>
  <line class="cls-1" x1="1631.67" y1="1831.43" x2=".81" y2="1831.43"/>
  <line class="cls-1" x1="1631.67" y1="1901.98" x2=".81" y2="1901.98"/>
  <line class="cls-1" x1="1631.67" y1="1972.54" x2=".81" y2="1972.54"/>
  <line class="cls-1" x1="1631.67" y1="2043.09" x2=".81" y2="2043.09"/>
  <line class="cls-1" x1="1631.67" y1="2113.65" x2=".81" y2="2113.65"/>
  <line class="cls-1" x1="1631.67" y1="2184.2" x2=".81" y2="2184.2"/>
  <line class="cls-1" x1="1631.67" y1="2254.76" x2=".81" y2="2254.76"/>
  <line class="cls-1" x1="1631.67" y1="2325.31" x2=".81" y2="2325.31"/>
  <line class="cls-1" x1="1631.67" y1="2395.87" x2=".81" y2="2395.87"/>
  <line class="cls-1" x1="1631.67" y1="2466.42" x2=".81" y2="2466.42"/>
  <line class="cls-1" x1="1631.67" y1="2536.98" x2=".81" y2="2536.98"/>
  <line class="cls-1" x1="1631.67" y1="2607.53" x2=".81" y2="2607.53"/>
  <line class="cls-1" x1="1631.67" y1="2678.09" x2=".81" y2="2678.09"/>
  <line class="cls-1" x1="1631.67" y1="2748.64" x2=".81" y2="2748.64"/>
  <line class="cls-1" x1="1631.67" y1="2819.2" x2=".81" y2="2819.2"/>
  <line class="cls-1" x1="1631.67" y1="2889.75" x2=".81" y2="2889.75"/>
  <line class="cls-1" x1="1631.67" y1="2960.31" x2=".81" y2="2960.31"/>
  <line class="cls-1" x1="1631.67" y1="3030.86" x2=".81" y2="3030.86"/>
  <line class="cls-1" x1="1631.67" y1="3097.54" x2=".81" y2="3097.54"/>
  <line class="cls-1" x1="1631.67" y1="3168.1" x2=".81" y2="3168.1"/>
  <line class="cls-1" x1="1631.67" y1="3238.65" x2=".81" y2="3238.65"/>
  <line class="cls-1" x1="1631.67" y1="3309.21" x2=".81" y2="3309.21"/>
  <line class="cls-1" x1="1631.67" y1="3379.76" x2=".81" y2="3379.76"/>
  <line class="cls-1" x1="1631.67" y1="3450.32" x2=".81" y2="3450.32"/>
  <line class="cls-1" x1="1631.67" y1="3520.87" x2=".81" y2="3520.87"/>
  <line class="cls-1" x1="1631.67" y1="3591.43" x2=".81" y2="3591.43"/>
  <line class="cls-1" x1="1631.67" y1="3661.98" x2=".81" y2="3661.98"/>
  <line class="cls-1" x1="1631.67" y1="3732.54" x2=".81" y2="3732.54"/>
  <line class="cls-1" x1="1631.67" y1="3803.09" x2=".81" y2="3803.09"/>
  <line class="cls-1" x1="1631.67" y1="3873.65" x2=".81" y2="3873.65"/>
  <line class="cls-1" x1="1631.67" y1="3944.2" x2=".81" y2="3944.2"/>
  <line class="cls-1" x1="1631.67" y1="4014.76" x2=".81" y2="4014.76"/>
  <line class="cls-1" x1="1631.67" y1="4085.31" x2=".81" y2="4085.31"/>
  <line class="cls-1" x1="1631.67" y1="4155.87" x2=".81" y2="4155.87"/>
  <line class="cls-1" x1="1631.67" y1="4226.42" x2=".81" y2="4226.42"/>
  <line class="cls-1" x1="1631.67" y1="4296.98" x2=".81" y2="4296.98"/>
  <line class="cls-1" x1="1631.67" y1="4367.53" x2=".81" y2="4367.53"/>
  <line class="cls-1" x1="1631.67" y1="4438.09" x2=".81" y2="4438.09"/>
  <line class="cls-1" x1="1631.67" y1="4508.64" x2=".81" y2="4508.64"/>
  <line class="cls-1" x1="1631.67" y1="4579.2" x2=".81" y2="4579.2"/>
  <line class="cls-1" x1="1631.67" y1="4649.75" x2=".81" y2="4649.75"/>
</svg>