<svg width="16" height="16" viewBox="0 0 16 16" fill="none" xmlns="http://www.w3.org/2000/svg">
<path fill-rule="evenodd" clip-rule="evenodd" d="M2 0C0.895431 0 0 0.895431 0 2V14C0 15.1046 0.895431 16 2 16H14C15.1046 16 16 15.1046 16 14V2C16 0.895431 15.1046 0 14 0H2ZM4.57079 6.99262C4.21898 6.5669 3.58865 6.50698 3.16292 6.85879C2.7372 7.21061 2.67728 7.84093 3.02909 8.26666L5.73829 11.545C6.1637 12.0598 6.94595 12.0799 7.39717 11.5875L13.0158 5.45687C13.3889 5.04971 13.3613 4.41715 12.9542 4.044C12.547 3.67085 11.9145 3.69842 11.5413 4.10557L6.62132 9.47395L4.57079 6.99262Z" fill="#5C7B8A"/>
</svg>
