<svg width="30" height="30" viewBox="0 0 30 30" fill="none" xmlns="http://www.w3.org/2000/svg">
<g clip-path="url(#clip0)">
<rect width="30" height="30" rx="2" fill="#2A2444"/>
<path d="M-3.75 13.0444C-3.55724 12.2034 -3.37519 11.3623 -3.17173 10.5266C-2.15644 6.39183 0.235114 2.72594 3.60957 0.131879C6.98402 -2.46218 11.1404 -3.82993 15.3951 -3.74639C19.6497 -3.66285 23.7493 -2.13299 27.0194 0.591537C30.2895 3.31607 32.5355 7.07302 33.3879 11.2444C33.4789 11.6784 33.4896 12.1284 33.5485 12.6266L24.355 13.1623V6.42299H22.2133C22.2133 8.23907 22.1223 10.0605 22.2454 11.8659C22.3364 13.1944 21.9242 13.7355 20.5749 13.8855C18.9686 14.0569 17.4372 14.5016 15.6917 14.8659V4.38728L15.3276 4.17835C9.45921 10.0069 3.60689 15.8355 -2.47031 21.8998L-3.75 16.9069V13.0444Z" fill="#2A2444"/>
<path d="M13.3835 33.9643C11.0275 33.2625 8.56454 32.7696 6.33178 31.8214C3.08931 30.3335 0.425406 27.8206 -1.25 24.6696C0.356308 22.9607 10.0423 18.6268 13.2068 18.2411V24.9H15.3485C15.3485 22.9821 15.477 21.1018 15.311 19.2536C15.1718 17.7054 15.7662 17.1107 17.1958 16.9232C18.7218 16.7036 20.2263 16.3179 21.9344 15.9696C21.9344 18.7929 21.9344 21.4071 21.9344 24.0054C21.9344 24.8411 22.2182 25.1196 23.0534 25.1304C23.8887 25.1411 24.1243 24.7393 24.1243 23.9571C24.1243 21.75 24.1243 19.5429 24.1243 17.3357V15.5732L33.4837 15C33.5987 18.2972 32.7662 21.5582 31.085 24.3964C27.9473 29.7054 23.3372 32.8929 17.1904 33.7125C16.9263 33.7729 16.6682 33.8572 16.4194 33.9643H13.3835Z" fill="#2A2444"/>
<path d="M13.4803 9.20715C13.4803 11.2214 13.5125 13.0054 13.4803 14.7893C13.4627 14.9761 13.4017 15.1561 13.3022 15.3152C13.2028 15.4742 13.0676 15.6078 12.9074 15.7054C9.75906 16.9054 6.58392 18.0518 3.75146 19.0911L13.4803 9.20715Z" fill="#2A2444"/>
<path fill-rule="evenodd" clip-rule="evenodd" d="M13.9354 11.4517L7.54834 17.8388C9.2267 17.0101 11.3787 16.1043 13.9354 15.3514V11.4517Z" fill="white"/>
<path fill-rule="evenodd" clip-rule="evenodd" d="M15.3414 8.60787V15.1646C16.5707 14.8406 17.8825 14.5569 19.2701 14.3348V10.0393H20.4791V10.1811H20.5673V14.1492C22.2769 13.9336 24.0926 13.8195 26 13.8386C25.3628 8.2999 20.6993 4 15.0387 4C8.94211 4 4 8.98524 4 15.136C4 16.5926 4.27991 17.9824 4.78427 19.2581L15.3414 8.60787Z" fill="white"/>
<path fill-rule="evenodd" clip-rule="evenodd" d="M20.4981 15.3294V20.7471H20.4101V20.83H19.2021V15.5209C17.8147 15.7494 16.5033 16.0413 15.2791 16.3711V20.7471H14.0711V16.7166C9.95698 17.9625 6.95285 19.585 5.41943 20.5181C7.323 23.7937 10.8884 26 14.9768 26C21.0645 26 26.0001 21.1092 26.0001 15.0763C26.0001 15.0516 25.9988 15.0273 25.9988 15.0022C24.0669 14.9818 22.2264 15.1035 20.4981 15.3294Z" fill="white"/>
</g>
<defs>
<clipPath id="clip0">
<rect width="30" height="30" fill="white"/>
</clipPath>
</defs>
</svg>
