<svg width="260" height="160" viewBox="0 0 260 160" fill="none" xmlns="http://www.w3.org/2000/svg">
<path d="M260 0H0V160H260V0Z" fill="#224099"/>
<mask id="mask0" mask-type="alpha" maskUnits="userSpaceOnUse" x="36" y="53" width="27" height="51">
<path d="M36 53.4775H62.2758V103.128H36V53.4775Z" fill="white"/>
</mask>
<g mask="url(#mask0)">
<path fill-rule="evenodd" clip-rule="evenodd" d="M53.8848 53.4775H55.7068C58.1522 53.6682 60.4063 54.0988 62.2758 54.8629C61.7483 57.3483 60.9812 59.6417 60.4537 62.1744C58.6796 61.6492 56.3781 60.8364 54.1245 61.3625C53.5971 62.3182 53.5491 63.7997 53.214 64.9944H59.8783C59.3509 67.6227 58.5837 70.0121 57.9604 72.5443H51.9189C50.7681 78.1359 49.905 84.205 48.8986 89.8439C48.3706 92.7585 47.7953 95.2434 46.5011 97.4899C45.254 99.736 43.6242 101.409 41.8496 103.128C39.7883 101.409 37.8704 99.6404 35.9999 97.7762C36.9114 96.6771 37.9178 95.8647 38.6371 94.5749C39.4042 93.189 39.5486 91.2298 39.9317 89.27C40.9386 83.8705 41.9935 77.7536 42.9524 72.497C41.7537 72.4487 40.3153 72.5926 39.3088 72.4014C39.6919 69.8687 40.1714 67.431 40.603 64.9466H44.2471C45.1101 58.782 46.8363 53.4775 53.8848 53.4775Z" fill="white"/>
</g>
<path fill-rule="evenodd" clip-rule="evenodd" d="M73.1126 84.1089C73.1126 84.1089 71.0503 86.6895 66.6874 86.1638L68.2693 75.3638C68.2693 75.3638 68.3657 71.5408 74.7423 72.7833L73.1126 84.1089ZM74.6949 64.0859C70.9549 64.0859 61.5565 64.6116 59.9267 71.3497C58.3439 78.0877 56.81 85.6381 56.81 85.6381C56.81 85.6381 55.6592 93.1886 60.2618 94.0488C64.8654 94.9089 67.6464 94.9567 72.3449 90.7514L72.5372 94.3833H80.8323L85.6272 66.093C85.6272 66.1408 78.4349 64.0859 74.6949 64.0859Z" fill="white"/>
<path fill-rule="evenodd" clip-rule="evenodd" d="M182.435 84.1089C182.435 84.1089 180.373 86.6895 176.01 86.1638L177.592 75.3638C177.592 75.3638 177.688 71.5408 184.065 72.7833L182.435 84.1089ZM184.065 64.0859C180.326 64.0859 170.928 64.6116 169.297 71.3497C167.715 78.0877 166.181 85.6381 166.181 85.6381C166.181 85.6381 165.029 93.1886 169.633 94.0488C174.236 94.9567 177.017 94.9567 181.716 90.7514L181.907 94.3833H190.155L194.95 66.093C194.997 66.1408 187.805 64.0859 184.065 64.0859Z" fill="#D32929"/>
<path fill-rule="evenodd" clip-rule="evenodd" d="M113.102 58.0655L123.315 56.6318L121.636 64.8513H128.589L126.287 72.4495L120.054 72.6407L117.848 86.3079C117.848 86.3079 121.061 86.3079 122.452 85.0655L124.945 92.0424C124.945 92.0424 113.485 97.3469 109.649 93.0938C105.813 88.8407 110.608 72.5451 110.608 72.5451L106.437 72.7363L107.779 64.5646L112.047 64.6602L113.102 58.0655ZM106.149 65.7115L104.71 73.1663C104.71 73.1663 95.8884 70.777 94.7372 72.6407C93.5864 74.5044 99.3402 75.4601 102.025 78.5663C104.71 81.6725 104.423 82.2938 104.231 84.6832C104.04 87.0725 103.943 93.3805 95.0728 94.4318C86.2023 95.4831 82.2705 92.7593 82.2705 92.7593L84.141 85.4C84.141 85.4 94.5454 88.6017 94.8331 86.1168C95.1208 83.6318 90.5656 82.1982 90.5656 82.1982C90.5656 82.1982 85.3397 81.0513 85.3397 74.0265C85.3397 67.0495 91.6684 64.5646 91.6684 64.5646C91.6684 64.5646 99.3882 63.2265 106.149 65.7115Z" fill="white"/>
<mask id="mask1" mask-type="alpha" maskUnits="userSpaceOnUse" x="129" y="64" width="94" height="43">
<path d="M129.212 64.0391H222.535V106.665H129.212V64.0391Z" fill="white"/>
</mask>
<g mask="url(#mask1)">
<path fill-rule="evenodd" clip-rule="evenodd" d="M196.149 65.4249L205.595 64.3736L207.561 82.5329L212.883 70.2988C212.883 70.2988 213.41 66.3807 212.355 65.6156L221.801 64.0391C221.801 64.0391 223.24 68.6262 222.09 72.1152C220.938 75.5554 210.773 96.9165 210.773 96.9165C210.773 96.9165 208.999 103.225 196.724 106.666L194.04 99.593C194.04 99.593 201.759 96.2479 201.759 94.3842L199.889 94.2881L196.149 65.4249ZM129.212 65.7116L138.179 64.4692C138.179 64.4692 139.713 75.8899 139.521 80.4297L144.94 71.2072L143.405 65.9979L152.851 64.5642L155.584 80.5258L158.173 70.9683C158.173 70.9683 158.173 66.2851 157.646 65.9028L166.708 64.1346C166.708 64.1346 168.291 68.3873 167.428 72.0196C166.517 75.651 160.235 94.1926 160.235 94.1926H149.543L147.385 83.0107L141.056 94.3364H130.843C130.891 94.3364 130.507 66.763 129.212 65.7116Z" fill="#D32929"/>
</g>
</svg>
