<?xml version="1.0" encoding="UTF-8"?>
<svg xmlns="http://www.w3.org/2000/svg" xmlns:xlink="http://www.w3.org/1999/xlink" width="30px" height="41px" viewBox="0 0 30 40" version="1.1">
<g id="surface1">
<path style=" stroke:none;fill-rule:evenodd;fill:rgb(90.980392%,28.627451%,19.215686%);fill-opacity:1;" d="M 19.574219 3.777344 C 20.09375 6.890625 17.390625 9.546875 14.214844 9.035156 C 12.269531 8.722656 10.746094 7.230469 10.429688 5.320312 C 9.90625 2.207031 12.613281 -0.445312 15.785156 0.0625 C 17.730469 0.375 19.253906 1.867188 19.574219 3.777344 Z M 0.03125 24.554688 C 0.503906 17.269531 6.496094 11.347656 13.917969 10.839844 L 13.921875 10.835938 C 22.695312 10.234375 30 17.039062 30 25.519531 C 30 32.730469 24.714844 38.726562 17.738281 39.988281 C 17.316406 40.066406 16.917969 39.746094 16.917969 39.320312 L 16.917969 33.109375 C 16.917969 32.734375 17.226562 32.429688 17.609375 32.429688 L 20.746094 32.429688 C 21.460938 32.429688 22.042969 31.859375 22.042969 31.15625 L 22.042969 19.882812 C 22.042969 19.179688 21.460938 18.609375 20.746094 18.609375 L 9.253906 18.609375 C 8.539062 18.609375 7.957031 19.179688 7.957031 19.882812 L 7.957031 31.15625 C 7.957031 31.859375 8.539062 32.429688 9.253906 32.429688 L 12.390625 32.429688 C 12.773438 32.429688 13.082031 32.734375 13.082031 33.109375 L 13.082031 39.320312 C 13.082031 39.746094 12.6875 40.066406 12.261719 39.988281 C 4.976562 38.671875 -0.464844 32.191406 0.03125 24.554688 Z M 0.03125 24.554688 "/>
</g>
</svg>
