<svg width="140" height="72" viewBox="0 0 140 72" fill="none" xmlns="http://www.w3.org/2000/svg">
<path d="M58.3088 24.202L71.1686 11.3422C72.0037 10.5072 73.1727 10.0061 74.3418 10.0061C75.5109 10.0061 76.6799 10.5072 77.515 11.3422L78.5171 12.3443L80.5212 10.3402L79.5191 9.33811C78.183 8.00203 76.3459 7.33398 74.3418 7.33398C72.3377 7.33398 70.5006 8.16904 69.1645 9.50512L56.3047 22.3649L58.3088 24.202Z" fill="#040404"/>
<path d="M75.3438 15.6845L73.3397 13.6804L60.4799 26.5402C58.6428 28.3773 55.8036 28.3773 53.9665 26.5402C52.1294 24.7031 52.1294 21.8639 53.9665 20.0268L64.9892 9.00412L62.9851 7L52.1294 17.8557C49.2902 20.6948 49.2902 25.5381 52.1294 28.3773C53.4655 29.7134 55.4696 30.5485 57.3067 30.5485C59.3108 30.5485 61.1479 29.7134 62.484 28.3773L75.3438 15.6845Z" fill="#040404"/>
<path d="M88.0366 17.8557C86.7005 16.5196 84.6964 15.6846 82.8593 15.6846C80.8551 15.6846 79.018 16.5196 77.6819 17.8557L64.8221 30.7155L66.8263 32.7196L79.6861 19.8598C81.5232 18.0227 84.3623 18.0227 86.1995 19.8598C87.0345 20.6949 87.5355 21.864 87.5355 23.033C87.5355 24.2021 87.0345 25.3712 86.1995 26.2062L75.0098 37.3959L77.0139 39.4L88.0366 28.3774C91.0428 25.5382 91.0428 20.8619 88.0366 17.8557Z" fill="#040404"/>
<path d="M81.8572 22.198L68.9974 35.0578C67.1603 36.8949 64.3211 36.8949 62.484 35.0578L61.482 34.0557L59.4778 36.0599L60.4799 37.0619C61.983 38.398 63.8201 39.066 65.8242 39.066C67.8284 39.066 69.6655 38.231 71.0016 36.8949L83.8613 24.0351L81.8572 22.198Z" fill="#040404"/>
<path d="M2.36842 59.3421C2.5 60 2.76316 60.5263 3.28947 60.7895C3.81579 61.1842 4.34211 61.3158 5.13158 61.3158C5.92106 61.3158 6.44737 61.1842 6.97368 60.7895C7.36842 60.3947 7.63158 60 7.63158 59.3421C7.63158 59.0789 7.63158 58.8158 7.5 58.6842C7.36842 58.5526 7.23684 58.2895 6.97368 58.1579C6.8421 58.0263 6.57895 57.8947 6.18421 57.7632C5.92105 57.6316 5.52632 57.6316 5.13158 57.5L4.3421 57.3684C3.81579 57.2368 3.28947 56.9737 2.76316 56.8421C2.36842 56.5789 1.97369 56.3158 1.57895 56.0526C1.31579 55.7895 1.05263 55.3947 0.789472 55C0.657893 54.6053 0.526318 54.2105 0.526318 53.6842C0.526318 53.1579 0.657893 52.6316 0.789472 52.2368C1.05263 51.8421 1.31579 51.4474 1.71053 51.0526C2.10526 50.7895 2.63158 50.5263 3.1579 50.2632C3.68421 50.1316 4.3421 50 5 50C6.31579 50 7.36842 50.2632 8.1579 50.9211C8.94737 51.5789 9.34211 52.3684 9.47369 53.4211L7.36842 53.5526C7.23684 53.0263 6.97368 52.6316 6.57895 52.3684C6.18421 52.1053 5.65789 51.9737 5 51.9737C4.3421 51.9737 3.81579 52.1053 3.42105 52.3684C3.02631 52.6316 2.89474 53.0263 2.89474 53.5526C2.89474 53.8158 2.89474 54.0789 3.02632 54.2105C3.15789 54.3421 3.28947 54.6053 3.42105 54.7368C3.55263 54.8684 3.81579 55 4.21053 55.1316C4.47369 55.2632 4.86842 55.3947 5.13158 55.5263L6.05263 55.7895C6.57895 55.9211 7.10526 56.1842 7.63158 56.3158C8.15789 56.4474 8.42105 56.7105 8.81579 56.9737C9.07895 57.2368 9.34211 57.6316 9.60526 57.8947C9.73684 58.2895 9.86842 58.6842 9.86842 59.3421C9.86842 59.8684 9.73684 60.5263 9.47369 60.9211C9.21053 61.4474 8.94737 61.8421 8.42106 62.2368C8.02632 62.6316 7.5 62.8947 6.84211 63.0263C6.31579 63.1579 5.6579 63.2895 4.86842 63.2895C3.55263 63.2895 2.5 63.0263 1.57895 62.3684C0.657896 61.7105 0.131579 60.7895 0 59.6053L2.36842 59.3421Z" fill="#010101"/>
<path d="M18.9474 50.1316C19.8684 50.1316 20.7895 50.2632 21.579 50.6579C22.3684 50.9211 23.0263 51.4474 23.5526 51.9737C24.079 52.5 24.4737 53.2895 24.8684 54.079C25.1316 54.8684 25.2632 55.7895 25.2632 56.7105C25.2632 57.7632 25.1316 58.6842 24.7368 59.4737C24.3421 60.2632 23.9474 61.0526 23.2895 61.579L25 63.5526V64.2105H22.8947L21.7105 62.7632C21.3158 62.8948 20.7895 63.1579 20.3947 63.1579C19.8684 63.2895 19.4737 63.2895 18.8158 63.2895C17.8947 63.2895 16.9737 63.1579 16.1842 62.7632C15.3947 62.5 14.7368 61.9737 14.2105 61.4474C13.6842 60.9211 13.2895 60.1316 12.8947 59.3421C12.6316 58.5526 12.5 57.6316 12.5 56.7105C12.5 55.7895 12.6316 54.8684 12.8947 54.079C13.1579 53.2895 13.6842 52.6316 14.2105 51.9737C14.7368 51.4474 15.3947 50.9211 16.1842 50.6579C17.2368 50.2632 18.0263 50.1316 18.9474 50.1316ZM18.9474 51.9737C18.2895 51.9737 17.7632 52.1053 17.2368 52.3684C16.7105 52.6316 16.3158 52.8947 15.9211 53.2895C15.5263 53.6842 15.2632 54.2105 15.1316 54.7369C15 55.2632 14.8684 55.9211 14.8684 56.579C14.8684 57.2369 15 57.8947 15.1316 58.4211C15.2632 58.9474 15.5263 59.4737 15.9211 59.8684C16.3158 60.2632 16.7105 60.6579 17.2368 60.9211C17.7632 61.1842 18.2895 61.3158 18.9474 61.3158C19.6053 61.3158 20.1316 61.1842 20.6579 60.9211C21.1842 60.6579 21.5789 60.3948 21.9737 60C22.3684 59.6053 22.6316 59.079 22.7632 58.5526C22.8947 58.0263 23.0263 57.3684 23.0263 56.579C23.0263 55.9211 22.8947 55.2632 22.7632 54.7369C22.6316 54.2105 22.3684 53.6842 21.9737 53.2895C21.5789 52.8947 21.1842 52.5 20.6579 52.3684C20.1316 52.1053 19.6053 51.9737 18.9474 51.9737Z" fill="#010101"/>
<path d="M33.8158 61.579C34.7368 61.579 35.3947 61.3158 35.921 60.7895C36.4474 60.2632 36.7105 59.3421 36.7105 58.1579V50.3948H38.9474V58.1579C38.9474 59.079 38.8158 59.8685 38.5526 60.5264C38.2895 61.1842 38.0263 61.7106 37.5 62.1053C37.1053 62.5 36.5789 62.8948 35.921 63.0264C35.2632 63.1579 34.6053 63.2895 33.8158 63.2895C33.0263 63.2895 32.2368 63.1579 31.7105 63.0264C31.0526 62.8948 30.5263 62.5 30.1316 62.1053C29.7368 61.7106 29.3421 61.1842 29.0789 60.5264C28.8158 59.8685 28.6842 59.079 28.6842 58.1579V50.3948H30.921V58.1579C30.921 59.3421 31.1842 60.1316 31.7105 60.7895C32.2368 61.1843 32.8947 61.579 33.8158 61.579Z" fill="#010101"/>
<path d="M41.1842 62.3684L45.6579 50.2632H48.9474L53.4211 62.3684V63.0263H51.3158L50 59.3421H44.4737L43.1579 63.0263H41.0526L41.1842 62.3684ZM45.2632 57.5H49.4737L48.6842 55.5263C48.4211 54.7369 48.1579 54.079 48.0263 53.5527C47.8947 53.0263 47.7632 52.6316 47.6316 52.2369H47.1053C47.1053 52.3684 46.9737 52.6316 46.8421 52.8948C46.8421 53.0263 46.7105 53.2895 46.579 53.5527C46.4474 53.8158 46.4474 54.079 46.3158 54.3421C46.1842 54.6053 46.0526 55 45.9211 55.3948L45.2632 57.5Z" fill="#010101"/>
<path d="M66.0526 63.0263H63.9474L60 58.0263H58.5526V63.0263H56.3158V50.2632H60.5263C61.1842 50.2632 61.8421 50.2632 62.3684 50.3948C62.8947 50.5263 63.4211 50.6579 63.9474 51.0527C65 51.7106 65.3947 52.7632 65.3947 54.079C65.3947 54.6053 65.2632 55.1316 65.1316 55.6579C65 56.0527 64.7368 56.4474 64.4737 56.7106C64.2105 56.9737 63.8158 57.2369 63.5526 57.5C63.1579 57.6316 62.7632 57.7632 62.3684 57.8948L66.0526 62.5V63.0263ZM58.5526 56.1842H60.5263C61.3158 56.1842 62.1053 56.0527 62.5 55.6579C63.0263 55.3948 63.2895 54.8684 63.2895 54.079C63.2895 53.4211 63.0263 52.8948 62.5 52.6316C61.9737 52.3684 61.3158 52.2369 60.5263 52.2369H58.5526V56.1842Z" fill="#010101"/>
<path d="M68.8158 50.2632H77.1053V52.2369H71.0526V55.5263H76.7105V57.5H71.0526V61.0527H77.2368V63.0263H68.8158V50.2632Z" fill="#010101"/>
<path d="M82.1052 59.3421C82.2368 60 82.5 60.5263 83.0263 60.7895C83.5526 61.1842 84.0789 61.3158 84.8684 61.3158C85.6579 61.3158 86.1842 61.1842 86.7105 60.7895C87.1052 60.3947 87.3684 60 87.3684 59.3421C87.3684 59.0789 87.3684 58.8158 87.2368 58.6842C87.1052 58.5526 86.9737 58.2895 86.7105 58.1579C86.5789 58.0263 86.3158 57.8947 85.921 57.7632C85.6579 57.6316 85.2631 57.6316 84.8684 57.5L84.0789 57.3684C83.5526 57.2368 83.0263 56.9737 82.5 56.8421C82.1052 56.5789 81.7105 56.3158 81.3158 56.0526C81.0526 55.7895 80.7894 55.3947 80.5263 55C80.3947 54.6053 80.2631 54.2105 80.2631 53.6842C80.2631 53.1579 80.3947 52.6316 80.5263 52.2368C80.7894 51.8421 81.0526 51.4474 81.4473 51.0526C81.8421 50.7895 82.3684 50.5263 82.8947 50.2632C83.421 50.1316 84.0789 50 84.7368 50C86.0526 50 87.1052 50.2632 87.8947 50.9211C88.6842 51.5789 89.0789 52.3684 89.2105 53.4211L87.1052 53.5526C86.9737 53.0263 86.7105 52.6316 86.3158 52.3684C85.921 52.1053 85.3947 51.9737 84.7368 51.9737C84.0789 51.9737 83.5526 52.1053 83.1579 52.3684C82.7631 52.6316 82.6316 53.0263 82.6316 53.5526C82.6316 53.8158 82.6316 54.0789 82.7631 54.2105C82.8947 54.3421 83.0263 54.6053 83.1579 54.7368C83.2894 54.8684 83.5526 55 83.9473 55.1316C84.2105 55.2632 84.6052 55.3947 84.8684 55.5263L85.7894 55.7895C86.3158 55.9211 86.8421 56.1842 87.3684 56.3158C87.8947 56.4474 88.1579 56.7105 88.5526 56.9737C88.8158 57.2368 89.0789 57.6316 89.3421 57.8947C89.4737 58.2895 89.6052 58.6842 89.6052 59.3421C89.6052 59.8684 89.4737 60.5263 89.2105 60.9211C88.9473 61.4474 88.6842 61.8421 88.1579 62.2368C87.7631 62.6316 87.2368 62.8947 86.5789 63.0263C86.0526 63.1579 85.3947 63.2895 84.6052 63.2895C83.2895 63.2895 82.2368 63.0263 81.3158 62.3684C80.3947 61.7105 79.8684 60.7895 79.7368 59.6053L82.1052 59.3421Z" fill="#010101"/>
<path d="M92.8947 50.2632H97.5C98.421 50.2632 99.0789 50.3948 99.6052 50.5263C100.132 50.6579 100.658 51.0527 101.053 51.3158C101.447 51.7106 101.711 52.1053 101.842 52.6316C101.974 53.1579 102.105 53.6842 102.105 54.2106C102.105 54.8684 101.974 55.3948 101.842 55.9211C101.711 56.4474 101.316 56.8421 100.921 57.1053C100.526 57.3684 100 57.6316 99.4737 57.7632C98.9473 57.8948 98.1579 58.0263 97.5 58.0263H95.2631V62.8948H93.0263L92.8947 50.2632ZM95.1316 56.1842H97.2368C97.6316 56.1842 98.0263 56.1842 98.2894 56.0527C98.5526 56.0527 98.9474 55.9211 99.0789 55.7895C99.3421 55.6579 99.4737 55.3948 99.6052 55.1316C99.7368 54.8684 99.7368 54.6053 99.7368 54.2106C99.7368 53.8158 99.7368 53.5527 99.6052 53.2895C99.4737 53.0263 99.3421 52.7632 99.0789 52.6316C98.8158 52.5 98.5526 52.3684 98.2894 52.3684C98.0263 52.3684 97.6316 52.2369 97.2368 52.2369H95.1316V56.1842Z" fill="#010101"/>
<path d="M102.763 62.3684L107.237 50.2632H110.526L115 62.3684V63.0263H112.763L111.447 59.3421H105.921L104.605 63.0263H102.5V62.3684H102.763ZM106.842 57.5H111.053L110.395 55.5263C110.132 54.7369 109.868 54.079 109.737 53.5527C109.605 53.0263 109.474 52.6316 109.342 52.2369H108.816C108.816 52.3684 108.684 52.6316 108.553 52.8948C108.553 53.0263 108.421 53.2895 108.29 53.5527C108.158 53.8158 108.158 54.079 108.026 54.3421C107.895 54.6053 107.763 55 107.632 55.3948L106.842 57.5Z" fill="#010101"/>
<path d="M128.553 59.7369C128.421 60.2632 128.158 60.6579 127.763 61.1842C127.5 61.579 127.105 61.9737 126.579 62.3684C126.184 62.6316 125.526 62.8947 125 63.1579C124.342 63.2895 123.684 63.4211 123.026 63.4211C122.105 63.4211 121.184 63.2895 120.395 62.8948C119.605 62.6316 118.947 62.1053 118.421 61.579C117.895 61.0526 117.5 60.2632 117.105 59.4737C116.842 58.6842 116.711 57.7632 116.711 56.8421C116.711 55.9211 116.842 55 117.105 54.2105C117.368 53.4211 117.763 52.6316 118.421 52.1053C119.079 51.579 119.605 51.0526 120.395 50.6579C121.184 50.2632 122.105 50.1316 123.026 50.1316C124.474 50.1316 125.526 50.3947 126.579 51.0526C127.5 51.7105 128.158 52.6316 128.553 53.6842L126.316 54.079C126.053 53.4211 125.526 52.8947 125 52.5C124.474 52.1053 123.816 51.9737 123.026 51.9737C122.368 51.9737 121.842 52.1053 121.316 52.3684C120.79 52.6316 120.395 52.8947 120.132 53.4211C119.737 53.8158 119.605 54.3421 119.342 54.8684C119.079 55.3948 119.079 56.0526 119.079 56.7105C119.079 57.3684 119.211 58.0263 119.342 58.5526C119.474 59.079 119.737 59.6053 120.132 60C120.526 60.3947 120.921 60.7895 121.447 60.9211C121.974 61.1842 122.5 61.3158 123.158 61.3158C123.947 61.3158 124.737 61.1842 125.263 60.6579C125.79 60.2632 126.184 59.7369 126.579 59.2105L128.553 59.7369Z" fill="#010101"/>
<path d="M131.579 50.2632H139.868V52.2369H133.816V55.5263H139.474V57.5H133.816V61.0527H140V63.0263H131.579V50.2632Z" fill="#010101"/>
</svg>
