<svg width="260" height="160" viewBox="0 0 260 160" fill="none" xmlns="http://www.w3.org/2000/svg">
<path d="M260 0H0V160H260V0Z" fill="#FFCC01"/>
<path d="M87.7773 115.488L88.2109 113.438H77.7578L79 107.602H88.5039L88.9258 105.609H79.4219L80.5234 100.383H90.8008L91.2578 98.2734H78.707L75.0508 115.488H87.7773ZM92.3125 115.488L98.582 108.41L101.723 115.488H104.617L100.434 106.664L107.992 98.2734H105.215L99.4492 104.859L96.4609 98.2734H93.543L97.5391 106.664L89.5 115.488H92.3125ZM109.398 115.488L110.934 108.211H116.348C118.082 108.211 119.475 107.713 120.525 106.717C121.576 105.721 122.242 104.551 122.523 103.207C122.859 101.645 122.65 100.432 121.896 99.5684C121.143 98.7051 120 98.2734 118.469 98.2734H110.723L107.066 115.488H109.398ZM115.996 106.242H111.355L112.621 100.277H117.262C118.16 100.277 118.844 100.398 119.313 100.641C120.148 101.094 120.434 101.953 120.168 103.219C119.926 104.344 119.432 105.129 118.686 105.574C117.939 106.02 117.043 106.242 115.996 106.242ZM125.465 115.488L127.023 108.105H132.332C133.285 108.105 133.965 108.211 134.371 108.422C135.066 108.805 135.324 109.559 135.145 110.684L134.676 113.555C134.559 114.227 134.5 114.68 134.5 114.914C134.5 115.148 134.523 115.34 134.57 115.488H137.43L137.512 115.102C137.184 114.945 137.008 114.594 136.984 114.047C136.961 113.727 137.008 113.238 137.125 112.582L137.535 110.273C137.707 109.273 137.672 108.551 137.43 108.105C137.188 107.66 136.758 107.301 136.141 107.027C136.992 106.629 137.701 106.102 138.268 105.445C138.834 104.789 139.227 103.945 139.445 102.914C139.859 100.938 139.336 99.582 137.875 98.8477C137.109 98.4648 136.07 98.2734 134.758 98.2734H126.789L123.133 115.488H125.465ZM132.836 106.16H127.445L128.688 100.277H134.383C135.18 100.277 135.793 100.395 136.223 100.629C137.02 101.074 137.289 101.91 137.031 103.137C136.789 104.277 136.303 105.066 135.572 105.504C134.842 105.941 133.93 106.16 132.836 106.16ZM153.133 115.488L153.566 113.438H143.113L144.355 107.602H153.859L154.281 105.609H144.777L145.879 100.383H156.156L156.613 98.2734H144.063L140.406 115.488H153.133ZM162.215 115.992C164.051 115.992 165.75 115.582 167.313 114.762C168.875 113.941 169.859 112.578 170.266 110.672C170.594 109.141 170.293 107.973 169.363 107.168C168.832 106.707 168.012 106.344 166.902 106.078L164.605 105.527C163.059 105.152 162.082 104.84 161.676 104.59C161.059 104.199 160.84 103.582 161.02 102.738C161.184 101.973 161.627 101.301 162.35 100.723C163.072 100.145 164.121 99.8555 165.496 99.8555C167.199 99.8555 168.313 100.305 168.836 101.203C169.109 101.695 169.207 102.402 169.129 103.324H171.32C171.727 101.41 171.393 100.018 170.318 99.1465C169.244 98.2754 167.805 97.8398 166 97.8398C164.039 97.8398 162.418 98.3359 161.137 99.3281C159.855 100.32 159.051 101.59 158.723 103.137C158.418 104.566 158.734 105.641 159.672 106.359C160.219 106.773 161.215 107.152 162.66 107.496L164.887 108.023C166.09 108.313 166.945 108.652 167.453 109.043C167.961 109.441 168.113 110.109 167.91 111.047C167.645 112.297 166.766 113.164 165.273 113.648C164.5 113.898 163.676 114.023 162.801 114.023C160.848 114.023 159.605 113.453 159.074 112.312C158.801 111.703 158.738 110.91 158.887 109.934H156.695C156.281 111.793 156.563 113.266 157.539 114.352C158.516 115.445 160.074 115.992 162.215 115.992ZM178.223 115.992C180.059 115.992 181.758 115.582 183.32 114.762C184.883 113.941 185.867 112.578 186.273 110.672C186.602 109.141 186.301 107.973 185.371 107.168C184.84 106.707 184.02 106.344 182.91 106.078L180.613 105.527C179.066 105.152 178.09 104.84 177.684 104.59C177.066 104.199 176.848 103.582 177.027 102.738C177.191 101.973 177.635 101.301 178.357 100.723C179.08 100.145 180.129 99.8555 181.504 99.8555C183.207 99.8555 184.32 100.305 184.844 101.203C185.117 101.695 185.215 102.402 185.137 103.324H187.328C187.734 101.41 187.4 100.018 186.326 99.1465C185.252 98.2754 183.813 97.8398 182.008 97.8398C180.047 97.8398 178.426 98.3359 177.145 99.3281C175.863 100.32 175.059 101.59 174.73 103.137C174.426 104.566 174.742 105.641 175.68 106.359C176.227 106.773 177.223 107.152 178.668 107.496L180.895 108.023C182.098 108.313 182.953 108.652 183.461 109.043C183.969 109.441 184.121 110.109 183.918 111.047C183.652 112.297 182.773 113.164 181.281 113.648C180.508 113.898 179.684 114.023 178.809 114.023C176.855 114.023 175.613 113.453 175.082 112.312C174.809 111.703 174.746 110.91 174.895 109.934H172.703C172.289 111.793 172.57 113.266 173.547 114.352C174.523 115.445 176.082 115.992 178.223 115.992Z" fill="#D72036"/>
<path d="M50.9104 44L43.1147 54.7642C43.1147 54.7642 83.5281 54.7642 85.6013 54.7642C87.7489 54.7642 87.7205 55.5936 86.6708 57.0389C85.6047 58.506 83.8208 61.0575 82.7349 62.5479C82.184 63.3042 81.1877 64.6821 84.4892 64.6821C87.9796 64.6821 101.863 64.6821 101.863 64.6821C101.863 64.6821 104.664 60.8086 107.011 57.5708C110.205 53.1663 107.288 44.0004 95.8712 44.0004C85.6525 44 50.9104 44 50.9104 44Z" fill="#D2002E"/>
<path d="M39.9595 79.0751L55.6174 57.4521C55.6174 57.4521 72.9754 57.4521 75.0477 57.4521C77.1953 57.4521 77.1673 58.2815 76.1176 59.7268C75.0516 61.1939 73.2383 63.7183 72.1525 65.2086C71.6011 65.9649 70.6052 67.345 73.9063 67.345C77.3972 67.345 99.937 67.345 99.937 67.345C97.7722 70.3593 90.75 79.0751 78.1409 79.0751C67.9222 79.0751 39.9595 79.0751 39.9595 79.0751Z" fill="#D2002E"/>
<path d="M129.635 67.3389L121.144 79.0716H98.7456C98.7456 79.0716 107.232 67.3415 107.239 67.3415L129.635 67.3389Z" fill="#D2002E"/>
<path d="M163.944 64.6821H109.159L124.141 44H146.532L137.945 55.8591H147.94L156.531 44H178.92L163.944 64.6821Z" fill="#D2002E"/>
<path d="M162.022 67.3408L153.527 79.0709H131.137C131.137 79.0709 139.623 67.3408 139.63 67.3408H162.022Z" fill="#D2002E"/>
<path d="M8 71.9648H40.9969L39.1945 74.4569H8V71.9648Z" fill="#D2002E"/>
<path d="M8 67.3408H44.3492L42.5433 69.8293H8V67.3408Z" fill="#D2002E"/>
<path d="M8 76.5898H37.6464L35.8525 79.0666H8V76.5898Z" fill="#D2002E"/>
<path d="M251.997 74.4564H219.127L220.93 71.9648H251.997V74.4564Z" fill="#D2002E"/>
<path d="M251.997 79.0665L215.786 79.07L217.579 76.5898H251.997V79.0665Z" fill="#D2002E"/>
<path d="M224.282 67.3408H252V69.8307L222.48 69.8328L224.282 67.3408Z" fill="#D2002E"/>
<path d="M209.932 44L194.953 64.6816H171.227C171.227 64.6816 186.209 44 186.217 44H209.932Z" fill="#D2002E"/>
<path d="M169.305 67.3408C169.305 67.3408 167.669 69.6141 166.874 70.7068C164.061 74.5702 166.547 79.0709 175.726 79.0709C186.326 79.0709 211.686 79.0709 211.686 79.0709L220.18 67.3408H169.305V67.3408Z" fill="#D2002E"/>
</svg>
