<?xml version="1.0" encoding="UTF-8"?>
<svg width="55px" height="36px" viewBox="0 0 55 36" version="1.1" xmlns="http://www.w3.org/2000/svg" xmlns:xlink="http://www.w3.org/1999/xlink">
    <!-- Generator: Sketch 54.1 (76490) - https://sketchapp.com -->
    <title>mastercard</title>
    <desc>Created with Sketch.</desc>
    <defs>
        <polygon id="path-1" points="0 0 54.2278481 0 54.2278481 35.9999526 0 35.9999526"></polygon>
    </defs>
    <g id="Page-1" stroke="none" stroke-width="1" fill="none" fill-rule="evenodd">
        <g id="credit-card-form" transform="translate(-385.000000, -300.000000)">
            <g id="Group-4" transform="translate(252.000000, 147.000000)">
                <g id="Group-2" transform="translate(118.000000, 153.000000)">
                    <g id="Group-5" transform="translate(15.000000, 0.000000)">
                        <g id="mastercard">
                            <g id="Group-3">
                                <mask id="mask-2" fill="white">
                                    <use xlink:href="#path-1"></use>
                                </mask>
                                <g id="Clip-2"></g>
                                <path d="M54.2278481,32.3999526 C54.2278481,34.3882421 52.6090993,35.9999526 50.6126582,35.9999526 L3.61518987,35.9999526 C1.61874883,35.9999526 0,34.3882421 0,32.3999526 L0,3.59995263 C0,1.61166316 1.61874883,-4.73684211e-05 3.61518987,-4.73684211e-05 L50.6126582,-4.73684211e-05 C52.6090993,-4.73684211e-05 54.2278481,1.61166316 54.2278481,3.59995263 L54.2278481,32.3999526 Z" id="Fill-1" fill="#34495E" mask="url(#mask-2)"></path>
                            </g>
                            <path d="M30.5316456,17.7721519 C30.5316456,23.5607535 25.8390518,28.2531646 20.0507506,28.2531646 C14.262214,28.2531646 9.56962025,23.5607535 9.56962025,17.7721519 C9.56962025,11.9835503 14.262214,7.29113924 20.0507506,7.29113924 C25.8390518,7.29113924 30.5316456,11.9835503 30.5316456,17.7721519" id="Fill-4" fill="#E74C3C"></path>
                            <path d="M45.1139241,17.7721519 C45.1139241,23.5607535 40.4213303,28.2531646 34.6330291,28.2531646 C28.8444925,28.2531646 24.1518987,23.5607535 24.1518987,17.7721519 C24.1518987,11.9835503 28.8444925,7.29113924 34.6330291,7.29113924 C40.4213303,7.29113924 45.1139241,11.9835503 45.1139241,17.7721519" id="Fill-6" fill="#F1C40F"></path>
                            <path d="M23.6962025,17.7722693 C23.6962025,20.8437578 25.0146954,23.605913 27.1138071,25.5189873 C29.2131527,23.605913 30.5316456,20.8437578 30.5316456,17.7722693 C30.5316456,14.7007809 29.2131527,11.9386257 27.1138071,10.0253165 C25.0146954,11.9386257 23.6962025,14.7007809 23.6962025,17.7722693" id="Fill-8" fill="#F39C12"></path>
                            <path d="M22.988213,21.6758432 L23.1890503,20.3938544 C23.0792728,20.3938544 22.9178947,20.438061 22.7754873,20.438061 C22.2167346,20.438061 22.1552693,20.1590371 22.1909344,19.9527401 L22.642186,17.3374261 L23.4910652,17.3374261 L23.6962025,15.9197281 L22.8956356,15.9197281 L23.0585314,15.0379747 L21.4538563,15.0379747 C21.4184442,15.0712484 20.5063291,19.9967089 20.5063291,20.5963488 C20.5063291,21.4842816 21.0370051,21.8795258 21.7849597,21.8733464 C22.3710303,21.8688307 22.8270879,21.7164846 22.988213,21.6758432" id="Fill-10" fill="#FFFFFF"></path>
                            <path d="M26.0085645,16.8013301 C26.8994881,16.8013301 26.7350367,17.7274161 26.7350367,17.8022118 L24.9825469,17.8022118 C24.9825469,17.7067034 25.1482422,16.8013301 26.0085645,16.8013301 M23.2405063,18.8638507 C23.2405063,20.9272918 24.7128565,21.4177215 25.967265,21.4177215 C27.1251423,21.4177215 27.634668,21.1781451 27.634668,21.1781451 L27.9125685,19.7696843 C27.9125685,19.7696843 27.0318454,20.1287037 26.2364578,20.1287037 C24.5416877,20.1287037 24.8384964,18.9598193 24.8384964,18.9598193 L28.0461697,18.9598193 C28.0461697,18.9598193 28.2531646,18.0134809 28.2531646,17.6279953 C28.2531646,16.6660074 27.7356775,15.4936709 26.0028423,15.4936709 C24.4155502,15.493901 23.2405063,17.0758879 23.2405063,18.8638507" id="Fill-12" fill="#FFFFFF"></path>
                            <path d="M35.3817209,21.6718076 L35.6453985,20.0670471 C35.6453985,20.0670471 34.9226064,20.4292028 34.4268184,20.4292028 C33.382089,20.4292028 32.9631296,19.6318106 32.9631296,18.7752578 C32.9631296,17.0375598 33.8618614,16.08171 34.8627219,16.08171 C35.612903,16.08171 36.2152297,16.5027943 36.2152297,16.5027943 L36.4556962,14.9435062 C36.4556962,14.9435062 35.562535,14.5822785 34.7970346,14.5822785 C33.0968252,14.5822785 31.443038,16.0564217 31.443038,18.8249063 C31.443038,20.6609732 32.3361992,21.8734177 34.0935077,21.8734177 C34.5904563,21.8734177 35.3817209,21.6718076 35.3817209,21.6718076" id="Fill-14" fill="#FFFFFF"></path>
                            <path d="M15.0629108,18.7841163 C15.092492,19.0308939 14.8993589,20.1879965 13.9657196,20.1879965 C13.4838648,20.1879965 13.3584506,19.8399175 13.3584506,19.6340767 C13.3584506,19.2323403 13.5892324,18.7503491 14.7257837,18.7503491 C14.9900581,18.7503491 15.0184169,18.7774091 15.0629108,18.7841163 M14.7309176,15.4936709 C13.667219,15.4936709 12.8519042,15.8170028 12.8519042,15.8170028 L12.6267453,17.0811888 C12.6267453,17.0811888 13.2997773,16.8226158 14.3167817,16.8226158 C14.894714,16.8226158 15.3169175,16.8839055 15.3169175,17.3279664 C15.3169175,17.5978722 15.2653338,17.6973234 15.2653338,17.6973234 C15.2653338,17.6973234 14.8096376,17.6612434 14.5989026,17.6612434 C13.2572391,17.6612434 11.8481013,18.202674 11.8481013,19.8357544 C11.8481013,21.1223747 12.7726952,21.4177215 13.345738,21.4177215 C14.4397512,21.4177215 14.9115826,20.7456168 14.9367632,20.7437665 L14.885424,21.3043935 L16.2512903,21.3043935 L16.8607595,17.2634388 C16.8607595,15.5489472 15.2800022,15.4936709 14.7309176,15.4936709" id="Fill-16" fill="#FFFFFF"></path>
                            <path d="M18.0475997,21.4171903 C18.3772605,21.4171903 20.2620249,21.5016889 20.2620249,19.5393645 C20.2620249,17.7048357 18.5172913,18.0670393 18.5172913,17.330062 C18.5172913,16.9632028 18.8017362,16.8477445 19.3212575,16.8477445 C19.5277281,16.8477445 20.3215438,16.9138537 20.3215438,16.9138537 L20.5063291,15.6098275 C20.5063291,15.6098275 19.9925751,15.4936709 19.1558504,15.4936709 C18.072976,15.4936709 16.9741837,15.9298982 16.9741837,17.4220096 C16.9741837,19.1131468 18.8065807,18.9434511 18.8065807,19.6557539 C18.8065807,20.131088 18.2946723,20.169962 17.899956,20.169962 C17.2173345,20.169962 16.6023061,19.9334589 16.6004605,19.9446322 L16.4050633,21.2356229 C16.4403594,21.2465635 16.8198499,21.4171903 18.0475997,21.4171903" id="Fill-18" fill="#FFFFFF"></path>
                            <path d="M47.4218492,18.5354035 C47.4218492,19.3351908 47.0209518,20.4029258 46.1896757,20.4029258 C45.6379886,20.4029258 45.3794231,19.9457682 45.3794231,19.2278208 C45.3794231,18.0543859 45.913228,17.2798902 46.5869483,17.2798902 C47.1386353,17.2796516 47.4218492,17.6542537 47.4218492,18.5354035 L47.4218492,18.5354035 Z M48.1337502,14.5846645 L47.8031729,16.6110944 C47.8031729,16.6110944 47.225871,15.823953 46.3225832,15.823953 C44.9178715,15.823953 43.7468354,17.4963005 43.7468354,19.4177464 C43.7468354,20.6579892 44.3715008,21.8734177 45.6481379,21.8734177 C46.5666497,21.8734177 47.0755647,21.2413663 47.0755647,21.2413663 L47.0081443,21.7813181 L48.4996084,21.7813181 L49.6708861,14.5822785 L48.1337502,14.5846645 Z" id="Fill-20" fill="#FFFFFF"></path>
                            <polygon id="Fill-22" fill="#FFFFFF" points="6.45336304 21.8734177 7.36295956 16.3763447 7.49650209 21.8734177 8.52621623 21.8734177 10.4466849 16.3763447 9.59596958 21.8734177 11.1257027 21.8734177 12.3037975 14.5822785 9.93818702 14.5822785 8.4649798 19.0558601 8.38843426 14.5822785 6.20771074 14.5822785 5.01265823 21.8734177"></polygon>
                            <path d="M29.788687,21.4177215 C30.2239402,18.9200548 30.3045339,16.89186 31.3430617,17.2631091 C31.524751,16.2963394 31.7003134,15.9224743 31.8987342,15.5131728 C31.8987342,15.5131728 31.8058864,15.4936709 31.6102935,15.4936709 C30.9410357,15.4936709 30.4447481,16.4169181 30.4447481,16.4169181 L30.5781283,15.5690623 L29.1858837,15.5690623 L28.2531646,21.4177215 L29.788687,21.4177215 Z" id="Fill-24" fill="#FFFFFF"></path>
                            <path d="M39.2152109,18.7841163 C39.2447934,19.0308939 39.0514065,20.1879965 38.1172326,20.1879965 C37.6355989,20.1879965 37.510423,19.8399175 37.510423,19.6340767 C37.510423,19.2323403 37.741216,18.7503491 38.8775783,18.7503491 C39.1421101,18.7503491 39.1702258,18.7774091 39.2152109,18.7841163 M38.882468,15.4936709 C37.8187175,15.4936709 37.0033629,15.8170028 37.0033629,15.8170028 L36.7784375,17.0811888 C36.7784375,17.0811888 37.4515023,16.8226158 38.4688008,16.8226158 C39.0465168,16.8226158 39.4684964,16.8839055 39.4684964,17.3279664 C39.4684964,17.5978722 39.4171548,17.6973234 39.4171548,17.6973234 C39.4171548,17.6973234 38.9616808,17.6612434 38.7504465,17.6612434 C37.4089621,17.6612434 36,18.202674 36,19.8357544 C36,21.1223747 36.92415,21.4177215 37.4972208,21.4177215 C38.5915318,21.4177215 39.0633862,20.7456168 39.0883236,20.7437665 L39.0374709,21.3043935 L40.4034038,21.3043935 L41.0126582,17.2634388 C41.0129027,15.5489472 39.4318238,15.4936709 38.882468,15.4936709" id="Fill-26" fill="#FFFFFF"></path>
                            <path d="M42.092348,21.4177215 C42.5276294,18.9200548 42.6082283,16.89186 43.6465876,17.2631091 C43.82876,16.2963394 44.0043337,15.9224743 44.2025316,15.5131728 C44.2025316,15.5131728 44.1096779,15.4936709 43.914308,15.4936709 C43.2447713,15.4936709 42.7486872,16.4169181 42.7486872,16.4169181 L42.8820761,15.5690623 L41.4895058,15.5690623 L40.556962,21.4177215 L42.092348,21.4177215 Z" id="Fill-28" fill="#FFFFFF"></path>
                        </g>
                    </g>
                </g>
            </g>
        </g>
    </g>
</svg>