<?xml version="1.0" encoding="UTF-8"?>
<svg width="105px" height="32px" viewBox="0 0 105 32" version="1.1" xmlns="http://www.w3.org/2000/svg" xmlns:xlink="http://www.w3.org/1999/xlink">
    <!-- Generator: sketchtool 55.1 (78136) - https://sketchapp.com -->
    <title>DDB902FC-E844-40A7-A858-4C31E19C0C11</title>
    <desc>Created with sketchtool.</desc>
    <defs>
        <path d="M314,150 L942,150 C945.313708,150 948,152.686292 948,156 L948,551 C948,554.313708 945.313708,557 942,557 L314,557 C310.686292,557 308,554.313708 308,551 L308,156 C308,152.686292 310.686292,150 314,150 Z" id="path-1"></path>
        <filter x="-9.5%" y="-14.5%" width="119.1%" height="130.0%" filterUnits="objectBoundingBox" id="filter-2">
            <feOffset dx="0" dy="2" in="SourceAlpha" result="shadowOffsetOuter1"></feOffset>
            <feGaussianBlur stdDeviation="20" in="shadowOffsetOuter1" result="shadowBlurOuter1"></feGaussianBlur>
            <feColorMatrix values="0 0 0 0 0.347118433   0 0 0 0 0.347118433   0 0 0 0 0.347118433  0 0 0 0.5 0" type="matrix" in="shadowBlurOuter1"></feColorMatrix>
        </filter>
        <rect id="path-3" x="0" y="0" width="459" height="289" rx="3"></rect>
        <filter x="-10.0%" y="-15.2%" width="120.0%" height="131.8%" filterUnits="objectBoundingBox" id="filter-4">
            <feOffset dx="0" dy="2" in="SourceAlpha" result="shadowOffsetOuter1"></feOffset>
            <feGaussianBlur stdDeviation="15" in="shadowOffsetOuter1" result="shadowBlurOuter1"></feGaussianBlur>
            <feColorMatrix values="0 0 0 0 0.549139493   0 0 0 0 0.549139493   0 0 0 0 0.549139493  0 0 0 0.5 0" type="matrix" in="shadowBlurOuter1"></feColorMatrix>
        </filter>
    </defs>
    <g id="Page-1" stroke="none" stroke-width="1" fill="none" fill-rule="evenodd">
        <g id="dialog---welcome-godaddy-v2" transform="translate(-503.000000, -265.000000)">
            <rect fill="#FFFFFF" x="0" y="0" width="1255" height="755"></rect>
            <g id="Group-2"></g>
            <rect id="Rectangle" fill-opacity="0.6" fill="#000000" x="0" y="0" width="1255" height="779"></rect>
            <g id="Rectangle-3">
                <use fill="black" fill-opacity="1" filter="url(#filter-2)" xlink:href="#path-1"></use>
                <use fill="#FFFFFF" fill-rule="evenodd" xlink:href="#path-1"></use>
            </g>
            <path d="M314,150 L942,150 C945.313708,150 948,152.686292 948,156 L948,298.614328 L308,370 L308,156 C308,152.686292 310.686292,150 314,150 Z" id="Rectangle-3" fill="#98BF50"></path>
            <g id="Group-3" transform="translate(398.000000, 225.000000)">
                <g id="Rectangle">
                    <use fill="black" fill-opacity="1" filter="url(#filter-4)" xlink:href="#path-3"></use>
                    <use fill="#FFFFFF" fill-rule="evenodd" xlink:href="#path-3"></use>
                </g>
            </g>
            <g id="Group-5" transform="translate(503.000000, 265.000000)" fill="#3B474F" fill-rule="nonzero">
                <g id="logo/shippo_gray">
                    <path d="M44.4443123,22.0217188 C43.8048895,22.0225859 43.1670765,21.9576087 42.5409665,21.8278067 C41.944286,21.7084773 41.37354,21.4841262 40.855316,21.1652045 C40.3556025,20.8513956 39.9347453,20.4268752 39.6252788,19.924461 C39.30171,19.4069888 39.1851301,18.6159108 39.1803717,18.5814126 C39.1463243,18.3763424 39.2054133,18.1667649 39.3415673,18.0096817 C39.4777214,17.8525986 39.6767826,17.7643441 39.8846097,17.7689219 L41.5904833,17.7689219 C42.0115407,17.7779855 42.3666638,18.0851595 42.4362825,18.5005204 C42.4469888,18.5231227 42.4767286,18.5837918 42.5552416,18.7110781 C42.6677717,18.9099287 42.8229661,19.0813738 43.0096654,19.2130855 C43.2065323,19.3494285 43.4260504,19.449722 43.6579926,19.5092937 C43.9200615,19.5756693 44.1894342,19.6088413 44.459777,19.6080297 C44.6686086,19.6068011 44.8767356,19.5836759 45.0807435,19.5390335 C45.2816808,19.4978391 45.4753404,19.4268707 45.655316,19.3284758 C45.8156123,19.2414819 45.9542592,19.1195052 46.0609665,18.9715985 C46.1674921,18.8122776 46.2200348,18.6229571 46.210855,18.4315242 C46.210855,18.3006691 46.210855,17.9045353 45.4518959,17.6190335 C44.8725651,17.4013383 43.5485502,17.0860967 43.5318959,17.0837175 C43.2249814,17.0111524 42.722974,16.8886245 42.4160595,16.8124907 C42.402974,16.8124907 42.0972491,16.7327881 41.6797026,16.5983643 C41.2677414,16.4692506 40.8760701,16.2826261 40.5162825,16.0440149 C40.1714319,15.8133074 39.8824644,15.5084893 39.6704833,15.1518216 C39.4435888,14.7478503 39.3309132,14.2897459 39.3445353,13.8266171 C39.3445353,13.0855019 39.4932342,12.4657249 39.7882528,11.9827509 C40.0734282,11.5102772 40.473696,11.1177856 40.9516729,10.8419331 C41.4450652,10.5617641 41.9824794,10.3674744 42.5409665,10.2673606 C43.1251494,10.1589365 43.7181087,10.1047777 44.3122677,10.1055661 C44.9046335,10.1046822 45.4956122,10.1628635 46.0764312,10.2792565 C46.6266181,10.3850544 47.1540346,10.5863584 47.6347955,10.874052 C48.1000483,11.1603489 48.4951715,11.547342 48.7910781,12.0065428 C49.0991822,12.4823792 49.2300372,13.1711524 49.2347955,13.1961338 C49.2788091,13.3989413 49.2270125,13.6107197 49.0943617,13.7703188 C48.961711,13.9299179 48.7629753,14.0195679 48.555539,14.0133829 L46.8544238,14.0133829 C46.4235034,13.9999113 46.0494188,13.7125224 45.9253532,13.2996283 C45.8575451,13.0945475 45.7159362,12.921988 45.5280297,12.8154647 C45.1250315,12.6190577 44.6807376,12.5223657 44.2325651,12.5335316 C44.0564817,12.5346049 43.8805763,12.544929 43.7055762,12.564461 C43.5418774,12.5799187 43.3814542,12.6200245 43.2297398,12.6834201 C43.1008532,12.7386532 42.9867558,12.8234113 42.8966543,12.930855 C42.7055392,13.212658 42.7490165,13.59182 42.9989591,13.8230483 C43.2061602,13.9904775 43.4436349,14.1164844 43.6984387,14.1942007 C44.047262,14.3074544 44.4023554,14.4003983 44.7619331,14.4725651 C45.1568773,14.5546468 45.5779926,14.6474349 46.0133829,14.7485502 C46.4519945,14.8478676 46.8851857,14.9697646 47.3112268,15.1137546 C47.7262499,15.2517584 48.1186691,15.4501726 48.4758364,15.7026022 C48.8210367,15.9494053 49.1087576,16.2679679 49.3192565,16.6364312 C49.5459491,17.0619043 49.6574919,17.5392421 49.6428253,18.0211152 C49.6428253,18.775316 49.4869888,19.4188848 49.1800743,19.9363569 C48.8843101,20.4400518 48.4733769,20.8664765 47.9809665,21.1806691 C47.4709239,21.4991079 46.9062242,21.7201475 46.315539,21.8325651 C45.7000992,21.9547309 45.0741391,22.0160917 44.4466914,22.0157621 L44.4443123,22.0217188 Z" id="Path"></path>
                    <path d="M58.8228996,21.7469145 C58.3882419,21.7462594 58.0360454,21.3940629 58.0353903,20.9594052 L58.0353903,15.9405204 C58.0353903,15.6288476 58.0127881,15.1256506 57.9854275,14.8163569 C57.9616357,14.5510781 57.8545725,13.792119 57.6463941,13.4649814 C57.4084758,13.0843123 56.9730855,12.8999257 56.3283271,12.8999257 C55.575316,12.8999257 55.0518959,13.1104833 54.725948,13.5434944 C54.4559108,13.9003717 54.3072119,14.9055762 54.2739033,15.2612639 C54.2441636,15.5705576 54.2203717,16.0749442 54.2203717,16.3842379 L54.2203717,20.962974 C54.2197166,21.3976317 53.8675202,21.7498282 53.4328625,21.7504833 L51.5771004,21.7504833 C51.1424426,21.7498282 50.7902462,21.3976317 50.7895911,20.962974 L50.7895911,7.01858736 C50.7902462,6.58392963 51.1424426,6.23173317 51.5771004,6.23107807 L53.4304833,6.23107807 C53.8656055,6.23107807 54.2185259,6.58346563 54.2191822,7.01858736 L54.2191822,11.5937546 L54.2548699,11.5497398 C54.2774721,11.5211896 54.8032714,10.8621561 55.4313755,10.5552416 C55.9973964,10.266405 56.6220212,10.1109609 57.2573978,10.1008178 C58.0901115,10.1008178 58.7776952,10.219777 59.3165799,10.4457993 C59.8280475,10.6512901 60.2767497,10.9872016 60.6179926,11.4200743 C60.946872,11.8650639 61.173154,12.3773469 61.2805948,12.9201487 C61.3631772,13.3521693 61.4156456,13.7894054 61.4376208,14.2286989 C61.4530855,14.5475093 61.4649814,15.0614126 61.4649814,15.3837918 L61.4649814,20.9558364 C61.4643263,21.3904942 61.1121299,21.7426906 60.6774721,21.7433457 L58.8228996,21.7469145 Z" id="Path"></path>
                    <path d="M63.9607435,9.13488427 C63.7509503,9.13613586 63.549298,9.05376361 63.400392,8.9059739 C63.2514861,8.7581842 63.1675989,8.55715736 63.1672862,8.34736059 L63.1672862,7.01858736 C63.1679413,6.58392963 63.5201378,6.23173317 63.9547955,6.23106369 L65.8081784,6.23106369 C66.0179716,6.22981209 66.219624,6.31218434 66.3685299,6.45997405 C66.5174358,6.60776376 66.6013231,6.8087906 66.6016357,7.01858736 L66.6016357,8.34736059 C66.6009806,8.78201833 66.2487841,9.13421479 65.8141264,9.13488427 L63.9607435,9.13488427 Z M63.9607435,21.7445353 C63.5260858,21.7438802 63.1738893,21.3916838 63.1732342,20.957026 L63.1732342,11.1821561 C63.1738893,10.7474984 63.5260858,10.3953019 63.9607435,10.3946468 L65.8141264,10.3946468 C66.2487841,10.3953019 66.6009806,10.7474984 66.6016357,11.1821561 L66.6016357,20.957026 C66.6009806,21.3916838 66.2487841,21.7438802 65.8141264,21.7445353 L63.9607435,21.7445353 Z" id="Shape"></path>
                    <path d="M74.0175465,12.7904833 C73.6249659,12.7760165 73.2361138,12.8711699 72.8945725,13.0652788 C72.597486,13.2466379 72.3462994,13.4941605 72.1605948,13.7885502 C71.9628969,14.1098294 71.8258081,14.4646474 71.7561338,14.8353903 C71.6751395,15.252788 71.6352956,15.6771257 71.6371747,16.1023048 C71.6367283,16.5202025 71.6809951,16.9369485 71.7692193,17.3454275 C71.8435905,17.7136906 71.9838319,18.0655032 72.183197,18.3839405 C72.3707683,18.6736152 72.6248678,18.9142552 72.9243123,19.0857993 C73.9433768,19.6877162 75.2558684,19.3779681 75.89829,18.3839405 C76.0963374,18.0672564 76.2331333,17.7161873 76.3015613,17.3489963 C76.3821502,16.9383607 76.4219966,16.5207711 76.42056,16.1023048 C76.4207585,15.6844182 76.376494,15.2676943 76.2884758,14.8591822 C76.210377,14.4834503 76.0661809,14.1245711 75.8626022,13.7992565 C75.6732494,13.5009697 75.4186157,13.24959 75.1179182,13.0640892 C74.7834478,12.8717904 74.4019587,12.7766241 74.0163569,12.7892937 L74.0175465,12.7904833 Z M69.0973978,25.5702602 C68.66274,25.5696051 68.3105436,25.2174087 68.3098885,24.7827509 L68.3098885,11.1821561 C68.3105436,10.7474984 68.66274,10.3953019 69.0973978,10.3946468 L70.8032714,10.3946468 C71.2383936,10.3946463 71.591314,10.7470344 71.5919703,11.1821561 L71.5919703,11.4510037 L71.6133829,11.4200743 C71.6336059,11.3950929 72.1201487,10.8026766 72.7208922,10.5171747 C73.3315191,10.2325228 73.9981393,10.088224 74.6718216,10.0948699 C75.5616357,10.0948699 76.3372491,10.266171 76.989145,10.6052045 C77.6196095,10.9306109 78.1704229,11.3912468 78.6022305,11.9542007 C79.0382285,12.535483 79.3588502,13.1948977 79.5467658,13.896803 C79.7505026,14.641772 79.8525428,15.4108748 79.850154,16.183197 C79.8518673,16.9180219 79.7493333,17.6493778 79.5455762,18.3553903 C79.3542041,19.0307794 79.0378554,19.6642838 78.6129368,20.2230483 C78.1920744,20.7698249 77.655428,21.2166917 77.041487,21.5315985 C76.3578006,21.8689034 75.6029396,22.0366049 74.8407435,22.0205204 C74.1621381,22.026509 73.4910179,21.8784559 72.8779182,21.5875093 C72.4682118,21.3756134 72.0986479,21.0938109 71.7858736,20.7547955 L71.7394796,20.7024535 C71.7394796,20.7202974 71.7394796,24.7863197 71.7394796,24.7863197 C71.7388245,25.2209774 71.386628,25.5731739 70.9519703,25.573829 L69.0973978,25.5702602 Z" id="Shape"></path>
                    <path d="M86.3952416,12.7904833 C86.0026611,12.7760165 85.613809,12.8711699 85.2722677,13.0652788 C84.9751812,13.2466379 84.7239946,13.4941605 84.53829,13.7885502 C84.3407611,14.1099132 84.2036848,14.4646991 84.133829,14.8353903 C84.0528119,15.2527847 84.0129678,15.6771247 84.0148699,16.1023048 C84.0144234,16.5202025 84.0586902,16.9369485 84.1469145,17.3454275 C84.2212857,17.7136906 84.3615271,18.0655032 84.5608922,18.3839405 C84.7484634,18.6736152 85.0025629,18.9142552 85.3020074,19.0857993 C86.3210719,19.6877162 87.6335635,19.3779681 88.2759851,18.3839405 C88.4740326,18.0672564 88.6108285,17.7161873 88.6792565,17.3489963 C88.7598531,16.9383618 88.7996995,16.5207714 88.7982556,16.1023048 C88.7984536,15.6844182 88.7541892,15.2676943 88.666171,14.8591822 C88.5880722,14.4834503 88.4438761,14.1245711 88.2402974,13.7992565 C88.0509446,13.5009697 87.7963109,13.24959 87.4956134,13.0640892 C87.161143,12.8717904 86.7796539,12.7766241 86.394052,12.7892937 L86.3952416,12.7904833 Z M81.4762825,25.5702602 C81.0416248,25.5696051 80.6894283,25.2174087 80.6887732,24.7827509 L80.6887732,11.1821561 C80.6894283,10.7474984 81.0416248,10.3953019 81.4762825,10.3946468 L83.1821561,10.3946468 C83.6168139,10.3953019 83.9690103,10.7474984 83.9696654,11.1821561 L83.9696654,11.4510037 L83.9922677,11.4236431 C84.0124907,11.3986617 84.4990335,10.8062454 85.099777,10.5207435 C85.7104039,10.2360916 86.3770241,10.0917927 87.0507063,10.0984387 C87.9405204,10.0984387 88.7161338,10.2697398 89.3680297,10.6087732 C89.9985161,10.9341468 90.5493361,11.3947883 90.9811152,11.9577695 C91.4171132,12.5390518 91.7377349,13.1984665 91.9256506,13.9003717 C92.1293874,14.6453408 92.2314276,15.4144436 92.2290387,16.1867658 C92.2307521,16.9215907 92.1282181,17.6529465 91.924461,18.3589591 C91.7326233,19.0330749 91.4162964,19.6653253 90.9918216,20.2230483 C90.5709591,20.7698249 90.0343128,21.2166917 89.4203717,21.5315985 C88.7366698,21.868859 87.9818197,22.0365581 87.2196283,22.0205204 C86.5410228,22.026509 85.8699027,21.8784559 85.256803,21.5875093 C84.8470442,21.3756962 84.4774667,21.0938833 84.1647584,20.7547955 L84.1171747,20.7024535 C84.1171747,20.7202974 84.1171747,24.7863197 84.1171747,24.7863197 C84.1165196,25.2209774 83.7643232,25.5731739 83.3296654,25.573829 L81.4762825,25.5702602 Z" id="Shape"></path>
                    <path d="M98.8336059,12.7904833 C98.0637219,12.7470559 97.3323447,13.1305718 96.9302602,13.7885502 C96.7325381,14.1098174 96.5954476,14.46464 96.5257993,14.8353903 C96.4452717,15.2460349 96.405426,15.6636184 96.4068401,16.0820818 C96.405146,16.4966207 96.4449982,16.910286 96.5257993,17.3168773 C96.5979278,17.6878473 96.7352711,18.0430871 96.9314498,18.3660967 C97.1147609,18.6615419 97.3686116,18.9068084 97.6701859,19.0798513 C98.0260715,19.2695068 98.4258652,19.3614512 98.8288476,19.3463197 C99.2360674,19.3605916 99.6399607,19.2683317 100.000595,19.0786617 C100.306197,18.9076294 100.563591,18.6621019 100.748848,18.3649071 C100.944733,18.0417534 101.082056,17.6865673 101.154498,17.3156877 C101.235347,16.9091034 101.275199,16.4954333 101.273457,16.0808922 C101.274957,15.6624249 101.23511,15.244833 101.154498,14.8342007 C101.084781,14.4630974 100.947701,14.1078966 100.750037,13.786171 C100.560729,13.48886 100.302921,13.2412504 99.9982156,13.0640892 C99.6405181,12.8692614 99.2371062,12.7739543 98.8300372,12.7881041 L98.8336059,12.7904833 Z M98.8336059,22.02171 C98.0145444,22.032584 97.2005734,21.8914096 96.4330112,21.6053532 C95.7379848,21.3415118 95.1073163,20.9322871 94.583197,20.4050558 C94.0592976,19.8683945 93.6540111,19.2276366 93.3936059,18.5243123 C93.1081391,17.74218 92.9674561,16.914609 92.9784387,16.0820818 C92.9683283,15.246521 93.1089676,14.415984 93.3936059,13.6303346 C93.9060942,12.2034144 95.0149576,11.0706624 96.430632,10.527881 C97.1973329,10.2345723 98.012792,10.0896466 98.8336059,10.1008178 C99.6578462,10.0903304 100.476685,10.2352112 101.247286,10.527881 C102.668557,11.0657398 103.782534,12.1997184 104.295019,13.6303346 C104.579581,14.4160039 104.720218,15.2465271 104.710186,16.0820818 C104.721089,16.9146028 104.580408,17.7421595 104.295019,18.5243123 C104.034168,19.2274162 103.628937,19.8680865 103.105428,20.4050558 C102.578246,20.9344826 101.943302,21.3442552 101.243717,21.6065428 C100.472171,21.8914833 99.65483,22.0322096 98.8324164,22.02171 L98.8336059,22.02171 Z" id="Shape"></path>
                    <path d="M18.2768773,11.9280297 C17.7952995,12.274599 17.1526975,12.2980516 16.6471375,11.9875093 C16.1558118,11.6918786 15.8960759,11.1251822 15.9928625,10.56 C16.0051694,10.4986097 16.0218665,10.4381818 16.0428253,10.3791822 C15.9809665,10.5445353 15.9238662,10.6849071 16.052342,10.3518216 C16.1808178,10.0187361 16.1260967,10.1591078 16.0630483,10.3256506 C16.285467,9.79966251 16.8066219,9.46291629 17.3775465,9.47628253 C17.9763645,9.48825003 18.5082888,9.86167872 18.722974,10.4208178 C18.9220199,10.9673754 18.7410336,11.5798331 18.2768773,11.9304089 L18.2768773,11.9280297 Z M33.9092937,9.92356877 C33.4616639,8.84110681 32.7391455,7.89428786 31.8132342,7.17680297 C30.8293367,6.42693505 29.6661701,5.94788759 28.4395539,5.78736059 C27.7279799,5.6942304 27.006623,5.7054515 26.29829,5.82066914 C25.5640034,5.95014515 24.8484401,6.16948866 24.1677323,6.47375465 C23.8310781,6.61769517 23.4956134,6.76877323 23.1601487,6.91390335 C22.1368306,7.52543902 20.9712613,7.8584588 19.7793309,7.8798513 C19.1593843,7.88585264 18.5407725,7.82119774 17.9354647,7.68713755 C17.6166543,7.61814126 17.3014126,7.53130112 16.992119,7.43137546 C16.6895229,7.33320523 16.3765441,7.27052964 16.0594796,7.24460967 C15.3457249,7.18394052 14.6200743,7.2802974 13.9086989,7.35524164 L12.1897398,7.53962825 L12.1837918,7.53130112 L12.133829,7.53130112 C11.7020074,7.05427509 11.1619331,6.67479554 10.6325651,6.30483271 C10.4927791,6.18952761 10.3241149,6.11465716 10.1448327,6.08832714 C9.60832714,6.08832714 9.48104089,6.72237918 9.45011152,7.13516729 C9.41906656,7.64442051 9.4655953,8.15543444 9.58810409,8.65070632 C9.62567355,8.8445889 9.68888027,9.03260887 9.77605948,9.20981413 C9.83326979,9.4513008 9.9092377,9.68795476 10.0032714,9.91762082 C9.81646722,10.1446944 9.66781282,10.400621 9.56312268,10.6753903 C9.53067352,10.7696056 9.48756886,10.8598061 9.43464684,10.9442379 C9.26117284,11.1942041 9.07162796,11.4326253 8.8672119,11.6579926 C8.19509294,12.4359851 7.47895911,13.1771004 6.76282528,13.9182156 C6.42736059,14.263197 3.53546468,15.2172491 1.87122677,15.7466171 C1.98601076,10.2473715 5.29787538,5.32036409 10.3467379,3.13773623 C15.3956005,0.955108374 21.2536531,1.91795224 25.33829,5.60178439 C25.6307242,5.51779612 25.9278409,5.45106401 26.2281041,5.40193309 C26.645087,5.33490235 27.0667345,5.30109099 27.4890706,5.30081784 L27.682974,5.30081784 C22.6438099,-0.214509465 14.4477654,-1.48479464 7.9755044,2.24640466 C1.50324343,5.97760396 -1.50464968,13.7068568 0.742995855,20.831469 C2.99064139,27.9560813 9.88936653,32.5600319 17.3310483,31.9017136 C24.77273,31.2433952 30.7560778,25.4998494 31.7180669,18.0913011 C31.6324164,18.1448327 31.5479554,18.1983643 31.4599257,18.2471375 C31.0663905,18.4589522 30.6594829,18.6449217 30.2417844,18.8038662 C30.1026022,18.859777 29.9717472,18.9133086 29.8408922,18.9680297 L29.6588848,19.0465428 C28.2899051,25.2832495 22.8911097,29.8149745 16.5115242,30.0823792 C17.9069145,28.002974 20.7084015,23.9179182 21.5292193,23.3552416 C22.6533829,22.5855762 23.7894424,21.8349442 24.9504833,21.1188104 C26.0115985,20.4633457 27.0917472,19.8328625 28.2040149,19.2666171 C28.6869888,19.0215613 29.1759108,18.7907807 29.6743494,18.5778439 C30.2060967,18.3530112 30.7449814,18.161487 31.249368,17.8771747 C32.1600744,17.370832 32.9325261,16.6486244 33.4988848,15.7739777 C34.0317587,14.932203 34.3488267,13.97201 34.4220074,12.9784387 C34.4925801,11.9336673 34.316967,10.8869154 33.9092937,9.92237918 L33.9092937,9.92356877 Z" id="Shape"></path>
                </g>
            </g>
        </g>
    </g>
</svg>