<svg width="30" height="30" viewBox="0 0 30 30" fill="none" xmlns="http://www.w3.org/2000/svg">
<path d="M28 0H2C0.895431 0 0 0.89543 0 2V28C0 29.1046 0.89543 30 2 30H28C29.1046 30 30 29.1046 30 28V2C30 0.895431 29.1046 0 28 0Z" fill="#FFF200"/>
<path d="M5.63278 16.4273L6.24868 15.6751C6.6361 15.9902 7.07319 16.163 7.54008 16.163C7.8381 16.163 7.99704 16.0613 7.99704 15.8885V15.8784C7.99704 15.7056 7.8679 15.6141 7.33147 15.4921C6.48709 15.299 5.83146 15.055 5.83146 14.2113V14.2011C5.83146 13.4489 6.41756 12.9 7.37121 12.9C8.04671 12.9 8.5732 13.083 9.00036 13.4388L8.454 14.2316C8.08644 13.9673 7.69902 13.8352 7.34141 13.8352C7.07319 13.8352 6.94405 13.947 6.94405 14.0995V14.1097C6.94405 14.2926 7.08312 14.3739 7.62949 14.5061C8.5434 14.7094 9.10963 15.0143 9.10963 15.7665V15.7767C9.10963 16.6102 8.47386 17.0982 7.51028 17.0982C6.78511 17.0982 6.11954 16.8745 5.63278 16.4273Z" fill="black"/>
<path d="M9.76515 12.9716H12.9539V13.9271H10.8479V14.537H12.7552V15.4213H10.8479V16.0617H12.9738V17.0172H9.75522V12.9716H9.76515Z" fill="black"/>
<path d="M13.7681 12.9716H14.7913L16.4304 15.1164V12.9716H17.5231V17.0274H16.5595L14.8609 14.8012V17.0274H13.7681V12.9716Z" fill="black"/>
<path d="M18.4076 12.9716H19.9374C21.3579 12.9716 22.1725 13.8051 22.1725 14.9741V14.9842C22.1725 16.1532 21.3381 17.0274 19.9076 17.0274H18.3976V12.9716H18.4076ZM19.9573 16.0312C20.6129 16.0312 21.05 15.6551 21.05 15.0045V14.9944C21.05 14.3438 20.6129 13.9677 19.9573 13.9677H19.5102V16.0312H19.9573Z" fill="black"/>
<path d="M22.8083 12.9716H23.9109V17.0274H22.8083V12.9716Z" fill="black"/>
<path d="M3.33776 12.9C2.22517 12.9 1.5 13.4693 1.5 14.7602V17.027H2.60266V15.9393H4.053V17.027H5.15566V14.7399C5.15566 13.4794 4.45035 12.9 3.33776 12.9ZM2.60266 15.055V14.7297C2.60266 14.1706 2.89074 13.9064 3.32783 13.9064C3.76492 13.9064 4.053 14.1808 4.053 14.7602V15.055H2.60266Z" fill="black"/>
<path d="M26.6821 12.9C25.5695 12.9 24.8444 13.4693 24.8444 14.7602V17.027H25.947V15.9393H27.3974V17.027H28.5V14.7399C28.4901 13.4794 27.7947 12.9 26.6821 12.9ZM25.947 15.055V14.7297C25.947 14.1706 26.2351 13.9064 26.6722 13.9064C27.1093 13.9064 27.3974 14.1808 27.3974 14.7602V15.055H25.947Z" fill="black"/>
</svg>
