<svg width="24" height="24" viewBox="0 0 24 24" fill="none" xmlns="http://www.w3.org/2000/svg">
<g clip-path="url(#clip0)">
<path d="M14.7287 7.17703C14.3519 6.80019 13.741 6.80019 13.3645 7.17703L7.22465 13.3169C6.47074 14.0702 5.24929 14.0702 4.49592 13.3169C3.74178 12.5633 3.74178 11.3417 4.49592 10.5877L10.5175 4.56633C9.76402 3.81258 8.54211 3.81258 7.78858 4.56633L3.13105 9.22371C1.62416 10.7309 1.62416 13.1741 3.13105 14.6815C4.63833 16.1888 7.08146 16.1888 8.58874 14.6815L14.7287 8.54151C15.1052 8.16475 15.1052 7.55379 14.7287 7.17703ZM16.7753 5.13058C15.268 3.62314 12.8249 3.62314 11.3176 5.13058L5.17797 11.2702C4.80144 11.6467 4.80144 12.258 5.17797 12.6346C5.55473 13.0114 6.16538 13.0114 6.54222 12.6346L12.6824 6.49506C13.4359 5.7413 14.6574 5.7413 15.4108 6.49506C15.7879 6.87159 16.3986 6.87159 16.7754 6.49506C17.1522 6.11791 17.1522 5.50734 16.7754 5.13058H16.7753ZM18.8221 11.2702C18.4453 10.8938 17.8342 10.8938 17.4574 11.2702L11.3176 17.41C10.5641 18.1635 9.34226 18.1635 8.58874 17.41C8.21221 17.0335 7.60141 17.0335 7.22465 17.41C6.84734 17.7869 6.84734 18.3979 7.22465 18.7742C8.73131 20.2815 11.1751 20.2815 12.6823 18.7742L18.8221 12.6346C19.1986 12.2581 19.1986 11.6468 18.8221 11.2702ZM20.8689 9.22379C19.3616 7.71674 16.9181 7.71674 15.4112 9.22379L9.27102 15.3638C8.89426 15.7401 8.89426 16.3515 9.27102 16.728C9.64802 17.105 10.259 17.105 10.6355 16.728L16.7753 10.5882C17.5286 9.83451 18.7507 9.83451 19.504 10.5882C20.2576 11.3418 20.2576 12.5634 19.504 13.317L13.4824 19.3388C14.2359 20.0921 15.4572 20.0921 16.2114 19.3388L20.8689 14.6814C22.3758 13.174 22.3758 10.7308 20.8689 9.22379Z" fill="#1A1918"/>
</g>
<defs>
<clipPath id="clip0">
<rect x="2" y="4" width="20" height="15.936" fill="white"/>
</clipPath>
</defs>
</svg>
