<?xml version="1.0" encoding="UTF-8"?>
<svg width="8px" height="8px" viewBox="0 0 8 8" version="1.1" xmlns="http://www.w3.org/2000/svg" xmlns:xlink="http://www.w3.org/1999/xlink">
    <!-- Generator: sketchtool 56.2 (101010) - https://sketch.com -->
    <title>41B45115-5D31-4314-9299-B9A9C2276AE5</title>
    <desc>Created with sketchtool.</desc>
    <g id="Components-library" stroke="none" stroke-width="1" fill="none" fill-rule="evenodd">
        <g transform="translate(-547.000000, -407.000000)" fill="#A062D8" fill-rule="nonzero" id="Group-6">
            <g transform="translate(547.000000, 405.000000)">
                <path d="M4,5.5 C4.3,5.5 4.5,5.7 4.5,6 L4.5,7.5 C4.5,7.8 4.3,8 4,8 C3.7,8 3.5,7.8 3.5,7.5 L3.5,6.5 C3.2,6.5 3,6.3 3,6 C3,5.7 3.2,5.5 3.5,5.5 L4,5.5 Z M4,5 C3.72385763,5 3.5,4.77614237 3.5,4.5 C3.5,4.22385763 3.72385763,4 4,4 C4.27614237,4 4.5,4.22385763 4.5,4.5 C4.5,4.77614237 4.27614237,5 4,5 Z M4,2 C1.8,2 0,3.8 0,6 C0,8.2 1.8,10 4,10 C6.2,10 8,8.2 8,6 C8,3.8 6.2,2 4,2 Z M4,9 C2.35,9 1,7.65 1,6 C1,4.35 2.35,3 4,3 C5.65,3 7,4.35 7,6 C7,7.65 5.65,9 4,9 Z" id="icon/12_shippingmethod-copy-2"></path>
            </g>
        </g>
    </g>
</svg>