<svg width="24" height="24" viewBox="0 0 24 24" fill="none" xmlns="http://www.w3.org/2000/svg">
<g clip-path="url(#clip0)">
<path d="M13.5278 8.29211C13.1288 8.50306 12.9863 8.85084 12.9863 9.81423C12.9863 9.81423 13.1859 9.62031 13.4824 9.51214C13.6989 9.43801 13.8814 9.31821 13.9896 9.23848C14.3259 8.99327 14.3716 8.67954 14.3716 8.14947C14.3716 8.14947 13.8243 8.13223 13.5278 8.29211Z" fill="#FFCB29"/>
<path d="M11.1907 8.51998C10.8713 8.80505 10.7744 9.2554 10.7744 9.2554L9.70262 13.3716L8.81894 9.99663C8.73342 9.64325 8.57373 9.19291 8.32852 8.8962C8.02082 8.51998 7.38797 8.49714 7.31945 8.49714C7.25093 8.49714 6.61268 8.51998 6.29895 8.90202C6.05374 9.20411 5.89428 9.64886 5.80875 10.0022L4.92508 13.3772L3.86451 9.2554C3.86451 9.2554 3.77336 8.79924 3.44864 8.51998C2.92395 8.05821 2.14285 8.15518 2.14285 8.15518L4.17824 15.8742C4.17824 15.8742 4.85095 15.9255 5.18732 15.7488C5.62623 15.5264 5.84279 15.3497 6.11084 14.295C6.35024 13.36 7.01736 10.612 7.08007 10.4125C7.10849 10.3155 7.14837 10.082 7.31945 10.082C7.49614 10.082 7.53062 10.3099 7.55885 10.4125C7.62156 10.6064 8.28284 13.3602 8.52805 14.295C8.7961 15.3441 9.00705 15.515 9.45179 15.7488C9.78795 15.9255 10.4609 15.8742 10.4609 15.8742L12.496 8.16078C12.496 8.16078 11.7152 8.06381 11.1907 8.51998ZM14.3718 9.41506C14.3718 9.41506 14.2464 9.60899 13.9557 9.77986C13.7676 9.88265 13.5907 9.95656 13.3969 10.0479C13.0776 10.2018 12.9865 10.3785 12.9865 10.6407V15.8746C12.9865 15.8746 13.5051 15.9371 13.8359 15.7718C14.269 15.5495 14.366 15.3387 14.3718 14.3751V9.41506ZM19.4572 12.0318L22.0399 8.1778C22.0399 8.1778 20.9509 7.98969 20.4094 8.48593C20.0616 8.79924 19.6738 9.36378 19.6738 9.36378L18.7274 10.7435C18.6761 10.8118 18.6248 10.8917 18.5279 10.8917C18.4309 10.8917 18.3684 10.8176 18.3283 10.7435L17.3706 9.36938C17.3706 9.36938 16.9887 8.80484 16.6351 8.49153C16.0992 7.99551 15.0046 8.1834 15.0046 8.1834L17.5929 12.0262L15.0046 15.863C15.0046 15.863 16.1449 16.0112 16.6808 15.5152C17.0286 15.2017 17.3649 14.6828 17.3649 14.6828L18.3113 13.3089C18.3626 13.2404 18.4139 13.1607 18.5108 13.1607C18.6078 13.1607 18.6703 13.2348 18.7104 13.3089L19.6568 14.6828C19.6568 14.6828 20.0101 15.1902 20.3523 15.5152C20.8882 16.0112 22.0115 15.863 22.0115 15.863L19.4572 12.0318Z" fill="#2E3133"/>
</g>
<defs>
<clipPath id="clip0">
<rect x="2" y="7" width="20" height="10.2857" fill="white"/>
</clipPath>
</defs>
</svg>
