<svg width="140" height="72" viewBox="0 0 140 72" fill="none" xmlns="http://www.w3.org/2000/svg">
<path d="M104 36C104 17.2208 88.7792 2 70 2C51.2208 2 36 17.2208 36 36C36 52.9721 48.4263 67.0378 64.6904 69.5901V45.8367H56.0647V36H64.6904V28.5107C64.6904 19.9967 69.7578 15.2833 77.5266 15.2833C81.2526 15.2833 85.1463 15.954 85.1463 15.954V24.3189H80.8614C76.6323 24.3189 75.3282 26.9458 75.3282 29.6285V36H84.7551L83.246 45.8367H75.3282V69.5901C91.5737 67.0378 104 52.9721 104 36Z" fill="#1877F2"/>
<path d="M83.2274 45.8367L84.7364 36H75.3096V29.6285C75.3096 26.9458 76.6323 24.3189 80.8427 24.3189H85.1277V15.954C85.1277 15.954 81.234 15.2833 77.5079 15.2833C69.7392 15.2833 64.6718 19.9967 64.6718 28.5107V36H56.046V45.8367H64.6718V69.5901C66.4044 69.8696 68.1742 70 69.9814 70C71.7885 70 73.5584 69.851 75.291 69.5901V45.8367H83.2274Z" fill="white"/>
</svg>
