<svg width="30" height="31" viewBox="0 0 30 31" fill="none" xmlns="http://www.w3.org/2000/svg">
<rect width="30" height="30" transform="translate(0 0.629883)" fill="#EDF601"/>
<path d="M0.0110369 23.3106L0 7.88721L5.8687 7.90205C8.09248 7.90776 9.54215 7.98844 10.2177 8.14449C11.2556 8.37855 12.1248 8.88397 12.8255 9.66076C13.5262 10.4375 13.8771 11.4396 13.8778 12.667C13.8786 13.6139 13.6773 14.4094 13.2742 15.0537C12.8712 15.6981 12.3585 16.2035 11.737 16.57C11.1155 16.9365 10.4833 17.1789 9.84091 17.2965C8.96784 17.4415 7.70352 17.5119 6.04795 17.5081L3.66356 17.5021L3.66774 23.3201L0.0106565 23.311L0.0110369 23.3106ZM3.65899 10.5057L3.66204 14.8824L5.66356 14.8874C7.10485 14.8908 8.06851 14.8128 8.55452 14.6526C9.04053 14.4923 9.42112 14.2408 9.69667 13.8979C9.97222 13.555 10.11 13.1553 10.1096 12.6994C10.1092 12.1384 9.91513 11.6748 9.52807 11.3091C9.14063 10.9433 8.65043 10.7142 8.05747 10.6217C7.62093 10.5506 6.74367 10.5133 5.42569 10.5099L3.65899 10.5053V10.5057Z" fill="#3130CE"/>
<path d="M20.9898 23.3632L20.9807 10.5492L15.6064 10.5358L15.6045 7.92651L29.998 7.96267L29.9999 10.572L24.6378 10.5587L24.6469 23.3728L20.9898 23.3636V23.3632Z" fill="#3130CE"/>
</svg>
