<svg width="260" height="160" viewBox="0 0 260 160" fill="none" xmlns="http://www.w3.org/2000/svg">
<rect width="260" height="160" fill="#AC0047"/>
<path d="M40.4932 89.0378C40.4932 82.2448 45.8095 77.8736 53.7543 79.2913V67.5364C37.5693 65.4099 28 75.2155 28 89.0378V104.396L40.4932 111.839V89.0378Z" fill="white"/>
<path d="M56.5604 67.5364H68.3743V79.3504H56.5604V67.5364ZM42.236 48.1616C46.1937 48.1616 49.413 51.3809 49.413 55.3386C49.413 59.2962 46.1937 62.5155 42.236 62.5155C38.2784 62.5155 35.0591 59.2962 35.0591 55.3386C35.0591 51.3809 38.2488 48.1616 42.236 48.1616Z" fill="#CCC7BE"/>
<path d="M89.9159 108.801H97.7476V88.603C97.7064 86.6657 98.4071 84.8108 99.7674 83.4093C101.21 82.0903 103.147 81.3483 105.126 81.4308C106.527 81.472 107.888 81.5957 109.248 81.843V74.0112C107.64 73.7639 106.033 73.6403 104.384 73.599C96.7171 73.2693 90.2456 79.2461 89.9159 86.913C89.8746 87.4488 89.9159 88.0259 89.9571 88.5618L89.9159 108.801ZM116.956 105.709C114.977 103.442 113.906 100.474 114.071 97.4652V85.0993C113.906 82.0903 114.977 79.1225 116.956 76.8554C119.141 74.712 122.15 73.5578 125.2 73.6815H137.772V81.3896H125.406C124.417 81.2659 123.386 81.5544 122.603 82.1727C121.985 82.9559 121.696 83.9864 121.82 84.9757V87.5313H135.464V94.8684H121.737V97.424C121.614 98.4545 121.902 99.4438 122.521 100.268C123.304 100.886 124.334 101.175 125.324 101.051H137.689V108.801H125.365C122.315 108.924 119.305 107.77 117.121 105.627L116.956 105.709ZM147.623 105.792C145.604 103.525 144.573 100.557 144.738 97.5477V73.8464H152.529V97.5065C152.405 98.5369 152.693 99.5674 153.312 100.392C154.095 101.051 155.084 101.34 156.073 101.216H166.914L164.235 108.801H155.991C152.941 108.924 149.973 107.811 147.747 105.709L147.623 105.792ZM212.421 108.801V95.4455L200.632 73.8051H209.453L216.295 87.3664L223.179 73.8051H232L220.252 95.4455V108.801H212.421ZM193.295 78.7515C191.605 73.8051 189.173 73.8051 187.854 73.8051H185.669C184.391 73.8051 181.959 73.8051 180.228 78.7515C177.714 86.2947 169.8 108.801 169.8 108.801H178.044L180.311 102.041H193.254L195.562 108.801H203.806L193.295 78.7515ZM182.784 94.786L186.906 82.9147L191.028 94.786H182.784ZM208.299 55.586C207.68 53.7724 206.774 53.7724 206.32 53.7724H205.537C205.084 53.7724 204.177 53.7724 203.559 55.586L199.725 66.6329H202.775L203.6 64.1597H208.299L209.123 66.6329H212.173L208.299 55.586ZM204.177 61.4805L205.661 57.1112L207.145 61.4805H204.177ZM103.065 66.6329V58.1417C103.106 57.1524 102.282 56.328 101.292 56.2868H101.169C100.18 56.2456 99.3552 56.9875 99.3139 57.9768V58.1417V66.6329H96.4286V58.1417C96.4698 57.1524 95.7278 56.328 94.7386 56.2868H94.5737C93.5844 56.2456 92.7188 57.0287 92.6776 58.018V58.1417H92.8837V66.6329H89.8746V58.1829C89.8334 55.6273 91.8532 53.5251 94.4088 53.4838H94.6149C95.8515 53.4838 97.0881 53.9785 97.9125 54.9265C98.7369 53.9785 99.9735 53.4838 101.21 53.4838C103.766 53.4014 105.868 55.4212 105.95 57.9768V58.1829V66.6329H103.065ZM117.368 60.1202C117.203 56.5753 119.924 53.6075 123.469 53.4426H123.675C127.22 53.4838 130.023 56.3692 129.981 59.9141V60.1202C130.146 63.6651 127.426 66.6329 123.881 66.7978H123.675C120.13 66.7566 117.327 63.8712 117.368 60.3263V60.1202ZM120.254 60.1202C120.047 62.1812 121.531 64.0361 123.592 64.2422H123.675C125.736 64.0773 127.261 62.2636 127.096 60.2027V60.1202C127.343 58.1004 125.859 56.2456 123.84 55.9982H123.675C121.614 56.1631 120.089 57.9356 120.254 59.9553C120.212 59.9965 120.254 60.079 120.254 60.1202ZM149.726 54.8029C150.591 55.7097 151.086 56.9463 151.045 58.1829V66.4268H148.2V58.1417C148.283 57.1936 147.623 56.3692 146.717 56.2868H146.304C145.356 56.2043 144.532 56.8638 144.449 57.8119V58.1417V66.6329H141.605V58.389C141.564 57.1524 142.059 55.9158 142.924 55.009C143.831 54.1434 145.068 53.6487 146.346 53.6899C147.623 53.6487 148.86 54.1434 149.767 55.009L149.726 54.8029ZM168.357 66.6329H163.534V53.7724H168.357C169.923 53.7312 171.407 54.3907 172.479 55.5036C173.551 56.8226 174.128 58.5126 174.045 60.2027C174.128 61.8927 173.551 63.5414 172.479 64.8605C171.407 66.0146 169.923 66.6329 168.357 66.6329ZM168.357 56.4517H166.378V63.9124H168.357C170.954 63.9124 171.283 61.6453 171.325 60.1614C171.325 58.3478 170.83 56.4517 168.357 56.4517ZM185.216 66.6329V53.7724H188.06V66.6329H185.216ZM226.271 66.6329C225.116 66.7154 224.003 66.2619 223.179 65.4788C222.437 64.6544 222.066 63.5827 222.107 62.4697V53.7724H224.952V62.4285C224.952 63.5002 225.199 63.7475 226.229 63.7888H230.351V66.6329H226.271Z" fill="white"/>
</svg>
