<svg width="30" height="30" viewBox="0 0 30 30" fill="none" xmlns="http://www.w3.org/2000/svg">
<path fill-rule="evenodd" clip-rule="evenodd" d="M0 2C0 0.89543 0.895431 0 2 0H28C29.1046 0 30 0.895431 30 2V28C30 29.1046 29.1046 30 28 30H2C0.89543 30 0 29.1046 0 28V2Z" fill="#F1C637"/>
<path fill-rule="evenodd" clip-rule="evenodd" d="M14.2885 19.9169C6.98002 19.9111 4.15399 13.6001 4.53343 8.81126L6.68083 8.13727C6.33148 10.8549 7.17771 12.8189 7.76664 13.7185C7.06913 9.86914 9.99193 6.75001 13.6559 6.75001C16.9511 6.74415 19.6756 9.14005 19.6644 12.5657C20.1483 11.2587 20.4805 9.26255 20.5496 7.87177L25.5 9.09668C25.104 14.862 20.7461 19.9169 14.2885 19.9169ZM21.3981 23.25L18.5869 20.4227H21.3704L24.1852 23.25H21.3981ZM17.6386 23.25L14.8208 20.4227H17.612L20.4257 23.25H17.6386ZM11.361 23.25H8.57036L11.3852 20.4227H14.1758L11.361 23.25ZM4.80723 23.25L7.62618 20.4227H10.4121L7.59845 23.25H4.80723ZM13.6636 8.75734C11.4808 8.75734 9.71045 10.5185 9.71045 12.6876C9.71045 14.8561 11.4808 16.6179 13.6636 16.6179C14.189 16.6269 14.711 16.5319 15.1991 16.3384C15.6871 16.145 16.1315 15.8569 16.5063 15.491C16.8811 15.1252 17.1787 14.6889 17.3819 14.2076C17.5851 13.7262 17.6898 13.2095 17.6898 12.6876C17.6898 12.1657 17.5851 11.649 17.3819 11.1677C17.1787 10.6864 16.8811 10.25 16.5063 9.88418C16.1315 9.51833 15.6871 9.23027 15.1991 9.0368C14.711 8.84333 14.189 8.74833 13.6636 8.75734Z" fill="black"/>
</svg>
