<svg width="24" height="24" viewBox="0 0 24 24" fill="none" xmlns="http://www.w3.org/2000/svg">
<g clip-path="url(#clip0)">
<path d="M11.002 15C11.002 14.8687 11.0278 14.7386 11.0781 14.6173C11.1283 14.496 11.202 14.3857 11.2948 14.2929C11.3877 14.2 11.4979 14.1264 11.6193 14.0761C11.7406 14.0259 11.8706 14 12.002 14C12.1333 14 12.2633 14.0259 12.3846 14.0761C12.506 14.1264 12.6162 14.2 12.7091 14.2929C12.8019 14.3857 12.8756 14.496 12.9258 14.6173C12.9761 14.7386 13.002 14.8687 13.002 15C13.002 15.2652 12.8966 15.5196 12.7091 15.7071C12.5215 15.8946 12.2672 16 12.002 16C11.7367 16 11.4824 15.8946 11.2948 15.7071C11.1073 15.5196 11.002 15.2652 11.002 15ZM11.1 8.995C11.0866 8.86884 11.1 8.74129 11.1392 8.62062C11.1783 8.49996 11.2424 8.38888 11.3273 8.29458C11.4121 8.20029 11.5159 8.12489 11.6318 8.07328C11.7477 8.02167 11.8731 7.995 12 7.995C12.1268 7.995 12.2523 8.02167 12.3681 8.07328C12.484 8.12489 12.5878 8.20029 12.6726 8.29458C12.7575 8.38888 12.8216 8.49996 12.8608 8.62062C12.8999 8.74129 12.9133 8.86884 12.9 8.995L12.55 12.502C12.5382 12.6398 12.4752 12.7681 12.3733 12.8616C12.2715 12.9552 12.1382 13.007 12 13.007C11.8617 13.007 11.7284 12.9552 11.6266 12.8616C11.5248 12.7681 11.4617 12.6398 11.45 12.502L11.1 8.995Z" fill="white"/>
<circle cx="12" cy="12" r="8" fill="#DFB136"/>
<path d="M12.5708 14.1626H11.0474L10.8315 7.75781H12.7866L12.5708 14.1626ZM11.8091 15.1655C12.118 15.1655 12.3656 15.2565 12.5518 15.4385C12.7422 15.6204 12.8374 15.8532 12.8374 16.1367C12.8374 16.416 12.7422 16.6466 12.5518 16.8286C12.3656 17.0106 12.118 17.1016 11.8091 17.1016C11.5044 17.1016 11.2568 17.0106 11.0664 16.8286C10.8802 16.6466 10.7871 16.416 10.7871 16.1367C10.7871 15.8574 10.8802 15.6268 11.0664 15.4448C11.2568 15.2586 11.5044 15.1655 11.8091 15.1655Z" fill="white"/>
</g>
<defs>
<clipPath id="clip0">
<rect width="16" height="16" fill="white" transform="translate(4 4)"/>
</clipPath>
</defs>
</svg>
