<svg width="260" height="160" viewBox="0 0 260 160" fill="none" xmlns="http://www.w3.org/2000/svg">
<path d="M260 0H0V160H260V0Z" fill="#E91F31"/>
<path fill-rule="evenodd" clip-rule="evenodd" d="M106.921 84.7534C110.862 84.7534 112.833 84.4886 112.833 81.4399C112.833 78.2595 110.862 77.8616 106.921 77.8616H92.2051V69.1123H106.526C111.914 69.1123 115.723 69.5114 118.613 71.4983C121.898 73.6182 123.344 76.7998 123.344 81.1739C123.344 88.9945 118.745 93.2367 110.074 93.2367H103.373V103.973H92.2051V84.7522H106.921V84.7534Z" fill="white"/>
<path fill-rule="evenodd" clip-rule="evenodd" d="M142.659 96.1509C147.389 96.1509 149.36 93.1023 149.36 86.6083C149.36 79.9801 147.389 76.9315 142.659 76.9315C137.93 76.9315 135.826 79.9801 135.826 86.6083C135.826 93.1023 137.93 96.1509 142.659 96.1509ZM142.659 68.1846C153.827 68.1846 160.659 75.2106 160.659 86.6095C160.659 97.8766 153.828 104.9 142.659 104.9C131.49 104.9 124.527 97.8766 124.527 86.6095C124.527 75.2106 131.492 68.1846 142.659 68.1846Z" fill="white"/>
<path fill-rule="evenodd" clip-rule="evenodd" d="M173.536 92.4417C173.799 95.4892 175.639 96.5485 178.659 96.5485C181.419 96.5485 182.863 95.6222 182.863 94.0295C182.863 91.9096 180.893 91.7766 176.821 90.716C171.958 89.3919 168.805 88.3313 167.359 87.2707C164.599 85.4132 163.417 82.7637 163.417 79.3172C163.417 72.5584 168.674 68.1831 177.871 68.1831C186.937 68.1831 192.456 72.2923 192.85 79.848H182.338C182.207 77.063 180.498 76.1379 177.739 76.1379C175.374 76.1379 174.192 76.7994 174.192 78.5214C174.192 80.2459 176.031 80.6413 179.315 81.5713C183.651 82.6319 187.067 83.2933 189.301 84.753C192.323 86.8741 193.768 89.3919 193.768 92.9702C193.768 100.526 188.382 104.9 178.264 104.9C168.935 104.9 163.023 100.526 162.759 92.4405H173.536V92.4417Z" fill="white"/>
<path fill-rule="evenodd" clip-rule="evenodd" d="M203.886 78.2585H193.901V69.1138H224.777V78.2585H215.054V103.972H203.886V78.2585Z" fill="white"/>
<path fill-rule="evenodd" clip-rule="evenodd" d="M49.1102 63.8105C40.3066 66.4613 34 74.5479 34 84.2224C34 94.0298 40.3066 102.116 49.1102 104.767V63.8105Z" fill="white"/>
<path fill-rule="evenodd" clip-rule="evenodd" d="M55.2846 62.8823H53.8389V65.1365H54.7595C61.9855 65.1365 68.0296 71.1007 68.0296 78.3904C68.0296 85.6813 62.1162 91.6444 54.8914 91.7774V105.696H55.2858C67.1114 105.696 76.7025 96.1514 76.7025 84.2217C76.7013 72.4261 67.1102 62.8823 55.2846 62.8823Z" fill="white"/>
<path fill-rule="evenodd" clip-rule="evenodd" d="M95.8841 56.1226L94.5703 60.3649H97.0673L95.8841 56.1226ZM94.1771 61.6903L93.5202 64.0762H91.9438L95.0978 54.2676H96.806L99.6973 64.0762H98.121L97.4641 61.6903H94.1771Z" fill="white"/>
<path fill-rule="evenodd" clip-rule="evenodd" d="M101.535 54.2673V60.4964C101.535 61.557 101.535 62.3539 102.06 63.1472C102.717 63.943 103.505 64.2066 104.557 64.2066C105.607 64.2066 106.396 63.9417 106.79 63.5439C107.447 62.8812 107.709 61.9537 107.709 60.3634V54.2661H106.264V60.6283C106.264 61.291 106.264 61.8206 106.001 62.2185C105.739 62.7482 105.344 63.0142 104.556 63.0142C103.899 63.0142 103.504 62.7494 103.242 62.2185C102.979 61.8206 102.979 61.291 102.979 60.4952V54.2661H101.535V54.2673Z" fill="white"/>
<path fill-rule="evenodd" clip-rule="evenodd" d="M110.075 61.1603V61.2909V61.4239C110.075 62.3526 110.337 63.0141 110.732 63.545C111.257 63.9429 111.914 64.2077 112.965 64.2077C114.016 64.2077 114.805 63.9429 115.33 63.412C115.724 63.0141 115.987 62.3526 115.987 61.4239C115.987 60.2303 115.198 59.7019 114.016 58.9061L113.491 58.5083C112.308 57.8456 111.651 57.3159 111.651 56.519C111.651 56.1211 111.782 55.8563 112.045 55.5914C112.308 55.4596 112.57 55.1924 113.096 55.1924C113.49 55.1924 113.752 55.3254 114.016 55.5914C114.279 55.8563 114.411 56.2541 114.411 56.785V57.0499H115.856V56.6508C115.856 55.8563 115.726 55.1924 115.199 54.7957C114.805 54.266 114.017 54 113.097 54C111.389 54 110.207 55.0606 110.207 56.6508C110.207 58.1092 110.863 58.6401 112.308 59.5676L112.702 59.8313C113.884 60.4952 114.541 60.8918 114.541 61.6875C114.541 62.4833 113.884 63.0129 112.965 63.0129C112.57 63.0129 112.308 62.8799 112.045 62.7469C111.782 62.4833 111.651 62.0854 111.651 61.4227V61.1579H110.075V61.1603Z" fill="white"/>
<path fill-rule="evenodd" clip-rule="evenodd" d="M120.717 55.46V64.0762H119.271V55.46H116.906V54.2676H123.082V55.46H120.717Z" fill="white"/>
<path fill-rule="evenodd" clip-rule="evenodd" d="M128.732 55.7255C128.469 55.5925 128.207 55.4607 127.681 55.4607H126.367V58.3775H127.154C128.468 58.3775 129.125 57.9797 129.125 56.7873C129.126 56.3882 128.995 55.9903 128.732 55.7255ZM129.126 59.039C130.046 59.172 130.31 59.9665 130.31 61.0271V61.5568V61.9546C130.31 62.7504 130.44 63.4131 130.572 63.9439V64.0758H129.126H128.996C128.864 63.4131 128.864 62.6173 128.864 61.8228V61.0271C128.864 59.9665 128.601 59.7017 127.813 59.7017H126.368V64.0758H124.922V54.2671H127.55C128.732 54.2671 129.521 54.3989 129.915 54.9298C130.31 55.3277 130.572 55.8573 130.572 56.653C130.571 57.8466 130.046 58.6411 129.126 59.039Z" fill="white"/>
<path fill-rule="evenodd" clip-rule="evenodd" d="M136.221 56.1226L134.907 60.3649H137.403L136.221 56.1226ZM137.799 61.6903H134.514L133.857 64.0762H132.28L135.434 54.2676H137.011L140.033 64.0762H138.456L137.799 61.6903Z" fill="white"/>
<path fill-rule="evenodd" clip-rule="evenodd" d="M143.448 62.7503V54.2671H142.002V64.077H146.732V62.7503H143.448Z" fill="white"/>
<mask id="mask0" mask-type="alpha" maskUnits="userSpaceOnUse" x="34" y="54" width="191" height="52">
<path d="M34 105.696H224.778V54H34V105.696Z" fill="white"/>
</mask>
<g mask="url(#mask0)">
<path fill-rule="evenodd" clip-rule="evenodd" d="M148.309 64.0758H149.754V54.2671H148.309V64.0758Z" fill="white"/>
<path fill-rule="evenodd" clip-rule="evenodd" d="M155.535 56.1226L154.353 60.3649H156.848L155.535 56.1226ZM157.243 61.6903H153.958L153.301 64.0762H151.726L154.748 54.2676H156.456L159.478 64.0762H157.902L157.243 61.6903Z" fill="white"/>
</g>
</svg>
