<svg width="48" height="66" viewBox="0 0 48 66" fill="none" xmlns="http://www.w3.org/2000/svg">
<g clip-path="url(#clip0_392_8909)">
<path d="M602 -331H-678V1126H602V-331Z" fill="white"/>
<path d="M47 30.0164L47 1.98361C47 1.44038 46.1046 1 45 1L3 1C1.89543 1 1 1.44038 1 1.98361L1 30.0164C1 30.5596 1.89543 31 3 31L45 31C46.1046 31 47 30.5596 47 30.0164Z" fill="white" stroke="#BCC2C8"/>
<path d="M47 64.0164L47 35.9836C47 35.4404 46.1046 35 45 35L3 35C1.89543 35 1 35.4404 1 35.9836L1 64.0164C1 64.5596 1.89543 65 3 65H45C46.1046 65 47 64.5596 47 64.0164Z" fill="white" stroke="#BCC2C8"/>
<path d="M39 26L39 6C39 5.44772 38.5523 5 38 5L10 5C9.44772 5 9 5.44772 9 6L9 26C9 26.5523 9.44772 27 10 27L38 27C38.5523 27 39 26.5523 39 26Z" fill="white" stroke="#BCC2C8"/>
<path d="M32.5 9.5V8.5L27.5 8.5V9.5H32.5Z" fill="#BCC2C8"/>
<path d="M32.5 11.5V10.5L27.5 10.5V11.5H32.5Z" fill="#BCC2C8"/>
<path d="M32.5 18.5V17.5H27.5V18.5H32.5Z" fill="#BCC2C8"/>
<path d="M32.5 22.5V19.5H27.5V22.5H32.5Z" fill="#BCC2C8"/>
<path d="M32.5 16.5V12.5L27.5 12.5V16.5H32.5Z" fill="#BCC2C8"/>
<path d="M38.5 57.5V47.5H36.5V57.5H38.5Z" fill="#BCC2C8"/>
<path d="M32.5 57.5V47.5H30.5V57.5H32.5Z" fill="#BCC2C8"/>
<path d="M38.5 45.5V42.5H36.5V45.5H38.5Z" fill="#BCC2C8"/>
<path d="M32.5 45.5V42.5H30.5V45.5H32.5Z" fill="#BCC2C8"/>
<path d="M35.5 55.5V47.5H33.5V55.5H35.5Z" fill="#BCC2C8"/>
<path d="M29.5 55.5V47.5H27.5V55.5H29.5Z" fill="#BCC2C8"/>
<path d="M35.5 45.5V42.5H33.5V45.5H35.5Z" fill="#BCC2C8"/>
<path d="M29.5 45.5V42.5H27.5V45.5H29.5Z" fill="#BCC2C8"/>
</g>
<defs>
<clipPath id="clip0_392_8909">
<rect width="48" height="66" fill="white"/>
</clipPath>
</defs>
</svg>
