<svg width="260" height="160" viewBox="0 0 260 160" fill="none" xmlns="http://www.w3.org/2000/svg">
<path d="M260 0H0V160H260V0Z" fill="#29007C"/>
<path d="M214.921 96.3386C214.921 93.8677 213.185 92.0583 210.794 92.0583C208.407 92.0583 206.669 93.8677 206.669 96.3386C206.669 98.8056 208.407 100.612 210.794 100.612C213.185 100.612 214.921 98.8026 214.921 96.3386ZM209.71 96.5582V99.3539H208.815V93.189H211.038C212.341 93.189 212.939 93.7634 212.939 94.8831C212.939 95.5728 212.477 96.1191 211.883 96.1983V96.2244C212.399 96.3076 212.589 96.7727 212.695 97.6237C212.776 98.1751 212.885 99.1314 213.079 99.3559H212.021C211.774 98.7765 211.799 97.9565 211.609 97.2699C211.453 96.7476 211.176 96.5572 210.584 96.5572H209.715V96.5602L209.71 96.5582ZM210.819 95.7612C211.688 95.7612 211.936 95.2941 211.936 94.8821C211.936 94.3949 211.688 94.01 210.819 94.01H209.71V95.7632H210.819V95.7612ZM205.685 96.3386C205.685 93.2943 208.079 91.2363 210.79 91.2363C213.509 91.2363 215.901 93.2943 215.901 96.3386C215.901 99.377 213.51 101.437 210.79 101.437C208.079 101.437 205.685 99.377 205.685 96.3386Z" fill="#FF5A00"/>
<path d="M187.991 100.548L182.105 93.8851L176.27 100.548H163.993L175.992 86.9414L163.993 73.3306H176.653L182.599 79.9425L188.32 73.3306H200.538L188.598 86.8843L200.703 100.548H187.991ZM140.419 100.548V57.6719H163.993V67.2289H150.405V73.3306H163.993V82.5268H150.405V90.9671H163.993V100.548H140.419Z" fill="#FF5A00"/>
<path d="M130.47 57.6719V75.2192H130.36C128.158 72.665 125.406 71.7749 122.215 71.7749C115.677 71.7749 110.751 76.2647 109.022 82.196C107.05 75.6592 101.964 71.6526 94.4242 71.6526C88.2997 71.6526 83.4653 74.4263 80.9398 78.9471V73.3296H68.2827V67.2299H82.0968V57.6739H57V100.548H68.2827V82.5268H79.5286C79.1822 83.9126 79.009 85.3367 79.0132 86.766C79.0132 95.7055 85.7812 101.988 94.4222 101.988C101.686 101.988 106.477 98.5424 109.008 92.2703H99.3381C98.0312 94.1578 97.0381 94.7151 94.4232 94.7151C91.3922 94.7151 88.7764 92.0447 88.7764 88.8831H108.466C109.32 95.9852 114.802 102.109 122.326 102.109C125.571 102.109 128.542 100.498 130.359 97.7765H130.468V100.554H140.416V57.6739H130.47V57.6719ZM89.0902 82.6551C89.7189 79.9305 91.8113 78.1502 94.4232 78.1502C97.2992 78.1502 99.2854 79.8754 99.8068 82.6551H89.0902ZM124.433 94.0235C120.767 94.0235 118.489 90.5762 118.489 86.9755C118.489 83.1262 120.471 79.4283 124.433 79.4283C128.543 79.4283 130.181 83.1282 130.181 86.9755C130.181 90.6223 128.447 94.0235 124.433 94.0235Z" fill="white"/>
</svg>
