<svg width="30" height="30" viewBox="0 0 30 30" fill="none" xmlns="http://www.w3.org/2000/svg">
<rect width="30" height="30" fill="white"/>
<path d="M20.2102 13.4186H19.8314L19.1688 13.0353C19.0659 13.037 18.9811 12.9556 18.9794 12.8527C18.9794 12.8499 18.9794 12.847 18.9794 12.8437V11.7887C18.9794 11.6609 19.0425 11.5331 19.1688 11.4053L27.127 6.42098L15.5679 0H14.8097L3.15676 6.42268L16.2305 14.0903C16.4199 14.0903 16.4199 14.282 16.4199 14.4736V25.5923C16.4199 25.7201 16.3568 25.8479 16.2305 25.9757L15.5679 26.359H15.1891L14.5265 25.9757C14.3371 25.9757 14.3371 25.784 14.3371 25.5923V15.7192C14.3393 15.6157 14.2574 15.5298 14.1545 15.5275C14.1522 15.5275 14.1499 15.5275 14.1477 15.5275L2.49414 8.72263V21.9496C2.53824 22.2668 2.66941 22.5659 2.87294 22.8129L14.6203 29.8083C14.8097 29.8083 14.8097 30 14.9991 30C15.1885 30 15.3779 30 15.3779 29.8083L27.1253 22.8118C27.3803 22.5992 27.5205 22.2798 27.5041 21.9485V8.72263L20.2096 13.4186H20.2102Z" fill="url(#paint0_linear_76786_30255)"/>
<defs>
<linearGradient id="paint0_linear_76786_30255" x1="2.16358" y1="15.1184" x2="27.6755" y2="15.1184" gradientUnits="userSpaceOnUse">
<stop stop-color="#006CAF"/>
<stop offset="0.33" stop-color="#0081C5"/>
<stop offset="0.73" stop-color="#0095DA"/>
<stop offset="1" stop-color="#009CE1"/>
</linearGradient>
</defs>
</svg>
