<svg width="260" height="160" viewBox="0 0 260 160" fill="none" xmlns="http://www.w3.org/2000/svg">
<path d="M260 0H0V160H260V0Z" fill="#004A8E"/>
<path d="M14 107H244V52H14V107Z" fill="#004A8E"/>
<path d="M106.991 79.8445C106.991 79.561 106.993 79.2812 107 79H14V80.479H107C106.991 80.2697 106.991 80.0515 106.991 79.8445Z" fill="white"/>
<path d="M152 79C152.01 79.2812 152.019 79.561 152.019 79.8445C152.019 80.0515 152.01 80.2697 152 80.479H245V79H152Z" fill="white"/>
<path d="M152 79.5045C152 91.9289 141.934 102 129.492 102C117.07 102 107 91.9289 107 79.5045C107 67.069 117.07 57 129.492 57C141.934 57 152 67.069 152 79.5045Z" fill="#D3200C"/>
<path d="M121.938 82.1738L123.537 80.6019L141.403 79.8108L142.202 79.0266H124.6L115 68L147 78.4997L136.338 89H115L117.138 86.8936L134.998 86.1114L135.79 85.3203H118.731L120.335 83.7416L138.2 82.9574L139 82.1738H121.938Z" fill="white"/>
<path d="M160 62H162.27C164.221 62 166 62.6341 166 65.0273C166 67.3617 164.47 68.2035 162.558 68.2035H161.797V72H160V62ZM161.797 66.6289H162.421C163.319 66.6289 164.129 66.3042 164.129 65.1442C164.129 63.9792 163.342 63.5798 162.421 63.5798H161.797V66.6289Z" fill="white"/>
<path d="M175.505 62C178.388 62 180 64.0461 180 66.9709C180 69.8928 178.416 72 175.505 72C172.549 72 171 69.9364 171 66.9709C171 64.0089 172.573 62 175.505 62ZM175.505 70.4793C177.376 70.4793 178.08 68.7163 178.08 66.9709C178.08 65.2711 177.33 63.5256 175.505 63.5256C173.676 63.5256 172.922 65.2711 172.922 66.9709C172.922 68.7163 173.616 70.4793 175.505 70.4793Z" fill="white"/>
<path d="M190.29 63.94C189.707 63.678 189.047 63.5256 188.396 63.5256C187.765 63.5256 186.939 63.8122 186.939 64.8651C186.939 66.5417 191 65.8351 191 69.0787C191 71.2 189.396 72 187.525 72C186.512 72 186.059 71.863 185.142 71.6298L185.321 69.8788C185.962 70.2461 186.682 70.4793 187.415 70.4793C188.125 70.4793 189.061 70.1014 189.061 69.2298C189.061 67.3881 185 68.1544 185 64.9473C185 62.7881 186.603 62 188.236 62C189.043 62 189.781 62.1103 190.46 62.3449L190.29 63.94Z" fill="white"/>
<path d="M197.594 63.5798H195V62H202V63.5798H199.401V72H197.594V63.5798Z" fill="white"/>
<path d="M207 62H212.964V63.5798H209.021V66.0376H212.62V67.6174H209.021V70.4268H213V72H207V62Z" fill="white"/>
<path d="M223.285 63.94C222.704 63.678 222.043 63.5256 221.405 63.5256C220.76 63.5256 219.935 63.8122 219.935 64.8651C219.935 66.5417 224 65.8351 224 69.0787C224 71.2 222.392 72 220.516 72C219.508 72 219.059 71.863 218.147 71.6298L218.316 69.8788C218.948 70.2461 219.688 70.4793 220.407 70.4793C221.113 70.4793 222.057 70.1014 222.057 69.2298C222.057 67.3881 218 68.1544 218 64.9473C218 62.7881 219.61 62 221.237 62C222.039 62 222.787 62.1103 223.46 62.3449L223.285 63.94Z" fill="white"/>
<path d="M167 97.6938C166.348 97.8567 165.638 98 164.95 98C162.033 98 160 96.4358 160 93.1612C160 89.8508 161.886 88 164.95 88C165.549 88 166.338 88.118 166.992 88.3983L166.867 90.032C166.187 89.619 165.553 89.5228 164.909 89.5228C163.05 89.5228 161.886 91.0456 161.886 93.0277C161.886 94.9895 163.02 96.4744 164.95 96.4744C165.661 96.4744 166.514 96.3065 166.938 96.0733L167 97.6938Z" fill="white"/>
<path d="M174.85 88H177.112L181 98H178.794L177.945 95.7122H173.923L173.06 98H171L174.85 88ZM175.959 90.002H175.934L174.497 94.1399H177.381L175.959 90.002Z" fill="white"/>
<path d="M185 88H187.399L191.096 95.4853H191.125V88H193V98H190.611L186.9 90.5264H186.861V98H185V88Z" fill="white"/>
<path d="M200.864 88H203.106L207 98H204.793L203.953 95.7122H199.927L199.059 98H197L200.864 88ZM201.962 90.002H201.928L200.492 94.1399H203.4L201.962 90.002Z" fill="white"/>
<path d="M212 88H214.576C217.456 88 220 89.0268 220 92.9996C220 96.9732 217.456 98 214.576 98H212V88ZM213.879 96.4277H214.936C216.507 96.4277 218.036 95.1784 218.036 92.9996C218.036 90.818 216.507 89.5723 214.936 89.5723H213.879V96.4277Z" fill="white"/>
<path d="M227.856 88H230.111L234 98H231.79L230.943 95.7122H226.929L226.063 98H224L227.856 88ZM228.954 90.002H228.929L227.494 94.1399H230.389L228.954 90.002Z" fill="white"/>
<path d="M33 71.6973C32.3378 71.863 31.631 72 30.9466 72C28.0259 72 26 70.4372 26 67.1668C26 63.8585 27.8818 62 30.9466 62C31.5446 62 32.3286 62.1278 32.9777 62.399L32.8572 64.0362C32.1747 63.626 31.5551 63.5256 30.9105 63.5256C29.0425 63.5256 27.8818 65.0442 27.8818 67.0235C27.8818 68.9938 29.0209 70.4793 30.9466 70.4793C31.6533 70.4793 32.4963 70.3129 32.926 70.0726L33 71.6973Z" fill="white"/>
<path d="M40.8646 62H43.1131L47 72H44.8069L43.9539 69.7114H39.928L39.0598 72H37L40.8646 62ZM41.9604 64.0097H41.9409L40.4964 68.1323H43.3948L41.9604 64.0097Z" fill="white"/>
<path d="M51 62H53.3909L57.11 69.4789H57.1334V62H59V72H56.6204L52.8928 64.5218H52.8617V72H51V62Z" fill="white"/>
<path d="M66.8633 62H69.1122L73 72H70.7986L69.9378 69.7114H65.9218L65.0588 72H63L66.8633 62ZM67.9618 64.0097H67.928L66.4908 68.1323H69.3867L67.9618 64.0097Z" fill="white"/>
<path d="M78 62H80.5719C83.4486 62 86 63.0357 86 67.0022C86 70.9708 83.4486 72 80.5719 72H78V62ZM79.8832 70.4268H80.9388C82.5118 70.4268 84.028 69.1855 84.028 67.0022C84.028 64.8261 82.5118 63.5798 80.9388 63.5798H79.8832V70.4268Z" fill="white"/>
<path d="M93.8641 62H96.1078L100 72H97.8024L96.9515 69.7114H92.9318L92.0643 72H90L93.8641 62ZM94.9629 64.0097H94.9355L93.4967 68.1323H96.3974L94.9629 64.0097Z" fill="white"/>
<path d="M26 88H28.2633C30.215 88 32 88.629 32 91.0209C32 93.3574 30.472 94.2097 28.5451 94.2097H27.7915V98H26V88ZM27.7915 92.6258H28.4163C29.3111 92.6258 30.1239 92.2993 30.1239 91.1387C30.1239 89.978 29.3443 89.5723 28.4163 89.5723H27.7915V92.6258Z" fill="white"/>
<path d="M41.4917 88C44.3777 88 46 90.0454 46 92.9666C46 95.8942 44.4204 98 41.4917 98C38.5488 98 37 95.9307 37 92.9666C37 90.0004 38.5836 88 41.4917 88ZM41.4917 96.4744C43.3823 96.4744 44.0773 94.7233 44.0773 92.9666C44.0773 91.2668 43.3302 89.5228 41.4917 89.5228C39.6671 89.5228 38.92 91.2668 38.92 92.9666C38.92 94.7233 39.613 96.4744 41.4917 96.4744Z" fill="white"/>
<path d="M56.2811 89.9344C55.6949 89.6682 55.0527 89.5228 54.4005 89.5228C53.761 89.5228 52.9432 89.8108 52.9432 90.87C52.9432 92.5396 57 91.8386 57 95.0738C57 97.1944 55.3967 98 53.5228 98C52.5192 98 52.0635 97.8567 51.1541 97.6249L51.319 95.8788C51.9672 96.2398 52.6915 96.4744 53.4171 96.4744C54.1232 96.4744 55.0642 96.0972 55.0642 95.2241C55.0642 93.3888 51 94.1516 51 90.9494C51 88.7811 52.604 88 54.2423 88C55.0352 88 55.7837 88.1061 56.4595 88.3456L56.2811 89.9344Z" fill="white"/>
<path d="M63.6005 89.5723H61V88H68V89.5723H65.4087V98H63.6005V89.5723Z" fill="white"/>
</svg>
