<svg width="140" height="72" viewBox="0 0 140 72" fill="none" xmlns="http://www.w3.org/2000/svg">
<g clip-path="url(#clip0)">
<path d="M30.0818 23.1045C30.0589 22.8987 29.8759 22.8072 29.7386 22.8072C29.6014 22.8072 26.6047 22.5784 26.6047 22.5784C26.6047 22.5784 24.523 20.4967 24.2713 20.2908C24.0426 20.0621 23.6079 20.1307 23.4249 20.1764C23.402 20.1764 22.9674 20.3137 22.2582 20.5424C21.5491 18.5065 20.3367 16.6536 18.1635 16.6536H17.9576C17.3628 15.8758 16.585 15.5098 15.9445 15.5098C10.9118 15.5098 8.48701 21.8006 7.7321 25.0032C5.76478 25.6209 4.36936 26.0326 4.20923 26.1013C3.11119 26.4444 3.08831 26.4673 2.95106 27.4967C2.83668 28.2745 -0.0227966 50.3954 -0.0227966 50.3954L22.2354 54.5588L34.3138 51.9509C34.3367 51.9052 30.1047 23.3104 30.0818 23.1045ZM21.023 20.8627C20.4739 21.0228 19.8105 21.2287 19.1471 21.4575V21.0457C19.1471 19.8104 18.987 18.8039 18.6896 18.0032C19.8334 18.1405 20.5426 19.3987 21.023 20.8627ZM17.2942 18.2549C17.5916 19.0326 17.7975 20.1307 17.7975 21.6405V21.8692C16.5622 22.2581 15.2582 22.647 13.9086 23.0817C14.6635 20.1993 16.1047 18.781 17.2942 18.2549ZM15.8301 16.8366C16.0589 16.8366 16.2877 16.9281 16.4707 17.0653C14.8465 17.8202 13.1308 19.7189 12.4216 23.562C11.3465 23.9052 10.3171 24.2026 9.33341 24.5228C10.1569 21.5947 12.2158 16.8366 15.8301 16.8366Z" fill="#95BF47"/>
<path d="M29.7386 22.7614C29.6013 22.7614 26.6046 22.5326 26.6046 22.5326C26.6046 22.5326 24.5229 20.4509 24.2712 20.245C24.1797 20.1535 24.0654 20.1078 23.9739 20.1078L22.3039 54.5588L34.3824 51.9509C34.3824 51.9509 30.1503 23.3104 30.1275 23.1045C30.036 22.8986 29.8758 22.8071 29.7386 22.7614Z" fill="#5E8E3E"/>
<path d="M18.1633 29.4412L16.6993 33.8562C16.6993 33.8562 15.3725 33.1471 13.794 33.1471C11.4378 33.1471 11.3235 34.634 11.3235 35C11.3235 37.0131 16.5849 37.7909 16.5849 42.5261C16.5849 46.2549 14.2287 48.6569 11.0489 48.6569C7.20581 48.6569 5.28424 46.2778 5.28424 46.2778L6.31365 42.8922C6.31365 42.8922 8.32672 44.6307 10.0195 44.6307C11.1404 44.6307 11.598 43.7614 11.598 43.1209C11.598 40.4902 7.29731 40.3758 7.29731 36.0294C7.29731 32.3922 9.90515 28.8693 15.1895 28.8693C17.1568 28.8464 18.1633 29.4412 18.1633 29.4412Z" fill="white"/>
<path d="M48.4052 37.7451C47.1927 37.1046 46.5751 36.5327 46.5751 35.7778C46.5751 34.817 47.4444 34.1994 48.794 34.1994C50.3725 34.1994 51.7679 34.8399 51.7679 34.8399L52.8659 31.4771C52.8659 31.4771 51.8594 30.6994 48.8855 30.6994C44.745 30.6994 41.8627 33.0784 41.8627 36.4183C41.8627 38.317 43.2123 39.7582 44.9967 40.7876C46.4607 41.5883 46.964 42.183 46.964 43.0523C46.964 43.9445 46.2319 44.6765 44.8823 44.6765C42.8921 44.6765 40.9934 43.6471 40.9934 43.6471L39.8267 47.0098C39.8267 47.0098 41.5653 48.1765 44.4934 48.1765C48.7483 48.1765 51.8365 46.0719 51.8365 42.2974C51.7908 40.2386 50.2581 38.8203 48.4052 37.7451ZM65.379 30.6536C63.2744 30.6536 61.6274 31.6601 60.3692 33.1699L60.3235 33.1471L62.1535 23.6307H57.4182L52.7973 47.8791H57.5326L59.111 39.5981C59.7287 36.4641 61.3529 34.5196 62.8627 34.5196C63.9378 34.5196 64.3496 35.2516 64.3496 36.2811C64.3496 36.9216 64.3038 37.7451 64.1437 38.3856L62.3594 47.8791H67.0947L68.9476 38.0882C69.1535 37.0588 69.2908 35.8235 69.2908 34.9771C69.2679 32.2549 67.8725 30.6536 65.379 30.6536ZM79.9967 30.6536C74.2777 30.6536 70.5032 35.8007 70.5032 41.5425C70.5032 45.2026 72.7679 48.1765 77.0228 48.1765C82.6274 48.1765 86.4019 43.1667 86.4019 37.2876C86.4248 33.8791 84.4575 30.6536 79.9967 30.6536ZM77.6633 44.5621C76.0391 44.5621 75.3757 43.1896 75.3757 41.451C75.3757 38.7288 76.7712 34.3137 79.3561 34.3137C81.0261 34.3137 81.598 35.7778 81.598 37.1732C81.598 40.0784 80.1568 44.5621 77.6633 44.5621ZM98.549 30.6536C95.3463 30.6536 93.5392 33.4902 93.5392 33.4902H93.4934L93.7679 30.951H89.5588C89.3529 32.6667 88.964 35.2974 88.598 37.2418L85.3267 54.6046H90.062L91.3888 47.5817H91.5032C91.5032 47.5817 92.4869 48.1994 94.2712 48.1994C99.8529 48.1994 103.49 42.4804 103.49 36.7157C103.467 33.5131 102.026 30.6536 98.549 30.6536ZM94.0195 44.6079C92.7842 44.6079 92.0522 43.8987 92.0522 43.8987L92.83 39.4837C93.379 36.5098 94.9346 34.5654 96.5816 34.5654C98.0457 34.5654 98.4803 35.915 98.4803 37.1732C98.5032 40.2386 96.6731 44.6079 94.0195 44.6079ZM110.239 23.8595C108.729 23.8595 107.516 25.0719 107.516 26.6046C107.516 28 108.408 28.9837 109.758 28.9837H109.804C111.291 28.9837 112.549 27.9771 112.572 26.2386C112.595 24.8432 111.657 23.8595 110.239 23.8595ZM103.605 47.8562H108.34L111.542 31.0196H106.784L103.605 47.8562ZM123.621 30.9967H120.327L120.487 30.219C120.761 28.5948 121.722 27.1765 123.323 27.1765C124.17 27.1765 124.833 27.4281 124.833 27.4281L125.748 23.6994C125.748 23.6994 124.948 23.2876 123.163 23.2876C121.493 23.2876 119.801 23.768 118.52 24.866C116.895 26.2386 116.14 28.2288 115.774 30.2418L115.637 31.0196H113.418L112.709 34.6111H114.928L112.412 47.8791H117.147L119.663 34.6111H122.935L123.621 30.9967ZM135.036 31.0196C135.036 31.0196 132.062 38.5 130.758 42.5948H130.712C130.621 41.268 129.546 31.0196 129.546 31.0196H124.559L127.418 46.4379C127.464 46.7811 127.441 46.9869 127.304 47.2157C126.755 48.2909 125.817 49.3203 124.719 50.0752C123.827 50.7157 122.82 51.1503 122.02 51.4249L123.346 55.451C124.307 55.2451 126.32 54.4445 127.99 52.866C130.14 50.853 132.154 47.719 134.212 43.4641L140 30.9967H135.036V31.0196Z" fill="black"/>
</g>
<defs>
<clipPath id="clip0">
<rect y="14" width="140" height="43.9216" fill="white"/>
</clipPath>
</defs>
</svg>
