<svg width="260" height="160" viewBox="0 0 260 160" fill="none" xmlns="http://www.w3.org/2000/svg">
<path d="M260 0H0V160H260V0Z" fill="black"/>
<path fill-rule="evenodd" clip-rule="evenodd" d="M44.9909 106.315V111.985C44.9909 113.336 44.9919 113.302 46.2988 113.345C47.8732 113.396 49.3875 113.263 50.7645 112.375C52.5902 111.199 53.6328 109.493 53.8372 107.346C54.0322 105.296 53.718 103.336 52.2944 101.689C51.3641 100.614 50.2508 99.9149 48.9018 99.5589C47.7741 99.2612 46.6258 99.3553 45.4824 99.3206C45.0788 99.3083 44.9779 99.4322 44.9817 99.835C45.0011 101.995 44.9909 104.155 44.9909 106.315ZM41.0107 106.363C41.0107 103.164 41.0203 99.9636 41 96.7639C40.9973 96.3077 41.1171 96.1891 41.5619 96.1941C43.7394 96.218 45.9208 96.1272 48.0942 96.2258C50.455 96.3329 52.7426 96.8611 54.6991 98.3134C56.3605 99.5467 57.3029 101.267 57.7367 103.305C57.9965 104.526 58.1245 105.755 58.0596 106.993C57.9211 109.635 57.2837 112.084 55.2541 113.946C54.0193 115.079 52.5381 115.731 50.9543 116.097C47.7829 116.831 44.5484 116.518 41.3372 116.582C40.9117 116.591 41.0135 116.307 41.013 116.078C41.0094 113.765 41.0107 111.452 41.0107 109.139V106.363Z" fill="white"/>
<path fill-rule="evenodd" clip-rule="evenodd" d="M131.984 103.577C132.693 102.736 133.353 102.082 134.233 101.722C136.308 100.873 138.29 100.84 140.088 102.416C140.944 103.167 141.332 104.171 141.529 105.259C141.713 106.272 141.775 107.299 141.769 108.334C141.754 110.879 141.746 113.425 141.779 115.97C141.786 116.505 141.624 116.608 141.146 116.588C140.238 116.55 139.326 116.552 138.418 116.588C137.988 116.605 137.885 116.474 137.888 116.044C137.907 113.209 137.906 110.374 137.892 107.54C137.888 106.839 137.774 106.142 137.512 105.488C137.108 104.478 135.883 103.951 134.735 104.226C133.096 104.617 132.297 106.048 132.115 107.646C131.802 110.385 132.034 113.143 132 115.893C131.993 116.434 131.896 116.626 131.328 116.592C130.422 116.537 129.51 116.564 128.601 116.584C128.256 116.591 128.108 116.529 128.109 116.121C128.122 109.121 128.12 102.121 128.112 95.1209C128.112 94.7279 128.222 94.5676 128.629 94.5771C129.595 94.5996 130.562 94.6033 131.527 94.5749C131.914 94.5636 131.993 94.7014 131.992 95.0661C131.978 97.8426 131.984 100.619 131.984 103.577Z" fill="white"/>
<path fill-rule="evenodd" clip-rule="evenodd" d="M169.966 102.437C169.966 103.343 169.978 104.25 169.96 105.156C169.953 105.474 170.031 105.602 170.366 105.588C170.991 105.562 171.62 105.623 172.241 105.57C173.024 105.502 173.76 105.279 174.386 104.737C175.207 104.028 175.263 103.093 175.192 102.121C175.121 101.155 174.709 100.392 173.843 99.9078C172.704 99.2712 171.467 99.3274 170.232 99.3277C169.926 99.3277 169.967 99.5269 169.967 99.7169C169.966 100.624 169.966 101.53 169.966 102.437ZM165.986 106.335C165.986 103.152 165.997 99.9692 165.974 96.7862C165.97 96.2918 166.111 96.1868 166.573 96.1933C168.506 96.2207 170.442 96.138 172.371 96.2235C174.342 96.3106 176.255 96.7197 177.8 98.1111C178.797 99.009 179.267 100.219 179.383 101.524C179.504 102.874 179.363 104.205 178.736 105.465C178.069 106.805 177.003 107.607 175.676 108.131C174.02 108.784 172.286 108.865 170.542 108.81C170.061 108.795 169.949 108.938 169.954 109.415C169.981 111.633 169.956 113.852 169.975 116.07C169.978 116.47 169.883 116.601 169.476 116.587C168.53 116.556 167.58 116.551 166.634 116.588C166.139 116.608 165.966 116.496 165.971 115.942C166.001 112.74 165.986 109.538 165.986 106.335Z" fill="white"/>
<mask id="mask0" mask-type="alpha" maskUnits="userSpaceOnUse" x="179" y="101" width="16" height="16">
<path d="M179.405 101.158H194.882V116.943H179.405V101.158Z" fill="white"/>
</mask>
<g mask="url(#mask0)">
<path fill-rule="evenodd" clip-rule="evenodd" d="M190.902 108.6C190.943 108.093 190.791 107.377 190.55 106.671C190.045 105.193 188.765 104.215 187.347 104.187C185.405 104.148 184.351 105.158 183.761 106.666C183.16 108.203 183.32 109.77 183.765 111.292C184.102 112.445 184.799 113.37 186.009 113.749C187.556 114.234 189.527 113.714 190.316 111.884C190.738 110.905 190.879 109.893 190.902 108.6ZM194.87 109.093C194.888 110.701 194.537 112.2 193.68 113.574C192.631 115.256 191.127 116.262 189.248 116.682C186.586 117.277 184.083 116.895 181.923 115.12C180.719 114.131 179.971 112.772 179.65 111.234C179.129 108.748 179.394 106.379 180.871 104.234C182.054 102.516 183.718 101.647 185.698 101.296C187.166 101.035 188.612 101.14 190.004 101.651C192.752 102.66 194.313 104.686 194.751 107.613C194.787 107.856 194.909 108.079 194.876 108.341C194.846 108.588 194.87 108.842 194.87 109.093Z" fill="white"/>
</g>
<path fill-rule="evenodd" clip-rule="evenodd" d="M147.287 107.549H152.821C153.965 107.549 153.986 107.543 153.694 106.432C153.398 105.304 152.765 104.435 151.611 104.116C150.419 103.788 149.333 104.046 148.403 104.9C147.647 105.594 147.388 106.508 147.287 107.549ZM156.433 112.595C156.433 113.603 156.418 114.509 156.443 115.414C156.45 115.686 156.317 115.783 156.126 115.875C155.026 116.405 153.881 116.701 152.658 116.838C151.217 116.998 149.824 116.916 148.451 116.499C145.998 115.754 144.482 114.099 143.906 111.551C143.395 109.287 143.53 107.085 144.472 104.954C145.321 103.031 146.748 101.813 148.78 101.382C150.858 100.941 152.87 101.084 154.679 102.337C156.064 103.296 156.748 104.73 157.114 106.347C157.363 107.446 157.472 108.557 157.471 109.686C157.47 110.13 157.344 110.223 156.929 110.221C153.955 110.203 150.982 110.211 148.008 110.211C147.315 110.211 147.172 110.37 147.357 111.047C147.766 112.545 148.669 113.581 150.198 113.907C151.977 114.286 153.677 113.95 155.302 113.159C155.651 112.989 155.997 112.813 156.433 112.595Z" fill="white"/>
<path fill-rule="evenodd" clip-rule="evenodd" d="M66.5991 107.549C67.4687 107.549 68.3386 107.532 69.2077 107.555C69.6644 107.568 69.9038 107.602 69.808 106.93C69.4867 104.675 67.7329 103.541 65.6298 104.173C64.0678 104.642 63.5861 105.89 63.3028 107.199C63.2416 107.482 63.3837 107.557 63.6501 107.553C64.6329 107.54 65.616 107.548 66.5991 107.549ZM72.3949 112.596C72.3949 113.637 72.39 114.594 72.3981 115.55C72.4005 115.839 72.1763 115.894 72.0005 115.968C70.9527 116.412 69.8731 116.689 68.7351 116.834C67.2568 117.022 65.8177 116.931 64.4155 116.492C61.654 115.627 60.1808 113.637 59.7712 110.769C59.5197 109.008 59.6092 107.279 60.223 105.602C61.1037 103.195 62.6917 101.657 65.2755 101.287C66.9672 101.045 68.566 101.217 70.1198 101.981C71.4365 102.628 72.2139 103.722 72.7243 105.037C73.1769 106.203 73.419 107.429 73.4212 108.694C73.4218 109.037 73.5415 109.362 73.5487 109.712C73.557 110.123 73.4318 110.222 73.0377 110.22C70.2153 110.203 67.3926 110.211 64.5701 110.211C64.2857 110.211 63.9977 110.242 63.7184 110.204C63.266 110.143 63.2523 110.422 63.3065 110.726C63.5976 112.361 64.6487 113.573 66.1808 113.907C67.8591 114.273 69.479 113.979 71.0329 113.275C71.4691 113.078 71.8912 112.848 72.3949 112.596Z" fill="white"/>
<path fill-rule="evenodd" clip-rule="evenodd" d="M85.2468 114.592C84.4874 115.385 83.6611 116.005 82.6969 116.433C80.7473 117.299 78.092 117.063 76.645 115.405C75.9821 114.645 75.5962 113.74 75.4801 112.757C75.1878 110.286 75.4118 107.8 75.3575 105.321C75.3334 104.223 75.373 103.123 75.3434 102.025C75.3322 101.607 75.4649 101.508 75.8543 101.52C76.7625 101.549 77.6731 101.553 78.581 101.519C79.0036 101.503 79.1203 101.62 79.1166 102.058C79.0951 104.68 79.1072 107.302 79.1051 109.924C79.1047 110.592 79.2214 111.243 79.3278 111.899C79.6675 113.99 81.8342 114.349 83.1908 113.506C84.2738 112.832 84.6623 111.717 84.9112 110.52C85.0896 109.662 85.0078 108.801 85.0145 107.941C85.0298 105.955 85.0264 103.969 85.0126 101.984C85.0101 101.643 85.0796 101.511 85.4465 101.52C86.4499 101.547 87.4545 101.546 88.4578 101.52C88.8237 101.511 88.8931 101.642 88.8924 101.983C88.8823 106.706 88.8829 111.43 88.8915 116.154C88.8921 116.471 88.8186 116.592 88.4849 116.584C87.5382 116.563 86.5905 116.562 85.644 116.584C85.3046 116.592 85.2282 116.463 85.2411 116.15C85.2622 115.632 85.2468 115.112 85.2468 114.592Z" fill="white"/>
<path fill-rule="evenodd" clip-rule="evenodd" d="M196.971 113.146C198.298 113.792 199.672 114.129 201.147 114.039C202.218 113.974 202.974 113.456 203.187 112.467C203.353 111.696 202.937 111.16 202.427 110.882C201.651 110.46 200.805 110.248 199.977 109.978C198.89 109.624 197.796 109.251 197.161 108.191C195.939 106.15 196.437 102.883 199.192 101.771C200.717 101.156 202.298 101.046 203.925 101.279C204.625 101.379 205.318 101.508 206.014 101.617C206.446 101.685 206.526 101.896 206.463 102.232C206.315 103.017 206.445 103.833 206.197 104.631C205.247 104.196 204.225 104.072 203.214 103.984C202.483 103.92 201.727 103.997 201.095 104.506C200.203 105.222 200.352 106.51 201.571 106.958C202.579 107.329 203.616 107.621 204.611 108.024C206.038 108.601 206.93 109.623 207.169 111.243C207.391 112.739 207.043 114.045 206.081 115.131C205.309 116.004 204.245 116.437 203.114 116.698C201.009 117.185 198.963 116.796 196.911 116.353C196.599 116.285 196.67 116.075 196.698 115.923C196.861 115.021 196.722 114.092 196.971 113.146Z" fill="white"/>
<path fill-rule="evenodd" clip-rule="evenodd" d="M103.086 113.143C103.823 113.35 104.447 113.747 105.161 113.868C106.215 114.048 107.266 114.207 108.313 113.81C109.073 113.521 109.412 113.004 109.484 112.258C109.548 111.597 108.905 110.897 108.327 110.686C107.51 110.387 106.671 110.15 105.852 109.855C104.897 109.511 103.999 109.084 103.405 108.169C102.177 106.274 102.74 103.286 104.803 102.11C106.473 101.159 108.262 101.046 110.125 101.267C110.886 101.358 111.625 101.542 112.38 101.638C112.631 101.67 112.803 101.747 112.759 102.016C112.616 102.878 112.569 103.749 112.511 104.681C111.518 104.225 110.479 104.147 109.461 103.966C108.617 103.815 107.345 104.277 106.987 104.934C106.598 105.649 106.654 106.261 107.458 106.745C108.12 107.142 108.864 107.317 109.587 107.55C110.657 107.895 111.686 108.303 112.489 109.164C113.101 109.819 113.377 110.6 113.443 111.465C113.68 114.55 111.897 116.071 109.426 116.681C107.819 117.078 106.197 116.978 104.589 116.637C104.19 116.553 103.787 116.468 103.39 116.402C102.984 116.333 102.996 116.136 102.979 115.83C102.93 114.943 103.194 114.078 103.086 113.143Z" fill="white"/>
<path fill-rule="evenodd" clip-rule="evenodd" d="M100.94 113.582V115.317C100.94 115.452 100.932 115.588 100.942 115.722C101.005 116.561 101.016 116.623 100.245 116.749C98.5318 117.031 96.8176 117.143 95.2763 116.078C94.1022 115.266 93.5931 114.054 93.5639 112.677C93.5091 110.095 93.5381 107.511 93.5573 104.928C93.5609 104.452 93.4314 104.269 92.9478 104.299C92.3441 104.337 91.7358 104.295 91.1304 104.313C90.8301 104.323 90.6849 104.261 90.6981 103.909C90.7234 103.236 90.7163 102.56 90.7004 101.885C90.694 101.606 90.7902 101.519 91.0589 101.525C91.7403 101.54 92.4229 101.513 93.1039 101.537C93.4428 101.549 93.5714 101.463 93.5566 101.093C93.5276 100.361 93.5553 99.6279 93.5446 98.8953C93.5407 98.6095 93.6117 98.4698 93.9219 98.3767C94.9323 98.0736 95.9254 97.7114 96.9258 97.373C97.232 97.2695 97.3173 97.369 97.31 97.7056C97.2857 98.8233 97.3167 99.9422 97.2921 101.06C97.2837 101.444 97.4017 101.549 97.7692 101.538C98.6206 101.512 99.4738 101.54 100.326 101.524C100.614 101.519 100.728 101.596 100.718 101.91C100.697 102.584 100.697 103.26 100.719 103.934C100.729 104.255 100.601 104.318 100.32 104.313C99.4872 104.299 98.6532 104.324 97.8204 104.301C97.4243 104.291 97.2917 104.432 97.2941 104.836C97.3083 107.072 97.2944 109.308 97.3075 111.545C97.3096 111.901 97.3519 112.273 97.4567 112.611C97.7794 113.653 98.6962 114.143 99.7588 113.881C100.133 113.789 100.506 113.692 100.94 113.582Z" fill="white"/>
<path fill-rule="evenodd" clip-rule="evenodd" d="M218.864 113.556C218.864 114.499 218.855 115.366 218.87 116.232C218.874 116.463 218.798 116.613 218.592 116.654C216.716 117.02 214.852 117.224 213.149 116.034C212.034 115.256 211.516 114.11 211.488 112.792C211.434 110.171 211.462 107.547 211.482 104.925C211.485 104.448 211.353 104.268 210.871 104.298C210.267 104.335 209.659 104.293 209.053 104.313C208.751 104.322 208.609 104.255 208.622 103.906C208.647 103.232 208.641 102.557 208.624 101.882C208.618 101.6 208.719 101.518 208.985 101.524C209.629 101.539 210.274 101.509 210.917 101.536C211.332 101.553 211.498 101.418 211.48 100.979C211.451 100.286 211.479 99.5906 211.469 98.8967C211.465 98.6128 211.531 98.47 211.844 98.3764C212.855 98.0738 213.848 97.7106 214.848 97.3724C215.15 97.2701 215.242 97.3626 215.234 97.7027C215.21 98.8207 215.241 99.9398 215.216 101.058C215.208 101.44 215.323 101.548 215.693 101.537C216.544 101.511 217.397 101.539 218.25 101.523C218.538 101.518 218.653 101.594 218.643 101.909C218.622 102.583 218.621 103.259 218.643 103.933C218.653 104.254 218.525 104.317 218.244 104.312C217.411 104.298 216.577 104.323 215.744 104.3C215.347 104.289 215.216 104.433 215.218 104.836C215.232 107.111 215.214 109.386 215.23 111.662C215.238 112.946 215.821 113.788 216.77 113.905C217.465 113.991 218.135 113.802 218.864 113.556Z" fill="white"/>
<path fill-rule="evenodd" clip-rule="evenodd" d="M125.983 113.184C125.854 114.212 126.122 115.117 126.077 116.04C126.064 116.288 126.051 116.451 125.749 116.517C123.282 117.056 120.846 117.263 118.497 116.011C116.765 115.087 115.773 113.593 115.332 111.713C114.697 109.006 114.823 106.376 116.407 103.991C117.451 102.42 118.968 101.593 120.794 101.292C122.356 101.036 123.887 101.216 125.416 101.53C125.64 101.577 125.879 101.618 125.841 101.938C125.753 102.69 125.653 103.441 125.562 104.193C125.514 104.589 125.408 104.683 124.967 104.531C123.749 104.112 122.495 103.937 121.271 104.547C119.888 105.236 119.202 106.46 119.048 107.939C118.944 108.951 118.929 109.993 119.24 111.01C119.89 113.137 121.615 114.19 123.71 113.852C124.463 113.731 125.186 113.532 125.983 113.184Z" fill="white"/>
<mask id="mask1" mask-type="alpha" maskUnits="userSpaceOnUse" x="104" y="41" width="52" height="33">
<path d="M104.745 41.1484H155.124V73.4984H104.745V41.1484Z" fill="white"/>
</mask>
<g mask="url(#mask1)">
<path fill-rule="evenodd" clip-rule="evenodd" d="M117.247 55.7503C117.277 61.2863 121.569 65.5082 126.874 65.4393C132.4 65.3676 136.426 61.1909 136.419 55.6905C136.411 50.2602 132.305 46.1699 126.979 46.0475C121.477 45.921 117.193 50.4832 117.247 55.7503ZM112.571 58.1386C111.809 52.9856 113.131 48.5158 116.9 44.971C119.939 42.1133 123.651 40.9087 127.754 41.1876C134.888 41.6727 140.842 46.8233 141.149 55.2528C141.543 54.6407 141.628 53.9921 141.797 53.3876C142.313 51.534 142.623 49.6322 142.93 47.7346C143.111 46.6116 143.184 45.4699 143.281 44.3345C143.308 44.0189 143.309 43.9247 143.698 44.0265C147.354 44.9854 151.017 45.9201 154.689 46.8182C155.13 46.9262 155.153 47.1435 155.109 47.457C154.886 49.0269 154.699 50.602 154.324 52.1473C153.353 56.143 151.652 59.7872 149.219 63.0662C148.441 64.1143 147.601 65.1282 146.658 66.0312C144.002 68.5749 141.012 70.5859 137.558 71.8473C135.362 72.6494 133.113 73.1481 130.786 73.3708C129.291 73.5136 127.795 73.5377 126.317 73.4376C122.972 73.2105 119.755 72.4013 116.791 70.739C115.37 69.942 114.053 69.0002 112.834 67.8934C110.397 65.6801 108.585 63.0204 107.244 60.0179C106.251 57.7956 105.57 55.4737 105.179 53.0561C104.911 51.3959 104.782 49.7303 104.746 48.0546C104.735 47.5039 104.819 46.9515 104.851 46.3995C104.86 46.2469 104.901 46.1899 105.067 46.1396C106.574 45.6829 108.079 45.2173 109.574 44.7205C109.896 44.6134 109.999 44.6472 109.961 44.9866C109.815 46.31 109.71 47.6211 109.823 48.9688C109.94 50.3736 110.097 51.7616 110.432 53.1235C110.862 54.8687 111.509 56.5312 112.432 58.0745C112.447 58.1002 112.496 58.1053 112.571 58.1386Z" fill="white"/>
</g>
<path fill-rule="evenodd" clip-rule="evenodd" d="M118.859 74.7384C116.757 77.1525 114.525 79.2592 112.397 81.4685C112.274 81.5959 112.16 81.6882 111.965 81.6876C109.889 81.6805 107.813 81.6832 105.65 81.6832C106.055 81.2063 106.381 80.7744 106.755 80.3903C108.487 78.6119 110.236 76.8513 111.966 75.0715C112.196 74.835 112.418 74.7279 112.75 74.7305C114.75 74.7466 116.75 74.7384 118.859 74.7384Z" fill="white"/>
<path fill-rule="evenodd" clip-rule="evenodd" d="M142.864 81.6838C140.662 81.6838 138.584 81.682 136.505 81.6871C136.336 81.6875 136.226 81.6169 136.115 81.5026C133.976 79.3192 131.835 77.1385 129.695 74.9555C129.672 74.9317 129.669 74.8865 129.655 74.8469C129.747 74.6586 129.92 74.744 130.053 74.7435C131.966 74.7371 133.878 74.7468 135.79 74.7311C136.086 74.7287 136.28 74.8297 136.477 75.033C137.541 76.1302 138.664 77.1733 139.673 78.3195C140.669 79.4497 141.768 80.4723 142.864 81.6838Z" fill="white"/>
<path fill-rule="evenodd" clip-rule="evenodd" d="M138.596 74.7387C140.541 74.7387 142.371 74.7756 144.199 74.7201C144.904 74.6987 145.38 74.9244 145.864 75.4289C147.847 77.4961 149.871 79.5225 151.879 81.5637C151.771 81.7686 151.601 81.6785 151.471 81.6791C149.541 81.6861 147.61 81.6772 145.68 81.6911C145.39 81.693 145.189 81.6055 144.989 81.3987C144.008 80.3821 142.965 79.4215 142.036 78.3585C140.968 77.1366 139.778 76.0404 138.596 74.7387Z" fill="white"/>
<path fill-rule="evenodd" clip-rule="evenodd" d="M114.55 81.6828C115.47 80.7569 116.272 79.9662 117.055 79.1556C118.365 77.799 119.662 76.4289 120.967 75.0668C121.12 74.9068 121.246 74.7307 121.522 74.7324C123.604 74.7446 125.686 74.7391 127.757 74.7391C127.876 74.9622 127.695 75.0357 127.6 75.1332C125.541 77.235 123.48 79.3341 121.417 81.4317C121.301 81.5495 121.206 81.6876 121 81.687C118.906 81.6802 116.811 81.6828 114.55 81.6828Z" fill="white"/>
</svg>
