<svg width="24" height="24" viewBox="0 0 24 24" fill="none" xmlns="http://www.w3.org/2000/svg">
<path d="M19.5 5.41488C19.4867 5.2952 19.3804 5.24201 19.3006 5.24201C19.2208 5.24201 17.4788 5.10904 17.4788 5.10904C17.4788 5.10904 16.2686 3.89893 16.1224 3.77925C15.9894 3.64627 15.7367 3.68617 15.6303 3.71276C15.6171 3.71276 15.3644 3.79255 14.9522 3.92553C14.5399 2.74202 13.8351 1.66489 12.5718 1.66489H12.4522C12.1064 1.21277 11.6543 1 11.2819 1C8.3564 1 6.94682 4.65691 6.50799 6.51861C5.36437 6.87765 4.5532 7.11701 4.46011 7.1569C3.82181 7.35637 3.80851 7.36967 3.72873 7.96807C3.66224 8.4202 2 21.2792 2 21.2792L14.9389 23.6994L21.9602 22.1835C21.9734 22.1569 19.5133 5.53457 19.5 5.41488ZM14.2341 4.1117C13.9149 4.20478 13.5293 4.32446 13.1436 4.45744V4.21808C13.1436 3.49999 13.0506 2.91489 12.8777 2.44947C13.5426 2.52925 13.9548 3.26063 14.2341 4.1117ZM12.0665 2.59574C12.2394 3.04787 12.3591 3.68616 12.3591 4.56382V4.6968C11.641 4.92286 10.883 5.14893 10.0984 5.40159C10.5373 3.72606 11.375 2.90159 12.0665 2.59574ZM11.2154 1.77127C11.3484 1.77127 11.4814 1.82447 11.5878 1.90425C10.6436 2.34308 9.64629 3.4468 9.23406 5.68084C8.60906 5.88031 8.01065 6.05318 7.43884 6.23935C7.91757 4.53723 9.11438 1.77127 11.2154 1.77127Z" fill="#95BF47"/>
<path d="M19.3005 5.21541C19.2208 5.21541 17.4787 5.08243 17.4787 5.08243C17.4787 5.08243 16.2686 3.87232 16.1224 3.75264C16.0692 3.69945 16.0027 3.67285 15.9495 3.67285L14.9788 23.6995L22 22.1835C22 22.1835 19.5399 5.53456 19.5266 5.41488C19.4734 5.29519 19.3803 5.242 19.3005 5.21541Z" fill="#5E8E3E"/>
<path d="M12.5718 9.09844L11.7207 11.6649C11.7207 11.6649 10.9495 11.2527 10.0319 11.2527C8.66227 11.2527 8.59578 12.117 8.59578 12.3298C8.59578 13.5 11.6542 13.9521 11.6542 16.7048C11.6542 18.8723 10.2846 20.2686 8.43621 20.2686C6.20221 20.2686 5.08521 18.8856 5.08521 18.8856L5.6836 16.9175C5.6836 16.9175 6.85379 17.9282 7.83782 17.9282C8.4894 17.9282 8.75535 17.4229 8.75535 17.0505C8.75535 15.5213 6.2554 15.4548 6.2554 12.9282C6.2554 10.8139 7.77133 8.766 10.8431 8.766C11.9867 8.7527 12.5718 9.09844 12.5718 9.09844Z" fill="white"/>
</svg>
