<svg width="260" height="160" viewBox="0 0 260 160" fill="none" xmlns="http://www.w3.org/2000/svg">
<path d="M260 0H0V160H260V0Z" fill="#B31823"/>
<path fill-rule="evenodd" clip-rule="evenodd" d="M146.843 82.1524C148.577 82.1166 149.912 81.4185 150.862 80.0131C153.897 75.5202 156.927 71.0239 159.955 66.5264C161.187 64.6975 161.178 62.7169 159.949 60.8949C158.287 58.4323 156.629 55.9677 154.969 53.5042C153.615 51.4952 152.272 49.4783 150.903 47.4798C148.878 44.5242 144.572 44.6952 142.866 47.81C141.938 49.5039 142.023 51.2121 143.089 52.8154C145.438 56.3452 147.816 59.8549 150.196 63.3638C150.383 63.6405 150.365 63.8155 150.185 64.0808C147.791 67.6147 145.4 71.1504 143.03 74.7003C141.989 76.2592 141.878 77.9299 142.737 79.592C143.598 81.2571 145.03 82.0801 146.843 82.1524ZM147.052 89.4006C145.819 89.4006 144.584 89.3659 143.351 89.4097C141.928 89.4604 140.635 89.057 139.388 88.4219C138.188 87.8106 137.157 86.9547 136.094 86.1423C132.287 83.2324 128.471 80.3343 124.665 77.4233C124.435 77.2469 124.23 77.2104 123.956 77.2795C117.39 78.933 110.823 80.5843 104.253 82.2235C102.508 82.6589 100.99 82.2062 99.7165 80.9321C99.3771 80.5926 99.1318 80.191 98.9387 79.7469C96.2758 73.6212 93.6097 67.497 90.9345 61.3767C90.6057 60.6243 90.1994 59.9085 90.1406 59.0598C90.0254 57.3987 90.566 56.0238 91.8591 54.969C98.6958 49.392 105.535 43.8181 112.371 38.24C115.716 35.5101 119.057 32.7747 122.397 30.0387C124.224 28.5427 126.893 28.6734 128.599 30.3614C131.886 33.6132 135.172 36.8663 138.444 40.1325C138.747 40.4347 138.861 40.3992 139.082 40.0591C140.677 37.6047 142.293 35.164 143.901 32.7177C144.244 32.1953 144.637 31.7208 145.143 31.3493C146.466 30.3778 148.222 30.4851 149.401 31.6272C150.308 32.5058 151.004 33.5533 151.669 34.6183C157.176 43.438 162.713 52.2382 168.267 61.028C169.184 62.4805 169.098 64.0589 168.31 65.5369C166.979 68.032 165.474 70.4276 164.007 72.8434C161.365 77.1945 158.707 81.5364 156.048 85.8777C155.526 86.7308 154.907 87.5077 154.108 88.1222C153.382 88.6801 152.572 89.025 151.655 89.0706C150.121 89.1469 148.586 89.2094 147.052 89.2777C147.052 89.3187 147.052 89.3597 147.052 89.4006Z" fill="white"/>
<path fill-rule="evenodd" clip-rule="evenodd" d="M142.66 121.537C142.832 121.523 143.09 121.51 143.346 121.483C145.271 121.279 146.524 120.095 146.813 118.215C147.084 116.45 146.253 115.322 144.499 115.098C144.145 115.053 143.783 115.085 143.427 115.054C143.131 115.027 143.007 115.119 142.944 115.432C142.591 117.168 142.209 118.899 141.837 120.631C141.637 121.56 141.637 121.56 142.66 121.537ZM142.82 112.201C143.994 112.22 145.171 112.134 146.333 112.411C149.221 113.099 150.521 115.369 150.241 118.177C149.928 121.32 148.003 123.354 144.774 124.087C143.662 124.339 142.534 124.416 141.399 124.393C141.118 124.388 141.007 124.469 140.948 124.756C140.573 126.579 140.165 128.396 139.792 130.219C139.726 130.543 139.6 130.636 139.283 130.628C138.423 130.607 137.561 130.602 136.701 130.629C136.318 130.642 136.289 130.507 136.36 130.181C137.202 126.319 138.034 122.454 138.868 118.59C139.303 116.573 139.745 114.558 140.167 112.538C140.222 112.272 140.316 112.189 140.582 112.196C141.328 112.214 142.074 112.202 142.82 112.201Z" fill="white"/>
<path fill-rule="evenodd" clip-rule="evenodd" d="M56.6881 130.91C54.3912 130.908 52.349 130.274 50.8062 128.455C49.621 127.058 49.1025 125.393 49.0146 123.587C48.725 117.636 52.7588 112.833 58.6352 112.104C60.5647 111.865 62.4382 112.078 64.2731 112.724C64.6861 112.87 64.8416 113.023 64.6919 113.491C64.4856 114.135 64.3607 114.806 64.2238 115.471C64.156 115.8 64.0854 115.887 63.7346 115.704C60.9649 114.257 57.4993 114.633 55.2099 116.6C52.9939 118.504 52.0394 122.017 53.0002 124.788C53.6687 126.716 55.0442 127.772 57.0426 128.002C58.5851 128.18 60.0419 127.828 61.4227 127.155C61.7953 126.974 61.9046 127.038 61.9628 127.434C62.0465 128.005 62.1647 128.572 62.3047 129.131C62.381 129.436 62.2775 129.568 62.0184 129.697C60.4875 130.461 58.6217 130.894 56.6881 130.91Z" fill="white"/>
<path fill-rule="evenodd" clip-rule="evenodd" d="M172.713 128.244C174.55 128.162 176.002 126.486 176.327 124.708C176.361 124.52 176.264 124.489 176.111 124.488C175.019 124.479 173.928 124.486 172.881 124.862C172.332 125.06 171.827 125.331 171.497 125.838C171.156 126.365 171.125 126.929 171.404 127.486C171.679 128.037 172.18 128.222 172.713 128.244ZM175.861 128.719C175.319 129.342 174.756 129.824 174.109 130.204C173.106 130.792 172.035 131.039 170.884 130.829C169.066 130.498 168 129.083 168.076 127.148C168.157 125.102 169.201 123.748 171.031 122.965C172.221 122.455 173.481 122.259 174.763 122.196C175.336 122.168 175.911 122.156 176.485 122.163C176.743 122.166 176.825 122.065 176.866 121.822C177.048 120.735 176.396 119.847 175.256 119.668C174.192 119.5 173.172 119.733 172.165 120.042C171.768 120.164 171.376 120.31 170.991 120.467C170.786 120.551 170.724 120.512 170.691 120.291C170.597 119.663 170.484 119.038 170.368 118.413C170.333 118.224 170.381 118.123 170.565 118.054C172.637 117.272 174.753 116.821 176.97 117.25C179.332 117.707 180.505 119.491 180.143 121.984C179.908 123.603 179.413 125.162 179.12 126.766C178.93 127.812 178.882 128.863 179.023 129.915C179.06 130.195 178.964 130.268 178.733 130.316C178.031 130.464 177.328 130.609 176.632 130.785C176.361 130.853 176.282 130.752 176.218 130.519C176.063 129.953 175.957 129.377 175.861 128.719Z" fill="white"/>
<path fill-rule="evenodd" clip-rule="evenodd" d="M73.1828 122.982C73.1828 122.794 73.194 122.606 73.1809 122.419C73.0566 120.633 71.9855 119.634 70.3016 119.765C69.3349 119.84 68.5314 120.292 67.9656 121.073C66.8167 122.66 66.5175 124.451 66.9267 126.345C67.1654 127.451 67.9863 128.09 69.1016 128.19C70.3062 128.299 71.2605 127.83 71.9885 126.884C72.8709 125.738 73.1499 124.395 73.1828 122.982ZM69.0565 130.904C68.1452 130.884 67.2541 130.757 66.4166 130.371C64.7711 129.614 63.8771 128.258 63.6165 126.519C63.1251 123.239 64.0219 120.419 66.7304 118.401C68.6106 117 70.7651 116.75 73.0016 117.406C74.5117 117.849 75.5146 118.875 76.0565 120.346C77.1867 123.416 76.0802 127.341 73.5305 129.364C72.2186 130.405 70.7201 130.898 69.0565 130.904Z" fill="white"/>
<path fill-rule="evenodd" clip-rule="evenodd" d="M162.263 122.534V122.492C162.993 122.492 163.724 122.485 164.455 122.496C164.681 122.499 164.78 122.412 164.848 122.199C165.334 120.679 164.321 119.435 162.742 119.623C161.435 119.778 160.179 120.952 159.874 122.282C159.815 122.537 159.931 122.537 160.113 122.536C160.829 122.532 161.546 122.534 162.263 122.534ZM161.996 130.893C158.569 130.966 156.512 129.262 156.139 126.316C155.787 123.525 156.532 121.027 158.566 119.033C160.216 117.416 162.243 116.825 164.508 117.182C166.962 117.569 168.337 119.458 168.093 122.007C168.012 122.859 167.825 123.688 167.595 124.511C167.513 124.806 167.371 124.876 167.082 124.878C164.642 124.899 162.202 124.944 159.762 124.96C159.394 124.963 159.307 125.082 159.314 125.433C159.345 127.097 160.409 128.199 162.072 128.245C163.261 128.277 164.38 127.972 165.429 127.437C165.833 127.231 165.961 127.332 166.072 127.727C166.205 128.198 166.385 128.657 166.566 129.112C166.656 129.34 166.636 129.458 166.397 129.581C164.853 130.37 163.239 130.879 161.996 130.893Z" fill="white"/>
<path fill-rule="evenodd" clip-rule="evenodd" d="M196.792 122.534C196.792 122.52 196.792 122.507 196.792 122.493C197.507 122.493 198.223 122.495 198.939 122.491C199.089 122.49 199.252 122.523 199.329 122.315C199.756 121.149 199.314 119.902 198.034 119.658C196.364 119.339 194.853 120.665 194.396 122.323C194.328 122.569 194.507 122.533 194.644 122.533C195.36 122.535 196.076 122.534 196.792 122.534ZM196.024 130.904C193.1 130.967 190.993 129.247 190.671 126.32C190.296 122.923 191.334 120.041 194.282 118.119C196.004 116.996 197.929 116.768 199.9 117.409C201.436 117.908 202.311 119.021 202.567 120.615C202.791 122.009 202.47 123.341 202.066 124.662C201.984 124.929 201.79 124.867 201.616 124.869C199.19 124.904 196.765 124.946 194.34 124.958C193.938 124.96 193.837 125.079 193.848 125.466C193.894 127.117 194.942 128.198 196.591 128.244C197.81 128.278 198.949 127.949 200.027 127.406C200.342 127.248 200.465 127.304 200.565 127.633C200.719 128.144 200.907 128.645 201.099 129.143C201.185 129.364 201.131 129.463 200.925 129.576C199.461 130.381 197.692 130.869 196.024 130.904Z" fill="white"/>
<path fill-rule="evenodd" clip-rule="evenodd" d="M111.494 122.534C111.494 122.52 111.494 122.506 111.494 122.492C112.197 122.492 112.9 122.479 113.602 122.499C113.891 122.507 113.999 122.386 114.071 122.126C114.478 120.647 113.553 119.497 112.038 119.611C110.701 119.712 109.311 120.988 109.065 122.318C109.017 122.579 109.162 122.532 109.299 122.533C110.03 122.534 110.762 122.534 111.494 122.534ZM110.649 130.905C107.694 130.941 105.603 129.155 105.325 126.187C105.012 122.852 106.052 120.036 108.919 118.138C110.567 117.047 112.417 116.809 114.331 117.326C116.069 117.796 117.171 119.191 117.292 121.004C117.375 122.252 117.101 123.443 116.756 124.627C116.675 124.906 116.484 124.868 116.287 124.871C113.862 124.903 111.437 124.945 109.011 124.959C108.621 124.961 108.5 125.062 108.511 125.463C108.555 127.098 109.614 128.191 111.258 128.242C112.478 128.281 113.616 127.951 114.695 127.407C115.007 127.249 115.136 127.297 115.236 127.635C115.383 128.132 115.565 128.62 115.757 129.102C115.848 129.332 115.829 129.448 115.594 129.578C114.152 130.378 112.302 130.884 110.649 130.905Z" fill="white"/>
<path fill-rule="evenodd" clip-rule="evenodd" d="M77.6672 127.206C77.6789 125.734 78.0763 124.326 78.3789 122.902C78.7419 121.194 79.1316 119.492 79.4903 117.783C79.5525 117.487 79.6557 117.385 79.9647 117.393C80.825 117.417 81.6869 117.419 82.547 117.394C82.9065 117.383 82.9708 117.48 82.8925 117.824C82.3041 120.413 81.73 123.005 81.1572 125.597C81.0575 126.048 80.9875 126.503 81.0764 126.971C81.2395 127.829 81.7788 128.242 82.6396 128.145C83.3266 128.068 83.8878 127.736 84.3695 127.256C85.238 126.392 85.6775 125.304 85.9406 124.131C86.4113 122.034 86.8834 119.936 87.3288 117.832C87.4052 117.471 87.5459 117.381 87.8935 117.393C88.7249 117.42 89.5585 117.421 90.3897 117.393C90.7635 117.38 90.8368 117.462 90.7506 117.837C90.14 120.495 89.5444 123.156 88.9597 125.819C88.6558 127.204 88.3988 128.598 88.6395 130.026C88.6709 130.212 88.5896 130.256 88.4526 130.288C87.7119 130.459 86.9689 130.622 86.2313 130.806C86.0136 130.861 85.9881 130.729 85.9459 130.591C85.7985 130.107 85.6813 129.617 85.6027 129.117C85.5877 129.021 85.6244 128.886 85.5214 128.842C85.3856 128.784 85.3321 128.937 85.2597 129.011C84.3378 129.954 83.2445 130.576 81.9449 130.813C81.3328 130.925 80.7173 130.951 80.1058 130.822C78.6552 130.515 77.7887 129.442 77.6692 127.812C77.6545 127.611 77.6672 127.408 77.6672 127.206Z" fill="white"/>
<path fill-rule="evenodd" clip-rule="evenodd" d="M154.612 95.5157C154.626 95.839 154.517 96.1802 154.365 96.5116C153.589 98.2026 152.824 99.8991 152.034 101.584C151.26 103.233 149.281 103.52 148.096 102.148C146.646 100.469 145.218 98.7695 143.786 97.074C143.162 96.3358 143.012 95.4941 143.388 94.6051C143.773 93.6986 144.495 93.2043 145.474 93.1847C147.77 93.1389 150.066 93.1038 152.363 93.1077C153.653 93.11 154.626 94.1734 154.612 95.5157Z" fill="white"/>
<mask id="mask0" mask-type="alpha" maskUnits="userSpaceOnUse" x="125" y="117" width="12" height="14">
<path d="M125.721 117.074H136.417V130.93H125.721V117.074Z" fill="white"/>
</mask>
<g mask="url(#mask0)">
<path fill-rule="evenodd" clip-rule="evenodd" d="M135.89 120.526C135.065 120.165 134.251 119.901 133.394 119.791C132.922 119.73 132.449 119.716 131.984 119.845C131.14 120.08 130.839 120.849 131.295 121.608C131.5 121.95 131.797 122.2 132.114 122.427C132.687 122.837 133.279 123.222 133.836 123.652C134.804 124.402 135.39 125.377 135.446 126.632C135.523 128.326 134.732 129.702 133.146 130.338C130.657 131.336 128.228 131.02 125.886 129.784C125.674 129.672 125.697 129.547 125.784 129.365C126.084 128.741 126.383 128.116 126.657 127.481C126.766 127.228 126.856 127.2 127.089 127.352C127.855 127.854 128.691 128.188 129.605 128.302C130.169 128.372 130.725 128.331 131.257 128.127C132.201 127.766 132.421 126.828 131.747 126.074C131.457 125.749 131.094 125.513 130.741 125.265C130.305 124.96 129.858 124.669 129.441 124.341C128.058 123.253 127.468 121.834 127.866 120.097C128.252 118.412 129.503 117.612 131.068 117.264C132.794 116.88 134.49 117.108 136.149 117.679C136.297 117.73 136.456 117.767 136.408 117.998C136.233 118.829 136.066 119.662 135.89 120.526Z" fill="white"/>
</g>
<path fill-rule="evenodd" clip-rule="evenodd" d="M184.428 130.912C182.87 130.883 181.47 130.572 180.164 129.863C179.888 129.713 179.79 129.591 179.959 129.273C180.256 128.713 180.516 128.132 180.762 127.547C180.885 127.256 180.977 127.18 181.276 127.38C182.025 127.882 182.857 128.195 183.757 128.304C184.351 128.375 184.935 128.329 185.488 128.087C186.318 127.723 186.522 126.874 185.958 126.163C185.686 125.819 185.326 125.577 184.97 125.332C184.378 124.925 183.778 124.531 183.232 124.056C181.178 122.27 181.29 118.398 184.722 117.394C186.629 116.835 188.497 117.072 190.344 117.697C190.527 117.759 190.582 117.848 190.537 118.05C190.374 118.782 190.225 119.518 190.086 120.256C190.036 120.521 189.916 120.486 189.727 120.406C188.793 120.014 187.83 119.739 186.807 119.757C186.565 119.762 186.317 119.792 186.085 119.859C185.258 120.101 184.979 120.86 185.429 121.606C185.651 121.973 185.978 122.232 186.318 122.477C186.924 122.915 187.572 123.294 188.139 123.787C189.461 124.935 189.866 126.371 189.403 128.045C189.078 129.219 188.244 129.944 187.165 130.406C186.264 130.791 185.31 130.896 184.428 130.912Z" fill="white"/>
<path fill-rule="evenodd" clip-rule="evenodd" d="M155.038 110.829C155.455 110.829 155.873 110.853 156.287 110.822C156.659 110.795 156.717 110.93 156.643 111.267C156.197 113.297 155.765 115.33 155.331 117.363C154.684 120.398 154.039 123.434 153.393 126.47C153.375 126.554 153.36 126.64 153.346 126.725C153.204 127.587 153.497 127.95 154.359 127.983C155.115 128.012 155.115 128.012 155.115 128.8C155.115 129.176 155.105 129.552 155.119 129.927C155.127 130.141 155.066 130.268 154.858 130.359C153.932 130.76 152.97 130.977 151.965 130.882C150.554 130.75 149.819 129.918 149.774 128.479C149.741 127.466 150.027 126.505 150.235 125.533C151.253 120.777 152.292 116.025 153.307 111.268C153.384 110.906 153.523 110.792 153.876 110.822C154.261 110.854 154.651 110.829 155.038 110.829Z" fill="white"/>
<path fill-rule="evenodd" clip-rule="evenodd" d="M122.424 119.905L122.442 119.871L122.415 119.867L122.424 119.905ZM122.527 119.77C122.867 119.188 123.201 118.602 123.664 118.108C124.723 116.98 126.356 116.754 127.68 117.542C127.916 117.683 128.011 117.794 127.852 118.076C127.426 118.829 127.026 119.596 126.633 120.367C126.525 120.578 126.441 120.617 126.214 120.517C125.01 119.99 123.999 120.26 123.209 121.315C122.513 122.243 122.144 123.322 121.847 124.428C121.335 126.339 120.998 128.289 120.574 130.22C120.506 130.527 120.4 130.643 120.073 130.633C119.212 130.608 118.351 130.616 117.49 130.63C117.223 130.635 117.142 130.583 117.205 130.295C118.131 126.095 119.048 121.893 119.957 117.69C120.01 117.449 120.114 117.397 120.335 117.401C120.98 117.413 121.627 117.415 122.272 117.4C122.522 117.394 122.589 117.472 122.566 117.721C122.505 118.393 122.468 119.067 122.422 119.74C122.457 119.75 122.492 119.76 122.527 119.77Z" fill="white"/>
<path fill-rule="evenodd" clip-rule="evenodd" d="M95.5828 119.786C95.9531 119.34 96.2163 118.862 96.5519 118.432C97.6391 117.041 99.3446 116.681 100.814 117.519C101.091 117.677 101.173 117.812 100.995 118.121C100.58 118.846 100.199 119.592 99.8172 120.336C99.7114 120.542 99.6427 120.637 99.3749 120.516C98.2001 119.988 97.1828 120.252 96.4013 121.286C95.52 122.453 95.1301 123.833 94.8105 125.229C94.4274 126.903 94.078 128.585 93.7321 130.267C93.674 130.55 93.5672 130.638 93.2828 130.631C92.4078 130.612 91.5321 130.617 90.6568 130.629C90.3965 130.632 90.3107 130.593 90.3768 130.293C91.3003 126.108 92.2127 121.92 93.1159 117.73C93.1751 117.456 93.2933 117.393 93.5474 117.4C94.1641 117.416 94.7819 117.418 95.3984 117.399C95.6782 117.391 95.7727 117.461 95.7407 117.76C95.6688 118.433 95.6332 119.11 95.5828 119.786Z" fill="white"/>
<path fill-rule="evenodd" clip-rule="evenodd" d="M103.687 117.404C104.118 117.404 104.549 117.418 104.978 117.399C105.258 117.387 105.337 117.436 105.268 117.751C104.513 121.191 103.776 124.634 103.034 128.077C102.873 128.824 102.703 129.57 102.552 130.319C102.508 130.539 102.424 130.633 102.186 130.629C101.297 130.616 100.406 130.61 99.5171 130.63C99.1251 130.639 99.1986 130.44 99.2517 130.196C99.7715 127.814 100.286 125.43 100.803 123.047C101.185 121.284 101.578 119.523 101.943 117.757C102.004 117.461 102.12 117.385 102.396 117.399C102.825 117.42 103.256 117.404 103.687 117.404Z" fill="white"/>
<path fill-rule="evenodd" clip-rule="evenodd" d="M206.315 119.496C207.937 119.504 209.26 118.197 209.277 116.571C209.294 114.921 207.981 113.584 206.341 113.584C204.707 113.583 203.417 114.878 203.41 116.525C203.404 118.169 204.693 119.487 206.315 119.496ZM209.989 116.567C209.979 118.589 208.345 120.226 206.333 120.227C204.305 120.228 202.667 118.574 202.671 116.527C202.674 114.486 204.332 112.827 206.351 112.846C208.392 112.865 209.999 114.509 209.989 116.567Z" fill="white"/>
<path fill-rule="evenodd" clip-rule="evenodd" d="M104.204 115.438C103.097 115.44 102.303 114.643 102.307 113.533C102.312 112.261 103.346 111.245 104.628 111.251C105.706 111.257 106.522 112.058 106.529 113.12C106.539 114.418 105.519 115.435 104.204 115.438Z" fill="white"/>
<path fill-rule="evenodd" clip-rule="evenodd" d="M122.424 119.905L122.415 119.867L122.442 119.871L122.424 119.905Z" fill="white"/>
<path fill-rule="evenodd" clip-rule="evenodd" d="M206.064 115.217C205.47 115.216 205.469 115.216 205.472 115.821C205.472 115.922 205.472 116.022 205.476 116.122C205.48 116.223 205.532 116.281 205.635 116.28C205.962 116.275 206.292 116.311 206.613 116.223C206.848 116.158 206.973 115.995 206.977 115.752C206.98 115.504 206.843 115.341 206.614 115.284C206.436 115.239 206.248 115.238 206.064 115.217ZM206.928 116.82C207.407 117.234 207.628 117.793 207.938 118.29C208.041 118.455 207.994 118.507 207.806 118.52C207.358 118.55 206.968 118.537 206.799 117.987C206.713 117.707 206.511 117.46 206.344 117.209C206.216 117.018 206.01 116.952 205.791 116.913C205.54 116.869 205.457 116.97 205.468 117.216C205.483 117.533 205.45 117.852 205.477 118.167C205.508 118.519 205.314 118.527 205.058 118.52C204.825 118.515 204.653 118.524 204.659 118.188C204.68 117.093 204.674 115.997 204.662 114.901C204.66 114.646 204.757 114.579 204.99 114.586C205.563 114.605 206.137 114.589 206.708 114.617C207.354 114.649 207.715 114.955 207.812 115.503C207.908 116.041 207.663 116.454 207.088 116.728C207.05 116.746 207.015 116.77 206.928 116.82Z" fill="white"/>
</svg>
