<svg width="77" height="80" viewBox="0 0 77 80" fill="none" xmlns="http://www.w3.org/2000/svg">
<path fill-rule="evenodd" clip-rule="evenodd" d="M68.4365 21.2847C70.3095 22.751 71.7711 24.6859 72.6765 26.8982C73.5004 28.8694 73.8553 31.0064 73.7122 33.1415C73.5643 35.1711 72.9236 37.1328 71.847 38.8528C70.7031 40.6445 69.1407 42.1244 67.2976 43.1624C66.5335 43.5988 65.7252 43.9295 64.9151 44.261C64.6472 44.3705 64.3791 44.4803 64.1124 44.5939C63.104 45.0258 62.1145 45.5001 61.1378 46.002C58.8872 47.1592 56.702 48.4462 54.5569 49.7862C52.2116 51.2498 49.9105 52.7856 47.6369 54.3575C45.976 55.5061 40.3108 63.8509 37.4877 68.1052C50.3645 67.5538 61.2652 58.3228 64.0535 45.6086C64.2282 45.5299 64.4008 45.4532 64.5713 45.3809C64.7559 45.2951 64.9405 45.2216 65.1301 45.1461C65.213 45.1132 65.2967 45.0797 65.3818 45.0449C66.2265 44.7203 67.0493 44.34 67.8449 43.9069C67.9412 43.8527 68.034 43.7948 68.1268 43.737C68.1577 43.7177 68.1886 43.6985 68.2197 43.6792C66.2327 58.8082 54.1084 70.5101 39.0601 71.8227C24.0118 73.1354 10.0819 63.7061 5.55837 49.1451C1.03479 34.5841 7.13261 18.8027 20.2238 11.1904C33.315 3.57812 49.883 6.17974 60.0704 17.4474H59.8157C58.9615 17.45 58.1091 17.5211 57.2662 17.6601C56.6264 17.7667 55.9936 17.9131 55.3715 18.0983C47.1188 10.5425 35.2589 8.55334 25.0327 13.0098C14.8066 17.4663 8.09883 27.5471 7.87361 38.7974C11.242 37.7147 17.0903 35.7663 17.7681 35.0601C19.2186 33.554 20.6671 32.0395 22.0248 30.4505C22.4392 29.988 22.8232 29.4983 23.1743 28.9849C23.2845 28.8076 23.3735 28.6177 23.4396 28.4192C23.6514 27.8577 23.9523 27.3346 24.3301 26.8706C24.1395 26.4013 23.9852 25.9176 23.8691 25.4241C23.6932 25.062 23.5658 24.678 23.4902 24.2819C23.2418 23.2691 23.1475 22.2241 23.2102 21.1826C23.2711 20.3382 23.5301 19.0427 24.6143 19.0427C24.9767 19.0973 25.3175 19.2511 25.5996 19.4873L25.6514 19.5243C26.7043 20.276 27.7758 21.0411 28.6458 22.0101H28.7468L28.7594 22.0293L32.2415 21.6528C32.3956 21.6361 32.5499 21.6191 32.7043 21.602C33.994 21.4592 35.2976 21.315 36.593 21.4251C37.2264 21.4795 37.8515 21.6072 38.4562 21.806C39.0835 22.0101 39.7213 22.1867 40.3655 22.3292C41.5894 22.603 42.8404 22.735 44.0938 22.7227C46.5034 22.6747 48.8586 21.9905 50.9253 20.7381C51.2069 20.6148 51.4878 20.4896 51.7686 20.3645C52.166 20.1874 52.5635 20.0103 52.9631 19.8383C54.341 19.2196 55.7891 18.7745 57.2746 18.5131C58.7099 18.2766 60.1717 18.2537 61.6135 18.445C64.0944 18.7729 66.4468 19.752 68.4365 21.2847ZM38 31.095C39.0032 31.7327 40.2784 31.6847 41.2341 30.973L41.2363 30.9688C42.1574 30.2493 42.5167 28.992 42.1222 27.8698C41.6958 26.7219 40.6401 25.9555 39.4518 25.9314C38.3189 25.9037 37.2846 26.5952 36.8434 27.6754C36.9673 27.3335 37.0665 27.0449 36.8206 27.7288C36.6322 28.253 36.6489 28.2072 36.7228 28.0041C36.7453 27.9422 36.7731 27.8658 36.802 27.7865C36.7605 27.9079 36.7274 28.0321 36.7029 28.1584C36.5088 29.3202 37.0238 30.4864 38 31.095Z" fill="#2E434D"/>
</svg>
