<svg width="140" height="72" viewBox="0 0 140 72" fill="none" xmlns="http://www.w3.org/2000/svg">
<path d="M17.6436 21.2389L4.55972 28.7878V43.8728L8.29615 46.0345L8.2666 30.9452L17.6182 25.5495L26.9656 30.9452V46.026L30.7021 43.8728V28.7751L17.6436 21.2389Z" fill="#F26322"/>
<path d="M19.4972 46.0302L17.6311 47.1153L15.7565 46.0387V30.9452L12.0243 33.1026L12.0285 48.1919L17.6269 51.4217L23.2336 48.1919V33.1026L19.4972 30.9452V46.0302Z" fill="#F26322"/>
<path d="M39.2558 28.8806L44.3939 41.8547H44.4361L49.4475 28.8806H51.4023V43.7503H50.0513V30.7932H50.0091C49.9373 31.0296 49.8613 31.2618 49.7811 31.4982C49.7093 31.6924 49.6291 31.9078 49.5404 32.14C49.4518 32.3764 49.3673 32.6002 49.304 32.807L44.9976 43.7503H43.7732L39.4246 32.8113C39.3402 32.617 39.2558 32.4059 39.1755 32.178C39.0911 31.95 39.0151 31.7304 38.9433 31.5236C38.8589 31.2745 38.7745 31.0296 38.6942 30.7932H38.652V43.7503H37.3643V28.8806H39.2558Z" fill="#4D4D4D"/>
<path d="M55.329 43.8137C54.9236 43.704 54.5479 43.5097 54.2186 43.2522C53.9062 42.9989 53.6528 42.6822 53.4797 42.3149C53.2982 41.9434 53.2095 41.5043 53.2095 41.0061C53.2095 40.3686 53.3277 39.8493 53.5642 39.4482C53.7964 39.0514 54.1257 38.7178 54.5183 38.4814C54.9194 38.2407 55.3881 38.055 55.9242 37.9325C56.49 37.8017 57.06 37.7046 57.6384 37.6412C58.1661 37.5863 58.6136 37.5272 58.9809 37.4639C59.3483 37.4006 59.6438 37.3204 59.876 37.2233C60.104 37.1262 60.2686 36.9995 60.3742 36.8391C60.4797 36.6786 60.5304 36.4591 60.5304 36.1847V35.9778C60.5304 35.2432 60.3066 34.6985 59.8633 34.3439C59.42 33.9892 58.7825 33.8119 57.9508 33.8119C56.0382 33.8119 55.0292 34.6099 54.9363 36.2058H53.6613C53.7331 35.1672 54.1173 34.3354 54.8139 33.7106C55.5147 33.0857 56.5575 32.7733 57.9423 32.7733C59.1203 32.7733 60.0491 33.0351 60.7288 33.5544C61.4086 34.0737 61.7463 34.9265 61.7463 36.1044V41.9476C61.7463 42.2643 61.8054 42.4965 61.9236 42.6442C62.0419 42.7878 62.2192 42.868 62.4556 42.8849C62.5274 42.8849 62.6034 42.8765 62.6752 42.8638C62.7511 42.8511 62.8356 42.8258 62.9369 42.8005H63.0002V43.7377C62.8862 43.7842 62.768 43.8222 62.6456 43.8517C62.4767 43.8897 62.2994 43.9066 62.1263 43.9024C61.6577 43.9024 61.2819 43.78 61.0033 43.5351C60.7246 43.2902 60.5726 42.906 60.5431 42.3825V42.1545H60.4882C60.3193 42.3825 60.1335 42.5978 59.9393 42.8005C59.7071 43.0369 59.4454 43.2395 59.1583 43.4042C58.8247 43.5942 58.4701 43.742 58.0986 43.8391C57.6975 43.9531 57.2373 44.0079 56.7264 44.0037C56.2493 44.0079 55.7807 43.9446 55.329 43.8137ZM58.4996 42.6822C58.9514 42.4965 59.3271 42.2558 59.6353 41.9645C60.2138 41.4199 60.5473 40.6599 60.5515 39.8662V37.9325C60.2053 38.1268 59.7831 38.2745 59.2934 38.3801C58.7994 38.4856 58.2928 38.5743 57.765 38.6418C57.309 38.7136 56.8869 38.7854 56.4942 38.8614C56.1058 38.9374 55.768 39.0556 55.4852 39.2245C55.2065 39.3891 54.9701 39.6213 54.8097 39.9C54.6408 40.1828 54.5606 40.5544 54.5606 41.0146C54.5606 41.3861 54.6281 41.6985 54.759 41.9518C54.8814 42.1925 55.0587 42.3994 55.2783 42.5556C55.5063 42.7118 55.7638 42.8216 56.0382 42.8807C56.338 42.944 56.6462 42.9736 56.9544 42.9736C57.5328 42.9609 58.0479 42.868 58.4996 42.6822Z" fill="#4D4D4D"/>
<path d="M65.208 46.7142C64.486 46.1822 64.0765 45.5109 63.9836 44.7045H65.2291C65.3431 45.3294 65.6766 45.7769 66.2382 46.0471C66.7997 46.3173 67.4667 46.4524 68.2478 46.4524C69.4004 46.4524 70.249 46.178 70.7979 45.6333C71.3467 45.0845 71.6169 44.333 71.6169 43.3746V41.6689H71.5536C71.1525 42.2769 70.6881 42.7413 70.1604 43.0622C69.6326 43.3788 68.9613 43.5392 68.1423 43.5392C67.433 43.5392 66.7955 43.4084 66.2297 43.1424C65.6682 42.8848 65.1742 42.5091 64.7731 42.0405C64.372 41.5718 64.0639 41.0061 63.8485 40.3475C63.6332 39.6888 63.5234 38.9626 63.5234 38.1731C63.5234 37.2992 63.6459 36.5266 63.895 35.8553C64.1441 35.184 64.4776 34.6183 64.8956 34.1623C65.3009 33.7105 65.8033 33.3559 66.3606 33.1237C66.9221 32.8873 67.5259 32.769 68.138 32.769C68.9698 32.769 69.6537 32.9379 70.1941 33.2799C70.7345 33.6219 71.1863 34.0821 71.5452 34.6605H71.6085V32.9928H72.8835V43.3281C72.8835 44.5187 72.55 45.4813 71.8829 46.2202C71.0639 47.0815 69.8648 47.5079 68.2858 47.5079C66.9559 47.5121 65.9257 47.2461 65.208 46.7142ZM70.8443 41.2721C71.4143 40.4826 71.6971 39.4397 71.6971 38.152C71.6971 37.5145 71.6296 36.9319 71.4903 36.4041C71.3509 35.8764 71.1356 35.4247 70.8443 35.0447C70.5572 34.6647 70.1815 34.3649 69.755 34.1623C69.316 33.9554 68.8093 33.8499 68.2267 33.8499C67.1585 33.8499 66.331 34.2425 65.74 35.032C65.1489 35.8215 64.8576 36.8728 64.8576 38.1943C64.8534 38.7642 64.9209 39.3342 65.0645 39.8873C65.2038 40.4066 65.4107 40.8583 65.6893 41.2383C65.9595 41.614 66.3142 41.918 66.7279 42.1333C67.1417 42.3487 67.6356 42.4584 68.2056 42.4584C69.392 42.4584 70.2701 42.0616 70.8443 41.2721Z" fill="#4D4D4D"/>
<path d="M77.3508 43.5941C76.7429 43.3239 76.2067 42.9186 75.7802 42.412C75.358 41.9053 75.0372 41.31 74.8134 40.6218C74.5896 39.9337 74.4799 39.1906 74.4799 38.3884C74.4799 37.582 74.5981 36.839 74.8345 36.155C75.0709 35.4711 75.4003 34.8758 75.8182 34.3691C76.2362 33.8667 76.764 33.4614 77.3593 33.1828C77.963 32.8999 78.6385 32.7563 79.3858 32.7563C80.2471 32.7563 80.9691 32.921 81.5602 33.2461C82.1386 33.5585 82.6283 34.0103 82.9957 34.5549C83.363 35.1038 83.6247 35.7286 83.7767 36.4379C83.9287 37.1556 84.0047 37.886 84.0047 38.6206H75.814C75.8225 39.1948 75.9111 39.7648 76.0758 40.3136C76.2193 40.8034 76.4515 41.2678 76.7597 41.6731C77.0595 42.0658 77.4479 42.3782 77.8955 42.5893C78.3514 42.813 78.8876 42.9228 79.4956 42.9228C80.3949 42.9228 81.0915 42.7033 81.5855 42.2684C82.0795 41.8293 82.4257 41.2467 82.6326 40.5121H83.8823C83.6458 41.5802 83.1603 42.4331 82.4257 43.0706C81.6911 43.7081 80.7115 44.0247 79.4956 44.0247C78.6892 44.0205 77.9757 43.877 77.3508 43.5941ZM82.4257 36.1086C82.2864 35.6442 82.0879 35.2431 81.8219 34.9011C81.5559 34.5591 81.214 34.2847 80.8213 34.0989C80.4202 33.9047 79.9431 33.8076 79.3858 33.8076C78.8328 33.8076 78.3514 33.9047 77.9377 34.0989C77.5281 34.2847 77.1608 34.5591 76.8653 34.9011C76.5655 35.2557 76.3291 35.6611 76.1687 36.0959C75.9913 36.5772 75.8731 37.0796 75.8267 37.5905H82.6494C82.6452 37.0923 82.565 36.5899 82.4257 36.1086Z" fill="#4D4D4D"/>
<path d="M86.8964 32.997V34.6393H86.9386C87.3059 34.0905 87.7957 33.6345 88.3614 33.2967C88.9525 32.9421 89.6745 32.7648 90.5358 32.7648C91.5322 32.7648 92.3555 33.0519 93.0014 33.6303C93.6474 34.2045 93.9683 35.0362 93.9683 36.117V43.7503H92.6806V36.2437C92.6806 35.4246 92.461 34.8251 92.0262 34.4451C91.5871 34.0609 90.9875 33.8709 90.2276 33.8751C89.7885 33.8709 89.3494 33.9511 88.9399 34.1074C88.5514 34.2509 88.1926 34.4662 87.8801 34.7406C87.5761 35.0109 87.3313 35.3402 87.1624 35.7075C86.9851 36.0917 86.8964 36.5096 86.9006 36.9318V43.7545H85.6129V32.997H86.8964Z" fill="#4D4D4D"/>
<path d="M97.2905 43.3872C96.9189 43.0875 96.729 42.5935 96.729 41.9011V34.0609H95.1077V33.0012H96.729V29.6954H98.0167V33.0012H100.014V34.0609H98.0167V41.6942C98.0167 42.0826 98.1053 42.3486 98.2784 42.4964C98.4515 42.6399 98.7133 42.7159 99.0553 42.7159C99.2115 42.7159 99.3677 42.6991 99.5239 42.6653C99.6548 42.6399 99.7856 42.6019 99.9081 42.5513H99.9714V43.6532C99.5872 43.7799 99.1861 43.8432 98.7851 43.8432C98.1644 43.8305 97.6662 43.6828 97.2905 43.3872Z" fill="#4D4D4D"/>
<path d="M103.835 43.5942C103.231 43.3198 102.695 42.9144 102.264 42.4078C101.833 41.9012 101.504 41.3059 101.276 40.6219C101.048 39.938 100.934 39.1907 100.934 38.3885C100.934 37.5821 101.048 36.839 101.276 36.1551C101.504 35.4711 101.833 34.8716 102.264 34.365C102.695 33.8583 103.231 33.453 103.835 33.1786C104.451 32.8957 105.148 32.7522 105.924 32.7522C106.701 32.7522 107.394 32.8957 108.006 33.1786C108.605 33.4573 109.137 33.8626 109.564 34.365C109.994 34.8716 110.319 35.4669 110.539 36.1551C110.759 36.8433 110.868 37.5863 110.873 38.3885C110.873 39.1949 110.763 39.938 110.539 40.6219C110.315 41.3059 109.99 41.9012 109.564 42.4078C109.137 42.9144 108.605 43.3155 108.006 43.5942C107.398 43.877 106.705 44.0206 105.924 44.0206C105.143 44.0206 104.447 43.877 103.835 43.5942ZM107.503 42.5851C107.955 42.3529 108.348 42.0194 108.648 41.6099C108.952 41.1961 109.18 40.7106 109.331 40.1533C109.635 38.9965 109.635 37.7763 109.331 36.6195C109.18 36.0622 108.952 35.5767 108.648 35.1629C108.348 34.7534 107.955 34.4199 107.503 34.1877C107.047 33.9512 106.52 33.833 105.924 33.833C105.329 33.8372 104.797 33.9512 104.333 34.1877C103.881 34.4241 103.493 34.7576 103.189 35.1629C102.876 35.5767 102.644 36.0622 102.492 36.6195C102.188 37.7763 102.188 38.9965 102.492 40.1533C102.644 40.7064 102.876 41.1919 103.189 41.6099C103.493 42.0152 103.881 42.3487 104.333 42.5851C104.784 42.8216 105.312 42.9398 105.924 42.9398C106.537 42.9398 107.064 42.8216 107.503 42.5851Z" fill="#4D4D4D"/>
<path d="M112.52 34.7872C111.722 34.7872 111.169 34.2341 111.169 33.4066C111.169 32.5791 111.735 32.0176 112.52 32.0176C113.305 32.0176 113.875 32.5791 113.875 33.4066C113.875 34.2341 113.309 34.7872 112.52 34.7872ZM112.52 32.1738C111.878 32.1738 111.363 32.6171 111.363 33.3982C111.363 34.1792 111.874 34.6183 112.52 34.6183C113.166 34.6183 113.685 34.175 113.685 33.3982C113.685 32.6213 113.166 32.1738 112.52 32.1738ZM112.921 34.1412L112.461 33.4868H112.313V34.1201H112.051V32.5833H112.516C112.836 32.5833 113.048 32.7438 113.048 33.0308C113.048 33.2504 112.929 33.3939 112.739 33.453L113.183 34.0779L112.921 34.1412ZM112.516 32.8282H112.313V33.2799H112.503C112.676 33.2799 112.782 33.2082 112.782 33.052C112.786 32.8957 112.689 32.824 112.516 32.8282Z" fill="#4D4D4D"/>
<path d="M127.596 48.0399C125.113 48.0399 122.627 48.0357 120.144 48.0441C119.87 48.0441 119.798 48.0061 119.84 47.7021C120.186 45.1647 121.432 43.0918 123.112 41.2257C124.548 39.634 126.135 38.1985 127.676 36.7124C128.39 36.0242 129.112 35.336 129.732 34.5592C130.64 33.4277 131.138 32.1611 130.885 30.6792C130.678 29.4548 129.931 28.6569 128.698 28.4373C127.579 28.2389 126.524 28.3698 125.688 29.2522C125.151 29.8179 124.978 30.5441 124.852 31.2829C124.814 31.5109 124.847 31.8191 124.717 31.9458C124.611 32.0471 124.294 31.9416 124.075 31.9205C122.901 31.8022 121.723 31.6798 120.549 31.5743C120.355 31.5574 120.347 31.4687 120.368 31.3209C120.756 28.1798 122.048 25.9506 125.312 25.0344C127.545 24.4054 129.804 24.4223 131.919 25.4651C134.279 26.6303 135.436 28.6062 135.432 31.2407C135.432 33.3053 134.609 35.07 133.41 36.6913C132.363 38.1098 131.037 39.254 129.762 40.4573C128.799 41.365 127.778 42.2136 126.984 43.286C126.853 43.4633 126.6 43.6617 126.676 43.839C126.739 43.991 127.06 43.8939 127.267 43.8939C129.867 43.8982 132.472 43.9024 135.073 43.8897C135.369 43.8897 135.449 43.9615 135.445 44.257C135.428 45.4054 135.428 46.5538 135.445 47.6979C135.449 47.9935 135.352 48.0399 135.086 48.0399C132.586 48.0357 130.091 48.0399 127.596 48.0399Z" fill="#EF4A12"/>
</svg>
