<svg width="65" height="40" viewBox="0 0 65 40" fill="none" xmlns="http://www.w3.org/2000/svg">
<path d="M65 0H0V40H65V0Z" fill="white"/>
<path fill-rule="evenodd" clip-rule="evenodd" d="M62.4636 23.3155C62.4636 23.9563 61.9671 24.4553 61.3239 24.4553C60.6806 24.4553 60.1841 23.9566 60.1841 23.3155C60.1841 22.6766 60.6806 22.1763 61.3239 22.1763C61.9671 22.1763 62.4636 22.6766 62.4636 23.3155ZM60.3615 23.3155C60.3615 23.8609 60.7719 24.2924 61.3239 24.2924C61.8739 24.2924 62.2847 23.8606 62.2847 23.3155C62.2847 22.7704 61.8742 22.3385 61.3239 22.3385C60.7719 22.3385 60.3615 22.7704 60.3615 23.3155ZM61.0725 23.9751H60.91V22.6577H61.4155C61.7142 22.6577 61.8436 22.7858 61.8436 23.0223C61.8436 23.2545 61.6919 23.3598 61.5152 23.3901L61.9064 23.9755H61.7154L61.3455 23.3901H61.0728V23.9751H61.0725V23.9751ZM61.2864 23.2514C61.4861 23.2514 61.6817 23.2458 61.6817 23.0223C61.6817 22.8385 61.5288 22.7957 61.3703 22.7957H61.0722V23.2517H61.2864V23.2514Z" fill="#304C9C"/>
<path fill-rule="evenodd" clip-rule="evenodd" d="M18.1202 24.7L20.193 14.95H6.62251L4.55005 24.7H18.1202Z" fill="white"/>
<path fill-rule="evenodd" clip-rule="evenodd" d="M6.9056 15.353C6.9056 15.353 14.451 16.9042 14.6005 16.9296C16.334 17.2354 16.2804 17.5704 16.2804 17.5704C17.4942 17.5635 17.6437 17.6131 17.8561 17.7898C18.4953 18.3238 17.4564 19.8948 17.4564 19.8948C17.3081 20.0056 6.08374 24.3406 6.08374 24.3406H17.8266L19.7474 15.3103L6.91303 15.3115L6.9056 15.353V15.353Z" fill="#304C9C"/>
<path fill-rule="evenodd" clip-rule="evenodd" d="M15.6903 18.2783C15.52 18.3625 15.0746 18.408 14.8675 18.4265C14.6663 18.4436 14.6124 18.4634 14.6093 18.5401C14.6062 18.6089 14.639 18.6485 14.926 18.6485C15.5853 18.6485 16.7725 18.3993 17.13 18.5132C17.3185 18.5729 17.1659 18.9107 17.0127 19.3521C16.9529 19.523 17.0703 19.5118 17.1384 19.436C17.2071 19.362 17.5145 18.798 17.5479 18.5104C17.595 18.1027 17.2467 18.0414 16.7632 18.0414H15.9961C15.9568 18.0414 15.9231 18.0687 15.8757 18.1315C15.8336 18.1872 15.7989 18.2228 15.6903 18.2783Z" fill="#304C9C"/>
<path fill-rule="evenodd" clip-rule="evenodd" d="M6.46939 17.3982L4.99561 24.3428C4.99561 24.3428 9.51137 22.1264 10.0624 21.8428C11.1947 21.2624 12.7586 20.4928 14.2045 20C14.4803 19.9062 15.6616 19.5428 16.3479 19.4206C16.6156 19.3723 16.7274 19.328 16.724 19.2785C16.7144 19.1358 16.4472 19.1277 15.9931 19.1488C14.6091 19.2144 11.9559 20.27 11.1935 20.673L10.3314 18.0022H15.838C16.0844 17.3085 12.579 17.4051 12.4685 17.3982H6.46939ZM22.9723 18.7569C22.0802 18.7569 21.5465 18.3981 21.7214 17.6047C22.0136 16.2318 22.2074 15.3103 22.2074 15.3103H22.9537C22.9537 15.3103 22.4959 17.4307 22.5101 17.3781C22.3928 17.9022 22.5101 18.2179 23.0813 18.2238C23.6282 18.2238 23.9081 17.9081 24.0204 17.3781L24.464 15.3103H25.2104C24.7089 17.6047 25.2104 15.3103 24.7148 17.6047C24.5439 18.3981 23.8654 18.7569 22.9723 18.7569ZM28.1833 18.6956H27.2451L26.408 16.1848H26.3938L25.8706 18.6956H25.2085L25.9267 15.3103H26.8946L27.6979 17.8496H27.7069L28.2409 15.3103H28.9018L28.1833 18.6956ZM29.6466 18.6956H28.9018L29.6184 15.3103H30.3654L29.6466 18.6956ZM33.5986 15.8489H32.5455L31.9416 18.6956H31.195L31.7995 15.8489H30.7467L30.865 15.3103H33.711L33.5986 15.8489ZM36.5502 15.8489H34.8446L34.6561 16.7318H36.1429L36.0345 17.2314H34.5477L34.3543 18.157H36.058L35.9444 18.6956H33.4906L34.2128 15.3103H36.6626L36.5502 15.8489ZM38.0194 18.6956H36.4899L37.208 15.3103H38.8508C39.8745 15.3103 40.2197 15.9907 40.0726 16.854C39.8702 18.0731 38.9632 18.6956 38.0194 18.6956ZM38.6047 15.8489H37.8442L37.3538 18.1573H37.8872C38.732 18.1573 39.2186 17.605 39.3505 16.8457C39.4452 16.3071 39.2232 15.8489 38.6047 15.8489ZM43.7025 15.8489H42.9032C42.4971 15.8489 42.3138 15.9344 42.2764 16.0994C42.1627 16.638 43.6217 17.0667 43.4842 17.8979C43.4087 18.361 43.0029 18.6959 42.0683 18.6959H40.9264L41.0388 18.1573H41.9603C42.2426 18.1573 42.5927 18.1718 42.6586 17.888C42.7676 17.401 41.3316 16.9212 41.4396 16.1096C41.5056 15.622 41.9402 15.3103 42.8187 15.3103H43.8198L43.7025 15.8489ZM46.9367 15.8489H45.8826L45.2793 18.6956H44.5333L45.1379 15.8489H44.0848L44.2039 15.3103H47.0503L46.9367 15.8489ZM47.072 18.6956L47.3648 18.157H48.4312L48.1343 15.9814L46.6457 18.6956H45.9009L47.8406 15.3103H48.7327L49.2611 18.6956H47.072ZM52.2898 15.8489H51.2364L50.6337 18.6956H49.8876L50.491 15.8489H49.4391L49.5564 15.3103H52.4034L52.2898 15.8489ZM55.2364 15.8489H53.5326L53.3447 16.7318H54.8315L54.7232 17.2314H53.2345L53.0417 18.157H54.7467L54.6325 18.6956H52.1771L52.9008 15.3103H55.3513L55.2364 15.8489ZM57.8751 15.8489H57.0764C56.6706 15.8489 56.4864 15.9344 56.4489 16.0994C56.336 16.638 57.7936 17.0667 57.6574 17.8979C57.5813 18.361 57.1755 18.6959 56.2409 18.6959H55.099L55.2113 18.1573H56.1329C56.4158 18.1573 56.7647 18.1718 56.8319 17.888C56.9402 17.401 55.5042 16.9212 55.6135 16.1096C55.6806 15.622 56.1134 15.3103 56.9931 15.3103H57.993L57.8751 15.8489ZM21.9582 23.0464C21.8409 23.0464 21.7127 23.0281 21.6053 23.0179L21.5675 22.5263C21.6616 22.5353 21.7849 22.5492 21.8969 22.5492C22.4074 22.5492 22.5919 22.2003 22.634 21.9979C22.7138 21.6292 22.5256 21.4924 22.2517 21.4924H21.6425L21.0385 24.3394H20.2928L21.01 20.9541H22.629C23.3614 20.9541 23.4459 21.5921 23.3561 22.0146C23.2196 22.6594 22.6293 23.0464 21.9582 23.0464ZM25.0039 24.4006C23.9616 24.4006 23.3747 23.6076 23.5778 22.6449C23.8338 21.4398 24.707 20.8928 25.7546 20.8928C26.7934 20.8928 27.393 21.6394 27.1757 22.6449C26.9114 23.8766 26.0619 24.4006 25.0039 24.4006ZM25.6372 21.4314C24.9612 21.4314 24.5136 21.88 24.3393 22.6449C24.1916 23.3014 24.4238 23.8626 25.1221 23.8626C25.7973 23.8626 26.2502 23.4098 26.4111 22.6449C26.5575 21.9598 26.326 21.4314 25.6372 21.4314ZM29.8828 21.4927H29.085C28.6789 21.4927 28.4944 21.5766 28.4567 21.7419C28.3443 22.2818 29.8035 22.7105 29.6658 23.5416C29.5905 24.0029 29.1841 24.3397 28.2496 24.3397H27.1076L27.22 23.8017H28.14C28.4238 23.8017 28.7736 23.8156 28.8399 23.532C28.9473 23.0467 27.5131 22.5653 27.6215 21.7533C27.6868 21.2661 28.1211 20.9547 29.0002 20.9547H30.001L29.8828 21.4927ZM33.1173 21.4927H32.0639L31.4606 24.3397H30.7152L31.3194 21.4927H30.2654L30.3836 20.9544H33.2312L33.1173 21.4927ZM33.2578 24.3397L33.5503 23.8017H34.618L34.3205 21.6249L32.8325 24.3397H32.0871L34.0261 20.9544H34.9189L35.4473 24.3397H33.2578ZM38.1265 24.3397H35.8367L36.5546 20.9544H37.3052L36.7013 23.8017H38.2438L38.1265 24.3397ZM42.1627 21.4927H41.3647C40.9589 21.4927 40.7747 21.5766 40.7366 21.7419C40.6249 22.2818 42.0832 22.7105 41.9457 23.5416C41.8702 24.0029 41.4644 24.3397 40.5292 24.3397H39.3876L39.4993 23.8017H40.4203C40.7038 23.8017 41.0533 23.8156 41.1199 23.532C41.227 23.0467 39.7928 22.5653 39.9021 21.7533C39.9674 21.2661 40.402 20.9547 41.2799 20.9547H42.281L42.1627 21.4927ZM45.2635 21.4927H43.5588L43.3706 22.3759H44.8574L44.7497 22.8752H43.2626L43.0679 23.8017H44.7732L44.659 24.3397H42.2045L42.927 20.9544H45.3768L45.2635 21.4927ZM47.4094 22.8795L47.9669 24.3397H47.1506L46.5364 22.4842C46.6302 22.4981 46.7488 22.4938 46.82 22.4938C47.2013 22.4938 47.5508 22.3328 47.6326 21.9316C47.6743 21.7193 47.6357 21.4871 47.2215 21.4871H46.5504L45.9464 24.3397H45.2004L45.9192 20.9544H47.4948C48.1557 20.9544 48.4198 21.2519 48.3783 21.8171C48.3309 22.4557 47.9047 22.8099 47.4094 22.8795ZM50.1644 24.3397H49.2831L48.7726 20.9544H49.5177L49.8675 23.6686L51.3537 20.9544H52.0907L50.1644 24.3397ZM52.5696 24.3397H51.8242L52.5405 20.9544H53.2872L52.5696 24.3397ZM56.3127 21.5398C56.101 21.4782 55.8654 21.4314 55.519 21.4314C54.8436 21.4314 54.2688 21.88 54.1084 22.6449C53.9474 23.4098 54.3291 23.8626 55.0049 23.8626C55.3596 23.8626 55.6422 23.8094 55.9119 23.7441L55.7274 24.3251C55.454 24.3675 55.1801 24.4006 54.8907 24.4006C53.853 24.4006 53.0835 23.8565 53.3435 22.6449C53.598 21.4314 54.5994 20.8928 55.6373 20.8928C55.8883 20.8928 56.1385 20.9259 56.379 20.9683L56.3127 21.5398ZM59.3207 21.4927H57.6156L57.4262 22.3759H58.9155L58.8056 22.8752H57.3194L57.1247 23.8017H58.8291L58.7152 24.3397H56.2607L56.9826 20.9544H59.433L59.3207 21.4927Z" fill="#304C9C"/>
<path fill-rule="evenodd" clip-rule="evenodd" d="M59.6474 19.9514L59.6994 19.7009H21.2761L21.2231 19.9514H59.6474Z" fill="#CC262D"/>
<path fill-rule="evenodd" clip-rule="evenodd" d="M6.47894 17.3887L5.00513 24.3334C5.00513 24.3334 9.52099 22.1169 10.072 21.8334C11.2044 21.2529 12.7683 20.4834 14.2142 19.9906C14.4901 19.8968 15.6713 19.5333 16.3576 19.4111C16.6254 19.3628 16.7372 19.3185 16.7337 19.269C16.7242 19.1263 16.457 19.1182 16.0029 19.1393C14.6188 19.2049 11.9656 20.2605 11.2031 20.6635L10.341 17.9926H15.8478C16.0942 17.2989 12.5887 17.3955 12.4782 17.3887H6.47894Z" fill="#304C9C"/>
</svg>
