<svg width="151" height="72" viewBox="0 0 151 72" fill="none" xmlns="http://www.w3.org/2000/svg">
<path d="M10.7695 32.0201C10.8195 33.5941 11.419 35.1006 12.464 36.2786C13.469 37.3371 14.881 37.9121 16.3395 37.8576C17.2979 37.8771 18.2439 37.6371 19.0774 37.1636C19.8289 36.7521 20.3799 36.0526 20.6039 35.2256H26.9039C26.1604 37.6501 25.0599 39.5166 23.2184 40.8256C21.2849 42.1621 18.9769 42.8491 16.6274 42.7876C9.84447 42.7866 4.99999 38.5121 4.99999 29.9626C4.97699 28.2876 5.23899 26.6211 5.77549 25.0341C6.25398 23.6306 7.02148 22.3426 8.02898 21.2541C9.03548 20.1871 10.2695 19.3612 11.6395 18.8377C13.1025 18.2537 14.668 17.9687 16.243 18.0002C19.9259 18.0002 22.4734 19.1652 24.3634 21.4931C26.2534 23.8211 27.1269 27.3306 27.1269 32.0201H10.7695ZM20.9434 28.0961C20.9279 27.3171 20.7719 26.5471 20.4829 25.8231C20.2359 25.2111 19.8649 24.6571 19.3924 24.1961C18.9489 23.7716 18.4209 23.4451 17.8424 23.2391C17.2674 23.0331 16.6609 22.9281 16.05 22.9286C14.748 22.9141 13.4905 23.4026 12.5395 24.2921C11.5655 25.3236 11.005 26.6776 10.9645 28.0961H20.9434Z" fill="#D51317"/>
<path d="M29.1474 53.4331V18.2502H35.1289L35.1789 21.1332C36.5634 18.9092 38.7969 18.1197 41.7319 18.1197C43.0644 18.1077 44.3814 18.4027 45.5818 18.9812C46.8353 19.5512 47.9408 20.4022 48.8118 21.4692C49.7558 22.6497 50.4698 23.9967 50.9173 25.4407C51.4508 27.1592 51.7098 28.9512 51.6848 30.7502C51.7023 32.4072 51.4848 34.0587 51.0388 35.6547C50.6538 37.0442 50.0128 38.3502 49.1488 39.5047C48.3458 40.5677 47.3053 41.4277 46.1103 42.0167C44.9193 42.6242 43.5969 42.9282 42.2604 42.9022C39.3574 42.9022 37.0284 42.1522 35.2744 39.6962V53.4331H29.1474ZM40.7274 37.5947C44.2997 37.5947 46.086 35.1703 46.0863 30.3217C46.1678 28.4907 45.6468 26.6837 44.6029 25.1777C43.7384 23.9182 42.3024 23.1737 40.7749 23.1917C39.2974 23.1807 37.9024 23.8737 37.0189 25.0577C35.9629 26.4592 35.4299 28.1852 35.5114 29.9382C35.5114 35.0428 37.25 37.595 40.7274 37.5947Z" fill="#2C2926"/>
<path d="M73.5498 23.3951C73.2463 22.2976 72.6723 21.2941 71.8798 20.4761C71.0068 19.6381 69.9448 19.0226 68.7838 18.6816C67.2868 18.2336 65.7283 18.0241 64.1658 18.0601C62.5513 18.0261 60.9403 18.2281 59.3843 18.6601C58.2123 18.9861 57.1263 19.5666 56.2038 20.3601C55.4008 21.1011 54.7933 22.0281 54.4343 23.0601C54.0368 24.1556 53.8348 25.3126 53.8373 26.4781H59.6273C59.7168 25.5036 60.1293 24.5866 60.7998 23.8736C61.4218 23.2361 62.4498 22.8821 63.8863 22.8821C64.8903 22.8286 65.8903 23.0456 66.7813 23.5111C67.4488 23.8551 67.8653 24.5461 67.8578 25.2971C67.9188 25.9951 67.6103 26.6741 67.0443 27.0871C66.5016 27.4538 65.4489 27.7481 63.8863 27.9701C62.3236 28.1921 60.8801 28.4389 59.5558 28.7106C58.3518 28.9366 57.1948 29.3651 56.1343 29.9781C55.1818 30.5466 54.4033 31.3661 53.8843 32.3466C53.2868 33.6076 53.0073 34.9956 53.0708 36.3896C53.0048 38.1435 53.6928 39.8415 54.9608 41.055C56.2205 42.2514 58.2063 42.8495 60.9183 42.8495C62.3568 42.8775 63.7868 42.626 65.1293 42.108C66.2483 41.6545 67.2473 40.9485 68.0483 40.045C68.0933 40.734 68.2218 41.4155 68.4313 42.0735H74.0173V27.3431C74.0532 26.0116 73.8958 24.6816 73.5498 23.3951ZM67.2593 35.2621C66.6573 36.5186 65.5953 37.4951 64.2928 37.9895C63.5838 38.265 62.8283 38.403 62.0678 38.396C60.0581 38.396 59.0533 37.5189 59.0533 35.7646C58.9993 34.8681 59.3718 33.9991 60.0583 33.4201C60.7283 32.8781 61.9565 32.4314 63.7428 32.0801C64.1678 31.9977 64.5554 31.9174 64.9058 31.8391C64.9058 31.8391 66.6253 31.4706 67.7558 31.1636L67.7168 33.2761C67.7188 33.9646 67.5623 34.6441 67.2593 35.2621Z" fill="#2C2926"/>
<path d="M92.7627 39.425C92.5787 39.8675 92.2907 40.26 91.9237 40.5685C91.4432 40.9905 90.9137 41.3535 90.3467 41.65C89.0782 42.221 87.6927 42.483 86.3032 42.4155C84.6862 42.473 83.0807 42.1185 81.6377 41.3865C80.3712 40.75 79.2733 39.8235 78.4318 38.683C77.5958 37.518 76.9943 36.2015 76.6613 34.807C76.2938 33.3355 76.1088 31.824 76.1113 30.307C76.0918 28.606 76.3668 26.914 76.9248 25.307C77.4108 23.8895 78.1568 22.575 79.1248 21.431C80.0237 20.3835 81.1327 19.5365 82.3797 18.9451C83.5512 18.3536 84.8472 18.0501 86.1597 18.0601C89.0942 18.0601 91.2952 18.7601 92.7627 21.1225V18.2501H98.8127V42.4635C98.8127 44.2495 98.6792 45.8205 98.0737 47.1765C97.5062 48.4795 96.6567 49.6399 95.5857 50.5739C94.4907 51.5069 93.2222 52.2139 91.8532 52.6554C88.8817 53.6039 85.6902 53.6124 82.7137 52.6794C81.3952 52.2629 80.1688 51.5969 79.1013 50.7174C78.0973 49.8729 77.2888 48.8195 76.7328 47.631C76.1418 46.341 75.8473 44.935 75.8713 43.516H81.6612C81.5887 44.7835 82.1107 46.013 83.0727 46.8415C84.1457 47.6665 85.4777 48.0825 86.8292 48.014C88.3482 48.0595 89.8362 47.5775 91.0402 46.65C92.1782 45.7635 92.8197 44.383 92.7627 42.9415V39.425ZM87.0447 37.535C88.5127 37.564 89.9137 36.921 90.8487 35.7885C91.8537 34.6245 92.3562 33.0375 92.3562 31.0275C92.3562 25.9875 90.5857 23.4674 87.0447 23.467C83.5037 23.4667 81.7332 25.8592 81.7332 30.6445C81.7332 32.7498 82.2356 34.4247 83.2402 35.669C84.1392 36.861 85.5517 37.554 87.0447 37.535Z" fill="#2C2926"/>
<path d="M144.488 32.2476C144.142 31.4121 143.549 30.7026 142.788 30.2141C141.737 29.5846 140.601 29.1091 139.414 28.8026C138.01 28.4026 136.287 27.9161 134.246 27.3431C133.256 27.0931 132.3 26.7236 131.399 26.2431C130.808 25.9606 130.428 25.3671 130.418 24.7121C130.381 24.0376 130.775 23.4136 131.399 23.1571C132.323 22.8076 133.308 22.6526 134.294 22.7026C135.351 22.6396 136.399 22.9181 137.285 23.4976C137.861 23.9511 138.253 24.6001 138.385 25.3216H144.431C144.306 23.3376 143.397 21.4846 141.905 20.1716C140.341 18.8001 137.868 18.0866 134.487 18.0866C132.908 18.0501 131.33 18.2306 129.8 18.6236C128.683 18.9131 127.629 19.4051 126.69 20.0761C125.976 20.6241 125.415 21.3476 125.063 22.1761C124.696 22.9706 124.509 23.8356 124.513 24.7106C124.5 25.6201 124.638 26.5251 124.92 27.3896C125.189 28.2461 125.695 29.0086 126.379 29.5896C127.365 30.3766 128.472 30.9991 129.657 31.4316C131.463 32.1081 133.318 32.6441 135.207 33.0346C136.202 33.2196 137.163 33.5586 138.054 34.0396C138.686 34.4411 139.045 35.1586 138.987 35.9056C138.978 36.6876 138.466 37.3746 137.719 37.6056C136.754 37.9951 135.72 38.1821 134.68 38.1556C133.466 38.1876 132.272 37.8451 131.259 37.1736C130.566 36.7066 130.105 35.9661 129.993 35.1381H123.57C123.632 36.1256 123.904 37.0886 124.367 37.9631C124.908 38.9966 125.677 39.8931 126.617 40.5836C127.678 41.3496 128.87 41.9151 130.134 42.2526C131.632 42.6551 133.177 42.8511 134.728 42.8361C138.173 42.8361 140.773 42.1437 142.528 40.7591C144.168 39.5266 145.105 37.5721 145.04 35.5216C145.084 34.4036 144.896 33.2891 144.488 32.2476Z" fill="#2C2926"/>
<path d="M106.23 32.0201C106.28 33.5941 106.88 35.1006 107.925 36.2786C108.93 37.3371 110.342 37.9121 111.8 37.8576C112.759 37.8771 113.705 37.6371 114.538 37.1636C115.29 36.7521 115.841 36.0526 116.065 35.2256H122.365C121.621 37.6501 120.521 39.5166 118.679 40.8256C116.746 42.1621 114.438 42.8491 112.088 42.7876C105.303 42.7876 100.458 38.5131 100.458 29.9636C100.435 28.2886 100.697 26.6221 101.233 25.0351C101.712 23.6316 102.479 22.3436 103.487 21.2551C104.494 20.1876 105.729 19.3612 107.1 18.8377C108.563 18.2537 110.129 17.9687 111.704 18.0002C115.387 18.0002 117.934 19.1652 119.824 21.4931C121.714 23.8211 122.588 27.3306 122.588 32.0201H106.23ZM116.404 28.0961C116.389 27.3171 116.233 26.5471 115.944 25.8231C115.697 25.2111 115.326 24.6571 114.853 24.1961C114.41 23.7716 113.882 23.4451 113.303 23.2391C112.728 23.0331 112.121 22.9276 111.51 22.9281C110.208 22.9136 108.95 23.4026 108 24.2926C107.026 25.3241 106.465 26.6781 106.425 28.0966L116.404 28.0961Z" fill="#2C2926"/>
</svg>
