<svg width="260" height="160" viewBox="0 0 260 160" fill="none" xmlns="http://www.w3.org/2000/svg">
<path d="M260 0H0V160H260V0Z" fill="#FE672A"/>
<mask id="mask0" mask-type="alpha" maskUnits="userSpaceOnUse" x="46" y="59" width="109" height="42">
<path d="M46 59.2051H154.887V100.037H46V59.2051Z" fill="white"/>
</mask>
<g mask="url(#mask0)">
<path fill-rule="evenodd" clip-rule="evenodd" d="M82.2623 75.573C80.0278 75.7539 77.9958 77.0897 76.7922 79.7166C76.4631 80.4353 76.5897 80.705 77.3843 80.702C81.0775 80.6882 84.7709 80.7062 88.4641 80.6878C89.4015 80.6833 89.5796 80.388 89.135 79.5711C87.7725 77.0676 85.7858 75.5459 82.2623 75.573ZM132.435 83.7998C132.253 88.2836 135.585 91.4773 139.464 91.4214C143.795 91.3588 146.796 88.3241 146.805 83.8391C146.814 79.5074 143.844 76.4745 139.671 76.3886C135.608 76.305 132.233 79.5604 132.435 83.7998ZM154.866 59.2051C154.866 72.1138 154.856 85.0228 154.887 97.9318C154.89 98.897 154.675 99.287 153.675 99.1919C152.775 99.1061 151.856 99.1171 150.952 99.1852C148.792 99.3475 147.17 98.6841 146.54 96.3337C145.865 96.6413 145.657 97.3041 145.205 97.7252C143.584 99.2381 141.592 99.8016 139.496 99.965C134.683 100.34 130.541 98.8599 127.336 95.0877C126.079 93.6074 125.085 91.954 124.554 90.0446C124.449 89.6667 124.41 89.2449 123.985 88.8307C123.985 91.7954 123.995 94.6364 123.982 97.4776C123.973 99.4305 124.223 99.1501 122.336 99.1717C121.326 99.1831 120.317 99.1745 119.307 99.1735C116.827 99.1714 115.706 98.0265 115.702 95.4598C115.695 90.8496 115.698 86.2393 115.702 81.6289C115.702 81.0807 115.633 80.5501 115.522 80.0105C115.135 78.1257 114.152 76.8192 112.205 76.5112C110.282 76.2073 108.48 76.4868 107.218 78.1841C106.493 79.159 106.213 80.3343 106.21 81.5547C106.199 87.0531 106.178 92.5514 106.214 98.0494C106.221 98.9499 105.99 99.2256 105.09 99.1954C103.039 99.1268 100.984 99.1401 98.9329 99.1907C98.1437 99.2102 97.8931 98.9831 97.9042 98.1599C97.949 94.8479 97.8955 91.5345 97.9414 88.2225C97.9533 87.3611 97.7808 87.0474 96.8463 87.0537C90.4193 87.098 83.9918 87.0761 77.5646 87.0781C76.3795 87.0785 76.3207 87.1663 76.6907 88.3006C78.1026 92.6303 83.7822 94.1079 87.0972 90.9561C87.8731 90.2188 88.6368 89.8886 89.6917 89.9226C91.8096 89.9911 93.9313 89.9599 96.0509 89.9337C96.7766 89.9247 97.0858 90.0575 96.6684 90.8418C94.3332 95.2295 91.0889 98.5525 86.1467 99.6688C82.0922 100.585 78.3011 99.7791 74.8371 97.3858C72.5352 95.7955 70.8422 93.6884 69.5417 91.2668C69.2392 91.2834 69.238 91.482 69.1996 91.6347C67.961 96.5821 64.5779 99.0292 59.8335 99.7996C56.2652 100.379 52.8443 99.9178 49.8554 97.7004C47.5992 96.0267 46.456 93.6316 46.0261 90.8654C45.9322 90.261 46.0697 89.9165 46.8035 89.929C49.0913 89.9679 51.3802 89.9649 53.6679 89.9288C54.2568 89.9194 54.4737 90.1692 54.6639 90.6809C55.4714 92.8518 58.7452 93.3801 60.2492 91.6031C61.1436 90.5463 60.7193 88.9547 59.3314 88.1823C57.4942 87.1599 55.5031 86.5242 53.528 85.8612C51.1795 85.0732 49.0985 83.8764 47.542 81.8955C45.665 79.5065 45.931 75.8437 47.5768 73.1355C49.6397 69.7409 52.8271 68.2885 56.6083 68.0323C59.389 67.8438 62.0321 68.3705 64.3542 70.0518C66.7427 71.7806 67.9291 74.2323 68.3988 77.0998C68.4743 77.5615 68.2784 77.8316 67.8029 77.8324C65.4137 77.8367 63.0246 77.8326 60.6353 77.8373C60.1711 77.8381 60.0459 77.5715 59.9253 77.1541C59.4142 75.3836 56.8989 74.6846 55.5175 75.9009C54.6179 76.693 54.7208 78.0017 55.8087 78.7956C56.6865 79.436 57.7125 79.7793 58.7375 80.1203C60.9978 80.872 63.3413 81.401 65.4139 82.6665C66.0807 83.0737 66.7025 83.526 67.2435 84.0979C67.4121 84.2762 67.5516 84.6312 67.8709 84.4838C68.1229 84.3676 68.0149 84.0531 68.0064 83.8303C67.921 81.6047 68.4032 79.4864 69.283 77.4744C71.2111 73.0658 74.3698 69.8536 78.9707 68.5805C85.7766 66.697 92.0755 69.1443 95.946 75.6707C96.7047 76.9501 97.2158 78.3347 97.9228 79.6723C97.9228 76.6155 97.9709 73.5576 97.8965 70.5026C97.8709 69.4491 98.1637 69.1302 99.1867 69.2089C100.391 69.3017 101.608 69.2191 102.819 69.2347C104.27 69.2535 105.051 69.8968 105.396 71.3257C105.441 71.5113 105.356 71.7851 105.622 71.8269C105.841 71.8614 105.974 71.6486 106.082 71.4824C108.943 67.0578 115.775 67.3251 119.597 69.6212C122.727 71.5011 123.785 74.5178 124.168 77.9328C124.198 78.2029 124.184 78.4784 124.192 78.7511C124.193 78.7845 124.208 78.8173 124.228 78.8983C124.628 78.695 124.592 78.2734 124.702 77.9586C126.21 73.6048 128.898 70.287 133.264 68.7988C137.737 67.2739 142.07 67.611 145.865 70.8566C146.033 71.0002 146.16 71.3035 146.433 71.1715C146.694 71.0453 146.578 70.7447 146.579 70.5221C146.587 67.8241 146.606 65.1261 146.575 62.4285C146.56 61.137 146.855 60.0689 148.111 59.4801C148.17 59.4522 148.173 59.2996 148.203 59.2051H154.866Z" fill="white"/>
</g>
<path fill-rule="evenodd" clip-rule="evenodd" d="M181.214 80.5441C183.027 80.5441 184.84 80.5486 186.652 80.5425C187.636 80.5392 187.727 80.4224 187.265 79.5004C186.004 76.9813 184.006 75.6084 181.176 75.5885C178.316 75.5687 176.373 77.0446 175.072 79.5047C174.626 80.3464 174.783 80.5384 175.776 80.5421C177.589 80.5492 179.401 80.5443 181.214 80.5441ZM164.963 59.2051C165.417 59.9976 166.38 60.4298 166.449 61.5141C166.477 61.9496 166.552 62.3894 166.552 62.8316C166.554 67.852 166.554 72.8725 166.554 77.8929V78.8821C167.341 77.243 168.16 75.6623 169.241 74.2438C172.782 69.5946 177.34 67.4075 183.208 68.1668C186.756 68.6258 189.645 70.2514 192.011 72.8645C194.247 75.335 195.514 78.3056 196.077 81.6116C196.326 83.0757 196.23 84.5353 196.258 85.9987C196.274 86.8226 195.927 87.0988 195.096 87.0947C188.668 87.0628 182.24 87.0767 175.813 87.0775C174.541 87.0777 174.492 87.1806 174.915 88.3973C176.512 92.9928 182.691 93.9568 185.429 90.818C186.012 90.1499 186.682 89.905 187.563 89.9253C189.851 89.978 192.14 89.9702 194.428 89.9278C195.173 89.9138 195.238 90.2055 194.947 90.7455C192.429 95.4082 188.971 98.922 183.567 99.7754C177.365 100.755 172.572 98.3037 168.928 93.2504C168.006 91.9714 167.384 90.5444 166.554 89.1066V90.1114C166.554 91.8532 166.56 93.5949 166.552 95.3367C166.54 97.9055 165.302 99.1737 162.819 99.1737C161.641 99.1737 160.46 99.12 159.286 99.1919C158.453 99.2432 158.278 98.9196 158.28 98.139C158.304 89.5667 158.294 80.9944 158.295 72.4221C158.295 68.0165 158.298 63.6108 158.299 59.2051H164.963Z" fill="white"/>
<mask id="mask1" mask-type="alpha" maskUnits="userSpaceOnUse" x="193" y="69" width="20" height="31">
<path d="M193.836 69.2354H212.108V99.1812H193.836V69.2354Z" fill="white"/>
</mask>
<g mask="url(#mask1)">
<path fill-rule="evenodd" clip-rule="evenodd" d="M193.836 99.1726C195.58 96.0141 197.216 93.0499 198.854 90.0876C199.823 88.3366 200.802 86.5917 201.764 84.8375C202.009 84.3909 201.975 83.9464 201.717 83.4857C200.24 80.8457 198.778 78.1971 197.316 75.5491C196.289 73.6901 195.282 71.8199 194.24 69.9701C193.906 69.3781 194.147 69.2451 194.681 69.2451C197.607 69.2455 200.533 69.2545 203.459 69.2354C203.898 69.2324 204.165 69.4219 204.343 69.7722C205.506 72.0586 206.895 74.215 207.986 76.5496C208.531 77.7133 209.398 78.7539 209.994 79.9227C210.544 81.0027 211.159 82.0384 211.787 83.0719C212.193 83.7425 212.222 84.4895 211.827 85.1969C209.331 89.6644 206.827 94.126 204.335 98.5953C204.139 98.9462 203.949 99.1837 203.497 99.1812C200.34 99.165 197.184 99.1726 193.836 99.1726Z" fill="white"/>
</g>
</svg>
