<?xml version="1.0" encoding="UTF-8"?>
<svg width="24px" height="24px" viewBox="0 0 24 24" version="1.1" xmlns="http://www.w3.org/2000/svg" xmlns:xlink="http://www.w3.org/1999/xlink">
    <!-- Generator: Sketch 50.2 (55047) - http://www.bohemiancoding.com/sketch -->
    <title>Fill 1</title>
    <desc>Created with Sketch.</desc>
    <defs></defs>
    <g id="Page-1" stroke="none" stroke-width="1" fill="none" fill-rule="evenodd">
        <g id="Address-settings" transform="translate(-294.000000, -326.000000)" fill="#97A9B2">
            <g id="Group-6" transform="translate(252.000000, 223.000000)">
                <path d="M52.5,110.5 L49.5,110.5 C48.6705,110.5 48,109.8295 48,109 C48,108.1705 48.6705,107.5 49.5,107.5 L52.5,107.5 C53.3295,107.5 54,108.1705 54,109 C54,109.8295 53.3295,110.5 52.5,110.5 Z M52.5,115 L49.5,115 C48.6705,115 48,114.3295 48,113.5 C48,112.6705 48.6705,112 49.5,112 L52.5,112 C53.3295,112 54,112.6705 54,113.5 C54,114.3295 53.3295,115 52.5,115 Z M49.5,124 L52.5,124 L52.5,121 L49.5,121 L49.5,124 Z M55.5,124 L57,124 L57,106 L45,106 L45,124 L46.5,124 L46.5,119.5 C46.5,118.6705 47.1705,118 48,118 L54,118 C54.8295,118 55.5,118.6705 55.5,119.5 L55.5,124 Z M60,124 L63,124 L63,113.5 L60,113.5 L60,124 Z M64.5,127 L43.5,127 C42.6705,127 42,126.3295 42,125.5 L42,104.5 C42,103.6705 42.6705,103 43.5,103 L58.5,103 C59.3295,103 60,103.6705 60,104.5 L60,110.5 L64.5,110.5 C65.3295,110.5 66,111.1705 66,112 L66,125.5 C66,126.3295 65.3295,127 64.5,127 Z" id="Fill-1"></path>
            </g>
        </g>
    </g>
</svg>
