<?xml version="1.0" encoding="utf-8"?>
<!-- Generator: Adobe Illustrator 25.4.1, SVG Export Plug-In . SVG Version: 6.00 Build 0)  -->
<svg version="1.1" id="Layer_1" xmlns="http://www.w3.org/2000/svg" xmlns:xlink="http://www.w3.org/1999/xlink" x="0px" y="0px"
	 width="40px" height="40px" viewBox="0 0 40 40" style="enable-background:new 0 0 40 40;" xml:space="preserve">
<style type="text/css">
	.st0{fill:#FFFFFF;stroke:#231F20;stroke-linejoin:round;stroke-miterlimit:10;}
	.st1{fill:#231F20;}
	.st2{fill:#708C9A;}
	.st3{fill:#FFFFFF;stroke:#708C9A;stroke-linejoin:round;stroke-miterlimit:10;}
	.st4{fill:none;stroke:#FFFFFF;stroke-linecap:round;stroke-miterlimit:10;}
	.st5{opacity:0.7;fill:#708C9A;}
	.st6{fill:#FFFFFF;stroke:#708C9A;stroke-linecap:round;stroke-linejoin:round;stroke-miterlimit:10;}
	.st7{opacity:0.7;fill:none;stroke:#708C9A;stroke-linecap:round;stroke-linejoin:round;stroke-miterlimit:10;}
	.st8{opacity:0.7;}
	.st9{fill:none;stroke:#708C9A;stroke-linecap:round;stroke-linejoin:round;stroke-miterlimit:10;}
	.st10{opacity:0.7;fill:#708C9A;stroke:#708C9A;stroke-linecap:round;stroke-linejoin:round;stroke-miterlimit:10;}
	.st11{fill:#FFFFFF;}
	.st12{fill:#FFFFFF;stroke:#708C9A;stroke-linecap:square;stroke-miterlimit:10;}
	.st13{fill:none;stroke:#708C9A;stroke-linecap:round;stroke-miterlimit:10;}
	.st14{fill:#FFFFFF;stroke:#708C9A;stroke-miterlimit:10;}
</style>
<path class="st13" d="M35.23,12.53L38.8,6.8"/>
<path class="st2" d="M20.99,33.92L39.62,4.11l-0.89-0.56l1.24-1.99C40.03,1.48,40,1.36,39.91,1.3l-2.03-1.27
	C37.79-0.03,37.67,0,37.61,0.09l-1.24,1.99l-0.89-0.56L16.86,31.31c-0.05,0.07-0.09,0.15-0.12,0.2l-1.22,6.16
	c-0.05,0.26,0.2,0.41,0.41,0.25l4.93-3.83 M20.46,32.77l-2.35-1.47l17.7-28.32l2.34,1.47L20.46,32.77z"/>
<path class="st2" d="M17.7,38.69c-0.15-0.23-0.46-0.3-0.69-0.16c-0.01,0.01-1,0.62-2.07,0.38c-0.3-0.07-0.9-0.6-1.22-0.88
	c-0.43-0.38-0.6-0.54-0.87-0.54c-0.59,0-0.68,0.62-0.74,0.99c-0.03,0.16-0.08,0.5-0.11,0.56c-0.05-0.03-0.17-0.18-0.24-0.28
	c-0.31-0.42-0.95-1.29-2.28-0.39c-0.06,0.04-0.1,0.05-0.11,0.05c-0.08-0.02-0.26-0.3-0.33-0.56l-0.25-0.88l-1.13,1.26
	c0.11-0.49,0.27-1.04,0.35-1.35c0.3-1.09,0.4-1.42-0.08-1.6c-0.47-0.18-0.6,0-1.41,1.73c-0.1-0.02-0.21-0.04-0.33-0.04
	c-0.15,0-0.48-0.16-0.84-0.35c-0.06-2.07-0.41-4.68-0.77-5.35C4.42,30.93,4.17,30.86,4,30.86c0,0,0,0,0,0c-0.3,0-0.92,0-2.54,4.54
	c-0.07,0.1-0.14,0.24-0.15,0.43c-0.34,0.97-0.71,2.15-1.14,3.53c-0.08,0.26,0.07,0.54,0.33,0.62c0.27,0.08,0.54-0.07,0.62-0.33
	c0.24-0.79,0.51-1.64,0.78-2.43c0.71,1.02,1.88,2.19,2.54,2.3c0.29,0.05,0.56-0.06,0.7-0.29c0.14-0.23,0.22-0.77,0.24-1.49
	c0.32,0.15,0.59,0.23,0.83,0.23c0.03,0,0.05,0,0.07,0c0,0,0,0,0.01,0.01c0.06,0.07,0.19,0.2,0.38,0.24
	c-0.19,0.87-0.17,1.3,0.08,1.56c0.15,0.16,0.36,0.23,0.58,0.19l0.17-0.03l0.96-1.06c0.14,0.2,0.34,0.39,0.59,0.48
	c0.23,0.09,0.59,0.13,1.02-0.16c0.53-0.36,0.6-0.27,0.91,0.15c0.2,0.28,0.56,0.65,1.08,0.65c0.02,0,0.05,0,0.07,0
	c0.76-0.05,0.88-0.72,0.97-1.2c0.6,0.53,1.13,0.98,1.64,1.1c1.48,0.33,2.76-0.48,2.82-0.51C17.78,39.23,17.85,38.92,17.7,38.69z
	 M3.89,32.19c0.2,0.8,0.39,2.42,0.47,3.85c-0.66-0.39-1.24-0.72-1.74-0.86C3.12,33.85,3.57,32.75,3.89,32.19z M4.37,38.4
	C3.78,38,2.72,36.78,2.4,36.14c0.43,0.15,1.16,0.58,1.63,0.86c0.13,0.08,0.26,0.15,0.38,0.22C4.42,37.71,4.41,38.13,4.37,38.4z"/>
</svg>
