<svg width="30" height="30" viewBox="0 0 30 30" fill="none" xmlns="http://www.w3.org/2000/svg">
<path d="M30 27.6562C30 28.9512 28.9512 30 27.6562 30H2.34375C1.04883 30 0 28.9512 0 27.6562V2.34375C0 1.04883 1.04883 0 2.34375 0H27.6562C28.9512 0 30 1.04883 30 2.34375V27.6562Z" fill="#224099"/>
<path d="M21.6973 13.043C21.2402 13.043 20.0918 13.1074 19.8926 13.9336C19.6992 14.7598 19.5117 15.6856 19.5117 15.6856C19.5117 15.6856 19.3711 16.6113 19.9336 16.7168C20.4961 16.8281 20.8359 16.8281 21.4102 16.3125L21.4336 16.7578H22.4414L23.0273 13.2891C23.0332 13.2949 22.1543 13.043 21.6973 13.043ZM21.498 15.498C21.498 15.498 21.2461 15.8145 20.7129 15.75L20.9062 14.4258C20.9062 14.4258 20.918 13.957 21.6973 14.1094L21.498 15.498Z" fill="#D32929"/>
<path fill-rule="evenodd" clip-rule="evenodd" d="M5.78906 11.7422H6.01172C6.31055 11.7656 6.58594 11.8184 6.81445 11.9121C6.75 12.2168 6.65625 12.498 6.5918 12.8086C6.375 12.7441 6.09375 12.6445 5.81836 12.709C5.75391 12.8262 5.74805 13.0078 5.70703 13.1543H6.52148C6.45703 13.4766 6.36328 13.7695 6.28711 14.0801H5.54883C5.4082 14.7656 5.30273 15.5098 5.17969 16.2012C5.11523 16.5586 5.04492 16.8633 4.88672 17.1387C4.73438 17.4141 4.53516 17.6191 4.31836 17.8301C4.06641 17.6191 3.83203 17.4023 3.60352 17.1738C3.71484 17.0391 3.83789 16.9394 3.92578 16.7812C4.01953 16.6113 4.03711 16.3711 4.08398 16.1309C4.20703 15.4687 4.33594 14.7187 4.45313 14.0742C4.30664 14.0684 4.13086 14.0859 4.00781 14.0625C4.05469 13.752 4.11328 13.4531 4.16602 13.1484H4.61133C4.7168 12.3926 4.92773 11.7422 5.78906 11.7422Z" fill="white"/>
<path d="M8.33203 13.043C7.875 13.043 6.72656 13.1074 6.52734 13.9336C6.33398 14.7598 6.14648 15.6855 6.14648 15.6855C6.14648 15.6855 6.00586 16.6113 6.56836 16.7168C7.13086 16.8223 7.4707 16.8281 8.04492 16.3125L8.06836 16.7578H9.08203L9.66797 13.2891C9.66797 13.2949 8.78906 13.043 8.33203 13.043ZM8.13867 15.498C8.13867 15.498 7.88672 15.8145 7.35352 15.75L7.54687 14.4258C7.54687 14.4258 7.55859 13.957 8.33789 14.1094L8.13867 15.498Z" fill="white"/>
<path d="M12.1758 13.2422L12 14.1562C12 14.1562 10.9219 13.8633 10.7813 14.0918C10.6406 14.3203 11.3438 14.4375 11.6719 14.8184C12 15.1992 11.9648 15.2754 11.9414 15.5684C11.918 15.8613 11.9062 16.6348 10.8223 16.7637C9.73828 16.8926 9.25781 16.5586 9.25781 16.5586L9.48633 15.6562C9.48633 15.6562 10.7578 16.0488 10.793 15.7441C10.8281 15.4395 10.2715 15.2637 10.2715 15.2637C10.2715 15.2637 9.63281 15.123 9.63281 14.2617C9.63281 13.4062 10.4063 13.1016 10.4063 13.1016C10.4063 13.1016 11.3496 12.9375 12.1758 13.2422ZM13.0254 12.3047L14.2734 12.1289L14.0684 13.1367H14.918L14.6367 14.0684L13.875 14.0918L13.6055 15.7676C13.6055 15.7676 13.998 15.7676 14.168 15.6152L14.4727 16.4707C14.4727 16.4707 13.0723 17.1211 12.6035 16.5996C12.1348 16.0781 12.7207 14.0801 12.7207 14.0801L12.2109 14.1035L12.375 13.1016L12.8965 13.1133L13.0254 12.3047Z" fill="white"/>
<path d="M14.9941 13.2422L16.0898 13.0898C16.0898 13.0898 16.2773 14.4902 16.2539 15.0469L16.916 13.916L16.7285 13.2773L17.8828 13.1016L18.2168 15.0586L18.5332 13.8867C18.5332 13.8867 18.5332 13.3125 18.4688 13.2656L19.5762 13.0488C19.5762 13.0488 19.7695 13.5703 19.6641 14.0156C19.5527 14.4609 18.7852 16.7344 18.7852 16.7344H17.4785L17.2148 15.3633L16.4414 16.752H15.1934C15.1992 16.752 15.1523 13.3711 14.9941 13.2422ZM23.1738 13.207L24.3281 13.0781L24.5684 15.3047L25.2188 13.8047C25.2188 13.8047 25.2832 13.3242 25.1543 13.2305L26.3086 13.0371C26.3086 13.0371 26.4844 13.5996 26.3438 14.0273C26.2031 14.4492 24.9609 17.0684 24.9609 17.0684C24.9609 17.0684 24.7441 17.8418 23.2441 18.2637L22.916 17.3965C22.916 17.3965 23.8594 16.9863 23.8594 16.7578L23.6309 16.7461L23.1738 13.207Z" fill="#D32929"/>
</svg>
