<svg width="30" height="30" viewBox="0 0 30 30" fill="none" xmlns="http://www.w3.org/2000/svg">
<path fill-rule="evenodd" clip-rule="evenodd" d="M0 2C0 0.89543 0.895431 0 2 0H28C29.1046 0 30 0.895431 30 2V28C30 29.1046 29.1046 30 28 30H2C0.89543 30 0 29.1046 0 28V2Z" fill="black"/>
<path fill-rule="evenodd" clip-rule="evenodd" d="M11.6984 4.1932C7.04052 5.59203 3.70374 9.85874 3.70374 14.9653C3.70374 20.1401 7.04052 24.408 11.6984 25.8062V4.1932ZM14.9655 3.70374H14.2006V4.89325H14.687C18.5103 4.89325 21.7082 8.04063 21.7082 11.8874C21.7082 15.7342 18.5794 18.8816 14.7562 18.9512V26.2963H14.9648C21.2217 26.2963 26.2963 21.2594 26.2963 14.9653C26.297 8.73942 21.2223 3.70374 14.9655 3.70374Z" fill="white"/>
</svg>
