<svg width="136" height="72" viewBox="0 0 136 72" fill="none" xmlns="http://www.w3.org/2000/svg">
<path d="M28.4789 45.259C28.3014 44.8328 28.3866 44.9074 28.7275 44.9074C33.0774 44.9039 37.4274 44.9039 41.7774 44.9003C42.033 44.9003 42.2816 44.8932 42.5373 44.8506C44.5294 44.5168 46.0741 42.6525 46.0634 40.7528C46.0599 40.0568 46.0812 39.3537 46.0812 38.6577C46.0847 34.6806 46.0847 30.7035 46.0847 26.7228C46.0847 26.4494 46.0847 26.1795 46.0563 25.9061C45.9462 24.855 45.5414 23.9815 44.8277 23.2748C44.6643 23.1115 44.4832 22.9588 44.2915 22.8167C43.4996 22.2344 42.6083 22 41.6318 22C29.2069 22.0036 16.7891 22.0036 4.36416 22.0036C4.1298 22.0036 3.89543 22.0071 3.66107 22.0462C2.19806 22.2912 1.12921 23.0831 0.447424 24.3898C0.0994277 25.0503 0 25.7676 0 26.5027C0 31.1971 0.00355099 35.895 0.00355099 40.5859C0.00355099 41.1398 0.0958766 41.6689 0.298283 42.1803C0.589464 42.9224 1.10436 43.5651 1.73998 44.041C2.46083 44.5772 3.33438 44.9003 4.21857 44.9003C10.0742 44.911 15.9297 44.8613 21.7924 44.9287C21.9806 44.9323 22.144 44.9749 22.3073 45.0637C24.5728 46.2888 26.8171 47.5636 29.0684 48.8135C29.1678 48.8668 29.2637 48.9236 29.3631 48.9804C29.6117 49.1189 29.8603 49.2574 30.1159 49.3959C30.123 49.3675 30.1266 49.3426 30.1266 49.3213C30.1266 49.2893 30.1159 49.2609 30.1053 49.229C30.0911 49.2006 30.0769 49.1722 30.0627 49.1402C29.5336 47.8441 29.0116 46.5515 28.4789 45.259ZM33.2337 31.9499C33.6208 30.5259 34.2954 29.2547 35.2791 28.1574C35.9466 27.4082 36.7527 26.8826 37.7363 26.6873C39.281 26.3748 40.7014 26.6767 41.9016 27.7348C42.516 28.2746 42.9208 28.9777 43.2155 29.7412C43.5777 30.6751 43.702 31.6516 43.702 32.827C43.6807 34.7551 43.0948 36.6904 41.8946 38.4269C41.4081 39.1264 40.8257 39.7372 40.0693 40.1526C38.7022 40.8984 37.296 40.9126 35.8721 40.3337C34.6399 39.8331 33.8871 38.8707 33.4006 37.6776C33.0988 36.939 32.9709 36.1613 32.8999 35.373C32.7969 34.2047 32.9248 33.0684 33.2337 31.9499ZM19.1966 35.0463C19.0617 36.0548 18.9623 37.0668 18.8948 38.0789C18.8273 39.0909 18.8451 40.11 18.8628 41.1256C18.8699 41.5162 18.7812 41.882 18.5681 42.2122C18.245 42.7058 17.7159 42.8976 17.1442 42.7271C16.6648 42.5851 16.3061 42.269 15.9794 41.9104C14.6123 40.419 13.6606 38.6719 12.9185 36.8041C12.6096 36.03 12.3432 35.2381 12.1018 34.4391C12.0734 34.3361 12.0663 34.226 11.9668 34.1231C11.7502 34.5563 11.5372 34.9753 11.3276 35.3943C10.5997 36.836 9.8824 38.2813 9.1509 39.723C8.69992 40.6072 8.18147 41.4452 7.48548 42.1696C7.27952 42.3862 7.04516 42.5744 6.75753 42.681C6.33496 42.8407 6.02247 42.7768 5.71709 42.4537C5.45077 42.1732 5.25901 41.8465 5.12052 41.4878C4.80449 40.6746 4.55592 39.8437 4.3322 38.9986C3.77115 36.8928 3.32728 34.7622 2.93312 32.6246C2.65259 31.0976 2.40402 29.5707 2.14125 28.0402C2.09153 27.7455 2.05247 27.4472 2.00276 27.1525C1.94949 26.8471 1.99565 26.5524 2.10574 26.2718C2.31879 25.7072 2.74846 25.4125 3.33793 25.3344C3.56164 25.306 3.79245 25.2989 4.01617 25.3379C4.50975 25.4338 4.85065 25.7072 5.01399 26.1937C5.12407 26.524 5.16314 26.8649 5.21285 27.2057C5.42946 28.6688 5.67448 30.1282 5.94435 31.5806C6.24264 33.1927 6.57643 34.7978 6.97059 36.3957C6.98479 36.4561 6.99189 36.52 7.06291 36.6017C7.16589 36.4099 7.25822 36.2359 7.3612 36.0584C8.59694 33.7041 9.83623 31.3497 11.072 28.9954C11.246 28.6652 11.4306 28.3421 11.7076 28.0828C12.1089 27.7135 12.5669 27.5928 13.0925 27.7384C13.4227 27.8343 13.6535 28.058 13.8204 28.3563C14.0086 28.6972 14.0939 29.07 14.1649 29.4429C14.4632 30.9947 14.8254 32.5322 15.319 34.0307C15.4788 34.5243 15.6599 35.0073 15.8339 35.4938C15.8445 35.5257 15.8481 35.5648 15.9013 35.5825C15.9688 35.3055 15.9865 35.0179 16.0185 34.7374C16.2529 32.7737 16.5369 30.8171 17.0589 28.9031C17.3324 27.8982 17.6555 26.9039 18.0923 25.9522C18.2024 25.7108 18.3266 25.4835 18.458 25.2563C18.8309 24.6135 19.534 24.4289 20.1483 24.5745C20.9153 24.7591 21.4373 25.4089 21.416 26.1653C21.4089 26.4068 21.345 26.6305 21.2385 26.8435C20.5886 28.1503 20.198 29.5458 19.8926 30.9698C19.5979 32.3192 19.3813 33.6792 19.1966 35.0463ZM21.6894 37.9049C21.2385 36.8609 21.0574 35.7707 21.0716 34.9789C21.0716 32.8234 21.5048 31.1225 22.4351 29.5565C22.8968 28.7788 23.4507 28.0722 24.1645 27.5076C26.0607 26.0055 28.8766 26.3961 30.3219 27.955C31.0569 28.7433 31.4831 29.695 31.7103 30.7461C31.9163 31.712 31.9269 32.6885 31.8346 33.6721C31.6642 35.4369 31.0605 37.0384 30.0414 38.4872C29.4341 39.3466 28.6813 40.0497 27.6799 40.4261C25.5955 41.2073 22.8222 40.5255 21.6894 37.9049Z" fill="#9C5E90"/>
<path d="M85.1238 39.8365C85.0706 39.4779 85.028 39.1157 84.9783 38.757C84.8256 37.6172 84.6693 36.4702 84.5131 35.3303C84.3604 34.1976 84.2112 33.0648 84.0585 31.9285C83.9023 30.7602 83.7425 29.5919 83.5827 28.4236C83.5294 28.0117 83.4691 27.6034 83.4123 27.2021C83.3697 27.1914 83.3554 27.1808 83.3377 27.1808C82.631 27.1808 81.9244 27.1808 81.2178 27.1808C80.5111 27.1808 79.8009 27.1808 79.0943 27.1772C78.97 27.1772 78.9061 27.2057 78.899 27.337C78.899 27.3797 78.8777 27.4258 78.867 27.4684C78.345 29.6914 77.8195 31.9107 77.4217 34.1692C77.4182 34.1692 77.4182 34.1656 77.4146 34.1621C77.4146 34.1656 77.4146 34.1656 77.4146 34.1692C77.3436 34.1159 77.3436 34.0413 77.3259 33.9703C77.0524 32.5002 76.7542 31.0301 76.4417 29.5706C76.2854 28.832 76.115 28.1041 75.9623 27.3654C75.9374 27.227 75.8806 27.1808 75.7634 27.1808C75.7563 27.1808 75.7492 27.1808 75.7386 27.1808C75.6285 27.1879 75.5184 27.1879 75.4083 27.1879C75.2983 27.1879 75.1882 27.1843 75.0781 27.1843C73.9737 27.1843 72.8658 27.1843 71.7615 27.1843C71.7544 27.1843 71.7473 27.1843 71.7402 27.1843C71.7331 27.1843 71.7295 27.1843 71.7224 27.1843C71.7153 27.1843 71.7118 27.1843 71.7047 27.1843C71.7011 27.1843 71.6976 27.1843 71.694 27.1843C71.6869 27.1843 71.6763 27.1843 71.6691 27.1843C71.5626 27.1914 71.5555 27.2199 71.5307 27.3797C71.4809 27.749 71.4312 28.1183 71.3851 28.4876C71.2466 29.5493 71.1116 30.6111 70.9767 31.6728C70.8205 32.8801 70.6678 34.0839 70.5115 35.2913C70.373 36.3779 70.231 37.468 70.0925 38.5582C70.0357 39.034 69.9753 39.5099 69.9185 39.9679C69.9576 40.0176 69.9931 40.0176 70.0392 40.0176C70.5399 40.0176 71.0371 40.0176 71.5413 40.0176C72.0384 40.0176 72.5356 40.0176 73.0327 40.0212C73.1677 40.0212 73.2103 39.9715 73.2138 39.8508C73.2138 39.7975 73.228 39.7407 73.2316 39.6874C73.3133 38.8742 73.3878 38.061 73.4659 37.2514C73.6257 35.6357 73.7891 34.0165 73.9524 32.4008C73.9879 32.0563 74.0235 31.7119 74.0661 31.3497C74.0696 31.3532 74.0696 31.3532 74.0732 31.3568C74.0732 31.3532 74.0732 31.3532 74.0732 31.3497C74.1442 31.4065 74.1548 31.474 74.169 31.5308C74.4815 32.7523 74.794 33.9703 75.103 35.1918C75.49 36.7223 75.8771 38.2493 76.2641 39.7797C76.3209 40.0034 76.3209 40.007 76.5375 40.007C76.8607 40.007 77.1838 40.007 77.507 40.007C77.8301 40.007 78.1497 40.007 78.4693 40.0105C78.6113 40.0105 78.6894 39.9786 78.6965 39.8259C78.6965 39.7904 78.7179 39.7584 78.725 39.7194C79.3819 37.0135 80.0353 34.3112 80.6887 31.6018C80.71 31.513 80.7135 31.4242 80.7916 31.3497C80.7916 31.3532 80.7916 31.3532 80.7916 31.3568C80.7952 31.3532 80.7952 31.3532 80.7987 31.3497C80.82 31.5272 80.8414 31.6977 80.8591 31.8681C80.9763 32.9618 81.0864 34.052 81.2036 35.1457C81.3278 36.3175 81.4521 37.4929 81.5728 38.6647C81.6119 39.0518 81.6545 39.4424 81.6936 39.8294C81.7042 39.9431 81.7291 40.007 81.8711 40.007C82.9045 39.9999 83.9343 40.0034 84.9676 40.007C84.9711 40.007 84.9711 40.007 84.9747 40.007C85.1203 40.0176 85.1416 39.9644 85.1238 39.8365Z" fill="#020101"/>
<path d="M100.799 39.8578C100.724 39.2897 100.646 38.7251 100.572 38.1569C100.398 36.8714 100.224 35.586 100.05 34.3005C99.897 33.1678 99.7478 32.035 99.5951 30.8987C99.4389 29.7375 99.2791 28.5763 99.1228 27.4187C99.0909 27.1772 99.0944 27.1772 98.8423 27.1772C97.5178 27.1772 96.1897 27.1772 94.8652 27.1772C94.8226 27.1772 94.7729 27.1772 94.7303 27.1772C94.7054 27.1772 94.6841 27.1808 94.6664 27.1879C94.6379 27.2021 94.6166 27.227 94.6131 27.2767C94.606 27.3299 94.5847 27.3832 94.574 27.4365C94.0414 29.6629 93.5194 31.8859 93.1146 34.1443C93.04 34.1017 93.04 34.052 93.0187 34.0129C92.6032 31.8006 92.1452 29.599 91.6551 27.4045C91.609 27.1843 91.609 27.1843 91.3746 27.1843C90.0785 27.1843 88.7788 27.1843 87.4792 27.1843C87.4365 27.1843 87.3868 27.1879 87.3442 27.1843C87.3158 27.1843 87.2945 27.1879 87.2803 27.195C87.2554 27.2128 87.2448 27.2412 87.2377 27.2909C87.2093 27.5217 87.1773 27.7596 87.1418 27.9904C87.0069 29.0522 86.8719 30.1139 86.737 31.1757C86.5985 32.2552 86.46 33.3382 86.3215 34.4177C86.2008 35.3445 86.0872 36.2713 85.9664 37.2017C85.8528 38.0859 85.7427 38.9665 85.6255 39.8472C85.6078 39.9892 85.654 40.0176 85.7818 40.0176C86.144 40.0105 86.5097 40.0141 86.8719 40.0141C87.4721 40.0141 88.0722 40.0141 88.6687 40.0141C88.7433 40.0141 88.7966 40.0141 88.8285 40.0034C88.8747 39.9821 88.8818 39.9324 88.896 39.801C88.928 39.5276 88.9528 39.2613 88.9812 38.9878C89.0807 38.0042 89.1765 37.0206 89.276 36.0334C89.3789 35.0249 89.4819 34.0093 89.5849 33.0009C89.6417 32.454 89.6985 31.9072 89.7553 31.3426C89.7589 31.3461 89.7624 31.3497 89.766 31.3532C89.766 31.3497 89.766 31.3461 89.766 31.339C89.837 31.4029 89.8477 31.4775 89.8654 31.545C90.082 32.4043 90.3022 33.2672 90.5224 34.1265C91.0017 36.0157 91.4811 37.9048 91.9605 39.7939C92.0138 40.0141 92.0173 40.0141 92.2481 40.0141C92.8198 40.0141 93.3916 40.0141 93.9633 40.0141C94.1053 40.0141 94.1905 40.0141 94.2544 39.9963C94.3574 39.9608 94.3752 39.872 94.4355 39.6341C95.0889 36.9354 95.7388 34.2402 96.3921 31.545C96.4028 31.5023 96.3886 31.4313 96.449 31.4136C96.4596 31.41 96.4774 31.4065 96.4951 31.4065C96.5803 32.209 96.6585 33.0115 96.7437 33.814C96.9248 35.5292 97.1023 37.2443 97.2834 38.9594C97.3154 39.2577 97.3545 39.556 97.3793 39.8543C97.39 39.9892 97.4432 40.0283 97.564 40.0176C97.5888 40.0141 97.6172 40.0176 97.6456 40.0176C98.6257 40.0176 99.6058 40.0176 100.589 40.0176C100.646 40.0176 100.71 40.0283 100.763 40.0105C100.771 40.007 100.778 40.0034 100.785 39.9999C100.817 39.9501 100.806 39.904 100.799 39.8578Z" fill="#020101"/>
<path d="M68.9354 37.3013C69.3118 36.4668 69.4822 35.5755 69.5781 34.67C69.6527 33.935 69.642 33.2035 69.5816 32.4684C69.5142 31.6872 69.3757 30.9202 69.0952 30.1887C68.4844 28.5801 67.38 27.5041 65.7004 27.0496C65.395 26.9644 65.0896 26.9076 64.7807 26.872C64.2019 26.8081 63.6195 26.8152 63.0336 26.8827C62.2275 26.9786 61.4818 27.2414 60.8072 27.6959C59.8555 28.3422 59.2341 29.237 58.8577 30.313C58.4955 31.325 58.3818 32.3796 58.4031 33.4485C58.4031 33.6367 58.3996 33.8284 58.4031 34.0202C58.4386 35.1352 58.6197 36.2218 59.0636 37.2551C59.6353 38.5903 60.5799 39.5562 61.9648 40.0249C62.8703 40.3303 63.8113 40.4049 64.7594 40.309C64.8411 40.3019 64.9192 40.2912 65.0009 40.2806C66.8722 40.0178 68.1648 39.0022 68.9354 37.3013ZM62.4442 36.4349C62.3021 36.1153 62.2311 35.7815 62.1814 35.4406C62.1068 34.9115 62.0784 34.3717 62.0642 33.8391C62.0393 33.0011 62.0855 32.1666 62.2808 31.3534C62.3802 30.9628 62.5329 30.597 62.7886 30.281C63.3923 29.5388 64.5321 29.6418 65.0683 30.2064C65.3205 30.4692 65.4909 30.7746 65.6045 31.1119C65.8282 31.7511 65.8993 32.4187 65.9206 33.0934C65.949 33.9953 65.8957 34.8902 65.7075 35.7744C65.6365 36.1224 65.5051 36.4455 65.2991 36.7438C64.7168 37.5996 63.0407 37.7842 62.4442 36.4349Z" fill="#010101"/>
<path d="M117.08 34.2724C117.148 34.1765 117.24 34.1517 117.322 34.1091C118.486 33.4628 119.165 32.2626 119.15 30.9842C119.147 30.6895 119.108 30.3876 119.023 30.0929C118.749 29.0809 118.096 28.3849 117.194 27.902C116.228 27.3835 115.173 27.2095 114.094 27.1953C112.943 27.1776 111.786 27.1882 110.635 27.1882C110.426 27.1882 110.216 27.1953 110.01 27.1847C109.889 27.1776 109.843 27.2166 109.843 27.3089C109.843 27.3231 109.843 27.3338 109.847 27.3516C109.847 27.3551 109.847 27.3551 109.847 27.3587C109.854 27.4119 109.847 27.4652 109.847 27.5184C109.847 29.4608 109.847 31.4032 109.847 33.3456V33.3492C109.847 35.4939 109.847 37.6316 109.847 39.7764V39.78C109.847 39.8084 109.847 39.8368 109.847 39.8616C109.847 40.025 109.861 40.0143 110.078 40.0143C111.047 40.0143 112.02 40.0143 112.989 40.0143C113.302 40.0143 113.302 40.0143 113.302 39.6948C113.305 37.969 113.309 36.2468 113.313 34.521C113.313 34.4642 113.305 34.4002 113.32 34.3328C113.327 34.2937 113.337 34.2511 113.362 34.212C113.419 34.3292 113.465 34.4144 113.508 34.5032C113.671 34.8441 113.835 35.1815 113.998 35.5224C114.559 36.6764 115.113 37.834 115.67 38.9881C115.805 39.2651 115.94 39.5456 116.072 39.819C116.143 39.9717 116.231 40.0214 116.398 40.0214C117.46 40.0143 118.522 40.0214 119.584 40.0179C119.647 40.0179 119.729 40.0463 119.8 39.9717C119.601 39.5527 119.402 39.1372 119.204 38.7218C118.497 37.2375 117.783 35.7532 117.08 34.2724ZM115.532 31.6695C115.528 31.6837 115.521 31.6979 115.518 31.7122C115.518 31.7157 115.518 31.7157 115.514 31.7193C115.503 31.7512 115.493 31.7796 115.479 31.8151C115.479 31.8151 115.479 31.8187 115.475 31.8187C115.461 31.8471 115.45 31.8755 115.432 31.9075C115.432 31.911 115.429 31.9146 115.429 31.9181C115.415 31.943 115.401 31.9678 115.383 31.9927C115.379 31.9962 115.379 31.9998 115.376 32.0033C115.358 32.0282 115.34 32.053 115.322 32.0744L115.319 32.0779C115.244 32.1702 115.148 32.2484 115.038 32.3194C114.63 32.5715 114.179 32.6354 113.717 32.678C113.291 32.7135 113.291 32.7064 113.291 32.2768V32.2732C113.291 31.8933 113.291 31.5133 113.291 31.1333C113.291 30.7427 113.291 30.3557 113.291 29.9651V29.9615C113.291 29.6419 113.291 29.6455 113.6 29.6668C113.934 29.6916 114.268 29.7236 114.587 29.8337C115.209 30.0467 115.592 30.6078 115.592 31.2292C115.596 31.3784 115.575 31.524 115.532 31.6695Z" fill="#010101"/>
<path d="M108.632 40.0386C108.834 40.0386 108.838 40.0351 108.838 39.8291C108.838 39.1012 108.838 38.3768 108.838 37.6488C108.838 37.3044 108.838 37.3044 108.497 37.3044C107.499 37.3044 106.498 37.3044 105.503 37.3044C105.503 37.3044 105.503 37.3044 105.5 37.3044C105.287 37.3044 105.283 37.3008 105.283 37.1055C105.283 36.4521 105.283 35.7987 105.283 35.1454C105.283 34.9607 105.287 34.9607 105.482 34.9572C105.535 34.9572 105.592 34.9572 105.645 34.9572C106.48 34.9572 107.318 34.9572 108.152 34.9572C108.344 34.9572 108.348 34.9536 108.348 34.7619C108.348 34.3428 108.348 33.9274 108.348 33.5084C108.348 33.1639 108.341 32.8195 108.348 32.4715C108.348 32.3614 108.33 32.2975 108.23 32.2939C108.216 32.2939 108.202 32.2939 108.188 32.2975C108.174 32.301 108.159 32.301 108.145 32.301C108.106 32.301 108.06 32.2975 108.021 32.2975C107.179 32.2975 106.334 32.2975 105.493 32.2975H105.489C105.283 32.2975 105.28 32.2939 105.28 32.088C105.28 31.4523 105.28 30.8167 105.28 30.1811C105.28 29.9538 105.283 29.9503 105.521 29.9503C106.402 29.9467 107.282 29.9467 108.163 29.9432C108.38 29.9396 108.596 29.9538 108.816 29.9183C108.82 29.8579 108.827 29.8011 108.824 29.7479C108.824 28.9773 108.824 28.2032 108.824 27.4326C108.824 27.184 108.827 27.2054 108.582 27.2054C106.42 27.216 104.261 27.1769 102.102 27.2302C102.098 27.2302 102.095 27.2302 102.091 27.2302C101.96 27.2338 101.889 27.2267 101.842 27.2373C101.786 27.2586 101.796 27.3261 101.796 27.5391C101.818 30.1811 101.825 32.8266 101.818 35.4649C101.814 36.9066 101.814 38.3519 101.814 39.7936C101.814 40.0528 101.814 40.0457 102.024 40.0457C102.027 40.0457 102.031 40.0457 102.034 40.0457C104.239 40.0386 106.434 40.0386 108.632 40.0386Z" fill="#020202"/>
<path d="M129.225 40.0102C129.605 40.0102 129.988 40.0102 130.368 40.0102C132.129 40.0102 133.891 40.0102 135.656 40.0102C136.06 40.0102 135.996 40.0351 135.996 39.6835C136 38.9769 135.996 38.2667 135.996 37.56C135.996 37.4073 136.004 37.3363 135.975 37.2972C135.94 37.2688 135.865 37.2759 135.709 37.2759C134.693 37.2759 133.674 37.2759 132.658 37.2759C132.52 37.2759 132.463 37.2724 132.442 37.2404C132.41 37.212 132.42 37.1481 132.42 37.0309C132.42 36.406 132.42 35.7774 132.42 35.1525C132.42 34.9003 132.413 34.9216 132.662 34.9216C133.496 34.9216 134.335 34.9216 135.169 34.9216C135.489 34.9216 135.489 34.9216 135.489 34.6127C135.489 34.0055 135.489 33.3947 135.489 32.7875C135.489 32.6703 135.482 32.5531 135.492 32.4359C135.499 32.3543 135.482 32.3046 135.446 32.2797C135.414 32.262 135.371 32.2584 135.308 32.2655C135.236 32.2726 135.162 32.2655 135.091 32.2655C134.267 32.2655 133.44 32.262 132.612 32.2691C132.531 32.2691 132.481 32.2584 132.456 32.2229C132.431 32.1945 132.42 32.1519 132.42 32.0808C132.428 31.4275 132.424 30.7741 132.424 30.1207C132.424 29.9218 132.428 29.9183 132.634 29.9183C133.287 29.9183 133.94 29.9183 134.594 29.9183C134.981 29.9183 135.375 29.9183 135.762 29.9183C135.972 29.9183 135.972 29.9147 135.975 29.7194C135.979 29.549 135.979 29.375 135.979 29.2046C135.979 28.6044 135.979 28.0043 135.979 27.4078C135.979 27.3048 135.979 27.2515 135.954 27.2267C135.925 27.2018 135.865 27.2018 135.762 27.1982C135.744 27.1982 135.727 27.1982 135.709 27.1982C134.104 27.1982 132.495 27.1982 130.886 27.1982C130.315 27.1982 129.743 27.1982 129.171 27.2018C128.987 27.2018 128.987 27.2053 128.983 27.3971C128.983 27.4149 128.983 27.4326 128.983 27.4504C128.976 29.4957 128.976 31.5482 128.976 33.6007C128.976 33.6007 128.98 33.6007 128.976 33.6007C128.976 34.1866 128.976 34.7725 128.98 35.3584C128.98 36.5728 128.98 37.7802 128.98 38.9946C128.98 39.2574 128.98 39.5202 128.98 39.7829C128.98 39.9108 128.976 39.9711 129.001 39.9996C129.033 40.0138 129.097 40.0102 129.225 40.0102Z" fill="#020101"/>
<path d="M127.772 40.1134C127.974 40.0672 127.974 40.0637 127.985 39.8435C128.014 39.1546 127.999 38.4622 127.999 37.7733C127.999 37.5851 127.999 37.3969 127.999 37.1909C127.999 37.1235 127.999 37.056 127.999 36.985C127.854 37.0205 127.747 37.0489 127.644 37.0773C127.151 37.1945 126.65 37.2833 126.135 37.2584C126.071 37.2549 126.007 37.2513 125.943 37.2442C124.7 37.1341 123.809 36.5056 123.312 35.3231C123.312 35.3196 123.308 35.316 123.308 35.3125C122.996 34.5668 122.939 33.7855 123.014 32.9866C123.078 32.3048 123.298 31.6763 123.699 31.1188C124.2 30.4299 124.86 29.9895 125.73 29.8866C125.865 29.8688 126 29.8617 126.135 29.8617C126.536 29.8582 126.93 29.9185 127.328 29.9895C127.545 30.025 127.761 30.1067 127.992 30.1174C127.992 29.1409 127.989 28.1821 127.996 27.2198C127.996 27.0813 127.921 27.0529 127.818 27.0351C127.811 27.0351 127.8 27.0316 127.793 27.0316C126.593 26.8079 125.393 26.7439 124.2 27.0351C124.193 27.0387 124.186 27.0387 124.178 27.0422C122.137 27.55 120.666 28.7573 119.843 30.6607C119.804 30.7601 119.757 30.8524 119.722 30.9554C119.399 31.8005 119.264 32.6634 119.274 33.5299C119.285 34.1904 119.381 34.8508 119.544 35.5184C119.548 35.5326 119.551 35.5504 119.555 35.5646C119.555 35.5717 119.559 35.5788 119.559 35.5823C119.736 36.2712 120.002 36.8962 120.35 37.4537C120.943 38.3876 121.778 39.1298 122.854 39.6589C122.904 39.6837 122.957 39.705 123.007 39.7299C124.534 40.433 126.139 40.4827 127.772 40.1134Z" fill="#020101"/>
<path d="M57.6535 27.3052C57.6535 27.0815 57.6535 27.0815 57.4227 27.0317C56.7267 26.8897 56.0236 26.8329 55.3134 26.8542C54.1131 26.8862 52.9768 27.1631 51.9577 27.813C51.0167 28.4131 50.2745 29.1694 49.7632 30.0891C49.5324 30.5117 49.3442 30.9662 49.2164 31.4598C48.8897 32.6565 48.879 33.8603 49.1063 35.0747C49.4294 36.7969 50.2816 38.1854 51.7233 39.1903C52.8987 40.0141 54.2339 40.3337 55.6543 40.3302C56.2579 40.3302 56.8509 40.2591 57.4298 40.1064C57.5292 40.0816 57.586 40.0674 57.618 40.039C57.6535 40.0035 57.6535 39.9396 57.6535 39.8082C57.6535 38.9559 57.6535 38.1001 57.6535 37.2479C57.657 37.1733 57.657 37.0988 57.657 36.9922C57.5185 37.0242 57.412 37.0526 57.309 37.0775C56.8119 37.1946 56.3148 37.2799 55.7999 37.2586C54.5286 37.2089 53.5912 36.6229 53.0336 35.4689C52.8206 35.0214 52.707 34.5456 52.6679 34.0556C52.5827 33.0933 52.707 32.17 53.229 31.3355C53.4491 30.9804 53.7119 30.6786 54.0173 30.4442C54.4079 30.1424 54.8731 29.9542 55.4235 29.8867C55.9526 29.8264 56.471 29.9009 56.9894 29.9968C57.206 30.0359 57.4227 30.0891 57.657 30.1353C57.657 30.0536 57.657 30.0039 57.657 29.9506C57.6535 29.0665 57.6535 28.1823 57.6535 27.3052Z" fill="#010101"/>
<path d="M28.0131 30.2487C27.761 29.8865 27.4095 29.7125 26.9656 29.7302C26.5324 29.748 26.1844 29.9575 25.8896 30.2522C25.2682 30.8701 24.8386 31.6158 24.5545 32.4361C24.0858 33.7783 24.0645 35.1171 24.6362 36.438C24.7533 36.7079 24.8989 36.9565 25.112 37.1624C25.4209 37.4536 25.776 37.5459 26.1915 37.443C26.4152 37.3861 26.6176 37.2867 26.8058 37.1589C27.31 36.8215 27.7006 36.367 27.9847 35.8344C28.489 34.8969 28.7269 33.892 28.7375 32.8835C28.734 32.5035 28.7233 32.1769 28.6558 31.8502C28.5422 31.2785 28.3469 30.7352 28.0131 30.2487Z" fill="#9C5E90"/>
<path d="M36.7494 36.9708C37.1187 37.4715 37.6088 37.6028 38.1911 37.3827C38.319 37.333 38.4433 37.2726 38.5533 37.198C39.0434 36.8713 39.4375 36.4488 39.7287 35.9374C40.2933 34.9609 40.5064 33.8992 40.5419 32.7877C40.5526 32.5072 40.5277 32.2231 40.4815 31.9497C40.3715 31.3283 40.1726 30.7388 39.7997 30.2203C39.6506 30.0144 39.4624 29.8688 39.2174 29.7907C38.8197 29.6664 38.4468 29.7303 38.0988 29.9469C37.6301 30.2381 37.3069 30.6607 37.0158 31.1116C36.1635 32.4575 35.8155 33.9027 36.128 35.4758C36.2381 36.012 36.4192 36.5233 36.7494 36.9708Z" fill="#9C5E90"/>
</svg>
