<svg width="136" height="34" viewBox="0 0 136 34" fill="none" xmlns="http://www.w3.org/2000/svg">
<g id="Square,_Inc._logo 1" clip-path="url(#clip0_1878_341)">
<path id="Vector" fill-rule="evenodd" clip-rule="evenodd" d="M5.68125 2.39313e-07H28.3188C29.8257 -0.000436868 31.2713 0.597927 32.3371 1.66342C33.4028 2.7289 34.0017 4.1742 34.0017 5.68125V28.3171C34.0017 31.4557 31.4573 34 28.3188 34H5.68125C2.54331 33.9991 0 31.4551 0 28.3171V5.68125C0 2.54357 2.54357 2.39313e-07 5.68125 2.39313e-07ZM26.0307 27.819C27.021 27.819 27.8239 27.0161 27.8239 26.0258L27.819 7.97583C27.819 6.98552 27.0161 6.18271 26.0258 6.18271H7.97748C7.50164 6.18271 7.0453 6.37186 6.70897 6.70849C6.37265 7.04512 6.18394 7.50164 6.18437 7.97748V26.0258C6.18437 27.0161 6.98717 27.819 7.97748 27.819H26.0307Z" fill="#3E4348"/>
<path id="Vector_2" d="M13.3931 21.6096C12.8279 21.6052 12.372 21.1457 12.372 20.5804V13.3749C12.3707 13.101 12.4786 12.8379 12.6718 12.6438C12.865 12.4497 13.1275 12.3406 13.4014 12.3406H20.6168C20.8905 12.341 21.1528 12.4503 21.346 12.6443C21.539 12.8383 21.647 13.1012 21.6461 13.3749V20.5787C21.647 20.8524 21.539 21.1152 21.346 21.3092C21.1528 21.5033 20.8905 21.6126 20.6168 21.613L13.3931 21.6096Z" fill="#3E4348"/>
<path id="Vector_3" d="M51.3027 15.4848C50.2503 15.1978 49.2539 14.9273 48.4803 14.5825C47.0484 13.9425 46.382 13.055 46.382 11.7914C46.382 9.40276 48.6914 8.32721 50.991 8.32721C53.1766 8.32721 55.0853 9.2312 56.3671 10.8709L56.4544 10.9831L58.302 9.53803L58.2129 9.42585C56.5089 7.25827 53.985 6.07056 51.1031 6.07056C49.1847 6.07056 47.4261 6.58853 46.1544 7.53046C44.7225 8.57795 43.9669 10.0972 43.9669 11.9102C43.9669 16.125 47.9358 17.1525 51.1263 17.979C54.3546 18.8303 56.3324 19.4769 56.3324 21.938C56.3324 24.3613 54.3726 25.9269 51.3406 25.9269C49.8412 25.9269 47.065 25.5294 45.3197 22.8636L45.2388 22.7381L43.2956 24.1453L43.3715 24.2592C45.0211 26.7566 47.8683 28.1902 51.1923 28.1902C55.7071 28.1902 58.7424 25.6414 58.7424 21.8507C58.7424 17.5122 54.6151 16.3888 51.3027 15.4848Z" fill="#3E4348"/>
<path id="Vector_4" fill-rule="evenodd" clip-rule="evenodd" d="M73.4701 14.6091V12.3277H75.6426V33.9969H73.4701V25.5311C72.2296 27.2319 70.3689 28.1622 68.1814 28.1622C64.0509 28.1622 61.164 24.8548 61.164 20.0792C61.164 15.3036 64.0574 11.9697 68.1814 11.9697C70.354 11.9697 72.2148 12.9051 73.4701 14.6091ZM63.4537 20.0528C63.4537 24.4737 65.9858 26.0491 68.3562 26.0491L68.3612 26.0507C71.4641 26.0507 73.4701 23.6753 73.4701 20.0528C73.4701 16.4302 71.4609 14.0878 68.3562 14.0878C64.742 14.0878 63.4537 17.1693 63.4537 20.0528Z" fill="#3E4348"/>
<path id="Vector_5" d="M90.0057 12.3274V20.8805C90.0057 23.8747 87.9552 26.0488 85.131 26.0488C82.7854 26.0488 81.6439 24.6565 81.6439 21.7945V12.3274H79.4713V22.2382C79.4713 25.9498 81.4887 28.1652 84.8671 28.1652C86.972 28.1652 88.78 27.2728 90.0073 25.6413V27.8122H92.1799V12.3274H90.0057Z" fill="#3E4348"/>
<path id="Vector_6" fill-rule="evenodd" clip-rule="evenodd" d="M96.271 13.9541C97.8727 12.6955 100.047 11.9746 102.233 11.9746C105.685 11.9746 107.746 13.6918 107.739 16.572V27.8158H105.565V26.0985C104.468 27.4726 102.881 28.1688 100.839 28.1688C97.5114 28.1688 95.4428 26.3492 95.4428 23.4229C95.4428 19.6172 99.029 19.02 100.557 18.766C100.806 18.7248 101.063 18.6853 101.32 18.6456H101.32L101.33 18.6442C103.417 18.3229 105.571 17.9914 105.571 16.2207C105.571 14.2164 102.97 14.0614 102.173 14.0614C100.766 14.0614 98.7783 14.4787 97.4273 15.6499L97.3037 15.7571L96.1687 14.035L96.271 13.9541ZM97.7111 23.3008C97.7111 25.7818 100.047 26.0506 101.052 26.0506H101.053C103.237 26.0506 105.575 24.8861 105.57 21.6133V19.373C104.51 20.0423 103.002 20.3038 101.657 20.537L101.634 20.5411L100.959 20.6615C98.8048 21.0606 97.7111 21.5753 97.7111 23.3008Z" fill="#3E4348"/>
<path id="Vector_7" d="M120.326 12.6195C119.809 12.2516 118.996 12.0322 118.148 12.0322C116.406 12.0551 114.776 12.8951 113.745 14.3004V12.3209H111.573V27.8041H113.745V19.5231C113.745 15.8511 115.809 14.2064 117.853 14.2064C118.451 14.1984 119.043 14.3241 119.587 14.5743L119.734 14.6518L120.421 12.6822L120.326 12.6195Z" fill="#3E4348"/>
<path id="Vector_8" fill-rule="evenodd" clip-rule="evenodd" d="M120.962 20.112C120.962 15.3217 123.95 11.9746 128.221 11.9746C132.335 11.9746 135.21 14.9455 135.202 19.2064C135.2 19.5769 135.18 19.9468 135.141 20.315L135.127 20.442H123.25C123.305 23.8517 125.357 26.0506 128.506 26.0506C130.311 26.0506 131.874 25.3167 132.909 23.982L133.003 23.8601L134.576 25.2621L134.489 25.3677C133.443 26.6428 131.536 28.1639 128.385 28.1639C123.948 28.1639 120.962 24.9289 120.962 20.112ZM128.161 14.0597C125.507 14.0597 123.625 15.8066 123.331 18.5269H132.905C132.717 16.3394 131.381 14.0597 128.161 14.0597Z" fill="#3E4348"/>
</g>
<defs>
<clipPath id="clip0_1878_341">
<rect width="136" height="34" fill="white"/>
</clipPath>
</defs>
</svg>
