<svg width="140" height="72" viewBox="0 0 140 72" fill="none" xmlns="http://www.w3.org/2000/svg">
<path d="M33.2754 48.7775C28.5511 48.7775 24.7329 52.4658 24.7329 57.1581C24.7329 61.8183 28.5511 65.4463 33.2754 65.4463C38.0318 65.4463 41.85 61.824 41.85 57.1581C41.85 52.4677 38.0374 48.7794 33.2754 48.7794V48.7775ZM33.2754 61.0649C31.0979 61.0649 29.4402 59.3036 29.4402 57.1261C29.4402 54.9485 31.0979 53.1609 33.2754 53.1609C35.485 53.1609 37.1427 54.9542 37.1427 57.1317C37.1427 59.3093 35.485 61.0724 33.2754 61.0724V61.0649ZM52.5023 42.3409H43.8091C43.7151 42.3391 43.6218 42.3564 43.5347 42.3915C43.4476 42.4267 43.3685 42.4791 43.3022 42.5456C43.2359 42.6121 43.1837 42.6913 43.1488 42.7785C43.1138 42.8657 43.0968 42.9591 43.0989 43.053V64.2464C43.0921 64.3434 43.1055 64.4408 43.1382 64.5324C43.171 64.624 43.2223 64.7078 43.289 64.7786C43.3557 64.8494 43.4364 64.9056 43.5259 64.9437C43.6154 64.9818 43.7118 65.0009 43.8091 64.9999H52.5023C59.4588 64.9999 64.2923 60.3735 64.2923 53.6431C64.2923 46.8712 59.4588 42.3409 52.5023 42.3409ZM52.7076 60.5242H47.9513V46.8053H52.7076C56.5579 46.8053 59.212 49.6855 59.212 53.6337C59.212 57.516 56.5579 60.5242 52.7076 60.5242ZM81.5959 49.2334H78.3277C78.1468 49.2477 77.9776 49.3283 77.8524 49.4597C77.7273 49.5911 77.6551 49.764 77.6496 49.9454V50.9155C76.9055 49.6855 75.2234 48.7794 73.1287 48.7794C69.0524 48.7794 65.2342 51.9817 65.2342 57.0959C65.2342 62.1819 69.0185 65.4426 73.0967 65.4426C75.1989 65.4426 76.915 64.5384 77.659 63.3083V64.3105C77.66 64.4902 77.7317 64.6623 77.8586 64.7895C77.9855 64.9168 78.1574 64.989 78.3371 64.9905H81.6053C81.6952 64.9925 81.7846 64.9764 81.868 64.9429C81.9514 64.9095 82.0272 64.8594 82.0908 64.7959C82.1543 64.7323 82.2044 64.6565 82.2378 64.5731C82.2713 64.4897 82.2874 64.4003 82.2854 64.3105V49.9454C82.2881 49.8531 82.2724 49.7611 82.239 49.6749C82.2056 49.5888 82.1553 49.5102 82.091 49.4438C82.0267 49.3774 81.9498 49.3246 81.8648 49.2885C81.7797 49.2523 81.6883 49.2336 81.5959 49.2334ZM73.9933 61.1006C71.829 61.1006 70.2034 59.4373 70.2034 57.1298C70.2034 54.8223 71.829 53.1609 73.9933 53.1609C76.1577 53.1609 77.7833 54.8204 77.7833 57.1279C77.7833 59.4355 76.1596 61.0988 73.9933 61.0988V61.1006ZM99.9412 42.3409H96.673C96.5815 42.3382 96.4904 42.3537 96.405 42.3865C96.3196 42.4193 96.2415 42.4688 96.1754 42.5321C96.1093 42.5954 96.0565 42.6712 96.02 42.7552C95.9835 42.8391 95.9641 42.9294 95.9629 43.021V50.8515C95.2094 49.6855 93.5028 48.7794 91.3685 48.7794C87.3224 48.7794 83.57 51.9817 83.57 57.0959C83.57 62.1819 87.3544 65.4426 91.4326 65.4426C93.5348 65.4426 95.1209 64.5384 95.9949 63.3083V64.3105C95.9954 64.4903 96.0669 64.6627 96.1939 64.7901C96.321 64.9175 96.4932 64.9895 96.673 64.9905H99.9412C100.031 64.9928 100.121 64.9768 100.204 64.9435C100.288 64.9101 100.364 64.8601 100.427 64.7965C100.491 64.7329 100.541 64.657 100.574 64.5734C100.608 64.4899 100.624 64.4004 100.621 64.3105V43.0247C100.624 42.9345 100.608 42.8446 100.575 42.7606C100.542 42.6766 100.492 42.6002 100.429 42.5362C100.365 42.4722 100.289 42.4219 100.205 42.3883C100.121 42.3547 100.031 42.3386 99.9412 42.3409ZM92.3387 61.1402C90.1837 61.1402 88.5713 59.46 88.5713 57.1279C88.5713 54.7959 90.1894 53.1157 92.3387 53.1157C94.4879 53.1157 96.106 54.7959 96.106 57.1279C96.106 59.46 94.4955 61.1402 92.3387 61.1402ZM118.283 42.3409H115.02C114.929 42.3382 114.837 42.3537 114.752 42.3865C114.666 42.4193 114.588 42.4687 114.522 42.532C114.456 42.5953 114.403 42.6711 114.366 42.755C114.329 42.839 114.31 42.9294 114.308 43.021V50.8515C113.564 49.6855 111.848 48.7794 109.714 48.7794C105.668 48.7794 101.915 51.9817 101.915 57.0959C101.915 62.1819 105.702 65.4426 109.778 65.4426C111.882 65.4426 113.466 64.5384 114.34 63.3083V64.3105C114.341 64.4905 114.413 64.6629 114.54 64.7902C114.668 64.9175 114.84 64.9895 115.02 64.9905H118.283C118.373 64.9928 118.462 64.9768 118.545 64.9434C118.629 64.9101 118.705 64.86 118.768 64.7964C118.832 64.7328 118.881 64.6568 118.915 64.5733C118.948 64.4897 118.963 64.4003 118.961 64.3105V43.0247C118.964 42.9346 118.949 42.8447 118.916 42.7607C118.883 42.6767 118.833 42.6004 118.77 42.5363C118.706 42.4723 118.63 42.4219 118.546 42.3883C118.463 42.3547 118.373 42.3386 118.283 42.3409ZM110.68 61.1402C108.523 61.1402 106.913 59.46 106.913 57.1279C106.913 54.7959 108.531 53.1157 110.68 53.1157C112.829 53.1157 114.448 54.7959 114.448 57.1279C114.448 59.46 112.841 61.1402 110.686 61.1402H110.68ZM136.178 50.3353L131.301 67.0606C130.359 70.0369 128.259 71.817 124.991 71.817C123.504 71.817 122.152 71.5137 121.091 70.9072C120.473 70.5549 119.961 70.2328 119.961 69.7167C119.961 69.3964 120.065 69.2307 120.253 68.9312L121.221 67.4807C121.494 67.0757 121.696 66.9439 121.99 66.9439C122.223 66.9496 122.448 67.028 122.634 67.168C123.243 67.5617 123.808 67.9008 124.668 67.9008C125.674 67.9008 126.443 67.5787 126.857 66.3806L127.275 64.9924H125.301C125.099 64.9988 124.901 64.9344 124.742 64.8102C124.582 64.686 124.471 64.5099 124.427 64.3123L120.063 50.3353C119.901 49.7853 120.05 49.2353 120.858 49.2353H124.296C124.716 49.2353 125.009 49.3784 125.194 49.9793L128.417 61.2344L131.431 49.9793C131.527 49.5913 131.787 49.2353 132.305 49.2353H135.566C136.208 49.2334 136.402 49.6855 136.178 50.3353ZM23.501 55.3102V64.2445C23.5025 64.3419 23.4844 64.4386 23.4479 64.5289C23.4113 64.6192 23.357 64.7012 23.2881 64.7701C23.2192 64.8389 23.1372 64.8933 23.0469 64.9298C22.9566 64.9664 22.8599 64.9845 22.7625 64.9829H20.0651C19.9676 64.9847 19.8708 64.9668 19.7804 64.9304C19.69 64.8939 19.6079 64.8396 19.539 64.7706C19.4701 64.7017 19.4157 64.6196 19.3793 64.5292C19.3428 64.4388 19.3249 64.342 19.3267 64.2445V61.8993C17.6144 64.0618 14.6363 65.4237 11.2682 65.4237C4.94281 65.4237 0 60.6655 0 53.8918C0 46.8524 5.3365 42 12.0782 42C17.055 42 21.0333 44.1399 22.8002 48.4441C22.8497 48.5578 22.8772 48.6799 22.8812 48.8039C22.8812 49.0073 22.7475 49.1618 22.3161 49.3106L19.1666 50.5237C18.9766 50.6025 18.7637 50.6059 18.5713 50.5331C18.4027 50.4335 18.2706 50.2823 18.1946 50.1018C17.0644 47.9525 15.0526 46.4926 11.9558 46.4926C7.93976 46.4926 5.06337 49.629 5.06337 53.6958C5.06337 57.6384 7.51216 60.8803 12.0707 60.8803C14.4686 60.8803 16.3806 59.75 17.2716 58.5087H14.4272C14.3298 58.5102 14.2331 58.4922 14.1428 58.4556C14.0526 58.419 13.9705 58.3647 13.9017 58.2958C13.8328 58.2269 13.7785 58.1449 13.7419 58.0546C13.7053 57.9644 13.6873 57.8677 13.6888 57.7703V55.3422C13.6873 55.2448 13.7053 55.1481 13.7419 55.0578C13.7785 54.9675 13.8328 54.8855 13.9017 54.8167C13.9705 54.7478 14.0526 54.6935 14.1428 54.6569C14.2331 54.6203 14.3298 54.6023 14.4272 54.6038H22.7625C22.8581 54.5989 22.9536 54.6136 23.0433 54.647C23.133 54.6803 23.2149 54.7316 23.284 54.7978C23.3532 54.8639 23.4081 54.9435 23.4454 55.0316C23.4827 55.1197 23.5016 55.2145 23.501 55.3102ZM136.266 45.9256V45.709C136.266 45.6938 136.272 45.6791 136.281 45.6675C136.292 45.6579 136.306 45.6526 136.321 45.6525H137.698C137.705 45.6522 137.712 45.6534 137.719 45.656C137.726 45.6586 137.732 45.6625 137.738 45.6675C137.747 45.6791 137.753 45.6938 137.753 45.709V45.9256C137.753 45.9402 137.747 45.9542 137.738 45.9652C137.732 45.9702 137.726 45.9741 137.719 45.9767C137.712 45.9793 137.705 45.9805 137.698 45.9802H137.195V47.3384C137.195 47.3532 137.188 47.3673 137.178 47.3778C137.167 47.3883 137.153 47.3944 137.139 47.3949H136.879C136.871 47.3949 136.864 47.3933 136.858 47.3904C136.851 47.3875 136.846 47.3832 136.841 47.3779C136.836 47.3728 136.831 47.3667 136.828 47.3599C136.825 47.3531 136.824 47.3458 136.824 47.3384V45.9802H136.321C136.314 45.9808 136.306 45.9798 136.299 45.9772C136.293 45.9747 136.286 45.9707 136.281 45.9655C136.276 45.9603 136.272 45.9541 136.269 45.9472C136.267 45.9403 136.266 45.9329 136.266 45.9256ZM138.674 45.7015L139.05 46.5736L139.427 45.7015C139.433 45.686 139.444 45.6728 139.457 45.6638C139.473 45.6557 139.491 45.6518 139.508 45.6525H139.945C139.952 45.6519 139.96 45.6529 139.966 45.6554C139.973 45.6578 139.979 45.6616 139.984 45.6666C139.99 45.6716 139.994 45.6776 139.996 45.6843C139.999 45.6909 140 45.6981 140 45.7052V47.3403C140 47.3474 139.999 47.3546 139.997 47.3613C139.995 47.3681 139.991 47.3742 139.986 47.3794C139.981 47.3846 139.975 47.3886 139.968 47.3913C139.961 47.3939 139.954 47.3952 139.947 47.3949H139.702C139.695 47.3951 139.688 47.3939 139.681 47.3913C139.674 47.3888 139.668 47.3848 139.663 47.3798C139.657 47.3748 139.653 47.3686 139.651 47.3618C139.648 47.3549 139.647 47.3476 139.648 47.3403V46.1065L139.243 47.0031C139.237 47.02 139.226 47.035 139.212 47.0464C139.197 47.055 139.179 47.0589 139.162 47.0577H138.962C138.945 47.0587 138.928 47.0547 138.913 47.0464C138.899 47.0355 138.888 47.0204 138.883 47.0031L138.48 46.1065V47.3403C138.48 47.3474 138.479 47.3545 138.477 47.3612C138.474 47.3679 138.47 47.374 138.465 47.3791C138.46 47.3843 138.454 47.3883 138.448 47.391C138.441 47.3938 138.434 47.3951 138.427 47.3949H138.176C138.169 47.3948 138.163 47.3933 138.156 47.3905C138.15 47.3877 138.144 47.3836 138.139 47.3785C138.135 47.3734 138.131 47.3673 138.129 47.3608C138.126 47.3542 138.125 47.3472 138.126 47.3403V45.7052C138.125 45.6981 138.127 45.6909 138.129 45.6843C138.132 45.6776 138.136 45.6716 138.141 45.6666C138.146 45.6616 138.152 45.6578 138.159 45.6554C138.166 45.6529 138.173 45.6519 138.18 45.6525H138.604C138.621 45.652 138.638 45.6559 138.653 45.6638C138.663 45.6741 138.671 45.6872 138.674 45.7015Z" fill="#1BDBDB"/>
<path d="M83.4157 1.50816C79.5705 -0.898267 74.5083 -0.324933 69.9934 2.5166C65.4927 -0.324933 60.4274 -0.898267 56.5869 1.50816C50.5116 5.31102 49.773 15.1048 54.9387 23.3844C58.7463 29.4884 64.7008 33.0651 70.0013 32.9991C75.3018 33.0651 81.2563 29.4884 85.0639 23.3844C90.2233 15.1048 89.4909 5.31102 83.4157 1.50816ZM57.7316 21.6361C56.6665 19.9448 55.8629 18.1018 55.348 16.1698C54.8905 14.4927 54.7156 12.7509 54.8305 11.0161C55.061 7.9562 56.3046 5.57334 58.3307 4.30572C60.3568 3.0381 63.0353 2.96113 65.8879 4.09523C66.316 4.26645 66.7394 4.46437 67.1597 4.6827C65.5745 6.13045 64.1962 7.79015 63.0635 9.61495C59.9271 14.6414 58.9705 20.235 60.0651 24.6944C59.1923 23.7513 58.411 22.7273 57.7316 21.6361ZM84.6562 16.1682C84.1406 18.1 83.337 19.9429 82.2725 21.6345C81.5926 22.7273 80.8113 23.7533 79.939 24.6991C80.9176 20.7015 80.2526 15.8038 77.8533 11.2109C77.815 11.1352 77.7612 11.0685 77.6955 11.0149C77.6299 10.9614 77.5537 10.9222 77.472 10.9C77.3902 10.8778 77.3047 10.8731 77.221 10.886C77.1374 10.899 77.0573 10.9294 76.9861 10.9752L69.5057 15.6562C69.4375 15.6988 69.3783 15.7545 69.3316 15.8201C69.2849 15.8856 69.2516 15.9598 69.2335 16.0383C69.2155 16.1168 69.213 16.1981 69.2264 16.2775C69.2397 16.357 69.2686 16.433 69.3113 16.5012L70.409 18.2589C70.4514 18.3272 70.5069 18.3864 70.5722 18.4332C70.6376 18.48 70.7115 18.5134 70.7897 18.5315C70.8679 18.5496 70.949 18.552 71.0282 18.5387C71.1073 18.5253 71.1831 18.4965 71.2511 18.4537L76.1 15.419C76.2569 15.8902 76.4137 16.3614 76.5313 16.8327C76.9887 18.5077 77.1641 20.2473 77.0504 21.9801C76.8198 25.0384 75.5763 27.4213 73.5501 28.6905C72.5051 29.3305 71.3076 29.6777 70.0828 29.6958H69.9276C68.7027 29.678 67.5052 29.3308 66.4603 28.6905C64.4326 27.4213 63.189 25.0384 62.9585 21.9801C62.8443 20.2453 63.0192 18.5036 63.476 16.8264C64.527 12.946 66.6995 9.46325 69.7206 6.81582C71.0234 5.67039 72.5073 4.74993 74.1116 4.09209C76.9563 2.95799 79.6395 3.03339 81.6672 4.30258C83.6949 5.57176 84.9369 7.95306 85.1674 11.0129C85.2837 12.7479 85.111 14.4901 84.6562 16.1682Z" fill="#1BDBDB"/>
</svg>
