<svg width="24" height="24" viewBox="0 0 24 24" fill="none" xmlns="http://www.w3.org/2000/svg">
<g clip-path="url(#clip0)">
<path d="M3.85686 6H20.1349C21.1651 6 21.999 6.8343 21.999 7.86501V14.0815C21.999 15.1122 21.1651 15.9465 20.1349 15.9465H14.2974L15.0986 17.9096L11.5748 15.9465H3.86499C2.83485 15.9465 2.00095 15.1122 2.00095 14.0815V7.86501C1.99274 6.84251 2.82657 6 3.85686 6Z" fill="#9B5C8F"/>
<path d="M3.13951 7.69979C3.25333 7.5452 3.42402 7.46392 3.65165 7.44766C4.0663 7.41507 4.30206 7.61022 4.35893 8.0332C4.61094 9.73306 4.88732 11.1727 5.17995 12.3519L6.96025 8.96042C7.12289 8.65132 7.32615 8.48868 7.57003 8.47243C7.92773 8.44804 8.14717 8.67571 8.23661 9.15558C8.43987 10.2372 8.7 11.1563 9.00888 11.9371C9.22027 9.87132 9.57797 8.38294 10.082 7.46392C10.2038 7.23617 10.3827 7.1223 10.6185 7.10597C10.8055 7.08979 10.9762 7.14669 11.1306 7.26869C11.2851 7.39069 11.3664 7.5452 11.3826 7.7323C11.3908 7.87868 11.3664 8.00068 11.3014 8.12268C10.9843 8.7083 10.7241 9.69242 10.5128 11.0587C10.3096 12.3845 10.2364 13.4174 10.2852 14.1576C10.3015 14.3608 10.2689 14.5397 10.1877 14.6943C10.09 14.8732 9.94379 14.9708 9.75678 14.9871C9.54539 15.0033 9.32596 14.9058 9.11457 14.6862C8.35855 13.9135 7.75697 12.7586 7.31803 11.2214C6.78956 12.2625 6.39936 13.0432 6.14735 13.5637C5.66771 14.4828 5.26127 14.9546 4.91981 14.979C4.7003 14.9952 4.51337 14.8081 4.3508 14.4178C3.93623 13.3523 3.48909 11.2946 3.00952 8.24468C2.97695 8.0332 3.02569 7.84609 3.13951 7.69979ZM20.6094 8.97668C20.3168 8.4643 19.8859 8.15527 19.3088 8.0332C19.1543 8.00068 19.008 7.98443 18.8698 7.98443C18.0894 7.98443 17.4553 8.39107 16.9594 9.20442C16.5366 9.8957 16.3253 10.6602 16.3253 11.498C16.3253 12.1242 16.4554 12.661 16.7155 13.1083C17.0081 13.6207 17.439 13.9297 18.0162 14.0517C18.1706 14.0843 18.3169 14.1006 18.4552 14.1006C19.2437 14.1006 19.8778 13.6939 20.3655 12.8806C20.7882 12.1811 20.9996 11.4166 20.9996 10.5789C21.0078 9.94455 20.8696 9.41583 20.6094 8.97668ZM19.5852 11.2296C19.4713 11.7663 19.2681 12.1648 18.9672 12.4332C18.7316 12.6447 18.512 12.7341 18.3089 12.6935C18.1137 12.6528 17.9511 12.4821 17.8292 12.1648C17.7316 11.9127 17.6829 11.6606 17.6829 11.4247C17.6829 11.2214 17.6992 11.0181 17.7398 10.8311C17.813 10.4976 17.9512 10.1722 18.1706 9.86319C18.4389 9.4646 18.7234 9.30204 19.0161 9.35893C19.2112 9.39957 19.3738 9.57042 19.4957 9.88757C19.5933 10.1397 19.642 10.3918 19.642 10.6277C19.642 10.8392 19.6258 11.0425 19.5852 11.2295V11.2296ZM15.5205 8.97668C15.2278 8.4643 14.7888 8.15527 14.2198 8.0332C14.0654 8.00068 13.919 7.98443 13.7808 7.98443C13.0004 7.98443 12.3663 8.39107 11.8704 9.20442C11.4477 9.8957 11.2363 10.6602 11.2363 11.498C11.2363 12.1242 11.3664 12.661 11.6265 13.1083C11.9192 13.6207 12.3501 13.9297 12.9272 14.0517C13.0817 14.0843 13.2279 14.1006 13.3662 14.1006C14.1547 14.1006 14.7888 13.6939 15.2766 12.8806C15.6993 12.1811 15.9107 11.4166 15.9107 10.5789C15.9107 9.94455 15.7806 9.41583 15.5205 8.97668ZM14.4881 11.2296C14.3742 11.7663 14.171 12.1648 13.8702 12.4332C13.6345 12.6447 13.415 12.7341 13.2117 12.6935C13.0166 12.6528 12.8541 12.4821 12.732 12.1648C12.6346 11.9127 12.5858 11.6606 12.5858 11.4247C12.5858 11.2214 12.6021 11.0181 12.6427 10.8311C12.7159 10.4976 12.8541 10.1722 13.0736 9.86319C13.3418 9.4646 13.6263 9.30204 13.919 9.35893C14.1141 9.39957 14.2767 9.57042 14.3986 9.88757C14.4963 10.1397 14.5449 10.3918 14.5449 10.6277C14.5531 10.8392 14.5287 11.0425 14.4881 11.2295V11.2296Z" fill="white"/>
</g>
<defs>
<clipPath id="clip0">
<rect x="2" y="6" width="20" height="11.9577" fill="white"/>
</clipPath>
</defs>
</svg>
