<svg width="16" height="16" viewBox="0 0 16 16" fill="none" xmlns="http://www.w3.org/2000/svg">
<path d="M12.6667 1.99996H9.88C9.6 1.22663 8.86667 0.666626 8 0.666626C7.13333 0.666626 6.4 1.22663 6.12 1.99996H3.33333C2.6 1.99996 2 2.59996 2 3.33329V14C2 14.7333 2.6 15.3333 3.33333 15.3333H12.6667C13.4 15.3333 14 14.7333 14 14V3.33329C14 2.59996 13.4 1.99996 12.6667 1.99996ZM8 1.99996C8.36667 1.99996 8.66667 2.29996 8.66667 2.66663C8.66667 3.03329 8.36667 3.33329 8 3.33329C7.63333 3.33329 7.33333 3.03329 7.33333 2.66663C7.33333 2.29996 7.63333 1.99996 8 1.99996ZM12.6667 14H3.33333V3.33329H4.66667V5.33329H11.3333V3.33329H12.6667V14Z" fill="#30881E"/>
</svg>
