<svg width="140" height="72" viewBox="0 0 140 72" fill="none" xmlns="http://www.w3.org/2000/svg">
<g clip-path="url(#clip0)">
<path fill-rule="evenodd" clip-rule="evenodd" d="M5.84834 18H29.1517C30.703 17.9996 32.1911 18.6155 33.2882 19.7123C34.3853 20.8092 35.0017 22.297 35.0017 23.8483V47.1499C35.0017 50.3809 32.3825 53 29.1517 53H5.84834C2.61811 52.999 0 50.3802 0 47.1499V23.8483C0 20.6184 2.61838 18 5.84834 18ZM26.7963 46.6372C27.8158 46.6372 28.6422 45.8107 28.6422 44.7912L28.6372 26.2104C28.6372 25.191 27.8107 24.3646 26.7912 24.3646H8.21211C7.72227 24.3646 7.25251 24.5593 6.90629 24.9058C6.56008 25.2523 6.36581 25.7223 6.36626 26.2121V44.7912C6.36626 45.8107 7.19267 46.6372 8.21211 46.6372H26.7963Z" fill="#3E4348"/>
<path d="M13.787 40.2453C13.2052 40.2407 12.7359 39.7677 12.7359 39.1858V31.7683C12.7346 31.4864 12.8456 31.2156 13.0445 31.0158C13.2433 30.8159 13.5136 30.7036 13.7955 30.7036H21.2232C21.5049 30.7041 21.7749 30.8165 21.9738 31.0163C22.1725 31.216 22.2837 31.4866 22.2827 31.7683V39.184C22.2837 39.4658 22.1725 39.7364 21.9738 39.936C21.7749 40.1358 21.5049 40.2483 21.2232 40.2488L13.787 40.2453Z" fill="#3E4348"/>
<path d="M52.8117 33.9402C51.7283 33.6447 50.7026 33.3662 49.9062 33.0113C48.4322 32.3525 47.7462 31.4389 47.7462 30.1381C47.7462 27.6792 50.1235 26.5721 52.4908 26.5721C54.7406 26.5721 56.7054 27.5026 58.0249 29.1906L58.1148 29.306L60.0167 27.8185L59.9251 27.703C58.171 25.4717 55.5728 24.249 52.6061 24.249C50.6313 24.249 48.821 24.7822 47.5119 25.7519C46.0379 26.8302 45.2601 28.3941 45.2601 30.2604C45.2601 34.5991 49.3457 35.6569 52.63 36.5078C55.9532 37.384 57.9893 38.0497 57.9893 40.5832C57.9893 43.0777 55.9718 44.6893 52.8506 44.6893C51.3071 44.6893 48.4492 44.2801 46.6526 41.536L46.5694 41.4068L44.569 42.8553L44.6471 42.9726C46.3453 45.5435 49.2762 47.0192 52.6979 47.0192C57.3456 47.0192 60.4701 44.3955 60.4701 40.4933C60.4701 36.0271 56.2215 34.8707 52.8117 33.9402Z" fill="#3E4348"/>
<path fill-rule="evenodd" clip-rule="evenodd" d="M75.631 33.0388V30.6903H77.8674V52.9968H75.631V44.282C74.354 46.0328 72.4386 46.9905 70.1868 46.9905C65.9348 46.9905 62.963 43.5858 62.963 38.6698C62.963 33.7537 65.9415 30.3218 70.1868 30.3218C72.4233 30.3218 74.3388 31.2846 75.631 33.0388ZM65.32 38.6425C65.32 43.1935 67.9266 44.8153 70.3667 44.8153L70.3718 44.8169C73.566 44.8169 75.631 42.3716 75.631 38.6425C75.631 34.9135 73.5627 32.5021 70.3667 32.5021C66.6462 32.5021 65.32 35.6742 65.32 38.6425Z" fill="#3E4348"/>
<path d="M92.653 30.6899V39.4946C92.653 42.5769 90.5422 44.815 87.6349 44.815C85.2203 44.815 84.0452 43.3817 84.0452 40.4355V30.6899H81.8087V40.8922C81.8087 44.713 83.8855 46.9935 87.3632 46.9935C89.53 46.9935 91.3912 46.075 92.6546 44.3954V46.6302H94.8911V30.6899H92.653Z" fill="#3E4348"/>
<path fill-rule="evenodd" clip-rule="evenodd" d="M99.1025 32.3644C100.751 31.0687 102.989 30.3267 105.239 30.3267C108.794 30.3267 110.915 32.0944 110.908 35.0593V46.6338H108.67V44.866C107.54 46.2805 105.907 46.9972 103.805 46.9972C100.379 46.9972 98.2499 45.124 98.2499 42.1116C98.2499 38.194 101.942 37.5793 103.514 37.3178C103.771 37.2754 104.035 37.2347 104.3 37.1938H104.3L104.31 37.1924C106.459 36.8616 108.676 36.5204 108.676 34.6977C108.676 32.6344 105.998 32.4748 105.178 32.4748C103.73 32.4748 101.684 32.9044 100.293 34.11L100.166 34.2204L98.9972 32.4476L99.1025 32.3644ZM100.585 41.986C100.585 44.54 102.989 44.8167 104.024 44.8167H104.025C106.274 44.8167 108.68 43.6179 108.675 40.2488V37.9427C107.584 38.6317 106.031 38.9009 104.647 39.1409L104.623 39.1451L103.929 39.269C101.711 39.6799 100.585 40.2097 100.585 41.986Z" fill="#3E4348"/>
<path d="M123.865 30.9908C123.333 30.6121 122.496 30.3862 121.623 30.3862C119.829 30.4098 118.151 31.2745 117.091 32.7212V30.6834H114.854V46.622H117.091V38.0974C117.091 34.3174 119.215 32.6244 121.319 32.6244C121.935 32.6161 122.544 32.7455 123.104 33.003L123.255 33.0829L123.963 31.0553L123.865 30.9908Z" fill="#3E4348"/>
<path fill-rule="evenodd" clip-rule="evenodd" d="M124.52 38.7034C124.52 33.7722 127.595 30.3267 131.992 30.3267C136.227 30.3267 139.187 33.385 139.178 37.7712C139.177 38.1525 139.156 38.5334 139.115 38.9123L139.102 39.0431H126.875C126.931 42.5531 129.044 44.8167 132.285 44.8167C134.143 44.8167 135.753 44.0611 136.818 42.6872L136.914 42.5617L138.534 44.005L138.445 44.1136C137.368 45.4263 135.405 46.9921 132.161 46.9921C127.593 46.9921 124.52 43.662 124.52 38.7034ZM131.93 32.4731C129.198 32.4731 127.261 34.2713 126.958 37.0716H136.814C136.621 34.8199 135.245 32.4731 131.93 32.4731Z" fill="#3E4348"/>
</g>
<defs>
<clipPath id="clip0">
<rect y="18" width="140" height="35" fill="white"/>
</clipPath>
</defs>
</svg>
