<svg width="140" height="72" viewBox="0 0 140 72" fill="none" xmlns="http://www.w3.org/2000/svg">
<path d="M77.9413 15.8246C75.7351 16.9908 74.9477 18.9135 74.9477 24.2396C74.9477 24.2396 76.0508 23.1674 77.69 22.5694C78.8872 22.1596 79.8962 21.4973 80.4942 21.0565C82.3537 19.7009 82.6062 17.9664 82.6062 15.036C82.6062 15.036 79.5805 14.9407 77.9413 15.8246Z" fill="#FFCB29"/>
<path d="M65.0206 17.0851C63.2551 18.6611 62.7192 21.1508 62.7192 21.1508L56.7938 43.9072L51.9085 25.2487C51.4356 23.2951 50.5528 20.8054 49.1972 19.165C47.4961 17.0851 43.9974 16.9588 43.6186 16.9588C43.2398 16.9588 39.7113 17.0851 37.9768 19.1972C36.6212 20.8673 35.7396 23.3261 35.2668 25.2797L30.3814 43.9383L24.5181 21.1508C24.5181 21.1508 24.0142 18.629 22.219 17.0851C19.3183 14.5322 15 15.0683 15 15.0683L26.2526 57.7424C26.2526 57.7424 29.9716 58.026 31.8312 57.0491C34.2577 55.8198 35.4549 54.843 36.9369 49.0118C38.2604 43.843 41.9485 28.651 42.2952 27.5478C42.4523 27.0118 42.6728 25.7205 43.6186 25.7205C44.5954 25.7205 44.786 26.9808 44.9421 27.5478C45.2888 28.6199 48.9447 43.8441 50.3003 49.0118C51.7822 54.8119 52.9484 55.7566 55.4072 57.0491C57.2656 58.026 60.9858 57.7424 60.9858 57.7424L72.2372 15.0993C72.2372 15.0993 67.9201 14.5632 65.0206 17.0851ZM82.607 22.0335C82.607 22.0335 81.9137 23.1057 80.3067 24.0503C79.2667 24.6186 78.2888 25.0271 77.2178 25.5322C75.4523 26.3828 74.9485 27.3596 74.9485 28.8093V57.7449C74.9485 57.7449 77.8158 58.0903 79.6444 57.1766C82.0388 55.9473 82.5749 54.7823 82.607 49.455V22.0335ZM110.722 36.5001L125 15.1934C125 15.1934 118.979 14.1534 115.986 16.8969C114.063 18.629 111.919 21.75 111.919 21.75L106.687 29.3776C106.403 29.7553 106.12 30.1972 105.584 30.1972C105.048 30.1972 104.702 29.7874 104.481 29.3776L99.1857 21.781C99.1857 21.781 97.0748 18.6599 95.1199 16.9278C92.1573 14.1856 86.1057 15.2244 86.1057 15.2244L100.415 36.4691L86.1057 57.6805C86.1057 57.6805 92.4099 58.5 95.3724 55.7579C97.2952 54.0245 99.1547 51.1561 99.1547 51.1561L104.387 43.5607C104.67 43.1819 104.954 42.741 105.49 42.741C106.026 42.741 106.371 43.1508 106.593 43.5607L111.825 51.1561C111.825 51.1561 113.779 53.9614 115.67 55.7579C118.633 58.5 124.843 57.6805 124.843 57.6805L110.722 36.5001Z" fill="#2E3133"/>
</svg>
 