<svg width="260" height="161" viewBox="0 0 260 161" fill="none" xmlns="http://www.w3.org/2000/svg">
<rect width="260" height="160" transform="translate(0 0.629883)" fill="#EDF601"/>
<path d="M38.9756 67.7515V72.6704H35.0899L35.0919 79.304H38.7525C38.8289 79.3027 38.9046 79.2638 38.9797 79.1874L38.9857 84.1044H35.098V93.2527L28.0121 93.2588L28 67.7575L38.9756 67.7515ZM38.9857 84.1044L38.9797 79.1874C41.609 79.0709 42.7548 77.8145 42.7508 75.9852C42.7508 74.1539 41.605 72.8996 38.9756 72.6704V67.7515H39.7717C46.0615 67.7495 50.1784 69.8019 50.1824 75.9772C50.1844 82.0379 46.0716 84.0983 39.7837 84.1024H38.9837L38.9857 84.1044ZM60.8204 75.0565V78.9442C57.9619 78.9462 57.393 81.8047 57.395 84.3235C57.395 86.8382 57.9659 89.9239 60.8284 89.9219V93.8096C55.3406 93.8116 50.5382 90.9571 50.5322 84.3255C50.5302 77.923 55.3305 75.0605 60.8204 75.0565V75.0565ZM94.095 75.4967V72.8674L100.837 70.2341V75.4927L104.845 75.4907V79.8367L100.845 79.8387V86.6975C100.847 87.1578 100.62 89.558 102.222 89.556C103.022 89.556 103.937 89.556 104.737 89.4394V93.4437C103.255 93.6709 102.108 93.7874 101.195 93.7874C96.5072 93.7895 93.7633 93.108 94.103 87.6182L94.097 79.8408H90.6676L90.6656 75.4967H94.095V75.4967ZM83.0068 80.874C83.0068 80.4157 82.8902 79.8448 82.5465 79.503C82.2047 79.1593 81.6338 78.9321 80.7172 78.9321C79.688 78.9342 79.1151 79.503 79.1191 80.5343C79.1191 81.6781 81.863 81.6781 86.0965 82.9324C88.2675 83.6179 89.6404 84.9888 89.6404 87.8473C89.6465 92.5351 85.3004 93.7955 81.1836 93.7975C76.8375 93.7995 72.4935 92.8869 72.6041 87.5136L79.0065 87.5076C78.892 87.9659 79.0065 88.6514 79.4649 89.1097C79.8086 89.5681 80.3815 89.9098 81.067 89.9098C82.3274 89.9098 83.24 89.3389 83.24 88.1951C83.234 85.1095 72.7187 86.9407 72.7126 80.6549C72.7106 76.1943 77.4004 75.0485 80.9444 75.0465C85.1738 75.0444 89.0615 76.0717 89.4093 80.874H83.0068V80.874ZM60.8284 93.8096V89.9219C63.6869 89.9198 64.2558 86.8322 64.2538 84.3174C64.2538 81.8027 63.6788 78.9442 60.8244 78.9442V75.0565C66.4227 75.0545 71.2291 77.909 71.2311 84.3154C71.2331 90.945 66.4328 93.8075 60.8284 93.8096ZM112.74 85.6623C112.74 87.9499 113.314 90.0083 115.829 90.0063H115.944V93.7814C109.085 93.6709 106.339 90.5872 106.335 83.7265C106.333 78.2366 110.562 75.0324 115.938 75.0284V78.3452C113.65 78.4618 113.079 80.1765 112.852 82.0057H115.942L115.944 85.6603H112.742L112.74 85.6623ZM137.204 75.3641V71.4723L140.629 70.4391V75.356L144.75 75.2374V77.7542H140.633L140.641 89.1922C140.641 90.4485 141.67 91.0214 142.814 91.0214C143.385 91.0214 144.07 90.9048 144.641 90.7903V93.4196C143.841 93.4216 143.16 93.6508 142.358 93.6508C141.556 93.6508 140.87 93.6528 140.07 93.4256C139.499 93.309 138.585 93.0819 138.012 92.2818C137.441 91.4818 137.212 91.3692 137.21 88.967L137.204 77.7602H134.23V75.2455L137.204 75.36V75.3641ZM128.051 67.4741H132.168V71.1326L128.055 71.1346V67.4741H128.051ZM128.405 93.0879L128.395 75.3641H131.824L131.834 93.0879H128.405V93.0879ZM154.011 82.0982V84.4984C152.069 84.7295 149.898 85.5296 149.898 87.8152C149.9 90.1048 151.387 91.132 153.444 91.13H154.019V93.5342C153.558 93.6487 153.102 93.6487 152.531 93.6487C149.446 93.6508 146.356 92.0527 146.354 88.5087C146.352 83.9315 150.123 82.3314 154.011 82.1002V82.0982ZM154.009 74.7791V77.2959C152.411 77.4104 150.923 78.3251 150.923 80.0398H147.381C147.49 76.2686 150.463 74.7771 154.009 74.7771V74.7791ZM115.934 75.0284C123.249 75.0223 125.538 79.1412 125.544 85.6582H115.94L115.938 82.0037H119.138C119.138 81.0871 118.794 80.289 118.338 79.489C117.763 78.8015 116.965 78.3452 115.934 78.3452V75.0284ZM115.94 90.0063C117.769 89.8917 118.913 88.9771 119.14 87.3749H125.43C125.205 89.6585 123.717 91.3772 122.002 92.4044C120.404 93.4377 118.458 93.7774 116.398 93.7814H115.944V90.0063H115.942H115.94ZM172.074 67.45H176.075L176.081 71.1085H172.078L172.076 67.45H172.074ZM172.428 93.0658L172.42 75.3399H175.849L175.857 93.0618L172.428 93.0678V93.0658ZM164.882 93.0678L164.868 67.454H168.185L168.199 93.0658H164.882V93.0678ZM154.021 93.5342V91.13C157.448 90.7862 158.132 87.586 158.015 84.3838H154.7C154.473 84.3858 154.242 84.3858 154.015 84.5004V82.1002H158.015C158.013 79.0085 157.898 77.2959 154.24 77.2979H154.013V74.7811H154.123C157.784 74.7791 161.442 75.9229 161.444 80.7232L161.45 89.2987C161.45 90.0987 161.45 91.5863 161.565 93.0698H159.277C159.05 93.0718 158.365 93.301 158.365 92.8447C158.25 92.0446 158.25 91.2425 158.134 90.4445C157.221 92.1592 155.735 93.1864 154.021 93.5342ZM186.487 82.0801V84.4843C184.658 84.7114 182.487 85.5135 182.487 87.8011C182.487 90.0887 183.977 91.1179 185.92 91.1159H186.491V93.5201C186.037 93.6307 185.579 93.6307 185.12 93.6307C182.031 93.6327 178.831 92.0346 178.828 88.4906C178.826 83.9134 182.598 82.3133 186.485 82.0821L186.487 82.0801ZM186.485 74.761V77.2778C184.998 77.3923 183.512 78.307 183.516 80.0257H179.97C180.085 76.2506 183.056 74.763 186.487 74.761H186.485ZM200.892 77.9552C202.036 75.6676 204.551 74.753 206.38 74.7489C207.524 74.7489 213.126 75.0907 213.13 80.6911L213.138 93.0417H209.709L209.701 81.8369C209.701 78.9784 208.445 77.3763 205.582 77.3803C205.582 77.3803 203.755 77.2657 202.382 78.6407C201.811 79.2116 200.896 80.0136 200.896 83.3304L200.902 93.0497H197.586L197.578 75.3259H200.894V77.9532L200.892 77.9552ZM186.493 93.5161V91.1119C190.037 90.7641 190.723 87.5659 190.606 84.3617H187.289C187.058 84.3637 186.831 84.3637 186.489 84.4803V82.0761H190.602C190.6 78.9864 190.486 77.2717 186.827 77.2737H186.483V74.757H186.71C190.369 74.757 194.03 75.8968 194.032 80.6991L194.038 89.2746C194.038 90.0766 194.04 91.5622 194.154 93.0497H191.867C191.523 93.0517 190.95 93.2809 190.95 92.8226C190.835 92.0225 190.835 91.2204 190.719 90.4224C189.806 92.1371 188.319 93.1663 186.489 93.5141L186.493 93.5161ZM223.875 74.7409V77.2557C221.018 77.2577 219.304 79.5453 219.304 82.4037H223.881V84.8019H219.308C219.081 87.8936 220.341 91.0938 223.885 91.0918V93.6085C223.885 93.6085 223.887 93.6085 223.77 93.6085C218.055 93.6105 215.766 89.4957 215.762 84.239C215.762 79.2055 218.391 74.8595 223.877 74.7429L223.875 74.7409ZM223.881 84.8019V82.4017H228.452C228.452 79.5412 227.196 77.2557 223.879 77.2557V74.7409H224.104C229.479 74.8515 231.996 78.2829 232 83.0832V84.7979H223.883L223.881 84.8019ZM223.887 93.6105V91.0938C226.516 91.0938 227.773 90.0646 228.227 87.5478H231.771C231.202 91.5481 228.116 93.6085 223.885 93.6126" fill="#005CAB"/>
</svg>
