<?xml version="1.0" encoding="UTF-8"?>
<svg width="54px" height="37px" viewBox="0 0 54 37" version="1.1" xmlns="http://www.w3.org/2000/svg" xmlns:xlink="http://www.w3.org/1999/xlink">
    <!-- Generator: Sketch 54.1 (76490) - https://sketchapp.com -->
    <title>discovercard</title>
    <desc>Created with Sketch.</desc>
    <g id="Page-1" stroke="none" stroke-width="1" fill="none" fill-rule="evenodd">
        <g id="credit-card-form" transform="translate(-518.000000, -300.000000)">
            <g id="Group-4" transform="translate(252.000000, 147.000000)">
                <g id="Group-2" transform="translate(118.000000, 153.000000)">
                    <g id="Group-5" transform="translate(15.000000, 0.000000)">
                        <g id="discovercard" transform="translate(133.000000, 0.139021)">
                            <path d="M54,32.4 C54,34.3882895 52.3880526,36 50.4,36 L3.6,36 C1.61194737,36 0,34.3882895 0,32.4 L0,3.6 C0,1.61171053 1.61194737,-2.84217094e-14 3.6,-2.84217094e-14 L50.4,-2.84217094e-14 C52.3880526,-2.84217094e-14 54,1.61171053 54,3.6 L54,32.4 Z" id="Fill-1" fill="#EBEDEE"></path>
                            <path d="M8.38395065,19.3827818 C7.92787273,19.7946779 7.33550909,19.9744442 6.39763896,19.9744442 L6.00818442,19.9744442 L6.00818442,15.0538987 L6.39763896,15.0538987 C7.33550909,15.0538987 7.9044961,15.2217429 8.38395065,15.655613 C8.88584675,16.102574 9.18763896,16.7952234 9.18763896,17.5079766 C9.18763896,18.2223662 8.88584675,18.9360545 8.38395065,19.3827818 M6.68844416,13.7931974 L4.5578987,13.7931974 L4.5578987,21.2339766 L6.67722338,21.2339766 C7.80421039,21.2339766 8.61771688,20.9681844 9.33210649,20.3748857 C10.1809117,19.6726519 10.6828078,18.6136909 10.6828078,17.5187299 C10.6828078,15.3227299 9.0420026,13.7931974 6.68844416,13.7931974" id="Fill-9" fill="#231F20"></path>
                            <polygon id="Fill-11" fill="#231F20" points="11.3507013 21.2340701 12.8019221 21.2340701 12.8019221 13.7932909 11.3507013 13.7932909"></polygon>
                            <path d="M16.350961,16.6484649 C15.4799481,16.3263351 15.2244416,16.1136078 15.2244416,15.7117636 C15.2244416,15.2430623 15.6800519,14.8868026 16.3056104,14.8868026 C16.7404156,14.8868026 17.0976104,15.0656338 17.4758442,15.4894519 L18.2353506,14.4950104 C17.6114286,13.9491662 16.8645455,13.6700494 16.0489351,13.6700494 C14.7323636,13.6700494 13.7281039,14.5843091 13.7281039,15.8022312 C13.7281039,16.8272961 14.1956364,17.3521013 15.5587273,17.8427766 C16.127013,18.0431143 16.4161818,18.1765948 16.5620519,18.266361 C16.8521558,18.4557117 16.9973247,18.7238416 16.9973247,19.036387 C16.9973247,19.6392701 16.5178701,20.0859974 15.8703377,20.0859974 C15.1781558,20.0859974 14.6206234,19.7397896 14.2863377,19.093426 L13.3487013,19.9964649 C14.0175065,20.9780494 14.8204935,21.4128545 15.925039,21.4128545 C17.4330649,21.4128545 18.4910909,20.4102312 18.4910909,18.9697636 C18.4910909,17.787374 18.0018182,17.2522831 16.350961,16.6484649" id="Fill-13" fill="#231F20"></path>
                            <path d="M18.9490857,17.5187065 C18.9490857,19.7058234 20.6665662,21.4017974 22.8765922,21.4017974 C23.5014494,21.4017974 24.0365403,21.2788364 24.6962286,20.968161 L24.6962286,19.2595636 C24.1162545,19.840239 23.6019688,20.0747065 22.9441506,20.0747065 C21.4824104,20.0747065 20.4447221,19.0148104 20.4447221,17.5079532 C20.4447221,16.0794078 21.5153714,14.9524208 22.8765922,14.9524208 C23.5690078,14.9524208 24.0928779,15.1995117 24.6962286,15.7897714 L24.6962286,14.0818753 C24.0589818,13.7588104 23.5353455,13.6248623 22.9107221,13.6248623 C20.7119169,13.6248623 18.9490857,15.3552 18.9490857,17.5187065" id="Fill-14" fill="#231F20"></path>
                            <polygon id="Fill-15" fill="#231F20" points="36.2041896 18.7911896 34.2199818 13.7932675 32.6343455 13.7932675 35.7920597 21.4250338 36.5730727 21.4250338 39.7875922 13.7932675 38.2143455 13.7932675"></polygon>
                            <polygon id="Fill-16" fill="#231F20" points="40.4439377 21.2339766 44.5598597 21.2339766 44.5598597 19.9744442 41.8942234 19.9744442 41.8942234 17.9659247 44.4616779 17.9659247 44.4616779 16.7054571 41.8942234 16.7054571 41.8942234 15.0538987 44.5598597 15.0538987 44.5598597 13.7931974 40.4439377 13.7931974"></polygon>
                            <path d="M47.3948364,17.2188545 L46.9710182,17.2188545 L46.9710182,14.9651143 L47.4179792,14.9651143 C48.3219532,14.9651143 48.8130961,15.3438156 48.8130961,16.0680234 C48.8130961,16.8160753 48.3219532,17.2188545 47.3948364,17.2188545 M50.3066286,15.9899455 C50.3066286,14.5969325 49.3472519,13.7932442 47.6732519,13.7932442 L45.5212,13.7932442 L45.5212,21.2340234 L46.9710182,21.2340234 L46.9710182,18.2448545 L47.1601351,18.2448545 L49.1691221,21.2340234 L50.954161,21.2340234 L48.6115896,18.0994519 C49.7049143,17.8769065 50.3066286,17.1293221 50.3066286,15.9899455" id="Fill-17" fill="#231F20"></path>
                            <path d="M33.0869169,17.5392545 C33.0869169,19.7254364 31.3147351,21.4978519 29.1285532,21.4978519 C26.9421377,21.4978519 25.1701896,19.7254364 25.1701896,17.5392545 C25.1701896,15.3530727 26.9421377,13.5811247 29.1285532,13.5811247 C31.3147351,13.5811247 33.0869169,15.3530727 33.0869169,17.5392545" id="Fill-18" fill="#E67E22"></path>
                        </g>
                    </g>
                </g>
            </g>
        </g>
    </g>
</svg>