<svg width="25" height="40" viewBox="0 0 25 40" fill="none" xmlns="http://www.w3.org/2000/svg">
<path d="M25 0H0V40H25V0Z" fill="white"/>
<path d="M12.4667 32.3151C12.6843 32.2056 18.3419 29.7403 20.1371 28.2612C21.9867 26.7273 22.9659 24.536 22.9659 21.9064V9.58034L22.8027 9.52556C18.2875 7.06034 12.6843 7.22469 12.4123 7.22469C12.1947 7.22469 6.5915 7.06034 2.0763 9.52556L1.9675 9.58034V21.9612C1.9675 24.5908 2.9467 26.7821 4.7963 28.316C6.5915 29.7951 12.2491 32.2603 12.4667 32.3151Z" fill="#341B14"/>
<path d="M12.4668 32.5891C12.4668 32.5891 6.4828 29.9595 4.6332 28.4804C2.6748 26.8369 1.75 24.5908 1.75 22.016V9.1969C6.4828 6.62211 12.4668 6.84125 12.4668 6.84125C12.4668 6.84125 18.4508 6.62211 23.1836 9.1969V21.9612C23.1836 24.536 22.2588 26.7821 20.3004 28.4256C18.4508 29.9595 12.4668 32.5891 12.4668 32.5891ZM2.6204 22.016C2.6204 24.4265 3.4908 26.3986 5.1772 27.7682C6.7004 29.0282 11.2156 31.0552 12.4668 31.603C13.718 31.0552 18.2876 28.9734 19.7564 27.7682C21.4428 26.3986 22.3132 24.3717 22.3132 22.016V9.41603C16.0028 8.81342 8.4956 9.14211 2.6204 14.6204V22.016Z" fill="#FFB406"/>
<path d="M18.5052 20.2082C19.3212 20.7013 19.6476 21.03 19.702 21.6326C19.702 22.29 19.2668 22.6735 18.5596 22.6735C17.9612 22.6735 17.254 22.3448 16.7644 21.9065V23.6596C17.3628 23.9882 18.07 24.2622 18.8316 24.2622C20.6812 24.2622 21.5516 22.9474 21.5516 21.7422C21.606 20.6465 21.2796 19.77 19.702 18.8387C18.9948 18.4004 18.4508 18.1265 18.4508 17.4691C18.4508 16.8117 19.0492 16.5378 19.5388 16.5378C20.1916 16.5378 20.8444 16.9213 21.2252 17.3048V15.6613C20.8988 15.3874 20.1916 15.0039 19.158 15.0587C17.9068 15.1135 16.6012 15.99 16.6012 17.5239C16.6556 18.5648 16.982 19.3317 18.5052 20.2082ZM12.086 24.1526C12.2492 24.2074 12.5212 24.2622 12.9564 24.2622C15.078 24.2622 16.2748 22.3448 16.2748 19.6056C16.2748 16.8117 15.0236 15.1135 12.7932 15.1135C11.7596 15.1135 10.9436 15.3326 10.2364 15.7709V28.1517H12.086V24.1526ZM12.086 16.7022C12.2492 16.6474 12.5212 16.5378 12.7388 16.5378C13.8268 16.5378 14.262 17.4143 14.262 19.5509C14.262 21.6326 13.718 22.6187 12.63 22.6187C12.358 22.6187 12.1404 22.5639 12.0316 22.5091V16.7022H12.086ZM6.374 24.2622C7.5164 24.2622 8.4956 23.9882 9.2028 23.4952V15.223H7.2988V22.3996C7.0812 22.5639 6.8092 22.6187 6.4284 22.6187C5.558 22.6187 5.4492 21.7969 5.4492 21.3039V15.223H3.5452V21.1943C3.5452 23.2213 4.5244 24.2622 6.374 24.2622ZM19.0492 31.6578V32.9178H19.2668V32.4248H19.3212L19.6476 32.9178H19.9196C19.9196 32.9178 19.5932 32.4248 19.5388 32.37C19.702 32.3152 19.8108 32.2056 19.8108 32.0413C19.8108 31.8769 19.702 31.6578 19.3756 31.6578H19.0492ZM19.3756 31.8222C19.5388 31.8222 19.5932 31.9317 19.5932 31.9865C19.5932 32.0961 19.5388 32.2056 19.3212 32.2056H19.2668V31.8222H19.3756Z" fill="#FFB406"/>
<path d="M20.2458 32.2604C20.2458 32.6987 19.865 33.0822 19.4298 33.0822C18.9946 33.0822 18.6138 32.6987 18.6138 32.2604C18.6138 31.8222 18.9946 31.4387 19.4298 31.4387C19.9194 31.4387 20.2458 31.8222 20.2458 32.2604ZM19.4298 31.2195C18.8858 31.2195 18.3962 31.6578 18.3962 32.2604C18.3962 32.8082 18.8314 33.3013 19.4298 33.3013C19.9738 33.3013 20.4634 32.863 20.4634 32.2604C20.4634 31.7126 19.9738 31.2195 19.4298 31.2195Z" fill="#FFB406"/>
</svg>
