<svg width="30" height="30" viewBox="0 0 30 30" fill="none" xmlns="http://www.w3.org/2000/svg">
<path d="M0 2C0 0.89543 0.895431 0 2 0H28C29.1046 0 30 0.895431 30 2V28C30 29.1046 29.1046 30 28 30H2C0.89543 30 0 29.1046 0 28V2Z" fill="#225123"/>
<path d="M17.5572 11.7944C17.7461 12.0966 17.935 12.4083 18.1239 12.72C19.38 12.0588 20.6456 11.3977 21.9112 10.746C22.1662 12.1627 21.9773 13.6644 21.3539 14.9678C20.74 16.2806 19.72 17.3856 18.4544 18.1034C16.9905 18.9346 15.2338 19.2179 13.581 18.8779C11.8526 18.5379 10.2753 17.499 9.26475 16.0539C8.2825 14.6845 7.82916 12.9561 8.00861 11.2938C8.13139 9.99991 8.63195 8.75321 9.41586 7.73319C10.6248 6.14648 12.5326 5.11701 14.5254 4.99423C15.8855 4.91867 17.2927 5.11701 18.5111 5.7498C19.635 6.32593 20.5228 7.29873 21.0517 8.43209C21.335 8.28098 21.6278 8.12042 21.9112 7.9693C21.1178 6.31648 19.6444 5.01312 17.8972 4.44644C15.9799 3.83254 13.836 3.82309 11.9659 4.59755C10.1998 5.31535 8.70751 6.68483 7.85749 8.39431C7.12081 9.8299 6.85636 11.5016 7.07358 13.0978C7.30026 14.8261 8.13139 16.4695 9.37808 17.6973C10.8137 19.1235 12.8159 19.9829 14.8466 20.0018C16.5277 20.0396 18.2183 19.5296 19.5878 18.5568C21.0328 17.5462 22.1284 16.0445 22.6479 14.3445C23.1673 12.6728 23.1106 10.831 22.4873 9.19711C20.8345 10.0471 19.1911 10.916 17.5572 11.7944Z" fill="white"/>
<path d="M8.32963 6.25991C8.84909 6.34492 9.36855 5.8349 9.2741 5.31545C9.21743 4.82433 8.66964 4.47487 8.19741 4.63543C7.92351 4.72043 7.69684 4.95655 7.63073 5.23989C7.50795 5.70268 7.8574 6.20325 8.32963 6.25991Z" fill="white"/>
<path d="M16.0366 6.28801C15.8288 6.203 15.6682 6.02356 15.4415 5.98578C14.9504 5.89133 14.4404 5.87244 13.9398 5.93855C13.8926 6.02356 13.8548 6.118 13.8076 6.203C14.1098 6.23134 14.4121 6.29745 14.6954 6.42023C14.7899 6.4769 15.0165 6.50523 14.8654 6.68468C14.9315 6.67524 14.9976 6.66579 15.0638 6.65635C15.2715 7.08136 15.6588 7.44025 16.1405 7.46859C16.0649 7.18525 16.0271 6.90191 16.0177 6.60912C16.0555 6.59968 16.131 6.59023 16.1688 6.58079C16.131 6.4769 16.0838 6.38245 16.0366 6.28801Z" fill="white"/>
<path d="M19.9467 9.48044C20.1733 9.23488 19.9655 8.94209 19.8617 8.68709C19.9844 8.5643 19.9939 8.38486 19.8617 8.27152C19.1911 7.44039 18.3316 6.76981 17.3494 6.35425C17.831 6.56203 18.1711 6.99649 18.6622 7.16649C18.7944 7.32705 18.9455 7.48761 19.0872 7.63873C18.9833 7.62928 18.8794 7.61039 18.7661 7.61039C18.8511 7.73317 18.9455 7.84651 19.04 7.96929C19.1155 7.94096 19.1816 7.89373 19.2383 7.83706C19.2383 7.92207 19.2383 8.08262 19.2383 8.16763C19.3894 8.29985 19.5122 8.46986 19.635 8.63042H19.3989C19.5311 8.95154 19.6916 9.25377 19.9467 9.48044Z" fill="white"/>
<path d="M11.6448 12.5027C11.7959 12.6727 11.9376 12.89 12.1642 12.9561C12.5987 13.0694 13.0615 13.0222 13.4959 13.1733C13.836 13.2866 14.1004 13.5605 14.4499 13.655C14.4876 13.6078 14.5632 13.5133 14.601 13.4755C14.431 13.4283 14.1948 13.4661 14.0815 13.2961C14.0437 13.1639 14.0721 13.0222 14.0154 12.8994C13.8737 12.805 13.6943 12.8427 13.5337 12.8238C13.5243 12.6727 13.5243 12.5122 13.5054 12.3611C13.2504 12.4083 13.1276 12.6822 12.882 12.7483C12.7593 12.7861 12.6176 12.72 12.5609 12.6161C12.4098 12.3705 12.372 12.0494 12.4665 11.7849C12.6554 11.596 12.9482 11.5488 13.1937 11.4827C13.1559 11.4544 13.0898 11.3977 13.052 11.3599C13.3826 11.0671 13.7321 11.4733 13.9871 11.681C13.921 11.3127 14.0343 10.9255 14.3176 10.6705C14.4026 10.4532 14.3837 10.1982 14.4782 9.981C14.5726 9.896 14.686 9.82989 14.7993 9.76377C14.8938 9.5371 14.9976 9.23487 15.2904 9.21598C15.2243 9.31043 15.1488 9.39543 15.0826 9.48988C15.2904 9.4521 15.4415 9.29154 15.6021 9.14987C15.4227 9.15931 15.2527 9.10265 15.0826 9.05542C15.111 8.97986 15.1488 8.90431 15.1771 8.8193C14.9315 8.8193 14.7993 9.02709 14.6387 9.1782C14.7426 8.80986 15.1393 8.79097 15.4415 8.67763C15.5549 8.57374 15.6021 8.42263 15.6777 8.2904C15.6116 8.2904 15.4982 8.2904 15.4321 8.2904C15.2243 8.10151 15.026 7.90317 14.8371 7.69539C14.6765 7.77094 14.5065 7.81817 14.3365 7.83706C14.3271 7.78983 14.2893 7.69539 14.2799 7.64816C14.1004 7.61983 13.9115 7.5915 13.7226 7.57261C13.8832 7.95039 13.8737 8.36596 13.8076 8.77208C13.4959 8.52652 13.0993 8.41318 12.7026 8.36596C12.6931 8.22429 12.6554 8.07317 12.6931 7.9315C12.7215 7.70483 12.9765 7.63872 13.137 7.51594C13.1182 7.4876 13.0898 7.43094 13.0709 7.4026C13.2882 7.3176 13.4582 7.16649 13.5621 6.94926C13.3921 6.93981 13.2598 7.02481 13.1465 7.12871C12.8065 7.03426 13.1276 6.73203 13.1559 6.53369C13.0143 6.62814 12.9009 6.76036 12.8065 6.90203C12.8631 7.0437 12.797 7.16648 12.7309 7.28927C12.712 7.27038 12.6648 7.24204 12.6459 7.22315C12.4381 7.32704 12.1737 7.25149 12.0037 7.42149C11.8242 7.29871 11.6165 7.26093 11.4087 7.2326C11.2953 7.30816 11.1914 7.38371 11.0781 7.45927C11.0403 7.41205 10.9742 7.3176 10.9364 7.27038C10.502 7.65761 10.0203 8.01651 9.68974 8.50763C9.56695 8.76264 9.46306 9.02709 9.27417 9.23487C9.53862 9.05542 9.59529 8.70597 9.85974 8.52652L9.90696 8.45096C10.0675 8.54541 10.1714 8.71541 10.1053 8.91375L10.1714 8.85708C10.1336 9.15931 10.2092 9.46154 10.3792 9.71655C10.332 9.66933 10.2281 9.58432 10.1809 9.54654C10.2186 9.99044 10.1809 10.4343 10.2281 10.8782C10.2753 11.2371 10.502 11.5394 10.7003 11.8322C10.8987 12.1061 11.0875 12.3894 11.3709 12.5972C11.2292 12.2572 10.9459 11.9927 10.8137 11.6433C11.1631 11.8416 11.3803 12.2005 11.6448 12.5027Z" fill="white"/>
<path d="M18.6811 7.36486L18.6434 7.43097C18.5111 7.30819 18.36 7.2043 18.1995 7.13818C18.275 7.25152 18.3695 7.34597 18.4734 7.43097C18.5206 7.61986 18.6528 7.78042 18.8134 7.89376C18.785 7.83709 18.7284 7.71431 18.7 7.6482C18.6906 7.55375 18.6811 7.4593 18.6811 7.36486Z" fill="white"/>
<path d="M14.0532 11.9737C13.921 11.9453 13.836 12.0587 13.751 12.1437C14.0815 12.1531 14.431 12.0965 14.7521 12.2003C14.5538 12.0398 14.2893 12.0115 14.0532 11.9737Z" fill="white"/>
<path d="M21.2501 11.936C20.9573 12.106 20.6361 12.2194 20.3339 12.3705C20.145 12.5405 20.06 12.7955 19.9656 13.0222C20.0884 13.0505 20.2111 13.0788 20.3434 13.1072C20.4945 14.0894 20.4 15.1378 20.0222 16.0634C20.8912 14.8733 21.2973 13.3905 21.2501 11.936Z" fill="white"/>
<path d="M15.0827 12.3422C15.2149 12.3139 15.3565 12.2856 15.4888 12.2478C15.3188 12.1911 15.1488 12.1533 14.9788 12.125C15.0071 12.1911 15.0449 12.2667 15.0827 12.3422Z" fill="white"/>
<path d="M17.3211 16.6584C17.5383 16.4884 17.51 16.1389 17.7461 15.9784C17.9161 15.8367 18.1522 15.7517 18.2467 15.5345C18.4733 15.0622 18.6622 14.5711 18.7945 14.0611C18.5583 13.9478 18.3128 13.8722 18.0483 13.9194C18.02 13.8911 17.9633 13.8439 17.935 13.8155C17.7933 13.8061 17.6611 13.7967 17.5194 13.7967C17.4628 13.6455 17.5194 13.4 17.34 13.3244C17.1322 13.2394 16.8961 13.2583 16.6694 13.2489C16.5277 13.1355 16.3955 13.0033 16.2444 12.9089C15.9705 12.975 15.6872 13.0316 15.4133 12.9372C15.4133 13.0033 15.4133 13.1355 15.4133 13.2016C15.3944 13.2205 15.3471 13.2583 15.3283 13.2772C15.3188 13.145 15.3094 13.0222 15.2999 12.8994C15.0544 13.06 14.941 13.4189 14.6199 13.4472C14.7427 13.5794 14.8749 13.7494 14.8182 13.9383C14.7332 14.1367 14.5538 14.3161 14.6294 14.5428C14.8088 15.2134 15.5644 15.4778 15.8666 16.0728C16.0649 16.5828 15.7533 17.1117 15.8572 17.6312C15.8949 17.6406 15.9705 17.6595 16.0083 17.669C15.9611 17.754 15.9138 17.8484 15.8666 17.9334C15.9516 18.1034 16.0272 18.3584 16.2727 18.3301C16.2444 18.2734 16.1783 18.179 16.1499 18.1223C16.3955 17.7256 16.5655 17.2723 16.8866 16.9228C17.0283 16.8378 17.1889 16.7717 17.3211 16.6584Z" fill="white"/>
<path d="M15.4699 20.5969C13.7604 22.3159 12.0415 24.0253 10.332 25.7443C13.7604 25.7537 17.1889 25.7537 20.6173 25.7443C18.9078 24.0253 17.1889 22.3159 15.4699 20.5969Z" fill="white"/>
</svg>
