<svg width="30" height="30" viewBox="0 0 30 30" fill="none" xmlns="http://www.w3.org/2000/svg">
<rect width="30" height="30" rx="2" fill="#29007C"/>
<path d="M28.7804 17.4531C28.7804 17.0823 28.5019 16.8108 28.1181 16.8108C27.7349 16.8108 27.456 17.0823 27.456 17.4531C27.456 17.8233 27.7349 18.0944 28.1181 18.0944C28.5019 18.0944 28.7804 17.8229 28.7804 17.4531ZM27.944 17.4861V17.9056H27.8004V16.9805H28.1573C28.3664 16.9805 28.4623 17.0666 28.4623 17.2347C28.4623 17.3382 28.3882 17.4202 28.2928 17.432V17.436C28.3756 17.4484 28.4061 17.5182 28.4231 17.646C28.4362 17.7287 28.4536 17.8722 28.4848 17.9059H28.3149C28.2754 17.819 28.2794 17.6959 28.2489 17.5929C28.2237 17.5145 28.1794 17.4859 28.0843 17.4859H27.9448V17.4864L27.944 17.4861ZM28.1221 17.3665C28.2615 17.3665 28.3014 17.2964 28.3014 17.2345C28.3014 17.1614 28.2615 17.1037 28.1221 17.1037H27.944V17.3668H28.1221V17.3665ZM27.2981 17.4531C27.2981 16.9962 27.6823 16.6874 28.1174 16.6874C28.5538 16.6874 28.9376 16.9962 28.9376 17.4531C28.9376 17.9091 28.554 18.2182 28.1174 18.2182C27.6823 18.2182 27.2981 17.9091 27.2981 17.4531Z" fill="#FF5A00"/>
<path d="M24.4584 18.0845L23.5138 17.0845L22.5775 18.0845H20.6073L22.5329 16.0425L20.6073 13.9999H22.639L23.5932 14.9922L24.5113 13.9999H26.4719L24.5559 16.0339L26.4985 18.0845H24.4584ZM16.8242 18.0845V11.65H20.6073V13.0842H18.4267V13.9999H20.6073V15.38H18.4267V16.6466H20.6073V18.0845H16.8242Z" fill="#FF5A00"/>
<path d="M15.2278 11.65V14.2833H15.2101C14.8568 13.9 14.4152 13.7664 13.9031 13.7664C12.8538 13.7664 12.0633 14.4402 11.7859 15.3303C11.4693 14.3494 10.6532 13.7481 9.44325 13.7481C8.46041 13.7481 7.68459 14.1643 7.27931 14.8428V13.9998H5.24812V13.0844H7.46497V11.6503H3.4375V18.0845H5.24812V15.38H7.05284C6.99725 15.588 6.96946 15.8017 6.97013 16.0162C6.97013 17.3577 8.05624 18.3005 9.44293 18.3005C10.6086 18.3005 11.3774 17.7835 11.7836 16.8422H10.2318C10.0221 17.1255 9.86272 17.2091 9.44309 17.2091C8.95669 17.2091 8.53691 16.8083 8.53691 16.3339H11.6966C11.8337 17.3997 12.7134 18.3187 13.9208 18.3187C14.4416 18.3187 14.9185 18.077 15.2099 17.6685H15.2275V18.0854H16.8239V11.6503H15.2278V11.65ZM8.58727 15.3992C8.68815 14.9904 9.02395 14.7232 9.44309 14.7232C9.90463 14.7232 10.2234 14.9821 10.307 15.3992H8.58727ZM14.259 17.1053C13.6707 17.1053 13.3051 16.588 13.3051 16.0476C13.3051 15.4699 13.6232 14.915 14.259 14.915C14.9186 14.915 15.1814 15.4702 15.1814 16.0476C15.1814 16.5949 14.9032 17.1053 14.259 17.1053Z" fill="white"/>
</svg>
