<svg width="67" height="26" viewBox="0 0 67 26" fill="none" xmlns="http://www.w3.org/2000/svg">
<path d="M38.0928 0.640284C36.7626 1.34345 36.2878 2.50272 36.2878 5.71403C36.2878 5.71403 36.9529 5.06759 37.9413 4.70704C38.6632 4.45996 39.2715 4.06061 39.6321 3.79485C40.7532 2.97748 40.9055 1.9317 40.9055 0.164802C40.9055 0.164802 39.0812 0.107343 38.0928 0.640284Z" fill="#FFCB29"/>
<path d="M30.3023 1.40006C29.2379 2.35031 28.9147 3.85147 28.9147 3.85147L25.3421 17.5722L22.3965 6.32226C22.1114 5.14432 21.5791 3.64317 20.7618 2.65413C19.7361 1.40006 17.6266 1.32393 17.3982 1.32393C17.1698 1.32393 15.0423 1.40006 13.9965 2.67353C13.1792 3.68052 12.6476 5.163 12.3625 6.34094L9.41697 17.5909L5.88173 3.85147C5.88173 3.85147 5.57791 2.33093 4.4955 1.40006C2.74655 -0.139151 0.142883 0.184063 0.142883 0.184063L6.92751 25.914C6.92751 25.914 9.16986 26.085 10.2911 25.496C11.7541 24.7548 12.476 24.1658 13.3695 20.65C14.1675 17.5335 16.3912 8.3736 16.6003 7.70849C16.695 7.38528 16.8279 6.60669 17.3982 6.60669C17.9872 6.60669 18.1021 7.3666 18.1962 7.70849C18.4052 8.3549 20.6095 17.5342 21.4269 20.65C22.3204 24.1471 23.0236 24.7167 24.506 25.496C25.6265 26.085 27.8696 25.914 27.8696 25.914L34.6535 0.202738C34.6535 0.202738 32.0506 -0.120476 30.3023 1.40006ZM40.9059 4.38369C40.9059 4.38369 40.4879 5.03012 39.5189 5.59969C38.8919 5.9423 38.3023 6.18866 37.6565 6.4932C36.5921 7.00604 36.2883 7.59501 36.2883 8.4691V25.9155C36.2883 25.9155 38.0171 26.1238 39.1197 25.5729C40.5633 24.8317 40.8866 24.1292 40.9059 20.9172V4.38369ZM57.8575 13.1062L66.4664 0.25948C66.4664 0.25948 62.8363 -0.367556 61.0314 1.28658C59.8721 2.33093 58.5792 4.21275 58.5792 4.21275L55.4247 8.8117C55.2537 9.03945 55.0828 9.30591 54.7596 9.30591C54.4364 9.30591 54.2281 9.05881 54.0945 8.8117L50.9019 4.23142C50.9019 4.23142 49.6291 2.3496 48.4505 1.30526C46.6642 -0.348163 43.0154 0.278154 43.0154 0.278154L51.6431 13.0875L43.0154 25.8767C43.0154 25.8767 46.8164 26.3708 48.6027 24.7175C49.762 23.6724 50.8832 21.9429 50.8832 21.9429L54.0377 17.3633C54.2087 17.1349 54.3797 16.8691 54.7028 16.8691C55.0261 16.8691 55.2344 17.1162 55.3679 17.3633L58.5226 21.9429C58.5226 21.9429 59.7005 23.6343 60.841 24.7175C62.6274 26.3708 66.3716 25.8767 66.3716 25.8767L57.8575 13.1062Z" fill="#2E3133"/>
</svg>
