<?xml version="1.0" encoding="UTF-8"?>
<svg width="15px" height="19px" viewBox="0 0 15 19" version="1.1" xmlns="http://www.w3.org/2000/svg" xmlns:xlink="http://www.w3.org/1999/xlink">
    <!-- Generator: sketchtool 58 (101010) - https://sketch.com -->
    <title>7D18A921-AFD5-406A-9710-42FFB9D6E230</title>
    <desc>Created with sketchtool.</desc>
    <g id="Customs-Form" stroke="none" stroke-width="1" fill="none" fill-rule="evenodd">
        <g id="Customs-Declaration-states" transform="translate(-390.000000, -559.000000)" stroke="#718087">
            <g id="icon/20_customs" transform="translate(391.000000, 560.000000)">
                <polyline id="Shape" points="10 -1.90792752e-16 10 3 13 3"></polyline>
                <path d="M13,14.4783167 C13,14.7630682 12.7709355,15 12.4878615,15 L2.50935751,15 C2.22686901,15 2,14.7630682 2,14.4783167 L2,0.525344451 C2,0.240742401 2.22686901,-2.48861971e-16 2.50935751,-2.48861971e-16 L10.4117174,-2.48861971e-16 C10.5460824,-2.48861971e-16 10.6085079,0.0582802833 10.7040125,0.15317254 L12.8473391,2.28488598 C12.9446001,2.38157148 13,2.51636331 13,2.6542186 L13,14.4783167 L13,14.4783167 Z" id="Shape"></path>
                <path d="M11,12 L5,12" id="Shape"></path>
                <path d="M11,10 L5,10" id="Shape"></path>
                <path d="M11,8 L5,8" id="Shape"></path>
                <path d="M9,6 L5,6" id="Shape"></path>
                <path d="M0.54278948,2 C0.242752088,2 1.12918109e-14,2.24290831 1.12918109e-14,2.54254014 L1.12918109e-14,16.4568612 C1.12918109e-14,16.7567924 0.242752088,17 0.54278948,17 L11.4575097,17 C11.7569488,17 12,16.7567924 12,16.4568612" id="Shape"></path>
            </g>
        </g>
    </g>
</svg>