<?xml version="1.0" encoding="UTF-8"?>
<svg width="11px" height="12px" viewBox="0 0 11 12" version="1.1" xmlns="http://www.w3.org/2000/svg" xmlns:xlink="http://www.w3.org/1999/xlink">
    <!-- Generator: Sketch 52.3 (67297) - http://www.bohemiancoding.com/sketch -->
    <title>notes</title>
    <desc>Created with Sketch.</desc>
    <g id="Page-1" stroke="none" stroke-width="1" fill="none" fill-rule="evenodd">
        <g id="Button-states" transform="translate(-954.000000, -269.000000)" fill="#555555">
            <g id="Group-6" transform="translate(278.000000, 191.000000)">
                <g id="notes" transform="translate(676.000000, 78.000000)">
                    <path d="M10.2142857,0 L0.785714286,0 C0.314285714,0 0,0.3 0,0.75 L0,11.25 C0,11.7 0.314285714,12 0.785714286,12 L10.2142857,12 C10.6857143,12 11,11.7 11,11.25 L11,0.75 C11,0.3 10.6857143,0 10.2142857,0 Z M9.42857143,10.5 L5.5,10.5 L1.57142857,10.5 L1.57142857,1.5 L9.42857143,1.5 L9.42857143,10.5 Z" id="Shape" fill-rule="nonzero"></path>
                    <path d="M3.625,4.5 L7.375,4.5 C7.75,4.5 8,4.2 8,3.75 C8,3.3 7.75,3 7.375,3 L3.625,3 C3.25,3 3,3.3 3,3.75 C3,4.2 3.25,4.5 3.625,4.5 Z" id="Path"></path>
                    <path d="M3.75,7.5 L6,7.5 C6.45,7.5 6.75,7.2 6.75,6.75 C6.75,6.3 6.45,6 6,6 L3.75,6 C3.3,6 3,6.3 3,6.75 C3,7.2 3.3,7.5 3.75,7.5 Z" id="Path"></path>
                </g>
            </g>
        </g>
    </g>
</svg>