<?xml version="1.0" encoding="UTF-8"?>
<svg width="47px" height="34px" viewBox="0 0 47 34" version="1.1" xmlns="http://www.w3.org/2000/svg" xmlns:xlink="http://www.w3.org/1999/xlink">
    <!-- Generator: sketchtool 55.2 (78181) - https://sketchapp.com -->
    <title>5739F9CF-018D-4318-AB54-784CD087CB58</title>
    <desc>Created with sketchtool.</desc>
    <g id="Page-1" stroke="none" stroke-width="1" fill="none" fill-rule="evenodd">
        <g id="All-label-formats" transform="translate(-1033.000000, -821.000000)">
            <rect fill="#FFFFFF" x="0" y="0" width="1280" height="1457"></rect>
            <g id="Group-7-Copy-15" transform="translate(1056.500000, 838.000000) rotate(-270.000000) translate(-1056.500000, -838.000000) translate(1039.500000, 814.500000)">
                <g id="Group-11">
                    <rect id="Rectangle" stroke="#BCC2C8" fill="#FFFFFF" x="0.5" y="0.5" width="33" height="46" rx="2"></rect>
                    <rect id="Rectangle" fill="#BCC2C8" x="10" y="7" width="16" height="2"></rect>
                    <rect id="Rectangle" fill="#BCC2C8" x="5" y="7" width="3" height="2"></rect>
                    <rect id="Rectangle" fill="#BCC2C8" x="10" y="10" width="18" height="2"></rect>
                    <rect id="Rectangle-Copy" fill="#BCC2C8" x="10" y="13" width="12" height="2"></rect>
                    <rect id="Rectangle-Copy-3" fill="#BCC2C8" x="10" y="16" width="16" height="2"></rect>
                    <rect id="Rectangle" fill="#BCC2C8" x="5" y="10" width="3" height="2"></rect>
                    <rect id="Rectangle-Copy-2" fill="#BCC2C8" x="5" y="13" width="3" height="2"></rect>
                    <rect id="Rectangle-Copy-5" fill="#BCC2C8" x="5" y="16" width="3" height="2"></rect>
                    <rect id="Rectangle" fill="#BCC2C8" x="23" y="22" width="10" height="24"></rect>
                    <text id="ZPLII" transform="translate(28.500000, 33.500000) rotate(270.000000) translate(-28.500000, -33.500000) " font-family="Roboto-Medium, Roboto" font-size="8" font-weight="400" fill="#FFFFFF">
                        <tspan x="19.1132813" y="36">ZPLII</tspan>
                    </text>
                </g>
            </g>
            <g id="format-copy-2" transform="translate(1034.000000, 844.000000)"></g>
        </g>
    </g>
</svg>