<svg width="101" height="129" viewBox="0 0 101 129" fill="none" xmlns="http://www.w3.org/2000/svg">
<g id="Layer_1" clip-path="url(#clip0_1304_2738)">
<path id="Vector" d="M39.5366 123.102C15.8403 111.62 0.535156 86.495 0.535156 59.0892V16.2857C1.11311 16.2928 1.68394 16.3 2.2619 16.3C21.3202 16.3 38.395 10.6937 50.4964 0.689209C62.605 10.6937 79.6798 16.3 98.731 16.3C99.3089 16.3 99.8869 16.2999 100.458 16.2857V59.082C100.458 86.495 85.1454 111.62 61.4562 123.095L50.4964 128.403L39.5295 123.095L39.5366 123.102Z" fill="#2569F4" stroke="black" stroke-width="1.5" stroke-miterlimit="10"/>
<path id="Vector_2" d="M43.6466 114.675C23.1754 104.756 9.93945 82.9352 9.93945 59.0892V25.395C25.1876 24.2652 39.187 19.7533 50.4964 12.3351C61.8059 19.7533 75.8053 24.2652 91.0534 25.395V59.0892C91.0534 82.9352 77.8246 104.756 57.3463 114.675L50.4964 117.994L43.6466 114.675Z" fill="#5FDDC4" stroke="black" stroke-width="1.5" stroke-miterlimit="10"/>
<path id="Vector_3" d="M45.937 109.993C27.2497 100.94 15.1768 80.9598 15.1768 59.0892V30.113C28.1915 28.5356 40.2644 24.5636 50.5036 18.4742C60.7498 24.5565 72.8228 28.5356 85.8304 30.113V59.0892C85.8304 80.9598 73.7503 100.94 55.063 109.993L50.5036 112.203L45.937 109.993Z" fill="#8AB1FF" stroke="black" stroke-width="1.5" stroke-miterlimit="10"/>
<path id="Vector_4" d="M71.2672 44.928H29.7399V84.1787H71.2672V44.928Z" fill="#FFD357" stroke="black" stroke-width="1.5" stroke-miterlimit="10"/>
<path id="Vector_5" d="M71.2672 44.928H58.0527V84.1787H71.2672V44.928Z" fill="#F2B300" stroke="black" stroke-width="1.5" stroke-miterlimit="10"/>
<path id="Vector_6" d="M46.7647 44.928H38.0453V53.6109H46.7647V44.928Z" fill="#83A6B4" stroke="black" stroke-width="1.5" stroke-miterlimit="10"/>
</g>
<defs>
<clipPath id="clip0_1304_2738">
<rect width="101" height="129" fill="white"/>
</clipPath>
</defs>
</svg>
