<svg version="1.1" xmlns="http://www.w3.org/2000/svg" xmlns:xlink="http://www.w3.org/1999/xlink" width="30" height="30" viewBox="79 0 1 187">
<path id="XMLID_6_" class="st0" fill-rule="evenodd" clip-rule="evenodd" fill="#DC0032" d="M77.4,0.5L4,40.5L85.5,88c0.7,0.4,1.6,1.3,1.6,2.2l0,69.9c0,1-0.9,1.6-1,1.7l-4.9,2.7  c-0.8,0.4-1.9,0.5-3-0.1l-4.3-2.4c-0.6-0.3-1.2-1.2-1.2-2.1V98c0-1.1-1.2-1.6-2-2.1L0,54.7v82.7c0,1.8,1.8,3.9,3.2,4.8l73.6,43.4  c2.4,1.4,3.8,1.2,7-0.5l72.7-42.9c1.7-1,3.3-2.9,3.3-4.9V54.7l-48.8,28.5c-0.6,0.4-1.7,0.5-2.4,0.1l-4.4-2.6  c-0.9-0.5-1.7-1.5-1.7-2.6l-0.1-5.2c0-0.8,0.5-1.8,1.2-2.2l52.2-30.4l-73.5-40C81.3-0.1,78.6-0.2,77.4,0.5L77.4,0.5z"/>
</svg>