<svg version="1.2" xmlns="http://www.w3.org/2000/svg" viewBox="0 0 1508 1506" width="1508" height="1506">
	<title>logo-color-svg</title>
	<defs>
		<linearGradient id="g1" x1="222.5" y1="220.2" x2="1286.7" y2="1285" gradientUnits="userSpaceOnUse">
			<stop offset=".2" stop-color="#c869a8"/>
			<stop offset=".5" stop-color="#6e7ebb"/>
			<stop offset=".8" stop-color="#00bcf1"/>
		</linearGradient>
	</defs>
	<style>
		.s0 { fill: url(#g1) } 
		.s1 { fill: #3e53a4 } 
	</style>
	<path id="Layer" fill-rule="evenodd" class="s0" d="m1042.7 57.3c91.4 37.8 174.5 93.2 244.5 163.1 69.9 69.9 125.4 152.9 163.3 244.2 37.9 91.3 57.4 189.2 57.4 288 0 304.4-183.6 578.8-465.2 695.3-281.6 116.5-605.7 52.1-821.2-163.1-215.6-215.3-280-539-163.4-820.2 116.6-281.2 391.4-464.6 696.2-464.6 99 0 197 19.5 288.4 57.3zm-15.4 1353.5c86.6-35.8 165.2-88.3 231.4-154.4 66.3-66.2 118.8-144.7 154.7-231.2 35.8-86.4 54.3-179 54.3-272.6 0-288.2-173.8-548-440.4-658.2-266.6-110.3-573.4-49.3-777.4 154.4-204 203.8-265.1 510.2-154.7 776.4 110.5 266.3 370.6 439.9 659.1 439.9 93.7 0 186.5-18.5 273-54.3zm-516.5-1226.8q2.9 1 5.5 2.7 2.6 1.6 4.6 3.9 2 2.3 3.4 5.1c5.6 13.4 2.8 24.5-8.3 29.5-268.5 121.5-402.1 425.5-309.7 705.1 92.3 279.5 380.9 444.5 669 382.5 288.1-62 483-331 451.9-623.7-31.1-292.8-278.2-514.9-572.9-515.2h-15.6c-11.7 0-19.6-8.9-19.6-23.4 0-14.5 7.9-23.4 20.1-23.4h15.1c319.9 0.1 588.2 241 622.1 558.6 33.9 317.7-177.4 609.7-490.1 677.2-312.6 67.4-625.9-111.5-726.2-414.8-100.4-303.3 44.4-633.4 335.8-765.2h8.9q3.1 0.1 6 1.1zm-6.1 152.1c2.5 0.8 4.9 2 7 3.5 2.2 1.4 4.2 3.1 6 5.1 1.7 2 3.2 4.2 4.4 6.5q1.6 2.4 2.7 5 1.2 2.7 2 5.4 0.8 2.8 1.1 5.6 0.4 2.9 0.3 5.8-0.4 2.5-1.3 4.9-1 2.5-2.4 4.6-1.4 2.2-3.3 4-1.9 1.8-4.1 3.2c-60 39.6-109.2 93.4-143.3 156.6-34.1 63.2-51.9 133.9-51.9 205.7 0 71.8 17.8 142.5 51.9 205.8 34.1 63.2 83.3 117 143.3 156.6 2.8 2.2 5.2 4.9 6.9 8 1.8 3.1 2.9 6.6 3.2 10.1 0.4 3.6 0 7.1-1.1 10.6-1 3.4-2.8 6.5-5.1 9.2q-1.8 3.3-4.3 6-2.6 2.7-5.7 4.7-3.2 1.9-6.7 3.1-3.6 1.1-7.3 1.3-1.8 0-3.6-0.3-1.8-0.3-3.5-0.8-1.7-0.6-3.3-1.4-1.6-0.9-3-2c-68.4-44.8-124.6-106-163.5-177.9-38.8-71.9-59.2-152.4-59.2-234.1 0-81.7 20.4-162.1 59.2-234.1 38.9-71.9 95.1-133 163.5-177.9q1.4-1.1 3-1.9 1.6-0.9 3.3-1.4 1.7-0.6 3.5-0.9 1.8-0.2 3.6-0.2c2.6 0.2 5.2 0.7 7.7 1.6zm249.6 849.7c115.3 0 225.9-45.8 307.5-127.2 81.5-81.5 127.3-191.9 127.3-307.1 0-115.2-45.8-225.7-127.3-307.1-81.6-81.4-192.2-127.2-307.5-127.2h-10.6c-15.1 0-24.6-11.7-24.6-29.5 0-17.9 9.5-29.6 24.6-29.6h10.6c130.9 0 256.4 51.9 348.9 144.4 92.6 92.4 144.6 217.7 144.6 348.4 0 130.7-52 256.1-144.6 348.5-92.5 92.4-218 144.3-348.9 144.3h-10.6c-15.1 0-24.6-11.1-24.6-29q-0.1-3.1 0.3-6.3 0.5-3.1 1.5-6.1 1-3 2.5-5.8 1.5-2.7 3.6-5.2 1.7-1.5 3.6-2.7 2-1.1 4.2-1.9 2.1-0.8 4.4-1.2 2.2-0.3 4.5-0.3zm-289.7-643.9c2.7-3.5 6.2-6.5 10.2-8.6 3.9-2.1 8.3-3.4 12.8-3.7 4.5-0.3 9 0.3 13.2 1.9 4.2 1.5 8 3.9 11.3 7.1 3.9 2.1 7.3 5.1 10 8.7 2.7 3.5 4.6 7.7 5.6 12 1 4.4 1.1 8.9 0.2 13.3-0.8 4.4-2.6 8.6-5.2 12.2-17.4 24.3-30.8 51.1-39.9 79.5-9.1 28.4-13.7 58-13.7 87.8 0 29.8 4.6 59.4 13.7 87.8 9.1 28.4 22.5 55.2 39.9 79.4 2.6 3.7 4.4 7.8 5.2 12.2 0.9 4.4 0.8 9-0.2 13.3-1 4.4-2.9 8.5-5.6 12.1-2.7 3.6-6.1 6.5-10 8.7-3.3 3.1-7.1 5.6-11.3 7.1-4.2 1.5-8.7 2.2-13.2 1.9-4.5-0.4-8.9-1.6-12.8-3.7-4-2.2-7.5-5.1-10.2-8.7-11-15.1-20.8-31.1-29.2-47.8-8.5-16.7-15.6-34-21.2-51.8-5.7-17.9-10-36.1-12.7-54.6-2.8-18.5-4.1-37.2-3.9-55.9-0.2-18.5 1-37 3.7-55.4 2.7-18.3 6.8-36.4 12.3-54.1 5.6-17.6 12.5-34.9 20.8-51.4 8.2-16.6 17.8-32.5 28.5-47.6z"/>
	<path id="Layer" class="s1" d="m756 954.4c-23.5 0-36.9-17.3-36.9-43.5 0-26.2 13.4-42.9 36.9-42.9 30.6-1.2 59.5-14.4 80.4-36.8 20.9-22.4 32-52.2 30.9-82.8-1.1-30.6-14.4-59.5-36.8-80.3-22.4-20.8-52.3-31.9-82.9-30.8-7.2-0.5-14.5-0.2-21.7 0.7-7.2 0.9-14.3 2.4-21.3 4.6-6.9 2.1-13.6 4.8-20.1 8.1-6.4 3.3-12.6 7.2-18.4 11.6v536.8c0 25.7-17.8 38.5-43 38.5-25.1 0-42.9-12.8-42.9-38.5v-530.1c0 0 0-33.5 0-39.6 1.3-4.5 3.1-8.8 5.3-12.9 2.2-4.1 4.9-7.9 7.9-11.4 3-3.6 6.4-6.8 10.1-9.7 3.6-2.8 7.6-5.2 11.8-7.3 10.6-5.9 21.6-11.2 32.9-15.8 11.3-4.6 22.8-8.5 34.6-11.7 11.7-3.2 23.6-5.7 35.7-7.4 12-1.7 24.2-2.7 36.4-3 51.7 2.7 100.3 25.2 135.9 62.7 35.7 37.5 55.5 87.2 55.5 138.9 0 51.6-19.8 101.4-55.5 138.9-35.6 37.5-84.2 59.9-135.9 62.6zm0 157.2c-23.5 0-36.9-17.3-36.9-43.5 0-26.2 13.4-42.9 36.9-42.9 72.4 0 141.8-28.7 193-79.9 51.2-51.1 79.9-120.4 79.9-192.7 0-72.3-28.7-141.7-79.9-192.8-51.2-51.1-120.6-79.8-193-79.8q-16.2-0.1-32.2 1.6-16.1 1.6-31.9 4.8-15.9 3.2-31.3 8-15.4 4.9-30.2 11.2c-6 2-12.3 2.6-18.5 1.5-6.3-1-12.1-3.5-17.1-7.3-5-3.8-9-8.7-11.7-14.4-2.6-5.7-3.8-12-3.5-18.2v-320.6c0-22.9 16.2-36.8 43-36.8 26.8 0 42.9 13.9 42.9 36.8v259.8q10.9-2.8 21.9-5 11-2.1 22.2-3.5 11.1-1.4 22.3-2 11.2-0.7 22.4-0.7c92.7 3.7 180.3 43 244.6 109.8 64.3 66.8 100.2 155.8 100.2 248.4 0 92.6-35.9 181.7-100.2 248.4-64.3 66.8-151.9 106.1-244.6 109.8z"/>
</svg>