<?xml version="1.0" encoding="UTF-8"?>
<svg width="54px" height="36px" viewBox="0 0 54 36" version="1.1" xmlns="http://www.w3.org/2000/svg" xmlns:xlink="http://www.w3.org/1999/xlink">
    <!-- Generator: Sketch 54.1 (76490) - https://sketchapp.com -->
    <title>Group 14</title>
    <desc>Created with Sketch.</desc>
    <defs>
        <polygon id="path-1" points="0 0 54 0 54 35.9999526 0 35.9999526"></polygon>
    </defs>
    <g id="Page-1" stroke="none" stroke-width="1" fill="none" fill-rule="evenodd">
        <g id="credit-card-form" transform="translate(-452.000000, -300.000000)">
            <g id="Group-4" transform="translate(252.000000, 147.000000)">
                <g id="Group-2" transform="translate(118.000000, 153.000000)">
                    <g id="Group-5" transform="translate(15.000000, 0.000000)">
                        <g id="Group-14" transform="translate(67.000000, 0.000000)">
                            <g id="Group-3">
                                <mask id="mask-2" fill="white">
                                    <use xlink:href="#path-1"></use>
                                </mask>
                                <g id="Clip-2"></g>
                                <path d="M54,32.3999526 C54,34.3882421 52.3880526,35.9999526 50.4,35.9999526 L3.6,35.9999526 C1.61194737,35.9999526 0,34.3882421 0,32.3999526 L0,3.59995263 C0,1.61166316 1.61194737,-4.73684211e-05 3.6,-4.73684211e-05 L50.4,-4.73684211e-05 C52.3880526,-4.73684211e-05 54,1.61166316 54,3.59995263 L54,32.3999526 Z" id="Fill-1" fill="#0054A4" mask="url(#mask-2)"></path>
                            </g>
                            <polygon id="Fill-4" fill="#FFFFFF" points="21.6941921 23.7119684 23.5735342 12.0778105 26.5774026 12.0778105 24.6982974 23.7119684"></polygon>
                            <path d="M35.595,12.3629684 C35.0005263,12.1294421 34.0668947,11.8748368 32.9035263,11.8748368 C29.9332895,11.8748368 27.8424474,13.4541 27.8251579,15.7145211 C27.8064474,17.3868632 29.3172632,18.3195474 30.4562368,18.8754158 C31.6267105,19.4450211 32.0196316,19.8095211 32.0153684,20.3192053 C32.0073158,21.0981789 31.0810263,21.4553368 30.2172632,21.4553368 C29.0145789,21.4553368 28.3755789,21.2796 27.3877105,20.8452316 L27.0011842,20.6600211 L26.5810263,23.2641 C27.2811316,23.5883368 28.5802105,23.8692316 29.9278421,23.8843895 C33.0842368,23.8843895 35.1355263,22.3245474 35.1596842,19.9104158 C35.1703421,18.5843368 34.3698158,17.5791789 32.6361316,16.7492842 C31.5862105,16.2099947 30.942,15.8523632 30.9495789,15.3064421 C30.9502895,14.8225737 31.4936053,14.3050737 32.6704737,14.3050737 C33.6531316,14.2894421 34.3646053,14.5161 34.9185789,14.7522316 L35.1881053,14.8853368 L35.595,12.3629684" id="Fill-6" fill="#FFFFFF"></path>
                            <path d="M39.5951921,19.5873395 C39.84435,18.9182605 40.7919553,16.3352605 40.7919553,16.3352605 C40.7744289,16.3658132 41.0394553,15.6612079 41.1907974,15.2249447 L41.3940079,16.2282079 C41.3940079,16.2282079 41.9704816,19.0051816 42.0891395,19.5873395 L39.5951921,19.5873395 Z M43.3008237,12.0891553 L40.9792974,12.0891553 C40.2592974,12.0891553 39.7207184,12.2952079 39.4050079,13.05405 L34.9436132,23.7157342 L38.0992974,23.7157342 C38.0992974,23.7157342 38.6134816,22.2816553 38.7307184,21.9668921 C39.07485,21.9668921 42.1407711,21.9728132 42.5784553,21.9728132 C42.6686921,22.3787605 42.9441395,23.7157342 42.9441395,23.7157342 L45.7322447,23.7157342 L43.3008237,12.0891553 L43.3008237,12.0891553 Z" id="Fill-8" fill="#FFFFFF"></path>
                            <path d="M19.1742632,12.0876158 L16.2336316,20.0189842 L15.9188684,18.4065632 C15.3705789,16.5487737 13.6655526,14.5353789 11.7577895,13.5264316 L14.4473684,23.7018789 L17.6269737,23.6997474 L22.3571842,12.0876158 L19.1742632,12.0876158" id="Fill-10" fill="#FFFFFF"></path>
                            <path d="M13.5044053,12.0795158 L8.6598,12.0795158 L8.62001053,12.3206211 C12.3898263,13.2843316 14.8837737,15.6103579 15.9187737,18.4065158 L14.8660105,13.0609895 C14.6843526,12.3239368 14.1569053,12.1053316 13.5044053,12.0795158" id="Fill-12" fill="#F39C12"></path>
                        </g>
                    </g>
                </g>
            </g>
        </g>
    </g>
</svg>