<?xml version="1.0" encoding="UTF-8"?>
<svg width="40px" height="34px" viewBox="0 0 40 34" version="1.1" xmlns="http://www.w3.org/2000/svg" xmlns:xlink="http://www.w3.org/1999/xlink">
    <!-- Generator: sketchtool 55.2 (78181) - https://sketchapp.com -->
    <title>7A8630C2-02BF-43B7-A09F-CE8BE033D0EE</title>
    <desc>Created with sketchtool.</desc>
    <g id="Page-1" stroke="none" stroke-width="1" fill="none" fill-rule="evenodd">
        <g id="All-label-formats" transform="translate(-610.000000, -821.000000)">
            <rect fill="#FFFFFF" x="0" y="0" width="1280" height="1457"></rect>
            <g id="Group-8" transform="translate(610.000000, 821.000000)">
                <g id="Group-7-Copy-12" transform="translate(20.000000, 17.000000) rotate(-270.000000) translate(-20.000000, -17.000000) translate(3.000000, -3.000000)">
                    <rect id="Rectangle" stroke="#BCC2C8" fill="#FFFFFF" x="0.5" y="0.5" width="33" height="39" rx="2"></rect>
                    <rect id="Rectangle" fill="#BCC2C8" x="10" y="7" width="16" height="2"></rect>
                    <rect id="Rectangle" fill="#BCC2C8" x="5" y="7" width="3" height="2"></rect>
                    <rect id="Rectangle" fill="#BCC2C8" x="10" y="10" width="18" height="2"></rect>
                    <rect id="Rectangle-Copy" fill="#BCC2C8" x="10" y="13" width="12" height="2"></rect>
                    <rect id="Rectangle-Copy-3" fill="#BCC2C8" x="10" y="16" width="16" height="2"></rect>
                    <rect id="Rectangle" fill="#BCC2C8" x="5" y="10" width="3" height="2"></rect>
                    <rect id="Rectangle-Copy-2" fill="#BCC2C8" x="5" y="13" width="3" height="2"></rect>
                    <rect id="Rectangle-Copy-5" fill="#BCC2C8" x="5" y="16" width="3" height="2"></rect>
                </g>
                <g id="format" transform="translate(1.000000, 23.000000)">
                    <rect id="Rectangle" fill="#BCC2C8" transform="translate(12.000000, 5.000000) rotate(-270.000000) translate(-12.000000, -5.000000) " x="7" y="-7" width="10" height="24"></rect>
                    <text id="ZPLII" font-family="Roboto-Medium, Roboto" font-size="8" font-weight="400" fill="#FFFFFF">
                        <tspan x="3.11328125" y="8">ZPLII</tspan>
                    </text>
                </g>
            </g>
        </g>
    </g>
</svg>