<svg width="140" height="72" viewBox="0 0 140 72" fill="none" xmlns="http://www.w3.org/2000/svg">
<path d="M29.3167 45.9432C29.1339 45.5045 29.2217 45.5813 29.5726 45.5813C34.0505 45.5776 38.5284 45.5776 43.0063 45.574C43.2695 45.574 43.5254 45.5667 43.7886 45.5228C45.8393 45.1792 47.4294 43.2601 47.4185 41.3044C47.4148 40.588 47.4367 39.8642 47.4367 39.1477C47.4404 35.0536 47.4404 30.9595 47.4404 26.8617C47.4404 26.5803 47.4404 26.3025 47.4112 26.021C47.2978 24.939 46.8811 24.0397 46.1464 23.3123C45.9782 23.1442 45.7918 22.987 45.5944 22.8408C44.7792 22.2413 43.8617 22 42.8565 22C30.0661 22.0037 17.283 22.0037 4.49255 22.0037C4.25129 22.0037 4.01003 22.0073 3.76877 22.0475C2.26272 22.2997 1.16243 23.1149 0.460586 24.4601C0.102353 25.14 0 25.8784 0 26.6351C0 31.4676 0.00365545 36.3038 0.00365545 41.1326C0.00365545 41.7029 0.0986971 42.2475 0.307058 42.7739C0.606804 43.5379 1.13684 44.1995 1.79117 44.6894C2.53323 45.2413 3.43247 45.574 4.34267 45.574C10.3705 45.585 16.3983 45.5338 22.4335 45.6032C22.6272 45.6069 22.7954 45.6507 22.9635 45.7421C25.2957 47.0033 27.6059 48.3156 29.9235 49.6023C30.0259 49.6571 30.1245 49.7156 30.2269 49.7741C30.4828 49.9167 30.7387 50.0592 31.0019 50.2018C31.0092 50.1725 31.0128 50.147 31.0128 50.125C31.0128 50.0921 31.0019 50.0629 30.9909 50.03C30.9763 50.0007 30.9616 49.9715 30.947 49.9386C30.4024 48.6044 29.865 47.2738 29.3167 45.9432ZM34.2113 32.2426C34.6098 30.7767 35.3043 29.4681 36.3169 28.3385C37.0041 27.5672 37.8339 27.0262 38.8464 26.8252C40.4366 26.5035 41.8987 26.8142 43.1343 27.9035C43.7667 28.4592 44.1834 29.183 44.4868 29.9689C44.8597 30.9303 44.9876 31.9355 44.9876 33.1455C44.9657 35.1304 44.3625 37.1226 43.127 38.9101C42.6262 39.6302 42.0267 40.259 41.2481 40.6867C39.8407 41.4543 38.3932 41.4689 36.9273 40.8731C35.6589 40.3577 34.8839 39.367 34.3831 38.1388C34.0724 37.3785 33.9408 36.5779 33.8677 35.7664C33.7617 34.5638 33.8933 33.394 34.2113 32.2426ZM19.7614 35.4301C19.6224 36.4683 19.5201 37.5101 19.4506 38.5519C19.3812 39.5937 19.3995 40.6428 19.4177 41.6882C19.4251 42.0903 19.3337 42.4669 19.1143 42.8068C18.7817 43.3149 18.237 43.5123 17.6485 43.3369C17.155 43.1906 16.7858 42.8653 16.4495 42.4961C15.0422 40.9608 14.0625 39.1623 13.2985 37.2396C12.9805 36.4427 12.7063 35.6275 12.4578 34.805C12.4285 34.699 12.4212 34.5857 12.3189 34.4797C12.0959 34.9257 11.8766 35.357 11.6609 35.7884C10.9115 37.2725 10.1731 38.7602 9.42009 40.2443C8.95585 41.1545 8.42215 42.0172 7.70568 42.7629C7.49367 42.9859 7.25241 43.1797 6.95632 43.2893C6.52132 43.4538 6.19964 43.388 5.88527 43.0554C5.61111 42.7666 5.41372 42.4303 5.27116 42.0611C4.94582 41.224 4.68994 40.3686 4.45965 39.4986C3.88209 37.3309 3.42515 35.1377 3.0194 32.9371C2.73062 31.3653 2.47474 29.7934 2.20424 28.2179C2.15306 27.9145 2.11285 27.6075 2.06167 27.3041C2.00684 26.9897 2.05436 26.6863 2.16768 26.3975C2.38701 25.8163 2.82932 25.5129 3.43612 25.4325C3.66641 25.4032 3.90402 25.3959 4.13431 25.4361C4.64242 25.5348 4.99334 25.8163 5.16149 26.3171C5.27481 26.657 5.31502 27.008 5.3662 27.3589C5.58918 28.8649 5.84141 30.3673 6.11922 31.8624C6.42628 33.522 6.76989 35.1742 7.17564 36.8192C7.19027 36.8813 7.19758 36.9471 7.27069 37.0312C7.37669 36.8338 7.47174 36.6547 7.57774 36.4719C8.84984 34.0484 10.1256 31.6248 11.3977 29.2012C11.5768 28.8613 11.7669 28.5286 12.052 28.2618C12.4651 27.8816 12.9366 27.7573 13.4776 27.9072C13.8176 28.0059 14.0552 28.2362 14.227 28.5433C14.4207 28.8942 14.5085 29.278 14.5816 29.6618C14.8886 31.2593 15.2615 32.8421 15.7696 34.3847C15.9341 34.8928 16.1205 35.3899 16.2996 35.8907C16.3106 35.9236 16.3143 35.9638 16.3691 35.9821C16.4386 35.697 16.4568 35.4009 16.4897 35.1121C16.731 33.0906 17.0234 31.0765 17.5608 29.1062C17.8422 28.0717 18.1749 27.0482 18.6245 26.0685C18.7378 25.8199 18.8658 25.586 19.001 25.352C19.3848 24.6904 20.1086 24.5003 20.741 24.6502C21.5306 24.8403 22.0679 25.5092 22.046 26.2878C22.0387 26.5364 21.9729 26.7667 21.8632 26.986C21.1943 28.3312 20.7922 29.7678 20.4778 31.2337C20.1744 32.6227 19.9514 34.0228 19.7614 35.4301ZM22.3275 38.3728C21.8632 37.2981 21.6768 36.1758 21.6914 35.3607C21.6914 33.1418 22.1374 31.3908 23.0951 29.7788C23.5703 28.9783 24.1406 28.2508 24.8753 27.6696C26.8273 26.1233 29.7261 26.5254 31.2139 28.1302C31.9706 28.9417 32.4092 29.9214 32.6432 31.0034C32.8552 31.9977 32.8661 33.0029 32.7711 34.0155C32.5956 35.8322 31.9742 37.4808 30.9251 38.9722C30.3 39.8569 29.5251 40.5806 28.4942 40.9681C26.3485 41.7723 23.4936 41.0705 22.3275 38.3728Z" fill="#9C5E90"/>
<path d="M87.6284 40.3613C87.5736 39.9921 87.5297 39.6192 87.4785 39.25C87.3213 38.0766 87.1605 36.8959 86.9997 35.7225C86.8425 34.5564 86.6889 33.3903 86.5318 32.2206C86.3709 31.0179 86.2064 29.8153 86.0419 28.6127C85.9871 28.1886 85.925 27.7682 85.8665 27.3552C85.8226 27.3442 85.808 27.3332 85.7897 27.3332C85.0623 27.3332 84.3348 27.3332 83.6074 27.3332C82.88 27.3332 82.1489 27.3332 81.4214 27.3296C81.2935 27.3296 81.2277 27.3588 81.2204 27.4941C81.2204 27.538 81.1985 27.5855 81.1875 27.6293C80.6501 29.9177 80.1091 32.2023 79.6997 34.5272C79.6961 34.5272 79.6961 34.5235 79.6924 34.5199C79.6924 34.5235 79.6924 34.5235 79.6924 34.5272C79.6193 34.4724 79.6193 34.3956 79.601 34.3225C79.3196 32.8091 79.0125 31.2958 78.6908 29.7934C78.53 29.033 78.3545 28.2837 78.1973 27.5233C78.1718 27.3808 78.1133 27.3332 77.9926 27.3332C77.9853 27.3332 77.978 27.3332 77.967 27.3332C77.8537 27.3406 77.7404 27.3406 77.6271 27.3406C77.5138 27.3406 77.4005 27.3369 77.2871 27.3369C76.1503 27.3369 75.0098 27.3369 73.8729 27.3369C73.8656 27.3369 73.8583 27.3369 73.851 27.3369C73.8437 27.3369 73.84 27.3369 73.8327 27.3369C73.8254 27.3369 73.8218 27.3369 73.8145 27.3369C73.8108 27.3369 73.8071 27.3369 73.8035 27.3369C73.7962 27.3369 73.7852 27.3369 73.7779 27.3369C73.6682 27.3442 73.6609 27.3735 73.6353 27.538C73.5842 27.9181 73.533 28.2983 73.4855 28.6785C73.3429 29.7714 73.204 30.8644 73.0651 31.9574C72.9043 33.2003 72.7471 34.4395 72.5862 35.6823C72.4437 36.8009 72.2974 37.9231 72.1549 39.0453C72.0964 39.5352 72.0343 40.025 71.9758 40.4965C72.016 40.5477 72.0525 40.5477 72.1001 40.5477C72.6155 40.5477 73.1272 40.5477 73.6463 40.5477C74.1581 40.5477 74.6698 40.5477 75.1816 40.5514C75.3205 40.5514 75.3644 40.5002 75.368 40.3759C75.368 40.3211 75.3826 40.2626 75.3863 40.2078C75.4704 39.3707 75.5471 38.5336 75.6276 37.7001C75.7921 36.0369 75.9602 34.37 76.1284 32.7068C76.1649 32.3522 76.2015 31.9976 76.2453 31.6248C76.249 31.6284 76.249 31.6284 76.2526 31.6321C76.2526 31.6284 76.2526 31.6284 76.2526 31.6248C76.3258 31.6832 76.3367 31.7527 76.3513 31.8112C76.673 33.0687 76.9947 34.3225 77.3127 35.58C77.7112 37.1555 78.1096 38.7273 78.5081 40.3028C78.5665 40.5331 78.5665 40.5368 78.7895 40.5368C79.1222 40.5368 79.4548 40.5368 79.7875 40.5368C80.1201 40.5368 80.4491 40.5368 80.7781 40.5404C80.9243 40.5404 81.0047 40.5075 81.012 40.3503C81.012 40.3138 81.034 40.2809 81.0413 40.2407C81.7175 37.4552 82.3901 34.6734 83.0627 31.8843C83.0847 31.7929 83.0883 31.7015 83.1687 31.6248C83.1687 31.6284 83.1687 31.6284 83.1687 31.6321C83.1724 31.6284 83.1724 31.6284 83.1761 31.6248C83.198 31.8075 83.2199 31.983 83.2382 32.1584C83.3588 33.2843 83.4722 34.4066 83.5928 35.5324C83.7207 36.7387 83.8487 37.9487 83.9729 39.155C84.0132 39.5534 84.057 39.9555 84.0972 40.354C84.1082 40.471 84.1338 40.5368 84.28 40.5368C85.3437 40.5294 86.4038 40.5331 87.4676 40.5368C87.4712 40.5368 87.4712 40.5368 87.4749 40.5368C87.6247 40.5477 87.6467 40.4929 87.6284 40.3613Z" fill="#020101"/>
<path d="M103.764 40.3832C103.687 39.7983 103.606 39.2171 103.53 38.6322C103.35 37.309 103.171 35.9857 102.992 34.6624C102.835 33.4963 102.682 32.3302 102.524 31.1605C102.364 29.9652 102.199 28.7698 102.038 27.5782C102.005 27.3296 102.009 27.3296 101.749 27.3296C100.386 27.3296 99.0188 27.3296 97.6553 27.3296C97.6114 27.3296 97.5603 27.3296 97.5164 27.3296C97.4908 27.3296 97.4689 27.3332 97.4506 27.3406C97.4214 27.3552 97.3994 27.3808 97.3958 27.4319C97.3885 27.4868 97.3665 27.5416 97.3556 27.5964C96.8072 29.8884 96.2699 32.1767 95.8532 34.5016C95.7764 34.4577 95.7764 34.4065 95.7545 34.3663C95.3268 32.089 94.8552 29.8226 94.3508 27.5635C94.3033 27.3369 94.3033 27.3369 94.062 27.3369C92.7278 27.3369 91.3899 27.3369 90.052 27.3369C90.0081 27.3369 89.9569 27.3406 89.9131 27.3369C89.8838 27.3369 89.8619 27.3406 89.8473 27.3479C89.8217 27.3661 89.8107 27.3954 89.8034 27.4466C89.7742 27.6842 89.7413 27.9291 89.7047 28.1667C89.5658 29.2597 89.4269 30.3526 89.288 31.4456C89.1454 32.5569 89.0029 33.6718 88.8603 34.783C88.736 35.7371 88.619 36.6912 88.4948 37.6489C88.3778 38.5591 88.2645 39.4657 88.1438 40.3722C88.1256 40.5184 88.1731 40.5477 88.3047 40.5477C88.6775 40.5404 89.054 40.544 89.4269 40.544C90.0447 40.544 90.6624 40.544 91.2766 40.544C91.3533 40.544 91.4081 40.544 91.441 40.5331C91.4886 40.5111 91.4959 40.46 91.5105 40.3247C91.5434 40.0432 91.569 39.7691 91.5982 39.4876C91.7006 38.475 91.7993 37.4625 91.9016 36.4463C92.0076 35.4081 92.1137 34.3627 92.2197 33.3245C92.2781 32.7616 92.3366 32.1986 92.3951 31.6174C92.3988 31.6211 92.4024 31.6247 92.4061 31.6284C92.4061 31.6247 92.4061 31.6211 92.4061 31.6138C92.4792 31.6796 92.4902 31.7563 92.5084 31.8258C92.7314 32.7104 92.9581 33.5987 93.1847 34.4833C93.6782 36.428 94.1717 38.3727 94.6652 40.3174C94.72 40.544 94.7236 40.544 94.9612 40.544C95.5498 40.544 96.1383 40.544 96.7268 40.544C96.873 40.544 96.9608 40.544 97.0266 40.5258C97.1326 40.4892 97.1509 40.3978 97.213 40.1529C97.8856 37.3748 98.5545 34.6003 99.2272 31.8258C99.2381 31.7819 99.2235 31.7088 99.2856 31.6905C99.2966 31.6869 99.3149 31.6832 99.3332 31.6832C99.4209 32.5094 99.5013 33.3355 99.589 34.1616C99.7755 35.9272 99.9582 37.6928 100.145 39.4584C100.178 39.7654 100.218 40.0725 100.243 40.3795C100.254 40.5184 100.309 40.5587 100.433 40.5477C100.459 40.544 100.488 40.5477 100.518 40.5477C101.526 40.5477 102.535 40.5477 103.548 40.5477C103.606 40.5477 103.672 40.5587 103.727 40.5404C103.734 40.5367 103.742 40.5331 103.749 40.5294C103.782 40.4782 103.771 40.4307 103.764 40.3832Z" fill="#020101"/>
<path d="M70.9628 37.7512C71.3502 36.8922 71.5257 35.9747 71.6244 35.0426C71.7012 34.2859 71.6902 33.5329 71.6281 32.7762C71.5586 31.972 71.416 31.1824 71.1273 30.4294C70.4985 28.7735 69.3617 27.6659 67.6326 27.198C67.3183 27.1102 67.0039 27.0517 66.6859 27.0152C66.0901 26.9494 65.4906 26.9567 64.8874 27.0262C64.0576 27.1249 63.29 27.3954 62.5954 27.8633C61.6158 28.5285 60.9761 29.4497 60.5886 30.5573C60.2157 31.5991 60.0988 32.6848 60.1207 33.7851C60.1207 33.9788 60.1171 34.1762 60.1207 34.3736C60.1573 35.5214 60.3437 36.64 60.8006 37.7037C61.3891 39.0782 62.3615 40.0725 63.7871 40.555C64.7193 40.8693 65.688 40.9461 66.664 40.8474C66.748 40.8401 66.8285 40.8291 66.9125 40.8182C68.8389 40.5477 70.1695 39.5022 70.9628 37.7512ZM64.2806 36.8593C64.1344 36.5303 64.0613 36.1867 64.0101 35.8358C63.9333 35.2911 63.9041 34.7355 63.8895 34.1872C63.8639 33.3245 63.9114 32.4655 64.1125 31.6284C64.2148 31.2263 64.372 30.8498 64.6352 30.5244C65.2566 29.7604 66.43 29.8664 66.982 30.4477C67.2415 30.7182 67.417 31.0325 67.534 31.3798C67.7642 32.0378 67.8374 32.725 67.8593 33.4195C67.8885 34.348 67.8337 35.2692 67.64 36.1794C67.5669 36.5376 67.4316 36.8703 67.2196 37.1773C66.6201 38.0583 64.8947 38.2484 64.2806 36.8593Z" fill="#010101"/>
<path d="M120.524 34.6333C120.593 34.5346 120.689 34.509 120.773 34.4651C121.972 33.7998 122.67 32.5643 122.655 31.2483C122.651 30.9449 122.611 30.6342 122.524 30.3308C122.242 29.289 121.569 28.5726 120.641 28.0754C119.647 27.5417 118.561 27.3626 117.45 27.348C116.265 27.3297 115.074 27.3407 113.889 27.3407C113.674 27.3407 113.458 27.348 113.246 27.337C113.122 27.3297 113.074 27.3699 113.074 27.465C113.074 27.4796 113.074 27.4906 113.078 27.5088C113.078 27.5125 113.078 27.5125 113.078 27.5161C113.085 27.571 113.078 27.6258 113.078 27.6806C113.078 29.6802 113.078 31.6797 113.078 33.6792V33.6829C113.078 35.8908 113.078 38.0913 113.078 40.2992V40.3029C113.078 40.3321 113.078 40.3614 113.078 40.3869C113.078 40.5551 113.092 40.5441 113.315 40.5441C114.313 40.5441 115.315 40.5441 116.313 40.5441C116.635 40.5441 116.635 40.5441 116.635 40.2151C116.638 38.4386 116.642 36.6657 116.646 34.8892C116.646 34.8307 116.638 34.7649 116.653 34.6954C116.66 34.6552 116.671 34.6113 116.697 34.5711C116.755 34.6918 116.803 34.7795 116.847 34.8709C117.015 35.2218 117.183 35.5691 117.351 35.92C117.929 37.108 118.499 38.2997 119.073 39.4877C119.212 39.7728 119.351 40.0616 119.486 40.3431C119.559 40.5003 119.65 40.5514 119.822 40.5514C120.915 40.5441 122.008 40.5514 123.101 40.5478C123.167 40.5478 123.251 40.577 123.324 40.5003C123.119 40.0689 122.915 39.6412 122.71 39.2135C121.983 37.6856 121.248 36.1576 120.524 34.6333ZM118.93 31.9538C118.927 31.9685 118.919 31.9831 118.916 31.9977C118.916 32.0014 118.916 32.0014 118.912 32.005C118.901 32.0379 118.89 32.0672 118.875 32.1037C118.875 32.1037 118.875 32.1074 118.872 32.1074C118.857 32.1366 118.846 32.1659 118.828 32.1988C118.828 32.2024 118.824 32.2061 118.824 32.2097C118.81 32.2353 118.795 32.2609 118.777 32.2865C118.773 32.2901 118.773 32.2938 118.769 32.2975C118.751 32.323 118.733 32.3486 118.715 32.3706L118.711 32.3742C118.634 32.4693 118.535 32.5497 118.422 32.6228C118.002 32.8823 117.538 32.9481 117.062 32.992C116.624 33.0285 116.624 33.0212 116.624 32.5789V32.5753C116.624 32.1841 116.624 31.793 116.624 31.4019C116.624 30.9998 116.624 30.6013 116.624 30.1992V30.1956C116.624 29.8666 116.624 29.8702 116.942 29.8922C117.285 29.9178 117.629 29.9507 117.958 30.064C118.598 30.2833 118.992 30.8609 118.992 31.5006C118.996 31.6541 118.974 31.804 118.93 31.9538Z" fill="#010101"/>
<path d="M111.827 40.5696C112.036 40.5696 112.039 40.5659 112.039 40.3539C112.039 39.6045 112.039 38.8588 112.039 38.1095C112.039 37.7549 112.039 37.7549 111.688 37.7549C110.661 37.7549 109.63 37.7549 108.607 37.7549C108.607 37.7549 108.607 37.7549 108.603 37.7549C108.384 37.7549 108.38 37.7512 108.38 37.5502C108.38 36.8776 108.38 36.205 108.38 35.5324C108.38 35.3423 108.384 35.3423 108.585 35.3386C108.64 35.3386 108.698 35.3386 108.753 35.3386C109.612 35.3386 110.475 35.3386 111.334 35.3386C111.531 35.3386 111.535 35.335 111.535 35.1376C111.535 34.7062 111.535 34.2786 111.535 33.8472C111.535 33.4926 111.528 33.1381 111.535 32.7798C111.535 32.6665 111.517 32.6007 111.414 32.597C111.4 32.597 111.385 32.597 111.37 32.6007C111.356 32.6044 111.341 32.6044 111.327 32.6044C111.286 32.6044 111.239 32.6007 111.199 32.6007C110.332 32.6007 109.462 32.6007 108.596 32.6007H108.592C108.38 32.6007 108.377 32.597 108.377 32.385C108.377 31.7307 108.377 31.0764 108.377 30.4221C108.377 30.1881 108.38 30.1844 108.625 30.1844C109.532 30.1808 110.438 30.1808 111.345 30.1771C111.568 30.1735 111.791 30.1881 112.017 30.1515C112.021 30.0894 112.028 30.0309 112.025 29.9761C112.025 29.1829 112.025 28.386 112.025 27.5927C112.025 27.3369 112.028 27.3588 111.776 27.3588C109.55 27.3698 107.328 27.3295 105.105 27.3844C105.101 27.3844 105.098 27.3844 105.094 27.3844C104.959 27.388 104.886 27.3807 104.838 27.3917C104.78 27.4136 104.791 27.4831 104.791 27.7024C104.813 30.4221 104.82 33.1454 104.813 35.8614C104.809 37.3455 104.809 38.8332 104.809 40.3173C104.809 40.5842 104.809 40.5769 105.025 40.5769C105.028 40.5769 105.032 40.5769 105.036 40.5769C107.306 40.5696 109.565 40.5696 111.827 40.5696Z" fill="#020202"/>
<path d="M133.026 40.5404C133.417 40.5404 133.812 40.5404 134.203 40.5404C136.016 40.5404 137.829 40.5404 139.646 40.5404C140.063 40.5404 139.997 40.566 139.997 40.2041C140.001 39.4767 139.997 38.7456 139.997 38.0182C139.997 37.861 140.004 37.7879 139.975 37.7477C139.938 37.7184 139.862 37.7257 139.701 37.7257C138.655 37.7257 137.606 37.7257 136.561 37.7257C136.418 37.7257 136.36 37.7221 136.338 37.6892C136.305 37.6599 136.316 37.5941 136.316 37.4735C136.316 36.8301 136.316 36.1831 136.316 35.5398C136.316 35.2802 136.309 35.3022 136.564 35.3022C137.423 35.3022 138.286 35.3022 139.145 35.3022C139.474 35.3022 139.474 35.3022 139.474 34.9841C139.474 34.3591 139.474 33.7303 139.474 33.1052C139.474 32.9846 139.467 32.864 139.478 32.7433C139.485 32.6593 139.467 32.6081 139.43 32.5825C139.397 32.5642 139.354 32.5606 139.288 32.5679C139.215 32.5752 139.138 32.5679 139.065 32.5679C138.217 32.5679 137.365 32.5642 136.513 32.5715C136.429 32.5715 136.378 32.5606 136.352 32.524C136.327 32.4948 136.316 32.4509 136.316 32.3778C136.323 31.7052 136.32 31.0326 136.32 30.36C136.32 30.1553 136.323 30.1516 136.535 30.1516C137.208 30.1516 137.88 30.1516 138.553 30.1516C138.952 30.1516 139.357 30.1516 139.756 30.1516C139.971 30.1516 139.971 30.148 139.975 29.9469C139.979 29.7715 139.979 29.5924 139.979 29.4169C139.979 28.7991 139.979 28.1813 139.979 27.5672C139.979 27.4612 139.979 27.4064 139.953 27.3808C139.924 27.3552 139.862 27.3552 139.756 27.3516C139.737 27.3516 139.719 27.3516 139.701 27.3516C138.049 27.3516 136.393 27.3516 134.737 27.3516C134.148 27.3516 133.56 27.3516 132.971 27.3552C132.781 27.3552 132.781 27.3589 132.777 27.5563C132.777 27.5745 132.777 27.5928 132.777 27.6111C132.77 29.7166 132.77 31.8295 132.77 33.9423C132.77 33.9423 132.774 33.9423 132.77 33.9423C132.77 34.5455 132.77 35.1486 132.774 35.7518C132.774 37.0019 132.774 38.2448 132.774 39.495C132.774 39.7655 132.774 40.036 132.774 40.3065C132.774 40.4381 132.77 40.5002 132.796 40.5295C132.829 40.5441 132.894 40.5404 133.026 40.5404Z" fill="#020101"/>
<path d="M131.53 40.6465C131.739 40.5989 131.739 40.5953 131.75 40.3686C131.779 39.6595 131.764 38.9467 131.764 38.2375C131.764 38.0438 131.764 37.85 131.764 37.638C131.764 37.5686 131.764 37.4991 131.764 37.426C131.614 37.4626 131.505 37.4918 131.399 37.5211C130.89 37.6417 130.375 37.7331 129.845 37.7075C129.779 37.7038 129.713 37.7002 129.648 37.6929C128.368 37.5795 127.451 36.9325 126.939 35.7153C126.939 35.7116 126.935 35.708 126.935 35.7043C126.614 34.9367 126.555 34.1325 126.632 33.31C126.698 32.6081 126.924 31.9611 127.337 31.3872C127.853 30.6781 128.533 30.2248 129.428 30.1188C129.567 30.1005 129.706 30.0932 129.845 30.0932C130.258 30.0895 130.664 30.1517 131.073 30.2248C131.296 30.2613 131.519 30.3454 131.757 30.3564C131.757 29.3511 131.753 28.3642 131.76 27.3735C131.76 27.231 131.684 27.2017 131.578 27.1834C131.57 27.1834 131.559 27.1798 131.552 27.1798C130.317 26.9495 129.081 26.8837 127.853 27.1834C127.845 27.1871 127.838 27.1871 127.831 27.1908C125.729 27.7135 124.216 28.9563 123.367 30.9157C123.327 31.018 123.28 31.1131 123.243 31.2191C122.911 32.0891 122.772 32.9773 122.783 33.8693C122.794 34.5492 122.892 35.2291 123.06 35.9163C123.064 35.9309 123.068 35.9492 123.071 35.9638C123.071 35.9711 123.075 35.9785 123.075 35.9821C123.258 36.6913 123.532 37.3346 123.89 37.9085C124.501 38.8699 125.36 39.6339 126.467 40.1786C126.519 40.2042 126.573 40.2261 126.625 40.2517C128.196 40.9755 129.849 41.0266 131.53 40.6465Z" fill="#020101"/>
<path d="M59.3497 27.4611C59.3497 27.2308 59.3497 27.2308 59.1121 27.1797C58.3957 27.0335 57.6719 26.975 56.9408 26.9969C55.7053 27.0298 54.5355 27.3149 53.4864 27.9839C52.5177 28.6016 51.7537 29.3802 51.2273 30.327C50.9897 30.762 50.796 31.2299 50.6644 31.738C50.3281 32.9699 50.3171 34.2091 50.5511 35.4592C50.8837 37.2321 51.761 38.6614 53.2451 39.6959C54.4551 40.544 55.8295 40.873 57.2917 40.8693C57.9131 40.8693 58.5236 40.7962 59.1194 40.639C59.2218 40.6134 59.2803 40.5988 59.3132 40.5695C59.3497 40.533 59.3497 40.4672 59.3497 40.3319C59.3497 39.4546 59.3497 38.5737 59.3497 37.6964C59.3534 37.6196 59.3534 37.5428 59.3534 37.4332C59.2108 37.4661 59.1012 37.4953 58.9952 37.5209C58.4834 37.6415 57.9716 37.7293 57.4416 37.7073C56.1329 37.6562 55.1679 37.053 54.594 35.865C54.3747 35.4044 54.2577 34.9146 54.2175 34.4101C54.1298 33.4195 54.2577 32.4691 54.7951 31.6101C55.0217 31.2445 55.2922 30.9338 55.6066 30.6925C56.0087 30.3818 56.4875 30.1881 57.0541 30.1186C57.5988 30.0565 58.1325 30.1333 58.6662 30.232C58.8891 30.2722 59.1121 30.327 59.3534 30.3745C59.3534 30.2905 59.3534 30.2393 59.3534 30.1844C59.3497 29.2742 59.3497 28.364 59.3497 27.4611Z" fill="#010101"/>
<path d="M28.8377 30.4915C28.5782 30.1187 28.2163 29.9395 27.7594 29.9578C27.3134 29.9761 26.9552 30.1918 26.6518 30.4952C26.0121 31.1312 25.5698 31.8988 25.2774 32.7433C24.7948 34.125 24.7729 35.5031 25.3614 36.8629C25.4821 37.1407 25.6319 37.3966 25.8513 37.6086C26.1693 37.9084 26.5348 38.0034 26.9625 37.8974C27.1928 37.8389 27.4012 37.7366 27.5949 37.605C28.114 37.2577 28.5161 36.7898 28.8085 36.2415C29.3276 35.2765 29.5725 34.242 29.5834 33.2038C29.5798 32.8127 29.5688 32.4764 29.4994 32.1401C29.3824 31.5516 29.1813 30.9923 28.8377 30.4915Z" fill="#9C5E90"/>
<path d="M37.83 37.4114C38.2102 37.9268 38.7147 38.062 39.3142 37.8354C39.4458 37.7842 39.5737 37.7221 39.687 37.6453C40.1915 37.309 40.5972 36.874 40.897 36.3476C41.4782 35.3424 41.6975 34.2494 41.7341 33.1053C41.745 32.8165 41.7195 32.524 41.6719 32.2426C41.5586 31.6029 41.3539 30.9961 40.9701 30.4624C40.8166 30.2504 40.6228 30.1005 40.3706 30.0201C39.9612 29.8921 39.5774 29.9579 39.2191 30.1809C38.7366 30.4807 38.404 30.9157 38.1042 31.3799C37.2269 32.7653 36.8687 34.2531 37.1903 35.8724C37.3037 36.4244 37.4901 36.9508 37.83 37.4114Z" fill="#9C5E90"/>
</svg>
