<?xml version="1.0" encoding="UTF-8"?>
<svg width="55px" height="36px" viewBox="0 0 55 36" version="1.1" xmlns="http://www.w3.org/2000/svg" xmlns:xlink="http://www.w3.org/1999/xlink">
    <!-- Generator: Sketch 54.1 (76490) - https://sketchapp.com -->
    <title>amexcard</title>
    <desc>Created with Sketch.</desc>
    <defs>
        <polygon id="path-1" points="0 0 54 0 54 35.9999526 0 35.9999526"></polygon>
        <polygon id="path-3" points="0.227747368 0.214365789 43.4962895 0.214365789 43.4962895 9.08244474 0.227747368 9.08244474"></polygon>
    </defs>
    <g id="Page-1" stroke="none" stroke-width="1" fill="none" fill-rule="evenodd">
        <g id="credit-card-form" transform="translate(-584.000000, -300.000000)">
            <g id="Group-4" transform="translate(252.000000, 147.000000)">
                <g id="Group-2" transform="translate(118.000000, 153.000000)">
                    <g id="Group-5" transform="translate(15.000000, 0.000000)">
                        <g id="amexcard" transform="translate(199.000000, 0.000000)">
                            <g id="Group-3">
                                <mask id="mask-2" fill="white">
                                    <use xlink:href="#path-1"></use>
                                </mask>
                                <g id="Clip-2"></g>
                                <path d="M54,32.3999526 C54,34.3882421 52.3880526,35.9999526 50.4,35.9999526 L3.6,35.9999526 C1.61194737,35.9999526 0,34.3882421 0,32.3999526 L0,3.59995263 C0,1.61166316 1.61194737,-4.73684211e-05 3.6,-4.73684211e-05 L50.4,-4.73684211e-05 C52.3880526,-4.73684211e-05 54,1.61166316 54,3.59995263 L54,32.3999526 Z" id="Fill-1" fill="#3473DB" mask="url(#mask-2)"></path>
                            </g>
                            <path d="M0.145492105,16.8559105 L2.73915,16.8559105 L3.32415,15.4452789 L4.63341316,15.4452789 L5.21675526,16.8559105 L10.3199921,16.8559105 L10.3199921,15.7773316 L10.7754395,16.8606474 L13.4245184,16.8606474 L13.8802026,15.7612263 L13.8802026,16.8559105 L26.5628605,16.8559105 L26.5569395,14.5403053 L26.8023079,14.5403053 C26.9740184,14.5464632 27.0242289,14.5620947 27.0242289,14.8458316 L27.0242289,16.8559105 L33.5838079,16.8559105 L33.5838079,16.3168579 C34.1129132,16.6003579 34.9359395,16.8559105 36.0187816,16.8559105 L38.7782289,16.8559105 L39.3686763,15.4452789 L40.6781763,15.4452789 L41.2555974,16.8559105 L46.5734132,16.8559105 L46.5734132,15.5158579 L47.3789132,16.8559105 L51.6401763,16.8559105 L51.6401763,7.99825263 L47.4227289,7.99825263 L47.4227289,9.04438421 L46.8322816,7.99825263 L42.5049395,7.99825263 L42.5049395,9.04438421 L41.9625711,7.99825263 L36.1170711,7.99825263 C35.1386763,7.99825263 34.2784658,8.13491053 33.5838079,8.51551579 L33.5838079,7.99825263 L29.5499132,7.99825263 L29.5499132,8.51551579 C29.1077289,8.12306842 28.5054395,7.99825263 27.83565,7.99825263 L13.0983868,7.99825263 L12.1098079,10.2861474 L11.0942289,7.99825263 L6.45236053,7.99825263 L6.45236053,9.04438421 L5.94267632,7.99825263 L1.98386053,7.99825263 L0.145492105,12.2097789 L0.145492105,16.8559105 Z M50.2870974,15.6084632 L48.1358605,15.6084632 L45.2584658,10.8417789 L45.2584658,15.6084632 L42.1669658,15.6084632 L41.5762816,14.1919105 L38.4227289,14.1919105 L37.8495711,15.6084632 L36.0732553,15.6084632 C35.3354921,15.6084632 34.40115,15.4452789 33.8720447,14.9059895 C33.3384395,14.3669368 33.0610974,13.6365158 33.0610974,12.4814368 C33.0610974,11.5397526 33.2268868,10.6785947 33.8793868,9.99814737 C34.3701237,9.49130526 35.1386763,9.25754211 36.1848079,9.25754211 L37.6544132,9.25754211 L37.6544132,10.6184368 L36.2155974,10.6184368 C35.6616237,10.6184368 35.3489921,10.7008579 35.0474921,10.9945421 C34.7886237,11.2619368 34.6109921,11.7675947 34.6109921,12.4333579 C34.6109921,13.1135684 34.7464658,13.6043053 35.0285447,13.9247526 C35.2623079,14.1760421 35.6867289,14.2523053 36.0865184,14.2523053 L36.7683868,14.2523053 L38.9077816,9.25777895 L41.1824132,9.25777895 L43.7523868,15.2648053 L43.7523868,9.25777895 L46.0637289,9.25777895 L48.7322289,13.6808053 L48.7322289,9.25777895 L50.2870974,9.25777895 L50.2870974,15.6084632 Z M30.7684658,15.6084632 L32.3174132,15.6084632 L32.3174132,9.25777895 L30.7684658,9.25777895 L30.7684658,15.6084632 Z M29.8881237,10.9680158 C29.8881237,11.9807526 29.2124132,12.5037 28.8183079,12.6609632 C29.1505974,12.7872 29.4343342,13.0105421 29.5693342,13.1955158 C29.7836763,13.5114632 29.8206237,13.7937789 29.8206237,14.3607789 L29.8206237,15.6084632 L28.2894395,15.6084632 L28.2839921,14.8077 C28.2839921,14.4254368 28.3204658,13.8757263 28.0440711,13.5702 C27.82215,13.3470947 27.4844132,13.2985421 26.9377816,13.2985421 L25.3080711,13.2985421 L25.3080711,15.6084632 L23.79015,15.6084632 L23.79015,9.25754211 L27.2816763,9.25754211 C28.0575711,9.25754211 28.6293079,9.27814737 29.1200447,9.56188421 C29.6001237,9.84538421 29.8881237,10.2596211 29.8881237,10.9680158 L29.8881237,10.9680158 Z M22.7380974,15.6084632 L17.6668342,15.6084632 L17.6668342,9.25754211 L22.7380974,9.25754211 L22.7380974,10.5800684 L19.1849921,10.5800684 L19.1849921,11.7247263 L22.6528342,11.7247263 L22.6528342,13.0266474 L19.1849921,13.0266474 L19.1849921,14.2949368 L22.7380974,14.2949368 L22.7380974,15.6084632 Z M16.5356763,15.6084632 L14.9793868,15.6084632 L14.9734658,10.6345421 L12.7722553,15.6084632 L11.4397816,15.6084632 L9.23265,10.6300421 L9.23265,15.6084632 L6.14517632,15.6084632 L5.56183421,14.1919105 L2.40093947,14.1919105 L1.81191316,15.6084632 L0.163255263,15.6084632 L2.88172895,9.25754211 L5.13693947,9.25754211 L7.71899211,15.2707263 L7.71899211,9.25754211 L10.1965974,9.25754211 L12.1829921,13.5659368 L14.0078605,9.25754211 L16.5354395,9.25754211 L16.5354395,15.6084632 L16.5356763,15.6084632 Z M41.0587816,12.8682 L40.0083868,10.3363579 L38.9634395,12.8682 L41.0587816,12.8682 Z M27.9029132,11.8599632 C27.6942553,11.9864368 27.4474658,11.9907 27.1518868,11.9907 L25.3078342,11.9907 L25.3078342,10.5800684 L27.1772289,10.5800684 C27.4417816,10.5800684 27.7177026,10.5919105 27.8969921,10.6947 C28.0940447,10.7870684 28.2160184,10.9841211 28.2160184,11.2560158 C28.2160184,11.5335947 28.0997289,11.7571737 27.9029132,11.8599632 L27.9029132,11.8599632 Z M5.01378158,12.8682 L3.97475526,10.3363579 L2.94188684,12.8682 L5.01378158,12.8682 Z" id="Fill-4" fill="#FFFFFF"></path>
                            <g id="Group-8" transform="translate(10.657895, 18.710526)">
                                <mask id="mask-4" fill="white">
                                    <use xlink:href="#path-3"></use>
                                </mask>
                                <g id="Clip-7"></g>
                                <path d="M18.9115105,3.57089211 C18.9115105,5.33560263 17.5946684,5.69986579 16.2678789,5.69986579 L14.3738526,5.69986579 L14.3738526,7.83049737 L11.4232737,7.83049737 L9.55387895,5.72757632 L7.61153684,7.83049737 L1.59835263,7.83049737 L1.59835263,1.47815526 L7.70414211,1.47815526 L9.57164211,3.56047105 L11.5026158,1.47815526 L16.3531421,1.47815526 C17.5579579,1.47815526 18.9115105,1.81162895 18.9115105,3.57089211 L18.9115105,3.57089211 Z M6.84298421,6.50678684 L3.11058947,6.50678684 L3.11058947,5.24276053 L6.44319474,5.24276053 L6.44319474,3.94676053 L3.11058947,3.94676053 L3.11058947,2.79168158 L6.91640526,2.79168158 L8.57690526,4.64307632 L6.84298421,6.50678684 Z M12.8618526,7.25283947 L10.5310895,4.66533947 L12.8618526,2.15978684 L12.8618526,7.25283947 Z M16.3356158,4.40978684 L14.3738526,4.40978684 L14.3738526,2.79191842 L16.3531421,2.79191842 C16.9011947,2.79191842 17.2815632,3.01526053 17.2815632,3.57089211 C17.2815632,4.12012895 16.9189579,4.40978684 16.3356158,4.40978684 L16.3356158,4.40978684 Z M26.5776158,1.47815526 L31.6441421,1.47815526 L31.6441421,2.79168158 L28.0893789,2.79168158 L28.0893789,3.94676053 L31.5574579,3.94676053 L31.5574579,5.24276053 L28.0893789,5.24276053 L28.0893789,6.50678684 L31.6441421,6.51247105 L31.6441421,7.83049737 L26.5776158,7.83049737 L26.5776158,1.47815526 Z M24.6599053,4.87849737 C24.9976421,5.00307632 25.2740368,5.22665526 25.4033526,5.41162895 C25.6176947,5.72189211 25.6487211,6.01131316 25.6551158,6.57120789 L25.6551158,7.83049737 L24.1310368,7.83049737 L24.1310368,7.03565526 C24.1310368,6.65362895 24.1677474,6.08757632 23.8856684,5.79223421 C23.6637474,5.56462895 23.3257737,5.51039211 22.7720368,5.51039211 L21.1494316,5.51039211 L21.1494316,7.83049737 L19.6241684,7.83049737 L19.6241684,1.47815526 L23.1289579,1.47815526 C23.8975105,1.47815526 24.4571684,1.51202368 24.9554842,1.77799737 C25.4346158,2.06741842 25.7356421,2.46389211 25.7356421,3.18862895 C25.7356421,4.20255 25.0594579,4.71981316 24.6599053,4.87849737 L24.6599053,4.87849737 Z M23.7430895,4.08791842 C23.5401158,4.20823421 23.2888263,4.21865526 22.9934842,4.21865526 L21.1494316,4.21865526 L21.1494316,2.79191842 L23.0185895,2.79191842 C23.2888263,2.79191842 23.5593,2.79760263 23.7430895,2.90678684 C23.9396684,3.00957632 24.0576158,3.20639211 24.0576158,3.47805 C24.0576158,3.74994474 23.9396684,3.96902368 23.7430895,4.08791842 L23.7430895,4.08791842 Z M37.4408526,4.48012895 C37.7364316,4.78612895 37.8948789,5.17218158 37.8948789,5.82610263 C37.8948789,7.19268158 37.0413,7.83049737 35.5103526,7.83049737 L32.5536158,7.83049737 L32.5536158,6.46841842 L35.4982737,6.46841842 C35.7862737,6.46841842 35.9904316,6.43028684 36.1183263,6.31115526 C36.2227737,6.21286579 36.2976158,6.07005 36.2976158,5.89668158 C36.2976158,5.71170789 36.2166158,5.56462895 36.1124053,5.47652368 C35.9965895,5.37965526 35.8362474,5.33560263 35.5719316,5.33560263 C34.1523,5.28728684 32.3745632,5.37965526 32.3745632,3.36957632 C32.3745632,2.44826053 32.9534053,1.47839211 34.5447474,1.47839211 L37.5879316,1.47839211 L37.5879316,2.83028684 L34.8033789,2.83028684 C34.5274579,2.83028684 34.3479316,2.84070789 34.1951684,2.94491842 C34.0289053,3.04794474 33.9670895,3.20070789 33.9670895,3.40202368 C33.9670895,3.64170789 34.1084842,3.80465526 34.2993789,3.87523421 C34.4594842,3.93112895 34.6316684,3.94723421 34.8903,3.94723421 L35.7074053,3.96926053 C36.5316158,3.98939211 37.0969579,4.13197105 37.4408526,4.48012895 L37.4408526,4.48012895 Z M43.4964316,7.01789211 C43.1274316,7.55718158 42.4090895,7.83049737 41.4361421,7.83049737 L38.5047474,7.83049737 L38.5047474,6.46841842 L41.4245368,6.46841842 C41.7139579,6.46841842 41.9166947,6.43028684 42.0386684,6.31115526 C42.1445368,6.21286579 42.2181947,6.07005 42.2181947,5.89668158 C42.2181947,5.71170789 42.1445368,5.56462895 42.0327474,5.47652368 C41.9226158,5.37965526 41.7622737,5.33560263 41.4979579,5.33560263 C40.0726421,5.28728684 38.2944316,5.37965526 38.2944316,3.36957632 C38.2944316,2.44826053 38.8794316,1.47839211 40.4724316,1.47839211 L43.4961947,1.47839211 L43.4964316,0.214365789 L40.6865368,0.214365789 C39.8388789,0.214365789 39.2230895,0.417576316 38.7868263,0.733286842 L38.7868263,0.214365789 L34.6314316,0.214365789 C33.9668526,0.214365789 33.1866947,0.379207895 32.8179316,0.733286842 L32.8179316,0.214365789 L25.3974316,0.214365789 L25.3974316,0.733286842 C24.8069842,0.307207895 23.8103526,0.214365789 23.3504053,0.214365789 L18.4555895,0.214365789 L18.4555895,0.733286842 C17.9885368,0.280681579 16.9495105,0.214365789 16.3161947,0.214365789 L10.8382737,0.214365789 L9.58466842,1.57099737 L8.41064211,0.214365789 L0.227747368,0.214365789 L0.227747368,9.07818158 L8.25669474,9.07818158 L9.54843158,7.69999737 L10.7650895,9.07818158 L15.7141421,9.08244474 L15.7141421,6.99752368 L16.2008526,6.99752368 C16.8573789,7.00770789 17.6318526,6.98118158 18.3149053,6.68583947 L18.3149053,9.07794474 L22.3973526,9.07794474 L22.3973526,6.76778684 L22.5941684,6.76778684 C22.8454579,6.76778684 22.8700895,6.77820789 22.8700895,7.02926053 L22.8700895,9.07770789 L35.2706684,9.07770789 C36.0579316,9.07770789 36.8809579,8.87615526 37.3366421,8.51047105 L37.3366421,9.07770789 L41.2701158,9.07770789 C42.0886421,9.07770789 42.8879842,8.96307632 43.4964316,8.66915526 L43.4964316,7.01789211 Z M43.4964316,2.83005 L40.7296421,2.83005 C40.4532474,2.83005 40.2699316,2.84023421 40.1152737,2.94468158 C39.9551684,3.04747105 39.8935895,3.20023421 39.8935895,3.40178684 C39.8935895,3.64123421 40.0285895,3.80441842 40.2254053,3.87476053 C40.3855105,3.93065526 40.5576947,3.94676053 40.8104053,3.94676053 L41.6331947,3.96902368 C42.4633263,3.98939211 43.0175368,4.13220789 43.3555105,4.48012895 C43.4170895,4.52868158 43.4540368,4.58291842 43.4964316,4.63739211 L43.4964316,2.83005 Z" id="Fill-6" fill="#FFFFFF" mask="url(#mask-4)"></path>
                            </g>
                        </g>
                    </g>
                </g>
            </g>
        </g>
    </g>
</svg>