<svg width="260" height="160" viewBox="0 0 260 160" fill="none" xmlns="http://www.w3.org/2000/svg">
<path d="M260 0H0V160H260V0Z" fill="#FFCC01"/>
<path d="M56.4428 115.929C57.0835 115.929 57.6733 115.866 58.2124 115.741C59.2046 115.522 60.0874 115.101 60.8608 114.476C61.3217 114.116 61.7651 113.653 62.1909 113.087C62.6167 112.521 62.9077 112.007 63.0639 111.546H60.9897C60.7163 112.101 60.3452 112.589 59.8764 113.011C59.0717 113.737 58.1186 114.101 57.0171 114.101C55.8374 114.101 55.0464 113.716 54.644 112.946C54.2417 112.177 54.1577 111.155 54.3921 109.882H63.5913C63.8647 108.616 63.9975 107.694 63.9897 107.116C64.0288 106.272 63.9038 105.534 63.6147 104.901C63.3256 104.237 62.8061 103.696 62.0561 103.278C61.3061 102.86 60.4858 102.651 59.5952 102.651C57.8296 102.651 56.2671 103.28 54.9077 104.538C53.5483 105.796 52.6538 107.433 52.2241 109.448C51.7866 111.495 51.9897 113.087 52.8335 114.224C53.6772 115.36 54.8803 115.929 56.4428 115.929ZM61.7749 108.206H54.8022C55.0756 107.128 55.6147 106.239 56.4194 105.54C57.2241 104.841 58.1108 104.491 59.0796 104.491C60.4311 104.491 61.2866 104.999 61.646 106.015C61.8413 106.562 61.8842 107.292 61.7749 108.206ZM72.1225 115.929C74.4428 115.929 76.4467 115.19 78.1342 113.714C79.5327 112.487 80.5249 110.968 81.1108 109.155H78.8374C78.3608 110.288 77.8139 111.202 77.1967 111.897C76.0171 113.218 74.5678 113.878 72.8491 113.878C70.9819 113.878 69.7104 113.251 69.0346 111.997C68.3589 110.743 68.2358 109.108 68.6655 107.093C69.1889 104.632 70.0971 102.806 71.3901 101.614C72.6831 100.423 74.1772 99.8271 75.8725 99.8271C77.2632 99.8271 78.2749 100.151 78.9077 100.8C79.5405 101.448 79.8686 102.327 79.8921 103.437H82.1655C82.3452 101.976 81.9546 100.671 80.9936 99.5225C80.0327 98.374 78.4624 97.7998 76.2827 97.7998C73.728 97.7998 71.5366 98.6826 69.7085 100.448C68.021 102.073 66.9077 104.155 66.3686 106.694C65.6577 110.038 66.0249 112.511 67.4702 114.112C68.5717 115.323 70.1225 115.929 72.1225 115.929ZM89.8764 115.987C92.7124 115.987 95.1108 114.987 97.0717 112.987C98.7358 111.284 99.8413 109.147 100.388 106.577C100.896 104.202 100.74 102.253 99.9194 100.729C98.8725 98.7764 96.8296 97.7998 93.7905 97.7998C90.8842 97.7998 88.4624 98.8623 86.5249 100.987C85.0171 102.644 84.0171 104.636 83.5249 106.964C82.978 109.542 83.2007 111.675 84.1928 113.362C85.3335 115.112 87.228 115.987 89.8764 115.987ZM90.603 113.901C88.4389 113.901 87.0132 113.247 86.3257 111.938C85.6382 110.63 85.4975 109.022 85.9038 107.116C86.4116 104.733 87.3589 102.931 88.7456 101.708C90.1323 100.485 91.7163 99.874 93.4975 99.874C95.3335 99.874 96.6479 100.491 97.4409 101.726C98.2339 102.96 98.4155 104.589 97.9858 106.612C97.5796 108.526 96.7612 110.22 95.5307 111.692C94.3003 113.165 92.6577 113.901 90.603 113.901ZM103.447 115.483L105.603 105.323C105.689 104.917 105.814 104.282 105.978 103.419C106.142 102.556 106.267 101.913 106.353 101.491L106.47 100.964L108.333 115.483H110.642L118.634 100.964C118.439 101.894 118.246 102.765 118.054 103.577C117.863 104.39 117.732 104.972 117.662 105.323L115.505 115.483H117.72L121.376 98.2686H118.072L110.068 112.823L108.216 98.2686H104.876L101.22 115.483H103.447ZM123.439 115.483L125.595 105.323C125.681 104.917 125.806 104.282 125.97 103.419C126.134 102.556 126.259 101.913 126.345 101.491L126.462 100.964L128.326 115.483H130.634L138.626 100.964C138.431 101.894 138.238 102.765 138.046 103.577C137.855 104.39 137.724 104.972 137.654 105.323L135.498 115.483H137.712L141.369 98.2686H138.064L130.06 112.823L128.208 98.2686H124.869L121.212 115.483H123.439ZM154.212 115.483L154.646 113.433H144.193L145.435 107.597H154.939L155.361 105.604H145.857L146.958 100.378H157.236L157.693 98.2686H145.142L141.486 115.483H154.212ZM159.884 115.483L161.443 108.101H166.751C167.705 108.101 168.384 108.206 168.791 108.417C169.486 108.8 169.744 109.554 169.564 110.679L169.095 113.55C168.978 114.222 168.919 114.675 168.919 114.909C168.919 115.144 168.943 115.335 168.99 115.483H171.849L171.931 115.097C171.603 114.94 171.427 114.589 171.404 114.042C171.38 113.722 171.427 113.233 171.544 112.577L171.955 110.269C172.126 109.269 172.091 108.546 171.849 108.101C171.607 107.655 171.177 107.296 170.56 107.022C171.412 106.624 172.121 106.097 172.687 105.44C173.253 104.784 173.646 103.94 173.865 102.909C174.279 100.933 173.755 99.5771 172.294 98.8428C171.529 98.46 170.49 98.2686 169.177 98.2686H161.208L157.552 115.483H159.884ZM167.255 106.155H161.865L163.107 100.272H168.802C169.599 100.272 170.212 100.39 170.642 100.624C171.439 101.069 171.708 101.905 171.451 103.132C171.208 104.272 170.722 105.062 169.992 105.499C169.261 105.937 168.349 106.155 167.255 106.155ZM181.447 115.929C183.767 115.929 185.771 115.19 187.458 113.714C188.857 112.487 189.849 110.968 190.435 109.155H188.162C187.685 110.288 187.138 111.202 186.521 111.897C185.341 113.218 183.892 113.878 182.173 113.878C180.306 113.878 179.035 113.251 178.359 111.997C177.683 110.743 177.56 109.108 177.99 107.093C178.513 104.632 179.421 102.806 180.714 101.614C182.007 100.423 183.501 99.8271 185.197 99.8271C186.587 99.8271 187.599 100.151 188.232 100.8C188.865 101.448 189.193 102.327 189.216 103.437H191.49C191.669 101.976 191.279 100.671 190.318 99.5225C189.357 98.374 187.787 97.7998 185.607 97.7998C183.052 97.7998 180.861 98.6826 179.033 100.448C177.345 102.073 176.232 104.155 175.693 106.694C174.982 110.038 175.349 112.511 176.794 114.112C177.896 115.323 179.447 115.929 181.447 115.929ZM204.884 115.483L205.318 113.433H194.865L196.107 107.597H205.611L206.033 105.604H196.529L197.63 100.378H207.908L208.365 98.2686H195.814L192.158 115.483H204.884Z" fill="#D72036"/>
<path d="M50.9104 44L43.1147 54.7642C43.1147 54.7642 83.5281 54.7642 85.6013 54.7642C87.7489 54.7642 87.7205 55.5936 86.6708 57.0389C85.6047 58.506 83.8208 61.0575 82.7349 62.5479C82.184 63.3042 81.1877 64.6821 84.4892 64.6821C87.9796 64.6821 101.863 64.6821 101.863 64.6821C101.863 64.6821 104.664 60.8086 107.011 57.5708C110.205 53.1663 107.288 44.0004 95.8712 44.0004C85.6525 44 50.9104 44 50.9104 44Z" fill="#D2002E"/>
<path d="M39.9595 79.0751L55.6174 57.4521C55.6174 57.4521 72.9754 57.4521 75.0477 57.4521C77.1953 57.4521 77.1673 58.2815 76.1176 59.7268C75.0516 61.1939 73.2383 63.7183 72.1525 65.2086C71.6011 65.9649 70.6052 67.345 73.9063 67.345C77.3972 67.345 99.937 67.345 99.937 67.345C97.7722 70.3593 90.75 79.0751 78.1409 79.0751C67.9222 79.0751 39.9595 79.0751 39.9595 79.0751Z" fill="#D2002E"/>
<path d="M129.635 67.3389L121.144 79.0716H98.7456C98.7456 79.0716 107.232 67.3415 107.239 67.3415L129.635 67.3389Z" fill="#D2002E"/>
<path d="M163.944 64.6821H109.159L124.141 44H146.532L137.945 55.8591H147.94L156.531 44H178.92L163.944 64.6821Z" fill="#D2002E"/>
<path d="M162.022 67.3408L153.527 79.0709H131.137C131.137 79.0709 139.623 67.3408 139.63 67.3408H162.022Z" fill="#D2002E"/>
<path d="M8 71.9648H40.9969L39.1945 74.4569H8V71.9648Z" fill="#D2002E"/>
<path d="M8 67.3408H44.3492L42.5433 69.8293H8V67.3408Z" fill="#D2002E"/>
<path d="M8 76.5898H37.6464L35.8525 79.0666H8V76.5898Z" fill="#D2002E"/>
<path d="M251.996 74.4564H219.127L220.93 71.9648H251.996V74.4564Z" fill="#D2002E"/>
<path d="M251.997 79.0665L215.786 79.07L217.579 76.5898H251.997V79.0665Z" fill="#D2002E"/>
<path d="M224.282 67.3408H252V69.8307L222.48 69.8328L224.282 67.3408Z" fill="#D2002E"/>
<path d="M209.932 44L194.953 64.6816H171.227C171.227 64.6816 186.209 44 186.217 44H209.932Z" fill="#D2002E"/>
<path d="M169.305 67.3408C169.305 67.3408 167.669 69.6141 166.874 70.7068C164.061 74.5702 166.547 79.0709 175.726 79.0709C186.326 79.0709 211.686 79.0709 211.686 79.0709L220.18 67.3408H169.305V67.3408Z" fill="#D2002E"/>
</svg>
