<svg width="24" height="24" viewBox="0 0 24 24" fill="none" xmlns="http://www.w3.org/2000/svg">
<g clip-path="url(#clip0)">
<mask id="mask0" mask-type="alpha" maskUnits="userSpaceOnUse" x="2" y="3" width="20" height="18">
<path d="M2 3H22V20.8261H2V3Z" fill="white"/>
</mask>
<g mask="url(#mask0)">
<path fill-rule="evenodd" clip-rule="evenodd" d="M19.9206 11.7349C19.6531 12.7536 19.2195 13.7472 18.6322 14.6881C18.2571 15.2891 17.8348 15.8423 17.3711 16.3431C17.9004 14.1837 17.5422 11.5383 16.2439 9.05759C16.1526 8.88314 15.9417 8.82536 15.7748 8.92972L11.7317 11.4588C11.5769 11.5557 11.5298 11.7597 11.6265 11.9147L12.2193 12.8644C12.3161 13.0194 12.52 13.0665 12.6749 12.9697L15.2952 11.3305C15.3831 11.5824 15.4618 11.836 15.5289 12.0914C15.781 13.0512 15.8749 13.9879 15.808 14.8754C15.6835 16.5276 15.0116 17.8149 13.9159 18.5003C13.3688 18.8426 12.7331 19.0238 12.0422 19.0435C12.0272 19.0432 12.0119 19.0437 11.9969 19.0435C11.984 19.0435 11.971 19.0432 11.9581 19.0435C11.2671 19.0239 10.6313 18.8426 10.084 18.5002C8.9885 17.8149 8.31651 16.5276 8.192 14.8754C8.12512 13.9879 8.21904 13.0512 8.47112 12.0914C8.73871 11.0727 9.17209 10.0791 9.75957 9.13811C10.3469 8.19713 11.049 7.37154 11.8464 6.68425C12.5976 6.03668 13.3974 5.54158 14.2236 5.2127C15.7617 4.60042 17.212 4.64073 18.3077 5.32606C19.4032 6.01131 20.0752 7.29865 20.1997 8.95085C20.2667 9.83838 20.1728 10.775 19.9206 11.7349ZM5.36784 14.6881C4.78044 13.7472 4.34697 12.7536 4.07938 11.7349C3.8273 10.775 3.73339 9.83838 3.80026 8.95085C3.92486 7.29865 4.59676 6.01131 5.69239 5.32606C6.78793 4.64073 8.23836 4.60042 9.77636 5.2127C10.0079 5.30485 10.237 5.41201 10.4639 5.53038C9.64413 6.274 8.89094 7.16764 8.25023 8.19407C6.55356 10.9121 6.03754 13.9311 6.62909 16.3434C6.16544 15.8425 5.74299 15.2891 5.36784 14.6881ZM19.2507 3.81514C17.1721 2.5149 14.4359 2.82392 11.9993 4.35987C9.5631 2.82443 6.8276 2.51515 4.74925 3.81522C1.4656 5.86918 1.0668 11.1599 3.85849 15.6323C5.91701 18.9299 9.13514 20.8616 12.0002 20.8256C14.865 20.8614 18.083 18.9298 20.1415 15.6323C22.9332 11.1599 22.5345 5.86918 19.2507 3.81514Z" fill="#1BDBDB"/>
</g>
</g>
<defs>
<clipPath id="clip0">
<rect x="2" y="3" width="20" height="17.8261" fill="white"/>
</clipPath>
</defs>
</svg>
