<svg width="161" height="40" viewBox="0 0 161 40" fill="none" xmlns="http://www.w3.org/2000/svg">
<g clip-path="url(#clip0)">
<path fill-rule="evenodd" clip-rule="evenodd" d="M57.5311 33.5982C56.425 33.5982 55.3279 33.4859 54.2702 33.2646C53.1939 33.0392 52.2218 32.6575 51.381 32.1301C50.5283 31.596 49.819 30.8804 49.2731 30.0039C48.7193 29.1162 48.5187 27.7594 48.5104 27.7022C48.4586 27.3418 48.5591 26.9846 48.786 26.7225C49.0132 26.4601 49.3522 26.3098 49.7167 26.3098H52.6399C53.346 26.3098 53.9856 26.8674 54.0891 27.5627C54.1074 27.6023 54.1579 27.7044 54.2845 27.9239C54.4853 28.273 54.7474 28.5625 55.0634 28.7836C55.3878 29.0103 55.7677 29.181 56.1927 29.2897C56.6298 29.4023 57.0924 29.4591 57.5673 29.4591C57.9044 29.4591 58.2622 29.4191 58.6306 29.3405C58.9921 29.2638 59.3229 29.1432 59.6148 28.9807C59.8956 28.8248 60.1227 28.6228 60.3092 28.3635C60.4819 28.1237 60.5655 27.8211 60.5655 27.438C60.5655 27.2147 60.5655 26.5349 59.2656 26.0449C58.2733 25.6722 55.9993 25.1319 55.9764 25.1269C55.4497 25.0023 54.5892 24.7932 54.0642 24.6628C54.0423 24.6573 53.5179 24.5265 52.8027 24.2953C52.0612 24.0569 51.3904 23.7373 50.8093 23.3452C50.2117 22.9432 49.7239 22.4286 49.3597 21.8167C48.989 21.1952 48.8009 20.4316 48.8009 19.547C48.8009 18.2779 49.0566 17.2147 49.5605 16.3872C50.0616 15.5653 50.7325 14.9074 51.5549 14.4318C52.3605 13.9663 53.2765 13.635 54.2779 13.4475C55.261 13.2632 56.2825 13.1695 57.3139 13.1695C58.3456 13.1695 59.3627 13.2696 60.3372 13.4668C61.3283 13.6678 62.2272 14.0125 63.0085 14.4911C63.8005 14.9769 64.4668 15.6298 64.989 16.432C65.5173 17.2443 65.7412 18.4282 65.7504 18.4785C65.8174 18.8395 65.7295 19.1981 65.5094 19.4626C65.2895 19.7271 64.9527 19.8789 64.5856 19.8789H61.6622C60.9535 19.8789 60.254 19.343 60.0696 18.6586C60.0686 18.6551 59.905 18.0961 59.3888 17.8286C58.7687 17.5076 58.0218 17.345 57.1691 17.345C56.8952 17.345 56.5916 17.3625 56.267 17.397C55.9675 17.4294 55.6934 17.4988 55.4519 17.6037C55.2246 17.7032 55.0377 17.8421 54.8807 18.0286C54.744 18.1906 54.6777 18.4149 54.6777 18.7142C54.6777 19.0682 54.7977 19.3361 55.0556 19.5568C55.3555 19.8139 55.7585 20.028 56.254 20.1932C56.7802 20.3683 57.3935 20.5291 58.0765 20.6706C58.7531 20.8103 59.4747 20.9691 60.221 21.143C60.973 21.3128 61.7223 21.5233 62.4457 21.7681C63.1884 22.0201 63.86 22.3594 64.4423 22.7767C65.0375 23.2041 65.5235 23.7426 65.8869 24.3777C66.2554 25.0234 66.4421 25.8216 66.4421 26.7504C66.4421 28.0421 66.1752 29.1466 65.6485 30.0334C65.1259 30.9124 64.4347 31.6296 63.5931 32.1653C62.7607 32.6949 61.7989 33.071 60.7346 33.2831C59.6883 33.4921 58.6105 33.5982 57.5311 33.5982Z" fill="#2F424B"/>
<path fill-rule="evenodd" clip-rule="evenodd" d="M82.172 33.1277C81.4276 33.1277 80.822 32.5218 80.822 31.7777V23.1713C80.822 22.638 80.7832 21.7737 80.7358 21.2444C80.6952 20.7906 80.5111 19.4901 80.1553 18.9295C79.741 18.2772 79.0021 17.9602 77.8962 17.9602C76.6065 17.9602 75.7081 18.3206 75.1495 19.0625C74.6857 19.6776 74.4327 21.3964 74.3742 22.0071C74.3235 22.5377 74.2823 23.4008 74.2823 23.9313V31.7777C74.2823 32.5218 73.6767 33.1277 72.9324 33.1277H69.7557C69.0114 33.1277 68.4058 32.5218 68.4058 31.7777V7.8953C68.4058 7.15098 69.0114 6.54535 69.7557 6.54535H72.9324C73.6767 6.54535 74.2823 7.15098 74.2823 7.8953C74.2823 7.8953 74.2823 15.709 74.2823 15.7287C74.3022 15.7039 74.3223 15.6786 74.343 15.6525C74.3808 15.6046 75.2825 14.4746 76.3587 13.949C77.4192 13.4318 78.4723 13.1695 79.489 13.1695C80.907 13.1695 82.0942 13.3683 83.017 13.7598C83.9539 14.158 84.704 14.7208 85.2471 15.4322C85.7846 16.1359 86.1665 17.001 86.3826 18.003C86.5913 18.9757 86.6499 20.1984 86.6524 20.2503C86.6781 20.7958 86.6986 21.6838 86.6986 22.23V31.7777C86.6986 32.5218 86.093 33.1277 85.3486 33.1277H82.172Z" fill="#2F424B"/>
<path fill-rule="evenodd" clip-rule="evenodd" d="M90.9752 11.5166C90.2305 11.5166 89.6252 10.9112 89.6252 10.1667V7.8953C89.6252 7.15098 90.2305 6.54535 90.9752 6.54535H94.1518C94.8961 6.54535 95.5018 7.15098 95.5018 7.8953V10.1667C95.5018 10.9112 94.8961 11.5166 94.1518 11.5166H90.9752ZM90.9752 33.1277C90.2305 33.1277 89.6252 32.5218 89.6252 31.7777V15.0264C89.6252 14.2818 90.2305 13.6764 90.9752 13.6764H94.1518C94.8961 13.6764 95.5018 14.2818 95.5018 15.0264V31.7777C95.5018 32.5218 94.8961 33.1277 94.1518 33.1277H90.9752Z" fill="#2F424B"/>
<path fill-rule="evenodd" clip-rule="evenodd" d="M108.208 17.7792C107.437 17.7792 106.79 17.9376 106.284 18.2493C105.767 18.5685 105.344 18.9858 105.027 19.4897C104.702 20.0043 104.469 20.6081 104.334 21.2843C104.195 21.9822 104.124 22.7128 104.124 23.4563C104.124 24.1771 104.201 24.8939 104.351 25.586C104.498 26.2642 104.736 26.8628 105.061 27.3653C105.377 27.8571 105.805 28.2618 106.33 28.5679C106.849 28.8712 107.493 29.025 108.245 29.025C109.019 29.025 109.668 28.8716 110.174 28.5699C110.689 28.2632 111.111 27.8581 111.428 27.3655C111.752 26.8628 111.984 26.266 112.119 25.5922C112.258 24.8959 112.329 24.1771 112.329 23.4563C112.329 22.7383 112.253 22.0218 112.102 21.3261C111.955 20.6481 111.71 20.0368 111.373 19.5096C111.043 18.9928 110.613 18.5685 110.096 18.2493C109.59 17.9376 108.955 17.7792 108.208 17.7792ZM99.7785 39.6794C99.0343 39.6794 98.4287 39.074 98.4287 38.3297V15.0264C98.4287 14.2819 99.0343 13.6764 99.7785 13.6764H102.702C103.446 13.6764 104.052 14.2819 104.052 15.0264C104.052 15.0264 104.052 15.4756 104.052 15.4871C104.064 15.4714 104.077 15.4559 104.09 15.4399C104.125 15.397 104.959 14.382 105.987 13.8931C106.999 13.4131 108.124 13.1695 109.331 13.1695C110.855 13.1695 112.191 13.464 113.302 14.0443C114.407 14.6222 115.337 15.3997 116.067 16.3552C116.791 17.3054 117.336 18.425 117.685 19.6837C118.031 20.9307 118.206 22.2487 118.206 23.6012C118.206 24.8835 118.03 26.1361 117.684 27.3243C117.334 28.5233 116.796 29.599 116.084 30.5227C115.366 31.4547 114.46 32.2077 113.391 32.7606C112.316 33.3164 111.048 33.5982 109.62 33.5982C108.411 33.5982 107.28 33.3482 106.257 32.8559C105.225 32.3592 104.419 31.4593 104.385 31.4214C104.358 31.3906 104.331 31.3604 104.305 31.3311C104.305 31.3617 104.305 38.3297 104.305 38.3297C104.305 39.074 103.699 39.6794 102.955 39.6794H99.7785Z" fill="#2F424B"/>
<path fill-rule="evenodd" clip-rule="evenodd" d="M129.421 17.7792C128.649 17.7792 128.002 17.9376 127.497 18.2493C126.98 18.5685 126.556 18.9858 126.239 19.4897C125.915 20.0037 125.682 20.6077 125.546 21.2845C125.407 21.9822 125.337 22.7128 125.337 23.4563C125.337 24.1771 125.413 24.8939 125.564 25.586C125.71 26.2642 125.949 26.8628 126.273 27.3653C126.59 27.8571 127.017 28.2618 127.543 28.5679C128.062 28.8712 128.706 29.025 129.457 29.025C130.231 29.025 130.88 28.8716 131.386 28.5699C131.901 28.2632 132.323 27.8581 132.641 27.3655C132.964 26.8628 133.196 26.266 133.331 25.5922C133.471 24.8959 133.541 24.1771 133.541 23.4563C133.541 22.7383 133.465 22.0218 133.314 21.3261C133.167 20.6481 132.922 20.0368 132.585 19.5096C132.255 18.9928 131.826 18.5685 131.309 18.2493C130.803 17.9376 130.168 17.7792 129.421 17.7792ZM120.991 39.6794C120.247 39.6794 119.641 39.074 119.641 38.3297V15.0264C119.641 14.2819 120.247 13.6764 120.991 13.6764H123.914C124.659 13.6764 125.264 14.2819 125.264 15.0264C125.264 15.0264 125.264 15.4756 125.264 15.4871C125.277 15.4714 125.29 15.4559 125.303 15.4399C125.338 15.397 126.171 14.382 127.2 13.8931C128.211 13.4131 129.336 13.1695 130.543 13.1695C132.068 13.1695 133.404 13.464 134.514 14.0443C135.619 14.6222 136.549 15.3997 137.279 16.3552C138.004 17.3054 138.548 18.425 138.898 19.6837C139.243 20.9307 139.418 22.2487 139.418 23.6012C139.418 24.8835 139.243 26.1361 138.897 27.3243C138.546 28.5233 138.008 29.599 137.296 30.5227C136.579 31.4543 135.673 32.2075 134.604 32.7606C133.529 33.3164 132.26 33.5982 130.833 33.5982C129.624 33.5982 128.492 33.3482 127.469 32.8559C126.437 32.3592 125.632 31.4593 125.598 31.4214C125.571 31.3902 125.544 31.36 125.518 31.3309C125.517 31.3615 125.517 38.3297 125.517 38.3297C125.517 39.074 124.912 39.6794 124.168 39.6794H120.991Z" fill="#2F424B"/>
<path fill-rule="evenodd" clip-rule="evenodd" d="M150.734 17.7792C149.938 17.7792 149.271 17.938 148.753 18.2513C148.225 18.5699 147.797 18.9868 147.481 19.4897C147.156 20.0033 146.923 20.6071 146.788 21.2843C146.648 21.9807 146.578 22.6993 146.578 23.4203C146.578 24.1409 146.648 24.8531 146.788 25.5367C146.923 26.2041 147.157 26.8091 147.483 27.3349C147.798 27.8483 148.224 28.263 148.748 28.5679C149.267 28.8712 149.935 29.025 150.734 29.025C151.535 29.025 152.21 28.8708 152.742 28.5665C153.276 28.2616 153.707 27.8473 154.023 27.3351C154.349 26.8069 154.582 26.2021 154.717 25.5369C154.857 24.8531 154.928 24.1409 154.928 23.4203C154.928 22.6993 154.857 21.9807 154.717 21.2845C154.583 20.6091 154.35 20.0055 154.025 19.4895C153.708 18.9876 153.275 18.5713 152.737 18.2525C152.205 17.9386 151.532 17.7792 150.734 17.7792ZM150.734 33.5982C149.224 33.5982 147.839 33.3582 146.62 32.8855C145.393 32.4103 144.327 31.718 143.45 30.8278C142.573 29.9389 141.887 28.8547 141.413 27.6049C140.941 26.3627 140.701 24.9548 140.701 23.4203C140.701 21.8865 140.941 20.4726 141.412 19.2182C141.887 17.9566 142.573 16.8658 143.45 15.9763C144.327 15.0869 145.392 14.3892 146.617 13.9018C147.837 13.4159 149.223 13.1695 150.734 13.1695C152.246 13.1695 153.637 13.4157 154.87 13.9014C156.105 14.3882 157.177 15.0863 158.055 15.9761C158.932 16.8658 159.618 17.9566 160.093 19.2182C160.565 20.4744 160.804 21.8883 160.804 23.4203C160.804 24.953 160.565 26.361 160.092 27.6049C159.617 28.8547 158.932 29.9389 158.056 30.8278C157.177 31.7186 156.104 32.4111 154.866 32.8861C153.635 33.3582 152.245 33.5982 150.734 33.5982Z" fill="#2F424B"/>
<path fill-rule="evenodd" clip-rule="evenodd" d="M22.9487 14.8271C22.3574 15.2693 21.528 15.2852 20.9021 14.9021C20.2941 14.5303 19.9453 13.8094 20.0812 13.1067C20.0961 13.0297 20.1176 12.9542 20.1433 12.8798C20.0657 13.0872 19.9994 13.2629 20.1548 12.8452C20.3138 12.4233 20.2468 12.6034 20.1686 12.8125C20.434 12.1532 21.1077 11.7337 21.8195 11.7463C22.5634 11.7594 23.2539 12.2354 23.5093 12.9319C23.7588 13.6119 23.5325 14.3908 22.9487 14.8271ZM42.5771 12.3106C42.0143 10.957 41.1114 9.7602 39.9447 8.86131C38.7202 7.91799 37.2426 7.32221 35.7085 7.11678C34.8137 6.99698 33.9057 7.01548 33.0145 7.15859C32.0826 7.30814 31.2032 7.60925 30.3387 7.97849C29.9152 8.1592 29.4955 8.34854 29.073 8.53166C27.7839 9.29186 26.33 9.72462 24.8277 9.74412C24.0494 9.75437 23.273 9.66774 22.5128 9.50211C22.1128 9.41487 21.7174 9.30613 21.3276 9.1803C20.9499 9.05829 20.5674 8.9803 20.1713 8.94673C19.2712 8.87035 18.3642 8.99095 17.4701 9.08603L15.3126 9.31799C15.3095 9.31377 15.3073 9.31096 15.3049 9.30673L15.2416 9.31317C14.6933 8.70814 14.0151 8.23216 13.3506 7.76261C13.161 7.62874 12.9767 7.51176 12.7387 7.49005C12.0653 7.48382 11.9053 8.28543 11.8665 8.80503C11.8189 9.439 11.8949 10.0909 12.0404 10.7085C12.0963 10.9453 12.1578 11.196 12.2758 11.4111C12.2758 11.4111 12.3797 11.8704 12.5618 12.2995C12.3278 12.5839 12.1397 12.9073 12.0092 13.2511C11.9634 13.3719 11.9168 13.4778 11.8456 13.5863C11.6358 13.9055 11.3819 14.1982 11.1323 14.487C10.2888 15.4637 9.38995 16.3942 8.49045 17.3196C8.06915 17.7532 4.43859 18.9512 2.34794 19.6161C2.54915 10.0422 10.3721 2.34291 19.994 2.34291C24.5397 2.34291 28.6838 4.06191 31.8129 6.88482C32.195 6.77648 32.5648 6.69286 32.9302 6.63417C33.4573 6.54955 33.9901 6.50673 34.5138 6.50673C34.5946 6.50673 34.6758 6.50874 34.7568 6.51075C31.1009 2.50995 25.8406 0 19.994 0C8.95156 0 0 8.95156 0 19.994C0 31.0362 8.95156 39.9879 19.994 39.9879C30.163 39.9879 38.5586 32.396 39.8229 22.5711C39.7158 22.6376 39.609 22.7047 39.4985 22.767C38.9958 23.0509 38.4738 23.2623 37.969 23.4663C37.7946 23.5371 37.6299 23.6036 37.4663 23.673C37.3912 23.7045 37.3144 23.7389 37.2382 23.7719C35.5588 31.4728 28.8533 37.2949 20.7309 37.6285C22.4832 35.0183 26.0008 29.8878 27.0316 29.1821C28.443 28.2159 29.8714 27.2732 31.327 26.3735C32.6595 25.5501 34.0149 24.759 35.4127 24.0486C36.0185 23.7409 36.633 23.4482 37.2595 23.1837C37.9264 22.9019 38.6054 22.6613 39.2376 22.3047C40.3763 21.6621 41.3614 20.7586 42.0617 19.6569C42.7319 18.603 43.1278 17.3893 43.2203 16.1471C43.3178 14.8396 43.0804 13.5204 42.5771 12.3106Z" fill="#2F424B"/>
</g>
<defs>
<clipPath id="clip0">
<rect width="160.804" height="40" fill="white"/>
</clipPath>
</defs>
</svg>
