<svg width="260" height="160" viewBox="0 0 260 160" fill="none" xmlns="http://www.w3.org/2000/svg">
<path d="M260 0H0V160H260V0Z" fill="#231F20"/>
<path fill-rule="evenodd" clip-rule="evenodd" d="M86.5461 86.8696C88.3298 82.6968 90.103 78.5968 91.8227 74.4752C92.079 73.8616 92.3872 73.6896 93.0305 73.6968C95.5662 73.7224 95.5621 73.7008 96.5574 76.0568C97.9834 79.4344 99.4151 82.8096 100.848 86.184C100.943 86.4064 101.066 86.6176 101.243 86.9648C102.763 83.5 104.209 80.1784 105.68 76.8672C106.144 75.8224 106.277 74.3688 107.183 73.8576C108.044 73.3728 109.392 73.7264 110.526 73.7144C110.944 73.7096 111.363 73.7136 111.923 73.7136C111.18 75.404 110.481 76.9968 109.781 78.588C107.301 84.2224 104.816 89.8544 102.35 95.4944C102.107 96.048 101.839 96.32 101.152 96.3216C100.457 96.3224 100.284 95.9592 100.075 95.4712C98.0418 90.7216 95.9993 85.9752 93.9544 81.216C93.5399 81.3184 93.5488 81.6928 93.4377 81.952C91.486 86.4904 89.5393 91.0312 87.6217 95.5832C87.4043 96.0992 87.1634 96.3424 86.5728 96.3032C86.0699 96.2704 85.7009 96.2688 85.4461 95.6872C82.2997 88.4984 79.1183 81.324 75.9491 74.1456C75.9126 74.0616 75.9102 73.9632 75.8623 73.72C77.4027 73.72 78.9017 73.7128 80.3999 73.7256C80.8363 73.7288 80.8339 74.1448 80.9531 74.4144C82.6485 78.2696 84.3324 82.1288 86.0245 85.984C86.151 86.2704 86.2046 86.6024 86.5461 86.8696Z" fill="#FEFEFE"/>
<path fill-rule="evenodd" clip-rule="evenodd" d="M66.3546 82.548C68.0045 82.548 69.6544 82.5536 71.3042 82.5424C71.5776 82.54 72.0164 82.712 71.9483 82.144C71.7114 80.1504 70.8184 78.332 68.8335 77.556C65.3544 76.196 61.6004 78.2264 60.9003 81.8432C60.7949 82.3848 60.9109 82.5728 61.5022 82.56C63.1188 82.5248 64.7371 82.548 66.3546 82.548ZM76.0803 89.4256C76.0803 90.5672 76.0073 91.5336 76.1006 92.4832C76.198 93.48 75.8183 94.0192 74.9334 94.4936C71.4965 96.3344 67.839 96.6736 64.1068 95.9376C60.7065 95.2664 58.4239 93.0232 57.1804 89.9328C55.3196 85.3088 55.5272 80.7592 58.7792 76.756C61.4884 73.4216 65.2197 72.628 69.2942 73.596C73.1334 74.508 75.1143 77.2816 76.0576 80.8792C76.357 82.02 76.4519 83.1992 76.4892 84.3864C76.5119 85.0968 76.3269 85.2976 75.5855 85.2912C70.9498 85.2552 66.3132 85.3048 61.6782 85.2472C60.73 85.2352 60.6026 85.5304 60.7705 86.3216C61.5355 89.94 64.0509 92.0008 67.8057 92.06C70.4679 92.1024 72.9071 91.3832 75.1516 89.988C75.4144 89.8248 75.6813 89.6664 76.0803 89.4256Z" fill="#FEFEFE"/>
<mask id="mask0" mask-type="alpha" maskUnits="userSpaceOnUse" x="35" y="73" width="19" height="23">
<path d="M35 73.2451H53.9706V95.9253H35V73.2451Z" fill="white"/>
</mask>
<g mask="url(#mask0)">
<path fill-rule="evenodd" clip-rule="evenodd" d="M39.638 76.3968C41.3268 74.6824 43.0919 73.6192 45.3129 73.3168C49.3484 72.7672 53.0651 75.4344 53.6978 79.392C53.8657 80.4376 53.9477 81.4872 53.9517 82.54C53.9663 86.7304 53.946 90.9216 53.9705 95.1128C53.9744 95.7192 53.8382 95.9568 53.1779 95.9176C52.2085 95.8608 51.2303 95.8576 50.2609 95.9184C49.5796 95.9608 49.4011 95.76 49.406 95.0848C49.4401 91.0224 49.4352 86.9592 49.4133 82.8968C49.4092 82.1016 49.3411 81.2952 49.1894 80.5152C48.6037 77.508 46.06 76.2224 42.9865 77.3408C41.6967 77.8104 40.725 78.6664 39.8968 79.7248C39.6039 80.0984 39.6388 80.496 39.6388 80.9048C39.638 85.608 39.6218 90.3104 39.6559 95.0128C39.6615 95.7312 39.4806 95.968 38.7417 95.9192C37.7723 95.8544 36.7949 95.8712 35.8239 95.9152C35.2237 95.9424 34.9974 95.8184 34.9998 95.1512C35.0274 88.2736 35.0282 81.396 34.9998 74.5176C34.9974 73.8248 35.2066 73.6624 35.8669 73.6976C36.902 73.7536 37.9427 73.7336 38.9793 73.704C39.4831 73.6904 39.6794 73.848 39.6469 74.3584C39.6088 74.96 39.638 75.5656 39.638 76.3968Z" fill="#FEFEFE"/>
</g>
<path fill-rule="evenodd" clip-rule="evenodd" d="M118.419 90.5801C118.539 91.3889 118.428 92.1889 118.781 92.5961C119.189 93.0641 119.988 92.5825 120.619 92.5665C123.728 92.4881 126.702 92.9313 129.353 94.6505C133.483 97.3289 133.905 101.69 130.397 105.114C125.75 109.649 116.26 110.243 111.233 106.314C108.356 104.066 107.8 100.61 109.807 97.7121C110.201 97.1433 110.535 97.0305 111.138 97.4041C111.986 97.9305 112.883 98.3809 113.767 98.8497C114.093 99.0233 114.23 99.1265 113.979 99.5465C112.858 101.429 113.315 103.08 115.375 104.034C119.074 105.748 122.662 105.372 126.057 103.146C126.468 102.878 126.791 102.519 127.075 102.128C128.024 100.821 127.895 99.2761 126.642 98.2673C124.557 96.5897 122.101 96.4193 119.553 96.7329C119.182 96.7785 119.072 96.9673 119.115 97.3177C119.188 97.9177 119.234 98.5217 119.291 99.1249C119.021 99.2865 118.856 99.0841 118.681 98.9897C116.69 97.9217 114.704 96.8441 112.715 95.7737C112.364 95.5849 112.065 95.4425 112.572 95.0593C114.493 93.6057 116.399 92.1305 118.419 90.5801Z" fill="#97BF12"/>
<path fill-rule="evenodd" clip-rule="evenodd" d="M122.428 69.8799C124.785 71.4447 126.979 72.9015 129.293 74.4375C127.119 75.8143 125.036 77.1375 122.95 78.4543C122.645 78.6463 122.461 78.5663 122.456 78.1903C122.454 78.0623 122.454 77.9343 122.452 77.8063C122.422 76.2479 122.243 76.1295 120.733 76.6591C118.527 77.4311 117.194 79.3103 117.375 81.3927C117.543 83.3471 119.371 85.1319 121.563 85.4831C124.166 85.8999 126.486 84.9015 127.553 82.9247C128.227 81.6767 128.309 80.4023 127.616 79.1679C127.276 78.5631 127.408 78.3007 127.961 77.9903C128.805 77.5167 129.651 77.0247 130.416 76.4391C131.155 75.8711 131.499 76.1495 131.904 76.8135C133.879 80.0519 133.219 84.1423 130.253 86.8375C126.109 90.6039 118.988 90.4863 115.032 86.5855C110.979 82.5895 111.893 76.5087 116.987 73.6071C118.264 72.8799 119.638 72.4143 121.1 72.2367C122.42 72.0759 122.422 72.0919 122.428 70.7775C122.429 70.5543 122.428 70.3319 122.428 69.8799Z" fill="#00B1E1"/>
<mask id="mask1" mask-type="alpha" maskUnits="userSpaceOnUse" x="207" y="73" width="17" height="24">
<path d="M207.939 73.2407H223.293V96.3176H207.939V73.2407Z" fill="white"/>
</mask>
<g mask="url(#mask1)">
<path fill-rule="evenodd" clip-rule="evenodd" d="M222.16 79.4873C220.802 78.8065 219.61 78.1137 218.299 77.6777C217.247 77.3273 216.185 77.0961 215.064 77.2073C213.907 77.3225 213.097 77.8457 212.888 78.6673C212.633 79.6665 213.21 80.3009 213.924 80.8577C214.919 81.6337 216.054 82.1889 217.148 82.8057C218.47 83.5513 219.769 84.3281 220.891 85.3617C222.773 87.0969 223.803 89.1473 223.039 91.7057C222.297 94.1881 220.388 95.4937 217.931 96.0297C214.555 96.7665 211.391 96.0265 208.361 94.5209C208.057 94.3705 207.936 94.1889 207.94 93.8577C207.952 92.4601 207.945 91.0617 207.945 89.5289C209.353 90.3225 210.607 91.1529 212.023 91.6809C213.117 92.0889 214.206 92.4553 215.402 92.4161C215.899 92.4001 216.372 92.3097 216.822 92.1337C218.833 91.3449 219.137 89.4745 217.371 88.2433C215.843 87.1777 214.182 86.2985 212.589 85.3225C211.541 84.6817 210.511 83.9953 209.701 83.0745C208.17 81.3345 207.59 79.3329 208.453 77.1217C209.345 74.8369 211.265 73.7961 213.588 73.3977C216.407 72.9137 219.035 73.5977 221.569 74.7841C222.005 74.9881 222.188 75.2409 222.173 75.7337C222.135 76.9361 222.16 78.1401 222.16 79.4873Z" fill="#FEFEFE"/>
</g>
<path fill-rule="evenodd" clip-rule="evenodd" d="M144.621 89.5256C146.589 90.776 148.465 91.8248 150.612 92.288C151.754 92.5344 152.869 92.492 153.907 91.9096C155.436 91.052 155.598 89.4544 154.208 88.3928C153.369 87.7512 152.433 87.2256 151.512 86.6952C149.946 85.7936 148.364 84.916 147.005 83.7168C145.062 82.0016 144.159 79.9104 144.997 77.3736C145.822 74.872 147.845 73.7896 150.33 73.3864C153.124 72.932 155.711 73.628 158.213 74.7976C158.64 74.9976 158.855 75.2248 158.833 75.7312C158.786 76.7528 158.792 77.7784 158.829 78.8008C158.852 79.4816 158.642 79.4592 158.125 79.1744C156.373 78.2064 154.591 77.2952 152.525 77.184C151.808 77.1448 151.101 77.2048 150.453 77.5584C149.333 78.1704 149.101 79.3392 149.942 80.2904C150.612 81.048 151.495 81.5344 152.366 82.0264C154.272 83.1056 156.231 84.0936 157.814 85.6608C159.524 87.3544 160.319 89.3088 159.662 91.6592C158.97 94.1336 157.085 95.4464 154.697 96.0032C151.307 96.7928 148.097 96.0744 145.036 94.5424C144.731 94.3896 144.611 94.2144 144.615 93.8824C144.629 92.4792 144.621 91.0752 144.621 89.5256Z" fill="#FEFEFE"/>
<path fill-rule="evenodd" clip-rule="evenodd" d="M205.612 90.6634C205.612 92.0538 205.602 93.2994 205.619 94.545C205.624 94.9138 205.517 95.1354 205.142 95.2562C201.453 96.441 197.735 96.8298 194.023 95.437C191.283 94.4098 189.312 92.4882 188.293 89.781C186.993 86.3258 187.01 82.797 188.52 79.417C190.635 74.6818 194.962 72.9554 199.666 73.2754C201.328 73.389 202.889 73.873 204.427 74.4858C205.014 74.7202 205.189 75.0138 205.166 75.6106C205.121 76.8802 205.153 78.1522 205.153 79.4754C204.105 78.993 203.146 78.469 202.131 78.0994C199.237 77.0466 196.435 77.021 194.126 79.3666C191.753 81.7762 191.486 84.725 192.554 87.7314C193.574 90.6018 195.928 91.849 198.932 92.0666C201.257 92.2354 203.384 91.5442 205.612 90.6634Z" fill="#FEFEFE"/>
<path fill-rule="evenodd" clip-rule="evenodd" d="M169.489 69C169.489 70.4664 169.529 71.6184 169.474 72.7664C169.441 73.4808 169.596 73.7648 170.408 73.7336C172.221 73.664 174.039 73.732 175.854 73.7008C176.387 73.692 176.594 73.812 176.563 74.376C176.515 75.2688 176.52 76.1672 176.563 77.0608C176.588 77.6048 176.414 77.7704 175.858 77.7608C174.011 77.7288 172.161 77.7832 170.315 77.7312C169.612 77.712 169.467 77.9336 169.473 78.588C169.507 81.8808 169.488 85.1744 169.489 88.468C169.491 91.5888 171.049 92.7888 174.172 92.1096C175.376 91.8488 176.485 91.36 177.718 90.74C177.718 92.0864 177.712 93.3136 177.723 94.54C177.726 94.8032 177.608 94.9568 177.393 95.0688C174.677 96.4848 169.992 97.0168 167.169 94.7616C165.469 93.404 164.96 91.5856 164.93 89.5848C164.875 85.9408 164.868 82.2952 164.905 78.6504C164.914 77.8656 164.664 77.6776 163.934 77.7352C163.193 77.7944 162.443 77.7624 161.699 77.74C161.466 77.7336 161.148 77.9 161.01 77.584C160.867 77.2536 161.135 77.0568 161.344 76.8568C163.152 75.1152 164.963 73.376 166.77 71.6336C167.617 70.8176 168.459 69.9976 169.489 69Z" fill="#FEFEFE"/>
<path fill-rule="evenodd" clip-rule="evenodd" d="M180.106 84.7104C180.106 81.32 180.126 77.9296 180.089 74.54C180.083 73.8576 180.285 73.6608 180.958 73.6976C181.96 73.7512 182.969 73.7456 183.973 73.6984C184.574 73.6704 184.73 73.852 184.726 74.4464C184.696 78.22 184.712 81.9944 184.712 85.7688C184.712 88.8712 184.691 91.9736 184.727 95.076C184.735 95.7432 184.552 95.9576 183.872 95.9176C182.902 95.8608 181.925 95.8624 180.955 95.9176C180.278 95.956 180.083 95.752 180.089 95.0728C180.125 91.6192 180.106 88.1648 180.106 84.7104Z" fill="#FEFEFE"/>
<path fill-rule="evenodd" clip-rule="evenodd" d="M141.12 84.8065C141.12 88.2297 141.101 91.6529 141.136 95.0761C141.142 95.7385 140.986 95.9633 140.291 95.9193C139.29 95.8561 138.28 95.8753 137.275 95.9145C136.759 95.9345 136.628 95.7697 136.629 95.2713C136.644 88.2961 136.644 81.3225 136.629 74.3473C136.628 73.8537 136.75 73.6809 137.272 73.7009C138.309 73.7401 139.35 73.7497 140.385 73.6985C140.992 73.6681 141.138 73.8521 141.134 74.4409C141.104 77.8961 141.12 81.3513 141.12 84.8065Z" fill="#FEFEFE"/>
</svg>
