<svg width="30" height="30" viewBox="0 0 30 30" fill="none" xmlns="http://www.w3.org/2000/svg">
<path d="M30 27.6562C30 28.9512 28.9512 30 27.6562 30H2.34375C1.04883 30 0 28.9512 0 27.6562V2.34375C0 1.04883 1.04883 0 2.34375 0H27.6562C28.9512 0 30 1.04883 30 2.34375V27.6562Z" fill="#0D006A"/>
<path fill-rule="evenodd" clip-rule="evenodd" d="M14.5243 10.8784L13.8482 14.3148H18.4968C14.6406 20.3008 6.9914 19.2921 4.97346 16.809C3.23021 14.6695 4.74103 11.0114 9.89682 8.75C4.79385 10.3684 1.92013 14.6473 3.61056 17.5406C5.52285 20.8107 11.4816 22.1742 16.7747 20.589C20.314 19.281 21.8249 17.4519 22.3742 16.4764L21.5079 21.232H24.9838L26.875 10.8894H14.5243V10.8784Z" fill="#FDBD10"/>
</svg>
