<svg width="140" height="72" viewBox="0 0 140 72" fill="none" xmlns="http://www.w3.org/2000/svg">
<g clip-path="url(#clip0)">
<path d="M16.7543 12L0 21.6711V40.9976L4.78472 43.7574L4.75345 24.4387L16.7231 17.5196L28.6927 24.4387V43.7496L33.4774 40.9976V21.6554L16.7543 12Z" fill="#F26322"/>
<path d="M19.131 43.7574L16.7387 45.1412L14.3385 43.7652V24.4387L9.55377 27.1985L9.56159 46.5172L16.7387 50.6609L23.9157 46.5172V27.1985L19.131 24.4387V43.7574Z" fill="#F26322"/>
<path d="M44.4384 21.7883L51.0135 38.4098H51.0682L57.487 21.7883H59.9888V40.8334H58.261V24.2432H58.2062C58.1202 24.5403 58.0186 24.8452 57.917 25.1423L57.6042 25.9711L57.2993 26.8545L51.7875 40.8334H50.2239L44.6495 26.8545C44.5401 26.6043 44.4384 26.3385 44.329 26.0727C44.2195 25.8069 44.1257 25.502 44.0397 25.2361L43.7192 24.3058H43.6644V40.8334H42.0148V21.7883H44.4384Z" fill="#4D4D4D"/>
<path d="M65.0237 40.9272C64.506 40.7853 64.0221 40.5407 63.6008 40.2079C63.1986 39.8863 62.875 39.4772 62.6548 39.0117C62.41 38.4859 62.2896 37.9107 62.303 37.3308C62.2768 36.638 62.4332 35.9505 62.7564 35.3372C63.0548 34.8264 63.4769 34.3989 63.9839 34.0941C64.5436 33.7686 65.1501 33.5312 65.7821 33.3905C66.5198 33.22 67.2662 33.0895 68.0181 32.9996C68.6904 32.9292 69.269 32.8588 69.7381 32.7728C70.1292 32.7163 70.5123 32.614 70.8795 32.4679C71.138 32.3721 71.3614 32.2004 71.5206 31.9754C71.6653 31.721 71.7357 31.4312 71.7239 31.1388V30.873C71.7539 30.4816 71.6925 30.0886 71.5446 29.725C71.3968 29.3614 71.1664 29.0371 70.8717 28.7777C70.1513 28.286 69.2872 28.0494 68.4168 28.1054C65.9723 28.1054 64.6849 29.1244 64.5546 31.1623H62.8893C62.9109 30.5571 63.0534 29.9624 63.3086 29.4132C63.5637 28.864 63.9262 28.3715 64.3748 27.9647C65.5163 27.0867 66.9416 26.6607 68.3777 26.7685C69.6385 26.7048 70.8853 27.0563 71.9271 27.7692C72.3879 28.17 72.7467 28.6747 72.9737 29.2416C73.2008 29.8085 73.2896 30.4213 73.2328 31.0294V38.5192C73.2137 38.8371 73.3048 39.1519 73.4908 39.4105C73.5735 39.5076 73.6767 39.5853 73.7929 39.638C73.9091 39.6907 74.0356 39.7171 74.1631 39.7154C74.2566 39.7269 74.3511 39.7269 74.4446 39.7154C74.5585 39.6979 74.6709 39.6718 74.7808 39.6372H74.859V40.8412C74.7116 40.8995 74.56 40.9466 74.4055 40.9819C74.1878 41.0332 73.9646 41.0569 73.741 41.0523C73.2198 41.0806 72.7068 40.9133 72.3024 40.5832C72.1112 40.3884 71.9607 40.1573 71.86 39.9036C71.7593 39.6498 71.7104 39.3785 71.7161 39.1055V38.8163H71.6379C71.4223 39.1056 71.1872 39.3799 70.9342 39.6372C70.6384 39.9428 70.3017 40.2059 69.9335 40.419C69.5012 40.6464 69.0413 40.8172 68.5653 40.9272C67.9909 41.0751 67.3994 41.1461 66.8062 41.1383C66.205 41.155 65.6045 41.0839 65.0237 40.9272ZM69.0813 39.473C69.6182 39.2707 70.1116 38.9683 70.5355 38.5817C70.9146 38.2254 71.2155 37.7941 71.419 37.3152C71.6091 36.8649 71.7074 36.3811 71.7082 35.8923V33.3748C71.2036 33.6459 70.6605 33.8384 70.0977 33.9456C69.4644 34.0785 68.8155 34.1957 68.1432 34.2817C67.4708 34.3677 67.0095 34.4616 66.517 34.5632C66.0636 34.6414 65.6271 34.7974 65.227 35.0245C64.8658 35.2316 64.5663 35.5311 64.3592 35.8923C64.1295 36.3303 64.0189 36.821 64.0386 37.3152C64.0253 37.7307 64.111 38.1434 64.2888 38.5192C64.4474 38.8273 64.6748 39.0948 64.9533 39.301C65.2474 39.5044 65.58 39.6454 65.9306 39.7154C66.3163 39.7954 66.7094 39.8347 67.1033 39.8326C67.7801 39.8467 68.4528 39.7244 69.0813 39.473Z" fill="#4D4D4D"/>
<path d="M77.6735 44.6253C77.2467 44.3324 76.8866 43.9525 76.6171 43.5105C76.3476 43.0686 76.1748 42.5745 76.1099 42.0609H77.6735C77.7293 42.4311 77.8765 42.7814 78.1017 43.0804C78.3269 43.3793 78.6232 43.6174 78.9635 43.7731C79.7669 44.1418 80.6443 44.3211 81.5279 44.2969C82.1183 44.3548 82.7144 44.2941 83.281 44.1182C83.8476 43.9423 84.3733 43.6548 84.8272 43.2727C85.1874 42.8874 85.4659 42.4332 85.646 41.9374C85.826 41.4416 85.9039 40.9145 85.8748 40.3878V38.1987H85.7966C85.3432 38.9187 84.734 39.5278 84.0141 39.9813C83.2254 40.4229 82.3294 40.6368 81.4263 40.5989C80.5833 40.6101 79.748 40.4367 78.9792 40.0907C78.2628 39.7645 77.6274 39.284 77.1185 38.6835C76.5835 38.0441 76.1797 37.3055 75.9301 36.51C75.6469 35.6097 75.507 34.6705 75.5157 33.7268C75.5012 32.7188 75.6626 31.7161 75.9926 30.7637C76.2778 29.9642 76.713 29.2265 77.2748 28.5902C77.797 28.0169 78.4371 27.5635 79.1512 27.2611C79.8721 26.9612 80.6454 26.8071 81.4263 26.8077C82.3516 26.7709 83.2683 26.9987 84.0688 27.4644C84.7697 27.9035 85.3607 28.4972 85.7966 29.2H85.8748V27.0657H87.501V40.3018C87.564 41.652 87.108 42.9751 86.2266 43.9998C85.6151 44.5813 84.889 45.0291 84.0949 45.3144C83.3007 45.5998 82.4557 45.7166 81.6139 45.6573C80.2343 45.7378 78.8649 45.3763 77.7048 44.6253H77.6735ZM84.921 37.6671C85.6982 36.4842 86.0813 35.0858 86.0155 33.672C86.0243 32.9157 85.9349 32.1615 85.7497 31.4282C85.5908 30.7982 85.3092 30.2058 84.921 29.6848C84.5514 29.2008 84.0716 28.8122 83.5215 28.5511C82.9081 28.2735 82.2401 28.1373 81.567 28.1524C80.952 28.1241 80.3395 28.2485 79.7843 28.5145C79.2291 28.7806 78.7483 29.1799 78.385 29.6769C77.5756 30.8642 77.1774 32.2839 77.2514 33.7189C77.2477 34.4517 77.337 35.1821 77.5172 35.8924C77.6708 36.511 77.9357 37.0965 78.299 37.6202C78.6477 38.1034 79.1058 38.4972 79.6359 38.7695C80.2241 39.0577 80.8731 39.1998 81.5279 39.1838C82.1724 39.2298 82.8182 39.1154 83.4076 38.8507C83.997 38.586 84.5116 38.1794 84.9054 37.6671" fill="#4D4D4D"/>
<path d="M93.2239 40.6301C92.4467 40.2854 91.7592 39.7664 91.2146 39.1134C90.6578 38.4375 90.2382 37.6593 89.9794 36.8227C89.6839 35.898 89.5388 34.9319 89.5494 33.9612C89.5423 32.989 89.6955 32.0222 90.0028 31.0998C90.2818 30.2654 90.7111 29.489 91.2694 28.8091C91.8043 28.1624 92.4776 27.6441 93.2395 27.2923C94.0529 26.9179 94.9399 26.7309 95.8352 26.7451C96.8013 26.7104 97.76 26.9258 98.6184 27.3705C99.3595 27.7716 99.9904 28.3489 100.456 29.0514C100.94 29.7826 101.28 30.6001 101.456 31.4594C101.655 32.3792 101.754 33.3174 101.754 34.2583H91.2537C91.2691 34.9919 91.3822 35.7202 91.5899 36.424C91.7763 37.0524 92.0727 37.6427 92.4655 38.1674C92.8497 38.6688 93.3483 39.0709 93.9197 39.3401C94.56 39.6401 95.2612 39.7873 95.9681 39.7701C96.9357 39.831 97.8915 39.5301 98.6497 38.9258C99.3058 38.3238 99.773 37.5443 99.9944 36.682H101.558C101.31 37.9468 100.657 39.0966 99.6974 39.9578C98.6353 40.8107 97.2973 41.2447 95.9368 41.1774C94.9933 41.195 94.0572 41.0083 93.1926 40.6301H93.2239ZM99.6974 31.0451C99.5348 30.4803 99.2698 29.9503 98.9155 29.4814C98.5728 29.0458 98.134 28.6953 97.6334 28.4572C97.0568 28.1969 96.4285 28.0712 95.7961 28.0898C95.1592 28.077 94.527 28.2023 93.9432 28.4572C93.4197 28.6978 92.9533 29.0469 92.575 29.4814C92.1863 29.9448 91.8843 30.4745 91.6837 31.0451C91.4559 31.6647 91.3087 32.3111 91.2459 32.9683H99.9788C99.9656 32.3226 99.8684 31.6813 99.6895 31.0607" fill="#4D4D4D"/>
<path d="M105.451 27.0657V29.2H105.545C106.016 28.4977 106.639 27.9099 107.367 27.48C108.215 27.0032 109.178 26.768 110.15 26.7999C111.295 26.7623 112.412 27.1588 113.277 27.91C113.702 28.3189 114.033 28.8153 114.246 29.3648C114.459 29.9143 114.55 30.5037 114.513 31.092V40.8647H112.863V31.2171C112.899 30.7951 112.842 30.3704 112.698 29.9722C112.553 29.5741 112.324 29.212 112.027 28.9108C111.372 28.3953 110.552 28.1368 109.72 28.1837C109.157 28.1784 108.598 28.2765 108.071 28.4729C107.574 28.65 107.113 28.9148 106.71 29.2548C106.314 29.6084 105.998 30.0422 105.782 30.5275C105.566 31.0127 105.456 31.5383 105.459 32.0693V40.8335H103.81V27.0657H105.451Z" fill="#4D4D4D"/>
<path d="M118.766 40.3643C118.508 40.1243 118.309 39.828 118.184 39.4985C118.059 39.169 118.012 38.8151 118.047 38.4645V28.4181H115.967V27.0656H118.054V22.8281H119.704V27.0656H122.261V28.4181H119.696V38.1986C119.676 38.3835 119.696 38.5704 119.754 38.7471C119.812 38.9237 119.907 39.0859 120.032 39.2228C120.322 39.4316 120.677 39.5313 121.033 39.5043C121.233 39.5036 121.433 39.48 121.627 39.4339C121.796 39.4014 121.961 39.3516 122.12 39.2854H122.206V40.7005C121.715 40.8649 121.199 40.9468 120.681 40.9428C119.995 40.9766 119.319 40.7722 118.766 40.3643Z" fill="#4D4D4D"/>
<path d="M127.147 40.6302C126.37 40.2815 125.681 39.7632 125.13 39.1135C124.566 38.4388 124.138 37.6608 123.871 36.8228C123.275 34.9617 123.275 32.9609 123.871 31.0999C124.138 30.2618 124.566 29.4838 125.13 28.8091C125.681 28.1594 126.37 27.6411 127.147 27.2924C127.991 26.9313 128.899 26.7451 129.817 26.7451C130.735 26.7451 131.643 26.9313 132.487 27.2924C133.253 27.6446 133.931 28.1627 134.473 28.8091C135.04 29.4803 135.466 30.2596 135.723 31.0999C136.297 32.9644 136.297 34.9582 135.723 36.8228C135.466 37.663 135.04 38.4423 134.473 39.1135C133.929 39.7608 133.248 40.279 132.479 40.6302C131.635 40.9913 130.727 41.1775 129.809 41.1775C128.891 41.1775 127.983 40.9913 127.139 40.6302H127.147ZM131.83 39.3402C132.41 39.0452 132.911 38.6164 133.292 38.0893C133.702 37.5315 134.007 36.9036 134.191 36.2364C134.577 34.7495 134.577 33.1888 134.191 31.7018C134.012 31.033 133.713 30.4025 133.308 29.8411C132.927 29.314 132.425 28.8852 131.846 28.5902C131.21 28.2917 130.516 28.137 129.813 28.137C129.11 28.137 128.416 28.2917 127.78 28.5902C127.203 28.8896 126.703 29.3176 126.318 29.8411C125.907 30.4002 125.605 31.0314 125.427 31.7018C125.031 33.1874 125.031 34.7508 125.427 36.2364C125.605 36.9069 125.907 37.538 126.318 38.0971C126.703 38.6207 127.203 39.0487 127.78 39.348C128.416 39.6465 129.11 39.8013 129.813 39.8013C130.516 39.8013 131.21 39.6465 131.846 39.348" fill="#4D4D4D"/>
<path d="M138.272 29.3485C138.039 29.3588 137.806 29.32 137.589 29.2344C137.371 29.1488 137.174 29.0185 137.011 28.8518C136.847 28.6852 136.72 28.486 136.639 28.2672C136.557 28.0483 136.522 27.8147 136.537 27.5816C136.523 27.3481 136.559 27.1144 136.641 26.8953C136.723 26.6762 136.85 26.4766 137.013 26.309C137.176 26.1414 137.372 26.0095 137.589 25.9218C137.806 25.834 138.038 25.7922 138.272 25.7991C138.506 25.7897 138.74 25.8298 138.957 25.9168C139.175 26.0038 139.372 26.1357 139.535 26.304C139.698 26.4722 139.824 26.673 139.904 26.8931C139.984 27.1133 140.017 27.3479 140 27.5816C140.013 27.8138 139.978 28.0461 139.896 28.2639C139.815 28.4816 139.688 28.6799 139.526 28.8462C139.363 29.0124 139.168 29.143 138.952 29.2295C138.736 29.3159 138.505 29.3565 138.272 29.3485ZM138.272 26.0023C138.069 25.9974 137.867 26.0351 137.679 26.113C137.492 26.1908 137.322 26.3072 137.183 26.4545C137.043 26.6019 136.935 26.7769 136.867 26.9683C136.799 27.1597 136.771 27.3633 136.787 27.566C136.787 27.9599 136.943 28.3378 137.222 28.6164C137.5 28.8949 137.878 29.0514 138.272 29.0514C138.666 29.0514 139.044 28.8949 139.323 28.6164C139.601 28.3378 139.758 27.9599 139.758 27.566C139.773 27.3633 139.746 27.1597 139.678 26.9683C139.609 26.7769 139.502 26.6019 139.362 26.4545C139.222 26.3072 139.053 26.1908 138.865 26.113C138.677 26.0351 138.475 25.9974 138.272 26.0023ZM138.78 28.5276L138.194 27.6832H138.006V28.4651H137.67V26.534H138.264C138.671 26.534 138.952 26.7372 138.952 27.1047C138.958 27.2267 138.921 27.347 138.849 27.4453C138.776 27.5435 138.672 27.6137 138.554 27.6442L139.117 28.426L138.78 28.5276ZM138.264 26.8545H138.006V27.4331H138.249C138.468 27.4331 138.608 27.3393 138.608 27.1438C138.608 26.9483 138.483 26.8545 138.264 26.8545Z" fill="#4D4D4D"/>
<path d="M43.7818 54.0617L42.9453 56.4072C42.9416 56.4272 42.9309 56.4452 42.9152 56.4581C42.8994 56.471 42.8796 56.4779 42.8593 56.4775H42.0775C42.0149 56.4775 41.9915 56.4463 42.0071 56.3837L44.5246 49.3474C44.5246 49.3005 44.5246 49.2535 44.5715 49.191C44.5809 49.087 44.5809 48.9823 44.5715 48.8783C44.5701 48.8697 44.5708 48.861 44.5735 48.8528C44.5762 48.8446 44.5807 48.8372 44.5868 48.8311C44.5929 48.825 44.6004 48.8204 44.6086 48.8178C44.6168 48.8151 44.6255 48.8144 44.634 48.8157H45.7598C45.7772 48.8156 45.794 48.8219 45.807 48.8335C45.82 48.845 45.8283 48.861 45.8302 48.8783L48.5431 56.3681C48.5431 56.4228 48.5431 56.4463 48.4962 56.4463H47.6909C47.6717 56.4469 47.6527 56.4422 47.6361 56.4325C47.6195 56.4228 47.606 56.4086 47.5971 56.3915L46.7606 54.0461L43.7818 54.0617ZM46.4478 53.1704C46.3853 52.9906 46.2993 52.7326 46.182 52.3886C46.0647 52.0446 45.9553 51.7319 45.8302 51.3879C45.7051 51.0439 45.5956 50.7077 45.4862 50.3794C45.3767 50.051 45.2986 49.793 45.2438 49.5975C45.1969 49.7774 45.1266 50.0119 45.0406 50.2855C44.9546 50.5592 44.8529 50.8484 44.7356 51.169L44.3916 52.1619C44.2744 52.5059 44.1571 52.8343 44.0555 53.147L46.4478 53.1704Z" fill="#4D4D4D"/>
<path d="M49.5671 52.1541C49.5671 52.0603 49.5671 51.943 49.5671 51.8258C49.5671 51.7085 49.5671 51.5834 49.5671 51.4661C49.5671 51.3488 49.5671 51.2394 49.5671 51.1456C49.5671 51.0518 49.5671 50.9658 49.5671 50.9267C49.5671 50.8876 49.5671 50.8563 49.6297 50.8563H50.349C50.371 50.8564 50.3925 50.8632 50.4107 50.8758C50.4288 50.8883 50.4427 50.9061 50.4506 50.9267C50.4591 51.002 50.4591 51.0781 50.4506 51.1534C50.4506 51.255 50.4506 51.3723 50.4506 51.4974C50.6755 51.2525 50.9484 51.0567 51.2525 50.9221C51.5565 50.7876 51.885 50.7173 52.2175 50.7156C52.4345 50.717 52.6503 50.7486 52.8586 50.8094C53.0827 50.873 53.2889 50.9881 53.4606 51.1456C53.6776 51.346 53.8438 51.5953 53.9453 51.8727C54.0754 52.2306 54.1365 52.61 54.1251 52.9907V56.4072C54.1251 56.4619 54.1251 56.4854 54.0391 56.4854H53.2573C53.2026 56.4854 53.1791 56.4854 53.1791 56.3916V53.061C53.1948 52.6852 53.0937 52.3138 52.8899 51.9978C52.7864 51.8598 52.6497 51.7501 52.4925 51.6791C52.3353 51.608 52.1627 51.5778 51.9908 51.5912C51.719 51.5911 51.4511 51.6554 51.209 51.7788C50.9636 51.9073 50.7458 52.0826 50.5679 52.2948V56.3838C50.5679 56.4385 50.5679 56.4619 50.4975 56.4619H49.6297C49.5828 56.4619 49.5671 56.4619 49.5671 56.3838V52.1541Z" fill="#4D4D4D"/>
<path d="M59.465 54.0618L58.6363 56.4072C58.6309 56.4279 58.6188 56.4461 58.6017 56.4589C58.5846 56.4717 58.5637 56.4783 58.5424 56.4776H57.7606C57.6981 56.4776 57.6824 56.4776 57.6981 56.3838L60.2077 49.3474C60.2077 49.3005 60.2077 49.2536 60.2546 49.1911C60.2651 49.0871 60.2651 48.9823 60.2546 48.8783C60.2546 48.8783 60.2546 48.8158 60.3093 48.8158H61.443C61.443 48.8158 61.4977 48.8158 61.5055 48.8783L64.2184 56.3682C64.2184 56.4229 64.2184 56.4463 64.1715 56.4463H63.3272C63.3079 56.447 63.2889 56.4422 63.2723 56.4326C63.2557 56.4229 63.2422 56.4087 63.2333 56.3916L62.3968 54.0462L59.465 54.0618ZM62.131 53.1705C62.0684 52.9907 61.9824 52.7327 61.8652 52.3887L61.5212 51.388C61.3961 51.0362 61.2788 50.7078 61.1693 50.3794C61.0599 50.0511 60.9817 49.7931 60.927 49.5976C60.8801 49.7774 60.8097 50.012 60.7237 50.2856C60.6377 50.5592 60.5361 50.8485 60.4266 51.1691C60.3172 51.4896 60.1921 51.818 60.0748 52.162C59.9575 52.506 59.8481 52.8343 59.7386 53.1471L62.131 53.1705Z" fill="#4D4D4D"/>
<path d="M67.6428 56.5635C67.2628 56.5655 66.885 56.5047 66.5248 56.3837C66.1808 56.2715 65.8665 56.0832 65.6052 55.8328C65.344 55.5824 65.1426 55.2763 65.0159 54.9373C64.8606 54.539 64.7862 54.1138 64.797 53.6864C64.7918 53.2849 64.8662 52.8863 65.0159 52.5137C65.1719 52.1636 65.395 51.8476 65.6726 51.5833C65.9599 51.3144 66.2973 51.1045 66.6655 50.9657C67.0754 50.8121 67.51 50.7352 67.9477 50.739C68.0831 50.7296 68.2189 50.7296 68.3543 50.739L68.6748 50.7859V48.2606C68.6735 48.2511 68.6744 48.2414 68.6775 48.2322C68.6806 48.2231 68.6857 48.2148 68.6925 48.208C68.6994 48.2012 68.7077 48.1961 68.7168 48.193C68.7259 48.1899 68.7356 48.189 68.7452 48.1903H69.5817C69.6286 48.1903 69.6521 48.1903 69.6521 48.245V55.7817C69.6446 55.878 69.6446 55.9747 69.6521 56.071C69.6529 56.0882 69.6479 56.1052 69.638 56.1194C69.6281 56.1335 69.6138 56.144 69.5973 56.1492C69.2839 56.2993 68.953 56.4096 68.6123 56.4775C68.2932 56.5412 67.9681 56.5701 67.6428 56.5635ZM68.6592 51.6693C68.5517 51.625 68.4385 51.5961 68.323 51.5833C68.1851 51.5708 68.0465 51.5708 67.9086 51.5833C67.6069 51.5797 67.3073 51.6327 67.0252 51.7397C66.7723 51.8359 66.543 51.9852 66.3528 52.1775C66.1663 52.3679 66.0201 52.5939 65.9228 52.8421C65.8248 53.1074 65.7746 53.388 65.7743 53.6708C65.7651 53.999 65.8209 54.3258 65.9384 54.6324C66.029 54.8685 66.1716 55.081 66.3557 55.2543C66.5398 55.4275 66.7606 55.557 67.0017 55.6332C67.2389 55.7111 67.487 55.7507 67.7366 55.7504C67.8954 55.7618 68.0548 55.7618 68.2135 55.7504C68.3677 55.7374 68.5185 55.6977 68.6592 55.6332V51.6693Z" fill="#4D4D4D"/>
<path d="M73.4907 50.739C73.8697 50.7313 74.2458 50.806 74.5931 50.9579C74.8926 51.1057 75.1586 51.3132 75.3749 51.5677C75.6077 51.8384 75.7856 52.1517 75.8987 52.4903C76.0261 52.8626 76.0895 53.2538 76.0863 53.6474C76.0927 54.0545 76.0265 54.4596 75.8909 54.8435C75.7739 55.1854 75.5876 55.4995 75.3436 55.7661C75.1159 56.0243 74.8325 56.2275 74.5149 56.3603C74.1917 56.4998 73.8426 56.569 73.4907 56.5635C73.0796 56.5741 72.6721 56.4856 72.3024 56.3055C71.9799 56.1487 71.6968 55.9216 71.4736 55.641C71.2582 55.3574 71.0966 55.0368 70.9967 54.695C70.894 54.3526 70.8413 53.9971 70.8403 53.6395C70.8377 53.2512 70.9012 52.8652 71.028 52.4981C71.1406 52.1553 71.3214 51.8388 71.5596 51.5677C71.7887 51.3018 72.0746 51.0908 72.3962 50.9501C72.7413 50.8008 73.1148 50.7288 73.4907 50.739ZM73.4907 51.5677C73.2583 51.5667 73.0286 51.6174 72.8183 51.7163C72.6169 51.8165 72.4405 51.9608 72.3024 52.1384C72.1532 52.3351 72.0418 52.5578 71.974 52.7952C71.8864 53.0652 71.8441 53.3479 71.8489 53.6317C71.834 53.9103 71.8603 54.1896 71.9271 54.4604C71.9965 54.702 72.1077 54.9295 72.2554 55.1328C72.3941 55.3241 72.5763 55.4795 72.7871 55.5863C72.9971 55.6762 73.2232 55.7225 73.4516 55.7225C73.6801 55.7225 73.9062 55.6762 74.1162 55.5863C74.3177 55.5001 74.4968 55.3691 74.64 55.2032C74.8006 55.0137 74.9252 54.7964 75.0074 54.5621C75.1076 54.2624 75.1552 53.9476 75.1482 53.6317C75.1467 53.3679 75.1125 53.1053 75.0465 52.8499C74.9878 52.6125 74.8872 52.3874 74.7494 52.1854C74.6048 51.9887 74.4149 51.8299 74.1957 51.7224C73.9766 51.6148 73.7347 51.5618 73.4907 51.5677Z" fill="#4D4D4D"/>
<path d="M78.1817 48.1903H78.2443C78.2443 48.1903 78.2443 48.1903 78.2443 48.2529V50.9579C78.6434 50.8049 79.0677 50.728 79.4952 50.7312C79.8672 50.7277 80.2363 50.7967 80.5819 50.9345C80.8942 51.0626 81.1764 51.2543 81.4106 51.4974C81.6404 51.7451 81.8208 52.0343 81.9422 52.3496C82.2089 53.1491 82.1784 54.0179 81.8562 54.7967C81.6872 55.1712 81.4423 55.5067 81.137 55.7817C80.8398 56.0478 80.4912 56.25 80.1128 56.3759C79.7417 56.4974 79.354 56.5607 78.9635 56.5636C78.7032 56.5822 78.442 56.5822 78.1817 56.5636C77.9153 56.5322 77.6532 56.4719 77.3999 56.3837C77.353 56.3837 77.3295 56.3837 77.3295 56.2821V48.2607C77.3295 48.2138 77.3295 48.1903 77.4155 48.1903H78.1817ZM81.1604 53.5223C81.1862 53.0059 81.0127 52.4993 80.6757 52.1072C80.5073 51.9306 80.3028 51.7923 80.0762 51.7019C79.8495 51.6115 79.606 51.5711 79.3622 51.5834C79.1528 51.5804 78.9435 51.5961 78.7368 51.6303C78.5738 51.6657 78.4142 51.7154 78.2599 51.7788V55.6879C78.3733 55.7279 78.4917 55.7515 78.6117 55.7583C78.7497 55.7669 78.8881 55.7669 79.0261 55.7583C79.2923 55.7587 79.5567 55.7137 79.8079 55.6254C80.0599 55.5338 80.2911 55.393 80.4881 55.211C80.6963 55.014 80.8591 54.7738 80.965 54.5074C81.107 54.1979 81.1842 53.8627 81.1917 53.5223H81.1604Z" fill="#4D4D4D"/>
<path d="M84.0375 53.7724C84.0339 54.0377 84.0735 54.3018 84.1548 54.5543C84.2291 54.7858 84.3517 54.999 84.5144 55.1797C84.6839 55.3584 84.889 55.4996 85.1165 55.5941C85.388 55.6992 85.6776 55.7497 85.9686 55.7426C86.2314 55.7471 86.4938 55.7208 86.7504 55.6644C86.992 55.6182 87.2261 55.5393 87.4463 55.4299C87.4463 55.4299 87.5088 55.4299 87.5088 55.4768V56.1335C87.5105 56.157 87.5055 56.1804 87.4944 56.2012C87.4833 56.2219 87.4666 56.2391 87.4463 56.2508C87.2273 56.3585 86.9964 56.4399 86.7583 56.4932C86.4503 56.5614 86.1354 56.5928 85.8201 56.587C85.3845 56.599 84.9518 56.5135 84.5535 56.3368C84.2267 56.1871 83.94 55.962 83.717 55.6801C83.5038 55.4061 83.347 55.0925 83.2557 54.7575C83.159 54.4167 83.109 54.0642 83.1072 53.7099C83.1065 53.3223 83.1672 52.9371 83.287 52.5684C83.3917 52.224 83.5616 51.9029 83.7874 51.6224C84.0005 51.3566 84.2668 51.1383 84.5692 50.9813C84.9058 50.8207 85.2751 50.7404 85.6481 50.7468C86.0105 50.7369 86.3698 50.8147 86.6957 50.9735C86.9635 51.1085 87.1983 51.3007 87.3837 51.5364C87.566 51.7676 87.699 52.0337 87.7746 52.3183C87.8501 52.5721 87.8896 52.8353 87.8919 53.1001C87.8919 53.2408 87.8919 53.3659 87.8919 53.4675C87.9004 53.5429 87.9004 53.6189 87.8919 53.6943C87.8919 53.7412 87.8919 53.7646 87.8137 53.7646C87.6584 53.7878 87.5017 53.8009 87.3446 53.8037H84.1079L84.0375 53.7724ZM86.1954 53.061H86.7817H86.9537C86.9582 53.0404 86.9582 53.019 86.9537 52.9984V52.9281C86.9506 52.7987 86.9322 52.6701 86.899 52.545C86.858 52.3818 86.7863 52.228 86.6879 52.0915C86.5741 51.939 86.4305 51.8114 86.2657 51.7163C86.0605 51.6025 85.8277 51.5483 85.5934 51.5599C85.3781 51.5543 85.1644 51.597 84.9679 51.685C84.7911 51.765 84.6338 51.8824 84.5066 52.029C84.3774 52.1715 84.2742 52.3355 84.2017 52.5137C84.132 52.6976 84.0847 52.8892 84.061 53.0844L86.1954 53.061Z" fill="#4D4D4D"/>
<path d="M96.8672 56.2431C96.8672 56.3134 96.8672 56.3525 96.8125 56.3603C96.6072 56.4593 96.3886 56.5277 96.1636 56.5636C95.8729 56.5965 95.5805 56.6122 95.288 56.6105C94.8054 56.6084 94.3259 56.5347 93.8651 56.3916C93.4041 56.2495 92.978 56.0125 92.6142 55.6958C92.2324 55.3602 91.9306 54.9435 91.7307 54.4762C91.488 53.903 91.3707 53.2846 91.3867 52.6623C91.3823 52.1274 91.4805 51.5966 91.676 51.0987C91.8572 50.6296 92.1375 50.2052 92.4978 49.8544C92.858 49.5036 93.2897 49.2347 93.7634 49.066C94.2789 48.8616 94.8273 48.7529 95.3818 48.7454C95.6955 48.7393 96.0091 48.7576 96.32 48.8002C96.5054 48.8262 96.6868 48.8761 96.8594 48.9487C96.8779 48.9557 96.8935 48.9688 96.9035 48.9859C96.9134 49.003 96.9172 49.023 96.9141 49.0425V49.8243C96.9141 49.8791 96.9141 49.8947 96.836 49.8791C96.3706 49.6773 95.8648 49.5863 95.3583 49.6132C94.9338 49.6067 94.512 49.681 94.1152 49.8322C93.7582 49.9676 93.4314 50.1721 93.1536 50.4342C92.8812 50.7037 92.6705 51.0291 92.536 51.388C92.3815 51.7867 92.3046 52.2113 92.3092 52.6389C92.2914 53.1563 92.3959 53.6705 92.6142 54.14C92.7816 54.4937 93.0245 54.8064 93.3257 55.0563C93.6268 55.3061 93.9791 55.4871 94.3576 55.5863C94.6757 55.6775 95.0041 55.7274 95.3349 55.7349C95.5962 55.737 95.8575 55.7213 96.1167 55.688C96.3447 55.6638 96.5683 55.6086 96.7812 55.5238C96.8281 55.5238 96.8438 55.5238 96.8438 55.5707L96.8672 56.2431Z" fill="#4D4D4D"/>
<path d="M100.26 50.739C100.639 50.7314 101.015 50.8061 101.363 50.958C101.662 51.1058 101.928 51.3133 102.144 51.5678C102.377 51.8384 102.555 52.1517 102.668 52.4903C102.796 52.8627 102.859 53.2539 102.856 53.6474C102.862 54.0546 102.796 54.4596 102.66 54.8436C102.543 55.1855 102.357 55.4995 102.113 55.7661C101.885 56.0243 101.602 56.2275 101.284 56.3603C100.95 56.5107 100.587 56.5855 100.221 56.5792C99.81 56.5907 99.4022 56.5021 99.0328 56.3212C98.7104 56.1644 98.4272 55.9373 98.2041 55.6567C97.9887 55.3731 97.8271 55.0525 97.7272 54.7107C97.6244 54.3682 97.5718 54.0127 97.5708 53.6552C97.5682 53.2669 97.6316 52.8809 97.7585 52.5138C97.8716 52.1728 98.0494 51.8569 98.2823 51.5834C98.5148 51.3212 98.7998 51.1108 99.1188 50.9658C99.4777 50.8063 99.8677 50.7289 100.26 50.739ZM100.213 51.5678C99.9836 51.5679 99.7567 51.6186 99.5488 51.7163C99.3473 51.8166 99.171 51.9609 99.0328 52.1385C98.884 52.3366 98.7703 52.5587 98.6966 52.7952C98.5404 53.3393 98.5404 53.9164 98.6966 54.4605C98.7661 54.702 98.8772 54.9296 99.025 55.1329C99.1636 55.3241 99.3459 55.4796 99.5566 55.5863C99.7666 55.6762 99.9927 55.7226 100.221 55.7226C100.45 55.7226 100.676 55.6762 100.886 55.5863C101.087 55.5002 101.266 55.3692 101.41 55.2032C101.57 55.0138 101.695 54.7965 101.777 54.5621C101.874 54.2619 101.919 53.9472 101.91 53.6318C101.911 53.3683 101.879 53.1057 101.816 52.85C101.757 52.6125 101.657 52.3875 101.519 52.1854C101.374 51.9748 101.179 51.8042 100.95 51.6894C100.722 51.5746 100.469 51.5193 100.213 51.5287V51.5678Z" fill="#4D4D4D"/>
<path d="M104.162 56.462C104.115 56.462 104.091 56.462 104.091 56.3838V52.0682C104.091 51.8102 104.091 51.5835 104.091 51.388C104.091 51.1925 104.091 51.0284 104.091 50.9267C104.091 50.8251 104.091 50.8564 104.154 50.8564H104.881C104.9 50.8557 104.919 50.8605 104.936 50.8701C104.952 50.8798 104.966 50.894 104.975 50.9111C104.995 50.9958 105.008 51.0821 105.014 51.1691C105.014 51.2707 105.014 51.3724 105.014 51.4662C105.472 51.0062 106.092 50.7451 106.742 50.7391C107.056 50.714 107.371 50.7803 107.648 50.9301C107.926 51.0799 108.154 51.3068 108.305 51.5835C108.551 51.3434 108.83 51.1406 109.134 50.9815C109.473 50.8109 109.849 50.7276 110.228 50.7391C110.451 50.7391 110.672 50.7707 110.885 50.8329C111.107 50.9044 111.31 51.0246 111.479 51.1847C111.675 51.3737 111.827 51.6032 111.925 51.8571C112.051 52.2051 112.109 52.5739 112.097 52.9438V56.3916C112.097 56.4385 112.097 56.462 112.019 56.462H111.237C111.182 56.462 111.159 56.462 111.159 56.3838V53.0142C111.169 52.6573 111.07 52.3059 110.877 52.0056C110.775 51.8662 110.638 51.7551 110.481 51.6826C110.324 51.6101 110.151 51.5787 109.978 51.5913C109.707 51.5899 109.44 51.6515 109.196 51.7711C108.957 51.8914 108.744 52.0589 108.571 52.2636C108.571 52.334 108.571 52.4356 108.571 52.5764C108.571 52.7171 108.571 52.8656 108.571 52.9985V56.3838C108.571 56.4385 108.571 56.462 108.493 56.462H107.711C107.7 56.4632 107.69 56.4621 107.68 56.4586C107.67 56.4551 107.66 56.4494 107.653 56.4419C107.645 56.4343 107.64 56.4252 107.636 56.4152C107.633 56.4051 107.632 56.3944 107.633 56.3838V52.9751C107.655 52.6121 107.55 52.2526 107.336 51.9587C107.232 51.8352 107.101 51.7376 106.953 51.6738C106.805 51.61 106.644 51.5817 106.484 51.5913C106.23 51.5886 105.979 51.642 105.749 51.7476C105.499 51.8698 105.274 52.0368 105.084 52.2402V56.3916C105.085 56.4012 105.084 56.4109 105.081 56.42C105.078 56.4291 105.073 56.4374 105.066 56.4442C105.06 56.451 105.051 56.4562 105.042 56.4593C105.033 56.4623 105.023 56.4633 105.014 56.462H104.162Z" fill="#4D4D4D"/>
<path d="M115.842 50.739C116.23 50.7328 116.616 50.8046 116.976 50.9501C117.297 51.077 117.588 51.2716 117.828 51.5209C118.061 51.7689 118.242 52.0614 118.359 52.3809C118.48 52.7278 118.541 53.0926 118.539 53.4598C118.551 53.9338 118.455 54.4044 118.258 54.8358C118.073 55.2155 117.806 55.5493 117.476 55.813C117.162 56.0705 116.801 56.2644 116.413 56.3838C116.025 56.5144 115.618 56.5804 115.209 56.5792L114.927 56.5636H114.669V58.8699C114.67 58.8792 114.67 58.8886 114.667 58.8975C114.664 58.9065 114.66 58.9148 114.654 58.9221C114.648 58.9294 114.641 58.9354 114.633 58.9399C114.625 58.9443 114.616 58.9471 114.607 58.9481H114.372H114.106H113.88H113.77C113.731 58.9481 113.708 58.9481 113.708 58.8778V51.5209C113.708 51.4114 113.708 51.3254 113.708 51.2472C113.703 51.2401 113.701 51.232 113.701 51.2238C113.701 51.2155 113.703 51.2074 113.708 51.2003C113.911 51.1221 114.192 51.0283 114.568 50.911C114.981 50.7896 115.411 50.7316 115.842 50.739ZM115.709 51.5834C115.52 51.582 115.332 51.5977 115.146 51.6303C114.973 51.658 114.803 51.7025 114.638 51.7632V55.6723C114.742 55.7032 114.85 55.7215 114.958 55.727H115.295C115.56 55.7237 115.823 55.6815 116.076 55.6019C116.339 55.512 116.583 55.3741 116.796 55.1954C117.015 55.0029 117.191 54.7657 117.312 54.4996C117.446 54.1861 117.513 53.8477 117.507 53.5067C117.532 52.9918 117.362 52.4865 117.03 52.0916C116.858 51.9192 116.651 51.7849 116.424 51.6974C116.196 51.6098 115.953 51.571 115.709 51.5834Z" fill="#4D4D4D"/>
<path d="M123.707 55.4847V55.7818C123.699 55.8702 123.699 55.9592 123.707 56.0476C123.711 56.0547 123.713 56.0628 123.713 56.0711C123.713 56.0793 123.711 56.0874 123.707 56.0945C123.349 56.2786 122.968 56.4128 122.573 56.4932C122.236 56.5618 121.893 56.5959 121.549 56.5949C121.261 56.597 120.974 56.5575 120.697 56.4776C120.45 56.4077 120.219 56.2909 120.017 56.1336C119.825 55.9848 119.672 55.7916 119.571 55.5707C119.459 55.3256 119.403 55.0585 119.407 54.7889C119.398 54.5142 119.469 54.2427 119.61 54.0071C119.747 53.7842 119.935 53.5967 120.157 53.4598C120.397 53.306 120.662 53.1949 120.939 53.1314C121.271 53.0643 121.609 53.0303 121.948 53.0298H122.464H122.745V52.7562C122.742 52.6427 122.727 52.5299 122.698 52.42C122.665 52.2824 122.601 52.1542 122.511 52.0447C122.407 51.9113 122.273 51.8041 122.12 51.732C121.906 51.6373 121.673 51.5919 121.44 51.5991C121.176 51.5986 120.914 51.6301 120.658 51.6929C120.425 51.7502 120.199 51.8342 119.985 51.9431C119.931 51.9431 119.899 51.9431 119.899 51.8883V51.1847C119.9 51.1649 119.907 51.1456 119.918 51.1291C119.929 51.1126 119.944 51.0994 119.962 51.0909C120.211 50.9748 120.474 50.8907 120.744 50.8407C121.034 50.7774 121.33 50.7459 121.627 50.7469C121.954 50.7372 122.279 50.7958 122.581 50.9189C122.831 51.0233 123.053 51.1838 123.23 51.388C123.399 51.589 123.524 51.8234 123.597 52.076C123.677 52.3476 123.717 52.6294 123.715 52.9125L123.707 55.4847ZM122.745 53.7882C122.642 53.7688 122.537 53.7558 122.432 53.7491H121.979C121.545 53.7201 121.112 53.8121 120.728 54.0149C120.597 54.097 120.49 54.2129 120.418 54.3503C120.347 54.4878 120.313 54.642 120.322 54.7967C120.321 54.9276 120.345 55.0575 120.392 55.1798C120.44 55.3079 120.521 55.4211 120.626 55.5081C120.752 55.6129 120.899 55.6902 121.056 55.7349C121.264 55.8 121.481 55.8291 121.698 55.8209C122.056 55.8263 122.413 55.7598 122.745 55.6254V53.7882Z" fill="#4D4D4D"/>
<path d="M125.325 52.1541C125.325 52.0603 125.325 51.943 125.325 51.8258C125.325 51.7085 125.325 51.5834 125.325 51.4661C125.325 51.3488 125.325 51.2394 125.325 51.1456C125.332 51.0727 125.332 50.9995 125.325 50.9267C125.324 50.9171 125.325 50.9074 125.328 50.8983C125.331 50.8892 125.336 50.8809 125.343 50.8741C125.35 50.8672 125.358 50.8621 125.367 50.859C125.376 50.8559 125.386 50.855 125.396 50.8563H126.107C126.13 50.8559 126.153 50.8624 126.173 50.8749C126.192 50.8874 126.207 50.9054 126.217 50.9267C126.224 51.002 126.224 51.078 126.217 51.1534C126.217 51.255 126.217 51.3723 126.256 51.4974C126.48 51.2535 126.751 51.0582 127.054 50.9237C127.357 50.7892 127.684 50.7184 128.015 50.7156C128.232 50.717 128.448 50.7486 128.656 50.8094C128.882 50.8742 129.09 50.9891 129.266 51.1456C129.466 51.3357 129.621 51.5681 129.719 51.8258C129.849 52.1837 129.91 52.5631 129.899 52.9438V56.3603C129.899 56.415 129.899 56.4385 129.821 56.4385H129.039C128.984 56.4385 128.961 56.4385 128.961 56.3447V53.061C128.98 52.6848 128.879 52.3123 128.672 51.9978C128.568 51.8598 128.431 51.7501 128.274 51.6791C128.117 51.608 127.944 51.5778 127.772 51.5912C127.501 51.592 127.233 51.6562 126.991 51.7788C126.745 51.9073 126.527 52.0826 126.35 52.2948V56.3837C126.35 56.4385 126.35 56.4619 126.287 56.4619H125.466C125.419 56.4619 125.396 56.4619 125.396 56.3837L125.325 52.1541Z" fill="#4D4D4D"/>
<path d="M131.627 50.8563C131.644 50.8555 131.661 50.8605 131.675 50.8704C131.689 50.8803 131.7 50.8946 131.705 50.9111C131.947 51.5521 132.151 52.1151 132.338 52.5998C132.526 53.0845 132.674 53.4989 132.8 53.8507C132.925 54.2025 133.042 54.4996 133.12 54.7341L133.3 55.2814C133.48 54.7576 133.699 54.14 133.949 53.4441C134.199 52.7483 134.504 51.8805 134.856 50.9111C134.865 50.894 134.878 50.8798 134.895 50.8701C134.911 50.8604 134.93 50.8556 134.95 50.8563H135.731C135.786 50.8563 135.802 50.8563 135.778 50.9345C135.559 51.56 135.325 52.2089 135.075 52.8812C134.824 53.5536 134.566 54.226 134.293 54.914C134.019 55.602 133.746 56.2665 133.464 56.9389C133.183 57.6112 132.909 58.2445 132.628 58.8621C132.616 58.8855 132.598 58.9051 132.576 58.9189C132.554 58.9327 132.528 58.9401 132.502 58.9403L131.635 59.0107C131.588 59.0107 131.58 59.0107 131.635 58.9169L132.19 57.7285C132.388 57.2855 132.583 56.832 132.776 56.3681C132.788 56.3451 132.794 56.3197 132.794 56.2939C132.794 56.2681 132.788 56.2426 132.776 56.2196L132.565 55.7114L132.252 54.9296L131.861 53.9758C131.728 53.6396 131.588 53.2878 131.439 52.936C131.291 52.5841 131.158 52.2323 131.025 51.8883L130.642 50.9189C130.642 50.872 130.642 50.8485 130.696 50.8485L131.627 50.8563Z" fill="#4D4D4D"/>
</g>
<defs>
<clipPath id="clip0">
<rect y="12" width="140" height="47.0107" fill="white"/>
</clipPath>
</defs>
</svg>
