<svg width="140" height="72" viewBox="0 0 140 72" fill="none" xmlns="http://www.w3.org/2000/svg">
<path d="M26.7968 28.9206V14.1199C26.7968 13.5715 26.8513 13.2426 27.7802 13.2426H40.2858C42.4706 13.2426 43.672 15.1067 44.5461 18.6148L45.256 21.411H47.3856C47.7675 13.4627 48.0948 10.009 48.0948 10.009C48.0948 10.009 42.7432 10.6118 39.5756 10.6118H23.5754L15 10.3376V12.6401L17.895 13.1882C19.9156 13.5722 20.4062 14.0102 20.5713 15.8746C20.5713 15.8746 20.7355 21.3563 20.7355 30.4017C20.7355 39.4458 20.5713 44.8734 20.5713 44.8734C20.5713 46.5177 19.9156 47.1205 17.895 47.5054L15 48.0539V50.355L23.5754 50.0815H37.8836C41.1057 50.0815 48.5874 50.355 48.5874 50.355C48.7505 48.3812 49.8436 39.4458 50.0074 38.4604H47.9868L45.8568 43.3392C44.1636 47.1755 41.7066 47.4501 38.9754 47.4501H30.8377C28.1069 47.4501 26.7961 46.3536 26.7961 43.9967V31.4979C26.7961 31.4979 32.7487 31.4979 34.8235 31.6627C36.3529 31.7728 37.2808 32.2111 37.773 34.3488L38.4287 37.1994H40.7757L40.6125 30.0174L40.9399 22.7821H38.5922L37.8282 25.9612C37.336 28.0442 37.0089 28.4288 34.8786 28.6473C32.4761 28.9222 26.7958 28.8672 26.7958 28.8672V28.9215H26.7968V28.9206ZM59.1814 15.6551C58.4167 19.0538 57.652 21.6849 54.976 23.4392C53.3378 24.5351 51.6991 24.9184 51.0447 24.9735V27.0564H55.9048V43.8853C55.9048 48.6003 59.0182 50.9031 63.1682 50.9031C66.3905 50.9031 69.7213 49.5327 70.8685 46.6815L69.7213 45.2013C69.1749 46.1337 67.4284 47.5038 65.2436 47.5038C62.8411 47.5038 61.5304 45.8589 61.5304 41.6936V26.8382L69.6136 27.4417L70.0499 23.7131L61.5307 24.0424V15.7095L59.1814 15.6551ZM76.4392 41.5405L74.3641 41.5952C74.4731 42.8009 74.5282 44.3364 74.5282 45.7615C74.5282 47.2417 74.4737 48.6121 74.3641 49.2696C74.3641 49.2696 78.5147 50.8032 82.7198 50.8032C88.3995 50.8032 92.9326 48.0623 92.9326 42.6901C92.9326 33.4819 79.1704 34.8526 79.1704 28.6571C79.1704 26.0811 81.4638 25.094 83.976 25.094C85.9421 25.094 87.5803 25.8065 87.9079 26.849L89.2735 30.9602L91.2945 30.8508C91.4586 28.6578 91.5673 26.1361 91.8953 24.1082C90.1472 23.3406 86.4879 22.9012 84.196 22.9012C78.8427 22.9012 74.5292 25.2588 74.5292 30.5215C74.5292 39.6757 87.9631 37.8119 87.9631 44.5555C87.9631 46.9665 86.4878 48.6661 83.1574 48.6661C80.0999 48.6661 78.5701 47.0769 77.9706 45.4863L76.4392 41.5405ZM109.355 47.8735C106.193 56.7385 102.323 59.0351 98.8345 59.0351C97.3619 59.0351 96.654 58.3779 96.435 57.34L95.6174 53.0708L93.3274 53.1802C92.8914 55.6976 92.4553 58.4893 91.8564 60.7868C93.2194 61.8251 95.5077 62.3735 97.3074 62.3735C101.07 62.3735 106.793 61.8801 112.025 49.4051L120.802 28.6128C121.512 26.9161 121.783 26.7519 123.855 25.9306L125 25.4939V23.5786L119.821 23.8522L114.261 23.5786V25.4939L115.677 25.9306C117.094 26.3693 117.749 26.9161 117.749 27.9012C117.749 28.3933 117.585 28.886 117.312 29.6514C116.494 31.7321 111.425 44.0977 110.063 46.7248L111.424 46.2314C109.025 40.2675 105.375 30.3079 104.829 28.6131C104.72 28.2845 104.665 28.011 104.665 27.7361C104.665 26.861 105.265 26.1495 106.573 25.8762L108.373 25.4942V23.579L100.904 23.8525L94.962 23.579V25.4942L95.9434 25.8222C97.3061 26.2599 97.6334 26.6432 98.451 28.5581C102.974 38.955 105.101 44.6448 107.989 52.0873L109.355 47.8735Z" fill="#F27224"/>
</svg>
