<svg width="40" height="32" viewBox="0 0 40 32" fill="none" xmlns="http://www.w3.org/2000/svg">
<rect x="0.5" y="0.5" width="39" height="31" fill="#3B5863" stroke="black"/>
<rect x="0.5" y="0.5" width="39" height="6" fill="#112229" stroke="black"/>
<circle cx="3.5" cy="3.5" r="1.5" fill="#35D4B4"/>
<path d="M13 14.5703C13.1042 14.5182 13.1901 14.4922 13.2578 14.4922C13.362 14.4922 13.4609 14.5391 13.5547 14.6328C13.6484 14.7266 13.75 14.8828 13.8594 15.1016C13.9948 15.3724 14.0625 15.5885 14.0625 15.75C14.0625 15.9271 13.9688 16.0651 13.7812 16.1641L9.21094 18.4453L13.7812 20.7266C13.9688 20.8255 14.0625 20.9635 14.0625 21.1406C14.0625 21.3021 13.9948 21.5182 13.8594 21.7891C13.75 22.0078 13.6484 22.1641 13.5547 22.2578C13.4609 22.3516 13.362 22.3984 13.2578 22.3984C13.1901 22.3984 13.1042 22.3724 13 22.3203L6.90625 19.1797C6.77604 19.112 6.68229 19.026 6.625 18.9219C6.57292 18.8177 6.54688 18.6589 6.54688 18.4453C6.54688 18.2318 6.57292 18.0729 6.625 17.9688C6.68229 17.8646 6.77604 17.7786 6.90625 17.7109L13 14.5703ZM22.3203 12.0703C22.6693 12.0703 22.9609 12.1276 23.1953 12.2422C23.4349 12.3568 23.5547 12.5026 23.5547 12.6797C23.5547 12.737 23.5443 12.7891 23.5234 12.8359L18.3203 25.4766C18.2266 25.7005 18.013 25.8125 17.6797 25.8125C17.3307 25.8125 17.0365 25.7552 16.7969 25.6406C16.5625 25.526 16.4453 25.3802 16.4453 25.2031C16.4453 25.1458 16.4557 25.0938 16.4766 25.0469L21.6797 12.4062C21.7734 12.1823 21.987 12.0703 22.3203 12.0703ZM33.0938 17.7109C33.224 17.7786 33.3151 17.8646 33.3672 17.9688C33.4245 18.0729 33.4531 18.2318 33.4531 18.4453C33.4531 18.6589 33.4245 18.8177 33.3672 18.9219C33.3151 19.026 33.224 19.112 33.0938 19.1797L27 22.3203C26.8958 22.3724 26.8099 22.3984 26.7422 22.3984C26.638 22.3984 26.5391 22.3516 26.4453 22.2578C26.3516 22.1641 26.25 22.0078 26.1406 21.7891C26.0052 21.5182 25.9375 21.3021 25.9375 21.1406C25.9375 20.9635 26.0312 20.8255 26.2188 20.7266L30.7891 18.4453L26.2188 16.1641C26.0312 16.0651 25.9375 15.9271 25.9375 15.75C25.9375 15.5885 26.0052 15.3724 26.1406 15.1016C26.25 14.8828 26.3516 14.7266 26.4453 14.6328C26.5391 14.5391 26.638 14.4922 26.7422 14.4922C26.8099 14.4922 26.8958 14.5182 27 14.5703L33.0938 17.7109Z" fill="#B3EFE3"/>
</svg>
