<?xml version="1.0" encoding="UTF-8"?>
<svg id="Layer_1" data-name="Layer 1" xmlns="http://www.w3.org/2000/svg" viewBox="0 0 260 160">
  <defs>
    <style>
      .cls-1 {
        fill: #fff;
      }

      .cls-2 {
        fill: #172537;
      }

      .cls-3 {
        fill: #3bb900;
      }
    </style>
  </defs>
  <rect class="cls-2" width="260" height="160"/>
  <g>
    <path class="cls-3" d="M54.77,70.42l-30.01,30.37c-1.06,1.08-2.85,.21-2.72-1.33l1.63-18.12c.06-.72,.57-1.33,1.25-1.52l9.38-2.58c1.75-.48,2.77-2.37,2.24-4.15-.51-1.7-2.29-2.66-3.98-2.2-1.69,.46-9.28,2.55-9.28,2.55-.68,.19-1.42-.09-1.82-.68l-10.26-14.86c-.87-1.24,.26-2.94,1.71-2.55l40.79,10.9c1.82,.49,2.42,2.8,1.08,4.15Z"/>
    <path class="cls-1" d="M81.95,93.56v-14.82c0-.63-.04-1.29-.12-1.97-.08-.7-.26-1.34-.54-1.92-.28-.58-.71-1.05-1.29-1.41-.57-.37-1.35-.56-2.36-.56s-1.8,.2-2.48,.61c-.67,.39-1.22,.92-1.66,1.58-.42,.65-.73,1.4-.92,2.24-.19,.83-.29,1.68-.29,2.56l-2.14-1.44c0-2.13,.4-4.02,1.19-5.7,.79-1.67,1.92-2.99,3.38-3.97,1.48-.99,3.22-1.48,5.23-1.48s3.72,.44,4.94,1.31c1.22,.86,2.08,2.03,2.6,3.5,.54,1.48,.8,3.13,.8,4.96v16.5h-6.35Zm-16.06,0v-25.85h6.4v25.85h-6.4Zm32.03,0v-14.87c0-.68-.04-1.36-.12-2.04-.08-.7-.26-1.32-.54-1.87-.28-.57-.71-1.02-1.29-1.36-.58-.36-1.38-.54-2.39-.54s-1.83,.19-2.51,.58c-.67,.39-1.2,.91-1.61,1.56-.41,.65-.71,1.38-.9,2.19-.18,.81-.27,1.62-.27,2.43l-2.14-1.41c0-2.06,.39-3.92,1.17-5.57,.78-1.66,1.9-2.96,3.36-3.92,1.46-.97,3.2-1.46,5.21-1.46s3.66,.41,4.89,1.24c1.23,.83,2.13,1.96,2.68,3.41,.57,1.43,.85,3.06,.85,4.89v16.74h-6.4Z"/>
    <path class="cls-1" d="M119.33,94.1c-1.93,0-3.63-.3-5.09-.9-1.46-.62-2.6-1.5-3.43-2.65-.83-1.15-1.24-2.54-1.24-4.16,0-1.77,.48-3.22,1.44-4.36,.97-1.15,2.28-2.04,3.92-2.65,1.64-.63,3.46-1.04,5.45-1.22,2.95-.29,5.01-.57,6.18-.83,1.18-.28,1.78-.71,1.78-1.31v-.05c0-1.14-.51-2.01-1.53-2.63-1.02-.62-2.47-.92-4.33-.92-1.96,0-3.47,.35-4.53,1.05-1.04,.68-1.56,1.77-1.56,3.26h-6.33c0-2.03,.54-3.74,1.61-5.14,1.09-1.41,2.57-2.48,4.45-3.21,1.88-.73,4.02-1.1,6.4-1.1,2.22,0,4.26,.33,6.11,1,1.85,.67,3.33,1.67,4.45,3.02,1.12,1.35,1.68,3.03,1.68,5.04v11.78c0,.62,.02,1.23,.05,1.83,.05,.58,.14,1.11,.27,1.58,.16,.52,.36,.96,.58,1.31,.23,.36,.41,.6,.54,.73h-6.33c-.11-.11-.28-.33-.49-.66-.19-.34-.37-.73-.54-1.17-.16-.49-.28-1.01-.37-1.56-.08-.57-.12-1.19-.12-1.87l1.27,.88c-.49,.99-1.23,1.86-2.24,2.6-.99,.73-2.17,1.3-3.55,1.7-1.38,.41-2.88,.61-4.5,.61Zm1.56-5.04c1.33,0,2.56-.23,3.7-.68,1.14-.45,2.05-1.15,2.75-2.09,.7-.96,1.05-2.18,1.05-3.68v-3.46l1.56,1.75c-1.04,.39-2.29,.71-3.75,.97-1.46,.24-2.94,.44-4.43,.58-1.91,.18-3.36,.51-4.33,1-.96,.49-1.44,1.28-1.44,2.39s.41,1.87,1.22,2.41c.81,.54,2.04,.8,3.68,.8Z"/>
    <path class="cls-1" d="M143.09,82.71v-4.55h18.08l-.73,1.22v-.63c0-1.12-.25-2.17-.75-3.14-.5-.99-1.27-1.78-2.29-2.39-1.02-.62-2.32-.92-3.89-.92s-2.91,.33-4.06,1c-1.14,.65-2.02,1.59-2.65,2.82-.62,1.23-.92,2.71-.92,4.43s.3,3.29,.9,4.58c.6,1.27,1.48,2.24,2.63,2.92,1.17,.67,2.59,1,4.26,1,1.14,0,2.12-.11,2.95-.32,.83-.21,1.5-.49,2.02-.85,.54-.37,.93-.77,1.19-1.19,.28-.42,.44-.84,.49-1.27h6.38c-.1,1.09-.46,2.15-1.1,3.19-.62,1.02-1.48,1.96-2.6,2.8-1.12,.83-2.48,1.49-4.09,2-1.59,.49-3.41,.73-5.45,.73-2.77,0-5.2-.57-7.28-1.7-2.08-1.14-3.7-2.72-4.87-4.75-1.15-2.03-1.73-4.35-1.73-6.96s.58-5.02,1.75-7.03c1.18-2.01,2.82-3.58,4.92-4.7,2.09-1.14,4.49-1.7,7.2-1.7s5.2,.57,7.23,1.7c2.04,1.14,3.62,2.72,4.72,4.75,1.1,2.01,1.66,4.36,1.66,7.03,0,.34,0,.71-.02,1.1-.02,.39-.04,.67-.07,.85h-23.85Z"/>
    <path class="cls-1" d="M172.32,93.56v-25.85h6.4v8.59l-1.48-.83c.16-1.12,.46-2.17,.9-3.16,.44-1.01,1.02-1.88,1.75-2.63,.73-.76,1.61-1.35,2.65-1.78,1.04-.42,2.22-.63,3.55-.63,1.05,0,1.88,.08,2.48,.24,.62,.15,1,.27,1.14,.37l-1.17,5.87c-.16-.11-.49-.25-1-.41-.49-.18-1.14-.27-1.97-.27-1.31,0-2.42,.23-3.31,.68-.88,.44-1.57,1.04-2.09,1.8-.52,.75-.89,1.57-1.12,2.48-.23,.89-.34,1.78-.34,2.68v12.85h-6.4Z"/>
    <path class="cls-1" d="M210.66,91.01c1.53,.15,2.86,.43,4.02,.85,1.15,.42,2.05,1.05,2.7,1.87,.65,.84,.97,1.96,.97,3.36,0,1.56-.53,2.9-1.58,4.04-1.05,1.14-2.6,2.01-4.65,2.63-2.03,.62-4.53,.92-7.5,.92-4.32,0-7.63-.62-9.95-1.87-2.32-1.23-3.48-2.91-3.48-5.04,0-.6,.07-1.14,.22-1.63,.15-.49,.32-.89,.54-1.22l5.87,.85c-.1,.13-.19,.33-.29,.61-.1,.29-.15,.64-.15,1.05,0,1.01,.67,1.73,2.02,2.17,1.36,.45,3.17,.68,5.43,.68,1.65,0,3.03-.11,4.14-.34,1.12-.23,1.96-.55,2.53-.97,.58-.42,.88-.92,.88-1.48,0-.84-.38-1.39-1.14-1.63-.76-.24-1.67-.41-2.73-.49l-9.81-.9c-1.75-.18-3.2-.7-4.33-1.56-1.12-.86-1.68-2-1.68-3.41,0-.86,.23-1.66,.68-2.39,.47-.73,1.01-1.34,1.61-1.83,.6-.5,1.11-.81,1.53-.92l3.65,1.8c-.34,.05-.75,.27-1.22,.66-.45,.39-.68,.85-.68,1.39,0,.5,.23,.92,.68,1.27,.45,.32,1.33,.55,2.63,.68l9.1,.85Zm2.9-23.29h5.74l-2.34,10.03c-.44,1.88-1.14,3.57-2.12,5.06-.97,1.49-2.27,2.67-3.89,3.53-1.62,.86-3.67,1.29-6.13,1.29s-4.78-.41-6.64-1.24c-1.85-.84-3.28-2.02-4.28-3.53-1.01-1.53-1.51-3.28-1.51-5.26s.51-3.81,1.53-5.35c1.04-1.56,2.46-2.77,4.26-3.65,1.82-.88,3.87-1.31,6.16-1.31,1.85,0,3.51,.31,4.99,.92,1.48,.6,2.65,1.39,3.53,2.36,.89,.97,1.37,2.01,1.44,3.12l-1.44,.27,.71-6.23Zm-8.76,14.97c1.25,0,2.33-.2,3.24-.61,.91-.41,1.61-.99,2.12-1.75,.5-.78,.75-1.72,.75-2.82s-.25-2.02-.75-2.8c-.5-.78-1.21-1.37-2.12-1.78-.91-.42-1.98-.63-3.21-.63s-2.26,.21-3.19,.63c-.92,.42-1.65,1.03-2.19,1.83-.52,.78-.78,1.71-.78,2.8s.25,2.02,.75,2.8c.52,.76,1.23,1.35,2.14,1.75,.92,.39,2,.58,3.24,.58Z"/>
    <path class="cls-1" d="M235.27,94.07c-2.73,0-5.13-.57-7.2-1.7-2.08-1.15-3.71-2.74-4.89-4.77-1.17-2.03-1.75-4.35-1.75-6.96s.58-4.94,1.75-6.94c1.18-2.01,2.82-3.59,4.89-4.72,2.08-1.14,4.48-1.7,7.2-1.7s5.13,.57,7.2,1.7c2.08,1.14,3.7,2.71,4.87,4.72,1.18,2,1.78,4.31,1.78,6.94s-.59,4.93-1.78,6.96c-1.17,2.03-2.79,3.62-4.87,4.77-2.08,1.14-4.48,1.7-7.2,1.7Zm0-5.23c1.48,0,2.77-.34,3.87-1.02,1.1-.68,1.96-1.63,2.58-2.85,.62-1.23,.92-2.68,.92-4.33s-.31-3.08-.92-4.28c-.62-1.22-1.48-2.16-2.58-2.82-1.1-.67-2.39-1-3.87-1s-2.75,.33-3.87,1c-1.1,.67-1.96,1.61-2.58,2.82-.62,1.2-.92,2.63-.92,4.28s.31,3.1,.92,4.33c.62,1.22,1.48,2.17,2.58,2.85,1.12,.68,2.41,1.02,3.87,1.02Z"/>
  </g>
</svg>