<svg width="32" height="32" viewBox="0 0 32 32" fill="none" xmlns="http://www.w3.org/2000/svg">
<g clip-path="url(#clip0_81902_51054)">
<rect width="32" height="32" rx="2" fill="#E9EEF2"/>
<mask id="mask0_81902_51054" style="mask-type:luminance" maskUnits="userSpaceOnUse" x="6" y="4" width="19" height="6">
<path d="M15.5481 4.00331C15.0239 4.02644 14.5009 4.0785 13.9833 4.16567C13.6082 4.2297 13.2364 4.3115 12.8691 4.41065C12.475 4.516 12.0879 4.64531 11.7066 4.78908C11.2126 4.97954 10.7313 5.20181 10.2665 5.45506C9.68117 5.77482 9.12306 6.14416 8.59837 6.55606C8.11504 6.93903 7.65281 7.35216 7.23846 7.8095C7.04017 8.01937 6.92781 8.3127 6.96292 8.60231C7.01002 9.0332 7.30828 9.40502 7.67801 9.61407C7.96181 9.77602 8.29395 9.80824 8.61283 9.83881C9.16767 9.87682 9.7245 9.81113 10.2661 9.69339C10.7655 9.58185 11.2539 9.42692 11.7355 9.25464L11.7347 9.24969C12.1197 9.1117 12.5022 8.96421 12.8736 8.79441L12.8778 8.76839L12.9026 8.77665C13.2789 8.64238 13.6367 8.45895 14.006 8.3065L14.0056 8.30113C14.5228 8.0768 15.0359 7.84297 15.5551 7.62318C15.7104 7.55708 15.8658 7.49304 16.0219 7.42983C16.4557 7.25095 16.8953 7.08693 17.3393 6.93738C17.6669 6.82583 17.9991 6.72957 18.3337 6.64199C18.8022 6.52218 19.2789 6.43212 19.7602 6.37924C20.3922 6.31189 21.0342 6.3185 21.6621 6.42137C21.9682 6.47136 22.2702 6.54738 22.5652 6.64281C23.3244 6.88284 24.0061 7.30259 24.6819 7.71283C24.6381 7.65334 24.5881 7.59922 24.5361 7.54758C23.9453 6.95845 23.2997 6.4222 22.5998 5.96734L22.6002 5.9628C22.3032 5.77276 22.0016 5.58891 21.6906 5.42242C21.0825 5.10307 20.4538 4.8085 19.7936 4.6164L19.7771 4.63044L19.7664 4.60359C19.3173 4.43544 18.8464 4.32927 18.3779 4.22929L18.3796 4.22557C18.0288 4.1636 17.6777 4.10535 17.3236 4.06651C16.8708 4.01446 16.4156 4 15.9603 4C15.8229 4 15.6854 4.00132 15.5481 4.00331Z" fill="url(#paint0_linear_81902_51054)"/>
</mask>
<g mask="url(#mask0_81902_51054)">
<path fill-rule="evenodd" clip-rule="evenodd" d="M15.5481 4.00331C15.0239 4.02644 14.5009 4.0785 13.9833 4.16567C13.6082 4.2297 13.2364 4.3115 12.8691 4.41065C12.475 4.516 12.0879 4.64531 11.7066 4.78908C11.2126 4.97954 10.7313 5.20181 10.2665 5.45506C9.68117 5.77482 9.12306 6.14416 8.59837 6.55606C8.11504 6.93903 7.65281 7.35216 7.23846 7.8095C7.04017 8.01937 6.92781 8.3127 6.96292 8.60231C7.01002 9.0332 7.30828 9.40502 7.67801 9.61407C7.96181 9.77602 8.29395 9.80824 8.61283 9.83881C9.16767 9.87682 9.7245 9.81113 10.2661 9.69339C10.7655 9.58185 11.2539 9.42692 11.7355 9.25464L11.7347 9.24969C12.1197 9.1117 12.5022 8.96421 12.8736 8.79441L12.8778 8.76839L12.9026 8.77665C13.2789 8.64238 13.6367 8.45895 14.006 8.3065L14.0056 8.30113C14.5228 8.0768 15.0359 7.84297 15.5551 7.62318C15.7104 7.55708 15.8658 7.49304 16.0219 7.42983C16.4557 7.25095 16.8953 7.08693 17.3393 6.93738C17.6669 6.82583 17.9991 6.72957 18.3337 6.64199C18.8022 6.52218 19.2789 6.43212 19.7602 6.37924C20.3922 6.31189 21.0342 6.3185 21.6621 6.42137C21.9682 6.47136 22.2702 6.54738 22.5652 6.64281C23.3244 6.88284 24.0061 7.30259 24.6819 7.71283C24.6381 7.65334 24.5881 7.59922 24.5361 7.54758C23.9453 6.95845 23.2997 6.4222 22.5998 5.96734L22.6002 5.9628C22.3032 5.77276 22.0016 5.58891 21.6906 5.42242C21.0825 5.10307 20.4538 4.8085 19.7936 4.6164L19.7771 4.63044L19.7664 4.60359C19.3173 4.43544 18.8464 4.32927 18.3779 4.22929L18.3796 4.22557C18.0288 4.1636 17.6777 4.10535 17.3236 4.06651C16.8708 4.01446 16.4156 4 15.9603 4C15.8229 4 15.6854 4.00132 15.5481 4.00331Z" fill="url(#paint1_linear_81902_51054)"/>
</g>
<path fill-rule="evenodd" clip-rule="evenodd" d="M25.0487 8.60182C24.9818 9.17525 24.4902 9.64333 23.9379 9.76272C23.2802 9.90236 22.5977 9.8594 21.9417 9.73298C21.1316 9.57516 20.3517 9.29506 19.5878 8.98686C18.6369 8.59934 17.7074 8.16307 16.7655 7.75572C16.5189 7.64376 16.2623 7.55411 16.0215 7.42976C16.4552 7.25087 16.8948 7.08686 17.3389 6.9373C17.6665 6.82576 17.9986 6.7295 18.3332 6.64191C18.8017 6.5221 19.2784 6.43204 19.7597 6.37916C20.3917 6.31182 21.0337 6.31843 21.6616 6.4213C21.9677 6.47129 22.2697 6.5473 22.5647 6.64274C23.324 6.88277 24.0056 7.30251 24.6815 7.71275C24.9268 7.93502 25.0917 8.2647 25.0487 8.60182Z" fill="#CDECBE"/>
<path fill-rule="evenodd" clip-rule="evenodd" d="M15.9821 13.5388C15.6557 13.6628 15.3281 13.783 15.0005 13.9032C14.3433 14.1437 13.6869 14.3858 13.0255 14.6138C12.4236 14.8204 11.8204 15.0245 11.2111 15.2075C10.6646 15.3707 10.1147 15.5244 9.55827 15.6491C9.13359 15.7454 8.70561 15.8264 8.2735 15.8821C7.71209 15.9528 7.14159 15.9854 6.57811 15.9172C6.02455 15.8507 5.46975 15.6731 5.0335 15.3157C4.59809 14.9662 4.34527 14.4514 4.18209 13.9288L4.1792 13.9218C4.35642 13.2397 4.69145 12.5845 5.22601 12.1135C5.83576 11.5595 6.65949 11.2687 7.47869 11.2596C8.29251 11.2538 9.09972 11.3881 9.89247 11.5612C11.3925 11.8987 12.8499 12.3978 14.297 12.9113C14.8588 13.1199 15.4293 13.3075 15.9821 13.5388Z" fill="#CDECBE"/>
<path fill-rule="evenodd" clip-rule="evenodd" d="M27.811 18.0977C27.7205 18.7368 27.4471 19.3676 26.9819 19.8241C26.4919 20.3096 25.8095 20.5463 25.1357 20.624C24.2236 20.7293 23.3023 20.6194 22.4051 20.4496C20.7576 20.1262 19.1614 19.5932 17.5779 19.045C17.0516 18.8661 16.5332 18.6645 16.0044 18.4939C16.0292 18.4844 16.054 18.4753 16.0788 18.4666C16.5323 18.3013 16.9855 18.1353 17.4391 17.9708C17.7911 17.8419 18.1439 17.7163 18.4971 17.592C18.7966 17.4871 19.0957 17.3817 19.3964 17.2821C20.1061 17.0417 20.8208 16.8161 21.5438 16.6195C21.9131 16.517 22.2857 16.4278 22.66 16.3464C23.2982 16.2109 23.9456 16.1088 24.5983 16.0878C25.1952 16.0721 25.8058 16.1245 26.3631 16.3526C27.1067 16.6381 27.6338 17.333 27.811 18.0977Z" fill="#CDECBE"/>
<path fill-rule="evenodd" clip-rule="evenodd" d="M15.9879 24.5662C15.871 24.6145 15.7545 24.662 15.6368 24.7075C15.2766 24.8463 14.9151 24.981 14.5478 25.0995C14.1831 25.2173 13.815 25.3255 13.4411 25.4098C13.0487 25.4966 12.6504 25.5614 12.2497 25.5969C12.115 25.6081 11.9804 25.6172 11.8461 25.63C11.4561 25.6321 11.0653 25.6391 10.6774 25.5974C10.3321 25.5635 9.9892 25.5073 9.65169 25.4263C9.32864 25.3466 9.01096 25.2445 8.70485 25.1136C8.24919 24.9281 7.8336 24.6624 7.43826 24.3732C7.42587 24.3666 7.40149 24.3526 7.3891 24.3456C7.13091 24.1188 6.92436 23.7887 6.95947 23.4309C7.00863 22.8269 7.53369 22.3311 8.11534 22.2233C9.04318 22.0452 9.99787 22.2031 10.8939 22.4654C12.3955 22.9145 13.8009 23.6197 15.2369 24.2365C15.4852 24.3509 15.7454 24.4389 15.9879 24.5662Z" fill="#CDECBE"/>
<mask id="mask1_81902_51054" style="mask-type:luminance" maskUnits="userSpaceOnUse" x="4" y="11" width="24" height="10">
<path d="M22.6558 11.4492C22.2816 11.5199 21.9106 11.6046 21.5413 11.6951C20.8191 11.8826 20.102 12.0925 19.3951 12.3313L19.3832 12.3577L19.3671 12.3453C19.068 12.4292 18.7768 12.5383 18.4826 12.637C18.124 12.7614 17.7667 12.8894 17.4097 13.0175C16.9562 13.1811 16.5043 13.3497 16.0507 13.5145C16.0337 13.5203 15.9994 13.5327 15.9825 13.5389C15.6561 13.6628 15.3285 13.783 15.0009 13.9033C14.3437 14.1437 13.6873 14.3858 13.0259 14.6139C12.424 14.8204 11.8209 15.0245 11.2115 15.2075C10.665 15.3707 10.1151 15.5244 9.55868 15.6492C9.13401 15.7454 8.70599 15.8264 8.27392 15.8822C7.7125 15.9528 7.142 15.9855 6.57853 15.9173C6.02496 15.8508 5.47016 15.6731 5.03392 15.3158C4.5985 14.9663 4.34568 14.4515 4.1825 13.9289C3.94869 15.2141 3.94538 16.5382 4.13913 17.8289C4.20977 18.3151 4.32792 18.7972 4.53158 19.2455C4.6489 19.5 4.80051 19.7412 5.00211 19.9379C5.42017 20.3118 5.95432 20.5696 6.5116 20.6349L6.53556 20.6258L6.54217 20.651C7.12259 20.7712 7.72407 20.7443 8.3123 20.7026L8.31151 20.6968C8.73123 20.6617 9.14764 20.5927 9.56112 20.5117C10.1205 20.4014 10.6745 20.2635 11.2231 20.1085C11.8394 19.935 12.45 19.7421 13.0577 19.5409C13.7125 19.319 14.3647 19.091 15.0146 18.8555C15.3451 18.7353 15.676 18.6167 16.0052 18.494C16.03 18.4845 16.0548 18.4754 16.0796 18.4667C16.5332 18.3015 16.9863 18.1354 17.4399 17.971C17.7919 17.8421 18.1447 17.7165 18.4979 17.5921C18.7974 17.4872 19.0965 17.3818 19.3972 17.2823C20.107 17.0418 20.8216 16.8163 21.5445 16.6196C21.9139 16.5172 22.2865 16.4279 22.6608 16.3465C23.299 16.211 23.9463 16.109 24.5991 16.0879C25.196 16.0722 25.8066 16.1247 26.3639 16.3527C27.1075 16.6382 27.6346 17.3331 27.8118 18.0978C27.9742 17.2843 28.0122 16.4506 27.9969 15.6231C27.9659 14.8374 27.8866 14.047 27.6668 13.2898C27.5586 12.9341 27.4272 12.5759 27.1954 12.2805C26.9773 12.0103 26.6948 11.7975 26.3878 11.6376C25.8339 11.36 25.2084 11.2708 24.595 11.2559C24.5787 11.2557 24.5624 11.2557 24.5461 11.2557C23.9115 11.2557 23.2789 11.3337 22.6558 11.4492Z" fill="url(#paint2_linear_81902_51054)"/>
</mask>
<g mask="url(#mask1_81902_51054)">
<path fill-rule="evenodd" clip-rule="evenodd" d="M22.6558 11.4492C22.2816 11.5199 21.9106 11.6046 21.5413 11.6951C20.8191 11.8826 20.102 12.0925 19.3951 12.3313L19.3832 12.3577L19.3671 12.3453C19.068 12.4292 18.7768 12.5383 18.4826 12.637C18.124 12.7614 17.7667 12.8894 17.4097 13.0175C16.9562 13.1811 16.5043 13.3497 16.0507 13.5145C16.0337 13.5203 15.9994 13.5327 15.9825 13.5389C15.6561 13.6628 15.3285 13.783 15.0009 13.9033C14.3437 14.1437 13.6873 14.3858 13.0259 14.6139C12.424 14.8204 11.8209 15.0245 11.2115 15.2075C10.665 15.3707 10.1151 15.5244 9.55868 15.6492C9.13401 15.7454 8.70599 15.8264 8.27392 15.8822C7.7125 15.9528 7.142 15.9855 6.57853 15.9173C6.02496 15.8508 5.47016 15.6731 5.03392 15.3158C4.5985 14.9663 4.34568 14.4515 4.1825 13.9289C3.94869 15.2141 3.94538 16.5382 4.13913 17.8289C4.20977 18.3151 4.32792 18.7972 4.53158 19.2455C4.6489 19.5 4.80051 19.7412 5.00211 19.9379C5.42017 20.3118 5.95432 20.5696 6.5116 20.6349L6.53556 20.6258L6.54217 20.651C7.12259 20.7712 7.72407 20.7443 8.3123 20.7026L8.31151 20.6968C8.73123 20.6617 9.14764 20.5927 9.56112 20.5117C10.1205 20.4014 10.6745 20.2635 11.2231 20.1085C11.8394 19.935 12.45 19.7421 13.0577 19.5409C13.7125 19.319 14.3647 19.091 15.0146 18.8555C15.3451 18.7353 15.676 18.6167 16.0052 18.494C16.03 18.4845 16.0548 18.4754 16.0796 18.4667C16.5332 18.3015 16.9863 18.1354 17.4399 17.971C17.7919 17.8421 18.1447 17.7165 18.4979 17.5921C18.7974 17.4872 19.0965 17.3818 19.3972 17.2823C20.107 17.0418 20.8216 16.8163 21.5445 16.6196C21.9139 16.5172 22.2865 16.4279 22.6608 16.3465C23.299 16.211 23.9463 16.109 24.5991 16.0879C25.196 16.0722 25.8066 16.1247 26.3639 16.3527C27.1075 16.6382 27.6346 17.3331 27.8118 18.0978C27.9742 17.2843 28.0122 16.4506 27.9969 15.6231C27.9659 14.8374 27.8866 14.047 27.6668 13.2898C27.5586 12.9341 27.4272 12.5759 27.1954 12.2805C26.9773 12.0103 26.6948 11.7975 26.3878 11.6376C25.8339 11.36 25.2084 11.2708 24.595 11.2559C24.5787 11.2557 24.5624 11.2557 24.5461 11.2557C23.9115 11.2557 23.2789 11.3337 22.6558 11.4492Z" fill="url(#paint3_linear_81902_51054)"/>
</g>
<mask id="mask2_81902_51054" style="mask-type:luminance" maskUnits="userSpaceOnUse" x="7" y="22" width="19" height="6">
<path d="M22.06 22.2402C21.5337 22.3348 21.0185 22.4843 20.5133 22.6579V22.6628C20.1745 22.7719 19.8448 22.9057 19.5152 23.0392C19.0558 23.2263 18.6018 23.4263 18.1491 23.6287C17.8198 23.7741 17.4914 23.9212 17.1617 24.0662L17.1514 24.0923L17.1287 24.0848C16.7478 24.2422 16.3727 24.4153 15.9885 24.5661C15.8716 24.6145 15.7551 24.662 15.6374 24.7074C15.2771 24.8462 14.9157 24.9809 14.5484 25.0995C14.1837 25.2172 13.8156 25.3255 13.4417 25.4097C13.0493 25.4965 12.651 25.5614 12.2503 25.5969C12.1156 25.608 11.981 25.6171 11.8467 25.6299C11.4567 25.632 11.0659 25.639 10.678 25.5973C10.3327 25.5634 9.98979 25.5072 9.65228 25.4263C9.32923 25.3465 9.01155 25.2445 8.70544 25.1135C8.24978 24.928 7.83419 24.6624 7.43885 24.3732C7.42646 24.3666 7.40208 24.3525 7.38965 24.3455C7.73583 24.7132 8.11593 25.0491 8.50756 25.3672C8.86861 25.6551 9.24454 25.9249 9.63571 26.1707C9.9712 26.3806 10.3157 26.5764 10.6714 26.7508C10.9296 26.8817 11.194 26.9999 11.4617 27.1102C11.7207 27.2151 11.9826 27.313 12.2478 27.401C12.6382 27.5262 13.0327 27.6411 13.4351 27.7216L13.4347 27.7262C13.8073 27.8038 14.1828 27.8691 14.5608 27.9146C14.9182 27.9575 15.2771 27.9782 15.6365 27.9968C16.1525 28.0079 16.6685 27.9898 17.1828 27.9451L17.1824 27.9394C17.5075 27.9121 17.831 27.8654 18.1524 27.808C18.6142 27.7229 19.0715 27.6138 19.521 27.4762C19.856 27.3705 20.189 27.2564 20.5141 27.1226C21.0586 26.9024 21.5865 26.6409 22.0926 26.3426C22.409 26.1534 22.7201 25.9543 23.0179 25.7365C23.4843 25.3982 23.9326 25.0317 24.3411 24.6248C24.4973 24.4909 24.6311 24.3335 24.7741 24.1865C24.9843 23.9646 25.0946 23.6469 25.0426 23.3432C24.9794 22.9272 24.6815 22.5798 24.3242 22.3749C23.9152 22.1633 23.4389 22.1514 22.9882 22.1493C22.6767 22.1497 22.3669 22.1898 22.06 22.2402Z" fill="url(#paint4_linear_81902_51054)"/>
</mask>
<g mask="url(#mask2_81902_51054)">
<path fill-rule="evenodd" clip-rule="evenodd" d="M22.06 22.2402C21.5337 22.3348 21.0185 22.4843 20.5133 22.6579V22.6628C20.1745 22.7719 19.8448 22.9057 19.5152 23.0392C19.0558 23.2263 18.6018 23.4263 18.1491 23.6287C17.8198 23.7741 17.4914 23.9212 17.1617 24.0662L17.1514 24.0923L17.1287 24.0848C16.7478 24.2422 16.3727 24.4153 15.9885 24.5661C15.8716 24.6145 15.7551 24.662 15.6374 24.7074C15.2771 24.8462 14.9157 24.9809 14.5484 25.0995C14.1837 25.2172 13.8156 25.3255 13.4417 25.4097C13.0493 25.4965 12.651 25.5614 12.2503 25.5969C12.1156 25.608 11.981 25.6171 11.8467 25.6299C11.4567 25.632 11.0659 25.639 10.678 25.5973C10.3327 25.5634 9.98979 25.5072 9.65228 25.4263C9.32923 25.3465 9.01155 25.2445 8.70544 25.1135C8.24978 24.928 7.83419 24.6624 7.43885 24.3732C7.42646 24.3666 7.40208 24.3525 7.38965 24.3455C7.73583 24.7132 8.11593 25.0491 8.50756 25.3672C8.86861 25.6551 9.24454 25.9249 9.63571 26.1707C9.9712 26.3806 10.3157 26.5764 10.6714 26.7508C10.9296 26.8817 11.194 26.9999 11.4617 27.1102C11.7207 27.2151 11.9826 27.313 12.2478 27.401C12.6382 27.5262 13.0327 27.6411 13.4351 27.7216L13.4347 27.7262C13.8073 27.8038 14.1828 27.8691 14.5608 27.9146C14.9182 27.9575 15.2771 27.9782 15.6365 27.9968C16.1525 28.0079 16.6685 27.9898 17.1828 27.9451L17.1824 27.9394C17.5075 27.9121 17.831 27.8654 18.1524 27.808C18.6142 27.7229 19.0715 27.6138 19.521 27.4762C19.856 27.3705 20.189 27.2564 20.5141 27.1226C21.0586 26.9024 21.5865 26.6409 22.0926 26.3426C22.409 26.1534 22.7201 25.9543 23.0179 25.7365C23.4843 25.3982 23.9326 25.0317 24.3411 24.6248C24.4973 24.4909 24.6311 24.3335 24.7741 24.1865C24.9843 23.9646 25.0946 23.6469 25.0426 23.3432C24.9794 22.9272 24.6815 22.5798 24.3242 22.3749C23.9152 22.1633 23.4389 22.1514 22.9882 22.1493C22.6767 22.1497 22.3669 22.1898 22.06 22.2402Z" fill="url(#paint5_linear_81902_51054)"/>
</g>
</g>
<defs>
<linearGradient id="paint0_linear_81902_51054" x1="6.95597" y1="296.479" x2="1779.49" y2="296.479" gradientUnits="userSpaceOnUse">
<stop stop-color="#50BC1D"/>
<stop offset="1" stop-color="#B3DBAC"/>
</linearGradient>
<linearGradient id="paint1_linear_81902_51054" x1="6.95597" y1="296.479" x2="1779.49" y2="296.479" gradientUnits="userSpaceOnUse">
<stop stop-color="#50BC1D"/>
<stop offset="1" stop-color="#B3DBAC"/>
</linearGradient>
<linearGradient id="paint2_linear_81902_51054" x1="3.99931" y1="485.363" x2="2404" y2="485.363" gradientUnits="userSpaceOnUse">
<stop stop-color="#50BC1D"/>
<stop offset="1" stop-color="#B3DBAC"/>
</linearGradient>
<linearGradient id="paint3_linear_81902_51054" x1="3.99931" y1="485.363" x2="2404" y2="485.363" gradientUnits="userSpaceOnUse">
<stop stop-color="#50BC1D"/>
<stop offset="1" stop-color="#B3DBAC"/>
</linearGradient>
<linearGradient id="paint4_linear_81902_51054" x1="7.39305" y1="314.684" x2="1773.96" y2="314.684" gradientUnits="userSpaceOnUse">
<stop stop-color="#B3DBAC"/>
<stop offset="1" stop-color="#50BC1D"/>
</linearGradient>
<linearGradient id="paint5_linear_81902_51054" x1="7.39305" y1="314.684" x2="1773.96" y2="314.684" gradientUnits="userSpaceOnUse">
<stop stop-color="#B3DBAC"/>
<stop offset="1" stop-color="#50BC1D"/>
</linearGradient>
<clipPath id="clip0_81902_51054">
<rect width="32" height="32" fill="white"/>
</clipPath>
</defs>
</svg>
