<svg width="44" height="40" viewBox="0 0 44 40" fill="none" xmlns="http://www.w3.org/2000/svg">
<path d="M44 0H0V40H44V0Z" fill="white"/>
<path d="M41.7304 24.0848C41.7304 23.467 41.2964 23.0147 40.6985 23.0147C40.1017 23.0147 39.6672 23.467 39.6672 24.0848C39.6672 24.7015 40.1017 25.1531 40.6985 25.1531C41.2964 25.1531 41.7304 24.7008 41.7304 24.0848ZM40.4274 24.1397V24.8386H40.2037V23.2974H40.7596C41.0853 23.2974 41.2348 23.441 41.2348 23.7209C41.2348 23.8933 41.1194 24.0299 40.9706 24.0497V24.0562C41.0997 24.077 41.1472 24.1933 41.1737 24.4061C41.1941 24.5439 41.2211 24.783 41.2698 24.8391H41.0051C40.9436 24.6942 40.9498 24.4893 40.9024 24.3176C40.8631 24.187 40.7941 24.1394 40.6459 24.1394H40.4286V24.1402L40.4274 24.1397ZM40.7047 23.9404C40.922 23.9404 40.984 23.8236 40.984 23.7207C40.984 23.5989 40.922 23.5026 40.7047 23.5026H40.4274V23.9409H40.7047V23.9404ZM39.4211 24.0848C39.4211 23.3237 40.0197 22.8092 40.6975 22.8092C41.3773 22.8092 41.9752 23.3237 41.9752 24.0848C41.9752 24.8444 41.3776 25.3594 40.6975 25.3594C40.0197 25.3594 39.4211 24.8444 39.4211 24.0848Z" fill="#FF5A00"/>
<path d="M34.9977 25.137L33.5261 23.4713L32.0675 25.137H28.9983L31.998 21.7354L28.9983 18.3327H32.1634L33.6498 19.9856L35.0801 18.3327H38.1344L35.1496 21.7211L38.1759 25.137H34.9977ZM23.1047 25.137V14.418H28.9983V16.8072H25.6012V18.3327H28.9983V20.6317H25.6012V22.7418H28.9983V25.137H23.1047Z" fill="#FF5A00"/>
<path d="M20.6175 14.418V18.8048H20.5899C20.0395 18.1663 19.3515 17.9437 18.5538 17.9437C16.9192 17.9437 15.6877 19.0662 15.2555 20.549C14.7624 18.9148 13.491 17.9131 11.606 17.9131C10.0749 17.9131 8.8663 18.6066 8.235 19.7368V18.3324H5.0707V16.8075H8.5242V14.4185H2.25V25.1371H5.0707V20.6317H7.8822C7.7955 20.9781 7.7523 21.3342 7.7533 21.6915C7.7533 23.9264 9.4453 25.4969 11.6056 25.4969C13.4214 25.4969 14.6191 24.6356 15.252 23.0676H12.8345C12.5078 23.5395 12.2595 23.6788 11.6058 23.6788C10.8481 23.6788 10.1941 23.0112 10.1941 22.2208H15.1164C15.3299 23.9963 16.7004 25.5272 18.5814 25.5272C19.3927 25.5272 20.1356 25.1245 20.5897 24.4441H20.617V25.1386H23.104V14.4185H20.6175V14.418ZM10.2726 20.6638C10.4297 19.9826 10.9528 19.5376 11.6058 19.5376C12.3248 19.5376 12.8214 19.9688 12.9517 20.6638H10.2726ZM19.1082 23.5059C18.1918 23.5059 17.6223 22.644 17.6223 21.7439C17.6223 20.7816 18.1178 19.8571 19.1082 19.8571C20.1358 19.8571 20.5452 20.7821 20.5452 21.7439C20.5452 22.6556 20.1118 23.5059 19.1082 23.5059Z" fill="#29007C"/>
</svg>
