<svg width="24" height="24" viewBox="0 0 24 24" fill="none" xmlns="http://www.w3.org/2000/svg">
<g clip-path="url(#clip0)">
<path d="M19.2177 18.147C11.1218 22 6.09731 18.7763 2.88101 16.8183C2.68198 16.6949 2.34371 16.8472 2.63721 17.1843C3.70872 18.4835 7.22029 21.6151 11.8039 21.6151C16.3907 21.6151 19.1194 19.1123 19.4608 18.6757C19.7998 18.2428 19.5603 18.004 19.2176 18.147H19.2177ZM21.4915 16.8913C21.274 16.6082 20.1695 16.5555 19.4743 16.6409C18.7781 16.7238 17.733 17.1493 17.8239 17.4048C17.8705 17.5005 17.9657 17.4576 18.4439 17.4146C18.9235 17.3667 20.2671 17.1971 20.547 17.5631C20.8283 17.9316 20.1185 19.6871 19.9889 19.9702C19.8636 20.2533 20.0367 20.3263 20.272 20.1377C20.504 19.9492 20.9241 19.4611 21.206 18.7703C21.4859 18.0758 21.6566 17.1069 21.4914 16.8913H21.4915Z" fill="#FF9900"/>
<path fill-rule="evenodd" clip-rule="evenodd" d="M13.774 10.285C13.774 11.296 13.7996 12.1391 13.2886 13.0369C12.8761 13.7669 12.2228 14.2158 11.4929 14.2158C10.4965 14.2158 9.91617 13.4566 9.91617 12.3362C9.91617 10.1244 11.8979 9.72292 13.774 9.72292V10.285ZM16.3909 16.6101C16.2193 16.7633 15.9711 16.7743 15.7777 16.6721C14.9164 15.9567 14.7631 15.6246 14.2886 14.9421C12.8652 16.3947 11.8579 16.829 10.0111 16.829C7.82854 16.829 6.12772 15.4822 6.12772 12.7851C6.12772 10.6792 7.27016 9.24479 8.8942 8.54409C10.3031 7.92355 12.2703 7.81408 13.774 7.6426V7.30679C13.774 6.68994 13.8214 5.96001 13.4601 5.42718C13.1426 4.94904 12.5367 4.75194 12.0038 4.75194C11.0148 4.75194 10.1315 5.25924 9.91617 6.31036C9.87232 6.544 9.70084 6.77395 9.46727 6.78488L6.94889 6.51485C6.73725 6.4673 6.50368 6.29582 6.56208 5.97094C7.14238 2.9198 9.89786 2 12.3651 2C13.6279 2 15.2776 2.33581 16.274 3.29208C17.5369 4.47091 17.4164 6.04394 17.4164 7.75569V11.7996C17.4164 13.015 17.9201 13.5478 18.3945 14.2048C18.5624 14.4384 18.5989 14.7195 18.3872 14.8946C17.858 15.3362 16.9163 16.1575 16.3981 16.6174L16.3908 16.6101" fill="black"/>
<path d="M19.2177 18.147C11.1218 22 6.09731 18.7763 2.88101 16.8183C2.68198 16.6949 2.34371 16.8472 2.63721 17.1843C3.70872 18.4835 7.22029 21.6151 11.8039 21.6151C16.3907 21.6151 19.1194 19.1123 19.4608 18.6757C19.7998 18.2428 19.5603 18.004 19.2176 18.147H19.2177ZM21.4915 16.8913C21.274 16.6082 20.1695 16.5555 19.4743 16.6409C18.7781 16.7238 17.733 17.1493 17.8239 17.4048C17.8705 17.5005 17.9657 17.4576 18.4439 17.4146C18.9235 17.3667 20.2671 17.1971 20.547 17.5631C20.8283 17.9316 20.1185 19.6871 19.9889 19.9702C19.8636 20.2533 20.0367 20.3263 20.272 20.1377C20.504 19.9492 20.9241 19.4611 21.206 18.7703C21.4859 18.0758 21.6566 17.1069 21.4914 16.8913H21.4915Z" fill="#FF9900"/>
<path fill-rule="evenodd" clip-rule="evenodd" d="M13.774 10.285C13.774 11.296 13.7996 12.1391 13.2886 13.0369C12.8761 13.7669 12.2228 14.2158 11.4929 14.2158C10.4965 14.2158 9.91617 13.4566 9.91617 12.3362C9.91617 10.1244 11.8979 9.72292 13.774 9.72292V10.285ZM16.3909 16.6101C16.2193 16.7633 15.9711 16.7743 15.7777 16.6721C14.9164 15.9567 14.7631 15.6246 14.2886 14.9421C12.8652 16.3947 11.8579 16.829 10.0111 16.829C7.82854 16.829 6.12772 15.4822 6.12772 12.7851C6.12772 10.6792 7.27016 9.24479 8.8942 8.54409C10.3031 7.92355 12.2703 7.81408 13.774 7.6426V7.30679C13.774 6.68994 13.8214 5.96001 13.4601 5.42718C13.1426 4.94904 12.5367 4.75194 12.0038 4.75194C11.0148 4.75194 10.1315 5.25924 9.91617 6.31036C9.87232 6.544 9.70084 6.77395 9.46727 6.78488L6.94889 6.51485C6.73725 6.4673 6.50368 6.29582 6.56208 5.97094C7.14238 2.9198 9.89786 2 12.3651 2C13.6279 2 15.2776 2.33581 16.274 3.29208C17.5369 4.47091 17.4164 6.04394 17.4164 7.75569V11.7996C17.4164 13.015 17.9201 13.5478 18.3945 14.2048C18.5624 14.4384 18.5989 14.7195 18.3872 14.8946C17.858 15.3362 16.9163 16.1575 16.3981 16.6174L16.3908 16.6101" fill="black"/>
</g>
<defs>
<clipPath id="clip0">
<rect x="2" y="2" width="20" height="20" fill="white"/>
</clipPath>
</defs>
</svg>
