<svg width="261" height="160" viewBox="0 0 261 160" fill="none" xmlns="http://www.w3.org/2000/svg">
<rect width="260" height="160" transform="translate(0.00537109)" fill="#FFCD00"/>
<path d="M52.2287 93.8701C52.2287 95.7838 53.7793 97.3376 55.6897 97.3376C57.6001 97.3376 59.1507 95.7805 59.1507 93.8701C59.1507 91.9596 57.6001 90.4025 55.6897 90.4025C53.7793 90.4025 52.2287 91.9564 52.2287 93.8701V93.8701ZM76.2628 83.4674C75.3108 90.3862 70.8455 96.1829 64.7282 98.9896C62.1865 100.154 59.3568 100.805 56.3799 100.805H55.6864C51.8623 100.805 48.7644 97.7007 48.7644 93.8701C48.7644 90.0394 51.8623 86.935 55.6864 86.935C59.5105 86.935 62.6084 90.0394 62.6084 93.8701C62.6084 94.7239 62.4547 95.5417 62.1734 96.2974C63.5669 95.7772 64.8722 95.0739 66.0629 94.2168C66.0629 94.2168 66.0662 93.9846 66.0662 93.8701C66.0662 88.1257 61.4177 83.4674 55.6864 83.4674C49.9551 83.4674 45.3034 88.1257 45.3034 93.8701C45.3034 99.6144 49.9519 104.273 55.6864 104.273C59.9391 104.273 63.9366 103.174 67.414 101.244C73.9074 97.6353 78.5723 91.1287 79.6682 83.4641H76.266L76.2628 83.4674ZM41.8457 83.4674H31.7112C32.8038 91.1287 37.4687 97.6386 43.9622 101.247C42.6209 99.1106 41.8457 96.582 41.8457 93.8733V83.4707V83.4674ZM83.3712 79.9999C83.3712 95.3225 70.9764 107.744 55.6864 107.744C40.3965 107.744 28.0049 95.3192 28.0049 79.9966H45.3067V84.6941C47.8452 81.8154 51.5548 79.9966 55.6897 79.9966C62.4187 79.9966 68.029 84.8119 69.2753 91.1876C71.5554 88.3776 72.9424 84.8086 72.9948 80.9158V79.9966H83.3778L83.3712 79.9999Z" fill="#193C6B"/>
<path d="M55.6888 69.1001H53.9583V62.659C52.0479 62.659 50.4973 64.2095 50.4973 66.1265C50.4973 67.386 51.1679 68.4916 52.1755 69.0968H47.7036C47.2751 68.194 47.0363 67.1864 47.0363 66.1265C47.0363 64.9063 47.3503 63.7614 47.9032 62.7669C47.6251 62.6982 47.3372 62.659 47.0363 62.659C45.1259 62.659 43.5753 64.2095 43.5753 66.1265C43.5753 67.386 44.2492 68.4916 45.2534 69.0968H40.7816C40.3531 68.194 40.1143 67.1864 40.1143 66.1265C40.1143 62.2958 43.2122 59.1914 47.0363 59.1914C48.2957 59.1914 49.4799 59.5283 50.4973 60.1172C51.5147 59.5283 52.6989 59.1914 53.9583 59.1914C54.5569 59.1914 55.136 59.2666 55.6888 59.4106C56.2417 59.2666 56.8207 59.1914 57.416 59.1914C58.6788 59.1914 59.8597 59.5283 60.877 60.1172C61.8977 59.5283 63.0786 59.1914 64.3381 59.1914C68.1589 59.1914 71.2601 62.2958 71.2601 66.1265C71.2601 67.1897 71.0213 68.1972 70.5927 69.0968H66.1209C67.1252 68.4916 67.7991 67.386 67.7991 66.1265C67.7991 64.2095 66.2485 62.659 64.3381 62.659C64.0404 62.659 63.7492 62.6982 63.4712 62.7669C64.024 63.7614 64.3381 64.9063 64.3381 66.1265C64.3381 67.1897 64.0993 68.1972 63.6707 69.0968H59.1989C60.2032 68.4916 60.8738 67.386 60.8738 66.1265C60.8738 64.2095 59.3265 62.659 57.4128 62.659V69.1001H55.6855H55.6888Z" fill="#193C6B"/>
<path d="M40.7822 72.1229C40.7822 70.9682 41.7178 70.0293 42.8726 70.0293C44.0273 70.0293 44.9629 70.9682 44.9629 72.1229C44.9629 73.2777 44.0273 74.2198 42.8726 74.2198C41.7178 74.2198 40.7822 73.2809 40.7822 72.1229" fill="#193C6B"/>
<path d="M66.4131 72.1229C66.4131 70.9682 67.3487 70.0293 68.5034 70.0293C69.6582 70.0293 70.5938 70.9682 70.5938 72.1229C70.5938 73.2777 69.6582 74.2198 68.5034 74.2198C67.3487 74.2198 66.4131 73.2809 66.4131 72.1229" fill="#193C6B"/>
<path d="M60.0049 72.1229C60.0049 70.9682 60.9405 70.0293 62.0952 70.0293C63.25 70.0293 64.1856 70.9682 64.1856 72.1229C64.1856 73.2777 63.25 74.2198 62.0952 74.2198C60.9405 74.2198 60.0049 73.2809 60.0049 72.1229" fill="#193C6B"/>
<path d="M53.5986 72.1229C53.5986 70.9682 54.5342 70.0293 55.689 70.0293C56.8437 70.0293 57.7793 70.9682 57.7793 72.1229C57.7793 73.2777 56.8437 74.2198 55.689 74.2198C54.5342 74.2198 53.5986 73.2809 53.5986 72.1229" fill="#193C6B"/>
<path d="M47.1904 72.1229C47.1904 70.9682 48.126 70.0293 49.2808 70.0293C50.4355 70.0293 51.3711 70.9682 51.3711 72.1229C51.3711 73.2777 50.4355 74.2198 49.2808 74.2198C48.126 74.2198 47.1904 73.2809 47.1904 72.1229" fill="#193C6B"/>
<path d="M45.3076 75.3745H66.0704V78.8421H45.3076V75.3745Z" fill="#193C6B"/>
<path d="M55.1147 55.387V54.5659H53.96V53.4111H55.1147V52.2563H56.2695V53.4111H57.4242V54.5659H56.2695V55.387C56.9401 55.6258 57.4242 56.2669 57.4242 57.0226C57.4242 57.9811 56.6522 58.7564 55.6937 58.7564C54.7353 58.7564 53.9632 57.9778 53.9632 57.0226C53.9632 56.2669 54.4441 55.6258 55.118 55.387" fill="#193C6B"/>
<path d="M116.863 92.8626C113.693 94.7567 109.836 96.2484 106.787 96.3923C103.496 96.5559 99.8749 95.9703 98.8608 92.6728C97.3659 87.8281 100.346 81.6486 104.229 79.5812C109.604 76.7156 114.069 78.2661 115.6 79.8396L116.722 74.056C114.448 73.0517 111.331 72.6265 110.166 72.6265C102.054 72.6265 98.151 76.5847 95.7106 79.8691C92.9725 83.5623 89.3185 92.8659 96.113 99.2972C98.1379 101.214 101.838 102.392 105.341 102.15C110.87 101.764 114.255 100.187 117.487 97.8578C117.648 98.2078 117.834 98.5382 118.047 98.8425C119.46 100.877 122.038 101.898 125.764 101.898C131.96 101.898 136.049 99.4673 137.302 92.47L137.701 90.1409C137.746 89.9184 137.789 89.6665 137.828 89.395C137.93 88.695 137.995 87.8804 137.995 87.2164C137.995 81.9332 134.766 79.6335 129.032 79.6335C122.901 79.6335 118.914 82.0314 117.527 89.0254C120.89 86.8238 124.187 84.5601 128.472 84.5601C130.847 84.5601 131.57 85.512 131.57 87.2851C131.57 87.8641 131.541 88.4725 131.381 89.395C131.368 89.4703 131.354 89.5422 131.341 89.6175L130.913 91.9172C130.154 95.6595 129.133 96.9746 126.232 96.9746C124.023 96.9746 123.199 96.2222 123.199 94.315C123.166 93.6542 123.31 92.385 123.395 91.9172C123.48 91.4527 124.066 88.7244 124.066 88.7244C124.066 88.7244 120.069 90.9587 116.869 92.8691" fill="#193C6B"/>
<path d="M155.176 79.6893C152.877 79.6893 150.145 80.0459 147.747 81.9792L148.042 80.2454H142.058L138.31 101.335H144.783L147.512 86.0421C149.255 85.5155 151.885 85.0902 154.221 85.0902L155.173 79.686L155.176 79.6893Z" fill="#193C6B"/>
<path d="M170.2 79.6893C167.9 79.6893 165.205 80.0459 162.771 81.9792L163.098 80.2454H157.115L153.366 101.335H159.84L162.568 86.0421C164.312 85.5155 166.939 85.0902 169.274 85.0902L170.194 79.686L170.2 79.6893Z" fill="#193C6B"/>
<path d="M224.577 84.0137C226.186 84.0137 228.718 84.1773 231.348 84.439L232.006 80.5429C230.396 80.1176 227.632 79.6924 224.442 79.6924C219.513 79.6924 214.743 80.7392 214.743 86.3069C214.743 89.3852 216.487 91.2204 219.709 92.4929L221.289 93.1177C223.556 94.0696 224.05 94.3968 224.05 95.4109C224.05 97.2101 222.372 97.5732 220.301 97.5732C217.18 97.5732 215.931 97.3115 213.166 97.1839L212.509 101.044C213.631 101.371 216.984 101.862 219.941 101.862C225.957 101.862 230.527 100.063 230.527 94.5603C230.527 91.6129 229.045 89.974 225.368 88.5346L223.592 87.8477C221.852 87.128 221.161 86.7649 221.161 85.8849C221.161 84.0824 223.032 84.017 224.58 84.017" fill="#193C6B"/>
<path d="M205.54 89.6472L205.079 91.9371C204.356 95.6729 203.335 96.9814 200.443 96.9814C198.242 96.9814 197.385 96.229 197.385 94.3284C197.385 93.6087 197.421 92.8563 197.614 91.9371L198.075 89.6472C198.762 85.9114 199.848 84.6029 202.678 84.6029C205.046 84.6029 205.736 85.5516 205.736 87.3213C205.736 87.9429 205.736 88.5971 205.537 89.6472H205.54ZM203.234 79.6927C197.087 79.6927 193.109 82.0808 191.762 89.0584L191.333 91.0866C191.071 92.3656 191.071 93.347 191.071 94.3284C191.071 99.3727 194.127 101.895 199.943 101.895C206.158 101.895 210.238 99.4709 211.484 92.4932L211.88 90.1706C212.011 89.3822 212.174 88.1719 212.174 87.2526C212.174 81.9826 208.952 79.6895 203.231 79.6895" fill="#193C6B"/>
<path d="M183.22 89.0221H175.628L175.726 88.7277C176.122 86.4345 177.074 84.2755 180.231 84.2755C182.73 84.2755 183.449 85.5218 183.449 87.0888C183.449 87.5828 183.351 88.2403 183.22 89.0221V89.0221ZM180.819 79.6892C174.673 79.6892 170.299 82.244 169.053 89.6469L168.889 90.7592C168.657 92.035 168.493 93.2486 168.493 94.2954C168.493 99.6309 171.745 101.891 177.829 101.891C181.611 101.891 184.67 101.368 186.413 100.975L187.1 96.7162C183.126 96.9779 181.281 97.0793 179.079 97.0793C175.661 97.0793 174.741 96.2255 174.741 94.5211C174.741 94.0631 174.839 93.471 175.003 92.5224H188.909C189.338 90.3633 189.534 88.8913 189.534 87.4126C189.534 82.8263 187.035 79.6826 180.823 79.6826" fill="#193C6B"/>
</svg>
