<svg width="24" height="24" viewBox="0 0 24 24" fill="none" xmlns="http://www.w3.org/2000/svg">
<path d="M10.4151 7.95602C10.4151 7.09898 11.1 6.7692 12.2346 6.7692C13.8612 6.7692 15.9159 7.27484 17.5426 8.17592V3.01096C15.7662 2.28573 14.0111 2 12.2346 2C7.88952 2 5 4.32974 5 8.21996C5 14.2857 13.1334 13.3188 13.1334 15.9343C13.1334 16.9451 12.2774 17.2748 11.0787 17.2748C9.30222 17.2748 7.03335 16.5275 5.23538 15.5166V20.7474C7.22598 21.6265 9.23796 22 11.0787 22C15.5306 22 18.5914 19.7364 18.5914 15.8023C18.57 9.25286 10.4151 10.4176 10.4151 7.95602Z" fill="#6772E5"/>
</svg>
