<svg width="261" height="161" viewBox="0 0 261 161" fill="none" xmlns="http://www.w3.org/2000/svg">
<rect x="0.239746" y="0.912354" width="260" height="160" fill="#3579BE"/>
<g clip-path="url(#clip0_76760_30133)">
<path d="M68.7749 51.9093H44.5397H33.9295H28.2397V61.0791H33.9295V101.131H28.2397V110.301H33.9295H44.5397H68.7749H78.4726V101.131V94.8868H68.7749V101.131H44.5397V85.5291H66.3774V76.7618H44.5397V61.0791H68.7749V67.3236H78.4726V61.0791V51.9093H68.7749Z" fill="white"/>
<path d="M82.8652 51.9093H97.7428L113.56 93.1065L129.904 51.9093H135.621L112.495 110.301H106.116L82.8652 51.9093Z" fill="white"/>
<path d="M196.491 110.301H206.725L186.543 86.54C192.823 85.2071 201.68 81.4049 201.68 70.5085C201.68 55.4878 192.51 51.9004 180.415 51.9004H140.076V110.301H148.387V87.2557H176.809L196.491 110.301ZM148.378 59.0842H180.406C186.256 59.0842 192.894 59.8804 192.894 70.1148C192.894 81.1008 180.406 80.0809 180.406 80.0809H148.378V59.0842V59.0842Z" fill="white"/>
<path d="M221.039 66.0712C225.056 66.0712 228.312 62.8148 228.312 58.7979C228.312 54.781 225.056 51.5247 221.039 51.5247C217.022 51.5247 213.766 54.781 213.766 58.7979C213.766 62.8148 217.022 66.0712 221.039 66.0712Z" fill="white"/>
<path d="M229.225 106.991C228.017 105.372 227.463 103.359 227.463 101.346V71.1794H210.581V73.0403C210.581 73.0403 215.233 74.5522 215.233 80.1077V102.259C215.233 103.037 215.161 103.824 214.938 104.567C214.285 106.696 212.835 108.145 210.581 108.923V110.301H232.24V108.923C231.104 108.888 230.111 108.181 229.225 106.991V106.991Z" fill="white"/>
</g>
<defs>
<clipPath id="clip0_76760_30133">
<rect width="204" height="58.7765" fill="white" transform="translate(28.2397 51.5247)"/>
</clipPath>
</defs>
</svg>
