<svg width="140" height="72" viewBox="0 0 140 72" fill="none" xmlns="http://www.w3.org/2000/svg">
<g clip-path="url(#clip0)">
<path d="M80.4368 17.7704C80.8235 15.0278 83.0108 12.6002 85.7752 12.1384C88.4892 11.5798 91.4754 12.8906 92.8105 15.3393C93.9455 17.2012 93.813 19.4604 93.7916 21.5586C97.3577 21.0681 101.085 21.9918 103.892 24.2762C103.921 22.221 103.784 20.1586 103.971 18.1074C104.236 15.2391 106.488 12.6651 109.345 12.1566C112.163 11.5404 115.303 12.8974 116.66 15.4686C117.774 17.3662 117.581 19.6291 117.573 21.7344C119.547 21.5335 121.652 21.9238 123.188 23.2486C124.742 24.4731 125.39 26.4101 126.028 28.2039C126.636 26.6751 127.13 25.0209 128.298 23.8075C130.259 21.6807 133.654 21.0613 136.232 22.3789C138.298 23.3599 139.906 25.433 139.984 27.7675C140.13 29.6329 139.29 31.3515 138.605 33.0308C135.515 40.6679 132.432 48.3122 129.342 55.9494C128.73 57.4711 127.724 58.8782 126.313 59.7515C124.061 61.1876 121 60.937 118.809 59.5048C116.986 58.3193 115.855 56.1177 116.08 53.9407C116.296 51.9392 116.678 49.9596 117.065 47.9864C116.009 50.2672 113.771 52.0363 111.204 52.1115C108.511 52.38 105.93 50.8078 104.648 48.4844C101.035 52.0116 95.2882 53.2035 90.6697 51.0194C88.8186 51.8895 86.6342 52.2153 84.6907 51.4527C83.459 51.0298 82.4995 50.1204 81.6291 49.1898C77.1069 52.0116 71.299 53.0245 66.2083 51.2382C63.856 50.4365 61.7793 48.9682 60.1215 47.135C56.9668 50.6725 52.0329 52.1294 47.4144 52.1229C42.2904 52.119 37.2778 49.323 34.736 44.8438C33.9841 47.2284 32.9386 49.767 30.6793 51.0914C27.9617 52.7312 24.1235 52.4416 21.8141 50.207C21.0872 49.5299 20.5895 48.6603 20.0883 47.812C19.4083 49.1547 18.4735 50.4183 17.1272 51.1526C14.3703 52.7133 10.5567 52.3696 8.27988 50.1032C7.11623 48.99 6.40729 47.5073 5.88454 46.0035C4.18024 41.1699 2.44371 36.347 0.742988 31.5134C0.0129303 29.451 -0.431048 27.0485 0.639513 25.022C2.37604 21.5704 7.25945 20.4211 10.4572 22.4977C11.9427 23.3893 12.8919 24.9289 13.4214 26.5473C13.9549 25.1226 14.6997 23.7047 15.9639 22.7953C18.5845 20.8332 22.6523 21.0409 24.9541 23.4111C25.8389 24.2776 26.3577 25.4198 26.7909 26.5584C27.3817 24.6249 28.6925 22.8526 30.5866 22.047C33.4581 20.7401 37.0708 21.6603 39.0114 24.138C42.1443 21.8926 46.1759 20.9764 49.9677 21.7104C53.7272 22.3764 57.0355 24.718 59.2411 27.79C61.3643 24.7892 64.5327 22.4659 68.1779 21.7602C72.4315 20.8403 77.011 22.047 80.3229 24.8501C80.3684 22.4895 80.1825 20.1192 80.4368 17.7704ZM84.1135 19.1525C84.0956 27.5272 84.1175 35.9016 84.1032 44.2727C84.1067 45.204 84.168 46.2098 84.7659 46.9724C85.6535 48.2256 87.5551 48.4372 88.8154 47.6459C89.5244 47.2266 89.7897 46.4031 90.1259 45.7049C92.7933 49.3391 98.4899 48.9811 101.601 46.1242C106.27 42.0206 106.621 34.5056 103.399 29.4245C101.87 26.9325 99.0738 25.2497 96.1343 25.2103C93.9144 25.0846 91.7625 25.93 89.997 27.2329C89.9723 24.3438 90.0826 21.4469 89.9504 18.561C89.8999 16.8352 88.182 15.4281 86.4774 15.8434C84.9267 16.0805 84.0316 17.6809 84.1135 19.1525ZM109.482 16.0518C108.128 16.6136 107.591 18.1571 107.673 19.5249C107.687 28.0142 107.655 36.5035 107.687 44.9888C107.59 46.604 108.762 48.2933 110.466 48.3513C112.21 48.5911 113.778 47.0372 113.753 45.3222C113.832 36.9689 113.746 28.6121 113.796 20.2589C113.786 19.1239 113.85 17.8564 113.091 16.9219C112.285 15.8298 110.695 15.4968 109.482 16.0518ZM3.86122 27.1334C3.59269 28.6332 4.28014 30.0798 4.73808 31.4765C6.41016 36.1272 8.03569 40.7961 9.71851 45.4439C10.2234 46.9087 11.4228 48.3008 13.0842 48.3301C14.7419 48.5521 16.3281 47.4207 16.7864 45.8421C17.9321 42.4481 18.9705 39.0141 20.1055 35.6159C21.1549 38.8061 22.1718 42.0074 23.1993 45.2083C23.5467 46.2749 24.0479 47.4211 25.1006 47.9613C26.3899 48.5983 28.1153 48.5088 29.1966 47.503C29.9804 46.7834 30.385 45.7701 30.743 44.7962C32.4943 39.8262 34.2877 34.8708 36.0386 29.9011C36.4503 28.7983 36.6472 27.4628 35.9243 26.4424C34.6783 24.602 31.3485 24.8777 30.6535 27.0833C29.3216 31.1829 28.1547 35.3402 26.8582 39.4506C25.5231 35.376 24.3376 31.2516 22.9627 27.191C22.3934 25.2504 19.8011 24.6457 18.2544 25.7771C17.5347 26.3102 17.2232 27.195 16.9478 28.011C15.752 31.8242 14.574 35.6413 13.353 39.4466C12.1106 35.4616 10.9362 31.455 9.70455 27.4699C9.1818 24.6557 4.69905 24.4695 3.86122 27.1334ZM39.8521 28.4295C36.0106 32.368 35.4553 38.974 38.4343 43.5645C39.8664 45.7987 42.2152 47.3849 44.7824 48.0011C48.0657 48.7963 51.5925 48.2191 54.5858 46.7157C55.71 46.1138 56.8737 45.373 57.4573 44.195C58.3274 42.5162 56.4727 40.2347 54.6502 40.804C53.2323 41.2945 52.0329 42.2544 50.6114 42.7446C48.4954 43.5076 45.9067 43.2351 44.1705 41.7456C43.3001 41.0296 42.9353 39.9271 42.627 38.8852C47.0918 38.8279 51.5603 38.9425 56.0215 38.8347C57.1777 38.8566 58.1268 37.8576 58.1519 36.7226C58.4419 31.2588 54.0379 25.8881 48.5559 25.3045C45.3732 24.9099 42.0469 26.0879 39.8521 28.4295ZM64.6612 27.4771C60.9053 30.4414 59.4695 35.7623 60.7477 40.3095C61.514 43.2491 63.5405 45.8736 66.3011 47.1876C70.0459 49.0244 74.5863 48.5693 78.2523 46.7647C79.4485 46.1306 80.7121 45.3469 81.2778 44.0579C81.9939 42.3712 80.1571 40.2229 78.3773 40.8104C77.1137 41.258 76.0253 42.0779 74.7893 42.5788C72.6449 43.5208 69.9413 43.3379 68.0759 41.8667C67.1271 41.1466 66.7114 39.9944 66.3788 38.8945C70.8185 38.8193 75.2623 38.9375 79.7017 38.8412C80.8832 38.8877 81.8965 37.8995 81.9069 36.7215C82.183 31.6373 78.4088 26.6461 73.4502 25.4935C70.4182 24.7989 67.0852 25.5043 64.6612 27.4771ZM116.059 27.2157C115.687 28.1574 116.026 29.1742 116.374 30.0658C118.544 35.4079 120.685 40.7607 122.843 46.1063C122.009 48.1898 121.15 50.2629 120.312 52.3435C119.979 53.2386 119.621 54.2519 119.987 55.1935C120.534 56.6039 122.292 57.1914 123.678 56.8441C124.939 56.4718 125.58 55.2043 126.028 54.0728C129.307 45.8986 132.634 37.7387 135.917 29.5649C136.507 28.2974 136.2 26.611 134.893 25.9232C133.368 24.8959 131.066 25.6367 130.446 27.3736C128.888 31.1833 127.431 35.0355 125.906 38.8598C124.578 35.2542 123.245 31.6484 121.935 28.036C121.591 27.0765 121.044 26.0668 120.03 25.698C118.58 25.046 116.685 25.7513 116.059 27.2157ZM44.4029 31.5338C43.5507 32.3784 43.2106 33.56 42.9206 34.6882C46.1573 34.7025 49.3941 34.7025 52.6344 34.6882C52.3297 33.5675 52.0042 32.3859 51.1628 31.5374C49.4478 29.6361 46.1212 29.6397 44.4029 31.5338ZM67.9875 31.5016C67.121 32.3537 66.7701 33.546 66.4729 34.685C69.7097 34.7064 72.9504 34.7029 76.1871 34.6885C75.886 33.5929 75.5748 32.4364 74.7653 31.5914C73.0789 29.6505 69.7276 29.6146 67.9875 31.5016ZM93.7665 30.8177C92.6494 31.0576 91.6898 31.8127 91.0955 32.7762C89.6167 35.2933 89.7567 38.7058 91.4002 41.1115C92.7285 43.1234 95.8901 43.4671 97.6012 41.756C99.9754 39.361 100.075 35.236 98.2031 32.5112C97.2542 31.0934 95.4243 30.3916 93.7665 30.8177Z" fill="#1F8EED"/>
</g>
<defs>
<clipPath id="clip0">
<rect y="12" width="140" height="48.72" fill="white"/>
</clipPath>
</defs>
</svg>
