<?xml version="1.0" encoding="UTF-8"?>
<svg xmlns="http://www.w3.org/2000/svg" xmlns:xlink="http://www.w3.org/1999/xlink" width="30px" height="11px" viewBox="0 0 30 11" version="1.1">
<g id="surface1">
<path style=" stroke:none;fill-rule:evenodd;fill:rgb(58.039216%,61.176471%,67.45098%);fill-opacity:1;" d="M 15.648438 2.285156 C 15.648438 2.300781 15.65625 2.320312 15.664062 2.324219 C 15.671875 2.328125 15.6875 2.351562 15.695312 2.371094 C 15.707031 2.394531 15.722656 2.429688 15.734375 2.449219 C 15.761719 2.492188 15.804688 2.570312 15.878906 2.699219 C 15.886719 2.71875 15.898438 2.738281 15.90625 2.75 C 15.914062 2.761719 15.941406 2.804688 15.964844 2.847656 C 16.007812 2.9375 16.019531 2.957031 16.050781 3.003906 C 16.0625 3.023438 16.089844 3.066406 16.109375 3.105469 C 16.128906 3.144531 16.15625 3.195312 16.171875 3.214844 C 16.195312 3.257812 16.273438 3.394531 16.316406 3.476562 C 16.328125 3.5 16.351562 3.539062 16.363281 3.558594 C 16.398438 3.617188 16.492188 3.78125 16.511719 3.816406 C 16.523438 3.835938 16.566406 3.910156 16.605469 3.984375 C 16.695312 4.140625 16.703125 4.152344 16.820312 4.363281 L 16.914062 4.53125 L 16.867188 4.617188 C 16.839844 4.664062 16.808594 4.71875 16.800781 4.738281 C 16.78125 4.777344 16.6875 4.933594 16.648438 5.003906 C 16.632812 5.027344 16.605469 5.078125 16.582031 5.117188 C 16.5625 5.15625 16.519531 5.230469 16.488281 5.285156 C 16.460938 5.335938 16.421875 5.398438 16.410156 5.421875 C 16.394531 5.449219 16.375 5.484375 16.359375 5.507812 C 16.347656 5.527344 16.328125 5.5625 16.316406 5.582031 C 16.308594 5.605469 16.285156 5.644531 16.269531 5.671875 C 16.25 5.699219 16.230469 5.734375 16.226562 5.75 C 16.21875 5.761719 16.199219 5.796875 16.179688 5.824219 C 16.164062 5.851562 16.144531 5.890625 16.136719 5.90625 C 16.125 5.925781 16.113281 5.949219 16.105469 5.957031 C 16.097656 5.96875 16.074219 6.011719 16.050781 6.054688 C 16.027344 6.097656 16 6.148438 15.988281 6.167969 C 15.976562 6.1875 15.953125 6.226562 15.9375 6.253906 C 15.925781 6.28125 15.902344 6.324219 15.886719 6.351562 C 15.871094 6.375 15.847656 6.414062 15.835938 6.4375 C 15.796875 6.503906 15.707031 6.664062 15.703125 6.675781 C 15.699219 6.683594 15.6875 6.703125 15.671875 6.722656 C 15.609375 6.804688 15.507812 6.796875 16.9375 6.796875 L 18.222656 6.796875 L 18.246094 6.761719 C 18.257812 6.746094 18.273438 6.71875 18.28125 6.703125 C 18.289062 6.6875 18.308594 6.65625 18.324219 6.625 C 18.339844 6.597656 18.371094 6.542969 18.390625 6.503906 C 18.410156 6.46875 18.433594 6.425781 18.441406 6.417969 C 18.460938 6.394531 18.480469 6.359375 18.535156 6.25 C 18.558594 6.207031 18.597656 6.140625 18.621094 6.105469 C 18.640625 6.070312 18.675781 6.011719 18.695312 5.972656 C 18.714844 5.9375 18.742188 5.882812 18.757812 5.859375 C 18.773438 5.832031 18.792969 5.796875 18.804688 5.78125 C 18.8125 5.761719 18.832031 5.726562 18.847656 5.703125 C 18.859375 5.675781 18.878906 5.644531 18.890625 5.625 C 18.898438 5.609375 18.914062 5.585938 18.921875 5.578125 C 18.929688 5.566406 18.949219 5.527344 18.972656 5.488281 C 19.011719 5.414062 19.050781 5.339844 19.085938 5.28125 C 19.210938 5.070312 19.425781 4.683594 19.425781 4.675781 C 19.425781 4.667969 19.429688 4.660156 19.433594 4.65625 C 19.441406 4.65625 19.460938 4.625 19.476562 4.589844 L 19.511719 4.53125 L 19.484375 4.480469 C 19.4375 4.402344 19.320312 4.191406 19.226562 4.023438 C 19.175781 3.9375 19.132812 3.855469 19.125 3.84375 C 19.121094 3.835938 19.046875 3.710938 18.964844 3.566406 C 18.886719 3.425781 18.808594 3.289062 18.796875 3.269531 C 18.78125 3.246094 18.753906 3.195312 18.734375 3.15625 C 18.710938 3.117188 18.679688 3.0625 18.660156 3.03125 C 18.640625 3 18.609375 2.9375 18.585938 2.894531 C 18.566406 2.855469 18.539062 2.8125 18.53125 2.800781 C 18.523438 2.789062 18.511719 2.769531 18.507812 2.753906 C 18.503906 2.738281 18.492188 2.722656 18.488281 2.722656 C 18.480469 2.722656 18.472656 2.710938 18.46875 2.695312 C 18.464844 2.679688 18.429688 2.621094 18.394531 2.558594 C 18.304688 2.40625 18.296875 2.394531 18.257812 2.320312 L 18.222656 2.253906 L 15.648438 2.253906 L 15.648438 2.285156 "/>
<path style=" stroke:none;fill-rule:evenodd;fill:rgb(26.666667%,58.039216%,95.686275%);fill-opacity:1;" d="M 14.289062 0.0976562 C 14.261719 0.152344 14.222656 0.21875 14.207031 0.25 C 14.1875 0.277344 14.167969 0.3125 14.164062 0.324219 C 14.15625 0.339844 14.136719 0.371094 14.117188 0.402344 C 14.101562 0.429688 14.082031 0.464844 14.074219 0.484375 C 14.0625 0.5 14.039062 0.542969 14.019531 0.578125 C 13.996094 0.613281 13.976562 0.652344 13.972656 0.660156 C 13.96875 0.671875 13.949219 0.703125 13.929688 0.730469 C 13.914062 0.761719 13.894531 0.796875 13.882812 0.816406 C 13.871094 0.84375 13.75 1.054688 13.726562 1.09375 C 13.71875 1.105469 13.6875 1.164062 13.652344 1.222656 C 13.621094 1.28125 13.585938 1.34375 13.578125 1.355469 C 13.570312 1.371094 13.554688 1.394531 13.546875 1.414062 C 13.539062 1.429688 13.527344 1.453125 13.519531 1.464844 C 13.507812 1.476562 13.488281 1.511719 13.46875 1.550781 C 13.449219 1.585938 13.421875 1.636719 13.40625 1.660156 C 13.347656 1.757812 13.230469 1.96875 13.210938 2 C 13.191406 2.035156 13.101562 2.199219 13.054688 2.273438 C 13.042969 2.296875 13.011719 2.351562 12.988281 2.394531 C 12.964844 2.441406 12.941406 2.480469 12.9375 2.484375 C 12.933594 2.484375 12.921875 2.503906 12.914062 2.519531 C 12.90625 2.539062 12.890625 2.5625 12.882812 2.578125 C 12.875 2.59375 12.851562 2.632812 12.832031 2.667969 C 12.816406 2.703125 12.789062 2.75 12.777344 2.769531 C 12.746094 2.820312 12.703125 2.894531 12.660156 2.980469 C 12.636719 3.019531 12.613281 3.058594 12.609375 3.066406 C 12.601562 3.078125 12.585938 3.101562 12.578125 3.117188 C 12.527344 3.207031 12.507812 3.242188 12.484375 3.277344 C 12.472656 3.300781 12.457031 3.332031 12.449219 3.347656 C 12.4375 3.367188 12.425781 3.390625 12.417969 3.398438 C 12.410156 3.410156 12.386719 3.453125 12.363281 3.496094 C 12.320312 3.574219 12.304688 3.601562 12.257812 3.679688 C 12.207031 3.769531 11.988281 4.160156 11.96875 4.195312 C 11.945312 4.238281 11.914062 4.289062 11.832031 4.429688 C 11.785156 4.515625 11.777344 4.539062 11.789062 4.550781 C 11.804688 4.570312 11.808594 4.578125 11.886719 4.726562 C 11.910156 4.769531 11.9375 4.816406 11.945312 4.828125 C 11.953125 4.835938 11.960938 4.851562 11.960938 4.859375 C 11.960938 4.867188 11.96875 4.882812 11.980469 4.890625 C 11.988281 4.902344 12.003906 4.925781 12.015625 4.945312 C 12.054688 5.023438 12.117188 5.136719 12.128906 5.15625 C 12.136719 5.167969 12.152344 5.191406 12.160156 5.207031 C 12.167969 5.226562 12.1875 5.257812 12.199219 5.277344 C 12.21875 5.3125 12.238281 5.347656 12.289062 5.4375 C 12.296875 5.453125 12.3125 5.476562 12.320312 5.488281 C 12.328125 5.496094 12.351562 5.539062 12.371094 5.578125 C 12.414062 5.65625 12.457031 5.730469 12.488281 5.785156 C 12.5 5.808594 12.535156 5.863281 12.5625 5.914062 C 12.589844 5.960938 12.617188 6.011719 12.625 6.023438 C 12.632812 6.03125 12.703125 6.160156 12.78125 6.300781 C 12.863281 6.445312 12.957031 6.617188 12.996094 6.679688 L 13.0625 6.796875 L 14.355469 6.796875 C 15.285156 6.796875 15.648438 6.792969 15.648438 6.785156 C 15.648438 6.777344 15.640625 6.753906 15.628906 6.738281 C 15.613281 6.71875 15.601562 6.695312 15.597656 6.683594 C 15.589844 6.671875 15.574219 6.640625 15.558594 6.613281 C 15.523438 6.5625 15.484375 6.492188 15.449219 6.429688 C 15.441406 6.410156 15.398438 6.335938 15.355469 6.261719 C 15.316406 6.191406 15.277344 6.128906 15.273438 6.125 C 15.265625 6.125 15.261719 6.109375 15.261719 6.097656 C 15.261719 6.085938 15.257812 6.070312 15.25 6.066406 C 15.242188 6.0625 15.191406 5.972656 15.113281 5.832031 C 15.089844 5.789062 14.953125 5.554688 14.917969 5.488281 C 14.902344 5.464844 14.882812 5.433594 14.878906 5.421875 C 14.863281 5.394531 14.765625 5.222656 14.734375 5.167969 C 14.71875 5.144531 14.6875 5.085938 14.664062 5.042969 C 14.640625 4.996094 14.617188 4.957031 14.609375 4.953125 C 14.605469 4.949219 14.59375 4.929688 14.585938 4.914062 C 14.582031 4.898438 14.566406 4.871094 14.558594 4.855469 C 14.550781 4.84375 14.519531 4.785156 14.488281 4.730469 C 14.457031 4.671875 14.429688 4.625 14.425781 4.621094 C 14.386719 4.589844 14.375 4.53125 14.402344 4.484375 C 14.417969 4.457031 14.445312 4.40625 14.464844 4.367188 C 14.488281 4.328125 14.515625 4.28125 14.527344 4.265625 C 14.539062 4.25 14.550781 4.230469 14.550781 4.21875 C 14.550781 4.210938 14.558594 4.199219 14.570312 4.1875 C 14.578125 4.179688 14.585938 4.160156 14.585938 4.148438 C 14.585938 4.136719 14.59375 4.125 14.597656 4.125 C 14.601562 4.125 14.617188 4.105469 14.628906 4.082031 C 14.640625 4.0625 14.664062 4.019531 14.679688 3.992188 C 14.699219 3.964844 14.722656 3.921875 14.734375 3.894531 C 14.757812 3.847656 14.800781 3.773438 14.839844 3.710938 C 14.851562 3.691406 14.867188 3.660156 14.878906 3.640625 C 14.886719 3.625 14.90625 3.589844 14.921875 3.5625 C 14.949219 3.515625 14.980469 3.460938 15.015625 3.398438 C 15.023438 3.382812 15.039062 3.359375 15.046875 3.347656 C 15.050781 3.335938 15.078125 3.292969 15.101562 3.253906 C 15.144531 3.171875 15.160156 3.140625 15.203125 3.066406 C 15.25 2.988281 15.320312 2.859375 15.347656 2.808594 C 15.363281 2.777344 15.386719 2.738281 15.402344 2.71875 C 15.414062 2.695312 15.441406 2.652344 15.457031 2.617188 C 15.476562 2.582031 15.5 2.542969 15.507812 2.527344 C 15.515625 2.511719 15.53125 2.488281 15.539062 2.46875 C 15.546875 2.453125 15.558594 2.433594 15.5625 2.433594 C 15.566406 2.429688 15.589844 2.386719 15.613281 2.34375 C 15.636719 2.296875 15.660156 2.257812 15.664062 2.253906 C 15.667969 2.25 15.679688 2.230469 15.6875 2.214844 C 15.707031 2.179688 15.789062 2.03125 15.835938 1.953125 C 15.871094 1.898438 15.910156 1.824219 15.953125 1.746094 C 15.972656 1.707031 15.996094 1.664062 16.007812 1.65625 C 16.015625 1.644531 16.023438 1.628906 16.027344 1.621094 C 16.03125 1.609375 16.121094 1.445312 16.167969 1.367188 C 16.203125 1.308594 16.285156 1.160156 16.308594 1.113281 C 16.320312 1.09375 16.332031 1.074219 16.335938 1.070312 C 16.34375 1.066406 16.355469 1.046875 16.363281 1.023438 C 16.375 1.003906 16.394531 0.964844 16.410156 0.941406 C 16.421875 0.914062 16.441406 0.882812 16.453125 0.863281 C 16.460938 0.847656 16.476562 0.824219 16.484375 0.816406 C 16.492188 0.804688 16.511719 0.765625 16.535156 0.726562 C 16.574219 0.648438 16.617188 0.570312 16.648438 0.519531 C 16.679688 0.464844 16.816406 0.226562 16.835938 0.1875 C 16.847656 0.167969 16.875 0.121094 16.898438 0.0820312 C 16.917969 0.0429688 16.9375 0.0117188 16.9375 0.0078125 C 16.9375 0.00390625 16.355469 0 15.640625 0 L 14.34375 0 L 14.289062 0.0976562 M 11.367188 5.25 C 11.34375 5.300781 11.316406 5.34375 11.3125 5.347656 C 11.304688 5.351562 11.296875 5.367188 11.292969 5.378906 C 11.28125 5.402344 11.210938 5.53125 11.140625 5.652344 C 11.128906 5.675781 11.105469 5.710938 11.097656 5.730469 C 11.050781 5.808594 11.019531 5.867188 11 5.902344 C 10.988281 5.921875 10.96875 5.953125 10.957031 5.972656 C 10.949219 5.988281 10.929688 6.023438 10.914062 6.050781 C 10.898438 6.078125 10.875 6.121094 10.859375 6.144531 C 10.847656 6.171875 10.824219 6.210938 10.8125 6.230469 C 10.796875 6.253906 10.78125 6.285156 10.773438 6.300781 C 10.765625 6.320312 10.75 6.34375 10.742188 6.351562 C 10.734375 6.363281 10.710938 6.402344 10.691406 6.4375 C 10.671875 6.476562 10.644531 6.527344 10.628906 6.554688 C 10.613281 6.578125 10.59375 6.617188 10.585938 6.632812 C 10.578125 6.652344 10.554688 6.691406 10.535156 6.722656 C 10.515625 6.753906 10.5 6.78125 10.5 6.789062 C 10.5 6.792969 10.917969 6.796875 11.429688 6.796875 C 11.945312 6.796875 12.363281 6.796875 12.363281 6.792969 C 12.363281 6.785156 12.339844 6.746094 12.316406 6.699219 C 12.289062 6.65625 12.25 6.582031 12.226562 6.539062 C 12.199219 6.492188 12.175781 6.449219 12.167969 6.441406 C 12.160156 6.429688 12.148438 6.410156 12.144531 6.394531 C 12.140625 6.378906 12.132812 6.367188 12.125 6.367188 C 12.117188 6.367188 12.109375 6.355469 12.105469 6.339844 C 12.097656 6.3125 11.980469 6.097656 11.929688 6.023438 C 11.914062 5.996094 11.890625 5.953125 11.871094 5.921875 C 11.855469 5.886719 11.828125 5.84375 11.816406 5.816406 C 11.800781 5.792969 11.78125 5.757812 11.769531 5.734375 C 11.757812 5.714844 11.734375 5.675781 11.71875 5.644531 C 11.703125 5.617188 11.679688 5.585938 11.675781 5.570312 C 11.667969 5.554688 11.648438 5.523438 11.632812 5.492188 C 11.613281 5.464844 11.574219 5.390625 11.539062 5.328125 C 11.429688 5.125 11.433594 5.125 11.367188 5.25 "/>
<path style=" stroke:none;fill-rule:evenodd;fill:rgb(29.019608%,36.078431%,42.352941%);fill-opacity:1;" d="M 4.832031 8.582031 C 4.832031 8.722656 4.832031 8.785156 4.835938 8.710938 C 4.835938 8.640625 4.835938 8.523438 4.835938 8.449219 C 4.832031 8.378906 4.832031 8.4375 4.832031 8.582031 M 17.589844 9.632812 C 17.59375 10.355469 17.59375 10.730469 17.597656 10.472656 C 17.605469 9.234375 17.605469 8.328125 17.597656 8.328125 C 17.589844 8.328125 17.589844 8.914062 17.589844 9.632812 M 9.527344 9.628906 C 9.527344 10.339844 9.527344 10.925781 9.535156 10.929688 C 9.542969 10.933594 9.542969 10.019531 9.535156 8.796875 C 9.53125 8.542969 9.53125 8.914062 9.527344 9.628906 M 7.855469 9.890625 C 7.855469 10.464844 7.859375 10.695312 7.859375 10.410156 C 7.859375 10.125 7.859375 9.660156 7.859375 9.375 C 7.859375 9.089844 7.855469 9.320312 7.855469 9.890625 M 12.609375 10.09375 C 12.667969 10.09375 12.757812 10.09375 12.816406 10.09375 C 12.871094 10.089844 12.824219 10.089844 12.710938 10.089844 C 12.597656 10.089844 12.550781 10.089844 12.609375 10.09375 M 18.273438 10.09375 C 18.328125 10.09375 18.417969 10.09375 18.472656 10.09375 C 18.527344 10.089844 18.480469 10.089844 18.367188 10.089844 C 18.257812 10.089844 18.214844 10.089844 18.273438 10.09375 "/>
<path style=" stroke:none;fill-rule:evenodd;fill:rgb(29.803922%,32.941176%,42.352941%);fill-opacity:1;" d="M 28.824219 8.238281 C 28.816406 8.242188 28.792969 8.246094 28.769531 8.242188 C 28.75 8.242188 28.726562 8.242188 28.71875 8.246094 C 28.707031 8.253906 28.632812 8.265625 28.589844 8.265625 C 28.574219 8.265625 28.566406 8.269531 28.570312 8.277344 C 28.570312 8.28125 28.5625 8.28125 28.550781 8.277344 C 28.535156 8.277344 28.523438 8.277344 28.523438 8.285156 C 28.523438 8.289062 28.507812 8.296875 28.484375 8.296875 C 28.464844 8.300781 28.4375 8.308594 28.429688 8.316406 C 28.417969 8.324219 28.402344 8.332031 28.390625 8.335938 C 28.378906 8.335938 28.367188 8.34375 28.359375 8.355469 C 28.355469 8.363281 28.351562 8.367188 28.351562 8.359375 C 28.351562 8.332031 28.164062 8.460938 28.164062 8.492188 C 28.164062 8.507812 28.160156 8.507812 28.148438 8.492188 C 28.140625 8.476562 28.136719 8.476562 28.136719 8.496094 C 28.136719 8.511719 28.132812 8.519531 28.128906 8.515625 C 28.105469 8.488281 27.941406 8.730469 27.957031 8.761719 C 27.960938 8.769531 27.960938 8.773438 27.953125 8.769531 C 27.945312 8.761719 27.917969 8.839844 27.914062 8.898438 C 27.894531 9.0625 27.910156 9.269531 27.9375 9.277344 C 27.941406 9.28125 27.945312 9.296875 27.941406 9.3125 C 27.9375 9.332031 27.945312 9.351562 27.957031 9.367188 C 27.972656 9.378906 27.980469 9.398438 27.976562 9.40625 C 27.976562 9.414062 27.980469 9.425781 27.992188 9.4375 C 28.003906 9.449219 28.007812 9.460938 28.003906 9.464844 C 28 9.46875 28.003906 9.472656 28.007812 9.472656 C 28.015625 9.472656 28.027344 9.484375 28.03125 9.5 C 28.035156 9.511719 28.042969 9.523438 28.042969 9.519531 C 28.046875 9.515625 28.082031 9.546875 28.121094 9.585938 C 28.1875 9.648438 28.238281 9.679688 28.265625 9.675781 C 28.273438 9.675781 28.28125 9.679688 28.289062 9.6875 C 28.296875 9.707031 28.378906 9.742188 28.414062 9.742188 C 28.425781 9.746094 28.4375 9.75 28.4375 9.753906 C 28.4375 9.757812 28.453125 9.761719 28.46875 9.761719 C 28.515625 9.765625 28.53125 9.769531 28.539062 9.78125 C 28.542969 9.789062 28.574219 9.792969 28.609375 9.796875 C 28.640625 9.800781 28.679688 9.804688 28.691406 9.808594 C 28.703125 9.8125 28.71875 9.816406 28.726562 9.8125 C 28.738281 9.808594 28.753906 9.8125 28.765625 9.816406 C 28.777344 9.824219 28.816406 9.832031 28.851562 9.835938 C 29.011719 9.847656 29.070312 9.855469 29.089844 9.863281 C 29.101562 9.863281 29.121094 9.871094 29.132812 9.875 C 29.175781 9.882812 29.269531 9.917969 29.28125 9.929688 C 29.289062 9.9375 29.304688 9.941406 29.316406 9.941406 C 29.328125 9.941406 29.335938 9.949219 29.332031 9.953125 C 29.328125 9.960938 29.335938 9.976562 29.351562 9.988281 C 29.445312 10.074219 29.457031 10.277344 29.367188 10.339844 C 29.363281 10.34375 29.339844 10.363281 29.320312 10.378906 C 29.300781 10.394531 29.277344 10.410156 29.273438 10.410156 C 29.265625 10.410156 29.257812 10.410156 29.253906 10.414062 C 29.246094 10.414062 29.230469 10.425781 29.214844 10.441406 C 29.199219 10.453125 29.1875 10.460938 29.1875 10.453125 C 29.1875 10.4375 29.136719 10.449219 29.125 10.464844 C 29.105469 10.488281 28.765625 10.484375 28.738281 10.457031 C 28.738281 10.457031 28.722656 10.460938 28.710938 10.464844 C 28.691406 10.476562 28.6875 10.472656 28.6875 10.460938 C 28.6875 10.453125 28.675781 10.445312 28.660156 10.445312 C 28.644531 10.449219 28.628906 10.445312 28.625 10.441406 C 28.621094 10.4375 28.578125 10.417969 28.523438 10.394531 C 28.472656 10.375 28.421875 10.351562 28.410156 10.339844 C 28.398438 10.328125 28.386719 10.328125 28.386719 10.332031 C 28.386719 10.339844 28.382812 10.339844 28.378906 10.332031 C 28.355469 10.300781 28.238281 10.210938 28.230469 10.21875 C 28.226562 10.226562 28.226562 10.222656 28.226562 10.214844 C 28.234375 10.195312 28.152344 10.105469 28.136719 10.117188 C 28.128906 10.121094 28.128906 10.128906 28.132812 10.136719 C 28.136719 10.144531 28.136719 10.148438 28.128906 10.144531 C 28.113281 10.132812 28.058594 10.191406 28.070312 10.203125 C 28.078125 10.207031 28.074219 10.210938 28.070312 10.207031 C 28.050781 10.203125 27.988281 10.261719 27.996094 10.277344 C 28 10.28125 27.996094 10.285156 27.992188 10.285156 C 27.984375 10.285156 27.960938 10.304688 27.941406 10.324219 C 27.917969 10.347656 27.902344 10.363281 27.90625 10.363281 C 27.910156 10.363281 27.890625 10.386719 27.859375 10.417969 C 27.828125 10.449219 27.800781 10.480469 27.804688 10.492188 C 27.8125 10.542969 28.003906 10.75 28.03125 10.738281 C 28.039062 10.730469 28.039062 10.734375 28.035156 10.738281 C 28.023438 10.75 28.054688 10.785156 28.074219 10.785156 C 28.078125 10.785156 28.089844 10.792969 28.101562 10.804688 C 28.109375 10.8125 28.117188 10.820312 28.121094 10.816406 C 28.125 10.8125 28.144531 10.824219 28.167969 10.839844 C 28.191406 10.859375 28.210938 10.867188 28.214844 10.863281 C 28.222656 10.859375 28.226562 10.863281 28.226562 10.871094 C 28.226562 10.878906 28.230469 10.886719 28.238281 10.886719 C 28.246094 10.886719 28.246094 10.878906 28.242188 10.871094 C 28.238281 10.859375 28.242188 10.863281 28.253906 10.875 C 28.261719 10.886719 28.273438 10.894531 28.28125 10.890625 C 28.285156 10.886719 28.289062 10.886719 28.289062 10.894531 C 28.289062 10.910156 28.421875 10.957031 28.441406 10.953125 C 28.449219 10.949219 28.457031 10.953125 28.460938 10.960938 C 28.464844 10.964844 28.492188 10.976562 28.519531 10.980469 C 28.546875 10.984375 28.585938 10.992188 28.605469 11 C 28.625 11.007812 28.65625 11.011719 28.675781 11.011719 C 28.691406 11.007812 28.710938 11.011719 28.71875 11.015625 C 28.738281 11.027344 29.125 11.023438 29.132812 11.011719 C 29.132812 11.007812 29.152344 11.007812 29.171875 11.011719 C 29.195312 11.015625 29.203125 11.011719 29.195312 11 C 29.1875 10.988281 29.1875 10.988281 29.199219 10.992188 C 29.210938 11 29.3125 10.984375 29.363281 10.964844 C 29.382812 10.957031 29.394531 10.953125 29.421875 10.949219 C 29.433594 10.949219 29.433594 10.941406 29.429688 10.933594 C 29.425781 10.925781 29.425781 10.921875 29.433594 10.929688 C 29.449219 10.9375 29.507812 10.914062 29.542969 10.886719 C 29.554688 10.875 29.5625 10.875 29.558594 10.882812 C 29.546875 10.902344 29.6875 10.824219 29.707031 10.800781 C 29.714844 10.792969 29.726562 10.785156 29.734375 10.785156 C 29.746094 10.785156 29.769531 10.746094 29.765625 10.726562 C 29.761719 10.722656 29.769531 10.722656 29.773438 10.726562 C 29.792969 10.738281 29.851562 10.671875 29.84375 10.65625 C 29.839844 10.648438 29.847656 10.640625 29.859375 10.636719 C 29.875 10.632812 29.882812 10.621094 29.878906 10.617188 C 29.875 10.609375 29.878906 10.605469 29.886719 10.605469 C 29.894531 10.605469 29.894531 10.597656 29.890625 10.585938 C 29.886719 10.570312 29.886719 10.566406 29.894531 10.570312 C 29.902344 10.574219 29.921875 10.550781 29.9375 10.511719 C 29.953125 10.476562 29.972656 10.425781 29.980469 10.40625 C 30.003906 10.351562 30.003906 10.324219 29.984375 10.324219 C 29.972656 10.324219 29.972656 10.324219 29.984375 10.316406 C 30.035156 10.28125 29.980469 9.855469 29.914062 9.78125 C 29.902344 9.769531 29.894531 9.75 29.894531 9.738281 C 29.894531 9.730469 29.886719 9.722656 29.878906 9.722656 C 29.867188 9.726562 29.863281 9.722656 29.867188 9.714844 C 29.871094 9.707031 29.859375 9.691406 29.84375 9.675781 C 29.824219 9.664062 29.8125 9.652344 29.820312 9.652344 C 29.824219 9.652344 29.820312 9.640625 29.8125 9.632812 C 29.804688 9.621094 29.792969 9.617188 29.785156 9.621094 C 29.78125 9.621094 29.765625 9.609375 29.753906 9.59375 C 29.742188 9.574219 29.730469 9.5625 29.726562 9.566406 C 29.722656 9.570312 29.691406 9.550781 29.65625 9.511719 C 29.644531 9.503906 29.636719 9.5 29.636719 9.507812 C 29.636719 9.511719 29.632812 9.511719 29.628906 9.503906 C 29.621094 9.492188 29.558594 9.457031 29.539062 9.453125 C 29.535156 9.453125 29.519531 9.445312 29.503906 9.4375 C 29.488281 9.425781 29.476562 9.425781 29.476562 9.429688 C 29.476562 9.433594 29.464844 9.429688 29.457031 9.421875 C 29.445312 9.414062 29.433594 9.410156 29.429688 9.414062 C 29.425781 9.417969 29.40625 9.414062 29.390625 9.402344 C 29.375 9.390625 29.339844 9.382812 29.308594 9.378906 C 29.28125 9.375 29.238281 9.367188 29.214844 9.359375 C 29.191406 9.347656 29.167969 9.34375 29.15625 9.347656 C 29.148438 9.351562 29.136719 9.351562 29.132812 9.34375 C 29.121094 9.328125 29.0625 9.328125 29.0625 9.347656 C 29.0625 9.359375 29.058594 9.359375 29.050781 9.347656 C 29.046875 9.335938 29.011719 9.328125 28.972656 9.324219 C 28.890625 9.316406 28.808594 9.308594 28.800781 9.304688 C 28.796875 9.304688 28.789062 9.300781 28.78125 9.300781 C 28.714844 9.289062 28.667969 9.277344 28.621094 9.25 C 28.589844 9.230469 28.558594 9.21875 28.554688 9.21875 C 28.546875 9.21875 28.542969 9.210938 28.542969 9.203125 C 28.542969 9.195312 28.539062 9.1875 28.53125 9.183594 C 28.484375 9.148438 28.460938 9.015625 28.492188 8.957031 C 28.5 8.9375 28.519531 8.902344 28.53125 8.878906 C 28.539062 8.859375 28.550781 8.851562 28.550781 8.859375 C 28.550781 8.875 28.554688 8.871094 28.570312 8.851562 C 28.582031 8.835938 28.59375 8.824219 28.597656 8.828125 C 28.605469 8.832031 28.617188 8.828125 28.625 8.816406 C 28.632812 8.804688 28.648438 8.796875 28.65625 8.796875 C 28.667969 8.796875 28.675781 8.792969 28.675781 8.785156 C 28.675781 8.777344 28.683594 8.777344 28.691406 8.78125 C 28.703125 8.785156 28.71875 8.78125 28.726562 8.777344 C 28.769531 8.75 28.960938 8.738281 29.054688 8.757812 C 29.097656 8.769531 29.140625 8.777344 29.15625 8.777344 C 29.179688 8.78125 29.21875 8.796875 29.273438 8.820312 C 29.285156 8.824219 29.296875 8.828125 29.300781 8.828125 C 29.320312 8.832031 29.449219 8.90625 29.449219 8.914062 C 29.449219 8.953125 29.53125 8.964844 29.554688 8.933594 C 29.570312 8.914062 29.585938 8.898438 29.59375 8.898438 C 29.601562 8.898438 29.636719 8.871094 29.671875 8.839844 C 29.703125 8.804688 29.765625 8.75 29.804688 8.71875 C 29.839844 8.683594 29.871094 8.648438 29.871094 8.636719 C 29.867188 8.617188 29.765625 8.511719 29.726562 8.492188 C 29.710938 8.484375 29.703125 8.472656 29.707031 8.464844 C 29.714844 8.453125 29.695312 8.449219 29.683594 8.457031 C 29.679688 8.457031 29.667969 8.449219 29.65625 8.433594 C 29.648438 8.421875 29.621094 8.402344 29.597656 8.394531 C 29.574219 8.386719 29.558594 8.375 29.558594 8.367188 C 29.5625 8.359375 29.550781 8.351562 29.539062 8.351562 C 29.523438 8.351562 29.511719 8.347656 29.503906 8.339844 C 29.5 8.332031 29.488281 8.328125 29.480469 8.332031 C 29.46875 8.335938 29.464844 8.332031 29.46875 8.328125 C 29.476562 8.316406 29.4375 8.296875 29.417969 8.304688 C 29.410156 8.304688 29.394531 8.300781 29.378906 8.289062 C 29.363281 8.28125 29.324219 8.273438 29.296875 8.269531 C 29.265625 8.269531 29.234375 8.261719 29.226562 8.257812 C 29.199219 8.238281 28.847656 8.222656 28.824219 8.238281 M 24.09375 8.273438 C 24.089844 8.277344 24.074219 8.28125 24.058594 8.28125 C 24 8.285156 23.875 8.304688 23.875 8.3125 C 23.875 8.316406 23.863281 8.320312 23.851562 8.324219 C 23.824219 8.324219 23.738281 8.355469 23.667969 8.386719 C 23.640625 8.398438 23.613281 8.40625 23.609375 8.40625 C 23.605469 8.402344 23.601562 8.410156 23.601562 8.414062 C 23.601562 8.421875 23.59375 8.429688 23.582031 8.429688 C 23.574219 8.429688 23.558594 8.4375 23.550781 8.445312 C 23.542969 8.457031 23.53125 8.464844 23.523438 8.460938 C 23.515625 8.457031 23.511719 8.457031 23.511719 8.464844 C 23.511719 8.46875 23.492188 8.488281 23.464844 8.5 C 23.402344 8.539062 23.285156 8.644531 23.292969 8.660156 C 23.296875 8.664062 23.292969 8.671875 23.285156 8.671875 C 23.273438 8.671875 23.253906 8.683594 23.238281 8.703125 C 23.222656 8.71875 23.210938 8.734375 23.214844 8.734375 C 23.21875 8.734375 23.207031 8.75 23.1875 8.769531 C 23.167969 8.792969 23.144531 8.828125 23.136719 8.851562 C 23.128906 8.875 23.113281 8.898438 23.105469 8.902344 C 23.09375 8.910156 23.085938 8.917969 23.085938 8.925781 C 23.085938 8.929688 23.070312 8.964844 23.050781 9.003906 C 23.027344 9.039062 23.015625 9.070312 23.019531 9.074219 C 23.023438 9.078125 23.019531 9.089844 23.011719 9.097656 C 23.003906 9.109375 23 9.117188 23.003906 9.117188 C 23.007812 9.117188 23 9.136719 22.988281 9.160156 C 22.976562 9.183594 22.964844 9.210938 22.96875 9.226562 C 22.96875 9.238281 22.964844 9.265625 22.953125 9.285156 C 22.945312 9.304688 22.9375 9.332031 22.941406 9.347656 C 22.945312 9.359375 22.945312 9.367188 22.9375 9.363281 C 22.921875 9.355469 22.914062 9.804688 22.929688 9.910156 C 22.949219 10.027344 22.960938 10.082031 22.980469 10.109375 C 22.992188 10.121094 22.988281 10.125 22.976562 10.117188 C 22.960938 10.105469 22.960938 10.109375 22.976562 10.136719 C 22.984375 10.152344 22.992188 10.167969 22.996094 10.171875 C 22.996094 10.175781 23 10.1875 23.003906 10.199219 C 23.011719 10.210938 23.015625 10.230469 23.019531 10.238281 C 23.023438 10.265625 23.042969 10.304688 23.050781 10.3125 C 23.058594 10.316406 23.0625 10.332031 23.066406 10.347656 C 23.066406 10.363281 23.078125 10.386719 23.089844 10.398438 C 23.101562 10.410156 23.113281 10.429688 23.113281 10.4375 C 23.113281 10.441406 23.121094 10.460938 23.132812 10.476562 C 23.144531 10.488281 23.167969 10.519531 23.179688 10.539062 C 23.226562 10.601562 23.414062 10.777344 23.429688 10.773438 C 23.4375 10.769531 23.445312 10.777344 23.453125 10.789062 C 23.457031 10.800781 23.46875 10.804688 23.476562 10.800781 C 23.480469 10.796875 23.488281 10.800781 23.488281 10.808594 C 23.488281 10.820312 23.492188 10.824219 23.496094 10.816406 C 23.5 10.8125 23.515625 10.820312 23.535156 10.835938 C 23.550781 10.847656 23.574219 10.859375 23.582031 10.859375 C 23.59375 10.859375 23.601562 10.867188 23.601562 10.871094 C 23.601562 10.878906 23.605469 10.882812 23.609375 10.882812 C 23.613281 10.882812 23.636719 10.890625 23.65625 10.898438 C 23.675781 10.90625 23.703125 10.917969 23.710938 10.917969 C 23.746094 10.925781 23.765625 10.933594 23.804688 10.949219 C 23.902344 10.988281 24.386719 11.03125 24.40625 11 C 24.410156 10.992188 24.425781 10.992188 24.445312 10.996094 C 24.460938 11 24.5 10.996094 24.535156 10.988281 C 24.566406 10.980469 24.617188 10.972656 24.644531 10.96875 C 24.699219 10.964844 24.738281 10.949219 24.738281 10.9375 C 24.738281 10.933594 24.753906 10.929688 24.773438 10.925781 C 24.816406 10.925781 24.945312 10.867188 24.976562 10.835938 C 24.988281 10.828125 25 10.824219 25 10.828125 C 25 10.835938 25.003906 10.835938 25.007812 10.828125 C 25.015625 10.820312 25.039062 10.804688 25.0625 10.792969 C 25.089844 10.78125 25.132812 10.746094 25.164062 10.71875 C 25.191406 10.6875 25.210938 10.671875 25.207031 10.683594 C 25.203125 10.691406 25.210938 10.683594 25.230469 10.660156 C 25.25 10.636719 25.265625 10.617188 25.265625 10.609375 C 25.265625 10.59375 25.183594 10.503906 25.171875 10.511719 C 25.164062 10.515625 25.164062 10.515625 25.167969 10.507812 C 25.171875 10.5 25.152344 10.46875 25.121094 10.433594 C 25.09375 10.402344 25.0625 10.367188 25.050781 10.355469 C 25.042969 10.347656 25.03125 10.339844 25.023438 10.347656 C 25.015625 10.351562 25.011719 10.347656 25.015625 10.339844 C 25.03125 10.316406 24.910156 10.195312 24.890625 10.210938 C 24.882812 10.21875 24.878906 10.230469 24.882812 10.238281 C 24.886719 10.242188 24.878906 10.25 24.863281 10.25 C 24.851562 10.25 24.835938 10.253906 24.835938 10.257812 C 24.828125 10.273438 24.695312 10.363281 24.679688 10.363281 C 24.671875 10.363281 24.648438 10.371094 24.628906 10.382812 C 24.578125 10.40625 24.546875 10.417969 24.527344 10.414062 C 24.519531 10.414062 24.511719 10.417969 24.511719 10.421875 C 24.511719 10.429688 24.503906 10.433594 24.492188 10.4375 C 24.480469 10.4375 24.445312 10.441406 24.417969 10.445312 C 24.34375 10.457031 24.207031 10.457031 24.113281 10.441406 C 24.066406 10.433594 24.019531 10.425781 24.007812 10.425781 C 23.996094 10.425781 23.988281 10.421875 23.988281 10.414062 C 23.988281 10.40625 23.976562 10.402344 23.964844 10.402344 C 23.941406 10.402344 23.84375 10.355469 23.789062 10.3125 C 23.769531 10.300781 23.746094 10.285156 23.738281 10.285156 C 23.730469 10.285156 23.726562 10.277344 23.726562 10.269531 C 23.726562 10.257812 23.707031 10.238281 23.6875 10.21875 C 23.667969 10.203125 23.648438 10.175781 23.644531 10.160156 C 23.640625 10.148438 23.628906 10.132812 23.625 10.132812 C 23.617188 10.132812 23.601562 10.113281 23.59375 10.082031 C 23.582031 10.054688 23.566406 10.03125 23.5625 10.03125 C 23.554688 10.03125 23.550781 10.027344 23.550781 10.023438 C 23.558594 10.007812 23.507812 9.839844 23.5 9.839844 C 23.492188 9.839844 23.492188 9.828125 23.492188 9.65625 C 23.488281 9.511719 23.492188 9.460938 23.503906 9.46875 C 23.507812 9.472656 23.511719 9.464844 23.511719 9.453125 C 23.511719 9.421875 23.535156 9.351562 23.574219 9.269531 C 23.589844 9.230469 23.605469 9.191406 23.601562 9.183594 C 23.601562 9.171875 23.605469 9.167969 23.613281 9.167969 C 23.625 9.171875 23.632812 9.164062 23.632812 9.15625 C 23.632812 9.144531 23.648438 9.117188 23.671875 9.097656 C 23.78125 8.984375 23.855469 8.921875 23.84375 8.933594 C 23.839844 8.945312 23.84375 8.949219 23.855469 8.941406 C 23.867188 8.9375 23.875 8.929688 23.875 8.925781 C 23.875 8.921875 23.898438 8.910156 23.929688 8.898438 C 23.957031 8.890625 23.992188 8.875 24.003906 8.867188 C 24.015625 8.855469 24.035156 8.851562 24.046875 8.855469 C 24.054688 8.859375 24.0625 8.859375 24.0625 8.851562 C 24.0625 8.84375 24.070312 8.839844 24.078125 8.84375 C 24.089844 8.847656 24.101562 8.84375 24.105469 8.839844 C 24.109375 8.832031 24.171875 8.828125 24.242188 8.832031 C 24.320312 8.832031 24.378906 8.828125 24.382812 8.820312 C 24.386719 8.8125 24.394531 8.8125 24.398438 8.820312 C 24.402344 8.828125 24.425781 8.835938 24.449219 8.839844 C 24.472656 8.84375 24.511719 8.851562 24.539062 8.863281 C 24.5625 8.871094 24.585938 8.878906 24.589844 8.875 C 24.597656 8.875 24.625 8.886719 24.65625 8.90625 C 24.6875 8.925781 24.710938 8.933594 24.710938 8.929688 C 24.710938 8.925781 24.726562 8.933594 24.742188 8.949219 C 24.761719 8.964844 24.78125 8.972656 24.789062 8.96875 C 24.796875 8.964844 24.800781 8.964844 24.796875 8.972656 C 24.792969 8.980469 24.800781 8.996094 24.820312 9.011719 C 24.851562 9.042969 24.875 9.046875 24.875 9.027344 C 24.875 9.019531 24.878906 9.015625 24.886719 9.015625 C 24.902344 9.023438 25.058594 8.859375 25.050781 8.84375 C 25.050781 8.835938 25.050781 8.832031 25.054688 8.839844 C 25.066406 8.847656 25.226562 8.691406 25.226562 8.671875 C 25.226562 8.664062 25.191406 8.628906 25.148438 8.59375 C 25.105469 8.554688 25.066406 8.519531 25.0625 8.515625 C 25.054688 8.507812 25.046875 8.503906 25.039062 8.511719 C 25.03125 8.515625 25.023438 8.511719 25.023438 8.503906 C 25.023438 8.496094 25.019531 8.492188 25.011719 8.5 C 25.003906 8.503906 25 8.5 25.003906 8.488281 C 25.003906 8.480469 25 8.472656 24.992188 8.476562 C 24.980469 8.476562 24.976562 8.472656 24.976562 8.464844 C 24.976562 8.460938 24.964844 8.453125 24.949219 8.453125 C 24.9375 8.453125 24.925781 8.449219 24.925781 8.441406 C 24.925781 8.425781 24.851562 8.394531 24.832031 8.398438 C 24.828125 8.402344 24.828125 8.398438 24.828125 8.390625 C 24.832031 8.386719 24.824219 8.375 24.804688 8.367188 C 24.785156 8.359375 24.777344 8.355469 24.78125 8.363281 C 24.785156 8.371094 24.769531 8.367188 24.746094 8.351562 C 24.71875 8.335938 24.695312 8.328125 24.6875 8.332031 C 24.679688 8.335938 24.675781 8.335938 24.675781 8.328125 C 24.675781 8.320312 24.65625 8.3125 24.632812 8.308594 C 24.613281 8.308594 24.550781 8.292969 24.5 8.28125 C 24.4375 8.269531 24.40625 8.265625 24.402344 8.273438 C 24.398438 8.28125 24.390625 8.285156 24.382812 8.277344 C 24.367188 8.269531 24.101562 8.265625 24.09375 8.273438 M 0 9.628906 L 0 10.9375 L 0.730469 10.9375 C 1.132812 10.9375 1.460938 10.929688 1.460938 10.925781 C 1.460938 10.921875 1.488281 10.917969 1.523438 10.921875 C 1.554688 10.921875 1.589844 10.917969 1.601562 10.914062 C 1.609375 10.910156 1.632812 10.90625 1.648438 10.902344 C 1.664062 10.898438 1.691406 10.890625 1.703125 10.882812 C 1.714844 10.878906 1.730469 10.875 1.738281 10.878906 C 1.746094 10.882812 1.75 10.875 1.75 10.863281 C 1.75 10.851562 1.753906 10.847656 1.757812 10.855469 C 1.761719 10.867188 1.769531 10.871094 1.78125 10.863281 C 1.789062 10.855469 1.796875 10.851562 1.800781 10.851562 C 1.863281 10.871094 2.199219 10.554688 2.164062 10.507812 C 2.164062 10.503906 2.171875 10.492188 2.179688 10.484375 C 2.191406 10.472656 2.199219 10.449219 2.203125 10.433594 C 2.203125 10.390625 2.203125 10.386719 2.21875 10.363281 C 2.238281 10.328125 2.238281 10.097656 2.214844 10.019531 C 2.203125 9.980469 2.195312 9.941406 2.199219 9.933594 C 2.199219 9.921875 2.195312 9.917969 2.191406 9.921875 C 2.183594 9.925781 2.171875 9.902344 2.164062 9.871094 C 2.15625 9.839844 2.140625 9.820312 2.136719 9.824219 C 2.128906 9.828125 2.125 9.820312 2.125 9.8125 C 2.125 9.785156 1.953125 9.613281 1.925781 9.613281 C 1.890625 9.613281 1.839844 9.566406 1.855469 9.550781 C 1.867188 9.542969 1.875 9.539062 1.878906 9.546875 C 1.882812 9.550781 1.886719 9.542969 1.886719 9.53125 C 1.886719 9.519531 1.894531 9.511719 1.898438 9.515625 C 1.90625 9.519531 1.917969 9.515625 1.929688 9.503906 C 1.9375 9.496094 1.949219 9.488281 1.953125 9.492188 C 1.957031 9.496094 1.972656 9.484375 2.039062 9.40625 C 2.082031 9.359375 2.148438 9.210938 2.132812 9.195312 C 2.128906 9.191406 2.132812 9.179688 2.140625 9.171875 C 2.160156 9.148438 2.160156 8.894531 2.140625 8.890625 C 2.132812 8.886719 2.128906 8.875 2.132812 8.867188 C 2.144531 8.839844 2.125 8.78125 2.113281 8.792969 C 2.105469 8.796875 2.105469 8.789062 2.109375 8.777344 C 2.113281 8.765625 2.113281 8.757812 2.105469 8.761719 C 2.097656 8.765625 2.09375 8.753906 2.09375 8.738281 C 2.089844 8.71875 2.082031 8.695312 2.074219 8.691406 C 2.0625 8.683594 2.046875 8.660156 2.035156 8.636719 C 2.023438 8.617188 2.011719 8.601562 2.003906 8.601562 C 1.992188 8.605469 1.988281 8.601562 1.992188 8.59375 C 1.996094 8.574219 1.890625 8.484375 1.8125 8.441406 C 1.769531 8.421875 1.738281 8.40625 1.738281 8.410156 C 1.738281 8.414062 1.730469 8.410156 1.71875 8.402344 C 1.707031 8.394531 1.691406 8.390625 1.683594 8.394531 C 1.671875 8.398438 1.65625 8.394531 1.648438 8.382812 C 1.636719 8.367188 1.621094 8.363281 1.507812 8.34375 C 1.480469 8.339844 1.128906 8.332031 0.726562 8.332031 L 0 8.324219 L 0 9.628906 M 2.660156 8.335938 C 2.652344 8.339844 2.648438 8.925781 2.648438 9.640625 L 2.648438 10.9375 L 4.613281 10.9375 L 4.613281 10.390625 L 3.226562 10.390625 L 3.226562 9.878906 L 3.847656 9.878906 C 4.1875 9.878906 4.472656 9.878906 4.476562 9.878906 C 4.480469 9.878906 4.484375 9.761719 4.488281 9.617188 L 4.488281 9.359375 L 3.226562 9.359375 L 3.226562 8.875 L 4.5625 8.875 L 4.5625 8.328125 L 3.613281 8.328125 C 3.09375 8.328125 2.664062 8.332031 2.660156 8.335938 M 4.835938 8.574219 C 4.835938 8.710938 4.835938 8.828125 4.828125 8.839844 C 4.824219 8.859375 4.863281 8.859375 5.210938 8.859375 L 5.601562 8.859375 L 5.601562 10.9375 L 6.175781 10.9375 L 6.175781 8.859375 L 6.960938 8.859375 L 6.960938 8.328125 L 5.898438 8.328125 L 4.835938 8.324219 L 4.835938 8.574219 M 7.0625 8.59375 L 7.0625 8.859375 L 7.863281 8.859375 L 7.855469 10.9375 L 8.425781 10.9375 L 8.425781 8.859375 L 9.199219 8.859375 L 9.199219 8.328125 L 7.0625 8.328125 L 7.0625 8.59375 M 9.53125 9.632812 L 9.53125 10.9375 L 11.5 10.9375 L 11.5 10.390625 L 10.113281 10.390625 L 10.113281 9.878906 L 11.375 9.878906 L 11.367188 9.363281 L 10.742188 9.359375 L 10.113281 9.355469 L 10.113281 8.875 L 11.4375 8.875 L 11.433594 8.601562 L 11.429688 8.332031 L 10.480469 8.328125 L 9.53125 8.328125 L 9.53125 9.632812 M 11.925781 9.632812 L 11.925781 10.9375 L 12.511719 10.9375 L 12.511719 10.082031 L 12.910156 10.082031 L 12.941406 10.121094 C 12.960938 10.140625 12.976562 10.164062 12.976562 10.167969 C 12.980469 10.175781 12.984375 10.175781 12.992188 10.175781 C 12.996094 10.171875 13 10.175781 12.996094 10.183594 C 12.988281 10.191406 13.09375 10.332031 13.144531 10.382812 C 13.15625 10.398438 13.167969 10.410156 13.167969 10.414062 C 13.167969 10.421875 13.183594 10.441406 13.203125 10.46875 C 13.222656 10.492188 13.246094 10.523438 13.257812 10.539062 C 13.269531 10.554688 13.296875 10.585938 13.316406 10.605469 C 13.335938 10.628906 13.351562 10.652344 13.351562 10.664062 C 13.351562 10.675781 13.355469 10.679688 13.363281 10.675781 C 13.371094 10.671875 13.375 10.675781 13.375 10.683594 C 13.375 10.691406 13.394531 10.714844 13.414062 10.734375 C 13.4375 10.753906 13.457031 10.777344 13.457031 10.789062 C 13.457031 10.796875 13.46875 10.816406 13.484375 10.832031 C 13.496094 10.847656 13.519531 10.875 13.539062 10.898438 L 13.570312 10.9375 L 13.890625 10.9375 C 14.230469 10.9375 14.253906 10.933594 14.199219 10.875 C 14.1875 10.867188 14.1875 10.859375 14.191406 10.859375 C 14.195312 10.859375 14.1875 10.847656 14.171875 10.832031 C 14.15625 10.816406 14.136719 10.804688 14.132812 10.808594 C 14.125 10.808594 14.121094 10.808594 14.128906 10.800781 C 14.140625 10.789062 14.0625 10.691406 14.050781 10.703125 C 14.042969 10.707031 14.039062 10.699219 14.046875 10.691406 C 14.050781 10.679688 14.042969 10.664062 14.027344 10.652344 C 14.011719 10.644531 14 10.628906 14 10.621094 C 14 10.613281 13.992188 10.601562 13.984375 10.597656 C 13.972656 10.59375 13.960938 10.578125 13.957031 10.566406 C 13.953125 10.550781 13.945312 10.542969 13.9375 10.546875 C 13.929688 10.550781 13.925781 10.550781 13.925781 10.542969 C 13.925781 10.527344 13.898438 10.492188 13.847656 10.4375 C 13.828125 10.417969 13.8125 10.398438 13.8125 10.390625 C 13.8125 10.386719 13.789062 10.359375 13.765625 10.332031 C 13.738281 10.300781 13.703125 10.257812 13.683594 10.234375 C 13.664062 10.207031 13.640625 10.191406 13.632812 10.195312 C 13.625 10.199219 13.625 10.195312 13.628906 10.1875 C 13.636719 10.179688 13.625 10.15625 13.605469 10.136719 C 13.589844 10.117188 13.574219 10.097656 13.574219 10.09375 C 13.574219 10.089844 13.558594 10.078125 13.542969 10.066406 L 13.507812 10.050781 L 13.539062 10.027344 C 13.554688 10.015625 13.574219 10.007812 13.582031 10.007812 C 13.589844 10.007812 13.601562 10 13.605469 9.988281 C 13.609375 9.976562 13.617188 9.972656 13.628906 9.976562 C 13.636719 9.980469 13.65625 9.96875 13.671875 9.957031 C 13.6875 9.941406 13.699219 9.933594 13.699219 9.941406 C 13.699219 9.949219 13.734375 9.929688 13.78125 9.898438 C 13.824219 9.863281 13.859375 9.832031 13.855469 9.828125 C 13.851562 9.820312 13.855469 9.816406 13.867188 9.816406 C 13.878906 9.816406 13.886719 9.808594 13.886719 9.800781 C 13.886719 9.792969 13.890625 9.789062 13.894531 9.792969 C 13.914062 9.8125 14.027344 9.632812 14.027344 9.589844 C 14.027344 9.582031 14.03125 9.574219 14.039062 9.574219 C 14.058594 9.574219 14.101562 9.320312 14.101562 9.199219 C 14.101562 9.078125 14.058594 8.886719 14.035156 8.886719 C 14.027344 8.886719 14.023438 8.878906 14.027344 8.871094 C 14.035156 8.847656 13.980469 8.730469 13.957031 8.71875 C 13.945312 8.710938 13.9375 8.699219 13.9375 8.691406 C 13.9375 8.667969 13.871094 8.59375 13.851562 8.59375 C 13.84375 8.59375 13.839844 8.585938 13.839844 8.578125 C 13.84375 8.570312 13.835938 8.5625 13.820312 8.566406 C 13.808594 8.566406 13.800781 8.5625 13.804688 8.554688 C 13.804688 8.542969 13.796875 8.539062 13.789062 8.539062 C 13.78125 8.542969 13.777344 8.539062 13.78125 8.53125 C 13.785156 8.519531 13.738281 8.480469 13.722656 8.484375 C 13.71875 8.484375 13.703125 8.476562 13.691406 8.464844 C 13.664062 8.441406 13.585938 8.398438 13.585938 8.410156 C 13.585938 8.414062 13.574219 8.410156 13.558594 8.398438 C 13.542969 8.390625 13.527344 8.382812 13.519531 8.382812 C 13.511719 8.382812 13.503906 8.378906 13.496094 8.378906 C 13.492188 8.375 13.484375 8.371094 13.476562 8.371094 C 13.472656 8.371094 13.445312 8.363281 13.417969 8.355469 C 13.386719 8.347656 13.355469 8.34375 13.347656 8.347656 C 13.335938 8.351562 13.324219 8.347656 13.320312 8.339844 C 13.316406 8.332031 13.058594 8.328125 12.617188 8.328125 L 11.925781 8.324219 L 11.925781 9.632812 M 15.125 8.59375 L 15.125 8.859375 L 15.886719 8.859375 L 15.886719 10.9375 L 16.476562 10.9375 L 16.472656 9.894531 L 16.46875 8.855469 L 16.863281 8.859375 L 17.261719 8.859375 L 17.261719 8.601562 C 17.261719 8.375 17.261719 8.339844 17.242188 8.335938 C 17.230469 8.328125 16.75 8.328125 16.175781 8.328125 L 15.125 8.328125 L 15.125 8.59375 M 17.609375 8.335938 C 17.605469 8.339844 17.601562 8.925781 17.601562 9.640625 L 17.601562 10.9375 L 18.175781 10.9375 L 18.175781 10.082031 L 18.382812 10.085938 L 18.59375 10.089844 L 18.613281 10.128906 C 18.621094 10.152344 18.640625 10.179688 18.652344 10.195312 C 18.664062 10.207031 18.699219 10.253906 18.730469 10.296875 C 18.761719 10.339844 18.792969 10.375 18.800781 10.375 C 18.808594 10.375 18.8125 10.378906 18.808594 10.386719 C 18.804688 10.390625 18.820312 10.417969 18.847656 10.449219 C 18.871094 10.476562 18.894531 10.507812 18.898438 10.515625 C 18.898438 10.523438 18.914062 10.542969 18.929688 10.558594 C 18.949219 10.574219 18.960938 10.59375 18.960938 10.601562 C 18.960938 10.609375 18.972656 10.621094 18.984375 10.625 C 19 10.628906 19.007812 10.640625 19.007812 10.648438 C 19.007812 10.664062 19.058594 10.738281 19.117188 10.796875 C 19.132812 10.816406 19.148438 10.839844 19.148438 10.84375 C 19.148438 10.847656 19.167969 10.871094 19.183594 10.894531 L 19.21875 10.933594 L 19.535156 10.9375 C 19.75 10.9375 19.851562 10.933594 19.855469 10.921875 C 19.871094 10.902344 19.851562 10.847656 19.832031 10.847656 C 19.820312 10.847656 19.816406 10.839844 19.820312 10.835938 C 19.824219 10.828125 19.820312 10.820312 19.816406 10.820312 C 19.808594 10.820312 19.796875 10.800781 19.78125 10.777344 C 19.765625 10.746094 19.753906 10.738281 19.746094 10.75 C 19.738281 10.765625 19.730469 10.746094 19.738281 10.714844 C 19.738281 10.710938 19.726562 10.703125 19.714844 10.699219 C 19.699219 10.695312 19.691406 10.6875 19.695312 10.679688 C 19.699219 10.671875 19.691406 10.65625 19.679688 10.644531 C 19.667969 10.632812 19.640625 10.601562 19.617188 10.574219 C 19.597656 10.550781 19.578125 10.535156 19.570312 10.539062 C 19.5625 10.542969 19.5625 10.539062 19.566406 10.53125 C 19.574219 10.515625 19.527344 10.457031 19.511719 10.460938 C 19.503906 10.464844 19.5 10.460938 19.507812 10.453125 C 19.511719 10.445312 19.507812 10.441406 19.5 10.441406 C 19.492188 10.441406 19.488281 10.433594 19.492188 10.429688 C 19.492188 10.425781 19.488281 10.410156 19.476562 10.402344 C 19.429688 10.34375 19.414062 10.320312 19.414062 10.3125 C 19.414062 10.304688 19.402344 10.296875 19.390625 10.292969 C 19.375 10.289062 19.363281 10.273438 19.359375 10.261719 C 19.355469 10.242188 19.347656 10.238281 19.335938 10.242188 C 19.328125 10.25 19.324219 10.246094 19.328125 10.238281 C 19.339844 10.222656 19.289062 10.15625 19.273438 10.164062 C 19.269531 10.167969 19.261719 10.164062 19.257812 10.152344 C 19.253906 10.140625 19.253906 10.136719 19.265625 10.140625 C 19.277344 10.148438 19.277344 10.144531 19.265625 10.128906 C 19.253906 10.117188 19.238281 10.109375 19.230469 10.109375 C 19.21875 10.109375 19.214844 10.101562 19.21875 10.09375 C 19.222656 10.085938 19.214844 10.070312 19.199219 10.054688 C 19.179688 10.035156 19.175781 10.027344 19.1875 10.023438 C 19.199219 10.019531 19.214844 10.015625 19.226562 10.011719 C 19.234375 10.007812 19.246094 10.007812 19.246094 10.007812 C 19.246094 10.011719 19.257812 10.003906 19.273438 9.992188 C 19.285156 9.980469 19.300781 9.972656 19.304688 9.976562 C 19.308594 9.980469 19.3125 9.980469 19.3125 9.972656 C 19.3125 9.960938 19.320312 9.957031 19.332031 9.957031 C 19.351562 9.957031 19.429688 9.90625 19.433594 9.890625 C 19.4375 9.882812 19.449219 9.878906 19.457031 9.878906 C 19.46875 9.878906 19.472656 9.875 19.46875 9.867188 C 19.464844 9.859375 19.46875 9.855469 19.480469 9.855469 C 19.488281 9.855469 19.515625 9.835938 19.535156 9.816406 C 19.554688 9.796875 19.570312 9.777344 19.566406 9.777344 C 19.566406 9.777344 19.578125 9.761719 19.59375 9.746094 C 19.613281 9.726562 19.621094 9.707031 19.617188 9.699219 C 19.613281 9.691406 19.613281 9.6875 19.621094 9.695312 C 19.628906 9.699219 19.644531 9.6875 19.65625 9.664062 C 19.667969 9.640625 19.671875 9.625 19.667969 9.625 C 19.660156 9.625 19.667969 9.617188 19.679688 9.609375 C 19.699219 9.589844 19.753906 9.390625 19.742188 9.371094 C 19.738281 9.363281 19.742188 9.359375 19.75 9.359375 C 19.765625 9.359375 19.765625 9.316406 19.746094 9.292969 C 19.734375 9.28125 19.734375 9.28125 19.746094 9.285156 C 19.765625 9.296875 19.765625 9.207031 19.746094 9.183594 C 19.738281 9.171875 19.738281 9.160156 19.75 9.148438 C 19.757812 9.136719 19.761719 9.113281 19.757812 9.09375 C 19.753906 9.074219 19.746094 9.042969 19.742188 9.019531 C 19.742188 9 19.730469 8.980469 19.726562 8.976562 C 19.71875 8.976562 19.714844 8.96875 19.71875 8.964844 C 19.722656 8.957031 19.714844 8.933594 19.707031 8.90625 C 19.695312 8.882812 19.691406 8.859375 19.695312 8.859375 C 19.699219 8.859375 19.691406 8.84375 19.675781 8.824219 C 19.660156 8.800781 19.652344 8.785156 19.65625 8.785156 C 19.65625 8.785156 19.640625 8.753906 19.617188 8.71875 C 19.574219 8.65625 19.4375 8.503906 19.4375 8.523438 C 19.4375 8.527344 19.425781 8.519531 19.414062 8.507812 C 19.359375 8.457031 19.351562 8.453125 19.351562 8.46875 C 19.351562 8.476562 19.335938 8.46875 19.316406 8.449219 C 19.296875 8.429688 19.269531 8.414062 19.253906 8.410156 C 19.242188 8.40625 19.203125 8.394531 19.171875 8.378906 C 19.140625 8.363281 19.105469 8.355469 19.089844 8.355469 C 19.078125 8.355469 19.039062 8.347656 19.003906 8.339844 C 18.933594 8.328125 17.621094 8.320312 17.609375 8.335938 M 20.1875 9.113281 C 20.1875 9.546875 20.191406 9.90625 20.195312 9.910156 C 20.199219 9.914062 20.207031 9.945312 20.207031 9.976562 C 20.210938 10.039062 20.214844 10.074219 20.230469 10.121094 C 20.234375 10.132812 20.242188 10.160156 20.242188 10.179688 C 20.25 10.230469 20.292969 10.34375 20.304688 10.355469 C 20.3125 10.359375 20.3125 10.363281 20.308594 10.363281 C 20.304688 10.363281 20.308594 10.378906 20.324219 10.402344 C 20.339844 10.421875 20.347656 10.441406 20.34375 10.441406 C 20.339844 10.441406 20.347656 10.457031 20.363281 10.476562 C 20.375 10.496094 20.386719 10.519531 20.386719 10.523438 C 20.386719 10.539062 20.445312 10.605469 20.453125 10.597656 C 20.457031 10.59375 20.464844 10.601562 20.46875 10.617188 C 20.472656 10.632812 20.484375 10.644531 20.496094 10.644531 C 20.503906 10.644531 20.511719 10.648438 20.511719 10.65625 C 20.511719 10.675781 20.625 10.78125 20.652344 10.789062 C 20.664062 10.792969 20.675781 10.804688 20.675781 10.808594 C 20.675781 10.816406 20.683594 10.816406 20.695312 10.8125 C 20.707031 10.808594 20.714844 10.808594 20.710938 10.816406 C 20.699219 10.824219 20.765625 10.871094 20.792969 10.878906 C 20.800781 10.878906 20.816406 10.886719 20.832031 10.894531 C 20.84375 10.902344 20.859375 10.910156 20.863281 10.910156 C 20.867188 10.910156 20.886719 10.914062 20.90625 10.925781 C 20.925781 10.933594 20.957031 10.941406 20.96875 10.941406 C 20.984375 10.941406 20.996094 10.949219 20.992188 10.953125 C 20.988281 10.960938 20.996094 10.960938 21.011719 10.957031 C 21.027344 10.953125 21.035156 10.957031 21.03125 10.964844 C 21.027344 10.96875 21.03125 10.972656 21.042969 10.972656 C 21.054688 10.972656 21.058594 10.96875 21.054688 10.957031 C 21.046875 10.945312 21.050781 10.945312 21.0625 10.957031 C 21.082031 10.972656 21.210938 11 21.261719 11 C 21.28125 11 21.328125 11 21.371094 11.003906 C 21.414062 11.007812 21.445312 11.003906 21.445312 11 C 21.441406 10.996094 21.46875 10.992188 21.507812 10.996094 C 21.542969 10.996094 21.574219 10.992188 21.570312 10.988281 C 21.566406 10.984375 21.589844 10.980469 21.617188 10.976562 C 21.742188 10.972656 21.75 10.972656 21.742188 10.957031 C 21.738281 10.949219 21.742188 10.949219 21.753906 10.953125 C 21.765625 10.957031 21.804688 10.949219 21.84375 10.929688 C 21.878906 10.914062 21.914062 10.902344 21.917969 10.90625 C 21.921875 10.910156 21.925781 10.910156 21.925781 10.898438 C 21.925781 10.890625 21.9375 10.886719 21.953125 10.886719 C 21.96875 10.886719 22 10.871094 22.019531 10.855469 C 22.035156 10.835938 22.0625 10.820312 22.074219 10.820312 C 22.089844 10.820312 22.101562 10.8125 22.101562 10.800781 C 22.101562 10.789062 22.105469 10.785156 22.109375 10.789062 C 22.117188 10.792969 22.128906 10.785156 22.136719 10.769531 C 22.148438 10.757812 22.15625 10.75 22.160156 10.75 C 22.164062 10.753906 22.195312 10.726562 22.230469 10.691406 C 22.261719 10.660156 22.285156 10.628906 22.28125 10.628906 C 22.277344 10.628906 22.285156 10.617188 22.304688 10.605469 C 22.324219 10.589844 22.335938 10.570312 22.335938 10.558594 C 22.335938 10.550781 22.34375 10.542969 22.351562 10.542969 C 22.359375 10.542969 22.363281 10.535156 22.359375 10.523438 C 22.355469 10.511719 22.355469 10.5 22.363281 10.496094 C 22.375 10.488281 22.375 10.492188 22.367188 10.503906 C 22.363281 10.515625 22.363281 10.515625 22.375 10.511719 C 22.382812 10.503906 22.386719 10.492188 22.378906 10.476562 C 22.375 10.460938 22.378906 10.453125 22.386719 10.457031 C 22.394531 10.464844 22.40625 10.449219 22.417969 10.414062 C 22.417969 10.410156 22.425781 10.390625 22.433594 10.371094 C 22.464844 10.296875 22.476562 10.265625 22.480469 10.242188 C 22.484375 10.226562 22.492188 10.199219 22.5 10.175781 C 22.503906 10.152344 22.507812 10.125 22.503906 10.113281 C 22.5 10.105469 22.503906 10.097656 22.511719 10.097656 C 22.527344 10.097656 22.527344 10.144531 22.53125 9.191406 L 22.53125 8.332031 L 21.960938 8.324219 L 21.960938 9.09375 C 21.960938 9.515625 21.957031 9.890625 21.953125 9.929688 C 21.945312 9.96875 21.941406 10.003906 21.945312 10.011719 C 21.949219 10.015625 21.941406 10.035156 21.929688 10.050781 C 21.917969 10.066406 21.914062 10.089844 21.917969 10.097656 C 21.917969 10.109375 21.910156 10.136719 21.894531 10.160156 C 21.878906 10.1875 21.875 10.199219 21.886719 10.191406 C 21.898438 10.1875 21.890625 10.199219 21.871094 10.21875 C 21.851562 10.238281 21.835938 10.261719 21.835938 10.265625 C 21.835938 10.28125 21.765625 10.347656 21.734375 10.363281 C 21.722656 10.371094 21.714844 10.382812 21.71875 10.390625 C 21.726562 10.398438 21.722656 10.402344 21.714844 10.398438 C 21.707031 10.390625 21.695312 10.398438 21.683594 10.40625 C 21.671875 10.417969 21.640625 10.429688 21.609375 10.433594 C 21.582031 10.441406 21.550781 10.449219 21.539062 10.457031 C 21.519531 10.472656 21.289062 10.476562 21.296875 10.460938 C 21.300781 10.453125 21.285156 10.453125 21.265625 10.457031 C 21.242188 10.460938 21.226562 10.460938 21.226562 10.453125 C 21.226562 10.449219 21.214844 10.445312 21.203125 10.445312 C 21.164062 10.441406 21.144531 10.433594 21.128906 10.417969 C 21.113281 10.402344 21.101562 10.402344 21.070312 10.402344 C 21.066406 10.402344 21.050781 10.390625 21.035156 10.375 C 21.019531 10.363281 21.003906 10.355469 20.996094 10.359375 C 20.988281 10.363281 20.988281 10.359375 20.992188 10.351562 C 20.996094 10.34375 20.992188 10.335938 20.980469 10.332031 C 20.957031 10.320312 20.839844 10.144531 20.828125 10.101562 C 20.824219 10.085938 20.816406 10.070312 20.8125 10.070312 C 20.808594 10.070312 20.804688 10.058594 20.808594 10.042969 C 20.808594 10.027344 20.804688 10.003906 20.796875 9.988281 C 20.78125 9.953125 20.78125 9.984375 20.777344 9.105469 L 20.773438 8.328125 L 20.1875 8.328125 L 20.1875 9.113281 M 25.601562 9.632812 L 25.601562 10.9375 L 26.1875 10.9375 L 26.191406 10.402344 L 26.195312 9.863281 L 26.238281 9.910156 C 26.265625 9.933594 26.28125 9.957031 26.277344 9.957031 C 26.273438 9.957031 26.277344 9.964844 26.289062 9.976562 C 26.296875 9.984375 26.308594 9.992188 26.3125 9.988281 C 26.320312 9.984375 26.324219 9.988281 26.324219 10 C 26.324219 10.011719 26.335938 10.03125 26.351562 10.046875 C 26.371094 10.0625 26.390625 10.089844 26.402344 10.109375 C 26.414062 10.125 26.433594 10.140625 26.441406 10.140625 C 26.449219 10.140625 26.453125 10.148438 26.453125 10.15625 C 26.453125 10.164062 26.457031 10.171875 26.464844 10.171875 C 26.472656 10.171875 26.476562 10.175781 26.472656 10.179688 C 26.46875 10.183594 26.476562 10.199219 26.492188 10.214844 C 26.507812 10.230469 26.546875 10.277344 26.582031 10.316406 C 26.617188 10.355469 26.652344 10.390625 26.660156 10.390625 C 26.667969 10.390625 26.671875 10.394531 26.667969 10.398438 C 26.667969 10.40625 26.675781 10.425781 26.6875 10.441406 C 26.746094 10.511719 26.757812 10.527344 26.824219 10.605469 C 26.863281 10.648438 26.914062 10.707031 26.941406 10.734375 C 26.964844 10.761719 26.988281 10.789062 26.988281 10.792969 C 26.988281 10.796875 27.015625 10.832031 27.046875 10.867188 L 27.109375 10.933594 L 27.457031 10.9375 L 27.808594 10.9375 L 27.804688 10.90625 C 27.800781 10.886719 27.792969 10.871094 27.789062 10.871094 C 27.785156 10.871094 27.769531 10.855469 27.757812 10.832031 C 27.726562 10.78125 27.691406 10.746094 27.671875 10.746094 C 27.664062 10.746094 27.660156 10.742188 27.667969 10.738281 C 27.671875 10.734375 27.660156 10.714844 27.644531 10.699219 C 27.625 10.683594 27.613281 10.667969 27.613281 10.660156 C 27.613281 10.65625 27.59375 10.632812 27.570312 10.609375 C 27.542969 10.585938 27.523438 10.558594 27.523438 10.550781 C 27.523438 10.546875 27.519531 10.542969 27.511719 10.546875 C 27.503906 10.550781 27.5 10.550781 27.5 10.542969 C 27.5 10.519531 27.460938 10.480469 27.445312 10.488281 C 27.4375 10.492188 27.4375 10.488281 27.441406 10.480469 C 27.449219 10.46875 27.421875 10.433594 27.371094 10.382812 C 27.328125 10.335938 27.292969 10.296875 27.296875 10.292969 C 27.300781 10.289062 27.296875 10.285156 27.289062 10.285156 C 27.28125 10.285156 27.273438 10.28125 27.273438 10.273438 C 27.273438 10.257812 27.222656 10.203125 27.210938 10.207031 C 27.203125 10.210938 27.203125 10.207031 27.203125 10.199219 C 27.203125 10.195312 27.195312 10.175781 27.179688 10.15625 C 27.164062 10.132812 27.148438 10.125 27.148438 10.128906 C 27.148438 10.136719 27.136719 10.121094 27.125 10.097656 C 27.109375 10.074219 27.09375 10.058594 27.085938 10.0625 C 27.082031 10.070312 27.074219 10.0625 27.074219 10.054688 C 27.074219 10.03125 27.011719 9.953125 27 9.964844 C 26.992188 9.96875 26.988281 9.964844 26.988281 9.960938 C 26.992188 9.949219 26.964844 9.910156 26.902344 9.84375 C 26.882812 9.820312 26.863281 9.796875 26.863281 9.792969 C 26.855469 9.773438 26.71875 9.625 26.703125 9.625 C 26.679688 9.625 26.707031 9.550781 26.742188 9.527344 C 26.757812 9.519531 26.765625 9.511719 26.761719 9.511719 C 26.757812 9.511719 26.777344 9.484375 26.808594 9.453125 C 26.839844 9.421875 26.859375 9.386719 26.855469 9.378906 C 26.851562 9.371094 26.851562 9.371094 26.859375 9.375 C 26.867188 9.378906 26.878906 9.371094 26.890625 9.359375 C 26.90625 9.335938 27.019531 9.199219 27.046875 9.171875 C 27.058594 9.160156 27.0625 9.152344 27.058594 9.152344 C 27.050781 9.152344 27.117188 9.078125 27.175781 9.011719 C 27.191406 8.996094 27.203125 8.972656 27.203125 8.960938 C 27.199219 8.953125 27.199219 8.949219 27.207031 8.953125 C 27.21875 8.964844 27.273438 8.914062 27.273438 8.890625 C 27.273438 8.882812 27.285156 8.867188 27.300781 8.855469 C 27.316406 8.84375 27.324219 8.832031 27.316406 8.820312 C 27.3125 8.8125 27.3125 8.808594 27.320312 8.8125 C 27.332031 8.824219 27.386719 8.777344 27.386719 8.753906 C 27.386719 8.75 27.410156 8.722656 27.433594 8.691406 C 27.535156 8.582031 27.542969 8.570312 27.539062 8.558594 C 27.539062 8.550781 27.546875 8.542969 27.5625 8.539062 C 27.574219 8.535156 27.589844 8.523438 27.597656 8.507812 C 27.601562 8.496094 27.613281 8.480469 27.621094 8.472656 C 27.632812 8.464844 27.636719 8.453125 27.632812 8.445312 C 27.628906 8.4375 27.640625 8.421875 27.660156 8.414062 C 27.691406 8.402344 27.726562 8.359375 27.726562 8.332031 C 27.726562 8.332031 27.566406 8.328125 27.371094 8.328125 L 27.015625 8.324219 L 26.984375 8.371094 C 26.96875 8.394531 26.949219 8.410156 26.945312 8.40625 C 26.941406 8.402344 26.9375 8.414062 26.929688 8.425781 C 26.925781 8.441406 26.90625 8.472656 26.886719 8.496094 C 26.867188 8.515625 26.855469 8.539062 26.859375 8.546875 C 26.863281 8.550781 26.859375 8.554688 26.851562 8.550781 C 26.839844 8.550781 26.773438 8.617188 26.773438 8.636719 C 26.773438 8.640625 26.757812 8.660156 26.738281 8.679688 C 26.714844 8.695312 26.703125 8.714844 26.707031 8.71875 C 26.707031 8.722656 26.699219 8.734375 26.679688 8.75 C 26.664062 8.761719 26.652344 8.78125 26.65625 8.785156 C 26.660156 8.792969 26.660156 8.796875 26.652344 8.796875 C 26.636719 8.796875 26.523438 8.945312 26.53125 8.953125 C 26.535156 8.957031 26.523438 8.964844 26.507812 8.976562 C 26.492188 8.984375 26.472656 9.007812 26.46875 9.023438 C 26.464844 9.039062 26.457031 9.050781 26.453125 9.046875 C 26.449219 9.042969 26.429688 9.0625 26.40625 9.09375 C 26.386719 9.125 26.363281 9.152344 26.355469 9.15625 C 26.347656 9.160156 26.347656 9.167969 26.351562 9.167969 C 26.359375 9.167969 26.34375 9.183594 26.324219 9.203125 C 26.304688 9.222656 26.289062 9.246094 26.289062 9.253906 C 26.289062 9.261719 26.277344 9.273438 26.261719 9.285156 C 26.25 9.292969 26.242188 9.304688 26.246094 9.308594 C 26.246094 9.3125 26.238281 9.324219 26.21875 9.335938 L 26.1875 9.359375 L 26.183594 8.84375 L 26.179688 8.332031 L 25.601562 8.324219 L 25.601562 9.632812 M 1.367188 8.851562 C 1.40625 8.859375 1.4375 8.871094 1.4375 8.875 C 1.4375 8.882812 1.441406 8.882812 1.449219 8.878906 C 1.457031 8.875 1.480469 8.890625 1.5 8.910156 C 1.519531 8.933594 1.539062 8.945312 1.542969 8.941406 C 1.550781 8.933594 1.550781 8.9375 1.546875 8.945312 C 1.539062 8.957031 1.546875 8.976562 1.558594 8.992188 C 1.578125 9.027344 1.59375 9.179688 1.574219 9.179688 C 1.566406 9.179688 1.5625 9.183594 1.566406 9.191406 C 1.570312 9.195312 1.566406 9.207031 1.554688 9.210938 C 1.542969 9.214844 1.539062 9.222656 1.542969 9.226562 C 1.550781 9.238281 1.480469 9.285156 1.421875 9.308594 C 1.394531 9.316406 1.375 9.328125 1.375 9.335938 C 1.375 9.339844 1.367188 9.34375 1.363281 9.34375 C 1.355469 9.34375 1.351562 9.339844 1.355469 9.332031 C 1.363281 9.320312 1.355469 9.320312 1.335938 9.324219 C 1.320312 9.332031 1.304688 9.335938 1.300781 9.335938 C 1.296875 9.335938 1.132812 9.335938 0.933594 9.332031 L 0.574219 9.332031 L 0.574219 8.835938 L 0.933594 8.835938 C 1.15625 8.835938 1.324219 8.839844 1.367188 8.851562 M 13.257812 8.855469 C 13.28125 8.863281 13.308594 8.871094 13.316406 8.867188 C 13.324219 8.859375 13.324219 8.863281 13.320312 8.871094 C 13.316406 8.878906 13.316406 8.886719 13.328125 8.886719 C 13.347656 8.886719 13.464844 8.992188 13.46875 9.015625 C 13.472656 9.023438 13.480469 9.054688 13.496094 9.082031 C 13.507812 9.113281 13.515625 9.140625 13.515625 9.144531 C 13.511719 9.152344 13.519531 9.175781 13.527344 9.195312 C 13.539062 9.222656 13.535156 9.238281 13.519531 9.28125 C 13.507812 9.308594 13.503906 9.339844 13.507812 9.34375 C 13.507812 9.351562 13.503906 9.363281 13.496094 9.371094 C 13.488281 9.382812 13.46875 9.410156 13.457031 9.4375 C 13.441406 9.464844 13.421875 9.492188 13.414062 9.5 C 13.398438 9.515625 13.394531 9.511719 13.40625 9.496094 C 13.414062 9.484375 13.40625 9.488281 13.394531 9.503906 C 13.382812 9.519531 13.363281 9.527344 13.351562 9.527344 C 13.34375 9.523438 13.339844 9.527344 13.34375 9.535156 C 13.347656 9.542969 13.34375 9.550781 13.335938 9.546875 C 13.3125 9.542969 13.261719 9.5625 13.269531 9.574219 C 13.269531 9.578125 13.246094 9.582031 13.207031 9.578125 C 13.171875 9.578125 13 9.578125 12.828125 9.574219 L 12.511719 9.574219 L 12.511719 8.835938 L 12.863281 8.835938 C 13.144531 8.835938 13.222656 8.839844 13.257812 8.855469 M 18.925781 8.851562 C 18.925781 8.859375 18.933594 8.859375 18.945312 8.855469 C 18.957031 8.851562 18.960938 8.855469 18.957031 8.859375 C 18.953125 8.867188 18.957031 8.875 18.96875 8.875 C 19 8.875 19.136719 9.023438 19.136719 9.054688 C 19.136719 9.066406 19.144531 9.074219 19.148438 9.070312 C 19.15625 9.066406 19.160156 9.070312 19.15625 9.082031 C 19.152344 9.09375 19.152344 9.101562 19.160156 9.101562 C 19.167969 9.101562 19.171875 9.113281 19.167969 9.125 C 19.160156 9.136719 19.164062 9.140625 19.167969 9.136719 C 19.175781 9.132812 19.183594 9.144531 19.183594 9.160156 C 19.183594 9.179688 19.1875 9.199219 19.1875 9.207031 C 19.199219 9.324219 19.09375 9.484375 18.964844 9.546875 C 18.90625 9.578125 18.917969 9.578125 18.492188 9.574219 L 18.175781 9.574219 L 18.175781 8.835938 L 18.550781 8.835938 C 18.796875 8.835938 18.925781 8.84375 18.925781 8.851562 M 1.363281 9.84375 C 1.382812 9.851562 1.445312 9.867188 1.472656 9.871094 C 1.480469 9.871094 1.488281 9.878906 1.492188 9.890625 C 1.496094 9.898438 1.503906 9.902344 1.511719 9.898438 C 1.515625 9.894531 1.535156 9.914062 1.554688 9.9375 C 1.574219 9.960938 1.59375 9.988281 1.605469 9.996094 C 1.617188 10.007812 1.621094 10.019531 1.617188 10.023438 C 1.613281 10.027344 1.613281 10.039062 1.621094 10.046875 C 1.648438 10.085938 1.617188 10.285156 1.582031 10.285156 C 1.578125 10.285156 1.574219 10.296875 1.578125 10.308594 C 1.582031 10.316406 1.582031 10.324219 1.578125 10.320312 C 1.5625 10.3125 1.535156 10.34375 1.546875 10.355469 C 1.550781 10.359375 1.546875 10.359375 1.535156 10.355469 C 1.523438 10.351562 1.511719 10.355469 1.511719 10.359375 C 1.511719 10.375 1.441406 10.398438 1.421875 10.390625 C 1.417969 10.390625 1.414062 10.394531 1.414062 10.402344 C 1.414062 10.40625 1.402344 10.410156 1.386719 10.40625 C 1.375 10.40625 1.359375 10.40625 1.359375 10.410156 C 1.355469 10.417969 1.175781 10.417969 0.964844 10.417969 L 0.574219 10.414062 L 0.574219 9.84375 L 0.921875 9.839844 C 1.300781 9.835938 1.335938 9.835938 1.363281 9.84375 "/>
</g>
</svg>
