<svg width="136" height="41" viewBox="0 0 136 41" fill="none" xmlns="http://www.w3.org/2000/svg">
<g clip-path="url(#clip0_1686_37)">
<path fill-rule="evenodd" clip-rule="evenodd" d="M84.3721 32.0508C76.4689 37.8761 65.0138 40.9841 55.1511 40.9841C41.3219 40.9841 28.8722 35.8692 19.4535 27.3622C18.7135 26.6932 19.3765 25.7816 20.2645 26.3025C30.4292 32.2166 42.9973 35.7745 55.9799 35.7745C64.7355 35.7745 74.3674 33.963 83.2237 30.2038C84.5616 29.6355 85.6805 31.08 84.3721 32.0508Z" fill="#FF9900"/>
<path fill-rule="evenodd" clip-rule="evenodd" d="M87.6575 28.2917C86.6511 27.0011 80.9798 27.6819 78.4342 27.9839C77.6587 28.0786 77.5403 27.4037 78.2388 26.9183C82.7558 23.7392 90.1676 24.6568 91.0319 25.7224C91.8962 26.7939 90.8069 34.2235 86.5623 37.7696C85.9111 38.3142 85.2895 38.0242 85.5796 37.3019C86.5327 34.9221 88.6698 29.5882 87.6575 28.2917Z" fill="#FF9900"/>
<path fill-rule="evenodd" clip-rule="evenodd" d="M78.6116 4.47556V1.38532C78.6116 0.917641 78.9668 0.603882 79.393 0.603882H93.228C93.672 0.603882 94.0272 0.923562 94.0272 1.38532V4.03156C94.0213 4.47556 93.6484 5.05572 92.9853 5.97331L85.8162 16.209C88.4802 16.1439 91.2922 16.5405 93.7076 17.9021C94.2522 18.2099 94.4002 18.6599 94.4416 19.1039V22.4013C94.4416 22.8512 93.9444 23.3781 93.4234 23.1058C89.1669 20.8739 83.5133 20.6312 78.8069 23.1295C78.3274 23.3899 77.8242 22.869 77.8242 22.4191V19.2874C77.8242 18.7842 77.8301 17.9258 78.3333 17.1621L86.6391 5.25108H79.4108C78.9668 5.25108 78.6116 4.93732 78.6116 4.47556Z" fill="black"/>
<path fill-rule="evenodd" clip-rule="evenodd" d="M28.1437 23.7569H23.9345C23.532 23.7273 23.2123 23.4254 23.1827 23.0406V1.43858C23.1827 1.00642 23.5438 0.663055 23.9937 0.663055H27.9187C28.3272 0.680803 28.6528 0.994573 28.6824 1.38529V4.20913H28.7593C29.7835 1.48001 31.7075 0.207214 34.3005 0.207214C36.9348 0.207214 38.5806 1.48001 39.7646 4.20913C40.7828 1.48001 43.0976 0.207214 45.578 0.207214C47.3422 0.207214 49.2721 0.935373 50.4502 2.56929C51.7822 4.38673 51.5099 7.02704 51.5099 9.34176L51.504 22.9755C51.504 23.4077 51.1428 23.7569 50.6929 23.7569H46.4897C46.0694 23.7273 45.732 23.3899 45.732 22.9755V11.5262C45.732 10.6146 45.8148 8.34129 45.6136 7.47696C45.2998 6.02657 44.3585 5.61809 43.139 5.61809C42.1208 5.61809 41.0552 6.29889 40.623 7.38817C40.1908 8.47745 40.2323 10.3008 40.2323 11.5262V22.9755C40.2323 23.4077 39.8712 23.7569 39.4212 23.7569H35.2181C34.7918 23.7273 34.4603 23.3899 34.4603 22.9755L34.4544 11.5262C34.4544 9.1168 34.851 5.57073 31.8614 5.57073C28.8363 5.57073 28.9547 9.028 28.9547 11.5262V22.9755C28.9547 23.4077 28.5936 23.7569 28.1437 23.7569" fill="black"/>
<path fill-rule="evenodd" clip-rule="evenodd" d="M105.939 0.207214C112.184 0.207214 115.564 5.57073 115.564 12.3906C115.564 18.9795 111.829 24.2069 105.939 24.2069C99.8055 24.2069 96.4666 18.8434 96.4666 12.1597C96.4666 5.43457 99.8469 0.207214 105.939 0.207214ZM105.974 4.61761C102.872 4.61761 102.677 8.84449 102.677 11.4789C102.677 14.1192 102.635 19.755 105.939 19.755C109.2 19.755 109.354 15.2085 109.354 12.4379C109.354 10.6146 109.277 8.43601 108.727 6.70737C108.253 5.20369 107.312 4.61761 105.974 4.61761Z" fill="black"/>
<path fill-rule="evenodd" clip-rule="evenodd" d="M123.663 23.7569H119.472C119.051 23.7273 118.714 23.3899 118.714 22.9755L118.708 1.36753C118.743 0.970893 119.093 0.663055 119.519 0.663055H123.42C123.787 0.680803 124.089 0.929455 124.172 1.26689V4.57025H124.249C125.427 1.61617 127.079 0.207214 129.985 0.207214C131.874 0.207214 133.715 0.888015 134.899 2.75281C136 4.48145 136 7.38817 136 9.47792V23.0761C135.953 23.455 135.604 23.7569 135.189 23.7569H130.968C130.583 23.7273 130.264 23.4432 130.222 23.0761V11.3427C130.222 8.98064 130.495 5.52337 127.588 5.52337C126.564 5.52337 125.622 6.21009 125.155 7.252C124.563 8.57217 124.486 9.8864 124.486 11.3427V22.9755C124.48 23.4077 124.113 23.7569 123.663 23.7569" fill="black"/>
<path fill-rule="evenodd" clip-rule="evenodd" d="M67.5825 13.4384C67.5825 15.0783 67.624 16.4458 66.7952 17.9021C66.1262 19.0861 65.0606 19.8143 63.8825 19.8143C62.2664 19.8143 61.3192 18.5829 61.3192 16.7655C61.3192 13.178 64.5337 12.5268 67.5825 12.5268V13.4384ZM71.8272 23.6978C71.5489 23.9464 71.1464 23.9642 70.8326 23.7984C69.4355 22.6381 69.1809 22.0994 68.4173 20.9924C66.1084 23.3485 64.4686 24.053 61.479 24.053C57.9329 24.053 55.1801 21.8685 55.1801 17.4936C55.1801 14.0778 57.0272 11.7512 59.6675 10.6146C61.9526 9.60821 65.1435 9.43061 67.5825 9.15237V8.60773C67.5825 7.60725 67.6595 6.42325 67.0675 5.55894C66.5584 4.78342 65.5756 4.46374 64.7054 4.46374C63.1011 4.46374 61.6744 5.28661 61.3251 6.99157C61.254 7.37045 60.9758 7.74341 60.591 7.76117L56.5121 7.32309C56.1688 7.24614 55.784 6.96789 55.8846 6.44102C56.82 1.4919 61.2955 6.10352e-05 65.2974 6.10352e-05C67.3457 6.10352e-05 70.0216 0.544701 71.6377 2.09574C73.686 4.0079 73.4907 6.55941 73.4907 9.33589V15.8952C73.4907 17.8666 74.3076 18.7309 75.0772 19.7965C75.3437 20.1754 75.4029 20.6312 75.0595 20.9154C74.2011 21.6317 72.6737 22.9637 71.8331 23.7096L71.8272 23.6978" fill="black"/>
<path fill-rule="evenodd" clip-rule="evenodd" d="M12.4024 13.4386C12.4024 15.0785 12.4438 16.446 11.615 17.9023C10.9461 19.0863 9.88639 19.8145 8.70239 19.8145C7.08623 19.8145 6.14495 18.5831 6.14495 16.7657C6.14495 13.1782 9.35951 12.527 12.4024 12.527V13.4386ZM16.647 23.698C16.3688 23.9466 15.9662 23.9644 15.6525 23.7986C14.2553 22.6383 14.0067 22.0996 13.2371 20.9925C10.9283 23.3487 9.29439 24.0532 6.29887 24.0532C2.75871 24.0532 0 21.8687 0 17.4938C0 14.078 1.85296 11.7514 4.48735 10.6148C6.77247 9.60839 9.96335 9.4308 12.4024 9.15256V8.60792C12.4024 7.60743 12.4793 6.42344 11.8933 5.55912C11.3782 4.7836 10.3955 4.46392 9.53119 4.46392C7.92687 4.46392 6.49423 5.2868 6.14495 6.99176C6.07391 7.37064 5.79567 7.7436 5.41679 7.76136L1.332 7.32327C0.988638 7.24632 0.609758 6.96807 0.704478 6.4412C1.64576 1.49209 6.11535 0.000244141 10.1173 0.000244141C12.1656 0.000244141 14.8414 0.544885 16.4576 2.09592C18.5059 4.00808 18.3105 6.5596 18.3105 9.33607V15.8954C18.3105 17.8668 19.1275 18.7311 19.8971 19.7967C20.1694 20.1756 20.2286 20.6314 19.8852 20.9156C19.0269 21.6319 17.4995 22.9639 16.6589 23.7098L16.647 23.698" fill="black"/>
</g>
<defs>
<clipPath id="clip0_1686_37">
<rect width="136" height="40.9841" fill="white"/>
</clipPath>
</defs>
</svg>
