<svg width="36" height="33" viewBox="0 0 36 33" fill="none" xmlns="http://www.w3.org/2000/svg">
<path fill-rule="evenodd" clip-rule="evenodd" d="M32.7182 7.64236C33.6547 8.37546 34.3855 9.34295 34.8382 10.4491C35.2501 11.4347 35.4276 12.5032 35.356 13.5707C35.2821 14.5855 34.9618 15.5664 34.4234 16.4264C33.8515 17.3222 33.0703 18.0622 32.1487 18.5812C31.7667 18.7994 31.3625 18.9647 30.9575 19.1305C30.8236 19.1852 30.6895 19.2401 30.5561 19.2969C30.0519 19.5129 29.5572 19.75 29.0688 20.001C27.9436 20.5796 26.851 21.2231 25.7784 21.8931C24.6057 22.6249 23.4552 23.3928 22.3184 24.1787C21.4879 24.753 18.6553 28.9254 17.2438 31.0526C23.6822 30.7769 29.1325 26.1614 30.5267 19.8043C30.614 19.7649 30.7003 19.7266 30.7856 19.6904C30.8779 19.6475 30.9702 19.6108 31.065 19.5731C31.1064 19.5566 31.1483 19.5399 31.1908 19.5224C31.6132 19.3601 32.0246 19.17 32.4224 18.9534C32.4705 18.9263 32.517 18.8974 32.5633 18.8685C32.5788 18.8588 32.5943 18.8492 32.6098 18.8396C31.6163 26.4041 25.5541 32.255 18.03 32.9113C10.5058 33.5677 3.54091 28.853 1.27912 21.5726C-0.982664 14.292 2.06624 6.40134 8.61184 2.59519C15.1575 -1.21095 23.4414 0.0898568 28.5351 5.72368H28.4078C27.9807 5.72498 27.5545 5.76054 27.133 5.83003C26.8131 5.88334 26.4967 5.95651 26.1857 6.04913C22.0593 2.27124 16.1294 1.27665 11.0163 3.50489C5.90323 5.73313 2.54935 10.7735 2.43675 16.3987C4.12093 15.8573 7.04507 14.8831 7.38401 14.53C8.10922 13.777 8.83347 13.0197 9.51235 12.2253C9.71954 11.994 9.91156 11.7491 10.0871 11.4925C10.1422 11.4038 10.1867 11.3088 10.2198 11.2096C10.3256 10.9288 10.4761 10.6673 10.665 10.4353C10.5697 10.2007 10.4926 9.9588 10.4345 9.71203C10.3465 9.531 10.2828 9.33897 10.245 9.14095C10.1208 8.63453 10.0737 8.11205 10.105 7.5913C10.1355 7.16907 10.265 6.52135 10.8071 6.52135C10.9883 6.54866 11.1587 6.62553 11.2997 6.74364L11.3256 6.76214C11.8521 7.13799 12.3878 7.52055 12.8228 8.00501H12.8733L12.8797 8.01463L14.6207 7.82637C14.6977 7.81805 14.7749 7.80951 14.8521 7.80098C15.4969 7.7296 16.1488 7.65747 16.7964 7.71253C17.1131 7.73972 17.4257 7.80358 17.728 7.90296C18.0417 8.00501 18.3606 8.09332 18.6827 8.16456C19.2947 8.30147 19.9201 8.3675 20.5468 8.36136C21.7516 8.33734 22.9292 7.99525 23.9626 7.36902C24.1034 7.30736 24.2438 7.24479 24.3842 7.18222C24.5829 7.09368 24.7817 7.00513 24.9815 6.91913C25.6705 6.60979 26.3945 6.38726 27.1372 6.25653C27.8549 6.13828 28.5858 6.12681 29.3067 6.22249C30.5471 6.38642 31.7233 6.87597 32.7182 7.64236ZM17.4999 12.5475C18.0015 12.8663 18.6391 12.8423 19.117 12.4865L19.1181 12.4844C19.5786 12.1247 19.7583 11.496 19.5611 10.9349C19.3478 10.3609 18.82 9.97775 18.2258 9.96567C17.6594 9.95186 17.1422 10.2976 16.9216 10.8377C16.9836 10.6667 17.0332 10.5224 16.9102 10.8644C16.816 11.1265 16.8244 11.1036 16.8613 11.002C16.8726 10.9711 16.8865 10.9329 16.9009 10.8932C16.8802 10.9539 16.8636 11.016 16.8514 11.0792C16.7544 11.6601 17.0118 12.2432 17.4999 12.5475Z" fill="#2F424B"/>
</svg>
