<svg width="30" height="30" viewBox="0 0 30 30" fill="none" xmlns="http://www.w3.org/2000/svg">
<rect width="30" height="30" rx="2" fill="#FFCB0A"/>
<path d="M13.9277 4.35938L17.4727 7.64062C17.4727 7.64062 18.4805 6.52148 18.7793 6.13477C19.0664 5.75977 19.6582 5.00391 20.0918 5.04492C20.7949 5.11523 21.3926 6.12891 21.5156 6.33398C21.9141 6.98438 25.7461 12.9727 25.7461 12.9727C25.7461 12.9727 26.2852 13.5996 26.3789 14.0039C26.5137 14.5957 26.3613 14.7129 26.2207 15.0234C25.9102 15.7207 22.2773 21.3516 22.2773 21.3516C22.2773 21.3516 22.0488 21.7734 21.3984 21.8203C20.4785 21.8906 19.0723 21.9199 19.0723 21.9199C19.0723 21.9199 18.2813 21.873 17.9004 21.6445C17.3555 21.3164 14.2617 18.8145 14.2617 18.8145C14.2617 18.8145 13.7578 18.3867 13.1895 18.4219C12.4863 18.4688 11.5488 18.791 11.5488 18.791L8.0625 19.752C8.0625 19.752 7.44727 19.998 6.97852 19.8281C6.48047 19.6465 6.39258 19.4707 6.1582 19.1191C5.92383 18.7676 3.76172 13.875 3.76172 13.875C3.76172 13.875 3.5625 13.4531 3.5625 12.9316C3.5625 12.4102 3.69727 12.2051 4.03125 11.8359C4.3125 11.5254 12.7266 4.85742 12.7266 4.85742C12.7266 4.85742 13.1484 4.56445 13.4297 4.35938C13.6406 4.20117 13.9277 4.35938 13.9277 4.35938Z" fill="#D6162D"/>
<path d="M19.7755 22.8926C20.1212 22.8633 21.0177 22.875 21.5099 22.8633C21.6388 22.8574 21.8732 22.8574 22.0079 22.9746C22.1837 23.1269 22.1486 23.4668 22.1251 23.7187C22.0958 24.0059 21.381 25.2598 21.2638 25.4766C21.1466 25.6934 20.9532 25.7461 20.7599 25.6934C20.5665 25.6406 19.3478 24.4102 19.213 24.2812C19.0782 24.1523 18.8204 23.7773 18.8204 23.584C18.8204 23.3906 18.8966 23.1152 19.0958 23.0156C19.2892 22.916 19.6935 22.9043 19.7755 22.8926Z" fill="#D6162D"/>
<path d="M20.9297 9.69142C20.9297 9.69142 23.5254 13.3301 23.7598 13.5996C23.9942 13.8692 24.0703 14.2031 24.0703 14.3379C24.0703 14.4727 23.9473 14.8418 23.8535 14.9824C23.6192 15.3457 21.9375 17.9356 21.5684 18.4395C21.3692 18.709 20.9297 19.2656 20.5723 19.5938C20.3731 19.7813 19.9043 19.752 19.752 19.6524C19.5059 19.4883 19.0078 19.0547 18.832 18.8731C18.5391 18.5625 18.7793 18.0586 18.8731 17.9356C19.3184 17.3203 20.3613 15.75 20.4727 15.5918C20.6543 15.334 21.041 14.8887 21.041 14.3613C21.041 13.875 19.0078 11.7422 18.7969 11.3145C18.7031 11.1328 18.5801 10.6113 18.7207 10.2774C18.8555 9.94338 19.1778 9.62111 19.3067 9.49806C19.5996 9.22267 20.0391 9.18166 20.3203 9.26369C20.666 9.35744 20.9297 9.69142 20.9297 9.69142Z" fill="#FFCB0A"/>
</svg>
