<svg width="30" height="30" viewBox="0 0 30 30" fill="none" xmlns="http://www.w3.org/2000/svg">
<rect width="30" height="30" fill="white"/>
<path d="M14.9997 0C14.8291 0 14.6755 0.0341297 14.539 0.102389L2.78128 6.51877L15.9553 14.1809C16.0748 14.2491 16.1772 14.4027 16.1772 14.5563V25.7338C16.1772 25.8874 16.0919 26.0239 15.9553 26.1092L15.2386 26.5017C15.1704 26.5358 15.1021 26.5529 15.0338 26.5529H15.0168C14.9314 26.5529 14.8632 26.5358 14.7949 26.5017L14.0782 26.1092C13.9417 26.0239 13.8734 25.8874 13.8564 25.7338V15.7509C13.8393 15.6655 13.8052 15.5973 13.7369 15.5631L2.13281 8.80546V22.0307C2.13281 22.3208 2.33759 22.6962 2.59356 22.8328L14.539 29.8805C14.6755 29.9488 14.8461 30 14.9997 30C15.1533 30 15.3239 29.9659 15.4605 29.8805L27.4058 22.8328C27.6789 22.6451 27.8495 22.3549 27.8666 22.0307V8.80546L19.9997 13.3788C19.8632 13.4471 19.7096 13.4471 19.5731 13.3788L18.8905 12.9693C18.8222 12.9352 18.771 12.8669 18.7369 12.8157V12.7986C18.6857 12.7304 18.6686 12.6621 18.6686 12.5768L18.6516 11.7577C18.6516 11.6041 18.7369 11.4676 18.8564 11.3823L27.2352 6.50171L15.4775 0.102389C15.3239 0.0341297 15.1704 0 14.9997 0Z" fill="url(#paint0_linear_76786_30192)"/>
<defs>
<linearGradient id="paint0_linear_76786_30192" x1="2.69329" y1="15.0201" x2="28.414" y2="15.0201" gradientUnits="userSpaceOnUse">
<stop stop-color="#F25C19"/>
<stop offset="0.38" stop-color="#F25C19"/>
<stop offset="1" stop-color="#FAB217"/>
</linearGradient>
</defs>
</svg>
