<svg width="260" height="160" viewBox="0 0 260 160" fill="none" xmlns="http://www.w3.org/2000/svg">
<path d="M260 0H0V160H260V0Z" fill="#CF2028"/>
<mask id="mask0" mask-type="alpha" maskUnits="userSpaceOnUse" x="18" y="72" width="27" height="27">
<path d="M18 72.5H44.6597V98.9496H18V72.5Z" fill="white"/>
</mask>
<g mask="url(#mask0)">
<path fill-rule="evenodd" clip-rule="evenodd" d="M24.5642 72.4985H33.0326L27.7708 92.549L44.659 92.6985L40.4491 98.9485H17.999C20.1042 90.0985 22.1588 81.149 24.5642 72.4985Z" fill="white"/>
</g>
<mask id="mask1" mask-type="alpha" maskUnits="userSpaceOnUse" x="36" y="72" width="54" height="19">
<path d="M36.2402 72.5H89.4089V90.2836H36.2402V72.5Z" fill="white"/>
</mask>
<g mask="url(#mask1)">
<path fill-rule="evenodd" clip-rule="evenodd" d="M89.4089 72.4985C89.4089 72.4985 88.2067 77.4485 87.5047 79.7485C82.8944 79.8485 77.8832 79.549 73.5235 79.899C72.8219 80.399 72.3709 81.049 72.5212 82.0985C72.9722 85.649 79.4868 82.799 83.4461 84.299C85.7011 85.149 84.7986 87.049 84.8988 90.0985C76.6304 90.0985 66.7082 91.649 63.5011 85.7485C60.2438 79.799 65.1047 73.0985 70.7673 72.4985H89.4089ZM49.0188 72.4985H57.8891C58.9409 78.3485 59.9933 84.2485 61.246 89.9485C58.54 90.299 55.1825 89.9985 52.2259 90.0985C51.8756 88.2485 51.3239 86.549 51.0733 84.5985C49.8712 85.799 48.2671 88.2485 46.7136 90.0985H36.2402C40.3499 84.0985 44.7091 78.3485 49.0188 72.4985Z" fill="white"/>
</g>
<mask id="mask2" mask-type="alpha" maskUnits="userSpaceOnUse" x="173" y="72" width="69" height="19">
<path d="M173.246 72.5H241.817V90.1355H173.246V72.5Z" fill="white"/>
</mask>
<g mask="url(#mask2)">
<path fill-rule="evenodd" clip-rule="evenodd" d="M218.046 72.4985H237.139C244.154 72.4985 242.2 84.8485 238.291 88.3485C235.635 90.7485 231.276 89.9985 226.214 90.0985C225.362 87.9485 224.46 85.799 223.759 83.549H233.08C234.082 83.049 234.783 81.2485 234.082 80.4985C232.629 78.9485 227.066 79.8485 224.31 79.7485C223.258 83.049 222.556 86.6985 221.554 90.049H213.536C214.939 84.149 218.046 72.4985 218.046 72.4985ZM213.987 72.4985C212.484 78.3485 211.03 84.299 209.477 90.0985H201.008C202.511 84.2485 203.864 78.1985 205.518 72.4985H213.987ZM177.706 72.4985H186.025C185.323 76.149 184.371 79.5985 183.569 83.0985H189.532C190.785 79.8485 191.437 75.9985 192.439 72.4985H201.058C199.705 78.4485 198.051 84.149 196.698 90.0985H173.246C174.749 84.299 175.902 78.0985 177.706 72.4985Z" fill="black"/>
</g>
<mask id="mask3" mask-type="alpha" maskUnits="userSpaceOnUse" x="88" y="72" width="56" height="19">
<path d="M88.8076 72.5H143.872V90.1249H88.8076V72.5Z" fill="white"/>
</mask>
<g mask="url(#mask3)">
<path fill-rule="evenodd" clip-rule="evenodd" d="M119.527 72.4985H139.321C139.622 72.4985 141.576 73.0985 141.877 73.3485C145.935 76.5985 143.079 85.299 139.722 88.3485C136.865 90.9485 132.405 89.8485 127.644 90.0985C126.843 87.899 125.941 85.799 125.189 83.549H134.66C135.512 83.049 136.514 81.899 135.512 80.1985C132.505 79.649 129.398 79.7485 125.74 79.7485C124.638 82.9985 123.937 86.6985 122.984 90.049H114.966C116.469 84.2485 117.872 78.149 119.527 72.4985ZM113.263 72.4985C112.762 74.8485 112.16 77.2485 111.809 79.7485H100.584C99.9324 80.649 99.9324 82.1985 99.5817 83.399C103.089 83.7485 107.199 83.4485 110.957 83.549C110.507 85.7485 110.056 87.9485 109.504 90.0985H88.8076C90.1606 84.3485 91.2636 78.149 92.767 72.4985H113.263Z" fill="white"/>
</g>
<path fill-rule="evenodd" clip-rule="evenodd" d="M208.876 92.5996C208.475 94.8496 207.823 96.8496 207.273 98.9996H198.803C199.405 96.9001 199.906 94.7996 200.407 92.5996H208.876ZM195.747 92.5996C195.295 94.7496 194.695 96.7996 194.293 98.9996H185.674L187.428 92.5996H195.747ZM181.064 92.5996L179.461 98.9496H170.991L172.595 92.5996H181.064Z" fill="black"/>
<path fill-rule="evenodd" clip-rule="evenodd" d="M84.2976 92.6997C83.145 95.2497 81.792 99.1997 78.7853 99.1997H54.3307C53.8802 97.2497 53.1285 94.4997 53.0283 92.6997H84.2976Z" fill="white"/>
<mask id="mask4" mask-type="alpha" maskUnits="userSpaceOnUse" x="139" y="72" width="38" height="28">
<path d="M139.521 72.5H176.002V99.1998H139.521V72.5Z" fill="white"/>
</mask>
<g mask="url(#mask4)">
<path fill-rule="evenodd" clip-rule="evenodd" d="M170.891 92.6998C169.738 95.2498 168.385 99.1998 165.328 99.1998H142.026L139.521 92.6998H170.891ZM176.002 72.4998C176.002 72.4998 174.8 77.4498 174.098 79.7498C169.487 79.8498 164.476 79.5498 160.117 79.8998C159.415 80.3998 158.964 81.0498 159.115 82.0998C159.565 85.6498 166.581 83.0998 170.039 84.2998C172.294 85.0998 172.044 86.8498 171.492 90.0998C163.223 90.0998 153.301 91.6498 150.095 85.7498C146.837 79.7998 151.698 73.0998 157.361 72.4998H176.002Z" fill="black"/>
</g>
<path fill-rule="evenodd" clip-rule="evenodd" d="M128.747 92.6997H136.916C138.82 97.7997 142.729 107.95 142.729 107.95H134.561C134.561 108 130.652 97.8497 128.747 92.6997ZM88.3572 92.6997H122.333C121.982 94.8997 121.18 96.6997 120.88 98.9497H86.8037C87.2051 96.7997 87.6556 94.6497 88.3572 92.6997Z" fill="white"/>
<path fill-rule="evenodd" clip-rule="evenodd" d="M220.803 92.6997L219.35 98.9497H211.182L212.936 92.6997H220.803Z" fill="black"/>
</svg>
