<svg width="24" height="24" viewBox="0 0 24 24" fill="none" xmlns="http://www.w3.org/2000/svg">
<g clip-path="url(#clip0)">
<path d="M18.5867 4.00073C17.0264 4.00073 15.726 5.03808 15.3272 6.59058C14.6082 4.25776 12.768 4.00253 12.0003 4.00253C11.2328 4.00253 9.39328 4.25776 8.67297 6.59003C8.27398 5.03901 6.97344 4.00253 5.41352 4.00253C3.49938 4.00253 2 5.37089 2 7.11769C2 7.89019 2.19086 8.5069 2.42148 9.17581L5.02047 16.5255C5.8907 18.963 7.66359 19.327 8.64281 19.327C10.1789 19.327 11.3759 18.5403 12.0001 17.146C12.6248 18.5465 13.822 19.3372 15.3573 19.3372C16.3353 19.3372 18.1064 18.9726 18.9811 16.5261L21.5944 9.15144L21.6148 9.09058C21.6446 8.99605 21.6748 8.90737 21.7032 8.82315C21.8423 8.41144 22 7.9448 22 7.37292C22 5.41901 20.5645 4.00073 18.5867 4.00073ZM19.8187 8.52222L17.2054 15.8969C16.8863 16.7891 16.3557 17.4533 15.3573 17.4533C14.4219 17.4533 13.8696 16.9321 13.5937 16.0389L12.0211 11.1307H11.9784L10.4068 16.0389C10.1303 16.9322 9.57789 17.443 8.64273 17.443C7.64414 17.443 7.11305 16.7843 6.79453 15.8921L4.20258 8.56206C3.99008 7.94565 3.88391 7.56425 3.88391 7.11753C3.88391 6.43753 4.52164 5.88644 5.41352 5.88644C6.15727 5.88644 6.68836 6.37675 6.85836 7.09909L8.62188 12.9457H8.66406L10.4488 7.22792C10.683 6.3994 11.1077 5.88644 12.0003 5.88644C12.8925 5.88644 13.3173 6.39855 13.5509 7.22706L15.3358 12.9457H15.378L17.142 7.09909C17.3118 6.37675 17.8428 5.88464 18.5867 5.88464C19.4786 5.88464 20.1161 6.43776 20.1161 7.37292C20.1161 7.71269 19.9669 8.05401 19.8187 8.52214V8.52222Z" fill="#3192E7"/>
</g>
<defs>
<clipPath id="clip0">
<rect x="2" y="4" width="20" height="15.392" fill="white"/>
</clipPath>
</defs>
</svg>
