<svg width="30" height="30" viewBox="0 0 30 30" fill="none" xmlns="http://www.w3.org/2000/svg">
<g clip-path="url(#clip0_76760_30141)">
<g clip-path="url(#clip1_76760_30141)">
<path d="M7.49929 27.0019C6.1873 27.0019 5.12273 25.9341 5.12273 24.6253V5.39472C5.12273 4.08273 6.19055 3.01816 7.49929 3.01816H27.3061V-0.0876465H7.12815C4.32512 -0.0876465 2.05273 2.18474 2.05273 4.98777V24.609C2.05273 27.539 4.42929 29.9124 7.35604 29.9124H27.6317V26.9986H7.49929V27.0019Z" fill="#3579BE"/>
<path d="M9.23455 18.5439H23.9562V15.4967H6.09619V24.622C6.09619 25.3936 6.72451 26.0219 7.49608 26.0219H27.6285V22.9194H9.23455V18.5407V18.5439Z" fill="#3579BE"/>
<path d="M6.09619 5.39472V14.5201H23.9562V11.4729H9.23455V7.09413H27.3062V3.99158H7.49934C6.72777 3.99158 6.09945 4.6199 6.09945 5.39147L6.09619 5.39472Z" fill="#3579BE"/>
</g>
</g>
<defs>
<clipPath id="clip0_76760_30141">
<rect width="30" height="30" fill="white"/>
</clipPath>
<clipPath id="clip1_76760_30141">
<rect width="25.5789" height="30" fill="white" transform="translate(2.05273 -0.0876465)"/>
</clipPath>
</defs>
</svg>
