<svg width="24" height="24" viewBox="0 0 24 24" fill="none" xmlns="http://www.w3.org/2000/svg">
<g clip-path="url(#clip0)">
<path d="M18.6576 2H5.34242C4.45596 2 3.6058 2.35215 2.97897 2.97897C2.35215 3.6058 2 4.45596 2 5.34242L2 18.6576C2 19.544 2.35215 20.3942 2.97897 21.021C3.6058 21.6479 4.45596 22 5.34242 22H18.6576C19.0965 22.0001 19.5312 21.9136 19.9367 21.7457C20.3423 21.5777 20.7108 21.3315 21.0212 21.0212C21.3315 20.7108 21.5777 20.3423 21.7457 19.9367C21.9136 19.5312 22.0001 19.0965 22 18.6576V5.34242C22.0001 4.90346 21.9137 4.46877 21.7458 4.06319C21.5779 3.65762 21.3317 3.2891 21.0213 2.97871C20.7109 2.66831 20.3424 2.42211 19.9368 2.25418C19.5312 2.08625 19.0965 1.99988 18.6576 2ZM18.364 17.3104C18.3638 17.59 18.2527 17.8581 18.055 18.0557C17.8572 18.2534 17.5891 18.3644 17.3095 18.3644H6.69276C6.55428 18.3645 6.41716 18.3373 6.2892 18.2843C6.16125 18.2314 6.04497 18.1538 5.94701 18.0559C5.84906 17.958 5.77134 17.8418 5.71829 17.7139C5.66524 17.586 5.63791 17.4489 5.63785 17.3104V6.69321C5.63779 6.55466 5.66504 6.41746 5.71803 6.28944C5.77102 6.16143 5.84872 6.04512 5.94669 5.94715C6.04466 5.84918 6.16098 5.77148 6.28899 5.71848C6.417 5.66549 6.55421 5.63825 6.69276 5.63831H17.3091C17.4476 5.63831 17.5847 5.6656 17.7127 5.71861C17.8407 5.77163 17.9569 5.84934 18.0548 5.94731C18.1528 6.04527 18.2304 6.16157 18.2834 6.28955C18.3363 6.41753 18.3636 6.5547 18.3635 6.69321V17.3104H18.364Z" fill="#3E4348"/>
<path d="M9.87792 14.7274C9.71696 14.7269 9.56277 14.6626 9.44925 14.5484C9.33573 14.4343 9.27216 14.2798 9.27252 14.1188V9.88104C9.27252 9.54516 9.54341 9.27246 9.87792 9.27246H14.1221C14.4575 9.27246 14.7275 9.54516 14.7275 9.88104V14.1188C14.7275 14.4543 14.4575 14.7274 14.1221 14.7274H9.87792Z" fill="#3E4348"/>
</g>
<defs>
<clipPath id="clip0">
<rect x="2" y="2" width="20" height="20" fill="white"/>
</clipPath>
</defs>
</svg>
