<?xml version="1.0" encoding="UTF-8"?>
<svg xmlns="http://www.w3.org/2000/svg" xmlns:xlink="http://www.w3.org/1999/xlink" width="260px" height="160px" viewBox="0 0 260 160" version="1.1">
<defs>
<clipPath id="clip1">
  <path d="M 79 63 L 129 63 L 129 112.464844 L 79 112.464844 Z M 79 63 "/>
</clipPath>
<clipPath id="clip2">
  <path d="M 133 45.367188 L 179 45.367188 L 179 112 L 133 112 Z M 133 45.367188 "/>
</clipPath>
<clipPath id="clip3">
  <path d="M 30.277344 64 L 82 64 L 82 112.464844 L 30.277344 112.464844 Z M 30.277344 64 "/>
</clipPath>
<clipPath id="clip4">
  <path d="M 199 45.367188 L 215 45.367188 L 215 61 L 199 61 Z M 199 45.367188 "/>
</clipPath>
<clipPath id="clip5">
  <path d="M 182 63 L 231.457031 63 L 231.457031 112.464844 L 182 112.464844 Z M 182 63 "/>
</clipPath>
</defs>
<g id="surface1">
<g clip-path="url(#clip1)" clip-rule="nonzero">
<path style=" stroke:none;fill-rule:nonzero;fill:rgb(90.980392%,28.627451%,19.215686%);fill-opacity:1;" d="M 116.050781 81.289062 C 116.039062 81.3125 116.011719 81.339844 115.964844 81.339844 L 92.460938 81.339844 C 92.414062 81.339844 92.390625 81.3125 92.375 81.289062 C 92.363281 81.265625 92.351562 81.230469 92.375 81.191406 C 94.804688 76.960938 99.339844 74.335938 104.210938 74.335938 C 109.085938 74.335938 113.621094 76.960938 116.050781 81.191406 C 116.070312 81.230469 116.058594 81.265625 116.050781 81.289062 M 104.210938 63.375 C 97.492188 63.375 91.210938 66.019531 86.527344 70.820312 C 81.847656 75.617188 79.375 81.949219 79.570312 88.648438 C 79.941406 101.378906 90.234375 111.828125 103.007812 112.433594 C 103.402344 112.453125 103.800781 112.460938 104.191406 112.460938 C 111.035156 112.460938 117.554688 109.652344 122.238281 104.640625 C 122.566406 104.285156 122.726562 103.808594 122.671875 103.324219 C 122.617188 102.839844 122.351562 102.40625 121.945312 102.128906 L 115.859375 97.996094 C 115.03125 97.433594 113.90625 97.507812 113.132812 98.183594 C 110.652344 100.324219 107.484375 101.503906 104.210938 101.503906 C 98.46875 101.503906 93.308594 97.886719 91.371094 92.503906 C 91.34375 92.429688 91.375 92.375 91.390625 92.355469 C 91.410156 92.328125 91.445312 92.296875 91.507812 92.296875 L 126.964844 92.296875 C 127.832031 92.296875 128.570312 91.652344 128.675781 90.796875 C 128.800781 89.777344 128.863281 88.835938 128.863281 87.917969 C 128.863281 74.382812 117.804688 63.375 104.210938 63.375 "/>
</g>
<g clip-path="url(#clip2)" clip-rule="nonzero">
<path style=" stroke:none;fill-rule:nonzero;fill:rgb(90.980392%,28.627451%,19.215686%);fill-opacity:1;" d="M 157.207031 63.144531 C 152.878906 63.144531 148.730469 64.457031 145.199219 66.945312 C 145.167969 66.964844 145.132812 66.96875 145.09375 66.953125 C 145.070312 66.9375 145.035156 66.910156 145.035156 66.859375 L 145.035156 47.738281 C 145.035156 46.753906 144.230469 45.953125 143.242188 45.953125 L 134.988281 45.953125 C 134 45.953125 133.195312 46.753906 133.195312 47.738281 L 133.195312 109.613281 C 133.195312 110.597656 134 111.398438 134.988281 111.398438 L 143.242188 111.398438 C 144.230469 111.398438 145.035156 110.597656 145.035156 109.613281 L 145.035156 83.867188 C 145.035156 80.542969 146.644531 77.375 149.328125 75.394531 C 152.066406 73.382812 155.574219 72.816406 158.957031 73.847656 C 163.210938 75.148438 166.183594 79.265625 166.183594 83.867188 L 166.183594 109.613281 C 166.183594 110.597656 166.988281 111.398438 167.976562 111.398438 L 176.226562 111.398438 C 177.21875 111.398438 178.023438 110.597656 178.023438 109.613281 L 178.023438 83.867188 C 178.023438 72.441406 168.683594 63.144531 157.203125 63.144531 "/>
</g>
<g clip-path="url(#clip3)" clip-rule="nonzero">
<path style=" stroke:none;fill-rule:nonzero;fill:rgb(90.980392%,28.627451%,19.215686%);fill-opacity:1;" d="M 68.382812 65.152344 L 56.535156 98.167969 C 56.3125 98.785156 55.4375 98.785156 55.214844 98.167969 L 43.367188 65.152344 C 43.152344 64.546875 42.574219 64.140625 41.929688 64.140625 L 31.425781 64.140625 C 30.617188 64.140625 30.0625 64.949219 30.355469 65.695312 L 45.863281 105.632812 C 49.402344 114.742188 62.347656 114.742188 65.882812 105.632812 L 81.394531 65.695312 C 81.683594 64.949219 81.128906 64.140625 80.320312 64.140625 L 69.820312 64.140625 C 69.171875 64.140625 68.597656 64.546875 68.378906 65.152344 "/>
</g>
<g clip-path="url(#clip4)" clip-rule="nonzero">
<path style=" stroke:none;fill-rule:nonzero;fill:rgb(90.980392%,28.627451%,19.215686%);fill-opacity:1;" d="M 205.511719 60.433594 C 210.726562 61.285156 215.171875 56.859375 214.316406 51.667969 C 213.789062 48.480469 211.289062 45.992188 208.089844 45.472656 C 202.875 44.621094 198.433594 49.042969 199.285156 54.238281 C 199.808594 57.421875 202.3125 59.910156 205.511719 60.433594 "/>
</g>
<g clip-path="url(#clip5)" clip-rule="nonzero">
<path style=" stroke:none;fill-rule:nonzero;fill:rgb(90.980392%,28.627451%,19.215686%);fill-opacity:1;" d="M 205.023438 63.441406 C 192.828125 64.292969 182.976562 74.164062 182.199219 86.3125 C 181.382812 99.042969 190.324219 109.851562 202.300781 112.046875 C 203 112.175781 203.648438 111.640625 203.648438 110.929688 L 203.648438 100.574219 C 203.648438 99.949219 203.140625 99.445312 202.511719 99.445312 L 197.359375 99.445312 C 196.179688 99.445312 195.226562 98.492188 195.226562 97.320312 L 195.226562 78.519531 C 195.226562 77.347656 196.179688 76.398438 197.359375 76.398438 L 216.242188 76.398438 C 217.421875 76.398438 218.378906 77.347656 218.378906 78.519531 L 218.378906 97.320312 C 218.378906 98.492188 217.421875 99.445312 216.242188 99.445312 L 211.089844 99.445312 C 210.464844 99.445312 209.953125 99.949219 209.953125 100.574219 L 209.953125 110.929688 C 209.953125 111.640625 210.605469 112.175781 211.304688 112.046875 C 222.769531 109.941406 231.457031 99.941406 231.457031 87.921875 C 231.457031 73.78125 219.445312 62.433594 205.027344 63.4375 "/>
</g>
</g>
</svg>
