<?xml version="1.0" encoding="UTF-8"?>
<svg width="24px" height="24px" viewBox="0 0 24 24" version="1.1" xmlns="http://www.w3.org/2000/svg" xmlns:xlink="http://www.w3.org/1999/xlink">
    <!-- Generator: Sketch 61.2 (89653) - https://sketch.com -->
    <title>Path</title>
    <desc>Created with Sketch.</desc>
    <g id="Hand-off-1/10" stroke="none" stroke-width="1" fill="none" fill-rule="evenodd">
        <g id="1.5_split_orders-page" transform="translate(-272.000000, -328.000000)" fill="#718087">
            <g id="Group-6" transform="translate(271.000000, 21.000000)">
                <g id="Group-5" transform="translate(0.000000, 211.000000)">
                    <g id="Group-3" transform="translate(0.000000, 80.000000)">
                        <g id="Group-4" transform="translate(0.307400, 16.000000)">
                            <g id="Group-11" transform="translate(0.692600, 0.000000)">
                                <g id="Group-12">
                                    <path d="M17.4377925,14.4733333 L14.1498102,17.5266667 C13.8698292,17.7866667 13.4103732,17.7866667 13.1303922,17.5266667 C12.8504111,17.2666667 12.8504111,16.84 13.1303922,16.58 L15.1979443,14.6666667 L7.8969007,14.6666667 C7.50205566,14.6666667 7.17900063,14.3666667 7.17900063,14 L7.17900063,7.33333333 C7.17900063,6.96666667 7.50205566,6.66666667 7.8969007,6.66666667 C8.29174573,6.66666667 8.61480076,6.96666667 8.61480076,7.33333333 L8.61480076,13.3333333 L15.1979443,13.3333333 L13.1303922,11.42 C12.8504111,11.16 12.8504111,10.7333333 13.1303922,10.4733333 C13.4103732,10.2133333 13.8698292,10.2133333 14.1498102,10.4733333 L17.4377925,13.5266667 C17.7177736,13.7866667 17.7177736,14.2133333 17.4377925,14.4733333 Z" id="🔹-Icon-Color"></path>
                                </g>
                            </g>
                        </g>
                    </g>
                </g>
            </g>
        </g>
    </g>
</svg>