<svg width="34" height="34" viewBox="0 0 34 34" fill="none" xmlns="http://www.w3.org/2000/svg">
<path d="M17 0.333252C19.1887 0.333252 21.356 0.764348 23.3781 1.60193C25.4002 2.4395 27.2375 3.66716 28.7852 5.21481C30.3328 6.76245 31.5605 8.59977 32.398 10.6219C33.2356 12.644 33.6667 14.8112 33.6667 16.9999C33.6667 21.4202 31.9108 25.6594 28.7852 28.785C25.6595 31.9106 21.4203 33.6666 17 33.6666C14.8113 33.6666 12.6441 33.2355 10.622 32.3979C8.59989 31.5603 6.76257 30.3327 5.21493 28.785C2.08932 25.6594 0.333374 21.4202 0.333374 16.9999C0.333374 12.5796 2.08932 8.34041 5.21493 5.21481C8.34053 2.0892 12.5798 0.333252 17 0.333252ZM17 3.66659C13.4638 3.66659 10.0724 5.07134 7.57195 7.57183C5.07147 10.0723 3.66671 13.4637 3.66671 16.9999C3.66671 20.0833 4.71671 22.9166 6.46671 25.1833L25.1834 6.46659C22.8422 4.65044 19.9631 3.66532 17 3.66659ZM17 30.3333C20.5363 30.3333 23.9276 28.9285 26.4281 26.428C28.9286 23.9275 30.3334 20.5361 30.3334 16.9999C30.3334 13.9166 29.2834 11.0833 27.5334 8.81659L8.81671 27.5333C11.1579 29.3494 14.037 30.3345 17 30.3333Z" fill="#CC3B33"/>
</svg>
