<svg width="260" height="160" viewBox="0 0 260 160" fill="none" xmlns="http://www.w3.org/2000/svg">
<rect width="260" height="160" fill="#E9EEF2"/>
<path d="M211.286 101.981C206.246 102.077 201.341 101.381 196.747 99.2789C188.861 95.671 184.721 89.531 184.348 81.161C183.751 67.8443 191.743 58.9593 205.423 57.3684C212.043 56.6049 218.528 56.9139 224.771 59.3855C233.184 62.7164 237.869 69.531 237.997 78.3592C238.114 86.4948 235.477 93.313 228.195 97.9117C223.905 100.618 219.051 101.644 214.022 101.96C213.115 102.031 212.197 101.981 211.286 101.981ZM210.946 94.4068C220.134 94.563 226.553 88.7462 226.695 80.1418C226.845 71.264 220.737 64.9394 211.827 64.7548C202.522 64.563 195.8 70.5005 195.624 79.0694C195.434 88.3911 201.279 94.2434 210.946 94.4068Z" fill="#4A4545"/>
<path d="M149.831 57.0308C156.89 57.0308 162.076 57.741 166.871 60.2268C169.624 61.6417 171.971 63.6977 173.704 66.2104C174.234 66.9704 174.125 67.2758 173.199 67.4924C170.366 68.1363 167.538 68.8099 164.717 69.513C164.201 69.6408 163.836 69.7296 163.477 69.2005C161.648 66.5265 158.836 65.5393 155.76 65.0492C152.524 64.5089 149.213 64.5534 145.994 65.1806C144.912 65.3728 143.894 65.8136 143.024 66.4661C140.694 68.2701 141.056 71.4839 143.785 72.6345C146.883 73.9413 150.262 74.133 153.532 74.7651C157.164 75.447 160.847 75.8695 164.41 76.8958C170.226 78.5542 173.356 81.871 173.7 86.7005C174.125 92.6274 171.506 97.0734 165.961 99.4846C159.962 102.109 153.594 102.258 147.183 101.8C143.594 101.594 140.082 100.701 136.85 99.1721C133.182 97.3858 130.131 94.599 128.072 91.1536C127.472 90.1842 127.724 89.8894 128.741 89.655C131.363 89.0549 133.924 88.3944 136.521 87.7445C136.989 87.6238 137.442 87.3539 137.79 87.9327C140.716 92.7658 145.61 93.7282 150.767 94.0833C153.685 94.3324 156.624 93.969 159.384 93.018C162.058 92.0556 163.378 90.3014 163.155 88.2062C162.958 86.3667 161.575 85.1558 158.741 84.655C153.726 83.7673 148.69 83.0002 143.664 82.1693C141.566 81.825 139.527 81.1988 137.607 80.3085C133.51 78.3944 130.965 75.3369 130.793 70.8305C130.625 66.4271 132.527 62.9328 136.341 60.5322C140.965 57.5776 146.202 57.0734 149.831 57.0308Z" fill="#4A4545"/>
<path d="M84.7286 79.3429C84.7286 72.9154 84.7615 66.4843 84.6993 60.0567C84.6993 58.796 84.9298 58.2811 86.3709 58.3486C88.9787 58.4693 91.6012 58.4693 94.2091 58.3486C95.6722 58.2811 95.888 58.8174 95.8843 60.0709C95.8367 70.3301 95.8843 80.5965 95.8148 90.8557C95.8148 92.4928 96.2683 92.8834 97.907 92.8585C104.776 92.7662 111.645 92.8585 118.514 92.7911C119.816 92.7911 120.189 93.1462 120.105 94.3642C119.997 96.0127 119.997 97.6661 120.105 99.3145C120.178 100.458 119.739 100.667 118.642 100.664C107.823 100.628 97.0023 100.628 86.1807 100.664C84.9407 100.664 84.6774 100.277 84.6847 99.1583C84.7542 92.5531 84.7286 85.948 84.7286 79.3429Z" fill="#4A4545"/>
<path d="M50.1972 58.3806C59.0779 58.3806 67.9586 58.4126 76.8392 58.3486C78.1962 58.3486 78.668 58.6647 78.5473 60.007C78.4102 61.4765 78.4102 62.9551 78.5473 64.4246C78.7046 65.9978 78.0243 66.2251 76.5869 66.2002C67.2197 66.1398 57.8526 66.1682 48.4855 66.1682C40.7606 66.1682 33.0357 66.1363 25.3145 66.2038C24.0051 66.2038 23.4857 65.8309 23.3065 64.5986C23.0638 62.9726 22.6821 61.3691 22.1653 59.8046C21.7118 58.48 22.2165 58.3593 23.3723 58.3628C32.3152 58.3948 41.258 58.3806 50.1972 58.3806Z" fill="#037C92"/>
<path d="M56.5615 69.8187C63.372 69.8187 70.1788 69.8435 76.9892 69.7974C78.1341 69.7974 78.6278 70.0282 78.5437 71.2462C78.423 72.835 78.423 74.4302 78.5437 76.019C78.6608 77.3968 78.1377 77.6525 76.8137 77.6489C64.4802 77.6099 52.1394 77.6099 39.7987 77.6099C36.2362 77.6099 36.2362 77.6099 35.4571 74.2647C35.2961 73.5758 35.1608 72.8833 35.0035 72.1944C34.4366 69.8187 34.4366 69.8187 36.8653 69.8187H56.5615Z" fill="#037C92"/>
<path d="M62.8384 81.4026C67.5128 81.4026 72.1909 81.4594 76.8653 81.3671C78.2698 81.3387 78.6393 81.7506 78.5478 83.0468C78.46 84.6946 78.46 86.3457 78.5478 87.9935C78.5771 88.8884 78.3028 89.2257 77.3225 89.2222C68.2736 89.189 59.2247 89.189 50.1758 89.2222C49.2467 89.2222 48.9249 88.8671 48.7493 88.0539C48.3811 86.2712 47.9495 84.4956 47.4545 82.7272C47.1436 81.6157 47.4874 81.3529 48.6359 81.3671C53.3615 81.4381 58.1018 81.4026 62.8384 81.4026Z" fill="#037C92"/>
<path d="M70.0179 100.639C67.6514 100.639 65.2849 100.596 62.9221 100.66C62.0223 100.685 61.6273 100.383 61.4591 99.5559C61.0604 97.6596 60.6581 95.7598 60.1387 93.8954C59.8644 92.9118 60.2557 92.8301 61.0823 92.8301C66.481 92.8514 71.8796 92.862 77.2746 92.8301C78.2036 92.8301 78.573 93.0609 78.5401 94.0126C78.4743 95.8343 78.4706 97.6596 78.5401 99.4814C78.5767 100.426 78.2402 100.689 77.3002 100.667C74.8715 100.604 72.4429 100.639 70.0179 100.639Z" fill="#037C92"/>
</svg>
