<svg width="260" height="160" viewBox="0 0 260 160" fill="none" xmlns="http://www.w3.org/2000/svg">
<path d="M260 0H0V160H260V0Z" fill="#ED2A29"/>
<path fill-rule="evenodd" clip-rule="evenodd" d="M28.7036 70.399C31.5896 70.7338 33.9448 69.4462 34.764 67.2162C35.0564 66.4214 35.2184 65.5474 34.31 65.155C33.438 64.7782 32.31 64.4302 31.6284 65.4546C30.582 67.0262 29.6952 68.7038 28.7036 70.399ZM22 77.0146C24.9 72.9842 27.1524 68.5558 29.7764 64.3558C30.7764 62.7554 35.4656 62.3578 36.7188 63.7846C37.3388 64.4902 37.4712 65.3362 37.222 66.2178C36.9532 67.1682 36.6228 68.1014 36.3196 69.0418C36.3192 69.0418 36.3588 69.0194 36.3588 69.0194C34.2108 71.331 31.6904 72.8082 28.4036 72.5634C27.7348 72.5134 27.3132 72.773 27.022 73.4122C26.6952 74.1294 26.1268 74.7454 25.854 75.4766C25.152 77.3598 23.8532 77.8994 22 77.4146V77.0146Z" fill="white"/>
<path fill-rule="evenodd" clip-rule="evenodd" d="M216.43 71.0211C216.43 66.4903 216.467 61.9583 216.404 57.4283C216.388 56.3103 216.71 55.9015 217.833 55.8723C222.695 55.7467 227.556 55.5967 232.414 55.3619C233.517 55.3083 233.846 55.7311 233.873 56.6815C233.877 56.8143 233.901 56.9467 233.915 57.0795C234.222 60.1787 234.222 60.1843 231.099 60.2723C228.704 60.3399 226.309 60.4371 223.915 60.4291C222.815 60.4247 222.335 60.7247 222.466 61.9087C222.628 63.3635 222.729 64.8351 222.707 66.2975C222.691 67.4179 223.193 67.5907 224.155 67.5719C226.82 67.5199 229.489 67.6295 232.151 67.5219C233.55 67.4655 234.106 67.7671 234.18 69.3147C234.339 72.6543 234.447 72.6491 231.165 72.6491C228.899 72.6491 226.63 72.7187 224.368 72.6223C223.074 72.5671 222.778 73.0467 222.889 74.2423C223.069 76.1643 223.189 78.1003 223.172 80.0295C223.162 81.1219 223.564 81.3499 224.553 81.3739C227.88 81.4531 231.205 81.6743 234.533 81.7303C235.832 81.7523 236.367 82.0527 236.378 83.5075C236.405 87.1471 236.491 87.1459 232.783 86.9619C227.927 86.7211 223.072 86.4375 218.213 86.2759C217.082 86.2383 216.734 85.9519 216.748 84.8135C216.805 80.2167 216.772 75.6187 216.772 71.0215C216.658 71.0215 216.544 71.0215 216.43 71.0211Z" fill="white"/>
<path fill-rule="evenodd" clip-rule="evenodd" d="M181.309 74.4295C183.792 77.8643 186.241 81.2527 188.931 84.9731C186.612 84.8463 184.614 84.7331 182.614 84.6315C182.23 84.6119 182.035 84.3791 181.849 84.0907C179.116 79.8627 176.378 75.6371 173.493 71.1811C175.653 70.9543 177.554 70.8219 179.36 70.1983C181.818 69.3487 183.18 67.5707 183.27 65.2155C183.331 63.6095 182.625 62.4955 181.234 61.8687C179.199 60.9519 177.039 61.4963 174.934 61.5539C174.157 61.5747 174.211 62.4383 174.138 62.9851C173.295 69.3139 172.416 75.6395 171.71 81.9847C171.514 83.7523 171.034 84.3171 169.181 84.0571C165.998 83.6111 166.028 83.7483 166.492 80.6007C167.54 73.4983 168.566 66.3919 169.514 59.2759C169.652 58.2379 169.816 57.7791 170.986 57.7315C174.381 57.5939 177.773 57.3187 181.173 57.4439C184.225 57.5563 186.968 58.5487 188.02 61.6283C189.129 64.8727 189.21 68.1899 186.518 70.9499C185.052 72.4511 183.186 73.3419 181.309 74.4295Z" fill="white"/>
<path fill-rule="evenodd" clip-rule="evenodd" d="M214.641 62.8407C211.146 60.6299 207.586 59.9923 203.801 60.6963C198.561 61.6703 194.719 65.7623 194.597 70.4903C194.473 75.2691 198.256 79.4827 203.665 80.5907C207.57 81.3903 210.249 80.9159 214.64 78.5463C214.64 80.3671 214.616 82.0507 214.651 83.7327C214.666 84.4159 214.241 84.6659 213.742 84.8743C206.056 88.0759 195.213 86.2307 190.589 77.6399C186.197 69.4775 190.942 59.5571 200.515 56.8143C204.643 55.6315 208.759 55.7407 212.897 56.8579C214.207 57.2119 214.828 57.7687 214.666 59.1923C214.542 60.2855 214.641 61.4047 214.641 62.8407Z" fill="white"/>
<path fill-rule="evenodd" clip-rule="evenodd" d="M150.845 79.1219C157.653 78.8575 161.891 74.5731 161.778 68.0687C161.729 65.2203 160.175 62.9647 157.544 61.9199C151.402 59.4807 143.694 64.9955 143.536 71.9419C143.432 76.4907 146.291 79.2987 150.845 79.1219ZM150.159 83.5877C141.817 83.6315 137.095 77.0487 139.792 69.1335C142.681 60.6535 151.96 55.8127 160.053 58.5643C165.104 60.2823 167.93 65.0927 166.98 70.3595C165.453 78.8251 159.459 83.5387 150.159 83.5877Z" fill="white"/>
<path fill-rule="evenodd" clip-rule="evenodd" d="M137.086 62.4891C132.895 62.6367 132.928 62.6439 131.994 66.8075C131.76 67.8431 131.867 68.2651 133.04 68.1835C134.298 68.0963 135.572 68.1003 136.83 68.1927C137.395 68.2335 138.647 67.6547 138.362 68.8839C138.126 69.9059 138.652 71.6819 136.697 71.7651C135.368 71.8215 134.014 71.9239 132.709 71.7379C130.982 71.4919 130.4 72.2975 130.053 73.8019C129.487 76.2547 128.806 78.6839 128.086 81.0975C127.38 83.4675 125.545 81.9783 124.294 81.9583C122.75 81.9335 123.838 80.7271 123.98 80.1927C125.695 73.7223 127.511 67.2795 129.245 60.8143C129.571 59.5995 130.18 59.1298 131.443 59.1242C134.302 59.1118 137.16 58.9478 140.019 58.8822C140.63 58.8682 141.767 58.4454 141.576 59.547C141.409 60.5143 141.904 62.1471 140.075 62.2975C139.08 62.3799 138.082 62.4251 137.086 62.4891Z" fill="white"/>
<path fill-rule="evenodd" clip-rule="evenodd" d="M77.6079 76.5834C76.7463 79.9622 76.7447 79.9898 73.6971 79.8498C71.4427 79.7462 69.1923 79.5602 66.8115 79.4026C69.4331 73.6226 72.0107 67.955 74.5675 62.2778C74.8463 61.6602 75.2071 61.375 75.9159 61.385C78.5011 61.4198 81.0875 61.3986 83.7203 61.3986C83.5543 62.9822 82.9447 64.2274 80.8079 63.8422C80.4859 63.7842 80.1439 63.8366 79.8111 63.8378C77.4763 63.8482 75.8811 65.293 75.5663 67.6142C75.4931 68.1554 75.6547 68.3454 76.1539 68.3626C76.9523 68.3902 77.7575 68.3698 78.5459 68.475C79.0867 68.5474 80.1355 68.1546 80.0315 69.0074C79.9327 69.8122 79.9299 71.159 78.4423 71.1242C78.2427 71.119 78.0431 71.1202 77.8435 71.1238C73.7851 71.1974 73.1339 71.7198 72.0279 75.5698C71.7771 76.4418 72.0739 76.6086 72.8511 76.5926C74.3787 76.561 75.9067 76.5834 77.6079 76.5834Z" fill="white"/>
<path fill-rule="evenodd" clip-rule="evenodd" d="M49.0218 70.644C51.3918 70.4192 53.563 70.3672 55.0642 68.5768C55.7986 67.7012 56.7578 66.6532 56.0802 65.4012C55.429 64.1976 54.0902 64.6588 52.9982 64.5892C52.2826 64.544 51.9278 64.9516 51.6394 65.5248C50.8402 67.116 50.0198 68.696 49.0218 70.644ZM48.9562 70.8224C47.8874 72.8444 46.8174 74.8652 45.7514 76.888C45.5346 77.3 45.381 77.7536 45.1134 78.1276C44.5154 78.964 43.5758 78.718 42.9386 78.4168C42.3082 78.1188 42.9354 77.5088 43.1514 77.0856C45.4802 72.532 47.8354 67.992 50.151 63.4316C50.5154 62.714 50.917 62.256 51.7954 62.2688C53.2602 62.2892 54.7302 62.1428 56.1906 62.216C58.2134 62.3176 59.3182 63.734 58.9958 65.7248C58.4826 68.8868 56.6774 71.1384 53.7074 72.178C52.163 72.7188 52.2102 73.3356 52.6926 74.568C53.2198 75.914 53.5422 77.34 53.959 78.748C51.0574 79.1308 51.0542 79.1316 50.521 76.4712C50.1574 74.6556 49.8034 72.8376 49.4454 71.0208C49.2822 70.9548 49.119 70.8884 48.9562 70.8224Z" fill="white"/>
<path fill-rule="evenodd" clip-rule="evenodd" d="M67.2223 75.5888C65.9779 79.2288 63.6135 80.4332 60.1115 79.4064C57.5983 78.6696 56.2055 75.9944 57.0423 72.9096C58.4623 67.6744 61.6459 63.8484 66.7531 61.8096C68.6099 61.068 70.5407 61.1868 72.4003 61.902C74.0755 62.5464 72.7911 63.4944 72.5755 64.3036C72.3171 65.2724 71.9159 65.2408 71.0739 64.6932C69.3467 63.5708 67.5067 63.8636 65.7971 64.8604C63.2999 66.3156 61.5563 68.4628 60.4403 71.1008C59.8603 72.472 59.4367 73.9856 60.5127 75.262C61.6067 76.5596 63.1895 76.57 64.7431 76.2632C65.4991 76.1136 66.2355 75.8616 67.2223 75.5888Z" fill="white"/>
<path fill-rule="evenodd" clip-rule="evenodd" d="M89.1245 76.9788C88.3693 80.4064 88.3693 80.4048 85.2585 80.2824C83.1965 80.2008 81.1345 80.1164 79.0721 80.0492C78.1501 80.0192 77.7629 79.8496 78.2325 78.76C80.6213 73.2168 82.9181 67.6336 85.2637 62.0712C85.6377 61.1844 87.9445 60.4012 88.6273 60.9264C89.2481 61.4044 88.6613 61.8744 88.4929 62.3124C86.8293 66.646 85.1769 70.9852 83.4525 75.2948C82.9593 76.528 82.9525 77.1264 84.5513 77.0036C86.0577 76.888 87.5801 76.9788 89.1245 76.9788Z" fill="white"/>
<path fill-rule="evenodd" clip-rule="evenodd" d="M41.8762 66.3225C40.4598 68.1369 39.2466 69.6913 37.959 71.3409C41.2274 71.7425 41.9506 70.8385 41.8762 66.3225ZM36.319 69.0421C37.0002 69.6525 37.2054 68.9001 37.477 68.5841C38.7758 67.0737 40.0318 65.5265 41.3082 63.9965C41.6042 63.6413 41.8798 63.2501 42.2378 62.9685C43.043 62.3349 44.1334 62.3593 44.897 62.6521C45.755 62.9809 45.0206 63.9105 44.885 64.5465C43.9878 68.7533 42.9662 72.9357 42.169 77.1613C41.8958 78.6117 41.0726 78.4037 40.187 78.2753C38.8342 78.0789 39.6634 77.1601 39.7774 76.6097C40.3586 73.8001 40.377 73.9553 37.6034 73.7689C35.903 73.6545 35.281 74.7085 34.4846 75.7317C32.713 78.0073 32.717 78.0101 29.8906 77.7157C31.955 75.2401 33.9526 72.8877 35.8842 70.4817C36.1802 70.1137 37.1698 69.8053 36.3606 69.0177C36.3586 69.0193 36.319 69.0421 36.319 69.0421Z" fill="white"/>
<mask id="mask0" mask-type="alpha" maskUnits="userSpaceOnUse" x="229" y="94" width="9" height="15">
<path d="M229.158 94.9648H237.978V108.79H229.158V94.9648Z" fill="white"/>
</mask>
<g mask="url(#mask0)">
<path fill-rule="evenodd" clip-rule="evenodd" d="M229.188 99.3385C229.188 98.6645 229.201 98.1989 229.186 97.7341C229.09 94.8289 229.088 94.8281 231.929 95.0509C233.387 95.1649 234.845 95.3809 236.299 95.3645C237.343 95.3525 237.305 95.9281 237.323 96.6141C237.351 97.6513 236.639 97.3541 236.081 97.3061C235.155 97.2269 234.213 97.2093 233.309 97.0189C231.438 96.6261 231.077 97.4717 231.18 99.1437C231.246 100.21 231.62 100.521 232.579 100.538C233.775 100.559 234.971 100.724 236.164 100.701C237.173 100.681 237.173 101.286 237.208 101.988C237.255 102.917 236.567 102.671 236.115 102.648C235.053 102.593 233.998 102.413 232.937 102.365C232.297 102.336 231.177 101.935 231.41 103.169C231.61 104.231 230.646 105.898 232.555 106.269C233.851 106.521 235.191 106.575 236.515 106.659C237.429 106.717 238.082 106.949 237.965 108.047C237.84 109.212 236.941 108.667 236.437 108.637C234.516 108.521 232.607 108.216 230.685 108.104C229.799 108.052 229.587 107.718 229.561 106.899C229.475 104.309 229.311 101.722 229.188 99.3385Z" fill="white"/>
</g>
<path fill-rule="evenodd" clip-rule="evenodd" d="M219.196 100.463C219.196 101.594 219.254 102.729 219.179 103.855C219.115 104.816 219.448 105.085 220.407 105.102C222.862 105.143 224.801 103.977 225.179 102.074C225.661 99.6522 224.325 97.3902 221.944 96.5958C219.491 95.7778 219.196 95.9786 219.196 98.467C219.196 99.1326 219.196 99.7978 219.196 100.463ZM217.193 100.363C217.193 99.4338 217.189 98.5042 217.193 97.5746C217.209 94.0758 217.211 94.0758 220.772 94.3562C225.519 94.7302 228.292 99.0714 226.625 103.517C225.738 105.883 222.993 107.19 219.649 106.951C217.957 106.829 216.789 106.497 217.17 104.339C217.398 103.051 217.212 101.691 217.212 100.363H217.193Z" fill="white"/>
<path fill-rule="evenodd" clip-rule="evenodd" d="M199.484 104.684C198.053 100.486 196.755 96.678 195.449 92.848C196.94 92.4124 197.535 93.0692 197.879 94.2592C198.412 96.0988 199.021 97.9168 199.721 100.134C200.862 97.6416 201.837 95.5124 202.927 93.1328C203.853 95.692 204.658 97.9132 205.512 100.274C207.458 98.3104 206.98 94.734 209.65 93.4732C209.879 93.6208 210.108 93.7684 210.337 93.9156C208.793 97.5756 207.25 101.236 205.517 105.344C204.544 102.594 203.728 100.289 202.792 97.6444C201.325 99.8696 200.855 102.307 199.484 104.684Z" fill="white"/>
<path fill-rule="evenodd" clip-rule="evenodd" d="M192.748 98.1452C192.748 97.814 192.788 97.4768 192.742 97.1524C192.49 95.362 190.291 93.6492 188.281 94.0764C186.867 94.3768 187.42 95.9772 187.242 97.0288C187.044 98.2024 186.957 99.396 186.849 100.583C186.802 101.104 186.755 101.558 187.49 101.801C190.156 102.68 192.765 100.918 192.748 98.1452ZM188.256 103.758C187.991 103.758 187.724 103.774 187.46 103.755C184.768 103.565 184.747 103.504 185.022 100.851C185.268 98.4776 185.46 96.0984 185.625 93.7188C185.708 92.5188 186.072 91.9464 187.455 92.1788C189.952 92.5984 192.602 92.7396 193.937 95.3296C196.128 99.58 193.273 103.739 188.256 103.758Z" fill="white"/>
<path fill-rule="evenodd" clip-rule="evenodd" d="M145.499 95.4033C146.807 93.2353 147.849 91.5081 149.032 89.5477C149.583 91.4921 150.045 93.1221 150.53 94.8313C152.484 93.5941 151.73 89.9185 155.307 90.0549C153.557 93.2585 151.895 96.3009 150.076 99.6317C149.485 97.5821 148.976 95.8149 148.342 93.6161C147.088 95.5393 146.034 97.1565 144.725 99.1621C144.022 95.9005 143.401 93.0213 142.782 90.1413C142.686 89.6913 142.749 89.3513 143.329 89.3741C143.868 89.3949 144.336 89.3717 144.456 90.1453C144.697 91.7085 145.063 93.2517 145.499 95.4033Z" fill="white"/>
<path fill-rule="evenodd" clip-rule="evenodd" d="M110.738 66.7559C115.427 68.0031 119.829 69.1743 124.231 70.3451C124.253 70.4543 124.274 70.5635 124.295 70.6727C119.149 71.9755 114.003 73.2787 108.857 74.5815C108.8 74.5055 108.742 74.4299 108.685 74.3535C109.639 73.5467 110.531 72.6451 111.564 71.9567C112.82 71.1199 113.064 70.2975 112.079 69.0863C111.6 68.4971 111.304 67.7579 110.738 66.7559Z" fill="white"/>
<path fill-rule="evenodd" clip-rule="evenodd" d="M108.807 70.2311C108.931 70.9383 108.405 71.1143 108.067 71.3847C106.561 72.5871 105.014 73.7395 103.523 74.9611C102.818 75.5391 102.295 75.7391 101.929 74.6787C101.886 74.5559 101.796 74.4499 101.733 74.3331C99.6862 70.5007 99.6862 70.5003 103.154 67.9111C106.058 65.7423 106.059 65.7415 107.934 68.7775C108.248 69.2855 108.549 69.8011 108.807 70.2311Z" fill="white"/>
<path fill-rule="evenodd" clip-rule="evenodd" d="M160.903 92.2596C158.69 92.2552 156.732 94.1404 156.77 96.2396C156.801 97.942 158.259 99.2884 160.075 99.292C162.239 99.296 164.201 97.4848 164.202 95.4832C164.203 93.6288 162.805 92.2636 160.903 92.2596ZM159.843 100.75C157.136 100.737 155.091 98.9036 155.049 96.4512C155 93.57 157.979 90.6832 161.043 90.644C163.746 90.6096 165.934 92.748 165.885 95.376C165.829 98.3456 163.11 100.764 159.843 100.75Z" fill="white"/>
<path fill-rule="evenodd" clip-rule="evenodd" d="M175.048 102.353C171.163 102.134 171.78 98.4637 169.89 96.9509C170.686 96.2173 171.49 96.6753 172.129 96.3725C172.979 95.9706 173.64 95.2862 173.491 94.3726C173.252 92.9006 171.907 92.997 170.802 92.8682C169.596 92.7278 169.806 93.7282 169.716 94.3634C169.425 96.4045 169.223 98.4581 168.965 100.504C168.883 101.152 168.867 101.87 167.849 101.756C166.672 101.625 167.169 100.745 167.223 100.235C167.501 97.5901 167.918 94.9594 168.203 92.3142C168.321 91.2134 168.793 90.8246 169.86 91.0006C170.843 91.163 171.862 91.1666 172.821 91.4138C174.053 91.7318 174.961 92.521 175.147 93.859C175.339 95.2446 175.201 96.7209 173.813 97.3345C172.207 98.0449 172.787 98.7413 173.433 99.6721C173.956 100.427 174.386 101.244 175.048 102.353Z" fill="white"/>
<path fill-rule="evenodd" clip-rule="evenodd" d="M96.5029 91.2627C97.3257 86.3323 98.1485 81.4019 98.9721 76.4688C99.0757 76.4935 99.2273 76.4876 99.3217 76.5584C100.344 77.3212 99.8165 79.66 101.58 79.3588C102.814 79.148 103.872 77.9079 105.008 77.1276C105.15 77.2348 105.292 77.3412 105.433 77.448L96.9877 91.5995C96.8261 91.4871 96.6641 91.3747 96.5029 91.2627Z" fill="white"/>
<path fill-rule="evenodd" clip-rule="evenodd" d="M103.869 64.0668C106.313 59.7112 108.757 55.3556 111.201 51C111.359 51.054 111.516 51.1084 111.674 51.162C111.145 55.778 110.616 60.394 110.076 65.1148C108.749 64.2288 108.824 61.998 107.436 62.0468C106.337 62.0852 105.285 63.4448 104.208 64.2124C104.162 64.2448 104.078 64.224 104.012 64.2276C103.963 64.1752 103.916 64.1216 103.869 64.0668Z" fill="white"/>
<path fill-rule="evenodd" clip-rule="evenodd" d="M99.7987 67.3408C96.9711 69.2136 95.9439 71.4176 98.5307 74.6044C98.3219 74.6076 98.1127 74.6112 97.9039 74.6148C94.4535 73.374 91.0035 72.1332 87.0039 70.6952C91.5803 69.4956 95.6899 68.418 99.7987 67.3408Z" fill="white"/>
<path fill-rule="evenodd" clip-rule="evenodd" d="M181.416 103.039C177.262 102.922 177.241 102.92 177.6 99.0596C177.796 96.9464 178.101 94.8432 178.306 92.7308C178.377 91.992 178.635 91.6916 179.414 91.7368C180.271 91.7864 180.158 92.3592 180.1 92.8556C179.846 95.0332 179.571 97.2092 179.266 99.3804C179.122 100.407 179.093 101.254 180.54 101.098C180.853 101.064 181.196 101.198 181.51 101.299C182.041 101.47 182.914 101.039 182.864 102.219C182.808 103.549 181.881 102.898 181.416 103.039Z" fill="white"/>
<path fill-rule="evenodd" clip-rule="evenodd" d="M212.72 100.21C212.72 98.4816 212.705 96.7528 212.729 95.0248C212.735 94.5484 212.537 93.8908 213.433 93.922C214.16 93.9476 214.485 94.2156 214.494 95.002C214.531 98.4588 214.604 101.915 214.714 105.37C214.736 106.059 214.538 106.33 213.86 106.345C213.175 106.36 212.698 106.248 212.712 105.396C212.741 103.668 212.721 101.939 212.72 100.21Z" fill="white"/>
<path fill-rule="evenodd" clip-rule="evenodd" d="M104.012 64.2278C103.983 64.4046 103.96 64.5874 103.7 64.4958C103.757 64.353 103.813 64.2106 103.87 64.0674C103.916 64.1214 103.963 64.175 104.012 64.2278Z" fill="white"/>
</svg>
