<svg width="260" height="160" viewBox="0 0 260 160" fill="none" xmlns="http://www.w3.org/2000/svg">
<path d="M260 0H0V160H260V0Z" fill="#20376C"/>
<path fill-rule="evenodd" clip-rule="evenodd" d="M80.7725 56.5166C80.7725 56.5166 107.284 30.5663 152.717 40.1074L116.744 51.5064C116.744 51.5064 93.6376 47.2567 80.7725 56.5166Z" fill="#F6D614"/>
<mask id="mask0" mask-type="alpha" maskUnits="userSpaceOnUse" x="70" y="41" width="120" height="41">
<path d="M70 41.7119H189.218V81.9603H70V41.7119Z" fill="white"/>
</mask>
<g mask="url(#mask0)">
<path fill-rule="evenodd" clip-rule="evenodd" d="M156.651 41.7119L118.056 54.1523L117.805 67.9158L150.875 81.9603L189.219 66.3394V52.548L156.651 41.7119ZM70 71.6308C70 71.6308 85.4884 47.7917 114.902 53.899V66.0864C114.902 66.0579 96.5398 53.8709 70 71.6308Z" fill="#F6D614"/>
</g>
<path fill-rule="evenodd" clip-rule="evenodd" d="M151.935 77.9631V68.4499L186.065 56.0095L186.316 64.7346L151.935 77.9631ZM124.614 54.9399L157.181 44.3574L183.441 53.0826L151.125 66.0575L124.614 54.9399ZM148.781 77.9631L120.428 66.0575V57.3323L148.781 68.1684V77.9631Z" fill="white"/>
<path fill-rule="evenodd" clip-rule="evenodd" d="M162.401 54.068C162.512 54.3494 162.373 54.659 162.093 54.7432L152.857 58.1491C152.577 58.2614 152.27 58.1207 152.186 57.8392C152.075 57.5578 152.215 57.2484 152.494 57.164L161.731 53.7581C162.01 53.6458 162.317 53.7865 162.401 54.068ZM156.289 51.5911C156.401 51.8726 156.261 52.1822 155.982 52.2666L146.745 55.6723C146.466 55.7849 146.159 55.6441 146.075 55.3627C145.963 55.0812 146.103 54.7716 146.382 54.6872L155.619 51.2815C155.87 51.169 156.177 51.3097 156.289 51.5911ZM159.442 52.6607C159.554 52.9421 159.415 53.2517 159.136 53.3359L149.898 56.7134C149.619 56.8263 149.312 56.6855 149.229 56.4041C149.117 56.1226 149.256 55.813 149.535 55.7283L158.773 52.3229C159.024 52.2385 159.331 52.3792 159.442 52.6607ZM140.494 53.5332C140.577 53.7581 140.466 54.0117 140.243 54.0961L132.54 56.9107C132.317 56.9948 132.066 56.8825 131.982 56.6574C131.898 56.4319 132.01 56.1789 132.233 56.0945L139.936 53.2799C140.159 53.1952 140.41 53.308 140.494 53.5332ZM138.652 52.5762C138.736 52.8014 138.624 53.0544 138.401 53.1392L130.698 55.9537C130.475 56.0382 130.224 55.9256 130.14 55.7004C130.057 55.4753 130.168 55.2219 130.391 55.1375L138.093 52.3229C138.317 52.2101 138.568 52.3508 138.652 52.5762Z" fill="#213E7B"/>
<mask id="mask1" mask-type="alpha" maskUnits="userSpaceOnUse" x="70" y="81" width="21" height="42">
<path d="M70 81.96H90.6796V122.758H70V81.96Z" fill="white"/>
</mask>
<g mask="url(#mask1)">
<path fill-rule="evenodd" clip-rule="evenodd" d="M83.9334 102.392C83.9334 99.0342 83.9317 95.6769 83.9354 92.3194C83.9359 91.8089 83.9038 91.3028 83.8352 90.7976C83.603 89.0818 82.7772 88.2273 81.0816 87.969C80.5006 87.8806 79.9195 87.9104 79.3388 88.0058C78.148 88.2014 77.3666 88.866 77.0206 90.0363C76.7839 90.8367 76.7409 91.6611 76.7412 92.4906C76.7423 99.0623 76.7432 105.634 76.7395 112.206C76.739 112.748 76.7728 113.287 76.8333 113.824C77.0047 115.347 77.7442 116.324 78.9958 116.64C79.7694 116.835 80.5564 116.831 81.3436 116.708C82.6946 116.496 83.4576 115.673 83.7478 114.359C83.8784 113.766 83.9342 113.167 83.934 112.56C83.9317 109.171 83.9328 105.781 83.9334 102.392ZM90.676 102.385C90.676 105.728 90.6685 109.071 90.6797 112.413C90.6841 113.825 90.5245 115.209 90.0537 116.541C89.0479 119.388 87.1073 121.289 84.2423 122.158C81.5613 122.971 78.8443 122.974 76.1867 122.072C72.7768 120.915 70.8746 118.411 70.2023 114.899C70.0525 114.117 69.9995 113.324 70 112.526C70.0039 105.745 70.005 98.9644 70 92.1832C69.9992 90.7545 70.1895 89.3594 70.6846 88.0191C71.6786 85.3286 73.5353 83.507 76.2381 82.6255C78.8898 81.7603 81.5848 81.7369 84.2468 82.5655C87.7653 83.6604 89.7473 86.1606 90.467 89.7458C90.6428 90.6234 90.6791 91.5122 90.6777 92.405C90.6735 95.7318 90.6763 99.0584 90.676 102.385Z" fill="#FACA07"/>
</g>
<path fill-rule="evenodd" clip-rule="evenodd" d="M157.225 107.191C155.367 108.275 153.62 109.345 152.147 110.808C150.856 112.089 150.167 113.611 150.329 115.474C150.428 116.601 150.995 117.301 152.078 117.553C153.631 117.916 154.916 117.404 156.047 116.33C156.847 115.57 157.321 114.765 157.256 113.56C157.144 111.472 157.225 109.373 157.225 107.191ZM157.536 119.886C156.77 120.474 156.069 121.013 155.302 121.456C153.32 122.598 151.193 122.946 148.957 122.587C146.56 122.202 144.77 120.362 144.377 117.815C143.682 113.3 145.244 109.704 148.854 106.985C151.161 105.248 153.756 104.065 156.416 103.011C157.222 102.691 157.225 102.696 157.225 101.814C157.225 100.907 157.248 99.9987 156.973 99.1177C156.585 97.8745 155.764 97.2218 154.476 97.1686C154.084 97.152 153.683 97.1588 153.296 97.2213C152.058 97.4208 151.307 98.1681 150.995 99.3845C150.863 99.8951 150.79 100.414 150.773 100.94C150.765 101.211 150.689 101.321 150.387 101.319C148.587 101.303 146.788 101.309 144.988 101.313C144.783 101.313 144.625 101.325 144.652 101.024C144.934 97.8937 146.028 95.219 148.812 93.5038C150.099 92.7109 151.522 92.3059 153.015 92.1744C154.964 92.0028 156.894 92.0925 158.755 92.7807C161.425 93.7675 162.823 95.7594 163.212 98.5424C163.298 99.1588 163.313 99.7783 163.313 100.4C163.311 106.291 163.321 112.182 163.304 118.072C163.3 119.32 163.401 120.553 163.638 121.772C163.711 122.149 163.604 122.192 163.279 122.19C161.622 122.177 159.964 122.175 158.306 122.192C157.97 122.195 157.839 122.114 157.809 121.754C157.76 121.155 157.639 120.561 157.536 119.886Z" fill="white"/>
<path fill-rule="evenodd" clip-rule="evenodd" d="M99.3874 95.598C99.991 95.0917 100.525 94.6563 101.045 94.2051C102.706 92.7643 104.614 92.0503 106.818 92.1006C109.253 92.1564 110.933 93.439 111.596 95.808C111.834 96.6591 111.907 97.5263 111.907 98.4044C111.907 106.173 111.905 113.942 111.915 121.71C111.915 122.079 111.827 122.201 111.445 122.197C109.74 122.176 108.035 122.174 106.331 122.198C105.922 122.203 105.804 122.11 105.805 121.678C105.82 114.498 105.816 107.319 105.816 100.139C105.816 99.9322 105.807 99.725 105.817 99.5184C105.911 97.499 104.553 96.895 102.897 97.2445C101.743 97.488 100.823 98.2209 99.8852 98.895C99.6712 99.049 99.7379 99.2651 99.7376 99.4619C99.7345 104.938 99.7354 110.414 99.7354 115.891C99.7354 117.833 99.7248 119.775 99.744 121.717C99.7479 122.101 99.6338 122.2 99.2643 122.196C97.5282 122.178 95.7918 122.178 94.0557 122.196C93.6944 122.199 93.6081 122.084 93.6084 121.733C93.6173 112.181 93.6165 102.629 93.6104 93.0779C93.6101 92.7666 93.667 92.6239 94.0197 92.6272C95.6771 92.6441 97.3345 92.641 98.9919 92.6289C99.2958 92.6264 99.4036 92.708 99.3949 93.0303C99.3726 93.8507 99.3874 94.6723 99.3874 95.598Z" fill="#FACB09"/>
<path fill-rule="evenodd" clip-rule="evenodd" d="M118.782 105.353C118.782 99.9259 118.777 94.4983 118.792 89.0701C118.794 88.615 118.722 88.4537 118.218 88.4638C116.372 88.501 114.525 88.4723 112.679 88.4846C112.375 88.4869 112.236 88.4492 112.24 88.085C112.261 86.3661 112.259 84.647 112.241 82.9278C112.237 82.5938 112.356 82.5473 112.645 82.5479C118.989 82.5549 125.334 82.5558 131.678 82.5459C131.996 82.5453 132.066 82.6416 132.064 82.9453C132.05 84.6484 132.044 86.3515 132.067 88.0543C132.072 88.4354 131.942 88.4886 131.61 88.4858C129.748 88.4709 127.885 88.4939 126.023 88.4669C125.598 88.4607 125.512 88.5778 125.513 88.991C125.525 99.8623 125.519 110.734 125.536 121.605C125.536 122.103 125.401 122.199 124.938 122.193C123.044 122.165 121.15 122.168 119.257 122.191C118.85 122.196 118.773 122.068 118.774 121.684C118.786 116.241 118.782 110.797 118.782 105.353Z" fill="white"/>
<path fill-rule="evenodd" clip-rule="evenodd" d="M171.967 107.803C172.004 109.565 171.902 111.73 172.022 113.894C172.058 114.549 172.189 115.188 172.437 115.795C172.953 117.062 173.937 117.677 175.389 117.661C176.823 117.646 177.763 117.026 178.268 115.76C178.604 114.919 178.685 114.033 178.716 113.141C178.737 112.553 178.738 111.963 178.723 111.374C178.715 111.085 178.764 110.953 179.103 110.957C180.886 110.975 182.67 110.966 184.453 110.964C184.647 110.964 184.817 110.935 184.819 111.24C184.835 113.271 184.688 115.278 184.003 117.209C182.877 120.384 180.593 122.118 177.33 122.581C175.518 122.838 173.705 122.792 171.935 122.275C168.984 121.414 167.259 119.357 166.442 116.443C166.054 115.056 165.887 113.635 165.879 112.2C165.863 109 165.858 105.8 165.881 102.601C165.894 100.86 166.119 99.1428 166.727 97.4988C167.897 94.3367 170.217 92.6569 173.478 92.2221C175.117 92.0037 176.756 92.0383 178.368 92.4343C181.487 93.2002 183.352 95.2596 184.226 98.3063C184.604 99.6272 184.752 100.985 184.815 102.356C184.829 102.68 184.726 102.747 184.425 102.745C182.657 102.731 180.889 102.728 179.121 102.747C178.768 102.751 178.717 102.624 178.721 102.311C178.731 101.324 178.685 100.338 178.381 99.3857C177.895 97.8622 176.901 97.1405 175.309 97.1552C173.749 97.1693 172.773 97.9044 172.299 99.4108C172.009 100.335 171.974 101.288 171.97 102.243C171.961 103.962 171.967 105.681 171.967 107.803Z" fill="white"/>
<path fill-rule="evenodd" clip-rule="evenodd" d="M136.322 96.0551C136.451 96.0252 136.486 95.9093 136.545 95.82C138.166 93.3778 140.425 92.1208 143.346 92.1104C143.733 92.1087 144.247 91.9289 144.472 92.1968C144.662 92.4228 144.541 92.923 144.541 93.3021C144.545 94.9092 144.535 96.5169 144.55 98.124C144.553 98.4522 144.478 98.5189 144.164 98.4275C142.837 98.041 141.483 97.8448 140.099 97.9481C138.393 98.0751 137.03 99.2228 136.644 100.856C136.538 101.306 136.521 101.767 136.521 102.23C136.523 108.707 136.518 115.184 136.531 121.661C136.532 122.063 136.461 122.203 136.023 122.196C134.319 122.166 132.615 122.175 130.91 122.191C130.564 122.194 130.427 122.139 130.428 121.735C130.441 112.187 130.44 102.638 130.429 93.0899C130.429 92.7302 130.518 92.6415 130.871 92.646C132.528 92.6663 134.185 92.6643 135.841 92.6475C136.175 92.6438 136.27 92.7381 136.261 93.0727C136.238 93.9154 136.25 94.7592 136.257 95.603C136.258 95.7533 136.197 95.9202 136.322 96.0551Z" fill="white"/>
<mask id="mask2" mask-type="alpha" maskUnits="userSpaceOnUse" x="185" y="88" width="5" height="5">
<path d="M185.833 88.5254H189.917V92.6579H185.833V88.5254Z" fill="white"/>
</mask>
<g mask="url(#mask2)">
<path fill-rule="evenodd" clip-rule="evenodd" d="M187.877 92.4247C188.896 92.4182 189.72 91.5795 189.701 90.5674C189.682 89.5344 188.866 88.7407 187.837 88.7539C186.841 88.7666 186.045 89.5778 186.042 90.584C186.039 91.6062 186.861 92.4312 187.877 92.4247ZM185.833 90.6009C185.83 89.4539 186.734 88.5271 187.857 88.5254C188.983 88.5234 189.907 89.4435 189.917 90.5775C189.927 91.6938 188.996 92.6457 187.881 92.6578C186.772 92.6702 185.836 91.7298 185.833 90.6009Z" fill="white"/>
</g>
<path fill-rule="evenodd" clip-rule="evenodd" d="M187.816 90.481C188.113 90.4256 188.564 90.53 188.561 90.0442C188.556 89.4923 188.06 89.642 187.732 89.5857C187.307 89.5131 187.408 89.8309 187.383 90.0712C187.35 90.4064 187.465 90.5553 187.816 90.481ZM188.836 91.7031C188.379 91.8472 188.409 91.4549 188.267 91.2691C188.103 91.0549 188.152 90.655 187.711 90.6806C187.481 90.6941 187.356 90.7284 187.384 90.9947C187.403 91.183 187.386 91.3752 187.386 91.5658C187.386 91.6736 187.355 91.7467 187.227 91.7453C187.093 91.7439 187.08 91.6567 187.08 91.5556C187.08 90.8891 187.081 90.2226 187.08 89.5559C187.08 89.4146 187.146 89.3594 187.282 89.3642C187.673 89.3786 188.069 89.3225 188.454 89.4427C188.683 89.5137 188.843 89.6513 188.88 89.8976C188.919 90.15 188.876 90.4084 188.635 90.5154C188.333 90.6499 188.39 90.8061 188.511 91.0245C188.625 91.2305 188.716 91.4498 188.836 91.7031Z" fill="white"/>
</svg>
