<svg width="30" height="31" viewBox="0 0 30 31" fill="none" xmlns="http://www.w3.org/2000/svg">
<path d="M6.25613 1.716C6.55986 1.61476 6.9142 1.81725 6.96482 2.17159C7.06607 2.47532 6.86358 2.82966 6.50924 2.88028C6.40799 2.88028 6.30675 2.88028 6.20551 2.88028C5.90179 2.82966 5.6993 2.47532 5.74992 2.17159C5.74992 2.12097 5.74992 2.12097 5.80055 2.07035C5.95241 1.91848 6.10427 1.76662 6.25613 1.716ZM23.7203 1.86786C24.024 1.76662 24.3784 1.96911 24.4796 2.27283C24.4796 2.37407 24.5303 2.42469 24.4796 2.52594C24.429 2.82966 24.1253 3.08276 23.7709 3.03214C23.4672 2.98152 23.2141 2.6778 23.2647 2.32345C23.366 2.12097 23.5178 1.91848 23.7203 1.86786ZM2.76329 2.47532C3.16826 2.37407 3.57323 2.57656 3.67447 2.98152C3.72509 3.08277 3.72509 3.18401 3.72509 3.28525C3.67447 3.63959 3.32012 3.94332 2.96578 3.8927C2.91516 3.8927 2.86454 3.8927 2.81391 3.84208C2.51019 3.74083 2.30771 3.48773 2.30771 3.13338C2.30771 2.82966 2.51019 2.57656 2.76329 2.47532ZM27.3144 2.98152C27.6687 2.82966 28.0737 2.98152 28.2256 3.33587C28.2256 3.33587 28.2256 3.38649 28.2762 3.38649C28.3774 3.79146 28.1243 4.19642 27.77 4.29767H27.7194C27.365 4.39891 27.0107 4.19642 26.9094 3.84208C26.8082 3.53835 26.9601 3.18401 27.3144 2.98152ZM21.2905 3.58897C21.6449 3.43711 22.1005 3.63959 22.2523 3.99394C22.2523 4.04456 22.2523 4.04456 22.2523 4.09518C22.3536 4.50015 22.1511 4.8545 21.7461 4.95574C21.3411 5.05698 20.9362 4.8545 20.8349 4.44953C20.7843 4.1458 20.9868 3.74083 21.2905 3.58897ZM8.53407 3.63959C8.93904 3.53835 9.344 3.74083 9.44525 4.1458C9.44525 4.19642 9.44525 4.24704 9.49587 4.29767C9.54649 4.70263 9.24276 5.05698 8.8378 5.1076C8.43283 5.15822 8.07848 4.8545 8.02786 4.44953C8.02786 4.04456 8.23034 3.74083 8.53407 3.63959ZM5.19309 4.75325C5.49682 4.65201 5.85117 4.75325 6.15489 4.95574C6.50924 5.25946 6.71172 5.71505 6.55986 6.17063C6.408 6.72746 5.85117 7.03119 5.29434 6.98057C4.78813 6.92995 4.43378 6.52498 4.33254 6.06939C4.2313 5.46194 4.58564 4.90512 5.19309 4.75325ZM24.5303 5.00636C24.9352 4.90512 25.3402 4.95574 25.6439 5.25946C25.9983 5.56319 26.0995 6.01877 25.9983 6.42374C25.8464 7.03119 25.1883 7.33491 24.6315 7.18305C24.1253 7.03119 23.8216 6.62622 23.7709 6.06939C23.7203 5.56319 24.024 5.15822 24.5303 5.00636ZM18.5064 5.46195C18.8607 5.3607 19.2657 5.46195 19.5188 5.71505C19.9238 6.0694 20.025 6.62622 19.8225 7.08181C19.62 7.48678 19.2151 7.73988 18.7089 7.68926C18.1014 7.63864 17.6964 7.13243 17.6458 6.5756C17.6458 6.06939 18.0002 5.61381 18.5064 5.46195ZM11.0651 5.66443C11.6726 5.51256 12.28 5.81629 12.4825 6.42374C12.4825 6.42374 12.4825 6.42374 12.4825 6.47436C12.6344 7.08181 12.2294 7.68926 11.6219 7.84112C11.217 7.99299 10.7614 7.84112 10.5083 7.5374C10.1033 7.03119 10.2046 6.3225 10.6601 5.91753C10.812 5.81629 10.9132 5.76567 11.0651 5.66443ZM1.59902 6.22126C1.90274 6.12002 2.15584 6.27188 2.30771 6.52498C2.45957 6.82871 2.30771 7.18305 2.0546 7.33492C1.75088 7.48678 1.39653 7.33492 1.24467 7.08181C1.19405 6.98057 1.19405 6.87933 1.19405 6.82871C1.19405 6.52498 1.34591 6.3225 1.59902 6.22126ZM28.175 6.52498C28.4787 6.42374 28.833 6.5756 28.9343 6.87933C28.9343 6.92995 28.9343 6.92995 28.9343 6.98057C28.9849 7.23368 28.8837 7.5374 28.6305 7.63864C28.3268 7.7905 27.9725 7.63864 27.8206 7.33492V7.2843C27.77 6.92995 27.9219 6.62622 28.175 6.52498ZM7.92662 7.48678C8.63531 7.2843 9.39463 7.63864 9.69835 8.29671C9.95145 8.85354 9.85021 9.46099 9.49587 9.91658C8.93904 10.524 7.97724 10.5747 7.36979 10.0178C7.36979 10.0178 7.36979 10.0178 7.31917 9.9672C6.76234 9.41037 6.76234 8.60044 7.21793 7.99299C7.42041 7.7905 7.67352 7.58802 7.92662 7.48678ZM21.2905 7.63864C22.1005 7.38554 22.961 7.84112 23.1635 8.65106C23.366 9.46099 22.8598 10.2709 22.0498 10.4734C21.5436 10.5746 21.0374 10.4734 20.6325 10.0684C20.1769 9.56223 20.0756 8.80292 20.4806 8.19547C20.6831 7.94236 20.9362 7.73988 21.2905 7.63864ZM14.7098 8.24609C15.2666 8.14485 15.8235 8.29671 16.1778 8.7523C16.6334 9.30913 16.6334 10.1697 16.1272 10.7265C15.5197 11.334 14.558 11.334 13.9505 10.7265C13.4443 10.1191 13.4949 9.20789 14.0517 8.65106C14.2542 8.39795 14.5073 8.29671 14.7098 8.24609ZM3.37074 8.44857C3.72509 8.29671 4.13006 8.44857 4.33254 8.80292C4.4844 9.15727 4.33254 9.61285 3.97819 9.76472C3.62385 9.91658 3.16826 9.76471 3.0164 9.41037C2.96578 9.30913 2.96578 9.25851 2.96578 9.15726C2.86453 8.90416 3.06702 8.60043 3.37074 8.44857ZM26.1501 8.70168C26.5551 8.60043 26.9601 8.85354 27.0613 9.25851V9.30913C27.1119 9.7141 26.8082 10.0684 26.4032 10.1191C26.3526 10.1191 26.3526 10.1191 26.302 10.1191C25.9983 10.1191 25.6945 9.86596 25.6439 9.56223C25.5933 9.15727 25.7958 8.80292 26.1501 8.70168ZM18.1014 10.2709C18.9113 10.1191 19.7213 10.5747 20.0756 11.2833C20.43 11.9414 20.3793 12.7007 19.9238 13.3082C19.4176 13.9662 18.6076 14.2193 17.7977 14.0169C16.9371 13.7638 16.3803 13.0045 16.4309 12.0933C16.5322 11.1821 17.1902 10.4228 18.1014 10.2709ZM11.1664 10.4228C12.1788 10.2709 13.0899 10.8784 13.343 11.8402C13.5962 12.7513 13.1406 13.6625 12.28 14.0675C11.4701 14.4218 10.4577 14.1687 9.95145 13.46C9.29338 12.6501 9.44525 11.4352 10.2552 10.7771C10.5589 10.6253 10.812 10.4734 11.1664 10.4228ZM5.64868 10.8278C6.20551 10.6253 6.81296 10.929 7.01544 11.4352C7.21793 11.9414 7.01544 12.4982 6.61048 12.802C6.25613 13.0551 5.85117 13.1057 5.4462 12.9032C4.88937 12.6501 4.68689 11.9414 4.93999 11.3846C5.09185 11.1315 5.34496 10.929 5.64868 10.8278ZM23.5178 10.9796C24.1253 10.7771 24.7834 11.0809 24.9858 11.6883C25.1883 12.2958 24.8846 12.9538 24.2772 13.1563H24.2265C23.6191 13.3082 22.961 12.9032 22.8091 12.2451V12.1945C22.7079 11.6883 23.0116 11.1821 23.5178 10.9796ZM14.5073 13.6119C15.5197 13.3588 16.5828 13.8144 17.089 14.7762C17.494 15.4849 17.4433 16.396 16.9878 17.1047C16.4309 17.9653 15.4185 18.3196 14.4567 18.0665C13.3431 17.7122 12.6344 16.5985 12.7862 15.4343C12.9887 14.5231 13.6468 13.8144 14.5073 13.6119ZM8.23035 14.4725C8.73655 14.3712 9.24276 14.4725 9.64773 14.8774C10.1539 15.4343 10.2046 16.1936 9.79959 16.801C9.54649 17.1554 9.14152 17.4085 8.68593 17.4085C8.17973 17.4591 7.72414 17.2566 7.42041 16.8516C7.16731 16.5479 7.06607 16.1429 7.11669 15.738C7.16731 15.0799 7.62289 14.5737 8.23035 14.4725ZM20.6831 14.4725C21.4424 14.3206 22.1511 14.6749 22.4548 15.3836C22.6573 15.8392 22.556 16.396 22.2523 16.801C21.9486 17.206 21.493 17.4591 20.9868 17.4085C20.5312 17.4085 20.1262 17.206 19.8731 16.8516C19.5188 16.3454 19.4682 15.6874 19.7719 15.1811C19.9744 14.8268 20.3287 14.5231 20.6831 14.4725ZM10.6601 17.1554C11.6726 16.8516 12.7356 17.4591 13.0393 18.4715V18.5221C13.2418 19.3827 12.8368 20.2432 12.0775 20.6482C11.2676 21.0532 10.3058 20.8507 9.69835 20.142C9.14152 19.4839 9.14152 18.5221 9.64773 17.8134C9.90083 17.5097 10.2552 17.2566 10.6601 17.1554ZM17.8989 17.7122C18.7595 17.5097 19.6707 17.9653 20.0756 18.7752C20.43 19.5345 20.2275 20.3951 19.62 20.9519C19.1644 21.3569 18.557 21.5088 18.0002 21.4075C16.9878 21.205 16.2791 20.2432 16.4309 19.1802C16.5828 18.4715 17.1396 17.8641 17.8989 17.7122ZM5.54744 18.2184C6.15489 18.0665 6.81296 18.3703 6.96482 19.0283C6.96482 19.0789 6.96482 19.1296 7.01544 19.1296C7.11669 19.6358 6.81296 20.142 6.35737 20.3445C5.74992 20.547 5.09185 20.2939 4.88937 19.6864C4.63627 19.079 4.93999 18.4715 5.54744 18.2184ZM23.6697 18.3703C24.2265 18.2184 24.834 18.5727 24.9858 19.1296C25.1377 19.737 24.834 20.3951 24.2265 20.547C24.2265 20.547 24.2265 20.547 24.1759 20.547C23.5685 20.6988 22.961 20.3445 22.8091 19.7876V19.737C22.6573 19.1296 23.0623 18.5221 23.6697 18.3703ZM14.2542 20.7494C14.8111 20.6482 15.3679 20.8507 15.7222 21.2556C16.1778 21.7619 16.1778 22.5212 15.7729 23.078C15.4185 23.5842 14.7604 23.8373 14.1024 23.6348C13.3937 23.3817 12.9887 22.673 13.0899 21.9643C13.1912 21.3569 13.6468 20.8507 14.2542 20.7494ZM7.876 20.9519C8.38221 20.8001 8.88842 20.9013 9.29338 21.2556C9.64773 21.61 9.85021 22.1162 9.74897 22.5718C9.64773 23.3817 8.88842 23.9386 8.07848 23.8373C7.36979 23.7361 6.81296 23.1792 6.76234 22.4705C6.76234 21.7619 7.16731 21.1544 7.876 20.9519ZM21.3411 21.0025C22.1511 20.8001 22.961 21.3063 23.1635 22.1162C23.3154 22.8755 22.8091 23.6348 22.1005 23.8373C21.493 23.9892 20.8856 23.7867 20.4806 23.2805C20.0756 22.673 20.1262 21.9137 20.6325 21.3569C20.7843 21.1544 21.0374 21.0532 21.3411 21.0025ZM3.37074 21.3569C3.72509 21.2556 4.13006 21.4581 4.2313 21.8125C4.38316 22.2174 4.18068 22.6224 3.77571 22.7743H3.72509C3.32012 22.8755 2.91516 22.6224 2.81391 22.2174C2.81391 22.1668 2.81391 22.1162 2.81391 22.1162C2.81391 21.7112 3.0164 21.4075 3.37074 21.3569ZM25.9983 21.5088C26.3526 21.3569 26.8082 21.5088 26.9601 21.9137C27.1119 22.2681 26.9601 22.7236 26.5551 22.8755C26.4538 22.9261 26.302 22.9261 26.2007 22.9261C25.7958 22.8755 25.4921 22.5212 25.5427 22.1162C25.5933 21.8125 25.7452 21.61 25.9983 21.5088ZM10.8626 23.483C11.4701 23.2805 12.1281 23.6348 12.3306 24.2423C12.3306 24.2929 12.3813 24.3435 12.3813 24.3941C12.4825 25.0016 12.0775 25.5584 11.4701 25.6597C11.4195 25.6597 11.3688 25.6597 11.3182 25.6597C10.812 25.6597 10.3058 25.3053 10.1539 24.7991C10.0021 24.2929 10.3058 23.6854 10.8626 23.483ZM18.4558 23.6854C18.7595 23.5842 19.1138 23.6854 19.3669 23.8879C19.8731 24.2929 19.9238 25.0016 19.5188 25.5078L19.4682 25.5584C19.0632 26.014 18.3039 26.0646 17.8483 25.609C17.6964 25.4572 17.5446 25.2547 17.494 25.0016C17.4433 24.3941 17.8483 23.8373 18.4558 23.6854ZM1.44715 23.7867C1.75088 23.6854 2.10522 23.8373 2.20646 24.141C2.35833 24.4448 2.20646 24.7991 1.90274 24.9003C1.59901 25.0016 1.24467 24.9003 1.14343 24.5966C0.940944 24.2929 1.09281 23.9386 1.44715 23.7867ZM28.1243 23.9892C28.4281 23.9386 28.7824 24.141 28.833 24.4448C28.8836 24.7485 28.6812 25.1028 28.3774 25.1535C28.0737 25.2041 27.7194 25.0016 27.6687 24.6979C27.6687 24.546 27.6687 24.4448 27.7194 24.2929C27.8206 24.141 27.9725 23.9892 28.1243 23.9892ZM4.99061 24.2929C5.59806 24.141 6.25613 24.546 6.35737 25.2041C6.45862 25.8115 6.05365 26.419 5.4462 26.5202C5.4462 26.5202 5.4462 26.5202 5.39558 26.5202C4.73751 26.6215 4.18068 26.1659 4.07944 25.5078V25.4572C4.07944 24.9003 4.43378 24.3941 4.99061 24.2929ZM24.429 24.3941C25.0365 24.2423 25.6439 24.5966 25.7958 25.2041C25.7958 25.2547 25.8464 25.3053 25.8464 25.4066C25.897 26.0646 25.3908 26.6215 24.7327 26.6215C24.6821 26.6215 24.5809 26.6215 24.5303 26.6215C23.9734 26.5202 23.5685 26.014 23.5685 25.4572C23.6191 24.951 23.9734 24.546 24.429 24.3941ZM8.33159 26.2671C8.73655 26.1659 9.14152 26.3684 9.24276 26.7227C9.24276 26.7733 9.24276 26.7733 9.24276 26.8239C9.29338 27.2289 9.04028 27.6339 8.63531 27.6845C8.58469 27.6845 8.53407 27.6845 8.53407 27.6845C8.1291 27.6845 7.82538 27.3808 7.77476 26.9758C7.77476 26.6721 7.97724 26.3684 8.33159 26.2671ZM21.1387 26.5202C21.5436 26.3684 21.9486 26.5708 22.0498 26.9758V27.0264C22.1511 27.4314 21.898 27.8364 21.5436 27.9376C21.1387 28.0388 20.7337 27.7857 20.6325 27.4314C20.6325 27.3301 20.5818 27.2289 20.6325 27.1783C20.6831 26.8239 20.8856 26.6215 21.1387 26.5202ZM27.0613 27.2795C27.4663 27.1277 27.8712 27.3301 28.0231 27.7351C28.0231 27.7857 28.0737 27.8364 28.0737 27.9376C28.1243 28.2919 27.8712 28.6463 27.4663 28.6969C27.0613 28.7475 26.707 28.4438 26.6563 28.0388V27.9882C26.6057 27.6845 26.8082 27.3808 27.0613 27.2795ZM2.61143 27.3301C2.96578 27.2289 3.32012 27.4314 3.47198 27.7857C3.57323 28.1907 3.37074 28.5957 2.96578 28.6969C2.91516 28.6969 2.86454 28.6969 2.81391 28.7475C2.40895 28.7475 2.10522 28.4438 2.10522 28.0895C2.10522 28.0388 2.10522 27.9882 2.10522 27.9882C2.10522 27.6339 2.35833 27.4314 2.61143 27.3301ZM5.95241 28.3932C6.25613 28.2919 6.61048 28.4438 6.71172 28.7475C6.81296 29.0513 6.6611 29.4056 6.35737 29.5068H6.30675C6.00303 29.5575 5.64868 29.4056 5.59806 29.0513C5.49682 28.7982 5.6993 28.4944 5.95241 28.3932ZM23.4672 28.545C23.7709 28.4438 24.1253 28.5957 24.2265 28.8994C24.3278 29.2031 24.1759 29.5575 23.8722 29.6587C23.5685 29.7599 23.2141 29.6081 23.1129 29.3044C23.1129 29.2537 23.0623 29.1525 23.0623 29.1019C23.0623 28.8488 23.2141 28.5957 23.4672 28.545Z" fill="#5D8DBD"/>
</svg>