<svg width="24" height="24" viewBox="0 0 24 24" fill="none" xmlns="http://www.w3.org/2000/svg">
<path d="M4.14478 10.4399V7.7489C4.14478 7.64919 4.15469 7.58939 4.32358 7.58939H6.59735C6.99458 7.58939 7.21302 7.92832 7.37194 8.56616L7.50101 9.07456H7.88822C7.95765 7.62941 8.01717 7.00146 8.01717 7.00146C8.01717 7.00146 7.04414 7.11107 6.46822 7.11107H3.55907L1.99991 7.06121V7.47984L2.52628 7.5795C2.89366 7.64931 2.98286 7.72895 3.01288 8.06794C3.01288 8.06794 3.04273 9.06461 3.04273 10.7092C3.04273 12.3536 3.01288 13.3405 3.01288 13.3405C3.01288 13.6394 2.89366 13.749 2.52628 13.819L1.99991 13.9187V14.3371L3.55907 14.2874H6.16059C6.74641 14.2874 8.10672 14.3371 8.10672 14.3371C8.13639 13.9782 8.33513 12.3536 8.36492 12.1745H7.99753L7.61026 13.0615C7.30239 13.759 6.85566 13.809 6.35909 13.809H4.8795C4.38298 13.809 4.14466 13.6096 4.14466 13.1811V10.9085C4.14466 10.9085 5.22695 10.9085 5.60419 10.9385C5.88227 10.9585 6.05098 11.0382 6.14047 11.4269L6.25969 11.9452H6.68642L6.65675 10.6394L6.71627 9.32384H6.28942L6.1505 9.90187C6.06101 10.2806 6.00155 10.3505 5.61422 10.3903C5.1774 10.4402 4.1446 10.4302 4.1446 10.4302V10.4401H4.14478V10.4399ZM10.0329 8.02803C9.89388 8.64597 9.75484 9.12435 9.26829 9.44333C8.97045 9.64258 8.67249 9.71227 8.55351 9.72228V10.101H9.43718V13.1608C9.43718 14.0181 10.0032 14.4368 10.7578 14.4368C11.3437 14.4368 11.9493 14.1876 12.1579 13.6692L11.9493 13.4001C11.8499 13.5696 11.5324 13.8187 11.1351 13.8187C10.6983 13.8187 10.46 13.5196 10.46 12.7623V10.0613L11.9297 10.1711L12.009 9.49313L10.4601 9.55299V8.03792L10.0329 8.02803ZM13.1707 12.7345L12.7934 12.7444C12.8132 12.9636 12.8233 13.2428 12.8233 13.5019C12.8233 13.7711 12.8134 14.0202 12.7934 14.1398C12.7934 14.1398 13.5481 14.4186 14.3126 14.4186C15.3453 14.4186 16.1695 13.9203 16.1695 12.9435C16.1695 11.2693 13.6673 11.5185 13.6673 10.392C13.6673 9.92366 14.0843 9.74419 14.541 9.74419C14.8985 9.74419 15.1964 9.87375 15.2559 10.0633L15.5042 10.8108L15.8717 10.7909C15.9015 10.3922 15.9213 9.93367 15.9809 9.56495C15.6631 9.42539 14.9977 9.34551 14.581 9.34551C13.6077 9.34551 12.8234 9.77415 12.8234 10.731C12.8234 12.3954 15.266 12.0566 15.266 13.2827C15.266 13.721 14.9977 14.0301 14.3922 14.0301C13.8363 14.0301 13.5582 13.7411 13.4491 13.4519L13.1707 12.7345ZM19.1554 13.8859C18.5806 15.4978 17.8769 15.9153 17.2426 15.9153C16.9749 15.9153 16.8461 15.7958 16.8063 15.6071L16.6577 14.8309L16.2413 14.8508C16.162 15.3085 16.0827 15.8161 15.9739 16.2338C16.2217 16.4226 16.6377 16.5223 16.9649 16.5223C17.649 16.5223 18.6896 16.4326 19.6409 14.1644L21.2368 10.384C21.3657 10.0755 21.4151 10.0456 21.7917 9.89631L21.9999 9.8169V9.46867L21.0583 9.51841L20.0473 9.46867V9.8169L20.3049 9.89631C20.5625 9.97607 20.6817 10.0755 20.6817 10.2546C20.6817 10.3441 20.6518 10.4337 20.6021 10.5728C20.4535 10.9511 19.5317 13.1994 19.2842 13.6771L19.5317 13.5874C19.0955 12.503 18.4317 10.6922 18.3325 10.384C18.3127 10.3243 18.3028 10.2746 18.3028 10.2246C18.3028 10.0655 18.4118 9.9361 18.6497 9.88642L18.9768 9.81696V9.46873L17.6188 9.51847L16.5385 9.46873V9.81696L16.7169 9.87659C16.9647 9.95617 17.0242 10.0259 17.1729 10.374C17.9953 12.2644 18.3821 13.2989 18.9071 14.6521L19.1554 13.8859Z" fill="#F27224"/>
</svg>
