<svg width="30" height="30" viewBox="0 0 30 30" fill="none" xmlns="http://www.w3.org/2000/svg">
<rect width="30" height="30" rx="2" fill="#004990"/>
<path d="M24.9025 15C24.9025 20.4668 20.4728 24.9023 14.9943 24.9023C9.52747 24.9023 5.09192 20.4668 5.09192 15C5.09778 9.52734 9.52747 5.09766 14.9943 5.09766C20.4728 5.09766 24.9025 9.52734 24.9025 15Z" fill="#ED1C2E"/>
<path d="M11.8595 16.2949L12.5626 15.5918L20.4083 15.2344L20.7599 14.8887H13.0313L8.81259 9.96094L22.8692 14.6484L18.1876 19.3418H8.81259L9.75009 18.3984L17.5958 18.0527L17.9474 17.6953H10.4532L11.1563 16.9922L19.002 16.6406L19.3536 16.2949H11.8595Z" fill="white"/>
</svg>
