<svg width="40" height="40" viewBox="0 0 40 40" fill="none" xmlns="http://www.w3.org/2000/svg">
<g clip-path="url(#clip0_364_2656)">
<path d="M38.5022 23.5414L20.0094 5.04853C19.6856 4.72022 19.2998 4.45959 18.8743 4.2818C18.4489 4.10401 17.9924 4.01261 17.5313 4.01294H7.54517C7.08219 4.01293 6.62381 4.10443 6.1963 4.28217C5.7688 4.4599 5.38061 4.72036 5.0541 5.04859C4.72759 5.37682 4.46917 5.76637 4.29369 6.1948C4.1182 6.62323 4.02911 7.08211 4.03154 7.54508V17.5127C4.03081 17.9766 4.12192 18.4361 4.29967 18.8645C4.47741 19.293 4.73826 19.6821 5.06714 20.0093L23.56 38.5021C24.2247 39.1594 25.1217 39.528 26.0565 39.528C26.9913 39.528 27.8884 39.1594 28.5531 38.5021L38.5207 28.5345C39.1755 27.8673 39.5408 26.9689 39.5374 26.0341C39.5339 25.0993 39.1619 24.2036 38.5022 23.5414ZM12.8156 16.3292C12.1163 16.3328 11.4316 16.1288 10.8483 15.7429C10.265 15.357 9.80939 14.8067 9.53921 14.1616C9.26903 13.5165 9.19643 12.8057 9.33063 12.1194C9.46482 11.433 9.79979 10.8019 10.293 10.3061C10.7863 9.81022 11.4156 9.472 12.1012 9.3342C12.7869 9.19641 13.498 9.26525 14.1445 9.53204C14.791 9.79882 15.3437 10.2515 15.7327 10.8328C16.1216 11.414 16.3293 12.0977 16.3293 12.797C16.3293 13.7306 15.9597 14.6263 15.3013 15.2881C14.6429 15.95 13.7492 16.3243 12.8156 16.3292Z" fill="#C9E698"/>
<path d="M33.5276 33.4905L38.5022 28.5345C39.1595 27.8698 39.5281 26.9727 39.5281 26.0379C39.5281 25.1031 39.1595 24.2061 38.5022 23.5414L20.0094 5.04853C19.6856 4.72022 19.2998 4.45959 18.8743 4.2818C18.4489 4.10401 17.9924 4.01261 17.5313 4.01294H7.54517C6.61844 4.0174 5.72978 4.38215 5.06714 5.03005L10.3561 10.319C10.6828 9.99237 11.0705 9.73328 11.4972 9.5565C11.924 9.37973 12.3815 9.28874 12.8434 9.28874C13.3053 9.28874 13.7627 9.37973 14.1895 9.5565C14.6163 9.73328 15.004 9.99237 15.3306 10.319C15.6573 10.6456 15.9164 11.0334 16.0932 11.4602C16.27 11.887 16.3609 12.3444 16.3609 12.8063C16.3609 13.2682 16.27 13.7256 16.0932 14.1524C15.9164 14.5792 15.6573 14.9669 15.3306 15.2936L33.5276 33.4905Z" fill="#D8EDB5"/>
<path d="M38.5022 23.5414L20.0094 5.04853C19.6856 4.72022 19.2998 4.45959 18.8743 4.2818C18.4489 4.10401 17.9924 4.01261 17.5313 4.01294H7.54517C7.08219 4.01293 6.62381 4.10443 6.1963 4.28217C5.7688 4.4599 5.38061 4.72036 5.0541 5.04859C4.72759 5.37682 4.46917 5.76637 4.29369 6.1948C4.1182 6.62323 4.02911 7.08211 4.03154 7.54508V17.5127C4.03081 17.9766 4.12192 18.4361 4.29967 18.8645C4.47741 19.293 4.73826 19.6821 5.06714 20.0093L23.56 38.5021C24.2247 39.1594 25.1217 39.528 26.0565 39.528C26.9913 39.528 27.8884 39.1594 28.5531 38.5021V38.5021L38.5207 28.5345C39.1755 27.8673 39.5408 26.9689 39.5374 26.0341C39.5339 25.0993 39.1619 24.2036 38.5022 23.5414ZM12.8156 16.3292C12.1163 16.3328 11.4316 16.1288 10.8483 15.7429C10.265 15.357 9.80939 14.8067 9.53921 14.1616C9.26903 13.5165 9.19643 12.8057 9.33062 12.1194C9.46482 11.433 9.79979 10.8019 10.293 10.3061C10.7863 9.81022 11.4156 9.472 12.1012 9.3342C12.7869 9.19641 13.498 9.26525 14.1445 9.53204C14.791 9.79882 15.3437 10.2515 15.7327 10.8328C16.1216 11.414 16.3293 12.0977 16.3293 12.797C16.3293 13.7306 15.9597 14.6263 15.3013 15.2881C14.6429 15.95 13.7492 16.3243 12.8156 16.3292V16.3292Z" stroke="#80BD28" stroke-linecap="round" stroke-linejoin="round"/>
<path d="M0.462402 0.462402L11.9095 11.9095" stroke="#80BD28" stroke-linecap="round" stroke-linejoin="round"/>
<path d="M22.284 19.0291L20.1758 21.1372C19.9617 21.3488 19.7916 21.6008 19.6756 21.8785C19.5595 22.1563 19.4998 22.4543 19.4998 22.7554C19.4998 23.0564 19.5595 23.3544 19.6756 23.6322C19.7916 23.9099 19.9617 24.1619 20.1758 24.3735C20.4474 24.6457 20.7816 24.8471 21.1492 24.9599C21.5168 25.0728 21.9064 25.0936 22.284 25.0207L26.112 24.244C26.5973 24.1431 27.1023 24.2022 27.5512 24.4124C28.0001 24.6226 28.3689 24.9726 28.6021 25.41C28.8354 25.8474 28.9207 26.3486 28.8452 26.8385C28.7696 27.3284 28.5374 27.7807 28.1832 28.1275L26.0565 30.2357" stroke="#80BD28" stroke-linecap="round" stroke-linejoin="round"/>
<path d="M20.4161 20.897L19.1771 19.658" stroke="#80BD28" stroke-linecap="round" stroke-linejoin="round"/>
<path d="M27.8872 28.3679L29.1447 29.6254" stroke="#80BD28" stroke-linecap="round" stroke-linejoin="round"/>
</g>
<defs>
<clipPath id="clip0_364_2656">
<rect width="40" height="40" fill="white"/>
</clipPath>
</defs>
</svg>
