<svg width="30" height="30" viewBox="0 0 30 30" fill="none" xmlns="http://www.w3.org/2000/svg">
<rect width="30" height="30" rx="2" fill="#1D2953"/>
<path d="M2.22998 17.524C3.27576 16.7539 6.74246 14.0913 11.8702 16.2365V13.6329C6.34113 12.6856 3.42516 15.3184 2.22998 17.524Z" fill="#FBCB07"/>
<path d="M5.85343 13.0339C5.34548 13.3802 4.77981 13.8861 4.48169 14.2766C8.08081 12.0234 12.1825 13.1133 12.2151 13.1228L19.9457 10.7304C19.9457 10.7304 11.7085 9.03953 5.85479 13.0339" fill="#FBCB07"/>
<path d="M20.8354 11.428L12.7897 13.9101V16.2801L19.3326 19.0989L27.341 16.1286V13.6092L20.8354 11.428Z" fill="white"/>
<path d="M27.6492 13.4936C27.6492 13.4936 27.6547 13.296 27.436 13.1989C27.4251 13.1941 20.8652 11.0523 20.8652 11.0523C20.8028 11.0321 20.7357 11.0317 20.673 11.051L12.6103 13.5445C12.5489 13.5659 12.495 13.6047 12.4552 13.6562C12.4154 13.7077 12.3914 13.7697 12.3862 13.8345V16.3566C12.3862 16.4843 12.4623 16.5997 12.5811 16.6486L19.2388 19.4492C19.3262 19.4861 19.4241 19.4895 19.5139 19.4587L27.4442 16.4503C27.5045 16.4272 27.5564 16.3864 27.593 16.3331C27.6296 16.2799 27.6492 16.2168 27.6492 16.1522V13.4936ZM13.0218 14.3167L19.048 16.7233V18.6696L13.0212 16.1454L13.0218 14.3167ZM19.3692 16.1672L13.6561 13.8861L20.7634 11.6879L26.3753 13.5208L19.3692 16.1672ZM27.0136 15.9342L19.6843 18.7144V16.7274L27.0136 13.9588V15.9342Z" fill="#FBCB07"/>
<path d="M15.237 14.0507L16.7079 13.5584C16.769 13.5373 16.7975 13.4769 16.7717 13.4239C16.7459 13.371 16.6746 13.3445 16.6135 13.3648L15.1419 13.8585C15.0808 13.8789 15.0523 13.9393 15.0781 13.9923C15.1053 14.0453 15.1752 14.0711 15.237 14.0507ZM15.5908 14.1899C15.618 14.2429 15.6879 14.2701 15.749 14.249L17.2199 13.7553C17.281 13.7349 17.3102 13.6752 17.2838 13.6222C17.258 13.5686 17.1867 13.5428 17.1255 13.5631L15.654 14.0575C15.5929 14.0779 15.5643 14.1376 15.5908 14.1906V14.1899ZM18.6759 14.0378L20.6839 13.3098C20.7661 13.28 20.8041 13.1978 20.7702 13.1265C20.7335 13.0545 20.6391 13.0205 20.5563 13.0504L18.5435 13.7743C18.4586 13.8049 18.4185 13.8884 18.4559 13.9611C18.4918 14.0344 18.5903 14.0677 18.6759 14.0378ZM19.0799 14.2273C19.1166 14.2979 19.2124 14.3325 19.2972 14.302L21.289 13.5754C21.3705 13.5448 21.4092 13.4626 21.3739 13.3906C21.3399 13.32 21.2448 13.2867 21.162 13.3159L19.1662 14.0412C19.082 14.0711 19.0433 14.1546 19.0799 14.2273ZM19.7807 14.4785C19.8174 14.5505 19.9145 14.5838 19.998 14.5532L21.9708 13.8253C22.0516 13.7961 22.0896 13.7139 22.0543 13.6433C22.0197 13.5726 21.9253 13.5387 21.8451 13.5686L19.8677 14.2938C19.7848 14.3237 19.7454 14.4072 19.7807 14.4785Z" fill="#1D2953"/>
</svg>
