<svg width="136" height="38" viewBox="0 0 136 38" fill="none" xmlns="http://www.w3.org/2000/svg">
<g id="Magento2_logo">
<g id="Group">
<g id="Logo 2">
<path id="Vector" d="M17.1392 4.1178L4.4292 11.451V26.105L8.05887 28.2049L8.03016 13.5468L17.1146 8.30526L26.1949 13.5468V28.1967L29.8246 26.105V11.4387L17.1392 4.1178Z" fill="#F26322"/>
<path id="Vector_2" d="M18.94 28.2008L17.1272 29.2548L15.3062 28.209V13.5468L11.6807 15.6425L11.6848 30.3007L17.1231 33.4382L22.5697 30.3007V15.6425L18.94 13.5468V28.2008Z" fill="#F26322"/>
<path id="Vector_3" d="M38.1338 11.5413L43.1251 24.1446H43.1661L48.0344 11.5413H49.9333V25.9861H48.6209V13.3992H48.5799C48.5101 13.6288 48.4363 13.8544 48.3584 14.0841C48.2887 14.2727 48.2107 14.4819 48.1246 14.7075C48.0385 14.9372 47.9565 15.1545 47.8949 15.3555L43.7116 25.9861H42.5222L38.2978 15.3596C38.2158 15.1709 38.1338 14.9659 38.0559 14.7444C37.9738 14.5229 37.9 14.3097 37.8303 14.1087C37.7483 13.8667 37.6662 13.6288 37.5883 13.3992H37.5473V25.9861H36.2964V11.5413H38.1338Z" fill="#4D4D4D"/>
<path id="Vector_4" d="M53.7478 26.0476C53.3541 25.941 52.9891 25.7523 52.6692 25.5021C52.3657 25.256 52.1196 24.9484 51.9514 24.5916C51.7751 24.2307 51.689 23.8042 51.689 23.3202C51.689 22.7009 51.8038 22.1965 52.0335 21.8068C52.259 21.4213 52.579 21.0973 52.9604 20.8676C53.35 20.6339 53.8052 20.4534 54.3261 20.3345C54.8757 20.2073 55.4294 20.113 55.9913 20.0515C56.5039 19.9981 56.9387 19.9407 57.2955 19.8792C57.6523 19.8177 57.9394 19.7398 58.165 19.6454C58.3864 19.5511 58.5464 19.4281 58.6489 19.2722C58.7514 19.1164 58.8007 18.9031 58.8007 18.6365V18.4355C58.8007 17.7219 58.5833 17.1928 58.1527 16.8483C57.722 16.5038 57.1027 16.3316 56.2948 16.3316C54.4369 16.3316 53.4566 17.1067 53.3664 18.657H52.1278C52.1975 17.6481 52.5707 16.8401 53.2475 16.2331C53.9283 15.6261 54.9413 15.3226 56.2866 15.3226C57.4308 15.3226 58.3331 15.5769 58.9934 16.0814C59.6537 16.5858 59.9818 17.4143 59.9818 18.5586V24.2348C59.9818 24.5424 60.0393 24.768 60.1541 24.9115C60.2689 25.051 60.4412 25.1289 60.6709 25.1453C60.7406 25.1453 60.8144 25.1371 60.8841 25.1248C60.958 25.1125 61.04 25.0879 61.1384 25.0633H61.1999V25.9738C61.0892 26.0189 60.9744 26.0558 60.8554 26.0845C60.6914 26.1214 60.5191 26.1378 60.351 26.1337C59.8957 26.1337 59.5307 26.0148 59.26 25.7769C58.9893 25.539 58.8417 25.1658 58.813 24.6573V24.4358H58.7596C58.5956 24.6573 58.4151 24.8664 58.2265 25.0633C58.0009 25.293 57.7466 25.4898 57.4677 25.6498C57.1437 25.8343 56.7992 25.9779 56.4383 26.0722C56.0487 26.1829 55.6016 26.2363 55.1054 26.2322C54.6419 26.2363 54.1867 26.1747 53.7478 26.0476ZM56.8279 24.9484C57.2668 24.768 57.6318 24.5342 57.9312 24.2512C58.4931 23.7222 58.8171 22.9839 58.8212 22.2129V20.3345C58.4849 20.5231 58.0747 20.6667 57.599 20.7692C57.1191 20.8717 56.627 20.9579 56.1143 21.0235C55.6713 21.0932 55.2612 21.1629 54.8798 21.2367C54.5025 21.3106 54.1744 21.4254 53.8996 21.5895C53.6289 21.7494 53.3992 21.975 53.2434 22.2457C53.0793 22.5205 53.0014 22.8814 53.0014 23.3284C53.0014 23.6893 53.067 23.9928 53.1941 24.2389C53.3131 24.4727 53.4853 24.6737 53.6986 24.8254C53.9201 24.9772 54.1703 25.0838 54.4369 25.1412C54.728 25.2027 55.0274 25.2314 55.3268 25.2314C55.8887 25.2191 56.3891 25.1289 56.8279 24.9484Z" fill="#4D4D4D"/>
<path id="Vector_5" d="M63.3444 28.8652C62.6431 28.3484 62.2453 27.6963 62.1551 26.9129H63.3649C63.4757 27.5199 63.7997 27.9547 64.3452 28.2172C64.8906 28.4796 65.5387 28.6109 66.2974 28.6109C67.4171 28.6109 68.2414 28.3443 68.7746 27.8152C69.3078 27.2821 69.5703 26.552 69.5703 25.621V23.9641H69.5087C69.1191 24.5547 68.668 25.0058 68.1553 25.3175C67.6426 25.6251 66.9905 25.781 66.1949 25.781C65.5058 25.781 64.8865 25.6538 64.337 25.3954C63.7915 25.1453 63.3116 24.7802 62.922 24.325C62.5324 23.8697 62.233 23.3202 62.0238 22.6804C61.8146 22.0406 61.708 21.3351 61.708 20.5682C61.708 19.7192 61.8269 18.9687 62.0689 18.3166C62.3109 17.6644 62.6349 17.1149 63.0409 16.6719C63.4347 16.2331 63.9227 15.8886 64.4641 15.663C65.0096 15.4333 65.5961 15.3185 66.1908 15.3185C66.9987 15.3185 67.6631 15.4825 68.1881 15.8147C68.7131 16.1469 69.1519 16.594 69.5005 17.1559H69.5621V15.5359H70.8007V25.5759C70.8007 26.7325 70.4767 27.6676 69.8286 28.3853C69.033 29.222 67.8682 29.6362 66.3343 29.6362C65.0424 29.6403 64.0417 29.3819 63.3444 28.8652ZM68.8197 23.5786C69.3734 22.8116 69.6482 21.7986 69.6482 20.5477C69.6482 19.9284 69.5826 19.3624 69.4472 18.8497C69.3119 18.3371 69.1027 17.8982 68.8197 17.5291C68.5408 17.16 68.1758 16.8688 67.7616 16.6719C67.335 16.471 66.8429 16.3684 66.2769 16.3684C65.2393 16.3684 64.4354 16.7498 63.8612 17.5168C63.287 18.2837 63.004 19.305 63.004 20.5887C62.9999 21.1424 63.0655 21.696 63.205 22.2333C63.3403 22.7378 63.5413 23.1766 63.812 23.5457C64.0745 23.9108 64.419 24.2061 64.8209 24.4152C65.2228 24.6244 65.7027 24.731 66.2564 24.731C67.4089 24.731 68.2619 24.3455 68.8197 23.5786Z" fill="#4D4D4D"/>
<path id="Vector_6" d="M75.1405 25.8344C74.5499 25.5719 74.029 25.1782 73.6148 24.686C73.2047 24.1939 72.8929 23.6156 72.6756 22.947C72.4582 22.2785 72.3516 21.5567 72.3516 20.7774C72.3516 19.9941 72.4664 19.2723 72.6961 18.6078C72.9258 17.9434 73.2457 17.3651 73.6517 16.873C74.0577 16.3849 74.5704 15.9912 75.1487 15.7205C75.7352 15.4457 76.3914 15.3063 77.1174 15.3063C77.9541 15.3063 78.6554 15.4662 79.2296 15.782C79.7915 16.0855 80.2672 16.5244 80.624 17.0534C80.9809 17.5866 81.2352 18.1936 81.3828 18.8826C81.5305 19.5799 81.6043 20.2894 81.6043 21.003H73.6476C73.6558 21.5608 73.7419 22.1145 73.9019 22.6476C74.0413 23.1234 74.2669 23.5746 74.5663 23.9683C74.8575 24.3497 75.2348 24.6532 75.6696 24.8583C76.1125 25.0756 76.6334 25.1823 77.224 25.1823C78.0976 25.1823 78.7743 24.969 79.2542 24.5466C79.734 24.12 80.0704 23.554 80.2713 22.8404H81.4853C81.2557 23.878 80.784 24.7065 80.0704 25.3258C79.3567 25.9451 78.4052 26.2527 77.224 26.2527C76.4406 26.2486 75.7475 26.1092 75.1405 25.8344ZM80.0704 18.5627C79.935 18.1116 79.7422 17.722 79.4839 17.3897C79.2255 17.0575 78.8933 16.791 78.5118 16.6105C78.1222 16.4218 77.6588 16.3275 77.1174 16.3275C76.5801 16.3275 76.1125 16.4218 75.7106 16.6105C75.3128 16.791 74.9559 17.0575 74.6688 17.3897C74.3776 17.7343 74.148 18.128 73.9921 18.5504C73.8199 19.018 73.705 19.506 73.6599 20.0023H80.2877C80.2836 19.5183 80.2057 19.0303 80.0704 18.5627Z" fill="#4D4D4D"/>
<path id="Vector_7" d="M84.4133 15.54V17.1354H84.4543C84.8112 16.6023 85.2869 16.1593 85.8365 15.8312C86.4107 15.4867 87.112 15.3145 87.9487 15.3145C88.9166 15.3145 89.7164 15.5933 90.3439 16.1552C90.9714 16.713 91.2831 17.521 91.2831 18.5709V25.9861H90.0322V18.6939C90.0322 17.8983 89.8189 17.3159 89.3965 16.9468C88.97 16.5736 88.3876 16.389 87.6493 16.3931C87.2228 16.389 86.7962 16.4669 86.3984 16.6187C86.0211 16.7581 85.6724 16.9673 85.3689 17.2339C85.0736 17.4964 84.8358 17.8163 84.6717 18.1731C84.4995 18.5463 84.4133 18.9523 84.4174 19.3625V25.9902H83.1665V15.54H84.4133Z" fill="#4D4D4D"/>
<path id="Vector_8" d="M94.5105 25.6334C94.1496 25.3422 93.9651 24.8623 93.9651 24.1897V16.5735H92.3901V15.5441H93.9651V12.3328H95.216V15.5441H97.1559V16.5735H95.216V23.9887C95.216 24.3661 95.3021 24.6244 95.4702 24.768C95.6384 24.9074 95.8927 24.9813 96.2249 24.9813C96.3766 24.9813 96.5284 24.9649 96.6801 24.932C96.8073 24.9074 96.9344 24.8705 97.0533 24.8213H97.1149V25.8918C96.7416 26.0148 96.352 26.0763 95.9624 26.0763C95.3595 26.064 94.8755 25.9205 94.5105 25.6334Z" fill="#4D4D4D"/>
<path id="Vector_9" d="M100.867 25.8343C100.281 25.5677 99.7601 25.174 99.3417 24.6819C98.9234 24.1897 98.6035 23.6114 98.382 22.947C98.1605 22.2826 98.0498 21.5566 98.0498 20.7774C98.0498 19.994 98.1605 19.2722 98.382 18.6078C98.6035 17.9434 98.9234 17.361 99.3417 16.8688C99.7601 16.3767 100.281 15.9829 100.867 15.7164C101.466 15.4416 102.143 15.3021 102.898 15.3021C103.652 15.3021 104.325 15.4416 104.92 15.7164C105.502 15.987 106.019 16.3808 106.433 16.8688C106.851 17.361 107.167 17.9393 107.38 18.6078C107.594 19.2763 107.7 19.9981 107.704 20.7774C107.704 21.5608 107.598 22.2826 107.38 22.947C107.163 23.6114 106.847 24.1897 106.433 24.6819C106.019 25.174 105.502 25.5636 104.92 25.8343C104.329 26.1091 103.656 26.2486 102.898 26.2486C102.139 26.2486 101.462 26.1091 100.867 25.8343ZM104.431 24.8541C104.87 24.6285 105.252 24.3045 105.543 23.9067C105.838 23.5048 106.06 23.0331 106.207 22.4918C106.503 21.368 106.503 20.1827 106.207 19.0589C106.06 18.5176 105.838 18.0459 105.543 17.644C105.252 17.2462 104.87 16.9221 104.431 16.6966C103.989 16.4669 103.476 16.3521 102.898 16.3521C102.319 16.3562 101.803 16.4669 101.351 16.6966C100.913 16.9262 100.535 17.2503 100.24 17.644C99.9364 18.0459 99.7108 18.5176 99.5632 19.0589C99.2679 20.1827 99.2679 21.368 99.5632 22.4918C99.7108 23.029 99.9364 23.5007 100.24 23.9067C100.535 24.3004 100.913 24.6244 101.351 24.8541C101.79 25.0838 102.303 25.1986 102.898 25.1986C103.492 25.1986 104.005 25.0838 104.431 24.8541Z" fill="#4D4D4D"/>
<path id="Vector_10" d="M109.305 17.279C108.529 17.279 107.992 16.7417 107.992 15.9378C107.992 15.134 108.542 14.5885 109.305 14.5885C110.067 14.5885 110.621 15.134 110.621 15.9378C110.621 16.7417 110.072 17.279 109.305 17.279ZM109.305 14.7402C108.681 14.7402 108.181 15.1709 108.181 15.9296C108.181 16.6884 108.677 17.1149 109.305 17.1149C109.932 17.1149 110.437 16.6843 110.437 15.9296C110.437 15.175 109.932 14.7402 109.305 14.7402ZM109.694 16.6515L109.247 16.0158H109.104V16.631H108.849V15.1381H109.301C109.612 15.1381 109.817 15.2939 109.817 15.5728C109.817 15.7861 109.702 15.9255 109.518 15.983L109.949 16.5899L109.694 16.6515ZM109.301 15.376H109.104V15.8148H109.288C109.456 15.8148 109.559 15.7451 109.559 15.5933C109.563 15.4416 109.469 15.3719 109.301 15.376Z" fill="#4D4D4D"/>
</g>
<g id="Group_2">
<path id="Vector_11" d="M123.95 30.1531C121.539 30.1531 119.123 30.149 116.711 30.1572C116.445 30.1572 116.375 30.1203 116.416 29.825C116.752 27.3601 117.962 25.3463 119.595 23.5336C120.989 21.9874 122.531 20.5929 124.028 19.1492C124.721 18.4807 125.423 17.8122 126.026 17.0576C126.907 15.9584 127.391 14.728 127.145 13.2884C126.944 12.099 126.218 11.3239 125.021 11.1106C123.934 10.9179 122.909 11.045 122.097 11.9022C121.576 12.4518 121.408 13.1572 121.284 13.8749C121.248 14.0964 121.28 14.3958 121.153 14.5188C121.051 14.6173 120.743 14.5147 120.53 14.4942C119.39 14.3794 118.245 14.2604 117.105 14.1579C116.917 14.1415 116.908 14.0554 116.929 13.9118C117.306 10.8604 118.561 8.69494 121.732 7.80495C123.901 7.19385 126.095 7.21025 128.15 8.22328C130.443 9.35525 131.567 11.2747 131.562 13.8339C131.562 15.8395 130.763 17.5538 129.598 19.1287C128.581 20.5068 127.293 21.6182 126.054 22.7871C125.119 23.6689 124.127 24.4933 123.356 25.535C123.229 25.7073 122.982 25.9 123.056 26.0723C123.118 26.2199 123.429 26.1256 123.63 26.1256C126.157 26.1297 128.687 26.1338 131.214 26.1215C131.501 26.1215 131.579 26.1912 131.575 26.4783C131.558 27.5939 131.558 28.7094 131.575 29.8209C131.579 30.108 131.485 30.1531 131.226 30.1531C128.798 30.149 126.374 30.1531 123.95 30.1531Z" fill="#EF4A12"/>
</g>
</g>
</g>
</svg>
