<svg width="160" height="160" viewBox="0 0 160 160" fill="none" xmlns="http://www.w3.org/2000/svg">
<g id="spotillustration_shoppingbag 2">
<g id="Group">
<path id="Vector" d="M72.6467 64.2998H85.3133V112.986H59.9133L65.5 64.2998H72.6467Z" fill="#547C88"/>
<path id="Vector_2" d="M57.9266 64.2998H65.4999L59.9133 112.986H13.0266L22.2533 64.2998H31.9199H46.6266H57.9266Z" fill="#9BB7C2"/>
<path id="Vector_3" d="M85.3134 64.2935H22.2467L13.02 112.98H85.3134V64.2935Z" stroke="black" stroke-width="1.5" stroke-miterlimit="10"/>
<path id="Vector_4" d="M85.3134 64.2935H65.5001L59.9067 112.98H85.3134V64.2935Z" stroke="black" stroke-width="1.5" stroke-miterlimit="10"/>
<path id="Vector_5" d="M31.9199 64.2934L34.2733 56.8667C35.9066 51.7134 40.6866 48.2134 46.0866 48.2134C54.1466 48.2134 60.0599 55.78 58.1066 63.6L57.8733 64.54" stroke="black" stroke-width="1.5" stroke-miterlimit="10"/>
<path id="Vector_6" d="M46.6267 64.2934L48.98 56.8667C50.6134 51.7134 55.3934 48.2134 60.7934 48.2134C68.8534 48.2134 74.7667 55.78 72.8134 63.6L72.58 64.54" stroke="black" stroke-width="1.5" stroke-miterlimit="10"/>
<path id="Vector_7" d="M28 82.9668H51.8933" stroke="black" stroke-width="1.5" stroke-miterlimit="10"/>
<path id="Vector_8" d="M28 94.8799H50.2933" stroke="black" stroke-width="1.5" stroke-miterlimit="10"/>
</g>
<g id="Group_2">
<path id="Vector_9" d="M135.487 64.2998H148.16V112.986H122.76L128.347 64.2998H135.487Z" fill="#547C88"/>
<path id="Vector_10" d="M120.773 64.2998H128.347L122.76 112.986H75.8733L85.1 64.2998H94.7666H109.473H120.773Z" fill="#9BB7C2"/>
<path id="Vector_11" d="M148.16 64.2935H85.0934L75.8667 112.98H148.16V64.2935Z" stroke="black" stroke-width="1.5" stroke-miterlimit="10"/>
<path id="Vector_12" d="M148.16 64.2935H128.347L122.753 112.98H148.16V64.2935Z" stroke="black" stroke-width="1.5" stroke-miterlimit="10"/>
<path id="Vector_13" d="M94.7666 64.2934L97.1199 56.8667C98.7533 51.7134 103.533 48.2134 108.933 48.2134C116.993 48.2134 122.907 55.78 120.953 63.6L120.72 64.54" stroke="black" stroke-width="1.5" stroke-miterlimit="10"/>
<path id="Vector_14" d="M109.473 64.2934L111.827 56.8667C113.46 51.7134 118.24 48.2134 123.64 48.2134C131.7 48.2134 137.613 55.78 135.66 63.6L135.427 64.54" stroke="black" stroke-width="1.5" stroke-miterlimit="10"/>
<path id="Vector_15" d="M90.8467 82.9668H114.733" stroke="black" stroke-width="1.5" stroke-miterlimit="10"/>
<path id="Vector_16" d="M90.8467 94.8799H113.14" stroke="black" stroke-width="1.5" stroke-miterlimit="10"/>
</g>
</g>
</svg>
