<svg width="65" height="40" viewBox="0 0 65 40" fill="none" xmlns="http://www.w3.org/2000/svg">
<path d="M65 0H0V40H65V0Z" fill="#FFCC01"/>
<path d="M21.9443 28.8721L22.0527 28.3594H19.4395L19.75 26.9004H22.126L22.2314 26.4024H19.8555L20.1309 25.0957H22.7002L22.8145 24.5684H19.6768L18.7627 28.8721H21.9443ZM23.0781 28.8721L24.6455 27.1026L25.4307 28.8721H26.1543L25.1084 26.6661L26.998 24.5684H26.3037L24.8623 26.2149L24.1152 24.5684H23.3857L24.3848 26.6661L22.375 28.8721H23.0781ZM27.3496 28.8721L27.7334 27.0528H29.0869C29.5205 27.0528 29.8687 26.9283 30.1314 26.6792C30.394 26.4302 30.5605 26.1377 30.6309 25.8018C30.7148 25.4112 30.6626 25.108 30.4741 24.8921C30.2856 24.6763 30 24.5684 29.6172 24.5684H27.6807L26.7666 28.8721H27.3496ZM28.999 26.5606H27.8389L28.1553 25.0694H29.3154C29.54 25.0694 29.7109 25.0997 29.8281 25.1602C30.0371 25.2735 30.1084 25.4883 30.042 25.8047C29.9814 26.086 29.8579 26.2823 29.6714 26.3936C29.4849 26.5049 29.2607 26.5606 28.999 26.5606ZM31.3662 28.8721L31.7559 27.0264H33.083C33.3213 27.0264 33.4912 27.0528 33.5928 27.1055C33.7666 27.2012 33.8311 27.3897 33.7861 27.6709L33.6689 28.3887C33.6397 28.5567 33.625 28.67 33.625 28.7286C33.625 28.7872 33.6309 28.835 33.6426 28.8721H34.3574L34.3779 28.7754C34.2959 28.7364 34.252 28.6485 34.2461 28.5118C34.2402 28.4317 34.252 28.3096 34.2813 28.1456L34.3838 27.5684C34.4268 27.3184 34.418 27.1377 34.3574 27.0264C34.2969 26.9151 34.1895 26.8252 34.0352 26.7569C34.2481 26.6573 34.4253 26.5254 34.5669 26.3614C34.7085 26.1973 34.8066 25.9864 34.8613 25.7286C34.9648 25.2344 34.834 24.8956 34.4688 24.712C34.2773 24.6163 34.0176 24.5684 33.6895 24.5684H31.6973L30.7832 28.8721H31.3662ZM33.209 26.5401H31.8613L32.1719 25.0694H33.5957C33.7949 25.0694 33.9482 25.0987 34.0557 25.1573C34.2549 25.2686 34.3223 25.4776 34.2578 25.7842C34.1973 26.0694 34.0757 26.2666 33.8931 26.376C33.7105 26.4854 33.4824 26.5401 33.209 26.5401ZM38.2832 28.8721L38.3916 28.3594H35.7783L36.0889 26.9004H38.4648L38.5703 26.4024H36.1943L36.4697 25.0957H39.0391L39.1533 24.5684H36.0156L35.1016 28.8721H38.2832ZM40.5537 28.9981C41.0127 28.9981 41.4375 28.8956 41.8281 28.6905C42.2188 28.4854 42.4648 28.1446 42.5664 27.668C42.6484 27.2852 42.5732 26.9932 42.3408 26.792C42.208 26.6768 42.0029 26.586 41.7256 26.5196L41.1514 26.3819C40.7647 26.2881 40.5205 26.21 40.419 26.1475C40.2647 26.0499 40.21 25.8956 40.2549 25.6846C40.2959 25.4932 40.4067 25.3252 40.5874 25.1807C40.7681 25.0362 41.0303 24.9639 41.374 24.9639C41.7998 24.9639 42.0781 25.0762 42.209 25.3008C42.2773 25.4239 42.3018 25.6006 42.2822 25.8311H42.8301C42.9316 25.3526 42.8482 25.0044 42.5796 24.7867C42.311 24.5689 41.9512 24.46 41.5 24.46C41.0098 24.46 40.6045 24.584 40.2842 24.8321C39.9639 25.0801 39.7627 25.3975 39.6807 25.7842C39.6045 26.1416 39.6836 26.4102 39.918 26.5899C40.0547 26.6934 40.3037 26.7881 40.665 26.8741L41.2217 27.0059C41.5225 27.0782 41.7363 27.1631 41.8633 27.2608C41.9902 27.3604 42.0283 27.5274 41.9775 27.7618C41.9111 28.0743 41.6914 28.2911 41.3184 28.4122C41.125 28.4747 40.919 28.5059 40.7002 28.5059C40.2119 28.5059 39.9014 28.3633 39.7686 28.0782C39.7002 27.9258 39.6846 27.7276 39.7217 27.4834H39.1738C39.0703 27.9483 39.1406 28.3165 39.3848 28.5879C39.6289 28.8614 40.0186 28.9981 40.5537 28.9981ZM44.5557 28.9981C45.0147 28.9981 45.4395 28.8956 45.8301 28.6905C46.2207 28.4854 46.4668 28.1446 46.5684 27.668C46.6504 27.2852 46.5752 26.9932 46.3428 26.792C46.21 26.6768 46.0049 26.586 45.7275 26.5196L45.1533 26.3819C44.7666 26.2881 44.5225 26.21 44.4209 26.1475C44.2666 26.0499 44.2119 25.8956 44.2568 25.6846C44.2979 25.4932 44.4087 25.3252 44.5894 25.1807C44.77 25.0362 45.0322 24.9639 45.376 24.9639C45.8018 24.9639 46.0801 25.0762 46.2109 25.3008C46.2793 25.4239 46.3037 25.6006 46.2842 25.8311H46.832C46.9336 25.3526 46.8501 25.0044 46.5815 24.7867C46.313 24.5689 45.9531 24.46 45.502 24.46C45.0117 24.46 44.6065 24.584 44.2861 24.8321C43.9658 25.0801 43.7647 25.3975 43.6826 25.7842C43.6065 26.1416 43.6856 26.4102 43.9199 26.5899C44.0566 26.6934 44.3057 26.7881 44.667 26.8741L45.2236 27.0059C45.5244 27.0782 45.7383 27.1631 45.8652 27.2608C45.9922 27.3604 46.0303 27.5274 45.9795 27.7618C45.9131 28.0743 45.6934 28.2911 45.3203 28.4122C45.127 28.4747 44.9209 28.5059 44.7022 28.5059C44.2139 28.5059 43.9033 28.3633 43.7705 28.0782C43.7022 27.9258 43.6865 27.7276 43.7236 27.4834H43.1758C43.0723 27.9483 43.1426 28.3165 43.3867 28.5879C43.6309 28.8614 44.0205 28.9981 44.5557 28.9981Z" fill="#D72036"/>
<path d="M12.7276 11L10.7787 13.6911C10.7787 13.6911 20.882 13.6911 21.4003 13.6911C21.9372 13.6911 21.9301 13.8984 21.6677 14.2597C21.4012 14.6265 20.9552 15.2644 20.6837 15.637C20.546 15.826 20.2969 16.1705 21.1223 16.1705C21.9949 16.1705 25.4659 16.1705 25.4659 16.1705C25.4659 16.1705 26.166 15.2022 26.7527 14.3927C27.5512 13.2916 26.822 11.0001 23.9678 11.0001C21.4131 11 12.7276 11 12.7276 11Z" fill="#D2002E"/>
<path d="M9.98987 19.7687L13.9044 14.363C13.9044 14.363 18.2438 14.363 18.7619 14.363C19.2988 14.363 19.2918 14.5703 19.0294 14.9317C18.7629 15.2984 18.3096 15.9295 18.0381 16.3021C17.9003 16.4912 17.6513 16.8362 18.4766 16.8362C19.3493 16.8362 24.9843 16.8362 24.9843 16.8362C24.443 17.5898 22.6875 19.7687 19.5352 19.7687C16.9805 19.7687 9.98987 19.7687 9.98987 19.7687Z" fill="#D2002E"/>
<path d="M32.4087 16.8348L30.286 19.768H24.6864C24.6864 19.768 26.808 16.8354 26.8098 16.8354L32.4087 16.8348Z" fill="#D2002E"/>
<path d="M40.986 16.1705H27.2899L31.0352 11H36.6331L34.4864 13.9648H36.9851L39.1327 11H44.73L40.986 16.1705Z" fill="#D2002E"/>
<path d="M40.5054 16.8353L38.3817 19.7678H32.7842C32.7842 19.7678 34.9058 16.8353 34.9076 16.8353H40.5054Z" fill="#D2002E"/>
<path d="M2 17.9911H10.2492L9.79862 18.6141H2V17.9911Z" fill="#D2002E"/>
<path d="M2 16.8353H11.0873L10.6358 17.4574H2V16.8353Z" fill="#D2002E"/>
<path d="M2 19.1474H9.4116L8.96313 19.7666H2V19.1474Z" fill="#D2002E"/>
<path d="M62.9991 18.614H54.7817L55.2326 17.9911H62.9991V18.614Z" fill="#D2002E"/>
<path d="M62.9992 19.7666L53.9464 19.7675L54.3948 19.1474H62.9992V19.7666Z" fill="#D2002E"/>
<path d="M56.0704 16.8353H63V17.4577L55.62 17.4583L56.0704 16.8353Z" fill="#D2002E"/>
<path d="M52.4831 11L48.7383 16.1704H42.8066C42.8066 16.1704 46.5523 11 46.5541 11H52.4831Z" fill="#D2002E"/>
<path d="M42.3263 16.8353C42.3263 16.8353 41.9172 17.4036 41.7184 17.6768C41.0153 18.6426 41.6369 19.7678 43.9315 19.7678C46.5814 19.7678 52.9214 19.7678 52.9214 19.7678L55.0449 16.8353H42.3263Z" fill="#D2002E"/>
</svg>
