<svg width="260" height="160" viewBox="0 0 260 160" fill="none" xmlns="http://www.w3.org/2000/svg">
<path d="M260 0H0V160H260V0Z" fill="#341B14"/>
<path d="M129.867 129.26C130.737 128.822 153.368 118.961 160.549 113.045C167.947 106.909 171.864 98.144 171.864 87.6257V38.3214L171.211 38.1022C153.15 28.2414 130.737 28.8987 129.649 28.8987C128.779 28.8987 106.366 28.2414 88.3053 38.1022L87.8701 38.3214V87.8448C87.8701 98.3631 91.7869 107.128 99.1853 113.264C106.366 119.18 128.997 129.041 129.867 129.26Z" fill="#341B14"/>
<path d="M129.867 130.356C129.867 130.356 105.931 119.838 98.5328 113.922C90.6992 107.348 87 98.3635 87 88.0643V36.7878C105.931 26.4887 129.867 27.3652 129.867 27.3652C129.867 27.3652 153.803 26.4887 172.734 36.7878V87.8452C172.734 98.1443 169.035 107.129 161.202 113.703C153.803 119.838 129.867 130.356 129.867 130.356ZM90.4816 88.0643C90.4816 97.7061 93.9632 105.595 100.709 111.073C106.802 116.113 124.862 124.221 129.867 126.412C134.872 124.221 153.15 115.894 159.026 111.073C165.771 105.595 169.253 97.4869 169.253 88.0643V37.6644C144.011 35.2539 113.982 36.5687 90.4816 58.4817V88.0643Z" fill="#FFB406"/>
<path d="M154.021 80.8332C157.285 82.8054 158.59 84.1202 158.808 86.5306C158.808 89.1602 157.067 90.6941 154.238 90.6941C151.845 90.6941 149.016 89.3793 147.057 87.6263V94.6384C149.451 95.9532 152.28 97.0489 155.326 97.0489C162.725 97.0489 166.206 91.7898 166.206 86.9689C166.424 82.5863 165.118 79.0802 158.808 75.355C155.979 73.6019 153.803 72.5063 153.803 69.8767C153.803 67.2472 156.197 66.1515 158.155 66.1515C160.766 66.1515 163.377 67.6854 164.901 69.2193V62.6454C163.595 61.5498 160.766 60.0158 156.632 60.235C151.627 60.4541 146.405 63.9602 146.405 70.0958C146.622 74.2593 147.928 77.3271 154.021 80.8332ZM128.344 96.6106C128.997 96.8298 130.085 97.0489 131.825 97.0489C140.312 97.0489 145.099 89.3793 145.099 78.4228C145.099 67.2471 140.094 60.4541 131.173 60.4541C127.038 60.4541 123.774 61.3306 120.945 63.0837V112.607H128.344V96.6106ZM128.344 66.8089C128.997 66.5898 130.085 66.1515 130.955 66.1515C135.307 66.1515 137.048 69.6576 137.048 78.2037C137.048 86.5306 134.872 90.475 130.52 90.475C129.432 90.475 128.561 90.2558 128.126 90.0367V66.8089H128.344ZM105.496 97.0489C110.065 97.0489 113.982 95.9532 116.811 93.9811V60.8924H109.195V89.5985C108.325 90.2558 107.237 90.475 105.713 90.475C102.232 90.475 101.797 87.188 101.797 85.2158V60.8924H94.1807V84.7776C94.1807 92.8854 98.0975 97.0489 105.496 97.0489ZM156.197 126.631V131.671H157.067V129.699H157.285L158.59 131.671H159.678C159.678 131.671 158.373 129.699 158.155 129.48C158.808 129.261 159.243 128.823 159.243 128.165C159.243 127.508 158.808 126.631 157.502 126.631H156.197ZM157.502 127.289C158.155 127.289 158.373 127.727 158.373 127.946C158.373 128.385 158.155 128.823 157.285 128.823H157.067V127.289H157.502Z" fill="#FFB406"/>
<path d="M160.983 129.042C160.983 130.795 159.46 132.329 157.719 132.329C155.979 132.329 154.455 130.795 154.455 129.042C154.455 127.289 155.979 125.755 157.719 125.755C159.678 125.755 160.983 127.289 160.983 129.042ZM157.719 124.879C155.543 124.879 153.585 126.632 153.585 129.042C153.585 131.234 155.326 133.206 157.719 133.206C159.895 133.206 161.854 131.453 161.854 129.042C161.854 126.851 159.895 124.879 157.719 124.879Z" fill="#FFB406"/>
</svg>
