<svg width="140" height="72" viewBox="0 0 140 72" fill="none" xmlns="http://www.w3.org/2000/svg">
<g clip-path="url(#clip0)">
<path d="M25.5171 22.4976C17.0531 22.4976 9.99995 26.088 9.99995 36.9216C9.99995 45.5041 14.7427 50.9085 25.7352 50.9085C38.6743 50.9085 39.5036 42.3852 39.5036 42.3852H33.2342C33.2342 42.3852 31.8901 46.9747 25.353 46.9747C20.0286 46.9747 16.1993 43.3779 16.1993 38.3369H40.1597V35.1732C40.1597 30.1859 36.9935 22.4976 25.5171 22.4976ZM25.2982 26.5407C30.3663 26.5407 33.8214 29.6455 33.8214 34.299H16.3378C16.3378 29.3585 20.848 26.5407 25.2982 26.5407Z" fill="#E53238"/>
<path d="M40.1552 12.0071V45.4682C40.1552 47.3675 40.0195 50.0345 40.0195 50.0345H45.9991C45.9991 50.0345 46.214 48.1192 46.214 46.3684C46.214 46.3684 49.1684 50.9907 57.2018 50.9907C65.661 50.9907 71.4072 45.1172 71.4072 36.7032C71.4072 28.8751 66.1293 22.5793 57.2154 22.5793C48.8682 22.5793 46.2745 27.0868 46.2745 27.0868V12.0071H40.1552ZM55.6719 26.7181C61.4166 26.7181 65.0698 30.9818 65.0698 36.7032C65.0698 42.8385 60.8506 46.852 55.7132 46.852C49.5819 46.852 46.2745 42.0644 46.2745 36.7576C46.2745 31.8127 49.2421 26.7181 55.6719 26.7181Z" fill="#0064D2"/>
<path d="M86.2686 22.4976C73.5353 22.4976 72.7187 29.4694 72.7187 30.5838H79.0566C79.0566 30.5838 79.3888 26.5134 85.8315 26.5134C90.0179 26.5134 93.2621 28.4299 93.2621 32.1136V33.4248H85.8315C75.9669 33.4248 70.7518 36.3108 70.7518 42.1671C70.7518 47.9301 75.5702 51.0658 82.0822 51.0658C90.9569 51.0658 93.8157 46.1621 93.8157 46.1621C93.8157 48.1126 93.9658 50.0347 93.9658 50.0347H99.5999C99.5999 50.0347 99.3818 47.6523 99.3818 46.1281V32.9537C99.3818 24.3152 92.4139 22.4976 86.2686 22.4976ZM93.2621 37.3587V39.107C93.2621 41.3874 91.8547 47.0567 83.5708 47.0567C79.0346 47.0567 77.0896 44.7928 77.0896 42.1667C77.0896 37.3895 83.6392 37.3587 93.2621 37.3587Z" fill="#F5AF02"/>
<path d="M95.9685 23.5911H103.098L113.331 44.0919L123.541 23.5911H130L111.404 60.089H104.628L109.994 49.9146L95.9685 23.5911Z" fill="#86B817"/>
</g>
<defs>
<clipPath id="clip0">
<rect x="10" y="12" width="120" height="48.096" fill="white"/>
</clipPath>
</defs>
</svg>
