<svg width="30" height="30" viewBox="0 0 30 30" fill="none" xmlns="http://www.w3.org/2000/svg">
<rect width="30" height="30" rx="2" fill="#AC0148"/>
<path d="M12.3222 26.0447L7.96871 23.4256V18.035C7.96871 18.035 7.66402 9.77912 16.8632 10.6639V14.8358C16.8632 14.8358 12.2929 14.2264 12.2929 17.8826C12.2871 21.533 12.3222 26.0447 12.3222 26.0447Z" fill="white"/>
<path d="M17.8945 10.5936H22.0371V14.8007H17.8945V10.5936Z" fill="#CDC6BE"/>
<path d="M12.9725 8.94727C14.3511 8.94727 15.4686 7.82973 15.4686 6.45117C15.4686 5.07262 14.3511 3.95508 12.9725 3.95508C11.594 3.95508 10.4764 5.07262 10.4764 6.45117C10.4764 7.82973 11.594 8.94727 12.9725 8.94727Z" fill="#CDC6BE"/>
</svg>
