<svg width="24" height="24" viewBox="0 0 24 24" fill="none" xmlns="http://www.w3.org/2000/svg">
<path d="M12.0973 15.9987C11.1413 15.9987 10.1854 15.9857 9.23081 15.9987C8.53619 16.0104 8.10419 15.707 7.85733 15.0692C7.46341 14.032 6.99858 13.0234 6.62566 11.9798C6.45496 11.5001 6.19891 11.3315 5.7065 11.4016C5.48111 11.427 5.25331 11.4231 5.02895 11.3899C4.73553 11.3625 4.46438 11.2236 4.27278 11.0025C4.08117 10.7814 3.98412 10.4954 4.00212 10.2049C4.0031 9.92539 4.11254 9.65683 4.30793 9.45451C4.50332 9.25219 4.76981 9.13149 5.05259 9.11723C5.77872 9.07963 6.50748 9.08482 7.23362 9.11723C7.79168 9.13927 8.12783 9.48542 8.32741 9.98714C8.75154 11.0554 9.20324 12.1133 9.61292 13.188C9.75605 13.5653 9.93725 13.7351 10.3745 13.7222C11.5169 13.6885 12.6593 13.6949 13.8017 13.7222C14.1956 13.7299 14.3978 13.6133 14.5396 13.2412C14.9624 12.1289 15.408 11.0247 15.8763 9.9288C16.2335 9.09519 17.1185 8.85276 17.7527 9.39078C18.1466 9.73045 18.2924 10.1686 18.0928 10.6665C17.4757 12.2105 16.8546 13.7533 16.2177 15.2896C16.005 15.8081 15.5612 16.0026 15.0176 16C14.0498 15.9948 13.0729 15.9987 12.0973 15.9987Z" fill="#0B7BBD"/>
<path d="M11.0132 6.39426C11.0132 4.72674 11.0132 3.06052 11.0132 1.3943C11.0132 0.647376 11.3136 0.182506 11.8584 0.045396C12.6684 -0.160923 13.3276 0.353567 13.3354 1.23238C13.3497 2.76149 13.3354 4.28929 13.3354 5.8184V6.56402C13.8932 6.0221 14.3249 5.56507 14.7969 5.15374C14.997 4.97012 15.2563 4.86499 15.5273 4.85756C15.7983 4.85012 16.0628 4.94089 16.2727 5.11326C16.6926 5.46713 16.8474 5.92025 16.6276 6.44258C16.5378 6.62719 16.4138 6.79294 16.2623 6.93095C15.1987 7.99649 14.1312 9.05725 13.0598 10.1132C12.4877 10.6747 11.9 10.6956 11.3266 10.138C10.2049 9.04463 9.09537 7.9386 7.99797 6.81996C7.52859 6.34464 7.52469 5.72438 7.93686 5.26082C8.03457 5.14687 8.15373 5.05344 8.2875 4.9859C8.42127 4.91835 8.56701 4.87802 8.71635 4.86722C8.86569 4.85642 9.01569 4.87537 9.15771 4.92297C9.29974 4.97057 9.431 5.04589 9.54395 5.1446C9.78037 5.34348 10.0044 5.55673 10.2149 5.78314C10.4281 6.00382 10.627 6.23887 10.8325 6.46739L11.0132 6.39426Z" fill="#8BC441"/>
<path d="M12.1509 23.9999C10.8069 23.9602 9.52089 23.4831 8.51869 22.6525C7.90517 22.1453 7.83641 21.5562 8.30978 21.0821C8.75141 20.6387 9.39402 20.6485 9.97978 21.1066C11.3748 22.1992 13.0144 22.187 14.404 21.0735C14.9805 20.6117 15.6284 20.6117 16.0767 21.0735C16.4932 21.5023 16.4575 22.1196 15.9617 22.5802C14.9157 23.5491 13.616 23.9423 12.1509 23.9999Z" fill="#8BC441"/>
<path d="M14.6976 19.6363C14.3627 19.631 14.0436 19.4918 13.8105 19.2495C13.5775 19.0071 13.4495 18.6813 13.4547 18.3438C13.46 18.0063 13.598 17.6847 13.8386 17.4498C14.0791 17.2149 14.4023 17.0859 14.7372 17.0912C14.9045 17.0916 15.0701 17.1253 15.2243 17.1906C15.3786 17.2558 15.5185 17.3512 15.6359 17.4713C15.7533 17.5914 15.8459 17.7337 15.9084 17.8901C15.9709 18.0465 16.002 18.2138 15.9999 18.3824C15.9909 18.7223 15.849 19.0448 15.605 19.2797C15.3611 19.5145 15.0349 19.6427 14.6976 19.6363Z" fill="#0B7BBD"/>
<path d="M10.9089 18.3416C10.9133 18.5941 10.8426 18.8422 10.7056 19.0543C10.5686 19.2664 10.3715 19.433 10.1396 19.5328C9.90757 19.6327 9.65113 19.6612 9.40286 19.6149C9.1546 19.5686 8.92573 19.4495 8.74538 19.2727C8.56504 19.0959 8.44138 18.8695 8.39013 18.6222C8.33888 18.375 8.36236 18.1181 8.45759 17.8842C8.55283 17.6503 8.7155 17.4501 8.9249 17.3089C9.13431 17.1677 9.38099 17.0921 9.63354 17.0915C9.80012 17.0871 9.96588 17.1162 10.121 17.1771C10.2761 17.2381 10.4173 17.3296 10.5363 17.4462C10.6553 17.5629 10.7496 17.7022 10.8136 17.8561C10.8776 18.0099 10.91 18.175 10.9089 18.3416Z" fill="#0B7BBD"/>
</svg>
