<svg width="260" height="160" viewBox="0 0 260 160" fill="none" xmlns="http://www.w3.org/2000/svg">
<rect width="260" height="160" fill="#13235E"/>
<path d="M151.152 54.3008C157.693 54.4621 164.184 54.1993 170.567 54.8752C181.376 56.0223 189.015 64.331 189.593 74.8088C189.914 80.6076 188.767 86.0441 185.011 90.7665C181.128 95.6484 175.918 98.3557 169.627 98.778C164.55 99.1187 159.425 98.9592 154.322 99.0135C153.292 99.0244 152.254 99.0135 151.152 99.0135V54.3008ZM159.921 92.1039C162.39 92.1039 164.81 92.2017 167.198 92.0857C173.709 91.7686 178.14 88.4451 179.983 82.5285C181.116 78.9825 181.196 75.2013 180.212 71.614C179.026 67.2648 176.335 64.0882 171.925 62.4101C168.034 60.9314 163.968 61.5693 159.918 61.4261L159.921 92.1039Z" fill="white"/>
<path d="M142.884 64.1232C140.882 63.4346 139.013 62.6481 137.055 62.1571C133.681 61.3072 130.244 61.1332 126.842 62.0954C121.177 63.6992 117.188 68.6391 116.689 74.65C116.451 77.5041 116.614 80.3238 117.667 83.0402C119.978 89.0057 126.118 92.4633 133.22 91.8979C136.691 91.617 139.923 90.7345 142.895 88.6995C142.925 89.0619 142.961 89.3102 142.963 89.5603C142.963 91.7348 142.937 93.9094 142.982 96.084C142.997 96.7218 142.771 97.068 142.207 97.3525C139.575 98.6934 136.738 99.2335 133.812 99.4437C129.021 99.7862 124.329 99.3712 119.978 97.2691C112.344 93.5814 108.236 87.5325 107.499 79.3651C107.142 75.4129 107.433 71.4932 108.981 67.7801C112.312 59.794 118.511 55.2637 127.324 54.1093C131.485 53.5657 135.645 53.7723 139.697 54.9647C142.893 55.9052 142.893 55.9269 142.893 59.071L142.884 64.1232Z" fill="white"/>
<path d="M54.4793 84.3573C50.4746 82.5252 46.8402 84.0456 42.9652 85.7798C45.8475 82.4781 48.8426 79.6675 52.4826 77.3643L61.2893 88.962C56.7675 91.2887 54.1973 95.1341 52.0765 99.418L52.712 99.0556C54.6091 98.0027 56.4836 96.91 58.4145 95.9188C59.119 95.5927 59.8742 95.3803 60.6501 95.29C61.5638 95.1522 62.0677 95.6161 62.141 96.5095C62.2426 97.7472 61.6278 98.733 60.8569 99.6246C60.086 100.516 59.2719 101.312 58.501 102.124C61.2104 103.392 68.7987 99.3075 71.3783 95.0308L77.1542 97.6421C75.7084 99.3691 74.4543 101.067 72.9878 102.558C68.59 107.043 63.2109 110.197 57.3579 112.525C53.8965 113.906 50.279 114.917 46.7293 116.09C46.4729 116.149 46.2129 116.193 45.9509 116.222C49.777 113.672 52.6706 110.742 53.4998 106.299C47.4174 112.134 40.3818 113.926 32 111.217C37.6781 109.126 39.814 104.733 40.9496 99.6862C42.4857 92.8617 47.0038 88.4201 53.1707 85.2598C53.6088 85.035 54.0638 84.8357 54.5094 84.6237L54.4793 84.3573Z" fill="#FB3E3E"/>
<path d="M80.8023 69.5199L63.3524 89.9464C61.743 87.8316 60.1711 85.7785 58.6031 83.7054C56.0667 80.3692 53.5567 77.0186 50.9902 73.706C50.5183 73.0989 50.571 72.7546 51.0579 72.191C56.4728 65.8957 61.8702 59.5876 67.25 53.2668C67.4267 53.0603 67.626 52.8627 67.908 52.542L80.8023 69.5199Z" fill="white"/>
<path d="M64.1504 90.6214L81.5589 70.2402L101.31 79.1831C101.088 79.4622 100.913 79.6996 100.722 79.9243C95.3105 86.2559 89.9012 92.593 84.4939 98.9355C84.1347 99.3577 83.8715 99.6422 83.2022 99.3359C77.0691 96.5308 70.9171 93.7654 64.7765 90.9838C64.5828 90.8932 64.408 90.7808 64.1504 90.6214V90.6214Z" fill="white"/>
<path d="M197.454 98.9361V54.5078H205.95V91.615H224V98.9361H197.454Z" fill="white"/>
<path d="M101.232 77.7107C94.6515 74.7333 88.304 71.8701 81.9697 68.9906C81.6699 68.838 81.4121 68.6187 81.2177 68.351C77.1603 63.0233 73.1129 57.6901 69.0755 52.3516C69.021 52.2809 68.9815 52.2011 68.8574 52C69.1564 52.1051 69.3425 52.154 69.5136 52.232C75.7746 55.0589 82.033 57.8907 88.289 60.7273C88.7089 60.9157 89.0748 61.1999 89.3551 61.5554C93.2157 66.7563 97.0619 71.9674 100.894 77.1888C100.965 77.283 101.023 77.3881 101.232 77.7107V77.7107Z" fill="white"/>
</svg>
