<svg width="31" height="30" viewBox="0 0 31 30" fill="none" xmlns="http://www.w3.org/2000/svg">
<g clip-path="url(#clip0_76786_30203)">
<rect width="30" height="30" transform="translate(0.00537109)" fill="white"/>
<path d="M13.1331 22.4992C13.1331 23.5338 13.9714 24.374 15.0043 24.374C16.0372 24.374 16.8755 23.5321 16.8755 22.4992C16.8755 21.4663 16.0372 20.6244 15.0043 20.6244C13.9714 20.6244 13.1331 21.4645 13.1331 22.4992V22.4992ZM26.1274 16.8748C25.6127 20.6156 23.1985 23.7496 19.8911 25.2671C18.5169 25.8968 16.987 26.2487 15.3775 26.2487H15.0025C12.935 26.2487 11.26 24.5703 11.26 22.4992C11.26 20.4281 12.935 18.7496 15.0025 18.7496C17.0701 18.7496 18.745 20.4281 18.745 22.4992C18.745 22.9608 18.6619 23.403 18.5098 23.8115C19.2632 23.5303 19.9689 23.15 20.6127 22.6867C20.6127 22.6867 20.6145 22.5611 20.6145 22.4992C20.6145 19.3934 18.1012 16.8748 15.0025 16.8748C11.9038 16.8748 9.3888 19.3934 9.3888 22.4992C9.3888 25.6049 11.9021 28.1235 15.0025 28.1235C17.3018 28.1235 19.4631 27.5292 21.3432 26.4857C24.854 24.5349 27.3761 21.017 27.9686 16.8731H26.1292L26.1274 16.8748ZM7.51933 16.8748H2.04002C2.63076 21.017 5.15286 24.5367 8.66365 26.4875C7.9385 25.3326 7.51933 23.9654 7.51933 22.5009V16.8766V16.8748ZM29.9707 15.0001C29.9707 23.2845 23.2692 30.0001 15.0025 30.0001C6.73581 30.0001 0.0361328 23.2827 0.0361328 14.9983H9.39057V17.5381C10.763 15.9817 12.7687 14.9983 15.0043 14.9983C18.6424 14.9983 21.6757 17.6018 22.3495 21.0489C23.5823 19.5296 24.3322 17.6 24.3605 15.4953V14.9983H29.9742L29.9707 15.0001Z" fill="#193C6B"/>
<path d="M15.0041 9.10678H14.0685V5.62429C13.0356 5.62429 12.1972 6.46263 12.1972 7.49907C12.1972 8.18 12.5598 8.77781 13.1045 9.10501H10.6868C10.4551 8.61686 10.326 8.07211 10.326 7.49907C10.326 6.83936 10.4958 6.22033 10.7947 5.68266C10.6443 5.64551 10.4887 5.62429 10.326 5.62429C9.29308 5.62429 8.45474 6.46263 8.45474 7.49907C8.45474 8.18 8.81908 8.77781 9.36206 9.10501H6.9443C6.71261 8.61686 6.5835 8.07211 6.5835 7.49907C6.5835 5.42797 8.25842 3.74951 10.326 3.74951C11.0069 3.74951 11.6472 3.93168 12.1972 4.25004C12.7473 3.93168 13.3875 3.74951 14.0685 3.74951C14.3921 3.74951 14.7052 3.79019 15.0041 3.86801C15.303 3.79019 15.616 3.74951 15.9379 3.74951C16.6206 3.74951 17.2591 3.93168 17.8092 4.25004C18.361 3.93168 18.9995 3.74951 19.6804 3.74951C21.7462 3.74951 23.4229 5.42797 23.4229 7.49907C23.4229 8.07388 23.2938 8.61863 23.0621 9.10501H20.6443C21.1873 8.77781 21.5517 8.18 21.5517 7.49907C21.5517 6.46263 20.7133 5.62429 19.6804 5.62429C19.5195 5.62429 19.3621 5.64551 19.2117 5.68266C19.5106 6.22033 19.6804 6.83936 19.6804 7.49907C19.6804 8.07388 19.5513 8.61863 19.3196 9.10501H16.9019C17.4448 8.77781 17.8074 8.18 17.8074 7.49907C17.8074 6.46263 16.9708 5.62429 15.9362 5.62429V9.10678H15.0023H15.0041Z" fill="#193C6B"/>
<path d="M6.94482 10.7411C6.94482 10.1167 7.45066 9.60913 8.075 9.60913C8.69933 9.60913 9.20517 10.1167 9.20517 10.7411C9.20517 11.3654 8.69933 11.8748 8.075 11.8748C7.45066 11.8748 6.94482 11.3672 6.94482 10.7411" fill="#193C6B"/>
<path d="M20.8018 10.7411C20.8018 10.1167 21.3076 9.60913 21.9319 9.60913C22.5563 9.60913 23.0621 10.1167 23.0621 10.7411C23.0621 11.3654 22.5563 11.8748 21.9319 11.8748C21.3076 11.8748 20.8018 11.3672 20.8018 10.7411" fill="#193C6B"/>
<path d="M17.3374 10.7411C17.3374 10.1167 17.8432 9.60913 18.4676 9.60913C19.0919 9.60913 19.5977 10.1167 19.5977 10.7411C19.5977 11.3654 19.0919 11.8748 18.4676 11.8748C17.8432 11.8748 17.3374 11.3672 17.3374 10.7411" fill="#193C6B"/>
<path d="M13.874 10.7411C13.874 10.1167 14.3799 9.60913 15.0042 9.60913C15.6285 9.60913 16.1344 10.1167 16.1344 10.7411C16.1344 11.3654 15.6285 11.8748 15.0042 11.8748C14.3799 11.8748 13.874 11.3672 13.874 10.7411" fill="#193C6B"/>
<path d="M10.4092 10.7411C10.4092 10.1167 10.915 9.60913 11.5394 9.60913C12.1637 9.60913 12.6695 10.1167 12.6695 10.7411C12.6695 11.3654 12.1637 11.8748 11.5394 11.8748C10.915 11.8748 10.4092 11.3672 10.4092 10.7411" fill="#193C6B"/>
<path d="M9.39062 12.4991H20.6163V14.3739H9.39062V12.4991Z" fill="#193C6B"/>
<path d="M14.6932 1.69261V1.24867H14.0688V0.624337H14.6932V0H15.3175V0.624337H15.9419V1.24867H15.3175V1.69261C15.6801 1.82172 15.9419 2.16838 15.9419 2.57694C15.9419 3.09515 15.5245 3.51433 15.0062 3.51433C14.488 3.51433 14.0706 3.09338 14.0706 2.57694C14.0706 2.16838 14.3306 1.82172 14.695 1.69261" fill="#193C6B"/>
</g>
<defs>
<clipPath id="clip0_76786_30203">
<rect width="30" height="30" fill="white" transform="translate(0.00537109)"/>
</clipPath>
</defs>
</svg>
