<svg width="30" height="30" viewBox="0 0 30 30" fill="none" xmlns="http://www.w3.org/2000/svg">
<rect width="30" height="30" rx="2" fill="#FFCC00"/>
<g clip-path="url(#clip0)">
<path d="M5.27586 12.8L4.31738 14.1166C4.31738 14.1166 9.28624 14.1166 9.54114 14.1166C9.80519 14.1166 9.8017 14.218 9.67264 14.3948C9.54156 14.5742 9.32222 14.8862 9.18872 15.0685C9.12098 15.161 8.99848 15.3295 9.4044 15.3295C9.83356 15.3295 11.5406 15.3295 11.5406 15.3295C11.5406 15.3295 11.8849 14.8558 12.1735 14.4598C12.5662 13.9211 12.2075 12.8001 10.8038 12.8001C9.54744 12.8 5.27586 12.8 5.27586 12.8Z" fill="#D2002E"/>
<path d="M3.92944 17.0899L5.8546 14.4453C5.8546 14.4453 7.98878 14.4453 8.24357 14.4453C8.50762 14.4453 8.50418 14.5467 8.37512 14.7235C8.24404 14.9029 8.02111 15.2117 7.8876 15.394C7.81981 15.4865 7.69736 15.6552 8.10323 15.6552C8.53244 15.6552 11.3037 15.6552 11.3037 15.6552C11.0376 16.0239 10.1742 17.0899 8.62388 17.0899C7.36748 17.0899 3.92944 17.0899 3.92944 17.0899Z" fill="#D2002E"/>
<path d="M14.9551 15.6545L13.9111 17.0895H11.1572C11.1572 17.0895 12.2006 15.6549 12.2015 15.6549L14.9551 15.6545Z" fill="#D2002E"/>
<path d="M19.1734 15.3295H12.4376L14.2796 12.8H17.0327L15.9769 14.2505H17.2058L18.262 12.8H21.0148L19.1734 15.3295Z" fill="#D2002E"/>
<path d="M18.9371 15.6548L17.8926 17.0894H15.1398C15.1398 17.0894 16.1832 15.6548 16.1841 15.6548H18.9371Z" fill="#D2002E"/>
<path d="M0 16.2202H4.057L3.83539 16.525H0V16.2202Z" fill="#D2002E"/>
<path d="M0 15.6548H4.46917L4.24713 15.9591H0V15.6548Z" fill="#D2002E"/>
<path d="M0 16.7859H3.64505L3.42449 17.0888H0V16.7859Z" fill="#D2002E"/>
<path d="M29.9996 16.5249H25.9583L26.18 16.2202H29.9996V16.5249Z" fill="#D2002E"/>
<path d="M29.9996 17.0888L25.5474 17.0892L25.7679 16.7859H29.9996V17.0888Z" fill="#D2002E"/>
<path d="M26.592 15.6548H30V15.9593L26.3705 15.9596L26.592 15.6548Z" fill="#D2002E"/>
<path d="M24.8277 12.8L22.986 15.3295H20.0688C20.0688 15.3295 21.911 12.8 21.9119 12.8H24.8277Z" fill="#D2002E"/>
<path d="M19.8326 15.6548C19.8326 15.6548 19.6314 15.9328 19.5337 16.0665C19.1879 16.539 19.4936 17.0894 20.6221 17.0894C21.9253 17.0894 25.0433 17.0894 25.0433 17.0894L26.0877 15.6548H19.8326Z" fill="#D2002E"/>
</g>
<defs>
<clipPath id="clip0">
<rect width="30" height="7" fill="white" transform="translate(0 11.5)"/>
</clipPath>
</defs>
</svg>
