<svg width="30" height="30" viewBox="0 0 30 30" fill="none" xmlns="http://www.w3.org/2000/svg">
<rect width="30" height="30" rx="2" fill="#005CB9"/>
<path d="M4.82785 10.625H1.25V19.375H2.57965V16.1612H4.78931C5.67575 16.1612 6.40159 15.8599 6.87693 15.2887C7.2816 14.8054 7.5 14.1463 7.5 13.3931C7.5 12.1126 6.79985 10.625 4.82785 10.625ZM2.57965 11.8741H4.81501C6.06757 11.8741 6.17035 13.0353 6.17035 13.3868C6.17035 14.7552 5.18114 14.8996 4.75719 14.8996H2.58607V11.8741H2.57965Z" fill="white"/>
<path d="M24.3437 10.625C22.128 10.625 20.3442 12.1547 20 14.2351H21.3206C21.6398 12.889 22.8541 11.8427 24.3437 11.8427C26.0837 11.8427 27.4481 13.2378 27.4481 15.0061C27.4481 16.7684 26.0837 18.1512 24.3437 18.1512C23.2421 18.1512 22.2908 17.6005 21.74 16.7439C21.6023 17.2273 21.4083 17.6678 21.1579 18.0533C21.9528 18.8733 23.0794 19.375 24.3437 19.375C26.816 19.375 28.75 17.4476 28.75 15C28.75 12.5586 26.816 10.625 24.3437 10.625Z" fill="#FFA400"/>
<path d="M17.2763 14.9023V16.0021H19.8074C19.5755 17.3464 18.5193 18.1224 17.0316 18.1224C15.2541 18.1224 13.863 16.7781 13.8437 15.0367V15.0245C13.8437 14.5845 13.9338 14.1752 14.0884 13.7963C14.0948 13.7841 14.1013 13.7658 14.1077 13.7535C14.1206 13.7291 14.1335 13.7047 14.1399 13.6802C14.1464 13.6619 14.1593 13.6436 14.1657 13.6252C14.185 13.5825 14.2043 13.5458 14.2301 13.503C14.2301 13.4969 14.2365 13.4969 14.2365 13.4908C14.7775 12.5009 15.8273 11.8471 17.0574 11.8594C18.0814 11.8655 18.9766 12.336 19.5562 13.0631C19.7687 12.5804 20.0392 12.1954 20.2646 11.9144C19.4532 11.1261 18.3326 10.6373 17.0703 10.6251C16.014 10.619 15.048 10.9489 14.2816 11.5172C13.6762 11.951 13.2125 12.5193 12.9098 13.1853C12.8132 11.8594 11.7377 10.729 10.2242 10.729C8.81382 10.729 7.76405 11.4927 7.54508 12.672L7.5 12.9042L8.70433 13.1853L8.75585 12.9287C8.87822 12.3237 9.43853 11.9449 10.2178 11.9449C11.055 11.9449 11.596 12.6415 11.596 13.3808C11.596 13.7352 11.3255 14.2851 10.8489 14.8412L7.61592 18.5501V19.2589H13.0258V17.9574H9.73478L11.9374 15.5133C12.1692 15.2078 12.3624 14.9756 12.5105 14.7067C12.5041 14.8106 12.4977 14.9145 12.4977 15.0184C12.4977 17.4625 14.4877 19.375 17.0316 19.375C19.6335 19.375 21.2114 17.7985 21.2436 15.1406L21.25 14.9023H17.2763Z" fill="#FFA400"/>
</svg>
