<svg width="30" height="30" viewBox="0 0 30 30" fill="none" xmlns="http://www.w3.org/2000/svg">
<path d="M30 2.5C30 1.11929 28.8807 -2.38419e-06 27.5 -2.38419e-06H2.5C1.11929 -2.38419e-06 0 1.11929 0 2.5V27.5C0 28.8807 1.11929 30 2.5 30H27.5C28.8807 30 30 28.8807 30 27.5V2.5Z" fill="#ED2929"/>
<path d="M9.52102 14.7524L9.43776 14.5556L11.9809 12.4393L4.49975 14.3133L3.375 14.5949L4.27117 14.9022L6.22851 15.5728L10.5277 17.0503L9.52102 14.7524Z" fill="white"/>
<path d="M17.5365 11.6008L17.6122 11.0301L18.1602 6.50388L18.7127 1.95946L13.2177 11.4313L16.0424 9.21509L16.324 9.66014L17.046 10.8091L17.5365 11.6008Z" fill="white"/>
<path d="M13.996 18.8015L12.5821 19.8324L12.1037 20.1821L12.0053 19.9944L11.1061 18.1839L10.8352 17.645L10.767 18.0689L9.17908 28.125L11.2787 24.613L13.286 21.2478L14.7423 18.8076L15.3236 17.8357L13.996 18.8015Z" fill="white"/>
<path d="M26.6249 14.5838L18.8849 12.4569L18.4247 12.3282L17.8494 12.1708L19.2785 14.6398L18.0235 15.6525L16.1298 17.1875L17.2878 16.8999L20.4759 16.1112L24.6176 15.0803L26.6249 14.5838Z" fill="white"/>
<path d="M13.5884 14.1648L15.14 11.5278L11.6795 14.2102L11.2511 14.5417L13.5884 14.1648Z" stroke="white" stroke-width="0.16" stroke-linecap="round" stroke-linejoin="round"/>
<path d="M13.0793 17.0259L13.3957 15.2411L13.5895 14.1648L11.2537 14.5417L11.5943 15.1987L12.9415 17.7888L13.0793 17.0259Z" fill="white" stroke="white" stroke-width="0.16" stroke-linecap="round" stroke-linejoin="round"/>
<path d="M14.5506 14.329L17.006 14.7407L16.072 13.13L15.4468 12.0598L15.191 11.6132L15.1395 11.53L13.5894 14.1655L14.5506 14.329Z" fill="white" stroke="white" stroke-width="0.16" stroke-linecap="round" stroke-linejoin="round"/>
<path d="M13.5892 14.1663L13.394 15.2426L13.0791 17.0274L12.9398 17.7888L13.3213 17.5027L17.0044 14.7431L14.5505 14.3283L13.5892 14.1663Z" stroke="white" stroke-width="0.16" stroke-linecap="round" stroke-linejoin="round"/>
</svg>
