<svg width="260" height="160" viewBox="0 0 520 320" xmlns="http://www.w3.org/2000/svg" version="1.1">
  <rect width="520" height="320" fill="#E9EEF2"/>
  <path d="m132.00001,67.24303l-73.4,40l81.5,47.5c0.7,0.4 1.6,1.3 1.6,2.2l0,69.9c0,1 -0.9,1.6 -1,1.7l-4.9,2.7c-0.8,0.4 -1.9,0.5 -3,-0.1l-4.3,-2.4c-0.6,-0.3 -1.2,-1.2 -1.2,-2.1l0,-61.9c0,-1.1 -1.2,-1.6 -2,-2.1l-70.7,-41.2l0,82.7c0,1.8 1.8,3.9 3.2,4.8l73.6,43.4c2.4,1.4 3.8,1.2 7,-0.5l72.7,-42.9c1.7,-1 3.3,-2.9 3.3,-4.9l0,-82.6l-48.8,28.5c-0.6,0.4 -1.7,0.5 -2.4,0.1l-4.4,-2.6c-0.9,-0.5 -1.7,-1.5 -1.7,-2.6l-0.1,-5.2c0,-0.8 0.5,-1.8 1.2,-2.2l52.2,-30.4l-73.5,-40c-1,-0.4 -3.7,-0.5 -4.9,0.2l0,0z" fill="#DC0032" clip-rule="evenodd" fill-rule="evenodd" id="XMLID_6_"/>
  <path id="svg_1" d="m315.80001,203.94303l0,-97.3l-18.2,0l0,31.9c-1.7,-1 -9.1,-2.3 -15,-2.2c-19.4,0.5 -33.9,15.9 -33.5,34.6c0.5,24.5 15,34.8 37.6,36.2c11.8,0.9 25.7,-2.7 29.1,-3.2l0,0zm-18.1,-13.2c-1.2,0.3 -9.1,1.1 -12,0.6c-12,-1.9 -17.7,-8.1 -17.9,-18.7c-0.1,-11.4 4.6,-19.6 18.6,-20.2c2.4,-0.1 10.2,1.3 11.2,2.2l0.1,36.1l0,0z" fill="3C3D3B"/>
  <path id="svg_2" d="m465.40001,203.94303l0,-97.3l-18.2,0l0,31.9c-1.7,-1 -9.1,-2.3 -15,-2.2c-19.4,0.5 -33.9,15.9 -33.5,34.6c0.5,24.5 15,34.8 37.6,36.2c11.7,0.9 25.6,-2.7 29.1,-3.2l0,0zm-18.1,-13.2c-1.2,0.3 -9.1,1.1 -12,0.6c-12,-1.9 -17.7,-8.1 -17.9,-18.7c-0.1,-11.4 4.6,-19.6 18.6,-20.2c2.4,-0.1 10.2,1.3 11.2,2.2l0.1,36.1l0,0z" fill="3C3D3B"/>
  <path d="m326.10001,142.14303l0,91.3l18.4,0l-0.1,-79.4c1.2,-0.3 9,-1.3 12,-1.1c12.1,0.7 17.7,7.5 17.9,18.2c0.2,6.8 -2.1,12.5 -6.5,16c-3.4,2.7 -8,4 -13.4,4.2l0,16c8.5,0.2 17,-1.5 23.8,-5.9c8.8,-5.7 15.1,-18.3 14.7,-30.2c-0.6,-21.6 -12.8,-34 -37.6,-34.5c-11.6,-0.5 -25.7,3.6 -29.2,5.4l0,0z" fill="3C3D3B" id="XMLID_1_"/>
</svg>