<svg width="30" height="30" viewBox="0 0 30 30" fill="none" xmlns="http://www.w3.org/2000/svg">
<rect width="30" height="30" rx="2" fill="#13235E"/>
<path d="M11.1445 15.0341C9.87169 14.4518 8.71659 14.935 7.48501 15.4862C8.40108 14.4368 9.353 13.5435 10.5099 12.8115L13.3089 16.4976C11.8717 17.2371 11.0549 18.4592 10.3808 19.8208L10.5828 19.7056C11.1857 19.371 11.7815 19.0237 12.3952 18.7086C12.6191 18.605 12.8591 18.5375 13.1057 18.5088C13.3961 18.465 13.5563 18.6124 13.5796 18.8964C13.6119 19.2897 13.4165 19.6031 13.1715 19.8864C12.9265 20.1698 12.6677 20.4226 12.4227 20.6807C13.2838 21.0838 15.6956 19.7856 16.5154 18.4264L18.3512 19.2563C17.8916 19.8052 17.4931 20.3449 17.027 20.8189C15.6292 22.2443 13.9196 23.2465 12.0594 23.9866C10.9593 24.4254 9.80954 24.7468 8.68134 25.1195C8.59985 25.1384 8.51723 25.1524 8.43395 25.1615C9.64999 24.3512 10.5696 23.4198 10.8332 22.0076C8.90005 23.8622 6.66395 24.4318 4 23.5707C5.80465 22.9061 6.48349 21.51 6.84442 19.906C7.33263 17.737 8.76858 16.3254 10.7286 15.3209C10.8678 15.2495 11.0124 15.1861 11.1541 15.1188L11.1445 15.0341Z" fill="#FB3E3E"/>
<path d="M19.5105 10.3181L13.9645 16.8102C13.453 16.1381 12.9534 15.4855 12.455 14.8266C11.6489 13.7663 10.8512 12.7014 10.0355 11.6486C9.88551 11.4556 9.90224 11.3462 10.057 11.1671C11.778 9.16626 13.4934 7.16139 15.2033 5.1525C15.2594 5.08684 15.3228 5.02406 15.4124 4.92212L19.5105 10.3181Z" fill="white"/>
<path d="M14.2181 17.0248L19.751 10.5471L26.0285 13.3894C25.9579 13.4781 25.9024 13.5535 25.8414 13.625C24.1216 15.6373 22.4024 17.6514 20.6838 19.6672C20.5697 19.8014 20.486 19.8918 20.2733 19.7945C18.324 18.9029 16.3688 18.024 14.4171 17.1399C14.3556 17.1112 14.3 17.0754 14.2181 17.0248Z" fill="white"/>
<path d="M26.0039 12.9215C23.9124 11.9752 21.895 11.0652 19.8818 10.1501C19.7865 10.1015 19.7046 10.0318 19.6428 9.94675C18.3532 8.25347 17.0668 6.55847 15.7837 4.86173C15.7663 4.83927 15.7538 4.81393 15.7144 4.75C15.8094 4.7834 15.8685 4.79896 15.9229 4.82372C17.9128 5.72219 19.9019 6.6222 21.8902 7.52375C22.0237 7.58363 22.14 7.67398 22.229 7.78696C23.456 9.43992 24.6785 11.0961 25.8963 12.7556C25.919 12.7856 25.9375 12.819 26.0039 12.9215Z" fill="white"/>
</svg>
