<svg width="24" height="24" viewBox="0 0 24 24" fill="none" xmlns="http://www.w3.org/2000/svg">
<path d="M2.57912 11.7887C2.58645 12.0195 2.67436 12.2404 2.82758 12.4132C2.97495 12.5684 3.18199 12.6527 3.39585 12.6447C3.53639 12.6476 3.6751 12.6124 3.79732 12.5429C3.90751 12.4826 3.9883 12.38 4.02114 12.2588H4.94491C4.83589 12.6143 4.67452 12.888 4.40451 13.0799C4.121 13.2759 3.78258 13.3766 3.43807 13.3676C2.44349 13.3674 1.73314 12.7407 1.73314 11.4871C1.72977 11.2415 1.76819 10.9971 1.84686 10.7644C1.91702 10.5586 2.02956 10.3697 2.17728 10.2101C2.32487 10.0537 2.50581 9.93257 2.70669 9.85581C2.92121 9.77018 3.15075 9.72839 3.3817 9.73301C3.92173 9.73301 4.29527 9.90383 4.5724 10.2452C4.84953 10.5865 4.97761 11.1011 4.97761 11.7887H2.57912ZM4.07093 11.2134C4.06865 11.0992 4.04578 10.9862 4.0034 10.8801C3.96719 10.7904 3.91279 10.7091 3.8435 10.6415C3.77847 10.5793 3.70105 10.5314 3.61623 10.5012C3.53192 10.471 3.44299 10.4556 3.3534 10.4557C3.16248 10.4535 2.9781 10.5252 2.83865 10.6556C2.69584 10.8068 2.61365 11.0054 2.60771 11.2134H4.07093Z" fill="#D51317"/>
<path d="M5.27386 14.9285V9.76967H6.15093L6.15826 10.1924C6.36127 9.8663 6.68876 9.75054 7.11912 9.75054C7.3145 9.74878 7.50761 9.79204 7.68364 9.87686C7.86744 9.96044 8.02954 10.0852 8.15725 10.2417C8.29567 10.4148 8.40036 10.6123 8.46598 10.824C8.5442 11.076 8.58218 11.3388 8.57852 11.6025C8.58108 11.8455 8.54919 12.0877 8.48379 12.3217C8.42734 12.5254 8.33335 12.7169 8.20666 12.8862C8.08892 13.0421 7.93635 13.1682 7.76113 13.2545C7.5865 13.3436 7.39258 13.3882 7.19661 13.3844C6.77095 13.3844 6.42945 13.2744 6.17226 12.9143V14.9285H5.27386ZM6.97183 12.6061C7.49564 12.6061 7.75756 12.2507 7.75761 11.5397C7.76956 11.2712 7.69317 11.0063 7.54009 10.7854C7.41333 10.6008 7.20277 10.4916 6.97879 10.4942C6.76215 10.4926 6.5576 10.5942 6.42805 10.7679C6.27321 10.9734 6.19506 11.2264 6.20701 11.4835C6.20701 12.232 6.46195 12.6062 6.97183 12.6061Z" fill="#2C2926"/>
<path d="M11.7846 10.5241C11.7401 10.3631 11.6559 10.216 11.5397 10.096C11.4117 9.97317 11.256 9.88292 11.0857 9.83292C10.8662 9.76723 10.6377 9.73651 10.4086 9.74179C10.1719 9.73681 9.93565 9.76643 9.70749 9.82977C9.53564 9.87757 9.37641 9.96269 9.24114 10.079C9.1234 10.1877 9.03432 10.3236 8.98168 10.4749C8.9234 10.6356 8.89378 10.8052 8.89414 10.9761H9.74312C9.75625 10.8332 9.81673 10.6988 9.91505 10.5942C10.0062 10.5007 10.157 10.4488 10.3676 10.4488C10.5148 10.441 10.6615 10.4728 10.7921 10.5411C10.89 10.5915 10.9511 10.6928 10.95 10.8029C10.9589 10.9053 10.9137 11.0049 10.8307 11.0654C10.7511 11.1192 10.5967 11.1623 10.3676 11.1949C10.1385 11.2274 9.92683 11.2636 9.73264 11.3035C9.5561 11.3366 9.38645 11.3994 9.23095 11.4893C9.09129 11.5727 8.97714 11.6928 8.90103 11.8366C8.81342 12.0215 8.77244 12.225 8.78175 12.4294C8.77207 12.6866 8.87296 12.9356 9.05888 13.1135C9.24358 13.2889 9.53476 13.3767 9.93242 13.3767C10.1433 13.3808 10.353 13.3439 10.5499 13.2679C10.714 13.2014 10.8604 13.0979 10.9779 12.9654C10.9845 13.0665 11.0033 13.1664 11.034 13.2629H11.8531V11.1029C11.8584 10.9077 11.8353 10.7127 11.7846 10.5241ZM10.8622 12.2641C10.7739 12.4483 10.6182 12.5915 10.4272 12.664C10.3233 12.7044 10.2125 12.7247 10.101 12.7236C9.8063 12.7236 9.65896 12.595 9.65896 12.3378C9.65104 12.2063 9.70566 12.0789 9.80632 11.994C9.90456 11.9145 10.0846 11.849 10.3466 11.7975C10.4089 11.7855 10.4657 11.7737 10.5171 11.7622C10.5171 11.7622 10.7692 11.7082 10.935 11.6631L10.9293 11.9729C10.9296 12.0739 10.9066 12.1735 10.8622 12.2641Z" fill="#2C2926"/>
<path d="M14.6017 12.8747C14.5748 12.9396 14.5325 12.9971 14.4787 13.0424C14.4083 13.1043 14.3306 13.1575 14.2475 13.201C14.0615 13.2847 13.8583 13.3231 13.6546 13.3132C13.4175 13.3216 13.1821 13.2697 12.9705 13.1623C12.7848 13.069 12.6238 12.9331 12.5004 12.7659C12.3778 12.5951 12.2896 12.402 12.2408 12.1976C12.1869 11.9818 12.1598 11.7602 12.1601 11.5377C12.1573 11.2883 12.1976 11.0402 12.2794 10.8046C12.3507 10.5968 12.4601 10.404 12.602 10.2363C12.7338 10.0827 12.8964 9.95848 13.0793 9.87175C13.2511 9.78501 13.4411 9.74051 13.6335 9.74198C14.0638 9.74198 14.3866 9.84462 14.6017 10.191V9.76984H15.4888V13.3202C15.4888 13.5821 15.4693 13.8125 15.3805 14.0113C15.2973 14.2024 15.1727 14.3725 15.0157 14.5095C14.8551 14.6463 14.6691 14.7499 14.4684 14.8147C14.0327 14.9538 13.5647 14.955 13.1283 14.8182C12.9349 14.7571 12.7551 14.6595 12.5986 14.5305C12.4514 14.4067 12.3328 14.2522 12.2513 14.0779C12.1646 13.8888 12.1214 13.6826 12.125 13.4746H12.9739C12.9633 13.6604 13.0398 13.8407 13.1809 13.9622C13.3382 14.0831 13.5335 14.1441 13.7317 14.1341C13.9544 14.1408 14.1726 14.0701 14.3492 13.9341C14.516 13.8041 14.6101 13.6017 14.6017 13.3903V12.8747ZM13.7633 12.5976C13.9786 12.6018 14.184 12.5075 14.3211 12.3415C14.4685 12.1708 14.5421 11.9381 14.5421 11.6434C14.5421 10.9044 14.2825 10.5349 13.7633 10.5348C13.2441 10.5348 12.9845 10.8856 12.9845 11.5872C12.9845 11.8959 13.0582 12.1415 13.2055 12.324C13.3373 12.4988 13.5444 12.6004 13.7633 12.5976Z" fill="#2C2926"/>
<path d="M22.1861 11.8222C22.1354 11.6997 22.0485 11.5957 21.9369 11.524C21.7828 11.4317 21.6162 11.362 21.4422 11.3171C21.2363 11.2584 20.9837 11.1871 20.6844 11.1031C20.5393 11.0664 20.3991 11.0122 20.267 10.9418C20.1803 10.9004 20.1245 10.8133 20.1231 10.7173C20.1176 10.6184 20.1754 10.5269 20.267 10.4893C20.4024 10.438 20.5469 10.4153 20.6915 10.4226C20.8464 10.4134 21.0001 10.4542 21.13 10.5392C21.2145 10.6057 21.2719 10.7009 21.2913 10.8067H22.1778C22.1595 10.5157 22.0262 10.244 21.8074 10.0515C21.5781 9.85041 21.2155 9.74579 20.7198 9.74579C20.4882 9.74044 20.2569 9.76691 20.0325 9.82453C19.8687 9.86698 19.7141 9.93912 19.5764 10.0375C19.4717 10.1179 19.3896 10.224 19.3379 10.3454C19.2841 10.4619 19.2566 10.5888 19.2572 10.7171C19.2554 10.8504 19.2756 10.9831 19.3169 11.1099C19.3564 11.2355 19.4306 11.3473 19.5309 11.4325C19.6754 11.5479 19.8377 11.6391 20.0115 11.7026C20.2763 11.8018 20.5484 11.8803 20.8253 11.9376C20.9713 11.9647 21.1121 12.0144 21.2427 12.085C21.3355 12.1438 21.3881 12.249 21.3795 12.3586C21.3783 12.4732 21.3031 12.574 21.1936 12.6078C21.0522 12.665 20.9006 12.6924 20.7481 12.6885C20.5701 12.6932 20.3949 12.643 20.2465 12.5445C20.1448 12.476 20.0773 12.3674 20.0608 12.246H19.119C19.1281 12.3908 19.1679 12.532 19.2359 12.6603C19.3151 12.8118 19.428 12.9433 19.5658 13.0445C19.7214 13.1568 19.8961 13.2397 20.0815 13.2892C20.3011 13.3483 20.5277 13.377 20.755 13.3748C21.2602 13.3748 21.6415 13.2733 21.8988 13.0702C22.1392 12.8895 22.2767 12.6029 22.2671 12.3023C22.2736 12.1383 22.246 11.9749 22.1861 11.8222Z" fill="#2C2926"/>
<path d="M16.5765 11.7887C16.5838 12.0195 16.6717 12.2404 16.8249 12.4132C16.9723 12.5684 17.1793 12.6527 17.3932 12.6447C17.5337 12.6476 17.6725 12.6124 17.7947 12.5429C17.9049 12.4826 17.9857 12.38 18.0185 12.2588H18.9423C18.8332 12.6143 18.6719 12.888 18.4019 13.0799C18.1184 13.2759 17.7799 13.3766 17.4354 13.3676C16.4405 13.3676 15.7301 12.7408 15.7301 11.4872C15.7267 11.2416 15.7651 10.9972 15.8438 10.7645C15.9139 10.5588 16.0265 10.3699 16.1742 10.2103C16.3219 10.0538 16.5029 9.93257 16.704 9.85581C16.9185 9.77018 17.1481 9.72839 17.3791 9.73301C17.9191 9.73301 18.2926 9.90383 18.5698 10.2452C18.8469 10.5865 18.975 11.1011 18.975 11.7887H16.5765ZM18.0683 11.2134C18.066 11.0992 18.0431 10.9862 18.0008 10.8801C17.9645 10.7904 17.9101 10.7091 17.8409 10.6415C17.7758 10.5793 17.6984 10.5314 17.6136 10.5012C17.5292 10.471 17.4403 10.4555 17.3507 10.4556C17.1597 10.4535 16.9753 10.5252 16.8359 10.6557C16.6931 10.8069 16.6109 11.0055 16.605 11.2135L18.0683 11.2134Z" fill="#2C2926"/>
</svg>
