<?xml version="1.0" encoding="UTF-8"?>
<svg width="16px" height="16px" viewBox="0 0 16 16" version="1.1" xmlns="http://www.w3.org/2000/svg" xmlns:xlink="http://www.w3.org/1999/xlink">
    <!-- Generator: Sketch 48.2 (47327) - http://www.bohemiancoding.com/sketch -->
    <title>parcel icon</title>
    <desc>Created with Sketch.</desc>
    <defs></defs>
    <g id="Print-shipping-label-v1" stroke="none" stroke-width="1" fill="none" fill-rule="evenodd" transform="translate(-227.000000, -170.000000)">
        <g id="parcel-icon" transform="translate(227.000000, 170.000000)" fill="#718087">
            <path d="M7.63277838,4.32432432e-05 L-8.64864865e-05,3.64890811 L-8.64864865e-05,12.0086919 L7.63277838,15.6575568 L15.2656432,12.0086919 L15.2656432,3.64890811 L7.63277838,4.32432432e-05 Z M2.15256216,4.05755676 L7.63277838,1.43788108 L9.47407568,2.31788108 L4.04618378,4.96307027 L2.15256216,4.05755676 Z M5.54153514,5.67744865 L10.969427,3.03312432 L13.1129946,4.05755676 L7.63277838,6.67723243 L5.54153514,5.67744865 Z M8.28142703,7.80501622 L13.9683459,5.08674595 L13.9683459,11.1913946 L8.28142703,13.9096649 L8.28142703,7.80501622 Z M1.29721081,11.1913946 L1.29721081,5.08674595 L6.98412973,7.80501622 L6.98412973,13.9096649 L1.29721081,11.1913946 Z" id="Fill-1"></path>
            <polygon id="Fill-2" points="6.00038919 12.2402162 5.99909189 11.0108108 3.72882162 9.97902703 3.73011892 11.2088649"></polygon>
        </g>
    </g>
</svg>