<svg width="261" height="160" viewBox="0 0 261 160" fill="none" xmlns="http://www.w3.org/2000/svg">
<rect width="260" height="160" transform="translate(0.015625)" fill="white"/>
<path d="M34.5149 54.7966H49.945C44.768 84.1336 37.4595 91.3402 52.8886 92.356L32.7889 99.7654C24.973 91.6448 27.1045 88.2947 34.5149 54.7966Z" fill="#074796"/>
<path d="M84.4575 54.7966H99.9885L94.3041 81.0871L77.7583 85.2492L84.4575 54.7966Z" fill="#074796"/>
<path d="M34.4131 100.577C53.3837 95.2419 72.8082 90.6773 92.6804 86.8733C92.6804 86.8733 90.447 101.592 67.4048 104.74C44.3626 107.887 34.4131 100.577 34.4131 100.577Z" fill="#CDCDCD"/>
<path d="M105.674 54.7966H139.477C152.774 55.0694 160.995 59.8902 163.738 69.6174L146.481 71.6481C140.289 65.659 133.386 68.5017 118.362 67.7906L116.536 76.5204L100.293 79.7686L105.674 54.7966Z" fill="#074796"/>
<path d="M168.103 69.2108C187.603 67.4663 208.012 66.5884 229.111 66.3681L231.851 54.6947L193.277 54.7966C175.476 54.9448 170.806 61.5915 168.103 69.2108V69.2108Z" fill="#074796"/>
<path d="M98.8733 85.8584L114.912 83.1176L113.085 91.9494L130.951 91.8475C142.431 91.5233 146.456 85.9933 148.613 79.1582L163.942 77.636C161.607 93.5735 144.046 105.652 126.992 104.74H94.813L98.8733 85.8584V85.8584Z" fill="#CDCDCD"/>
<path d="M168.001 77.4333C169.998 81.4246 173.489 84.7892 185.359 84.641L207.386 84.5391C216.218 83.8289 214.187 92.4569 205.66 92.1522L163.94 91.8476L161.199 104.74L201.397 104.638C224.236 106.769 234.895 83.9298 223.324 76.9249C203.937 76.2024 185.539 76.4113 168.001 77.4323V77.4333Z" fill="#CDCDCD"/>
</svg>
